<svg xmlns="http://www.w3.org/2000/svg" width="483.82" height="224.59" viewBox="0 0 483.82 224.59"><defs><style>.cls-1{fill:#49241a;}.cls-2{fill:#f7f8f9;}</style></defs><title>back_button</title><g id="Layer_4" data-name="Layer 4"><path class="cls-1" d="M2.93,69.4a2.92,2.92,0,0,0-2.93,3L2.31,165a2.78,2.78,0,0,0,3.06,2.73L44,164.32c1.65-.15,1.67,0,.05.31L5.74,172.1a2.73,2.73,0,0,0-2.13,3.46L8.9,194.39A3.77,3.77,0,0,0,12.7,197l28.5-2.49c1.64-.14,1.68.09.09.52l-28.15,7.53a2.93,2.93,0,0,0-2.06,3.66l4.14,14.17A3.33,3.33,0,0,0,19,222.69l270.55-54.91a2.69,2.69,0,0,1,3.26,2.38l5.82,52.74c.19,1.64,1.42,2.18,2.76,1.21L482.89,91.53a1.68,1.68,0,0,0-.27-3.11l-89.3-44.25a10.06,10.06,0,0,0-5.63-.72l-22.22,4.63c-1.61.33-1.67.15-.12-.41l14.17-5.13c1.55-.57,1.57-1.52,0-2.13L277.9.2a1.74,1.74,0,0,0-2.58,1.89l4.42,65.11a2.75,2.75,0,0,1-2.79,3Z"/><path class="cls-2" d="M108.84,157.65q.76,8.32-2.37,11.48Q104,171.56,98.12,172l-3.07.28a32.8,32.8,0,0,1-5.84,1.31c-3.34.53-5.28.63-5.83.32q-1.75-1-2.62-18.84a66.61,66.61,0,0,0-1.28-8.54,68.16,68.16,0,0,1-1.29-8.65l-.33-12A78.12,78.12,0,0,0,77.61,110c0,.36-.07-.84-.33-3.61-.21-.72-.47-1.13-.78-1.25a2.66,2.66,0,0,0-1.22-.11,17.43,17.43,0,0,0-4.06,1c-1.53.54-2.42,1-2.67,1.49a7,7,0,0,0,.18,3.23c.82.07,1.49.16,2,.25a1.11,1.11,0,0,1,1-.53c0-.22-.11-.32-.25-.31-.78-1.25-1.39-1.86-1.82-1.82,0-.37.18-.58.43-.64s.45-.1.6-.12a1.69,1.69,0,0,1,1.93.55,3.4,3.4,0,0,1,1.08,2.16c.11,1.17-.52,2-1.87,2.49a4.51,4.51,0,0,1-3.32,0c-1.45-.62-2.28-2-2.47-4.06a4.53,4.53,0,0,1,.81-3.24c1-.62,1.77-1.11,2.4-1.46l6.58-1.74a9.06,9.06,0,0,1,2.4.22,9,9,0,0,0,2,.26,32.63,32.63,0,0,0,3.92-.58l2.47-.78q1.63-.25,2.4-.33l2.69.42a9.39,9.39,0,0,1,3.92.63,11.76,11.76,0,0,1,6.14,5.51q1.25,2.76.63,4.47a42.29,42.29,0,0,1,1.32,7.06q-.09,3.87-.24,5.88c0,2.36-.23,3.88-.68,4.59a12.19,12.19,0,0,1-2.9,2.69A10.8,10.8,0,0,1,97.16,134l0,.22.23.08c.3.13,1.29.48,3,1.06a5.8,5.8,0,0,1,2.69,1.63,11.59,11.59,0,0,1,1.83,3.64c.46,1.47.91,2.92,1.34,4.35A70.67,70.67,0,0,1,108.84,157.65Zm-22.3-23.79a18,18,0,0,0,2,.25,11.45,11.45,0,0,0,2.37.11c1.77-.17,2.78-2.23,3-6.18q-.57-9.78-.91-14.67a52,52,0,0,0-.76-7.14c-.38-1-1.46-1.65-3.24-2a6.38,6.38,0,0,0-3-.17c-.14.09-.36.26-.66.5a1.52,1.52,0,0,1-.68.39,102.24,102.24,0,0,1,.74,10.32c.14,1.51.24,2.63.31,3.36Q86.14,129.52,86.54,133.86ZM98.12,142q-1.71-4.16-2.19-4.56a4.3,4.3,0,0,0-2.4-.83c-1-.09-2-.17-2.89-.23-1.79-.21-3.09-.38-3.91-.53a12.38,12.38,0,0,0,.43,3,16.9,16.9,0,0,1,.77,2.92,36.55,36.55,0,0,1-.19,5.12q.35,3.74.51,5.6l.46,5c.54,2,.9,3.53,1.08,4.55a23.59,23.59,0,0,1,.3,3.3,9.34,9.34,0,0,0,.51,3q1.13,2.67,3,2.61l3.29-1.75a13.31,13.31,0,0,0,3.24-4.84,39,39,0,0,0,.57-4.71Q101,149.25,98.12,142Z"/><path class="cls-2" d="M155.75,163.26a2.44,2.44,0,0,1,1,1.46c-.1.52-.17.94-.22,1.24a9,9,0,0,0-1.57.31,8.44,8.44,0,0,1-1.25.28l-3.18.18a20.15,20.15,0,0,1-2.16.59,21.87,21.87,0,0,1-2.82.53,2.94,2.94,0,0,1-2.13-.35,10.39,10.39,0,0,1-.4-4.28c-.12-.57-.73-2.38-1.82-5.41a27.7,27.7,0,0,0-1.86-4.63,3.57,3.57,0,0,0-1.34-.1,35.24,35.24,0,0,0-6.43,2.14c-2.91,1.15-4.68,2.11-5.31,2.86a6,6,0,0,0-1.2,3.15c-.06,1-.14,2.11-.26,3.23q-.52,6.34-.51,6.45.43,4.71,3.83,5.62a.94.94,0,0,1,.41.29.83.83,0,0,1,.22.53l-.33,0,0,.22q-4.09-.06-4.26-1.82l-.54.05.58,6.36-.44,0a37.92,37.92,0,0,1-1.49-4.28,6,6,0,0,1-.16-1.65c0-.81,0-1.32,0-1.54-.38-.11-.56-.1-.54.05a12.17,12.17,0,0,1-2.73,1.58l-1.57-.19,0-.22a5.69,5.69,0,0,0,3-2.26,30.94,30.94,0,0,0,1.75-6.24c.7-5.07,1.12-8.57,1.24-10.5l.3-3.89-.22,0-5.1,3.34a10.76,10.76,0,0,0-1.19-2.1l7-3.85q.06-7.74.26-11.51.09-15.81-.42-27.36c0-.29,0-1.69.06-4.21,0-2.28,0-4-.16-5.28a5.74,5.74,0,0,0-.83-3c-.41-.48-1.6-.63-3.57-.44q-6,.55-6.51,2.47a4.09,4.09,0,0,0-.1,1.34,3,3,0,0,0,1.07,2.05,2.65,2.65,0,0,0,2.06.75c1-.08,1.37-.71,1.26-1.88l-1.49,0c-.33,0-.5-.38-.49-1.11s.12-1.12.34-1.14l0,.22c2.23-.5,3.44.23,3.62,2.21a3.76,3.76,0,0,1-.8,2.67,3.45,3.45,0,0,1-2.58,1.39,4,4,0,0,1-3.6-1.38,6.48,6.48,0,0,1-1.63-3.88q-.42-4.48,3.2-4.82c1.09-.17,1.88-.32,2.39-.44a19.37,19.37,0,0,1,5.35-.72,45,45,0,0,1,5.12.48q4.23.35,4.71.72a7.93,7.93,0,0,1,1.54,3.51c.34,1.37.69,2.7,1,4q2.43,7.31,3.33,9.77,3.45,10,5,15,4.43,10.77,6.69,16.21,3.72,10.5,5.54,15.86Q154.64,162,155.75,163.26Zm-17.28-13.75c-.09-.95-.8-1.48-2.14-1.57-1.34.56-2.38.95-3.09,1.16q-3.6,1.67-5.52,2.5a4.81,4.81,0,0,0-1.57.92,4.33,4.33,0,0,0-.69,3.26l1.31-.12q7.8-4.14,10.31-4.37a7.63,7.63,0,0,0,1.13-1A1.07,1.07,0,0,0,138.47,149.51Zm-12.23.35.65-.06q8.17-3.74,10.25-3.93a11.9,11.9,0,0,0-1-3.55c-1.23-3.79-2.06-6.33-2.47-7.62q-3-10.66-4.35-16.06a72,72,0,0,0-3.24-10q.51,16.31.71,24.46Q126.5,144.31,126.24,149.86Z"/><path class="cls-2" d="M191.18,155.7a9.32,9.32,0,0,1-.63,4c-.58.86-3.13,2.22-7.63,4.07s-7.32,2.71-8.43,2.6q-2.79-.3-6.63-3.59a14.22,14.22,0,0,1-2.58-4c-1.08-2.14-1.54-3.52-1.37-4.12a41.25,41.25,0,0,1-2.13-7.54c-.37-1.59-.83-4.23-1.4-7.94-.38-2.61-.67-4.54-.86-5.77.08.8.06-1.4-.06-6.62q-.11-7.17.16-10.29,1.33-5.86,2.19-8.6,1.65-6.12,3-7.9,2.81-3.13,8.86-3.36a60.5,60.5,0,0,1,11.45-.39c.37,0,.56,0,.57.17s.09.18,0,.33-1,1.49-2.68,4.44q-2.1,3.63-2.54,3.66a36,36,0,0,1-3.81-.64,13.12,13.12,0,0,0-2.41.22,41.16,41.16,0,0,0-.26,4.44,97.13,97.13,0,0,0,.37,22l.8,5.12c.15,1.68.27,3,.35,3.83q1.22,6,1.92,11.2c.19,2.12.39,4.24.58,6.36q.93,4.11,4,3.83a9.12,9.12,0,0,0,6.34-3.13,4.6,4.6,0,0,0,.6-3,6.74,6.74,0,0,0-.37-2.29,1.44,1.44,0,0,0-1.68-.84c-1.53.14-2.43.78-2.7,1.91a4.92,4.92,0,0,0,.28,1.85,3.3,3.3,0,0,1,1.83,0q.4.24.42,1.56a5.28,5.28,0,0,1-3.3.19,2.9,2.9,0,0,1-1.8-2.7q-.41-4.5,5-5,3-.27,4,1.84A10.13,10.13,0,0,1,191.18,155.7Zm-23.13-26.81c1.63.07,2.84.1,3.65.1l0-.22c0-3.38,0-6.81,0-10.27s.11-6.09.26-7.87a16.68,16.68,0,0,0,.18-4.32Q167.36,112.93,168.05,128.89Zm1,4.54c.2.2,1,.28,2.39.22a6.32,6.32,0,0,0,1.19-.33l-.27-2.84-4.16.38A8,8,0,0,0,169.08,133.43ZM176.36,158c-.38-1.73-.65-3-.8-3.9,0-1.11-.07-1.91-.11-2.43q-1-7.19-1.66-10.78c-.27-2.11-.45-3.67-.54-4.7a2.82,2.82,0,0,0-1.73-.72l-2.36.77,0,.22a50.92,50.92,0,0,1,1.28,5.51c.48,2,.88,3.49,1.19,4.42.74,3.25,1.29,5.66,1.66,7.25l.85,2a8.54,8.54,0,0,0,1,1.07,5.09,5.09,0,0,1,1,1.06C176.22,157.89,176.29,158,176.36,158Z"/><path class="cls-2" d="M202.81,91.33q4.69-.64,5.39.94,1,2.46.94,11.74.11,2.86.77,9.21c0,1.39.15,3.52.36,6.37a31.77,31.77,0,0,1,.5,4.15c.09.29.28.34.56.17q3.66-6.3,5.75-10.91,1.84-3.6,5-10.85a43.86,43.86,0,0,0,1-5.83,12,12,0,0,1,.74-3.83c-.23-.93-.06-1.43.51-1.48a1.64,1.64,0,0,0-.16-.54c2.77-.32,5.55-.58,8.33-.76l.22,0a17.11,17.11,0,0,1-1,6.07c-.62,1.9-1.24,3.81-1.87,5.71-.37,1.51-1,3.65-2,6.4q-1.42,2.23-4,6.91-.53,1.38-1.78,4.26a11.14,11.14,0,0,0-1.57,3.14A31.16,31.16,0,0,0,222,125.8q1.54,3.28,4.83,9.42a40.79,40.79,0,0,0,1.69,5.38c.64,1.5,1.64,3.69,3,6.6a92.82,92.82,0,0,1,3.83,8.51,22.53,22.53,0,0,1,1.14,3l-2.43.22c-.22.1-1.17.42-2.87,1a19.63,19.63,0,0,1-3.76,1,2.89,2.89,0,0,1-1.81-.28c-.33-1.14-.76-2.62-1.3-4.41-.28-.63-.67-1.59-1.16-2.87s-1.15-3.28-2-6q-1-2.78-3.2-8.1a37.29,37.29,0,0,0-3.54-7c-1.17-1.37-2.29-2.66-3.37-3.89q.53,4.52.72,7.83c.16,4.14.17,5.8,0,5q.51,3.18,1.55,9.64c0,.08.75,3,2.24,8.69l.22,2.43-4.59-.13-2.88.26a2.44,2.44,0,0,1-2.42-.77,4.82,4.82,0,0,1-.57-2.59c-.22-2.33-.3-3.28-.26-2.84-.06-.59-.16-1.72-.31-3.4-.18-1.3-.31-2.36-.38-3.16q-.15-1.63-.72-4.56c-.38-1.95-.64-3.4-.79-4.34q-.22-2.52-.29-6.48c-.09-3.23-.13-5.39-.13-6.5q-.44-4.7-1.63-17.71c0-.44-.1-1.06-.17-1.86s-.14-1.49-.17-1.86l-.51-5.47q-.34-3.82-2-4.45a4.66,4.66,0,0,0-1.82-.16c-1.49.13-2.22.31-2.2.53a19.86,19.86,0,0,0,.08,2.09c.2,1.39.5,2.06.9,2a6.42,6.42,0,0,1,1.16,0c0-1,0-2,.06-3,0-.08.12-.22.4-.43s.41-.35.4-.42a3.8,3.8,0,0,1,1.68,2.6c.19,2.12-.8,3.28-3,3.48a3.74,3.74,0,0,1-2.85-1c-.56-.46-.92-1.61-1.09-3.43s-.16-3.05.29-3.45,1.86-.8,4.25-1.17a10.92,10.92,0,0,1,3.19-1.4A15.5,15.5,0,0,0,202.81,91.33Z"/></g></svg>