<svg xmlns="http://www.w3.org/2000/svg" width="315.78" height="190.92" viewBox="0 0 315.78 190.92"><defs><style>.cls-1{fill:#ea591f;}.cls-2{fill:#eb5e28;}.cls-3{fill:#ee7444;}.cls-4{fill:#ec6632;}.cls-5{fill:#ef8257;}.cls-6{opacity:0.4;}.cls-7{fill:#fff;}.cls-8{opacity:0.9;}.cls-9{fill:#191919;}.cls-10{fill:#efe2d3;}.cls-11{fill:#e0cdbd;}.cls-12{fill:#ede0d6;}</style></defs><title>crying_pumpkin</title><g id="final"><path class="cls-1" d="M280,95.46c0,33.15-22.46,62.34-56.54,79.44a146.33,146.33,0,0,1-28.83,10.78,161.46,161.46,0,0,1-27.32,4.65c-3.28.28-6.6.45-9.95.54-1.41,0-2.83,0-4.25,0s-3.09,0-4.62-.07h-.26c-.76,0-1.5,0-2.25-.08l-1.79-.08c-.77,0-1.53-.08-2.28-.14-1-.06-2.09-.14-3.12-.23s-2.07-.18-3.11-.29l-3.07-.35q-6.15-.73-12.08-1.94c-1-.19-2-.39-2.94-.61s-2-.43-2.91-.67-1.93-.46-2.9-.72-1.91-.5-2.85-.77-1.87-.52-2.8-.8h0l-2.73-.85-1.13-.36c-1.49-.49-2.95-1-4.41-1.54-.85-.3-1.7-.63-2.54-.94l-.19-.08-2.3-.91-.4-.18c-.85-.33-1.69-.7-2.52-1.06s-1.69-.73-2.52-1.11q-1.8-.83-3.54-1.68l0,0-.33-.17c-2.07-1-4.08-2.07-6.05-3.17-.8-.45-1.59-.9-2.37-1.37q-1.49-.86-2.91-1.77c-.5-.3-1-.61-1.49-.94-.74-.46-1.46-.94-2.18-1.42-1-.65-1.91-1.31-2.84-2-1.41-1-2.77-2-4.11-3.08-.59-.47-1.18-.93-1.76-1.41s-1.34-1.11-2-1.67a3.38,3.38,0,0,1-.37-.31,1.14,1.14,0,0,1-.16-.14l-.33-.29-1.08-1c-.36-.31-.71-.63-1.06-1-.62-.57-1.24-1.15-1.84-1.75l-.82-.79c-.59-.58-1.17-1.17-1.75-1.77t0,0c-.58-.61-1.15-1.21-1.72-1.83s-1-1.15-1.57-1.75-1.14-1.32-1.7-2l-1.39-1.71-.16-.21a91.34,91.34,0,0,1-5.61-8c-.42-.67-.84-1.36-1.25-2.06-.3-.51-.59-1-.88-1.55q-.76-1.35-1.47-2.73c0-.06-.06-.12-.08-.19a.53.53,0,0,0-.06-.1c-.08-.17-.16-.33-.23-.49-.18-.33-.34-.65-.49-1-.4-.8-.77-1.62-1.13-2.45-.29-.66-.58-1.33-.85-2a2.34,2.34,0,0,1-.09-.24c-.15-.37-.29-.73-.43-1.1-.42-1.08-.82-2.18-1.18-3.27l-.45-1.4c0-.1-.07-.21-.11-.32s-.1-.35-.15-.53c-.13-.4-.24-.81-.36-1.23-.52-1.86-1-3.74-1.35-5.64-.15-.76-.29-1.54-.42-2.31s-.24-1.56-.35-2.35q-.12-.89-.21-1.77c-.21-1.89-.34-3.8-.38-5.71,0-.68,0-1.37,0-2.06s0-1.1,0-1.66c0-.72,0-1.45.08-2.16,0-.29,0-.58,0-.87,0-.51.07-1,.12-1.55,0-.25.05-.51.07-.77a1.8,1.8,0,0,1,0-.22c0-.15,0-.29.05-.43.07-.67.15-1.35.23-2s.19-1.3.29-1.93.25-1.43.38-2.14c.23-1.22.5-2.44.8-3.65,0-.17.07-.33.12-.48s.08-.33.12-.49c.14-.56.3-1.1.46-1.65s.27-1,.42-1.46c0-.15.09-.29.14-.44s.18-.58.28-.87c.16-.51.33-1,.51-1.53.37-1.08.78-2.15,1.21-3.21.1-.27.21-.54.31-.79.4-1,.83-2,1.27-2.91a1.22,1.22,0,0,0,.07-.17c0-.08.08-.16.13-.24a1.73,1.73,0,0,1,.14-.31c.25-.52.49-1,.75-1.54.36-.72.73-1.44,1.11-2.17.28-.53.59-1.07.89-1.6a.6.6,0,0,1,.06-.11c.36-.64.73-1.28,1.13-1.93.14-.23.28-.47.43-.7a1.4,1.4,0,0,1,.17-.28l.12-.21c.09-.14.17-.28.27-.42.66-1,1.33-2.08,2.06-3.11.38-.55.78-1.12,1.18-1.67s.71-1,1.09-1.46.55-.74.86-1.11.42-.55.65-.83L45.31,45c1.57-1.9,3.24-3.76,5-5.57l.63-.66.48-.47c.61-.62,1.22-1.23,1.86-1.83.24-.23.48-.46.73-.68.67-.64,1.36-1.27,2.06-1.88.24-.24.51-.47.76-.69s.61-.55.92-.79a119.17,119.17,0,0,1,12.62-9.4l1-.65c.51-.32,1-.65,1.54-1l.09-.05c1.22-.76,2.45-1.48,3.71-2.19l1.68-.93a3.05,3.05,0,0,1,.5-.28l1.64-.87c1.93-1,3.91-2,5.92-2.94l1.44-.66L89.21,13c.44-.2.89-.39,1.33-.57.7-.31,1.38-.59,2.08-.88,1.39-.57,2.8-1.11,4.22-1.64.66-.25,1.34-.5,2-.73q5-1.78,10.21-3.23l1.71-.47c.2-.05.41-.11.62-.15.81-.23,1.64-.44,2.47-.63.53-.14,1.08-.27,1.61-.39,1.09-.25,2.18-.5,3.29-.73l1.38-.28c.71-.15,1.43-.29,2.17-.42s1.32-.26,2-.36,1.15-.21,1.72-.3c1.94-.32,3.91-.6,5.89-.84.8-.11,1.6-.21,2.4-.29s1.75-.19,2.62-.27L137.7.7l1.71-.14c.51-.05,1-.08,1.53-.12l2.49-.16c.95-.06,1.91-.11,2.87-.14Q149.68,0,153.08,0A168.25,168.25,0,0,1,172,1.06c.78.08,1.55.17,2.33.28a158.71,158.71,0,0,1,23.27,4.71q5.32,1.5,10.41,3.34C250.59,24.8,280,57.54,280,95.46Z"/><path class="cls-2" d="M238.64,90.81a123.59,123.59,0,0,1-25.4,75,130.45,130.45,0,0,1-18.64,19.91,161.46,161.46,0,0,1-27.32,4.65c-3.28.28-6.6.45-9.95.54-1.41,0-2.83,0-4.25,0s-3.09,0-4.62-.07h-.26c-.76,0-1.5,0-2.25-.08l-1.79-.08c-.77,0-1.53-.08-2.28-.14-1-.06-2.09-.14-3.12-.23s-2.07-.18-3.11-.29l-3.07-.35q-6.15-.73-12.08-1.94c-1-.19-2-.39-2.94-.61s-2-.43-2.91-.67-1.93-.46-2.9-.72-1.91-.5-2.85-.77-1.87-.52-2.8-.8h0l-2.73-.85-1.13-.36c-1.49-.49-2.95-1-4.41-1.54-.85-.3-1.7-.63-2.54-.94l-.19-.08-2.3-.91-.4-.18c-.85-.33-1.69-.7-2.52-1.06s-1.69-.73-2.52-1.11q-1.8-.83-3.54-1.68l0,0-.33-.17c-2.07-1-4.08-2.07-6.05-3.17-.8-.45-1.59-.9-2.37-1.37q-1.49-.86-2.91-1.77c-.5-.3-1-.61-1.49-.94-.74-.46-1.46-.94-2.18-1.42-1-.65-1.91-1.31-2.84-2-1.41-1-2.77-2-4.11-3.08-.59-.47-1.18-.93-1.76-1.41s-1.34-1.11-2-1.67a3.38,3.38,0,0,1-.37-.31,1.14,1.14,0,0,1-.16-.14l-.33-.29-1.08-1c-.36-.31-.71-.63-1.06-1-.62-.57-1.24-1.15-1.84-1.75l-.82-.79c-.59-.58-1.17-1.17-1.75-1.77t0,0c-.58-.61-1.15-1.21-1.72-1.83s-1-1.15-1.57-1.75-1.14-1.32-1.7-2l-1.39-1.71-.16-.21a91.34,91.34,0,0,1-5.61-8c-.42-.67-.84-1.36-1.25-2.06-.3-.51-.59-1-.88-1.55q-.76-1.35-1.47-2.73c0-.06-.06-.12-.08-.19a.53.53,0,0,0-.06-.1c-.08-.17-.16-.33-.23-.49-.18-.33-.34-.65-.49-1-.4-.8-.77-1.62-1.13-2.45-.29-.66-.58-1.33-.85-2a2.34,2.34,0,0,1-.09-.24c-.15-.37-.29-.73-.43-1.1-.42-1.08-.82-2.18-1.18-3.27l-.45-1.4c0-.1-.07-.21-.11-.32s-.1-.35-.15-.53c-.13-.4-.24-.81-.36-1.23-.52-1.86-1-3.74-1.35-5.64-.15-.76-.29-1.54-.42-2.31s-.24-1.56-.35-2.35q-.12-.89-.21-1.77c-.21-1.89-.34-3.8-.38-5.71,0-.68,0-1.37,0-2.06s0-1.1,0-1.66c0-.72,0-1.45.08-2.16,0-.29,0-.58,0-.87,0-.51.07-1,.12-1.55,0-.25.05-.51.07-.77a1.8,1.8,0,0,1,0-.22c0-.15,0-.29.05-.43.07-.67.15-1.35.23-2s.19-1.3.29-1.93.25-1.43.38-2.14c.23-1.22.5-2.44.8-3.65,0-.17.07-.33.12-.48s.08-.33.12-.49c.14-.56.3-1.1.46-1.65s.27-1,.42-1.46c0-.15.09-.29.14-.44s.18-.58.28-.87c.16-.51.33-1,.51-1.53.37-1.08.78-2.15,1.21-3.21.1-.27.21-.54.31-.79.4-1,.83-2,1.27-2.91a1.22,1.22,0,0,0,.07-.17c0-.08.08-.16.13-.24a1.73,1.73,0,0,1,.14-.31c.25-.52.49-1,.75-1.54.36-.72.73-1.44,1.11-2.17.28-.53.59-1.07.89-1.6a.6.6,0,0,1,.06-.11c.36-.64.73-1.28,1.13-1.93.14-.23.28-.47.43-.7a1.4,1.4,0,0,1,.17-.28l.12-.21c.09-.14.17-.28.27-.42.66-1,1.33-2.08,2.06-3.11.38-.55.78-1.12,1.18-1.67s.71-1,1.09-1.46.55-.74.86-1.11.42-.55.65-.83L45.31,45c1.57-1.9,3.24-3.76,5-5.57l.63-.66.48-.47c.61-.62,1.22-1.23,1.86-1.83.24-.23.48-.46.73-.68.67-.64,1.36-1.27,2.06-1.88.24-.24.51-.47.76-.69s.61-.55.92-.79a119.17,119.17,0,0,1,12.62-9.4l1-.65c.51-.32,1-.65,1.54-1l.09-.05c1.22-.76,2.45-1.48,3.71-2.19l1.68-.93a3.05,3.05,0,0,1,.5-.28l1.64-.87c1.93-1,3.91-2,5.92-2.94l1.44-.66L89.21,13c.44-.2.89-.39,1.33-.57.7-.31,1.38-.59,2.08-.88,1.39-.57,2.8-1.11,4.22-1.64.66-.25,1.34-.5,2-.73q5-1.78,10.21-3.23l1.71-.47c.2-.05.41-.11.62-.15.81-.23,1.64-.44,2.47-.63.53-.14,1.08-.27,1.61-.39,1.09-.25,2.18-.5,3.29-.73l1.38-.28c.71-.15,1.43-.29,2.17-.42s1.32-.26,2-.36,1.15-.21,1.72-.3c1.94-.32,3.91-.6,5.89-.84.8-.11,1.6-.21,2.4-.29s1.75-.19,2.62-.27L137.7.7l1.71-.14c.51-.05,1-.08,1.53-.12l2.49-.16c.95-.06,1.91-.11,2.87-.14Q149.68,0,153.08,0A168.25,168.25,0,0,1,172,1.06c.78.08,1.55.17,2.33.28a158.71,158.71,0,0,1,23.27,4.71q5.32,1.5,10.41,3.34A124.11,124.11,0,0,1,238.64,90.81Z"/><path class="cls-3" d="M199.06,85.57c0,.43,0,.86,0,1.29h0c0,2-.06,3.91-.15,5.84a155.68,155.68,0,0,1-9.16,46.4q-1,2.67-2.05,5.3c-.48,1.18-1,2.33-1.48,3.49-1.25,2.86-2.57,5.68-4,8.42a140.83,140.83,0,0,1-24.87,34.55c-1.41,0-2.83,0-4.25,0s-3.09,0-4.62-.07h-.26c-.76,0-1.5,0-2.25-.08l-1.79-.08c-.77,0-1.53-.08-2.28-.14-1-.06-2.09-.14-3.12-.23s-2.07-.18-3.11-.29l-3.07-.35q-6.15-.73-12.08-1.94c-1-.19-2-.39-2.94-.61s-2-.43-2.91-.67-1.93-.46-2.9-.72-1.91-.5-2.85-.77-1.87-.52-2.8-.8h0l-2.73-.85-1.13-.36c-1.49-.49-2.95-1-4.41-1.54-.85-.3-1.7-.63-2.54-.94l-.19-.08-2.3-.91-.4-.18c-.85-.33-1.69-.7-2.52-1.06s-1.69-.73-2.52-1.11q-1.8-.83-3.54-1.68l0,0-.33-.17c-2.07-1-4.08-2.07-6.05-3.17-.8-.45-1.59-.9-2.37-1.37q-1.49-.86-2.91-1.77c-.5-.3-1-.61-1.49-.94-.74-.46-1.46-.94-2.18-1.42-1-.65-1.91-1.31-2.84-2-1.41-1-2.77-2-4.11-3.08-.59-.47-1.18-.93-1.76-1.41s-1.34-1.11-2-1.67l-.37-.31a1.14,1.14,0,0,1-.16-.14l-.33-.29-1.08-1-1.06-1c-.62-.57-1.24-1.15-1.84-1.75l-.82-.79c-.59-.58-1.17-1.17-1.75-1.77t0,0c-.58-.61-1.15-1.21-1.72-1.83s-1-1.15-1.57-1.75-1.14-1.32-1.7-2l-1.39-1.71-.16-.21a91.34,91.34,0,0,1-5.61-8c-.42-.67-.84-1.36-1.25-2.06-.3-.51-.59-1-.88-1.55q-.76-1.35-1.47-2.73c0-.06-.06-.12-.08-.19a.53.53,0,0,0-.06-.1c-.08-.17-.16-.33-.23-.49l-.13-.23c-.13-.25-.24-.51-.36-.76-.4-.8-.77-1.62-1.13-2.45-.29-.66-.58-1.33-.85-2a2.34,2.34,0,0,1-.09-.24c-.15-.37-.29-.73-.43-1.1-.42-1.08-.82-2.18-1.18-3.27l-.45-1.4c0-.1-.07-.21-.11-.32s-.1-.35-.15-.53c-.13-.4-.24-.81-.36-1.23-.52-1.86-1-3.74-1.35-5.64-.15-.76-.29-1.54-.42-2.31s-.24-1.56-.35-2.35q-.12-.89-.21-1.77c-.21-1.89-.34-3.8-.38-5.71,0-.68,0-1.37,0-2.06s0-1.1,0-1.66c0-.72,0-1.45.08-2.16,0-.29,0-.58,0-.87,0-.51.07-1,.12-1.55,0-.25.05-.51.07-.77a1.8,1.8,0,0,1,0-.22c0-.15,0-.29.05-.43.07-.67.15-1.35.23-2s.19-1.3.29-1.93.25-1.43.38-2.14c.23-1.22.5-2.44.8-3.65,0-.17.07-.33.12-.48s.08-.33.12-.49c.14-.56.3-1.1.46-1.65s.27-1,.42-1.46c0-.15.09-.29.14-.44s.18-.58.28-.87c.16-.51.33-1,.51-1.53.37-1.08.78-2.15,1.21-3.21.1-.27.21-.54.31-.79.4-1,.83-2,1.27-2.91a1.22,1.22,0,0,0,.07-.17c0-.08.08-.16.13-.24a1.73,1.73,0,0,1,.14-.31c.25-.52.49-1,.75-1.54.36-.72.73-1.44,1.11-2.17.28-.53.59-1.07.89-1.6a.6.6,0,0,1,.06-.11c.36-.64.73-1.28,1.13-1.93.14-.23.28-.47.43-.7a1.4,1.4,0,0,1,.17-.28c.12-.21.26-.42.39-.63.66-1,1.33-2.08,2.06-3.11.38-.55.78-1.12,1.18-1.67s.71-1,1.09-1.46.55-.74.86-1.11.42-.55.65-.83L45.31,45c1.57-1.9,3.24-3.76,5-5.57l.63-.66.48-.47c.61-.62,1.22-1.23,1.86-1.83.24-.23.48-.46.73-.68.67-.64,1.36-1.27,2.06-1.88.24-.24.51-.47.76-.69s.61-.55.92-.79a119.17,119.17,0,0,1,12.62-9.4l1-.65c.51-.32,1-.65,1.54-1l.09-.05c1.22-.76,2.45-1.48,3.71-2.19l1.68-.93a3.05,3.05,0,0,1,.5-.28l1.64-.87c1.93-1,3.91-2,5.92-2.94l1.44-.66L89.21,13c.44-.2.89-.39,1.33-.57.7-.31,1.38-.59,2.08-.88,1.39-.57,2.8-1.11,4.22-1.64.66-.25,1.34-.5,2-.73q5-1.78,10.21-3.23l1.71-.47c.2-.05.41-.11.62-.15.81-.23,1.64-.44,2.47-.63.53-.14,1.08-.27,1.61-.39,1.09-.25,2.18-.5,3.29-.73l1.38-.28c.71-.15,1.43-.29,2.17-.42s1.32-.26,2-.36,1.15-.21,1.72-.3c1.94-.32,3.91-.6,5.89-.84.8-.11,1.6-.21,2.4-.29s1.75-.19,2.62-.27L137.7.7l1.71-.14c.51-.05,1-.08,1.53-.12l2.49-.16c.95-.06,1.91-.11,2.87-.14Q149.68,0,153.08,0A168.25,168.25,0,0,1,172,1.06c.78.08,1.55.17,2.33.28.78,1.17,1.53,2.37,2.28,3.58v0a150.48,150.48,0,0,1,20,52.67A160.39,160.39,0,0,1,199.06,85.57Z"/><path class="cls-4" d="M203.72,94.3a203.29,203.29,0,0,1-1.39,23.93c-.54,4.64-1.25,9.15-2.1,13.5,0,.26-.11.53-.16.79-.37,1.86-.76,3.69-1.19,5.49-.3,1.26-.6,2.49-.92,3.72-.38,1.43-.76,2.84-1.17,4.22,0,.16-.09.33-.14.48-.43,1.45-.88,2.89-1.35,4.28l-.38,1.16h0q-1.26,3.66-2.66,7.05c-6.42,15.54-15.11,26.78-25,31.4-3.28.28-6.6.45-9.95.54-1.41,0-2.83,0-4.25,0s-3.09,0-4.62-.07h-.26c-11.11-4.56-20.79-17.46-27.56-35.49-1.11-3-2.15-6.07-3.09-9.29-.29-1-.57-2-.84-3q-1.58-5.81-2.77-12.05h0a195.58,195.58,0,0,1-3.34-34.79v-.1c0-.61,0-1.22,0-1.83q0-6,.32-11.73h0a196.12,196.12,0,0,1,2.17-20.06C117.87,32.82,129.19,9.55,143.43.28l2.88.08,25.71.7a38.66,38.66,0,0,1,4.61,3.86v0C187.3,15.33,195.8,34,200.26,57.06a192.57,192.57,0,0,1,3.42,33.77C203.71,92,203.72,93.13,203.72,94.3Z"/><path class="cls-5" d="M83.79,175.44c-34.7-17-57.61-46.5-57.61-80,0-29.88,18.26-56.55,46.83-74A160.21,160.21,0,0,0,58.57,76.5C55.52,114.12,65.39,149.2,83.79,175.44Z"/><g class="cls-6"><path class="cls-7" d="M74.22,38.35c-.68-1-4.36.7-8.17,3.85l-3.91,3.24A49,49,0,0,0,51.32,59.3l-.78,1.61A51.66,51.66,0,0,0,46.33,78l-.21,6.13c-.18,4.95,1.42,8.38,3.55,7.63s3.89-5.42,3.91-10.37v0a47.72,47.72,0,0,1,3.93-17.12l.77-1.61a71.57,71.57,0,0,1,10-14.71l1-1.1C72.7,43.2,74.9,39.38,74.22,38.35Z"/></g><g class="cls-8"><polygon class="cls-9" points="71.58 139.15 85.4 139.15 78.49 160.8 71.58 139.15"/><rect class="cls-9" x="72.96" y="124.59" width="13.95" height="16.64" transform="translate(33.28 -15) rotate(13.52)"/><rect class="cls-9" x="85.92" y="122.14" width="19.17" height="14.42" transform="translate(32.88 -18.74) rotate(13.52)"/><rect class="cls-9" x="88.6" y="113.01" width="19.17" height="10.26" transform="translate(30.33 -19.68) rotate(13.52)"/><rect class="cls-9" x="102.52" y="109.79" width="6.46" height="8.7" transform="translate(29.61 -21.56) rotate(13.52)"/><rect class="cls-9" x="104.15" y="104.28" width="6.46" height="6.19" transform="translate(28.07 -22.12) rotate(13.52)"/><polygon class="cls-9" points="109.61 109.83 135.97 109.83 122.79 138 109.61 109.83"/><rect class="cls-9" x="105.58" y="96.97" width="6.46" height="8.7" transform="translate(26.7 -22.63) rotate(13.52)"/><rect class="cls-9" x="110.1" y="100.47" width="24.47" height="12.86" transform="translate(28.37 -25.63) rotate(13.52)"/><polygon class="cls-9" points="156.02 110.17 128.12 111.18 141.22 87.14 156.02 110.17"/><polygon class="cls-9" points="134.94 110.31 167.89 109.12 152.43 137.87 134.94 110.31"/><polygon class="cls-9" points="153.57 109.81 186.45 112.18 172.04 82.89 153.57 109.81"/><polygon class="cls-9" points="167.4 106.43 197.01 108.57 179.91 139.3 167.4 106.43"/><polygon class="cls-9" points="235.19 138.54 221.37 138.54 228.28 160.19 235.19 138.54"/><rect class="cls-9" x="219.86" y="123.99" width="13.92" height="16.64" transform="translate(478.28 207.93) rotate(166.48)"/><rect class="cls-9" x="201.68" y="121.53" width="19.17" height="14.42" transform="translate(446.78 204.53) rotate(166.48)"/><rect class="cls-9" x="199" y="112.4" width="19.17" height="10.26" transform="translate(438.86 183.05) rotate(166.48)"/><rect class="cls-9" x="197.78" y="109.18" width="6.46" height="8.7" transform="translate(423 176.94) rotate(166.48)"/><rect class="cls-9" x="196.16" y="103.67" width="6.46" height="6.19" transform="translate(418.21 163.98) rotate(166.48)"/><rect class="cls-9" x="194.73" y="96.36" width="6.46" height="8.7" transform="translate(413.98 152.36) rotate(166.48)"/><rect class="cls-9" x="172.2" y="99.86" width="24.47" height="12.86" transform="translate(388.61 166.52) rotate(166.48)"/></g><g class="cls-8"><path class="cls-9" d="M136.18,55.7c1.91.07,4,4.16,4.63,9.1s-1.68,7.31-5.15,5.27a50.74,50.74,0,0,1-9.18-6.78,34.53,34.53,0,0,0-8.23-5.76,40.85,40.85,0,0,0-9.31-3.31,45.15,45.15,0,0,1-8.83-2.81,29.69,29.69,0,0,0-8.84-2.3,66.49,66.49,0,0,0-12,1.55c-4.4.93-7,.16-5.89-1.7s5-3.52,8.57-3.66,9.8-.14,13.89,0a91.06,91.06,0,0,1,16.28,2.57,110.3,110.3,0,0,1,14.71,5C130.08,54.36,134.27,55.63,136.18,55.7Z"/></g><g class="cls-8"><path class="cls-9" d="M173.89,56.5c-1.88.3-3.46,4.6-3.51,9.55s2.53,7,5.72,4.61a50.44,50.44,0,0,0,8.28-7.8,34.86,34.86,0,0,1,7.46-6.67,40.72,40.72,0,0,1,8.81-4.38A43.73,43.73,0,0,0,209.06,48a29.53,29.53,0,0,1,8.48-3.33,66.84,66.84,0,0,1,12,.12c4.46.4,7-.67,5.62-2.38s-5.37-2.88-8.9-2.6-9.72,1-13.75,1.65a91.93,91.93,0,0,0-15.8,4.47,108.65,108.65,0,0,0-13.95,6.69C179.77,54.46,175.77,56.21,173.89,56.5Z"/></g><path class="cls-10" d="M235.78,38.23a13.89,13.89,0,0,1,3.44-1.3l4.3-1a18.39,18.39,0,0,1,3.59-.46,6.86,6.86,0,0,1,3,.93,8.14,8.14,0,0,1,2.21,2.16l.77,1.24s.12.41.26.9a5.72,5.72,0,0,1,.17,1.86,14.69,14.69,0,0,1-.39,2,5.22,5.22,0,0,1-1.82,2.1A21.13,21.13,0,0,1,248,48.47a30,30,0,0,1-3.48,1.15l-3,.73a9.61,9.61,0,0,1-2.9.14c-.84-.1-2.09-.3-2.78-.44a10,10,0,0,1-2.18-.74,21.92,21.92,0,0,0-3-1.11,4.49,4.49,0,0,1-2.19-1.12l-.16-.52s.4-.43.9-.94a19.41,19.41,0,0,0,1.52-1.8c.35-.47,1-1.33,1.39-1.92a21.06,21.06,0,0,1,1.67-2A14.77,14.77,0,0,1,235.78,38.23Z"/><path class="cls-11" d="M231.11,46.34c.06.23.88.62,1.81.88a18.56,18.56,0,0,1,2.46.85,8.18,8.18,0,0,0,1.81.56c.57.11,1.61.25,2.3.33a8.79,8.79,0,0,0,2.42-.15l2.52-.6a25.16,25.16,0,0,0,2.9-1,18.06,18.06,0,0,0,2.83-1.49,4.38,4.38,0,0,0,1.55-1.69,11.59,11.59,0,0,0,.34-1.59,4.49,4.49,0,0,0-.11-1.47,8.9,8.9,0,0,0-.83-1.68,6.28,6.28,0,0,0-1.81-1.69,5.74,5.74,0,0,0-2.51-.72,16.79,16.79,0,0,0-3,.41l-3.59.87a12.39,12.39,0,0,0-2.88,1.06,13,13,0,0,0-1.72,1.36,19.3,19.3,0,0,0-1.41,1.59L233,43.75a16.21,16.21,0,0,1-1.29,1.44C231.33,45.6,231,46.12,231.11,46.34Z"/><path class="cls-12" d="M233.22,45.56a3.09,3.09,0,0,0,1.51.74,13.69,13.69,0,0,1,2.05.71,6.87,6.87,0,0,0,1.51.47c.47.09,1.34.21,1.92.28a7.43,7.43,0,0,0,2-.12l2.09-.51a21.21,21.21,0,0,0,2.42-.79,15.12,15.12,0,0,0,2.36-1.25,3.54,3.54,0,0,0,1.28-1.41,11.22,11.22,0,0,0,.29-1.32,3.64,3.64,0,0,0-.1-1.24,8.14,8.14,0,0,0-.69-1.41,5.41,5.41,0,0,0-1.51-1.41,4.82,4.82,0,0,0-2.09-.6,12.73,12.73,0,0,0-2.49.34l-3,.72a9.81,9.81,0,0,0-2.39.89A10.89,10.89,0,0,0,237,40.78a16.6,16.6,0,0,0-1.17,1.33l-1,1.28a12.52,12.52,0,0,1-1.07,1.2C233.4,44.94,233.16,45.37,233.22,45.56Z"/><path class="cls-10" d="M72.1,40.28a13.39,13.39,0,0,0-3.66.38l-4.3,1a17.9,17.9,0,0,0-3.42,1.19A6.82,6.82,0,0,0,58.43,45a8.12,8.12,0,0,0-1,2.92c-.07.8-.13,1.45-.13,1.45s.07.42.16.92a5.75,5.75,0,0,0,.69,1.74,14.13,14.13,0,0,0,1.24,1.61A5.26,5.26,0,0,0,62,54.75a21.23,21.23,0,0,0,3.84.13,29.06,29.06,0,0,0,3.63-.52l3-.71a9.47,9.47,0,0,0,2.66-1.17c.71-.47,1.73-1.2,2.29-1.64A10,10,0,0,0,79,49.2a21.11,21.11,0,0,1,2.16-2.32c.86-.81,1.51-1.71,1.46-2l-.09-.53-1.22-.44A18.64,18.64,0,0,1,79.17,43L77.06,41.9a20.7,20.7,0,0,0-2.37-1A14.57,14.57,0,0,0,72.1,40.28Z"/><path class="cls-11" d="M79.92,45.43c0,.23-.52,1-1.23,1.6a18.64,18.64,0,0,0-1.82,1.86,8.57,8.57,0,0,1-1.36,1.32c-.47.35-1.33.94-1.92,1.32a8.26,8.26,0,0,1-2.22.95l-2.52.59a23.9,23.9,0,0,1-3,.45,17.89,17.89,0,0,1-3.2-.07,4.39,4.39,0,0,1-2.13-.81,10.82,10.82,0,0,1-1-1.27A4.4,4.4,0,0,1,58.9,50a8.82,8.82,0,0,1,0-1.87,6.45,6.45,0,0,1,.86-2.33,5.82,5.82,0,0,1,1.92-1.75,15.62,15.62,0,0,1,2.86-1l3.59-.84a12.29,12.29,0,0,1,3-.33,12.41,12.41,0,0,1,2.15.44,20.75,20.75,0,0,1,2,.79L77,44a16.49,16.49,0,0,0,1.8.71C79.39,44.87,79.88,45.2,79.92,45.43Z"/><path class="cls-12" d="M77.68,45.68c0,.2-.43.8-1,1.34a17,17,0,0,0-1.51,1.55A7,7,0,0,1,74,49.67c-.39.29-1.11.79-1.6,1.11a7.2,7.2,0,0,1-1.84.79l-2.11.49a20.09,20.09,0,0,1-2.51.38,14.77,14.77,0,0,1-2.67-.07,3.62,3.62,0,0,1-1.78-.68,10.38,10.38,0,0,1-.85-1.06,3.85,3.85,0,0,1-.46-1.14,7.27,7.27,0,0,1,0-1.57,5.6,5.6,0,0,1,.72-2,4.77,4.77,0,0,1,1.6-1.47,13.62,13.62,0,0,1,2.37-.81l3-.69a9.85,9.85,0,0,1,2.54-.28,10.33,10.33,0,0,1,1.79.37,16.51,16.51,0,0,1,1.64.66l1.45.71a13.38,13.38,0,0,0,1.5.6C77.23,45.21,77.64,45.49,77.68,45.68Z"/><path class="cls-10" d="M33.28,54.31a14,14,0,0,0-3.42,1.35c-1.13.63-2.87,1.59-3.87,2.13a17.3,17.3,0,0,0-3,2.08,6.75,6.75,0,0,0-1.6,2.72,8.21,8.21,0,0,0-.18,3.09l.27,1.43.4.84a6,6,0,0,0,1.14,1.49,14.66,14.66,0,0,0,1.63,1.21,5.19,5.19,0,0,0,2.77.33,21.12,21.12,0,0,0,3.73-.91,27.57,27.57,0,0,0,3.35-1.49l2.72-1.5a9.67,9.67,0,0,0,2.24-1.84c.56-.64,1.35-1.63,1.76-2.2a9.48,9.48,0,0,0,1.11-2,23.7,23.7,0,0,1,1.46-2.82,4.48,4.48,0,0,0,.86-2.32l-.23-.48-1.29-.09a20.94,20.94,0,0,1-2.34-.3l-2.32-.49a22.32,22.32,0,0,0-2.57-.34A14,14,0,0,0,33.28,54.31Z"/><path class="cls-11" d="M42.2,57.15A3.59,3.59,0,0,1,41.45,59a19.12,19.12,0,0,0-1.25,2.29,8.17,8.17,0,0,1-1,1.63c-.35.47-1,1.27-1.49,1.8a8.37,8.37,0,0,1-1.88,1.51L33.61,67.5a24.26,24.26,0,0,1-2.79,1.26,18.36,18.36,0,0,1-3.1.8,4.33,4.33,0,0,1-2.27-.21,12.11,12.11,0,0,1-1.33-.94,4.45,4.45,0,0,1-.91-1.17,8.85,8.85,0,0,1-.52-1.79,6.5,6.5,0,0,1,.2-2.48,5.78,5.78,0,0,1,1.37-2.21,16.3,16.3,0,0,1,2.49-1.71L30,57.27a12.28,12.28,0,0,1,2.84-1.15A12.63,12.63,0,0,1,35,56a20.94,20.94,0,0,1,2.11.23l1.91.34a15.32,15.32,0,0,0,1.92.2C41.54,56.75,42.1,56.94,42.2,57.15Z"/><path class="cls-12" d="M40.11,58a2.94,2.94,0,0,1-.62,1.56,16.64,16.64,0,0,0-1,1.91,6.49,6.49,0,0,1-.79,1.37c-.29.38-.85,1-1.23,1.49a7,7,0,0,1-1.57,1.27l-1.89,1a18.55,18.55,0,0,1-2.32,1.05,15.28,15.28,0,0,1-2.58.66,3.64,3.64,0,0,1-1.9-.18,10.25,10.25,0,0,1-1.1-.78,3.7,3.7,0,0,1-.76-1,6.72,6.72,0,0,1-.44-1.51A5.47,5.47,0,0,1,24,62.83,4.93,4.93,0,0,1,25.17,61a12.82,12.82,0,0,1,2.07-1.42l2.69-1.48a9.69,9.69,0,0,1,2.37-1A10.27,10.27,0,0,1,34.12,57a14.81,14.81,0,0,1,1.76.2l1.59.29a14.42,14.42,0,0,0,1.6.16C39.56,57.66,40,57.82,40.11,58Z"/><path class="cls-10" d="M276.32,40.12a13.36,13.36,0,0,1,3.58.82l4.15,1.52a17.89,17.89,0,0,1,3.25,1.6,6.71,6.71,0,0,1,2,2.45,8.24,8.24,0,0,1,.64,3c0,.8-.05,1.46-.05,1.46l-.27.89a5.73,5.73,0,0,1-.9,1.64A13.94,13.94,0,0,1,287.29,55a5.13,5.13,0,0,1-2.68.74,20.87,20.87,0,0,1-3.83-.33,28.25,28.25,0,0,1-3.54-1l-2.92-1.06a9.85,9.85,0,0,1-2.49-1.49c-.64-.55-1.57-1.41-2.07-1.91a9.83,9.83,0,0,1-1.41-1.82,21.28,21.28,0,0,0-1.86-2.58,4.53,4.53,0,0,1-1.21-2.15c.09-.28.16-.51.16-.52l1.27-.28c.69-.16,1.71-.45,2.26-.65l2.22-.83a21.52,21.52,0,0,1,2.49-.73A13.35,13.35,0,0,1,276.32,40.12Z"/><path class="cls-11" d="M267.93,44.28c-.07.22.39,1,1,1.73a19.46,19.46,0,0,1,1.57,2.07,9.08,9.08,0,0,0,1.19,1.48c.42.4,1.21,1.09,1.74,1.54a8.39,8.39,0,0,0,2.09,1.22l2.44.89a24,24,0,0,0,2.94.82,18.55,18.55,0,0,0,3.19.32,4.37,4.37,0,0,0,2.22-.55,11.32,11.32,0,0,0,1.16-1.13,4.37,4.37,0,0,0,.73-1.29,8.79,8.79,0,0,0,.24-1.86,6.5,6.5,0,0,0-.57-2.41,5.81,5.81,0,0,0-1.69-2,15.69,15.69,0,0,0-2.72-1.32L280,42.54a12.37,12.37,0,0,0-3-.7,12.92,12.92,0,0,0-2.18.17,20.83,20.83,0,0,0-2.06.55l-1.83.63a17.46,17.46,0,0,1-1.87.48C268.53,43.78,268,44.05,267.93,44.28Z"/><path class="cls-12" d="M270.12,44.8a3.15,3.15,0,0,0,.85,1.45A15.7,15.7,0,0,1,272.29,48a6.68,6.68,0,0,0,1,1.23c.34.33,1,.91,1.44,1.29a7,7,0,0,0,1.74,1l2,.74a18.82,18.82,0,0,0,2.45.68,14.27,14.27,0,0,0,2.65.27,3.72,3.72,0,0,0,1.85-.46,9.72,9.72,0,0,0,1-1,3.53,3.53,0,0,0,.61-1.08,7,7,0,0,0,.2-1.55,5.48,5.48,0,0,0-.47-2,4.82,4.82,0,0,0-1.41-1.65,12.42,12.42,0,0,0-2.25-1.1l-2.89-1.06a7,7,0,0,0-4.3-.43,15.06,15.06,0,0,0-1.72.46l-1.52.52a13.52,13.52,0,0,1-1.56.41C270.62,44.38,270.18,44.61,270.12,44.8Z"/><path class="cls-10" d="M304.92,63.22a13.66,13.66,0,0,1,3.06,2l3.34,2.9a17.34,17.34,0,0,1,2.46,2.64,6.8,6.8,0,0,1,1,3,8.25,8.25,0,0,1-.47,3l-.57,1.35-.57.73a5.8,5.8,0,0,1-1.42,1.22,16.48,16.48,0,0,1-1.85.84,5.13,5.13,0,0,1-2.78-.26,21.11,21.11,0,0,1-3.46-1.67,29.08,29.08,0,0,1-3-2.16l-2.35-2a9.69,9.69,0,0,1-1.8-2.27c-.4-.75-1-1.88-1.26-2.52a10.35,10.35,0,0,1-.66-2.21,22.19,22.19,0,0,0-.83-3.06,4.5,4.5,0,0,1-.36-2.45l.33-.43,1.29.19a23.12,23.12,0,0,0,2.34.2h2.37a24.87,24.87,0,0,1,2.59.2A15.45,15.45,0,0,1,304.92,63.22Z"/><path class="cls-11" d="M295.6,64.12a3.71,3.71,0,0,0,.34,2,17.86,17.86,0,0,1,.74,2.5,8.57,8.57,0,0,0,.59,1.8c.25.52.73,1.45,1.08,2.06a8.29,8.29,0,0,0,1.52,1.88l2,1.7a24.15,24.15,0,0,0,2.46,1.81,18.18,18.18,0,0,0,2.86,1.43,4.34,4.34,0,0,0,2.27.28,12.6,12.6,0,0,0,1.49-.64,4.41,4.41,0,0,0,1.14-1,8.53,8.53,0,0,0,.88-1.65,6.47,6.47,0,0,0,.33-2.46,5.73,5.73,0,0,0-.88-2.45,15.9,15.9,0,0,0-2.07-2.2l-2.78-2.41A12.21,12.21,0,0,0,305,65.09a12,12,0,0,0-2.11-.62,18.87,18.87,0,0,0-2.11-.22l-1.94-.06a18.26,18.26,0,0,1-1.92-.22A1.74,1.74,0,0,0,295.6,64.12Z"/><path class="cls-12" d="M297.47,65.39a2.9,2.9,0,0,0,.28,1.66,16.22,16.22,0,0,1,.61,2.08,6.39,6.39,0,0,0,.49,1.5c.2.44.6,1.21.89,1.72A7.3,7.3,0,0,0,301,73.92l1.63,1.41a20.16,20.16,0,0,0,2.05,1.51A15.2,15.2,0,0,0,307.07,78a3.52,3.52,0,0,0,1.89.22,9.38,9.38,0,0,0,1.25-.53,3.68,3.68,0,0,0,1-.8,7.15,7.15,0,0,0,.74-1.38,5.4,5.4,0,0,0,.27-2.05,4.79,4.79,0,0,0-.72-2,13,13,0,0,0-1.72-1.82l-2.32-2a10,10,0,0,0-2.12-1.43,10.46,10.46,0,0,0-1.75-.5,13.12,13.12,0,0,0-1.76-.18l-1.62,0c-.4,0-1.12-.1-1.6-.18A1.46,1.46,0,0,0,297.47,65.39Z"/><path class="cls-10" d="M8.46,81.72a14.07,14.07,0,0,0-2.78,2.4l-2.95,3.3A17.75,17.75,0,0,0,.62,90.36,6.8,6.8,0,0,0,0,93.46a8.24,8.24,0,0,0,.85,3l.74,1.26s.29.3.66.66a5.79,5.79,0,0,0,1.56,1,15.72,15.72,0,0,0,1.94.61,5.32,5.32,0,0,0,2.72-.61,21.14,21.14,0,0,0,3.22-2.1,27.21,27.21,0,0,0,2.67-2.52l2.07-2.31A9.65,9.65,0,0,0,17.94,90c.31-.79.73-2,.93-2.66A9.28,9.28,0,0,0,19.25,85a23.8,23.8,0,0,1,.44-3.15,4.53,4.53,0,0,0,0-2.47L19.36,79s-.57.15-1.25.34a17.8,17.8,0,0,1-2.31.49l-2.35.32a22,22,0,0,0-2.54.52A14.23,14.23,0,0,0,8.46,81.72Z"/><path class="cls-11" d="M17.82,81.44a3.79,3.79,0,0,1-.09,2A19.75,19.75,0,0,0,17.31,86,8.34,8.34,0,0,1,17,87.88c-.18.56-.54,1.54-.81,2.19a8.21,8.21,0,0,1-1.27,2.05l-1.73,1.93a23.72,23.72,0,0,1-2.21,2.11,18.69,18.69,0,0,1-2.66,1.78,4.35,4.35,0,0,1-2.22.56,10.85,10.85,0,0,1-1.56-.45,4.17,4.17,0,0,1-1.24-.79,8.7,8.7,0,0,1-1.09-1.53,6.33,6.33,0,0,1-.63-2.4,5.72,5.72,0,0,1,.56-2.54,16.11,16.11,0,0,1,1.77-2.44L6.33,85.6a12.1,12.1,0,0,1,2.3-2,12.65,12.65,0,0,1,2-.88,18.27,18.27,0,0,1,2.07-.48l1.91-.31a16.47,16.47,0,0,0,1.88-.46A1.71,1.71,0,0,1,17.82,81.44Z"/><path class="cls-12" d="M16.13,82.93a3,3,0,0,1-.07,1.68,16.29,16.29,0,0,0-.35,2.15,6.65,6.65,0,0,1-.29,1.55c-.15.46-.45,1.27-.67,1.82a7,7,0,0,1-1.06,1.71l-1.44,1.6a19.49,19.49,0,0,1-1.84,1.76,15.58,15.58,0,0,1-2.22,1.48,3.57,3.57,0,0,1-1.85.46A9.87,9.87,0,0,1,5,96.76a3.64,3.64,0,0,1-1-.67,6.87,6.87,0,0,1-.91-1.27,5.41,5.41,0,0,1-.53-2A4.7,4.7,0,0,1,3,90.7a13.14,13.14,0,0,1,1.47-2l2.05-2.29a10.36,10.36,0,0,1,1.92-1.69A10.62,10.62,0,0,1,10.14,84a17.13,17.13,0,0,1,1.72-.4l1.6-.25c.39-.07,1.1-.24,1.57-.38A1.44,1.44,0,0,1,16.13,82.93Z"/></g></svg>
