<svg xmlns="http://www.w3.org/2000/svg" width="130" height="165" viewBox="0 0 130 165"><defs><style>.cls-1{fill:#e5e5e5;}.cls-2{fill:#d83f32;}.cls-3{fill:#deab90;}.cls-4{fill:#377e62;}.cls-5{fill:#e2d681;}</style></defs><title>elf_left</title><g id="final"><path class="cls-1" d="M84.75,95.46c11,.25,22.44,5.46,25.43,11.59s5.44,12.46,5.44,14.08-2.05,2.22-4.55,1.34-4.91-.88-5.35,0,3.65,4.26,9.1,7.49,10.86,7.82,12,10.17,2.14,7.54,2.14,11.51-2.77,5.54-6.16,3.48-3.38-.73,0,2.95S120,164.76,109,164.76H21.41c-4.42,0-6.46-2.77-4.55-6.16s2.76-6.88,1.87-7.76-3.05-.28-4.81,1.34-3.94,1.62-4.82,0,.2-5.35,2.41-8.3a67.46,67.46,0,0,1,8.83-9.37c2.65-2.2,4.7-5.82,4.55-8s-3-2.21-6.42,0-3.51,1.36-.27-1.88,6.85-8.9,8-12.58,3.24-9.17,4.59-12.21,11.45-5.33,22.45-5.08Z"/><path class="cls-2" d="M103.57,94.64c1.62,1.76-6,3.21-17,3.21H54.26c-11,0-21-3.49-22.14-7.76a38,38,0,0,1-.27-15.79c1-4.42,3.92-10.32,6.42-13.12S42.82,53.81,42.82,51a31.34,31.34,0,0,0-.8-7.49c-.44-1.33-1.41-4.58-2.14-7.23a45.52,45.52,0,0,1-1.34-10.17,48.09,48.09,0,0,0-1.87-11.51c-1-3.38-4.17-6.75-7-7.49A46.86,46.86,0,0,0,19.8,5.78c-2.64,0-5.66,1.45-6.69,3.21a12.24,12.24,0,0,1-5.62,4.55c-2.06.74-4.59.5-5.62-.53a3.92,3.92,0,0,1-.26-4.55C2.49,7,6.22,4.82,9.9,3.64A57,57,0,0,1,24.35,1.5H38.27c3.39,0,7.12,1.32,8.3,2.94a25.18,25.18,0,0,0,7.22,5.62,42.86,42.86,0,0,1,8.57,6.16c1.91,1.91,5.53,5.65,8,8.3s6.47,7.1,8.83,9.9a31.93,31.93,0,0,1,5.62,10.17c.74,2.8.37,6.17-.8,7.49a6.5,6.5,0,0,0-1.34,5.36A10.71,10.71,0,0,0,87,62.52c1.91,1.18,4.93,4.55,6.69,7.49a38.26,38.26,0,0,1,4,9.1c.44,2.06,1.28,5.68,1.87,8A20.69,20.69,0,0,0,103.57,94.64Z"/><circle class="cls-3" cx="66.11" cy="102.4" r="9.9"/><path class="cls-4" d="M55.93,150.48A9.31,9.31,0,0,0,65.81,160l16.27-.83a10.67,10.67,0,0,0,10-10.51V134.57a9.6,9.6,0,0,0-10-9.64l-15.88.57a10.6,10.6,0,0,0-10.1,10.35Z"/><path class="cls-4" d="M43.15,134c.08-5.5,4.42-9.59,9.66-9.08s9.5,5.42,9.48,10.92l-.07,14.63a8.71,8.71,0,0,1-9.72,8.93A11.11,11.11,0,0,1,43,148.35Z"/><path class="cls-4" d="M52.73,125.14a154.27,154.27,0,0,0,19.44.53l9.91-.45c5.49-.26,5.63-1,.31-1.69a126.08,126.08,0,0,0-19.66-.6l-9.46.59C47.78,123.86,47.54,124.59,52.73,125.14Z"/><polygon class="cls-5" points="78.9 159.3 78.9 125.14 76.27 125.14 76.27 159.44 78.9 159.3"/><polygon class="cls-5" points="91.84 139.66 61.95 141.31 62.11 143.72 92 142.07 91.84 139.66"/><polygon class="cls-5" points="76.27 125.14 78.9 125.14 62.18 123.16 59.55 123.16 76.27 125.14"/><polygon class="cls-5" points="51.96 124.86 50.41 124.72 78.9 123.01 80.76 123.16 51.96 124.86"/><polyline class="cls-5" points="51.96 124.86 51.96 159.34 50.41 159.06 50.41 124.72"/><polygon class="cls-5" points="62.18 141.46 43.29 139.9 43.29 142.03 62.18 143.73 62.18 141.46"/><path class="cls-5" d="M56.31,124c-.7,0-1.28.41-1.28.8s.46.65,1,.55,1.59-.18,2.29-.21,1.88-.12,2.63-.21a12.6,12.6,0,0,0,2.29-.51,3.42,3.42,0,0,0,1.42-2.16,12.31,12.31,0,0,0,.27-3.8,6.35,6.35,0,0,0-1.5-3.26,2.35,2.35,0,0,0-2.52-.6,3.67,3.67,0,0,0-1.5,2.42,5.71,5.71,0,0,0,1,3.55,9.93,9.93,0,0,0,3.38,2.75,10.87,10.87,0,0,0,2.78.93,7.58,7.58,0,0,0,2.21-.67A6.74,6.74,0,0,0,71.37,121a13.87,13.87,0,0,0,1.31-3.73,3.07,3.07,0,0,0-.67-2.62,5.25,5.25,0,0,0-2.74-.76A3.3,3.3,0,0,0,66.64,116a17,17,0,0,0-1,3.26,2.7,2.7,0,0,0,.27,1.69,9.27,9.27,0,0,0,1.39,1.23c.53.4,1.29,1,1.69,1.23a5.51,5.51,0,0,0,1.76.72c.58.11,2,.26,3,.33s2.73.13,3.64.13,1.61-.32,1.54-.72-.58-.72-1.16-.72-1.66,0-2.4-.12-1.91-.13-2.59-.13a6.28,6.28,0,0,1-2.3-.51c-.57-.28-1.4-.74-1.84-1a5.18,5.18,0,0,1-1.2-1.11,5.18,5.18,0,0,1,.38-2.92c.43-1.28,1.29-2.28,1.91-2.24a3.25,3.25,0,0,1,1.62.55,2.34,2.34,0,0,1,0,1.91,17.72,17.72,0,0,1-1.13,2.66,6,6,0,0,1-2,2,5.64,5.64,0,0,1-2.18.72,4.67,4.67,0,0,1-2-.68,13.58,13.58,0,0,1-1.84-1.39A10.78,10.78,0,0,1,61,119.2a3.42,3.42,0,0,1-.3-2.16,2.48,2.48,0,0,1,.83-1.53c.31-.13.92.19,1.35.72a5.37,5.37,0,0,1,.94,2.46,9.63,9.63,0,0,1-.37,3.13,2.66,2.66,0,0,1-1.73,1.82c-.66.09-1.86.19-2.67.21S57,123.93,56.31,124Z"/><path class="cls-2" d="M40.41,126.22c4.57,1.47,8.3,3.4,8.3,4.28a1.5,1.5,0,0,1-1.34,1.61,15.94,15.94,0,0,1-3.75-.81c-1.32-.44-.72.16,1.34,1.34l5.62,3.21a3,3,0,0,1,1.07,3.48A8.73,8.73,0,0,1,49,143.08a9.82,9.82,0,0,1-4.82,1.34,16.85,16.85,0,0,1-6.69-2.14,60.1,60.1,0,0,1-6.69-4.55,20.9,20.9,0,0,1-4-4.29c-.59-1-.22-3.07.81-4.55a37.85,37.85,0,0,1,3.21-4C31.51,124.14,35.85,124.75,40.41,126.22Z"/><path class="cls-2" d="M93.05,126c-4.56,1.47-8.29,3.39-8.29,4.28a1.49,1.49,0,0,0,1.33,1.6,15.64,15.64,0,0,0,3.75-.8c1.33-.44.72.16-1.34,1.33l-5.62,3.21a3,3,0,0,0-1.07,3.47,8.75,8.75,0,0,0,2.68,3.75,9.81,9.81,0,0,0,4.81,1.33,16.73,16.73,0,0,0,6.7-2.14,58.73,58.73,0,0,0,6.69-4.54,20.78,20.78,0,0,0,4-4.27c.59-1,.23-3.08-.8-4.55a37.82,37.82,0,0,0-3.21-4C102,124,97.62,124.55,93.05,126Z"/></g></svg>
