<svg xmlns="http://www.w3.org/2000/svg" width="957.08" height="160.75" viewBox="0 0 957.08 160.75"><defs><style>.cls-1{fill:#ec6632;}</style></defs><title>game_over_title</title><g id="final"><path class="cls-1" d="M745.18,109.19q-4,16-13,25.2a19.69,19.69,0,0,1-5.8,4.4,19.1,19.1,0,0,1-4.4,1.4q-3.39-.19-10.2-2.8t-8.8-5q-3-3.19-5.8-10.4a171.24,171.24,0,0,1-7-24.6q-1.59-13-1.8-19.8-.79-5.59-1.4-11a46,46,0,0,1-.2-11.2q1.2-9.8,2-14.6c1.6-4.8,2.54-7.46,2.8-8q2.8-8.79,5.6-12.2,6.6-8,14.2-10.2l6.4-.8a43.15,43.15,0,0,0,4.8.4,9.25,9.25,0,0,1,4.4.8,15.17,15.17,0,0,1,4.8,5.2q.6.81,3.2,5.7t4,7.1q6.6,15.81,8.2,46.6.6,5.2.8,8A91.09,91.09,0,0,1,745.18,109.19Zm-36.6-36.6h7.6v-.4q0-9.19.2-13.8.4-15-.8-32.8v-4.4a7.45,7.45,0,0,0-.8-4q-2,2.8-2.8,4a81.38,81.38,0,0,0-1.8,8.8Q708.59,39.8,708.58,72.59Zm8.8,9.4a22.37,22.37,0,0,1-1.2-6.6H713c-2,.14-3.46.27-4.4.4q0,4.41.9,6c.6,1.07,2.24,1.6,4.9,1.6,1.07-.4,1.94-.73,2.6-1A.36.36,0,0,1,717.38,82Zm3.2,50.2q-3-33.6-3.2-34.6l-.8-11a3.36,3.36,0,0,0-1-1.4,10.75,10.75,0,0,1-3.4.6c-1.86.27-2.8.2-2.8-.2a1.12,1.12,0,0,1-.8.4,170.24,170.24,0,0,0,3,19q1.2,5.4,4.6,18.2l1.8,5.2,2,3.8ZM728,31.79q-1.59-7.8-2.4-11.8l-2.4-5.8h-4q-.2,5.4-.4,7.8.75,15.81,1,23.6v30.2l.8,6.6-.8,8q.91,10,3.2,29.4,1.2,12,1.6,14.6h.4V134a47.42,47.42,0,0,0,3.4-9.8q3.4-10,3.6-29.4A370.54,370.54,0,0,0,728,31.79Z"/><path class="cls-1" d="M752.78,16.79h9.4q4.2-2,6.4.6c.67,2.27,1.53,5.14,2.6,8.6.67,1.87,1.63,4.7,2.9,8.5s4.1,14.57,8.5,32.3l4.8,15.6q2.6,8,6.2,19.4.79,4,1.8,7.8,0,.41,2-10.2c.27-2,.73-4.93,1.4-8.8a99.23,99.23,0,0,0,2.4-12.2,124.49,124.49,0,0,0,2.2-13.8l1.6-6.8q.19-4.8.8-14.2a44.65,44.65,0,0,0-.2-11.2q-1-8.4-4.8-8.2c.13-1.2.07-1.8-.2-1.8a3.45,3.45,0,0,1,2.6-1.4,4.29,4.29,0,0,1,3.3,1.8,5.86,5.86,0,0,1,1.5,3.8l.4-.2q1.39-7.59,5-7.6a.8.8,0,0,0,.4.8l-2.2,7.8a21.79,21.79,0,0,0,.2,2.4h.4q2.4-3.6,5.8-3.6a3.47,3.47,0,0,1,2.8,1.6,10.19,10.19,0,0,1,1.2,2.4.55.55,0,0,1-.4.2v.4c-2.53-.4-3.87-.6-4-.6-1.73.54-3.23,2-4.5,4.5a12.91,12.91,0,0,0-1.7,6.69q-.79,5.58-2.6,16.56a53.59,53.59,0,0,0-2,12q-.6,2-1.6,6-.79,5-2.4,11.78-2.4,20.57-5,31.54L795.38,132q-2.21,10-4.8,10c-.93,0-1.67-.66-2.2-2q-3.2-8.59-9.2-26-4-14.78-12.4-44.33c-.93-2.79-2.2-7.06-3.8-12.78q-1.61-7.18-5.2-21.76,0-.41-4-13.58a9,9,0,0,1-2.6-3.8A4.56,4.56,0,0,0,752.78,16.79Z"/><path class="cls-1" d="M875.18,131.59a15,15,0,0,1-7.4,5.6l-9.4,1.2q-10.2,2.4-10.6,2.4-7.8,0-15.4-7.4a35.21,35.21,0,0,1-9.2-14.8,73.32,73.32,0,0,1-1.4-11.8q-1.8-16-1-26,.6-7.4,1.2-11,.6-2.19,4.4-16.2c.53-2.53,1.07-5,1.6-7.4a28.65,28.65,0,0,1,2.4-7.2q3.2-5.6,5.1-8.7c1.27-2.06,2.23-3.7,2.9-4.9q4.39-7.39,14-9.6.6,0,9.8.5t11.4.7c2.93-1.06,5.13-1.8,6.6-2.2q3,1,3,3,0,1.41-3.2,5.4-1.8,2.8-3.6,5.4c-1.73,2.14-3.53,3.2-5.4,3.2a14.48,14.48,0,0,1-4.6-1.1,29.34,29.34,0,0,0-4.2-1.3,15.71,15.71,0,0,0-10.2,1.8c-1.6,1.2-2.8,2.14-3.6,2.8a22.53,22.53,0,0,1-1.8,2.2q-3.8,7.61-5.2,21.2L840,66a76.07,76.07,0,0,0-1.2,10.6c0,2.14.4,3.27,1.2,3.4a62.26,62.26,0,0,1,3.6-7.8c.93-1.33,1.87-2.66,2.8-4a21.1,21.1,0,0,1,4,.2l5.8-.8a82.54,82.54,0,0,1,10-.8c4.13,0,6.13.73,6,2.17-.27.15-.4.29-.4.43h.4a38.67,38.67,0,0,0-5.9,6.91q-3.71,5.13-3.9,7.29a67.07,67.07,0,0,0-7-.2c-4,0-6.13.14-6.4.4a5.86,5.86,0,0,0-1.4,3.8c-.13,1.74-.2,3.4-.2,5q-.6,7,1,40.2a7.82,7.82,0,0,0,2,2.8c.4.4,1.33.54,2.8.4,2.93-.66,5.13-1.2,6.6-1.6l5-.8a12,12,0,0,0,4.8-1.4,10.68,10.68,0,0,0,5-6.8,3.42,3.42,0,0,0-.9-3.3,4,4,0,0,0-2.9-1.3,3.12,3.12,0,0,0-3.2,2.3c-.53,1.54-.6,2.3-.2,2.3a11.76,11.76,0,0,0,3,1.8l-.2,1.2a13,13,0,0,1-4,.4q-3.2-1-3.2-5a6.94,6.94,0,0,1,1.6-4.8,8.4,8.4,0,0,1,6.2-2.4q7.61,0,7.8,6.6Q878.58,127.2,875.18,131.59Zm-32-30.6a9.54,9.54,0,0,0-.4-4.2c-1.2.54-2.47,1.07-3.8,1.6-.53.4-1,1.8-1.4,4.2Q837.58,102.39,843.18,101Zm-5.4-10.8c-.13,2.8.6,4.34,2.2,4.6,1.6-.13,2.8-.26,3.6-.4a57.24,57.24,0,0,0,0-11.8c-2.27.8-3.93,1.34-5,1.6C838.31,86.19,838.05,88.19,837.78,90.19Zm7,37.8q-1.39-10.2-1.4-11.8-.4-8.4-.4-12.6a34.16,34.16,0,0,0-3.2,1.4,2.71,2.71,0,0,0-1.6,2.6q0,4.8,4.2,15.6l2,4.8Z"/><path class="cls-1" d="M955,128.19v.4Q941.57,144,936.58,144a3.06,3.06,0,0,1-2.6-1.4,34,34,0,0,1-2.6-8.2q-1.61-6.19-2.8-12-1.2-8.6-2.6-17.2-2.61-12.6-7.4-12.4c-2.8,0-4.67.94-5.6,2.8q-1,1.8.2,12.6.8,13.61,1,20.4c.4,1.47.73,2.94,1,4.4a8.29,8.29,0,0,1-.2,4.2,8.43,8.43,0,0,1-2.6,1.2c-1.47.4-2.6.67-3.4.8l-8-.4c-4.54-.53-6.8-1.86-6.8-4a17.24,17.24,0,0,0,3.8-8q1.2-12.8,1.2-19.4.2-11.79-.8-33-.21-10.8,0-16.2-1.2-17-2-29.8c-.4-5.06-.8-7.6-1.2-7.6a10.15,10.15,0,0,0-6-.2c-2.54.4-4,1.4-4.4,3a5.75,5.75,0,0,0,.2,2.6,18.71,18.71,0,0,1,.4,2.6,5,5,0,0,0,2.2-.1q1.59-.3,1.8-.3v-1a4.31,4.31,0,0,1-1.8-3h.4V24c3.46.54,5.2,2,5.2,4.4,0,2.94-2.14,4.4-6.4,4.4a6,6,0,0,1-3.4-.8q-2.8-2-2.8-7.4,0-7.8,9.6-7.8a39.92,39.92,0,0,1,8-1.8,75.9,75.9,0,0,1,12.4,1.4,63,63,0,0,0,13.8.8q12.39-1.59,11.6-1.6,5.6.4,8.2,11.2,1,6.21,2,12.2,1.2,12,1.2,12.4.39,5.2-3,12.6a46.81,46.81,0,0,1-6.8,10.8q-3.41,3.21-5.4,4.8c-.27.8.06,1.94,1,3.4a34.32,34.32,0,0,0,1.8,3q2.4,9.41,3.6,14,3.2,8.61,5,12.8,2.19,6.4,3.2,9.4a42.76,42.76,0,0,0,6.4,4.8Q955.37,128.19,955,128.19ZM931.58,44a27.22,27.22,0,0,0,.6-6.8,17.26,17.26,0,0,0-1.78-7.5q-1.59-2.89-6.93-4.9a82.87,82.87,0,0,0-8.71-2.2q-.4,6.81-.4,10.2L913,42.59v8q-.81,7.41-1.4,11c0,1.6.06,3.67.2,6.2.26,3.07.4,5,.4,5.8l-.6,17.8h1.2V91q3.79-1.8,9.3-7.1t6.9-9.1a48.83,48.83,0,0,0,.8-7.4c.4-3.2.66-5.6.8-7.2q.2-9.19.2-9.6A47.27,47.27,0,0,1,931.58,44Z"/><path class="cls-1" d="M67.4,146.6q.19,4-.7,5.6c-.6,1.06-1.1,1.6-1.5,1.6q-1.2,0-5.6-9t-8.4-10a5.91,5.91,0,0,0-3,.6c-1.33.53-2.2.87-2.6,1a140.1,140.1,0,0,1-14.2,1q-9.41,0-14.4-3a57.64,57.64,0,0,1-6.6-8.4q-3.6-5.4-7.2-16c-.93-3.07-1.67-5.33-2.2-6.8Q.6,87.6.8,76.6a97,97,0,0,0,1.4-15Q6.8,40.41,9.6,30q5-12.19,18.4-16,.6-.2,9.8-.2,9.8,0,11.4.6c2.53.4,5.07.87,7.6,1.4,3.47.93,5.13,2.27,5,4q-2.4,5.4-4.8,7.6c-.53,1.47-1.07,2.93-1.6,4.4q-1.2,2.81-3,3.4c-1.07.4-2.37.13-3.9-.8l-4.3-2.6q-5.81-2.81-10-2a3.42,3.42,0,0,0-3,2.6q-.79,7.8-.8,11.8-.41,6.19.6,35,.2,7.8,1.2,25.4.79,12.8,1,14.2a69.78,69.78,0,0,0,.2,7.4c0,1.33.07,2,.2,2q4.6,4.2,8,3.8c.13,0,1.27-.27,3.4-.8a4.36,4.36,0,0,0,2.6-1.6c.8-1.33,1.07-3.27.8-5.8q-.6-5.4-.6-6,1.39-25.6,1.4-33.6-7.2,0-8.2.2c-2.93.53-4.27,2.2-4,5q.41,3.19,2.8,3.2V89.4c.93-.27,1.4-.53,1.4-.8a4.12,4.12,0,0,1,2,3.8q0,3.19-4,3.2T33.7,93a9.08,9.08,0,0,1-.9-6.2q.6-5.8,7-6.8H51.4c4.27-.13,7.53-.2,9.8-.2v-.6q6.19-.2,6.2,2.4A22.14,22.14,0,0,0,65,92c.27,3.73.47,7.47.6,11.2l-.4,8q1,8.8,1.6,13,0-.4-.2,7.4a24.41,24.41,0,0,0,0,4.4,41.22,41.22,0,0,1,.4,4.6Q67,139,67.4,146.6Zm-51-79.2A12.38,12.38,0,0,0,22,68.6c1.73-.53,3.07-.93,4-1.2a45.46,45.46,0,0,0,.6-10.8q0-.6.8-6.8a82.14,82.14,0,0,0,.6-8.6q0-5-1.4-6.8c-1.73,2.13-3,3.67-3.8,4.6a97.06,97.06,0,0,0-3.2,10.4,84.71,84.71,0,0,0-3.2,13.4Q15.61,67.41,16.4,67.4ZM26.8,75q0-2.59-3.4-3.8c-.93.4-3.27.6-7,.6a8.29,8.29,0,0,0,.9,4.5c.6.87,2,1.3,4.3,1.3,2.93-.53,4.4-.73,4.4-.6A3.22,3.22,0,0,0,26.8,75Zm2.6,45.4c-.13-1.87-.33-3.73-.6-5.6V106q-.8-9-1.4-13.4c0-.4.13-2.2.4-5.4a13.79,13.79,0,0,0-.4-5,2.86,2.86,0,0,0-2.2-1.5c-1.07-.2-2.13-.37-3.2-.5-3.47.4-5.2.67-5.2.8h-.4a81.93,81.93,0,0,0,2.8,21.8l2.4,7.2,1,5.6,2.6,5.8,2.2,2.2c.93.93,1.4,1.67,1.4,2.2h.4A14,14,0,0,0,29.4,120.4Z"/><path class="cls-1" d="M140,131a4.43,4.43,0,0,1,1.6,2.8c-.27.94-.47,1.67-.6,2.21a17.07,17.07,0,0,0-2.9.3,16.44,16.44,0,0,1-2.3.3l-5.8-.2a39.21,39.21,0,0,1-4,.7,39.28,39.28,0,0,1-5.2.5c-1.87,0-3.14-.33-3.8-1a18.74,18.74,0,0,1,0-7.8q-.21-1.61-2.4-10.1T112,110a6.42,6.42,0,0,0-2.4-.4q-2.4,0-12,2.8-8.2,2.4-10.1,4.3a10.91,10.91,0,0,0-2.7,5.5q-.4,2.8-1,5.8-2,11.4-2,11.6,0,8.6,6,10.8a2,2,0,0,1,.7.6,1.61,1.61,0,0,1,.3,1h-.6v.4c-4.94-.54-7.4-1.87-7.4-4h-1V160H79a71.65,71.65,0,0,1-2-8,10.66,10.66,0,0,1,0-3c.13-1.47.2-2.4.2-2.8-.67-.27-1-.27-1,0q-4.41,2.4-5.2,2.4l-2.8-.6v-.4A10.43,10.43,0,0,0,74,144a56.37,56.37,0,0,0,4.2-11q3.19-13.6,4-18.8l1.2-7H83l-9.8,5.2c-1.2-2.93-1.8-4.27-1.8-4l13.4-5.8q1.4-14,2.4-20.8Q90,53.19,91,32.2c0-.53.26-3.07.8-7.6q.6-6.2.6-9.6c0-2.8-.34-4.67-1-5.6S88.6,8,85,8Q74,8,72.8,11.4a7.46,7.46,0,0,0-.4,2.4A5.5,5.5,0,0,0,74,17.7a4.84,4.84,0,0,0,3.6,1.7c1.73,0,2.6-1.07,2.6-3.2l-2.7-.3c-.6-.07-.84-.77-.7-2.1s.4-2,.8-2v.4q6.2-.79,6.2,4.6a6.87,6.87,0,0,1-1.9,4.7A6.31,6.31,0,0,1,77,23.6a7.4,7.4,0,0,1-6.3-3.1,11.88,11.88,0,0,1-2.3-7.3Q68.4,5,75,5c2-.13,3.46-.27,4.4-.4a35.08,35.08,0,0,1,9.8-.4,81.31,81.31,0,0,1,9.2,1.71Q106,7.23,106.8,8q1.4,1.61,2.2,6.61c.4,2.53.8,5,1.2,7.41q3.19,13.62,4.4,18.23,4.59,18.63,6.6,28,6.19,20.24,9.4,30.45,5,19.64,7.4,29.65C138.13,128.52,138.8,129.39,140,131ZM111,103.2q0-2.6-3.6-3.2-3.81,1.2-5.8,1.6-6.81,2.4-10.4,3.6a8.83,8.83,0,0,0-3,1.4q-1.8,1.8-1.8,5.8h2.4q14.79-6.2,19.4-6.2a14,14,0,0,0,2.2-1.6A1.92,1.92,0,0,0,111,103.2Zm-22.2-1.4H90q15.39-5.4,19.2-5.4.19-1.61-1.2-6.6-2.4-10.6-3.2-14.2-3.6-19.8-5.2-29.8-2.8-15.19-4.2-18.6-1.8,29.6-2.8,44.4Q90.2,91.81,88.8,101.8Z"/><path class="cls-1" d="M146.8,11.2q1.59,1,10,14.6,1.2,1.61,3.4,5.2,3.8,12.6,9.2,28.6,3.39,10.8,8.4,24.8,2.79,6.41,8.4,19.2l2.4,8q.6,2,1.8,6.2a.35.35,0,0,1,.4.4h.4q3-12.4,7.8-37.8-.21-4,0-12.4c.26-2.13.6-5.4,1-9.8,0-2.13.06-5.33.2-9.6A53.67,53.67,0,0,1,202.8,37q1.39-6.41,3-12.8,3-9.79,5.4-9.8a2.46,2.46,0,0,1,2,1l1.4,4.6a121.21,121.21,0,0,1,4.2,16.6q2.4,14.2,5.2,42.6v15c0,.8.08,3.73.26,8.8q.13,6.41.14,7.6v10.8q1.59,16.8-1,16.8l-5.72-.6q1.38.6-5.72.6-1.78-4-2-19.49V101q0-2.8-.2-8.84-.6-3.41-1.2-10.25-.21-4.62-.6-13.86c-.54-2-1.3-5.15-2.3-9.44s-1.5-6.3-1.5-6h-.6Q203.2,58,202,69q.19,4.2-.2,12.8-.21.6-4.23,21-1.42,8.2-3,16.4a57.37,57.37,0,0,1-5.44,15.2c-.4.8-.91,1.7-1.51,2.7a3.22,3.22,0,0,1-2.11,1.7q-2.22.19-5.44-9.2-2-6-4-11.8a301.09,301.09,0,0,1-10.48-28.6q-8.06-25.4-9.47-29A78,78,0,0,0,150,48q-2.22-3.8-2.22-4.4h-.4q0,19.8,1,24.4.6,5.2-1,32-.21,1.4,1.69,13.4,0,.6,1.91,14.6v10.8q.8,2.4,7.4,2.4v-.4h.4v.4h.4v1.4l-2.8,1.8a17.49,17.49,0,0,1-3.4.4c-1.34,0-2.14.86-2.4,2.6-.14.93-.34,2-.6,3.2a.35.35,0,0,0-.4.4,3.69,3.69,0,0,1-2-2.7,36.89,36.89,0,0,1-.6-3.7,13,13,0,0,0-.6-1.4c-.27-.54-.4-.6-.4-.2l-4.4,1.4a3.45,3.45,0,0,1-1.4-2.6q6.6-2.2,6.6-12.8a82.54,82.54,0,0,0-.8-10q-1-7.2-1.2-8.4.39-21.79,0-50.2l-.2-11q-.6-4.8-1.6-14.2,0-4.61.2-13.8-.4-7.2-.2-7.2Q143.39,12.81,146.8,11.2Z"/><path class="cls-1" d="M283,129.6a15.12,15.12,0,0,1-7.4,5.6l-9.4,1.2q-10.2,2.4-10.6,2.4-7.8,0-15.4-7.4a35.18,35.18,0,0,1-9.2-14.8,72.17,72.17,0,0,1-1.4-11.8q-1.8-16-1-26,.6-7.39,1.2-11,.6-2.2,4.4-16.2.8-3.8,1.6-7.4a27.6,27.6,0,0,1,2.4-7.2q3.2-5.59,5.1-8.7t2.9-4.9q4.4-7.39,14-9.6c.4,0,3.66.17,9.8.5s9.93.57,11.4.7q4.39-1.61,6.6-2.2,3,1,3,3,0,1.39-3.2,5.4Q286,24,284.2,26.6q-2.61,3.2-5.4,3.2a14.76,14.76,0,0,1-4.6-1.1,28,28,0,0,0-4.2-1.3,15.69,15.69,0,0,0-10.2,1.8q-2.4,1.8-3.6,2.8a22.53,22.53,0,0,1-1.8,2.2q-3.81,7.61-5.2,21.2L247.8,64a75.91,75.91,0,0,0-1.2,10.6c0,2.13.4,3.27,1.2,3.4a62.26,62.26,0,0,1,3.6-7.8c.93-1.33,1.86-2.67,2.8-4a21.17,21.17,0,0,1,4,.2c1.86-.27,3.8-.53,5.8-.8a82.39,82.39,0,0,1,10-.8q6.19,0,6,2.16c-.27.15-.4.29-.4.44h.4a37.74,37.74,0,0,0-5.9,6.9q-3.71,5.13-3.9,7.3a67.21,67.21,0,0,0-7-.2c-4,0-6.14.13-6.4.4a5.86,5.86,0,0,0-1.4,3.8c-.14,1.73-.2,3.4-.2,5q-.6,7,1,40.2a7.78,7.78,0,0,0,2,2.8c.4.4,1.33.53,2.8.4q4.39-1,6.6-1.6l5-.8a12.15,12.15,0,0,0,4.8-1.4,10.74,10.74,0,0,0,5-6.8,3.47,3.47,0,0,0-.9-3.3,4,4,0,0,0-2.9-1.3,3.12,3.12,0,0,0-3.2,2.3c-.54,1.53-.6,2.3-.2,2.3a11.42,11.42,0,0,0,3,1.8l-.2,1.2a13.36,13.36,0,0,1-4,.4c-2.14-.67-3.2-2.33-3.2-5a6.94,6.94,0,0,1,1.6-4.8,8.38,8.38,0,0,1,6.2-2.4q7.59,0,7.8,6.6C286.4,123.87,285.26,126.67,283,129.6ZM251,99a9.5,9.5,0,0,0-.4-4.2c-1.2.53-2.47,1.07-3.8,1.6-.54.4-1,1.8-1.4,4.2C245.4,100.47,247.26,99.93,251,99Zm-5.4-10.8c-.14,2.8.6,4.33,2.2,4.6,1.6-.13,2.8-.27,3.6-.4a57.23,57.23,0,0,0,0-11.8q-3.41,1.2-5,1.6Q246,85.2,245.6,88.2Zm7,37.8q-1.41-10.2-1.4-11.8-.4-8.4-.4-12.6a33.05,33.05,0,0,0-3.2,1.4,2.7,2.7,0,0,0-1.6,2.6q0,4.8,4.2,15.6l2,4.8Z"/></g></svg>
