<svg xmlns="http://www.w3.org/2000/svg" width="69" height="69" viewBox="0 0 69 69"><defs><style>.cls-1{fill:#ec6632;}.cls-2{fill:#442518;}</style></defs><title>home_button</title><g id="Layer_4" data-name="Layer 4"><rect class="cls-1" width="69" height="69" rx="12" ry="12"/><path class="cls-2" d="M13,60a1,1,0,0,0,1,1H28.71a1,1,0,0,0,1-1V40.58a1,1,0,0,1,1-1h9.58a1,1,0,0,1,1,1V60a1,1,0,0,0,1,1H57a1,1,0,0,0,1-1V27.26a2.57,2.57,0,0,0-.74-1.67l-21-18.92a1.11,1.11,0,0,0-1.47,0l-21,19.48A2.65,2.65,0,0,0,13,27.84Z"/></g></svg>