<svg xmlns="http://www.w3.org/2000/svg" width="723.78" height="676.23" viewBox="0 0 723.78 676.23"><defs><style>.cls-1{fill:#694b4b;}.cls-2{fill:#634444;}.cls-3{fill:#49241a;}.cls-4{fill:#47271e;}.cls-5{fill:none;}.cls-6{fill:#7585ba;}.cls-7{opacity:0.25;}.cls-8{fill:#191919;}.cls-9{opacity:0.35;}.cls-10{fill:#e1e5ef;}.cls-11{fill:#8797c6;}.cls-12{fill:#5970aa;}.cls-13,.cls-14,.cls-15,.cls-16{fill:#ffa700;}.cls-14,.cls-17{opacity:0.1;}.cls-15{opacity:0.06;}.cls-16{opacity:0.04;}.cls-18{fill:#f5a631;}</style></defs><title>house_left</title><g id="Layer_4" data-name="Layer 4"><rect class="cls-1" x="322.82" y="386.28" width="310" height="58"/><rect class="cls-2" x="31.82" y="220.28" width="310" height="419"/><g id="_Group_" data-name="&lt;Group&gt;"><path class="cls-1" d="M376.9,415.34H571.26a7,7,0,0,1,7,7v13.74a7.16,7.16,0,0,1-7,7.12s-6.27.06-8.94.07-4.82.25-4.8.54-.06,1-.29,1.05l-.86.07s-1.3.11-2.81.18-8.09.7-11.39.74-6,.39-6,.69-3.13.79-7,.46l-33,.38c-3.84.25-7.34.45-7.77.44s-4.71-.3-8.54-.65c0,0-6-.6-6.93-.13a14.37,14.37,0,0,1-5.14.89l-1.71,0h-1.58l-3.1.22-2.72.36c-1.5.2-8.48,1.15-12.33,1.17l-11.23.06c-5.56,0-10.45.11-10.45.11-3.85.07-7.08.15-7.18.18s-2.32.13-4.74.16l-2.2.08c-4-.08-5,0-5,0l-7.06.53c-.05,0-3.33.06-7.18.09,0,0-.9,0-4.84.11l-1.39,0c-1.51.15-3.58.27-4.61.27s-3.71-3.14-3.71-7v-22C376.89,418.49,376.9,415.34,376.9,415.34Z"/><path class="cls-1" d="M578.26,422.34a7,7,0,0,0-7-7H376.9s0,3.15,0,7v22a7.07,7.07,0,0,1-7,7s-6.79,0-9.61.1-5.19,3.29-5.28,7.14c0,0-1.47,66.21-2.28,102.81-.39,17.45-.72,34.9-.07,52.34.43,12.13.23,29.48.23,29.48a7.54,7.54,0,0,1-7.08,7.33l-97.15,4.64a6.64,6.64,0,0,1-7-6.67V248.15c0-.2,3.15-.21,7,0l451.86,23a7.48,7.48,0,0,1,7,7.36v347.8c0,3.85,0,7,0,7l-7,.34-81.68,3.9c-3.84.18-7,.11-7-.16a4.48,4.48,0,0,1,0-1,18.31,18.31,0,0,0,0-2.78c0-1.51-.67-5.46-.67-5.46s.11-3.17.25-7c0,0,0-.61-.19-4.92-.22-4.66-.08-7-.08-7,.23-3.84.42-7,.41-7s-.06-2-.09-4.35l0-2.16c0-1,0-2.08,0-3.12l.06-1a17.38,17.38,0,0,0,.24-2,21.77,21.77,0,0,1-.22-3.81l.07-1.92c.26-6.69,0-13,0-13-.14-3.85-.27-8.53-.27-10.41s.19-6.85.25-6.86.24-3.18.4-7c0,0,.21-5.22-.21-11.21a38.39,38.39,0,0,1,.3-6.12l.17-2.23c-.26-2.41-.49-4.38-.52-4.38s-.23-.07-.22-.16.24-1.3.5-2.48a28.45,28.45,0,0,0,.17-4.36s.17-3.18.35-7c0,0,.81-17.37.14-30-.35-6.25.39-12.39.48-18.64a32.88,32.88,0,0,0-.84-8.74l-.72-2.69c-.66-2.82-4.34-5.21-8.19-5.31L585.26,443a6.91,6.91,0,0,1-7-6.91Z"/><path class="cls-1" d="M22.34,259.64l7.07-.36,205.26-10.4a6.6,6.6,0,0,1,7,6.65V655.92c0,.21-3.14.15-7-.12L29.25,641.22a7.64,7.64,0,0,1-7-7.49V266.65C22.27,262.8,22.3,259.64,22.34,259.64Z"/><path class="cls-1" d="M241.66,248.15c0,.21-3.14.53-7,.73L29.41,259.28c-3.85.19-7-.3-7.07-1.09s1.24-4.31,2.86-7.81L129,25.05c1.61-3.5,4.29-3.52,6-.05L238.64,241.47C240.3,244.94,241.66,248,241.66,248.15Z"/><path class="cls-1" d="M248.66,248.14a13,13,0,0,1-10-6.67L135,25c-1.66-3.47.1-5.91,3.92-5.43l453,57.23a15.67,15.67,0,0,1,10.37,7L704.09,265.4c1.88,3.36.27,6-3.57,5.75Z"/></g><path class="cls-3" d="M17.65,460.59a6.45,6.45,0,0,1,6.63-6.87l206.43,3.65a7.64,7.64,0,0,1,7.36,7.12l.17,3.17a6.43,6.43,0,0,1-6.64,6.84L25.13,470a7.68,7.68,0,0,1-7.36-7.15Z"/><path class="cls-3" d="M238.9,343.81s-.18.08-.41.08l-7.42.07-50.88.45-13.52.12-9.51.09-6.59.06-10.61.09-57.84.52-9.33.08-6.56.06-6.15.06-8.93.08-25.72.23c-3.85,0-7.31-1.85-7.68-4.18s-.7-4.41-.73-4.61,0-.37,0-.37l7.06-.08,30.85-.35,9.48-.11,3.69,0,4.07,0,9.85-.11,57.8-.66,13-.14,6.58-.08H161l8-.09,61.34-.7c3.85,0,7,0,7,.08s.17,1.07.35,2.2.5,3.2.73,4.63S238.9,343.76,238.9,343.81Z"/><path class="cls-3" d="M18,541c0-2.58,3.09-4.52,6.94-4.32l211.35,11.18c3.85.21,7,2.6,7,5.32s-3.08,4.78-6.92,4.57L25,546.07C21.16,545.85,18,543.57,18,541Z"/><path class="cls-3" d="M66.79,165.26a6.56,6.56,0,0,1,6.5,6.77l5,468.25a7.14,7.14,0,0,1-6.71,7.25,6.69,6.69,0,0,1-6.83-6.76L60.44,172.49C60.4,168.64,63.26,165.39,66.79,165.26Z"/><path class="cls-3" d="M613.23,459.85a32.22,32.22,0,0,0-.84-8.76l-.11-.41a6.44,6.44,0,0,1-.24-1,.22.22,0,0,1,.23-.21l6.59-.16,6.38-.15,7-.18,64.28-1.52a7.31,7.31,0,0,1,7.4,6.82l.17,3.17a6.73,6.73,0,0,1-6.6,7.14L632.28,466l-7,.15-6.15.14c-3.38.07-6-1.84-5.91-4.24Z"/><path class="cls-3" d="M237.46,458.39a41.65,41.65,0,0,0,.1,7l.11,2.08c.22,3.85.4,7,.4,7.08s.13.09.27.09l7.26-.16,86.22-1.89,7.09-.15c.06,0,3.08-.08,6.71-.15l7.78-.18c.63,0,1.16-3.17,1.16-7v-2.49c0-3.85-.53-7-1.19-7l-7.81.19-6.66.16-7.06.17-86.78,2.06-7.16.18Z"/><path class="cls-4" d="M612,539c0-1.08,0-2.84,0-3.91s.23-2,.5-2l.57,0h.16l6-.25,6-.25h.14l7-.29,13-.55,13-.54,20.81-.88,12.06-.5,8.74-.37c2-.08,4,2.07,4.34,4.77s-2.48,5.06-6.32,5.21l-1.56.07-12.09.49-12.09.5-7.24.29-13,.53-13,.54-2.87.11-8.85.36-1.92.08h-.2l-.4,0-5.93.24-5.74.24H613l-.51,0C612.23,543,612,540.09,612,539Z"/><path class="cls-4" d="M237.09,548.89l1.55-.07,2.59-.1,3-.13,4-.17,6.7-.28,3.68-.16,6.6-.27,13.58-.57,33.66-1.42,12.33-.51,5.35-.23,3.95-.16,4.24-.18.47,0h.25l3.17-.13,5.5-.24,3.59-.15,1.5-.06c.18,0,.29,1.42.24,3.16s-.24,6.36-.34,6.36l-1.38.05-1.38.06-5.49.23-5.58.22-.56,0-4.61.18-7.29.3-8.32.34-12.36.51-19.9.81-13.58.55-13.59.56h-.4l-10.06.42-4,.16-1.45.06-2.07.09-2.11.08-.91,0a.34.34,0,0,1-.36-.23c0-.12-.3-2.22-.64-4.66S236.56,548.91,237.09,548.89Z"/><path class="cls-3" d="M236.54,339.08c-.06-2.54,3-4.6,6.88-4.56l454.07,4.69c3.85,0,7,2.27,7.12,5s-3,4.85-6.87,4.8l-454.08-5.18C239.81,343.75,236.61,341.63,236.54,339.08Z"/><path class="cls-3" d="M149.13,50.76c3.53-.13,6.47,2.92,6.53,6.77l9.2,588.81a7.09,7.09,0,0,1-6.66,7.24,6.74,6.74,0,0,1-6.88-6.76L142.81,58C142.76,54.14,145.6,50.89,149.13,50.76Z"/><path class="cls-3" d="M344.94,253.87c3.53.1,6.43,3.33,6.45,7.18l1.2,298.66c0,3.85,0,10.15-.09,14,0,0-.42,24.37.16,40l0,1.53c.07,1.69.13,6.21.15,10.06l.06,15.95c0,3.85,0,7.66-.07,8.47s-3.22,2.85-6.84,2.75a7.09,7.09,0,0,1-6.61-7.19l-.87-384.63A6.51,6.51,0,0,1,344.94,253.87Z"/><path class="cls-3" d="M612,636.38v-1.21c-.05-1.31-.09-5.54-.09-9.39l.08-73.07c0-3.85,0-8.3.07-9.9s0-6.64,0-7.71v-2.82c0-.48.07-1.54.14-2.35l.06-.8.1-1.21c-.16-1.32-.29-3.51-.29-4.86a32,32,0,0,1,.27-4.13,31.39,31.39,0,0,0,0-3.42h0c2.25-12.58,1.15-24.37.47-37-.34-6.26.39-12.4.48-18.64a32.22,32.22,0,0,0-.84-8.76l-.11-.41a6.44,6.44,0,0,1-.24-1v-3.43c0-1.78,0-6.38,0-10.23v-5.74c0-3.85,0-10.15,0-14l0-61.28c0-3.85,0-9.17,0-11.83s0-8,0-11.83l0-37.12c0-3.85,0-9,0-11.44v-9c0-.64,0-2,0-3s.17-1.8.37-1.79l6.42.15c3.33.08,6,1.51,6,3.19s0,3.77,0,4.63v6c0,2.42,0,7.55,0,11.4l0,37.11c0,3.85,0,9.18,0,11.84s0,8,0,11.84l0,41.09c0,3.85,0,10.15,0,14v0c0,3.85,0,8.57,0,10.48s0,6.63,0,10.48v10.91c0,3.85,0,10.15,0,14v3c0,3.85,0,10.15,0,14V486.7c0,3.85,0,9.14,0,11.76v6.74c0,1.09,0,3,0,4.33v5.32c0,1.64,0,6.14,0,10v12.38c0,2.54,0,4.75,0,4.91v7.28h0c0,3.85,0,10.15,0,14l0,49c0,3.85,0,8.76,0,10.91v4.15c0,.13,0,2.88,0,6.11s-.33,5.88-.74,5.88l-5.91-.14-5.67-.14h-1.2s0-.61,0-1.37a5.22,5.22,0,0,1,.1-1.38Z"/><path class="cls-3" d="M493.38,446.11c-2.1.52-3.91.94-4,.94a66.84,66.84,0,0,1-.24-7l-.07-7.09c0-3.85-.09-10.15-.13-14l-.09-10.69c0-3.85-.1-10.15-.13-14l-.38-40.7c0-3.85-.08-9.14-.1-11.77s-.08-7.91-.11-11.76l-.35-37.27c0-3.85-.08-9.15-.1-11.77s-.06-6.14-.08-7.8,0-4.74-.06-6.82,3.12-3.8,7-3.82h1.39c3.85,0,7,1.82,7.05,4.08s0,4.11,0,4.12,0,1.29,0,2.86.06,5,.09,7.59.1,7.89.14,11.74l.42,37.25c0,3.85.1,9.15.14,11.78s.09,7.92.13,11.77l.46,40.52c0,3.85.12,10.15.16,14l.12,10.34c0,3.85.12,10.15.16,14l.07,5.62C504.94,442.09,495.49,445.6,493.38,446.11Z"/><path class="cls-3" d="M239.93,658.26c.15.24-2.43.36-5.73.28l-7.73-.2a5.09,5.09,0,0,1-1.85-.24L220.78,652l-59.06-94c-2-3.26-1.69-7.86.8-10.23s6.2-1.65,8.26,1.6L231.54,645c2.07,3.25,4.74,7.46,5.93,9.35S239.77,658,239.93,658.26Z"/><path class="cls-3" d="M253.55,652.1c-2.69,2.76-6.89,5-9.33,5.07s-4.32.24-4.17.45-2.27.35-5.35.29a30.23,30.23,0,0,1-5.4-.32l3.29-3.4c1.7-1.74,5.27-5.42,7.95-8.19l96.78-99.64a7.08,7.08,0,0,1,9.94-.19l.05.05a6.93,6.93,0,0,1,.17,9.84Z"/><path class="cls-5" d="M262.37,656.49l-6.79,0-11.35.07-9.83,0-7.28,0-7.58,0-5.57,0"/><path class="cls-3" d="M238.89,410.43c.14,3.84-2.15,4.94-5.07,2.44l-72.95-62.5L154.64,345a2.13,2.13,0,0,1,0-2.43c.49-.91,1-1.91,1.21-2.23l2.13-3.93c1-1.85,3.56-1.89,5.68-.09s6.26,5.32,9.2,7.81l60.34,51.21a18.17,18.17,0,0,1,5.59,11.53Z"/><path class="cls-3" d="M70.16,339.12c.76,2.8.55,6-.48,7.12s-2.74,3-3.79,4.12-4,4.41-6.65,7.24L22.73,397.3c-2.61,2.84-4.74,2.09-4.74-1.65a20.37,20.37,0,0,1,4.76-11.94l27.89-30.1,9-9.74,6.69-7.23C67.69,335.21,69.4,336.32,70.16,339.12Z"/><path class="cls-3" d="M18.08,642.76c-.11.21,1.56.36,3.7.34l5-.05a2.57,2.57,0,0,0,1.2-.18l3.15-6.46,39.33-80.59c1.69-3.46,1.8-8.05.25-10.2S66.5,544.54,64.8,548L24.34,630.05l-4.59,9.3Z"/><path class="cls-4" d="M703.24,634.85c.16.2-2.52.3-6,.23l-8-.17a6.42,6.42,0,0,1-1.92-.19l-4.47-5.65-60.42-76.29c-2.39-3-2.23-7.08.35-9s6.66-1.09,9.06,1.92l62.2,77.7,6.63,8.3Z"/><path class="cls-3" d="M703.49,346.34c.61.3,1.11,2,1.11,3.73s-2.43,5.19-5.41,7.64l-65.69,54-5.92,4.87-.66.55a13.1,13.1,0,0,1-2.29.14l-5.75.07-3.78.06a12,12,0,0,1-.18-2.92,14.2,14.2,0,0,1,.18-3.06l5.6-4.56,1.95-1.59,10.86-8.84,54.37-44.24,7.9-6.43c1.37-1.11,3.41-1.56,4.54-1Z"/><path class="cls-3" d="M239.45,410.43c-.17,3.84,2.29,5.21,5.46,3l92.94-63.69,6.91-4.73a1.8,1.8,0,0,0,0-2.43l-1.51-2.23-2.66-3.93c-1.25-1.85-4.45-1.89-7.1-.09l-10.62,7.22L245.7,396a15.78,15.78,0,0,0-6.1,10.92Z"/><path class="cls-1" d="M612.09,630.31c0,4.12,0,7.17.09,8.83l0,.75c0,.34.09.62.09.63a1.67,1.67,0,0,0,.45,0l.63,0,6.21-.46,13-.93,50.65-3.65,13.18-.95,10-.71,9.81-.71c3.3-.23,6-1.24,6-2.23s0-1.8,0-1.81,0-3.17.08-7l1.27-112.48c0-3.85.09-7.85.1-8.9s0-3.94.07-6.43,0-4.53,0-4.52l-6,.26-12.92.57-72.25,3.15-7.1.31h-.15l-3.36.15-5.65.24c-1.28.06-2.32.13-2.32.16v.12c0,.76,0,1.74,0,1.74-.06,3.85-.12,7-.12,7s0,3.19-.12,7c0,0-.18,10.49-.39,22.64,0,3.17-.1,6.45-.15,9.81,0,1.78-.06,3.59-.09,5.41-.21,13.66-.51,34.77-.51,34.77,0,3.85-.11,7.92-.12,9s0,2.65,0,3.39,0,1.93,0,2.66,0,1.9,0,2.61,0,1.87,0,2.58,0,2.11,0,3.13,0,3.19,0,4.8-.06,6.1-.09,10c0,0,0,2.84,0,6.73C612.09,628.8,612.09,629.57,612.09,630.31Z"/><path class="cls-3" d="M613.59,495.85c0-.82,3.11-1.63,7-1.8l96.09-4.26a6.51,6.51,0,0,1,7.05,6.21,7.11,7.11,0,0,1-6.94,6.85L621,507.39c-3.85.18-7.08-1.67-7.18-4.12S613.61,496.67,613.59,495.85Z"/><path class="cls-3" d="M612,628a1.58,1.58,0,0,0,0,.45c0,.25,0,.77.07,1.15s.15,2.7.29,5.13.27,4.72.29,5.08,0,.67,0,.68h.25l.46,0,6.21-.39,13-.79,61-3.71,8.38-.51,8.37-.52,5-.3c3.85-.24,7-1.51,6.93-2.82s0-2.4,0-2.41,0-1.68-.08-3.72-2.09-3.57-4.53-3.43l-5.88.34-5.32.3-8.18.48-11.29.65-1,.07-14,.81-34.24,2-9.56.56-2.66.16-.52,0-.67,0-5.51.31-6,.35-.75,0Z"/><path class="cls-4" d="M611.91,637.76c0-.76,0-1.38,0-1.38h0V636c0-.45,0-2.23,0-4s0-3.32,0-3.57,0-3.54.09-7.32.09-8.2.11-9.82,0-3.78,0-4.8,0-2.43,0-3.13,0-1.86,0-2.58,0-1.88,0-2.61,0-1.92,0-2.66,0-2.26,0-3.39.06-5.2.1-9l.37-33.17c0-3.85.09-7.65.09-8.43s0-3,.06-4.91.08-6.62.12-10.47l.14-12.83c.05-3.85.15-8.74.22-10.87s.13-7.74.24-7.75l2.52-.21,3.94-.32,3.33-.29,1.74-.14h.15c.06,0,.11.05.11.12s0,2.22,0,4.76-.07,5.53-.08,6.62,0,2.91,0,4,0,2.2,0,2.39,0,1.68,0,3.3-.07,6.09-.11,9.94v.76c0,3.85-.1,9.13-.13,11.73s-.05,4.81-.06,4.91,0,3.21-.08,6.9-.11,9.85-.15,13.7l-.64,57.46c0,3.85-.11,9.73-.15,13.06s-.07,6.08-.07,6.1-2.32.23-5.17.48l-5.62.49-.65.05-.4,0c-.11,0-.2-.3-.19-.69S611.91,638.51,611.91,637.76Z"/><path class="cls-3" d="M711.72,497c0-3.85,2.78-7.08,6.09-7.18s6,3,5.93,6.83l-1.46,129.72c0,3.85-2.78,7-6.09,7.06s-6-3.09-5.93-6.94Z"/><path class="cls-3" d="M628.55,614.72c-2.16,3.18-3.95,7.41-4,9.4s1.28,3.54,2.89,3.44,4.69-2.79,6.84-6l74.85-111.1c2.15-3.19,3.92-7.18,3.94-8.86a2.78,2.78,0,0,0-2.86-2.92c-1.6.08-4.67,2.75-6.84,5.93Z"/><path class="cls-3" d="M628.45,516.39c-2.21-3.15-4-7.4-4-9.44a3.89,3.89,0,0,1,3.51-3.87c1.91-.09,5.27,2.42,7.46,5.58l73.78,106.11c2.19,3.16,4,7.26,3.95,9.1a3.79,3.79,0,0,1-3.61,3.56c-2,.12-5.39-2.37-7.59-5.52Z"/><path class="cls-1" d="M245.43,658.27c-1,1-.05-135.95-.05-135.95a7.6,7.6,0,0,1,7-7.41l90.77-5.27a6.54,6.54,0,0,1,7,6.59V642.15a7.8,7.8,0,0,1-7,7.61Z"/><path class="cls-3" d="M239.49,522a6.88,6.88,0,0,1,6.64-7L343,509.45a6.49,6.49,0,0,1,7.12,6.1,7.11,7.11,0,0,1-6.86,6.9l-96.44,5.75A6.79,6.79,0,0,1,239.49,522Z"/><path class="cls-3" d="M239.59,654.57c-.24-3.43,2.71-6.45,6.55-6.72l96.8-6.79c3.84-.27,7.07,2.25,7.19,5.59s-2.94,6.31-6.78,6.59l-96.35,7C243.16,660.56,239.82,658,239.59,654.57Z"/><path class="cls-3" d="M245.27,660.23c-3.33.33-6.05-2.55-6.05-6.4V522.64c0-3.85,2.72-7.26,6.05-7.57s6,2.57,6,6.42V652.63C251.32,656.48,248.6,659.9,245.27,660.23Z"/><path class="cls-3" d="M338.08,516.73c0-3.85,2.72-7.11,6.05-7.25s6,2.9,6,6.75V645.29c0,3.85-2.72,7.06-6,7.13s-6.05-3-6.05-6.86Z"/><path class="cls-3" d="M254.86,639.13c-2.19,3.16-4,7.42-4,9.46s1.4,3.6,3.12,3.48,4.9-2.82,7.07-6l78.74-115.18c2.17-3.18,3.95-7.19,3.95-8.92a2.9,2.9,0,0,0-3.09-2.94c-1.7.1-4.88,2.77-7.06,5.94Z"/><path class="cls-3" d="M249.82,536.55c-2.35-3-4.28-7.22-4.28-9.27a4,4,0,0,1,3.78-3.95c2.08-.12,5.7,2.28,8.05,5.33l82.12,106.53c2.35,3,4.27,7.06,4.27,8.92a4,4,0,0,1-3.91,3.64c-2.14.15-5.83-2.22-8.18-5.27Z"/><path class="cls-6" d="M218.48,252.36c-7.68.58-13.22,3.89-12.32,7.36s6.6,5.92,12.66,5.46L235.05,264c2.87-.21,6-3.34,7-6.95s-4.45-6.09-12.13-5.51Z"/><g class="cls-7"><path class="cls-8" d="M244,260.92a128.75,128.75,0,0,0-13.84.08c-2.12.25-3.85,1.12-3.85,1.92a16.74,16.74,0,0,0,.36,3.06,8.83,8.83,0,0,0,2.14,3.4,6,6,0,0,0,3.37,1.78,4.55,4.55,0,0,1,2.67,1c.58.53,1.54,1.48,2.13,2.1s1.07,2.83,1.07,4.91,4.5,3.83,10,3.9l445.16,5.09c5.5.06,10.31-2.09,10.69-4.79s-3.82-5.08-9.31-5.29Z"/></g><g class="cls-9"><path class="cls-8" d="M137.78,63.77c3.49-7.48,4.36-13.52,1.93-13.42a8.83,8.83,0,0,0-6.42,3.32c-1.11,1.73-3.81,5.83-6,9.12a212.45,212.45,0,0,0-10.44,19.5L41.7,239.48c-3.56,7.45-3.27,13.54.64,13.54s10-6.12,13.45-13.6Z"/></g><g class="cls-7"><path class="cls-8" d="M391.8,280.83c0-8.25,5.77-15,12.81-15s12.81,6.75,12.81,15v13c0,8.25-1.44,17.09-3.2,19.65a12.23,12.23,0,0,1-9,4.65,15.15,15.15,0,0,1-9.61-4.07c-2.11-2.24-3.84-10.82-3.84-19.07Z"/></g><g class="cls-7"><path class="cls-8" d="M373.65,275.49c0-8.25,4.81-15,10.68-15s10.67,6.75,10.67,15V285c0,8.25-1.2,16.92-2.67,19.27a9.89,9.89,0,0,1-7.47,4.27,12.08,12.08,0,0,1-8-3.74c-1.76-2.05-3.2-10.48-3.2-18.73Z"/></g><g class="cls-7"><path class="cls-8" d="M529.52,274.37c2.35,0,11,.08,19.27.18l44.31.53c8.25.1,13.9,5.5,12.54,12s-6.06,14.47-10.47,17.7-14.75,5.87-23,5.87h-8.44c-8.25,0-17.88-2.64-21.4-5.87a91.66,91.66,0,0,1-11.75-13.88c-2.93-4.4-5.33-9.92-5.33-12.27A4.28,4.28,0,0,1,529.52,274.37Z"/></g><path class="cls-10" d="M708.05,266.2c4.37,7.64.75,13.77-8,13.62l-43.1-.73-22.71-.38L621,278.48l-22.46-.38-77.71-1.32-23.75-.4L473.34,276l-104.87-1.78L346,273.83l-22.47-.38-69-1.17c-8.8-.15-16-3.06-16-6.48s-3.18-6.3-7.06-6.43-7.13-.39-7.2-.58l-.15-.39s-2.57-6.78-5.68-15L161.71,93.51c-3.11-8.23-8-21.19-10.89-28.8l-5.44-14.37c-.12-.3,1.32-.46,3.2-.36l12,.68,9,.51L186,52.1,582.84,74.54c8.79.5,18,4.47,20.5,8.82l12.48,21.79Z"/><path class="cls-6" d="M614.1,77.76c3.55,8.06,3.08,14.38-1,14l-23.44-1.87L188.29,57.82,172,56.51l-7.85-.63c-4.11-.33-7.7-.93-8-1.35s-1.25-1.89-2.17-3.29-1.75-2.65-1.84-2.78l-9-13.6L141,31.63c-4.85-7.34-3.1-12.91,3.89-12.37l13.41,1L175,21.58,588,53.48c8.77.68,18.85,7.82,22.39,15.88Z"/><path class="cls-11" d="M254.54,104c-4.15,6.7-.34,12.19,8.46,12.19h29.53c8.8,0,13.39-5.49,10.19-12.19s-13-12.2-21.8-12.2h-2.83C269.29,91.8,258.69,97.29,254.54,104Z"/><g class="cls-7"><path class="cls-8" d="M138.74,71.08c0-8.25-4.76-15-10.58-15s-10.59,6.75-10.59,15V97.67c0,8.25,1.19,17.75,2.65,21.12s4.79,6.12,7.41,6.12,6.19-2.41,7.93-5.36,3.18-12.1,3.18-20.35Z"/></g><g class="cls-7"><path class="cls-8" d="M153.73,64.05c0-8.25-4-15-8.82-15s-8.82,6.75-8.82,15V86c0,8.25,1,17.52,2.21,20.62s4,5.61,6.17,5.61,5.16-2.21,6.62-4.91,2.64-11.67,2.64-19.92Z"/></g><path class="cls-6" d="M243.55,259.09c-.14-.38-2.65-7.48-5.59-15.78l-32.34-91.24c-2.94-8.29-5.37-15.17-5.41-15.28s-2.48-7-5.42-15.27l-17.11-48.3c-2.94-8.29-5.89-16.64-6.57-18.55s-2.84-8-4.8-13.56a105.81,105.81,0,0,0-4.67-11.7l-2.56-3.78-6.34-9.36c-2.68-3.95-9.19-7.31-14.48-7.47s-11.4,3.32-13.59,7.72S117.47,31,113.54,38.84l-76,152.52-7.18,14.41s-3.26,6.53-7.18,14.41l-4.28,8.58c-3.92,7.87-7.08,14.31-7,14.3h0c-.17,1.5-1,2.84-1.28,4.36a25.94,25.94,0,0,0-.35,5.13l0,1.22a10.64,10.64,0,0,0,3.36,3.9l1.13.41,1,.37c1.41.56,5.76,1.11,9.68,1.23s7.24,0,7.38-.33l.36-.76c.06-.13,3.22-6.72,7-14.66l13.58-28.38c3.79-7.94,6.9-14.43,6.9-14.44L67,187.92l6.31-13.18s3.11-6.51,6.91-14.44l45.63-95.39c3.8-7.94,9.53-14.44,12.75-14.45a38,38,0,0,1,5.91.22c0,.14,2.14,7.14,4.66,15.57l2.4,8c2.52,8.43,4.58,15.33,4.58,15.34s2.07,6.9,4.59,15.33L202.06,243l4.61,15.39,0,.12s3.91.18,8.66.34l15.68.5,9.89.32C242.5,259.74,243.68,259.47,243.55,259.09Z"/><path class="cls-6" d="M134.33,59.84c0-8.25-4.76-15-10.58-15s-10.59,6.75-10.59,15V86.43c0,8.25,1.19,17.76,2.65,21.12s4.79,6.12,7.41,6.12,6.19-2.41,7.93-5.35,3.18-12.11,3.18-20.36Z"/><path class="cls-6" d="M149.32,59.84c0-8.25-4-15-8.82-15s-8.82,6.75-8.82,15v15c0,8.25,1,17.19,2.21,19.87s4,4.87,6.17,4.87,5.16-1.92,6.62-4.26,2.64-11,2.64-19.26Z"/><g class="cls-7"><path class="cls-12" d="M249,106.12c-4.24,6.3-.52,11.45,8.28,11.45h31c8.8,0,13.32-5.15,10.06-11.45s-13.14-11.44-21.94-11.44h-3.64C263.92,94.68,253.24,99.83,249,106.12Z"/></g><g class="cls-7"><path class="cls-12" d="M341.62,248.21c0,2.64,7.2,4.81,16,4.81h94c8.8,0,16-2.17,16-4.81s-7.2-4.8-16-4.8h-94C348.82,243.41,341.62,245.57,341.62,248.21Z"/></g><path class="cls-11" d="M350.16,245c0,2.64,7.2,4.8,16,4.8h90.78c8.8,0,16-2.16,16-4.8s-7.2-4.81-16-4.81H366.16C357.36,240.2,350.16,242.37,350.16,245Z"/><polyline class="cls-5" points="283.98 665.1 237.13 661.76 237.04 661.75 236.7 661.73 235.73 661.65 235.31 661.62 234.95 661.6 233.8 661.51 12.81 645.73 0 644.82"/><path class="cls-5" d="M7.19,242.86C48,162.27,87.54,81.14,128.11,0"/><path class="cls-5" d="M0,257.29l3.74-7.52"/><path class="cls-5" d="M9.3,260.86l4.58,1.76"/><path class="cls-3" d="M62,350.53a8,8,0,0,1,7.93-8.09l82.07-.92a8.06,8.06,0,0,1,8.12,7.91L161.8,455a7.66,7.66,0,0,1-7.87,7.82l-83-1.83a8.3,8.3,0,0,1-8.06-8.17Z"/><path class="cls-13" d="M70.54,361.31a8,8,0,0,1,7.93-8.09l64.61-.72a8.06,8.06,0,0,1,8.12,7.91l1.34,83.94a7.66,7.66,0,0,1-7.87,7.82L79.3,450.74a8.32,8.32,0,0,1-8.06-8.18Z"/><path class="cls-3" d="M110.14,346c-2.1.16-3.76,3.43-3.68,7.28l1.84,98.09c.07,3.85,2,6.86,4.16,6.7s4-3.44,3.88-7.29l-2.22-98.06C114,348.89,112.24,345.87,110.14,346Z"/><g class="cls-7"><path class="cls-8" d="M238.07,258.9c0-.34-3.15-.62-7-.62H25.3c-3.85,0-6.84.17-6.64.39l.09.25h0a2.37,2.37,0,0,0,.42.18l1.41.56c.5.19.91,3.5.91,7.35v61.17c0,3.85,0,7-.06,7s0,.17,0,.37.06,3.52.06,7.37v292c0,3.85.3,7,.67,7.05l5.38.39,11.69.85,22,1.6,13.63,1,13.63,1L146.13,651l13.64,1,13.63,1L217,656.09l7.64.56,3,.22,6.4.46c2.22.16,4-2.85,4-6.7V278.94c0-3.85-2-7-4.55-7.08s-5.6-2.94-6.89-6.44.76-6.25,4.55-6.12S238.07,259.25,238.07,258.9Z"/></g><g class="cls-7"><path class="cls-8" d="M206.09,153c-3.2-8.79-5.84-16.07-5.88-16.18s-2.69-7.38-5.88-16.17l-17-46.57c-3.19-8.78-6.38-17.53-7.07-19.44L164.8,39.47l-5-13.79c-.43-1.17-1.09-2.15-1.47-2.18s-2.89-3.28-5.57-7.23S143.55,9,138.26,8.8s-11.4,3.32-13.59,7.72-7.4,14.85-11.58,23.22L38,190.46l-7.63,15.31L23,221.24l-5.28,11.22c-4,8.45-7.4,16.8-7.59,18.55l.06,1.53,0,1.21a10.59,10.59,0,0,0,3.36,3.91l1.13.41.69.26a66.8,66.8,0,0,0,9.75.49l21.95-.05,20.56,0,23.49-.05,37.5-.07,23.55-.05,23.54,0,13.88,0,25.53-.05,18.31,0,10.36,0c.32,0-2-7.19-5.23-16Z"/></g><g class="cls-7"><path class="cls-12" d="M512.86,136.65c-3.17,4.7,1.44,8.54,10.24,8.54h15c8.8,0,14-3.84,11.57-8.54s-10.41-8.54-17.73-8.54S516,132,512.86,136.65Z"/></g><path class="cls-11" d="M517,135.06c-3.1,5,1.57,9.1,10.37,9.1h13.9c8.8,0,14.06-4.1,11.67-9.1S542.77,126,535.62,126,520.09,130.06,517,135.06Z"/><path class="cls-10" d="M379,272.29c0-8.25,4.8-15,10.67-15s10.68,6.75,10.68,15v4.23c0,8.25-1.2,16.66-2.67,18.7a10.31,10.31,0,0,1-7.47,3.7,12.94,12.94,0,0,1-8-3.24c-1.76-1.78-3.2-10-3.2-18.24Z"/><path class="cls-10" d="M397.14,272.29c0-8.25,5.76-15,12.81-15s12.81,6.75,12.81,15v13c0,8.25-1.44,17.09-3.2,19.65a12.23,12.23,0,0,1-9,4.65,15.15,15.15,0,0,1-9.61-4.07c-2.11-2.24-3.84-10.82-3.84-19.07Z"/><path class="cls-10" d="M534.86,265.83c2.34,0,11,.08,19.26.18l44.32.53c8.25.1,13.89,5.5,12.54,12s-6.07,14.47-10.47,17.7-14.76,5.87-23,5.87h-8.43c-8.25,0-17.88-2.64-21.4-5.87a91.09,91.09,0,0,1-11.75-13.88c-2.93-4.4-5.34-9.92-5.34-12.27A4.29,4.29,0,0,1,534.86,265.83Z"/><g class="cls-7"><path class="cls-12" d="M576.74,185.12c-4.25,6.3-.52,11.45,8.28,11.45h31c8.8,0,13.33-5.15,10.06-11.45s-13.14-11.44-21.94-11.44h-3.64C591.66,173.68,581,178.83,576.74,185.12Z"/></g><path class="cls-11" d="M582.29,183c-4.15,6.7-.35,12.19,8.45,12.19h29.53c8.8,0,13.39-5.49,10.2-12.19s-13-12.19-21.81-12.19h-2.83C597,170.81,586.44,176.29,582.29,183Z"/><circle class="cls-14" cx="111.56" cy="399.81" r="63.52"/><circle class="cls-15" cx="112.1" cy="399.27" r="80.07"/><circle class="cls-16" cx="111.03" cy="400.34" r="104.62"/><path class="cls-6" d="M241.6,262.85a9,9,0,0,1-8-.06c-2.25-1.27-1.75-3.55,1.11-5.08s6.45-1.5,8,.06S243.75,261.61,241.6,262.85Z"/><g class="cls-7"><path class="cls-8" d="M241.6,262.85a9,9,0,0,1-8-.06c-2.25-1.27-1.75-3.55,1.11-5.08s6.45-1.5,8,.06S243.75,261.61,241.6,262.85Z"/></g><g class="cls-7"><path class="cls-8" d="M227.39,261.2a1.11,1.11,0,0,1,.54-.71l1.06-.71a2.79,2.79,0,0,1,1.33-.36h2.13c.74,0,1.21.21,1.05.47a8.85,8.85,0,0,1-3.2,1.07C228.7,261.29,227.39,261.4,227.39,261.2Z"/></g><path class="cls-5" d="M602,401.28v41.58c-15-.08-44.51.68-44.52.43a12.23,12.23,0,0,0,.17,1.51l-36,1.19c-13.49-1-29.87-1.29-32.1,1.06h-.36l-6.5.21c-8.63-1-12.47-.87-11.55.39L365,451.16V401.28Z"/><path class="cls-3" d="M338.43,651.36V649c0-.64,0-2.62,0-4.4s0-4.93,0-7v-3.77s0-3.15,0-7l.11-54.73c0-3.85,0-9.48,0-12.5s0-7.55,0-10.07,0-4.64,0-4.74,0-2.9,0-6.23,0-8.25,0-11,0-5.72,0-6.7,0-3.87,0-6.41,0-4.66,0-4.72,0-3.25,0-7.1l.05-23.27c0-3.85,0-10.15,0-14V463c0-3.85,0-10.15,0-14l0-12.71a7,7,0,0,1,6.6-7.14l13-.29,13.47-.29,110-2.42,14-.31,1.75,0,14-.31L595,423.64l11.86-.25,5-.11,6.75-.15c3.61-.08,6.56.13,6.56.48s0,3.78,0,7.63l0,10.9c0,3.85,0,10.15,0,14v3c0,3.85,0,10.15,0,14l0,13.54c0,3.85,0,7.06,0,7.13s0,2.21,0,4.76,0,5.51,0,6.61v4c0,1.12,0,2.2,0,2.41s0,3.51,0,7.36l0,6.61c0,3.85,0,9.06,0,11.59s0,4.73,0,4.9,0,3.48,0,7.33v.16c0,3.85,0,7,0,7s0,3.16,0,7l.09,48.55c0,3.85,0,8.82,0,11s0,4.14,0,4.27,0,2.91,0,6.19,0,6.15,0,6.4-3.15.59-7,.76l-3.48.16-4.27.18a6.93,6.93,0,0,0,2.73-.41c0-.15-.09-.26-.21-.25l-.63,0-.44,0a.75.75,0,0,0-.23,0c-.11,0-.2-.3-.19-.69a5.37,5.37,0,0,0,0-.7s0-.61,0-1.37a5.22,5.22,0,0,1,.1-1.38h0v-1.21c-.05-1.31-.09-5.54-.09-9.39l.08-73.07c0-3.85,0-8.3.07-9.9s0-6.64,0-7.71v-2.82c0-.48.07-1.54.14-2.35l.06-.8.1-1.21c-.16-1.32-.29-3.51-.29-4.86a32,32,0,0,1,.27-4.13,31.39,31.39,0,0,0,0-3.42h0c2.25-12.58,1.15-24.37.47-37-.34-6.26.39-12.4.48-18.64a32.22,32.22,0,0,0-.84-8.76l-.11-.41a6.44,6.44,0,0,1-.24-1v-3.43c0-1.78-.51-3.21-1.15-3.19s-4.31.07-8.16.1c0,0-45.23.45-45.25.14l0,.52c.08.54-3,1.1-6.85,1.22l-22,.73c-3.85.13-10.15.09-14-.07l-18.15.58c-3.83.43-7,.78-7.14.78l-3.43.12c-1.79.06-6.06-.09-9.48-.33s-8.46.92-12.31,1.05l-92.15,3-12.21.4c-2.86.09-5.2,1.09-5.21,2.21s0,5.2,0,9v2.49c0,3.85,0,10.15,0,14l0,10.65c0,3.85-.11,10.15-.22,14,0,0-1.08,36.13-1.55,57.7-.39,17.44-.73,34.89-.08,52.32.47,12.94.09,31.91.09,31.91-.08,3.85-.23,7-.32,7h-.22l-1.41.06-1.41.06-5.5.24c-3,.14-5.47.08-5.47-.12S338.42,652,338.43,651.36Z"/><g class="cls-17"><path class="cls-18" d="M611.88,639.13a5.37,5.37,0,0,1,0,.7c0,.39.08.7.19.69h.22a1.67,1.67,0,0,0,.45,0l.63,0c.12,0,.21,0,.21-.05s0-.3,0-.64,0-3.14,0-6.24,0-8.78-.07-12.63l-.08-13.23c0-3.85-.06-10.15-.08-14l-.13-23.7c0-3.85-.06-10.15-.08-14v-.66c0-3.85,0-7.27-.05-7.59s0-1.55,0-2.7,0-2.76,0-3.54,0-3,0-4.91,0-6.62-.06-10.47l-.3-52.67c0-3.85-.06-10.15-.08-14v-3c0-3.85,0-8.45-.06-10.23a12.34,12.34,0,0,0-.23-3.22,13.75,13.75,0,0,0-.21,3.24c0,1.77,0,6.37,0,10.22v3c0,3.85,0,10.15,0,14l0,52.71c0,3.85,0,9.2,0,11.9s0,8.05,0,11.9l-.08,82.17C611.85,636,611.86,639.13,611.88,639.13Z"/></g><rect class="cls-3" x="349.93" y="432.06" width="264.17" height="17" transform="translate(972.8 871.33) rotate(178.85)"/><rect class="cls-3" x="241.92" y="539.25" width="217.03" height="9.03" transform="translate(-193.34 894.2) rotate(-90)"/><rect class="cls-3" x="506.42" y="527.75" width="216.03" height="9.03" transform="translate(82.16 1146.7) rotate(-90)"/></g></svg>
