<svg xmlns="http://www.w3.org/2000/svg" width="716" height="659.97" viewBox="0 0 716 659.97"><defs><style>.cls-1{fill:#694b4b;}.cls-2{fill:#634444;}.cls-3{fill:#49241a;}.cls-4{fill:#47271e;}.cls-5{fill:none;}.cls-6{fill:#7585ba;}.cls-7{opacity:0.25;}.cls-8{fill:#191919;}.cls-9{opacity:0.35;}.cls-10{fill:#e1e5ef;}.cls-11{fill:#8797c6;}.cls-12{fill:#5970aa;}.cls-13,.cls-14,.cls-15,.cls-16{fill:#ffa700;}.cls-14,.cls-17{opacity:0.1;}.cls-15{opacity:0.06;}.cls-16{opacity:0.04;}.cls-18{fill:#f5a631;}</style></defs><title>hus_right</title><g id="Layer_4" data-name="Layer 4"><rect class="cls-1" x="82" y="377.97" width="310" height="58"/><rect class="cls-2" x="380" y="211.97" width="310" height="419"/><g id="_Group_" data-name="&lt;Group&gt;"><path class="cls-1" d="M21.49,269.84a7.47,7.47,0,0,0-7,7.36V625a7.43,7.43,0,0,0,7,7.33l81.68,3.9c3.85.19,7,.12,7-.15a3.9,3.9,0,0,0,0-1,22.06,22.06,0,0,1,0-2.78c0-1.52.67-5.46.67-5.46s-.11-3.17-.25-7c0,0,0-.61.19-4.93a69.24,69.24,0,0,0,.08-7c-.23-3.85-.42-7-.41-7s.07-2,.09-4.34l0-2.17c0-1,0-2.07,0-3.11l-.06-1c-.16-1.13-.27-2-.24-2a22.31,22.31,0,0,0,.23-3.81l-.08-1.93c-.25-6.68,0-13,0-13,.15-3.84.27-8.52.27-10.4s-.19-6.86-.25-6.87-.24-3.17-.4-7c0,0-.21-5.22.21-11.21a36.35,36.35,0,0,0-.3-6.13l-.16-2.22c.25-2.42.49-4.39.51-4.38s.23-.07.22-.17-.23-1.3-.5-2.47a29.84,29.84,0,0,1-.17-4.36s-.17-3.19-.35-7c0,0-.81-17.37-.14-30,.35-6.26-.39-12.4-.48-18.64a32.55,32.55,0,0,1,.85-8.75l.72-2.68c.65-2.82,4.33-5.21,8.18-5.31l18.22-.12a6.91,6.91,0,0,0,7-6.91V421a7,7,0,0,1,7-7H338.1a7,7,0,0,1,7,7v22a7.06,7.06,0,0,0,7,7s6.79,0,9.6.11,5.2,3.29,5.28,7.14c0,0,1.47,66.21,2.28,102.8.39,17.45.72,34.91.08,52.35-.44,12.12-.23,29.47-.23,29.47a7.54,7.54,0,0,0,7.07,7.34l97.17,4.64a6.63,6.63,0,0,0,7-6.67V246.84c0-.2-3.14-.21-7,0Z"/><path class="cls-1" d="M130.13,75.5a15.69,15.69,0,0,0-10.36,7L17.92,264.09c-1.88,3.36-.28,6,3.57,5.75l451.86-23a13,13,0,0,0,10-6.67L587,23.69c1.66-3.47-.1-5.92-3.92-5.43Z"/><path class="cls-1" d="M150.73,414a7,7,0,0,0-7,7v13.74a7.17,7.17,0,0,0,7,7.12l8.94.07c2.66,0,4.83.25,4.8.54s.07,1,.29,1a8.44,8.44,0,0,1,.87.08s1.29.1,2.81.17,8.09.71,11.38.75,6,.39,6,.68,3.13.8,7,.46l32.94.38c3.84.25,7.34.45,7.77.45s4.71-.3,8.54-.65c0,0,6-.6,6.93-.13a14.87,14.87,0,0,0,5.14.89h1.72l1.57,0,3.1.22,2.73.36c1.49.19,8.47,1.14,12.32,1.17l11.23.06c5.56,0,10.45.1,10.45.1,3.85.08,7.08.16,7.18.19s2.33.13,4.75.15l2.19.09c4-.09,5,0,5,0l7.07.54s3.32.05,7.17.08c0,0,.9,0,4.84.11l1.4.05c1.5.14,3.58.26,4.6.26s3.71-3.13,3.71-7V421a7,7,0,0,0-7-7Z"/><path class="cls-1" d="M480.34,647.24v7.37c0,.2,3.15.15,7-.12l205.43-14.58a7.65,7.65,0,0,0,7-7.5V265.33c0-3.85,0-7-.07-7L692.6,258,487.34,247.57a6.6,6.6,0,0,0-7,6.64Z"/><path class="cls-1" d="M483.37,240.16c-1.67,3.47-3,6.48-3,6.68s3.15.53,7,.73L692.6,258c3.85.2,7-.29,7.07-1.08s-1.25-4.3-2.86-7.8L593,23.74c-1.61-3.5-4.29-3.52-6,0Z"/></g><path class="cls-3" d="M704.35,459.28a6.46,6.46,0,0,0-6.63-6.87l-206.43,3.66a7.64,7.64,0,0,0-7.36,7.11l-.17,3.17a6.43,6.43,0,0,0,6.64,6.84l206.47-4.5a7.67,7.67,0,0,0,7.36-7.14Z"/><path class="cls-3" d="M483.1,342.5s.18.08.41.09l7.42.06,50.88.46,13.52.12,9.51.08,6.59.06,10.61.09,57.84.52,9.33.08,6.56.06,6.15.06,8.93.09,25.72.22c3.85,0,7.31-1.84,7.68-4.18s.7-4.41.73-4.61,0-.37,0-.37l-7.06-.08-30.85-.35-9.48-.11-3.69,0-4.07-.05L640,334.6l-57.8-.65-13-.15-6.58-.08H561l-8-.09-61.34-.7c-3.85,0-7,0-7,.08s-.17,1.07-.35,2.2-.5,3.21-.73,4.63S483.1,342.46,483.1,342.5Z"/><path class="cls-3" d="M704.05,539.68c0-2.57-3.09-4.52-6.94-4.32L485.76,546.55c-3.85.2-7,2.59-7.05,5.32s3.08,4.77,6.92,4.56L697,544.76C700.84,544.55,704,542.26,704.05,539.68Z"/><path class="cls-3" d="M655.21,164a6.56,6.56,0,0,0-6.5,6.77l-5,468.26a7.13,7.13,0,0,0,6.71,7.24,6.69,6.69,0,0,0,6.83-6.76l4.27-468.28C661.6,167.33,658.74,164.08,655.21,164Z"/><path class="cls-3" d="M108.77,458.55a32.18,32.18,0,0,1,.84-8.76l.11-.41a6.71,6.71,0,0,0,.24-1,.22.22,0,0,0-.23-.22l-6.59-.16-6.38-.15-7-.17-64.28-1.53a7.31,7.31,0,0,0-7.4,6.82l-.17,3.17a6.73,6.73,0,0,0,6.6,7.15l65.22,1.42,7,.15,6.15.14c3.38.07,6-1.83,5.91-4.24Z"/><path class="cls-3" d="M484.54,457.08a41.68,41.68,0,0,1-.1,7l-.11,2.08c-.22,3.85-.4,7-.4,7.08s-.13.09-.27.09l-7.26-.16-86.22-1.88-7.09-.16-6.71-.15-7.78-.17c-.63,0-1.16-3.18-1.16-7v-2.49c0-3.85.53-7,1.19-7l7.81.19,6.66.16,7.06.17,86.78,2.07,7.16.17Z"/><path class="cls-4" d="M110,537.7c0-1.08,0-2.84,0-3.9s-.23-2-.5-2l-.57,0h-.16l-6-.26-6-.25h-.14l-7-.3-13-.54-13-.55L42.86,529l-12.06-.51-8.74-.36c-2-.09-4,2.06-4.34,4.77S20.2,538,24,538.14l1.56.06,12.09.49,12.09.5,7.24.3L70,540l13,.53,2.87.12,8.85.36,1.92.07h.2l.4,0,5.93.24,5.74.24H109l.51,0C109.77,541.64,110,538.79,110,537.7Z"/><path class="cls-4" d="M484.91,547.58l-1.55-.06-2.59-.11-3-.13-4-.17-6.7-.28-3.68-.16-6.6-.27-13.58-.57-33.66-1.41-12.33-.52-5.35-.23-3.95-.16-4.24-.18-.47,0h-.25l-3.17-.13-5.5-.23-3.59-.16-1.5-.06c-.18,0-.29,1.42-.24,3.17s.24,6.35.34,6.36l1.38,0,1.38.05,5.49.23,5.58.22.56,0,4.61.19,7.29.29,8.32.34,12.36.51,19.9.82,13.58.55,13.59.55.4,0,10.06.41,4,.16,1.45.06,2.07.09,2.11.08.91,0a.33.33,0,0,0,.36-.22c0-.13.3-2.23.64-4.67S485.44,547.61,484.91,547.58Z"/><path class="cls-3" d="M485.46,337.77c.06-2.54-3-4.59-6.88-4.55L24.51,337.9c-3.85,0-7,2.27-7.12,5s3,4.85,6.87,4.8l454.08-5.18C482.19,342.44,485.39,340.32,485.46,337.77Z"/><path class="cls-3" d="M572.87,49.45a6.59,6.59,0,0,0-6.53,6.77L557.14,645a7.08,7.08,0,0,0,6.66,7.24,6.74,6.74,0,0,0,6.88-6.76l8.51-588.83C579.24,52.83,576.4,49.58,572.87,49.45Z"/><path class="cls-3" d="M377.06,252.56c-3.53.1-6.43,3.33-6.45,7.18l-1.2,298.67c0,3.85,0,10.14.09,14,0,0,.42,24.37-.16,40.05l0,1.53c-.07,1.68-.13,6.21-.15,10.06L369.08,640c0,3.85,0,7.66.07,8.47s3.22,2.85,6.84,2.75A7.08,7.08,0,0,0,382.6,644l.87-384.63A6.51,6.51,0,0,0,377.06,252.56Z"/><path class="cls-3" d="M110.05,635.07v-1.21c0-1.31.09-5.54.09-9.39l-.08-73.06c0-3.85,0-8.31-.07-9.9s.05-6.65.05-7.71V531c0-.48-.07-1.54-.14-2.35l-.06-.79-.1-1.22c.16-1.32.29-3.51.29-4.86a32,32,0,0,0-.27-4.13,31.21,31.21,0,0,1,0-3.41v0c-2.25-12.58-1.15-24.37-.47-37,.34-6.26-.39-12.39-.48-18.63a32.18,32.18,0,0,1,.84-8.76l.11-.41a6.71,6.71,0,0,0,.24-1v-3.44c0-1.78,0-6.38,0-10.23V429c0-3.85,0-10.15,0-14l0-61.28c0-3.85,0-9.17,0-11.83s0-8,0-11.83l0-37.12c0-3.85,0-9,0-11.44v-9c0-.63,0-2,0-3s-.17-1.79-.37-1.79l-6.42.15c-3.33.08-6,1.52-6,3.2s0,3.76,0,4.62v6c0,2.42,0,7.55,0,11.4l0,37.11c0,3.85,0,9.18,0,11.84s0,8,0,11.84l0,41.09c0,3.85,0,10.15,0,14V409c0,3.85,0,8.57,0,10.48s0,6.63,0,10.48v10.91c0,3.85,0,10.15,0,14v3c0,3.85,0,10.15,0,14v13.54c0,3.85,0,9.14,0,11.76v6.74c0,1.1,0,3,0,4.33v5.32c0,1.65,0,6.14,0,10v12.38c0,2.54,0,4.75,0,4.91v7.28h0c0,3.85,0,10.15,0,14l0,49c0,3.85,0,8.76,0,10.92v4.14c0,.13,0,2.88,0,6.12s.33,5.88.74,5.87l5.91-.14,5.67-.14h1.2s0-.61,0-1.36a5.22,5.22,0,0,0-.1-1.38Z"/><path class="cls-3" d="M228.62,444.81c2.1.51,3.91.93,4,.94a67.32,67.32,0,0,0,.24-7l.07-7.09c0-3.85.09-10.15.13-14l.09-10.69c0-3.85.1-10.15.13-14l.38-40.7c0-3.85.08-9.14.1-11.76s.08-7.92.11-11.77l.35-37.27c0-3.85.08-9.15.1-11.77s.06-6.14.08-7.8,0-4.73.06-6.82-3.12-3.8-7-3.81h-1.39c-3.85,0-7,1.82-7.05,4.08s0,4.12,0,4.12,0,1.29,0,2.86-.06,5-.09,7.59-.1,7.89-.14,11.74l-.42,37.25c0,3.85-.1,9.15-.14,11.78s-.09,7.92-.13,11.77L217.61,393c0,3.85-.12,10.15-.16,14l-.12,10.34c0,3.85-.12,10.15-.16,14l-.07,5.63C217.06,440.79,226.51,444.29,228.62,444.81Z"/><path class="cls-3" d="M482.07,657c-.15.24,2.43.37,5.73.28l7.73-.2a5.46,5.46,0,0,0,1.85-.23c.06-.11,1.79-2.86,3.84-6.12l59.06-94c2-3.26,1.69-7.87-.8-10.24s-6.2-1.65-8.26,1.6l-60.76,95.74c-2.07,3.25-4.74,7.45-5.93,9.34S482.23,656.72,482.07,657Z"/><path class="cls-3" d="M468.45,650.8c2.69,2.75,6.89,5,9.33,5.06s4.32.24,4.17.45,2.27.35,5.35.29a30.23,30.23,0,0,0,5.4-.32l-3.29-3.39-8-8.19-96.78-99.65a7.09,7.09,0,0,0-9.94-.19l-.05,0a6.93,6.93,0,0,0-.17,9.84Z"/><path class="cls-5" d="M459.63,655.19l6.79,0,11.35.06,9.83.05,7.28,0,7.58,0,5.57,0"/><path class="cls-3" d="M483.11,409.12c-.14,3.85,2.15,4.95,5.07,2.44l72.95-62.5,6.23-5.33a2.13,2.13,0,0,0,0-2.43c-.49-.9-1-1.91-1.21-2.22L564,335.14c-1-1.85-3.56-1.89-5.68-.08l-9.2,7.81-60.34,51.2a18.19,18.19,0,0,0-5.59,11.53Z"/><path class="cls-3" d="M651.84,337.81c-.76,2.8-.55,6,.48,7.12s2.74,3,3.79,4.13l6.65,7.23L699.27,396c2.61,2.83,4.74,2.09,4.74-1.66a20.4,20.4,0,0,0-4.76-11.94l-27.89-30.09-9-9.75-6.69-7.22C654.31,333.9,652.6,335,651.84,337.81Z"/><path class="cls-3" d="M703.92,641.45c.11.21-1.56.36-3.7.34l-5,0a2.44,2.44,0,0,1-1.2-.18l-3.15-6.46-39.33-80.58c-1.69-3.46-1.8-8-.25-10.21s4.22-1.08,5.92,2.37l40.46,82.06c1.7,3.46,3.77,7.64,4.59,9.31S703.82,641.24,703.92,641.45Z"/><path class="cls-4" d="M18.76,633.54c-.16.2,2.52.3,5.95.23l8-.16a6.63,6.63,0,0,0,1.92-.2l4.47-5.64,60.42-76.29c2.39-3,2.23-7.09-.35-9s-6.66-1.09-9.06,1.91l-62.2,77.71-6.63,8.29C20.06,631.91,18.92,633.35,18.76,633.54Z"/><path class="cls-3" d="M18.51,345c-.61.3-1.11,2-1.11,3.74s2.43,5.19,5.41,7.63l65.69,54,5.92,4.87.66.55a12.08,12.08,0,0,0,2.29.14l5.75.08,3.78.05a12,12,0,0,0,.18-2.92,14.27,14.27,0,0,0-.18-3.06l-5.6-4.55-2-1.6-10.86-8.84L34.12,350.91l-7.9-6.44c-1.37-1.11-3.41-1.56-4.54-1Z"/><path class="cls-3" d="M482.55,409.12c.17,3.85-2.29,5.21-5.46,3l-92.94-63.7-6.91-4.73a1.8,1.8,0,0,1,0-2.43c.61-.9,1.29-1.91,1.51-2.22l2.66-3.94c1.25-1.85,4.45-1.89,7.1-.08l10.62,7.21,77.19,52.4a15.78,15.78,0,0,1,6.1,10.93Z"/><path class="cls-1" d="M109.91,629c0,4.12,0,7.17-.09,8.83l0,.75c0,.34-.09.62-.09.64a2.9,2.9,0,0,1-.45,0l-.63,0-6.21-.45-13-.94-50.65-3.64-13.18-1-10-.72-9.81-.7c-3.3-.24-6-1.24-6-2.23s0-1.81,0-1.82,0-3.17-.08-7L-1.6,508.21c0-3.85-.09-7.85-.1-8.9s0-3.94-.07-6.43,0-4.52,0-4.52l6,.26,12.92.57,72.25,3.15,7.1.31h.15l3.36.15,5.65.24c1.28.06,2.32.13,2.32.16v.12c0,.76,0,1.74,0,1.74.06,3.85.12,7,.12,7s0,3.19.12,7c0,0,.18,10.49.39,22.64,0,3.17.1,6.45.15,9.81,0,1.78.06,3.59.09,5.41.21,13.66.51,34.77.51,34.77,0,3.85.11,7.93.12,9.05s0,2.66,0,3.39,0,1.94,0,2.66,0,1.91,0,2.62,0,1.87,0,2.57,0,2.11,0,3.13,0,3.19.05,4.81.06,6.09.09,9.94c0,0,0,2.84,0,6.73C109.91,627.49,109.91,628.26,109.91,629Z"/><path class="cls-3" d="M108.41,494.54c0-.82-3.11-1.63-7-1.8L5.36,488.49a6.5,6.5,0,0,0-7,6.21,7.13,7.13,0,0,0,6.94,6.85L101,506.08c3.85.19,7.08-1.67,7.18-4.11S108.39,495.36,108.41,494.54Z"/><path class="cls-3" d="M110,626.69a1.62,1.62,0,0,1,0,.45c0,.25,0,.77-.07,1.16s-.15,2.69-.29,5.12-.27,4.72-.29,5.08,0,.67,0,.68a.68.68,0,0,1-.25,0l-.46,0-6.21-.38-13-.79-61-3.72L20,633.76l-8.37-.51-5-.31c-3.85-.23-7-1.5-6.93-2.82s0-2.4,0-2.41,0-1.68.08-3.71,2.09-3.58,4.53-3.44l5.88.34,5.32.31,8.18.47,11.29.66,1,.06,14,.81,34.24,2,9.56.55,2.66.16.52,0,.67,0,5.51.32,6,.34.75.05Z"/><path class="cls-4" d="M110.09,636.45c0-.75,0-1.37,0-1.38h0v-.41c0-.45,0-2.22,0-3.94s0-3.33,0-3.58,0-3.54-.09-7.32-.09-8.19-.11-9.81,0-3.78-.05-4.81,0-2.43,0-3.13,0-1.86,0-2.57,0-1.89,0-2.62,0-1.92,0-2.66,0-2.26,0-3.39-.06-5.2-.1-9.05l-.37-33.17c0-3.85-.09-7.64-.09-8.43s0-3-.06-4.91-.08-6.62-.12-10.47L108.69,512c0-3.85-.15-8.74-.22-10.87s-.13-7.74-.24-7.75l-2.52-.21-3.94-.32-3.33-.28-1.74-.15h-.15a.12.12,0,0,0-.11.13c0,.07,0,2.21,0,4.76s.07,5.52.08,6.61,0,2.91,0,4,0,2.19,0,2.39,0,1.68,0,3.29.07,6.09.11,9.94v.76c0,3.85.1,9.13.13,11.73s0,4.82.06,4.92,0,3.2.08,6.89.11,9.85.15,13.7L97.86,619c0,3.85.11,9.73.15,13.06s.07,6.08.07,6.1,2.32.24,5.17.48l5.62.49.65.06.4,0c.11,0,.2-.29.19-.68S110.09,637.21,110.09,636.45Z"/><path class="cls-3" d="M10.28,495.7c0-3.85-2.78-7.08-6.09-7.17s-6,3-5.93,6.82L-.28,625.07c0,3.85,2.78,7,6.09,7.06s6-3.09,5.93-6.94Z"/><path class="cls-3" d="M93.45,613.41c2.16,3.19,4,7.42,4,9.4s-1.28,3.54-2.89,3.44-4.69-2.79-6.84-6L12.84,509.17C10.69,506,8.92,502,8.9,500.31a2.78,2.78,0,0,1,2.86-2.92c1.6.08,4.67,2.75,6.84,5.93Z"/><path class="cls-3" d="M93.55,515.09c2.21-3.16,4-7.41,4-9.44A3.88,3.88,0,0,0,94,501.78c-1.91-.1-5.27,2.41-7.46,5.57L12.77,613.46c-2.19,3.17-4,7.26-3.95,9.1a3.8,3.8,0,0,0,3.61,3.57c2,.11,5.39-2.37,7.59-5.53Z"/><path class="cls-1" d="M476.57,657c1,1,.05-136,.05-136a7.61,7.61,0,0,0-7-7.41l-90.77-5.27a6.55,6.55,0,0,0-7,6.6V640.84a7.79,7.79,0,0,0,7,7.61Z"/><path class="cls-3" d="M482.51,520.66a6.87,6.87,0,0,0-6.64-7L379,508.15a6.48,6.48,0,0,0-7.12,6.09,7.1,7.1,0,0,0,6.86,6.9l96.44,5.75A6.79,6.79,0,0,0,482.51,520.66Z"/><path class="cls-3" d="M482.41,653.26c.24-3.42-2.71-6.44-6.55-6.71l-96.8-6.79c-3.84-.27-7.07,2.24-7.19,5.58s2.94,6.31,6.78,6.59L475,659C478.84,659.25,482.18,656.68,482.41,653.26Z"/><path class="cls-3" d="M476.73,658.92c3.33.33,6-2.55,6-6.4V521.33c0-3.85-2.72-7.26-6-7.57s-6.05,2.57-6.05,6.42V651.32C470.68,655.17,473.4,658.59,476.73,658.92Z"/><path class="cls-3" d="M383.92,515.42c0-3.85-2.72-7.11-6.05-7.24s-6,2.9-6,6.75V644c0,3.85,2.72,7.06,6,7.14s6.05-3,6.05-6.87Z"/><path class="cls-3" d="M467.14,637.82c2.19,3.17,4,7.43,4,9.46s-1.4,3.6-3.12,3.48-4.9-2.82-7.07-6L382.19,529.58c-2.17-3.18-3.95-7.19-3.95-8.91a2.9,2.9,0,0,1,3.09-2.95c1.7.1,4.88,2.78,7.06,5.94Z"/><path class="cls-3" d="M472.18,535.25c2.35-3,4.28-7.22,4.28-9.28a4,4,0,0,0-3.78-4c-2.08-.12-5.7,2.28-8.05,5.33L382.51,633.88c-2.35,3-4.27,7.06-4.27,8.92a4,4,0,0,0,3.91,3.65c2.14.14,5.83-2.23,8.18-5.28Z"/><path class="cls-6" d="M503.52,251.06c7.68.58,13.22,3.89,12.32,7.35s-6.6,5.93-12.66,5.47L487,262.65c-2.87-.22-6-3.35-7.05-7s4.45-6.09,12.13-5.51Z"/><g class="cls-7"><path class="cls-8" d="M478,259.61a128.75,128.75,0,0,1,13.84.08c2.12.26,3.85,1.12,3.85,1.92a17,17,0,0,1-.36,3.07,8.88,8.88,0,0,1-2.14,3.39,6,6,0,0,1-3.37,1.78,4.61,4.61,0,0,0-2.67,1c-.58.53-1.54,1.48-2.13,2.1s-1.07,2.84-1.07,4.92-4.5,3.83-10,3.89L28.77,286.82c-5.5.07-10.31-2.09-10.69-4.79s3.82-5.08,9.31-5.29Z"/></g><g class="cls-9"><path class="cls-8" d="M584.22,62.46C580.73,55,579.86,49,582.29,49a8.87,8.87,0,0,1,6.42,3.32c1.11,1.73,3.81,5.84,6,9.12A213.81,213.81,0,0,1,605.14,81l75.16,157.2c3.56,7.44,3.27,13.53-.64,13.53s-10-6.12-13.45-13.59Z"/></g><g class="cls-7"><path class="cls-8" d="M330.2,279.52c0-8.25-5.77-15-12.81-15s-12.81,6.75-12.81,15v13c0,8.25,1.44,17.09,3.2,19.65a12.19,12.19,0,0,0,9,4.65,15.15,15.15,0,0,0,9.61-4.07c2.11-2.24,3.84-10.82,3.84-19.07Z"/></g><g class="cls-7"><path class="cls-8" d="M348.35,274.18c0-8.25-4.81-15-10.68-15s-10.67,6.75-10.67,15v9.5c0,8.25,1.2,16.92,2.67,19.27a9.89,9.89,0,0,0,7.47,4.27,12.11,12.11,0,0,0,8-3.73c1.76-2.06,3.2-10.49,3.2-18.74Z"/></g><g class="cls-7"><path class="cls-8" d="M192.48,273.06c-2.35,0-11,.08-19.27.18l-44.31.53c-8.25.1-13.9,5.5-12.54,12s6.06,14.48,10.47,17.71,14.75,5.87,23,5.87h8.44c8.25,0,17.88-2.64,21.4-5.87a92.15,92.15,0,0,0,11.75-13.88c2.93-4.41,5.33-9.93,5.33-12.28A4.28,4.28,0,0,0,192.48,273.06Z"/></g><path class="cls-10" d="M14,264.9c-4.37,7.63-.75,13.76,8.05,13.61l43.1-.73,22.71-.38,13.18-.22,22.46-.39,77.71-1.31,23.75-.4,23.75-.4,104.87-1.78,22.47-.38,22.47-.38,69-1.17c8.8-.15,16-3.06,16-6.47s3.18-6.31,7.06-6.43,7.13-.39,7.2-.59l.15-.39s2.57-6.78,5.68-15L560.29,92.2c3.11-8.23,8-21.19,10.89-28.8L576.62,49c.12-.3-1.32-.46-3.2-.35l-12,.67-9,.52L536,50.8,139.16,73.24c-8.79.49-18,4.46-20.5,8.81l-12.48,21.79Z"/><path class="cls-6" d="M107.9,76.46c-3.55,8.05-3.08,14.37,1,14l23.44-1.87L533.71,56.52l16.34-1.31,7.85-.64c4.11-.32,7.7-.93,8-1.34s1.25-1.89,2.17-3.29,1.75-2.65,1.84-2.79l9-13.6L581,30.32c4.85-7.34,3.1-12.9-3.89-12.36l-13.41,1L547,20.27,134,52.17c-8.77.68-18.85,7.83-22.39,15.88Z"/><path class="cls-11" d="M467.46,102.69c4.15,6.7.34,12.19-8.46,12.19H429.47c-8.8,0-13.39-5.49-10.19-12.19s13-12.19,21.8-12.19h2.83C452.71,90.5,463.31,96,467.46,102.69Z"/><g class="cls-7"><path class="cls-8" d="M583.26,69.77c0-8.25,4.76-15,10.58-15s10.59,6.75,10.59,15V96.36c0,8.25-1.19,17.76-2.65,21.12s-4.79,6.12-7.41,6.12-6.19-2.41-7.93-5.35-3.18-12.11-3.18-20.36Z"/></g><g class="cls-7"><path class="cls-8" d="M568.27,62.75c0-8.25,4-15,8.82-15s8.82,6.75,8.82,15v22c0,8.25-1,17.53-2.21,20.62s-4,5.62-6.17,5.62-5.16-2.22-6.62-4.92-2.64-11.67-2.64-19.92Z"/></g><path class="cls-6" d="M478.45,257.78c.14-.38,2.65-7.48,5.59-15.77l32.34-91.24,5.41-15.28,5.42-15.28,17.11-48.3c2.94-8.29,5.89-16.64,6.57-18.55s2.84-8,4.8-13.56a105.81,105.81,0,0,1,4.67-11.7l2.56-3.78L569.26,15c2.68-4,9.19-7.31,14.48-7.46s11.4,3.31,13.59,7.71,7.2,14.45,11.13,22.32l76,152.52,7.18,14.41,7.18,14.41,4.28,8.58c3.92,7.88,7.08,14.31,7,14.3h0c.17,1.51,1,2.84,1.28,4.37a25.79,25.79,0,0,1,.35,5.12l0,1.22a10.56,10.56,0,0,1-3.36,3.9l-1.13.42-1,.37c-1.41.55-5.76,1.11-9.68,1.22s-7.24,0-7.38-.33l-.36-.76c-.06-.12-3.22-6.72-7-14.66l-13.58-28.37-6.9-14.44s-2.84-5.94-6.32-13.19l-6.31-13.18L641.77,159,596.14,63.6c-3.8-7.94-9.53-14.44-12.75-14.45a35.9,35.9,0,0,0-5.91.23c0,.13-2.14,7.13-4.66,15.57l-2.4,8L565.84,88.3s-2.07,6.9-4.59,15.33L519.94,241.72c-2.53,8.43-4.6,15.35-4.61,15.39l0,.11s-3.91.19-8.66.34l-15.68.51-9.89.32C479.5,258.44,478.32,258.16,478.45,257.78Z"/><path class="cls-6" d="M587.67,58.53c0-8.25,4.76-15,10.58-15s10.59,6.75,10.59,15v26.6c0,8.25-1.19,17.75-2.65,21.11s-4.79,6.12-7.41,6.12-6.19-2.41-7.93-5.35-3.18-12.11-3.18-20.36Z"/><path class="cls-6" d="M572.68,58.53c0-8.25,4-15,8.82-15s8.82,6.75,8.82,15v15c0,8.25-1,17.19-2.21,19.87s-4,4.86-6.17,4.86-5.16-1.91-6.62-4.26-2.64-11-2.64-19.26Z"/><g class="cls-7"><path class="cls-12" d="M473,104.82c4.24,6.29.52,11.44-8.28,11.44h-31c-8.8,0-13.32-5.15-10.06-11.44s13.14-11.45,21.94-11.45h3.64C458.08,93.37,468.76,98.52,473,104.82Z"/></g><g class="cls-7"><path class="cls-12" d="M380.38,246.9c0,2.65-7.2,4.81-16,4.81h-94c-8.8,0-16-2.16-16-4.81s7.2-4.8,16-4.8h94C373.18,242.1,380.38,244.26,380.38,246.9Z"/></g><path class="cls-11" d="M371.84,243.7c0,2.64-7.2,4.81-16,4.81H265.06c-8.8,0-16-2.17-16-4.81s7.2-4.8,16-4.8h90.78C364.64,238.9,371.84,241.06,371.84,243.7Z"/><polyline class="cls-5" points="438.02 663.79 484.87 660.45 484.96 660.44 485.3 660.42 486.27 660.34 486.69 660.31 487.05 660.29 488.2 660.21 709.19 644.43 722 643.51"/><path class="cls-5" d="M714.81,241.55C674,161,634.46,79.83,593.89-1.31"/><path class="cls-5" d="M712.7,259.56l-4.58,1.76"/><path class="cls-3" d="M660,349.22a8,8,0,0,0-7.93-8.09L570,340.21a8.07,8.07,0,0,0-8.12,7.91l-1.68,105.6a7.66,7.66,0,0,0,7.87,7.82l83-1.82a8.32,8.32,0,0,0,8.06-8.18Z"/><path class="cls-13" d="M651.46,360a8,8,0,0,0-7.93-8.09l-64.61-.72a8.06,8.06,0,0,0-8.12,7.91L569.46,443a7.68,7.68,0,0,0,7.87,7.83l65.37-1.44a8.32,8.32,0,0,0,8.06-8.18Z"/><path class="cls-3" d="M611.86,344.72c2.1.15,3.76,3.42,3.68,7.27l-1.84,98.09c-.07,3.85-2,6.87-4.16,6.71s-4-3.45-3.88-7.3l2.22-98.05C608,347.59,609.76,344.56,611.86,344.72Z"/><g class="cls-7"><path class="cls-8" d="M483.93,257.6c0-.35,3.15-.63,7-.63H696.7c3.85,0,6.84.18,6.64.39l-.09.26v0a2.37,2.37,0,0,1-.42.18l-1.41.56c-.5.19-.91,3.5-.91,7.35v61.17c0,3.85,0,7,.06,7s0,.17,0,.37-.06,3.52-.06,7.37v292c0,3.85-.3,7-.67,7l-5.38.39-11.69.85-22,1.6-13.63,1-13.63,1-57.66,4.18-13.64,1-13.63,1L505,654.79l-7.64.55-3,.22L488,656c-2.22.16-4-2.86-4-6.71V277.63c0-3.85,2.05-7,4.55-7.08s5.6-2.94,6.89-6.43-.76-6.25-4.55-6.13S483.93,257.94,483.93,257.6Z"/></g><g class="cls-7"><path class="cls-8" d="M515.91,151.66c3.2-8.79,5.84-16.06,5.88-16.17s2.69-7.39,5.88-16.18l17-46.57C547.81,64,551,55.21,551.69,53.3l5.51-15.13c2.34-6.42,4.6-12.63,5-13.8s1.09-2.15,1.47-2.17,2.89-3.29,5.57-7.24,9.19-7.31,14.48-7.46,11.4,3.31,13.59,7.71,7.4,14.85,11.58,23.22L684,189.16l7.63,15.3L699,219.93l5.28,11.22c4,8.46,7.4,16.81,7.59,18.55l-.06,1.53,0,1.22a10.55,10.55,0,0,1-3.36,3.9l-1.13.42-.69.25a65.34,65.34,0,0,1-9.75.49l-21.95,0-20.56,0-23.49,0-37.5-.08-23.55,0-23.54,0-13.88,0-25.53,0-18.31,0-10.36,0c-.32,0,2-7.19,5.23-16Z"/></g><g class="cls-7"><path class="cls-12" d="M209.14,135.34c3.17,4.7-1.44,8.54-10.24,8.54h-15c-8.8,0-14-3.84-11.57-8.54s10.41-8.54,17.73-8.54S206,130.65,209.14,135.34Z"/></g><path class="cls-11" d="M205,133.75c3.1,5-1.57,9.1-10.37,9.1h-13.9c-8.8,0-14.06-4.09-11.67-9.1s10.17-9.09,17.32-9.09S201.91,128.75,205,133.75Z"/><path class="cls-10" d="M343,271c0-8.25-4.8-15-10.67-15s-10.68,6.75-10.68,15v4.23c0,8.25,1.2,16.67,2.67,18.7a10.31,10.31,0,0,0,7.47,3.7,12.93,12.93,0,0,0,8-3.23c1.76-1.79,3.2-10,3.2-18.24Z"/><path class="cls-10" d="M324.86,271c0-8.25-5.76-15-12.81-15s-12.81,6.75-12.81,15v13c0,8.25,1.44,17.09,3.2,19.65a12.19,12.19,0,0,0,9,4.65,15.15,15.15,0,0,0,9.61-4.07c2.11-2.24,3.84-10.82,3.84-19.07Z"/><path class="cls-10" d="M187.14,264.52c-2.34,0-11,.08-19.26.18l-44.32.53c-8.25.1-13.89,5.5-12.54,12s6.07,14.48,10.47,17.71,14.76,5.87,23,5.87h8.43c8.25,0,17.88-2.65,21.4-5.87a91.57,91.57,0,0,0,11.75-13.88c2.93-4.41,5.34-9.93,5.34-12.28A4.29,4.29,0,0,0,187.14,264.52Z"/><g class="cls-7"><path class="cls-12" d="M145.26,183.82c4.25,6.29.52,11.45-8.28,11.45H106c-8.8,0-13.33-5.16-10.06-11.45s13.14-11.45,21.94-11.45h3.64C130.34,172.37,141,177.52,145.26,183.82Z"/></g><path class="cls-11" d="M139.71,181.69c4.15,6.7.35,12.19-8.45,12.19H101.73c-8.8,0-13.39-5.49-10.2-12.19s13-12.19,21.81-12.19h2.83C125,169.5,135.56,175,139.71,181.69Z"/><circle class="cls-14" cx="610.44" cy="398.5" r="63.52"/><circle class="cls-15" cx="609.9" cy="397.97" r="80.07"/><circle class="cls-16" cx="610.97" cy="399.03" r="104.62"/><path class="cls-6" d="M480.4,261.54a9,9,0,0,0,8-.06c2.25-1.26,1.75-3.55-1.11-5.07s-6.45-1.51-8,0S478.25,260.3,480.4,261.54Z"/><g class="cls-7"><path class="cls-8" d="M480.4,261.54a9,9,0,0,0,8-.06c2.25-1.26,1.75-3.55-1.11-5.07s-6.45-1.51-8,0S478.25,260.3,480.4,261.54Z"/></g><g class="cls-7"><path class="cls-8" d="M494.61,259.89a1.16,1.16,0,0,0-.54-.71l-1.06-.71a2.79,2.79,0,0,0-1.33-.36h-2.13c-.74,0-1.21.22-1.05.48a8.91,8.91,0,0,0,3.2,1.06C493.3,260,494.61,260.09,494.61,259.89Z"/></g><path class="cls-5" d="M120,400v41.58c15-.07,44.51.68,44.52.43a12.62,12.62,0,0,1-.17,1.52l36,1.18c13.49-1,29.87-1.29,32.1,1.06h.36l6.5.22c8.63-1,12.47-.88,11.55.38L357,449.85V400Z"/><path class="cls-3" d="M383.57,650.05V647.7c0-.63,0-2.62,0-4.4s0-4.93,0-7v-3.76s0-3.16,0-7l-.11-54.73c0-3.85,0-9.47,0-12.5s0-7.55,0-10.06,0-4.65,0-4.75,0-2.9,0-6.22,0-8.26,0-11,0-5.71,0-6.7,0-3.87,0-6.41,0-4.66,0-4.72,0-3.25,0-7.1l-.05-23.27c0-3.85,0-10.15,0-14v-2.46c0-3.85,0-10.15,0-14l0-12.71a7,7,0,0,0-6.6-7.14l-13-.29L350,427.23l-110-2.41-14-.31-1.75,0-14-.31L127,422.34l-11.86-.26-5-.11-6.75-.15c-3.61-.08-6.56.14-6.56.48s0,3.78,0,7.63l0,10.9c0,3.85,0,10.15,0,14v3c0,3.85,0,10.15,0,14l0,13.54c0,3.85,0,7.06,0,7.13s0,2.21,0,4.76,0,5.52,0,6.61v4c0,1.12,0,2.2,0,2.4s0,3.51,0,7.36l0,6.61c0,3.85,0,9.07,0,11.59s0,4.73,0,4.91,0,3.47,0,7.32v.16c0,3.85,0,7,0,7s0,3.15,0,7l-.09,48.55c0,3.85,0,8.82,0,11s0,4.15,0,4.27,0,2.91,0,6.19,0,6.16,0,6.4,3.15.59,7,.77l3.48.15,4.27.18a7.26,7.26,0,0,1-2.73-.4c0-.15.09-.27.21-.26l.63,0,.44,0a.75.75,0,0,1,.23,0c.11,0,.2-.29.19-.68a5.48,5.48,0,0,1,0-.71s0-.61,0-1.36a5.22,5.22,0,0,0-.1-1.38h0v-1.21c0-1.31.09-5.54.09-9.39l-.08-73.06c0-3.85,0-8.31-.07-9.9s.05-6.65.05-7.71V531c0-.48-.07-1.54-.14-2.35l-.06-.79-.1-1.22c.16-1.32.29-3.51.29-4.86a32,32,0,0,0-.27-4.13,31.21,31.21,0,0,1,0-3.41v0c-2.25-12.58-1.15-24.37-.47-37,.34-6.26-.39-12.39-.48-18.63a32.18,32.18,0,0,1,.84-8.76l.11-.41a6.71,6.71,0,0,0,.24-1v-3.44c0-1.78.51-3.21,1.15-3.19s4.31.07,8.16.11c0,0,45.23.44,45.25.13l0,.52c-.08.55,3,1.1,6.85,1.23l22,.72c3.85.13,10.15.1,14-.07l18.15.58,7.14.79,3.43.11c1.79.06,6.06-.09,9.48-.33s8.46.92,12.31,1.05l92.15,3,12.21.4c2.86.1,5.2,1.09,5.21,2.22s0,5.19,0,9v2.49c0,3.85,0,10.15,0,14l0,10.66c0,3.85.11,10.14.22,14,0,0,1.08,36.13,1.55,57.7.39,17.44.73,34.89.08,52.33-.47,12.94-.09,31.9-.09,31.9.08,3.85.23,7,.32,7h.22l1.41.06,1.41.06,5.5.25c3,.13,5.47.08,5.47-.13S383.58,650.71,383.57,650.05Z"/><g class="cls-17"><path class="cls-18" d="M110.12,637.82a5.48,5.48,0,0,0,0,.71c0,.39-.08.69-.19.68s-.22,0-.22,0a2.9,2.9,0,0,1-.45,0l-.63,0c-.12,0-.21,0-.21,0s0-.3,0-.64,0-3.14,0-6.24,0-8.78.07-12.63l.08-13.23c0-3.85.06-10.15.08-14l.13-23.7c0-3.85.06-10.15.08-14V554c0-3.85,0-7.26,0-7.59s0-1.54,0-2.7,0-2.75,0-3.54,0-3,0-4.91,0-6.62.06-10.47l.3-52.67c0-3.85.06-10.15.08-14v-3c0-3.85.05-8.45.06-10.22a12.27,12.27,0,0,1,.23-3.22,13.55,13.55,0,0,1,.21,3.23c0,1.77,0,6.37,0,10.22v3c0,3.85,0,10.15,0,14l0,52.71c0,3.85,0,9.21,0,11.9s0,8,0,11.9l.08,82.17C110.15,634.67,110.14,637.82,110.12,637.82Z"/></g><rect class="cls-3" x="107.9" y="430.75" width="264.17" height="17" transform="translate(8.89 -4.74) rotate(1.15)"/><rect class="cls-3" x="263.06" y="537.94" width="217.03" height="9.03" transform="translate(-170.89 914.03) rotate(-90)"/><rect class="cls-3" x="-0.44" y="526.44" width="216.03" height="9.03" transform="translate(-423.39 638.53) rotate(-90)"/></g></svg>
