<svg xmlns="http://www.w3.org/2000/svg" width="340.69" height="397.23" viewBox="0 0 340.69 397.23"><defs><style>.cls-1{fill:#49241a;}.cls-2{fill:#694b4b;}.cls-3{fill:#e6e7e8;}</style></defs><title>instructions_button</title><g id="Layer_4" data-name="Layer 4"><path class="cls-1" d="M151.18,289.22a1.24,1.24,0,0,0,.75,1.33l22,8a.8.8,0,0,0,1.1-.64L222.41,3.44a1,1,0,0,0-.83-1.15l-.33,0A1.21,1.21,0,0,0,220,3l-.9,2.7c-.17.52-.5,1.36-.73,1.86l-.4.89-.82,1.82-.4.88c-.23.51-.47.47-.54-.08L215,2.21a1.4,1.4,0,0,0-1.12-1.15l-6.48-1a1.06,1.06,0,0,0-1.18.83Z"/><path class="cls-2" d="M95.82,3.59a2,2,0,0,0-2.33,1.59L88.67,30.52A2.21,2.21,0,0,0,90.23,33l51.3,13.78c1.07.28,1,.4-.05.26L88.85,40.27A2.16,2.16,0,0,0,86.49,42L77.7,88.24a2.26,2.26,0,0,0,1.55,2.52L117.76,102c1,.31,1,.39-.05.19L78.5,94.76a2,2,0,0,0-2.34,1.59l-2.27,12a2.33,2.33,0,0,0,1.53,2.57L99,118.33c1,.34,1,.44-.06.23L74.85,114a2,2,0,0,0-2.34,1.6l-4.34,22.83a2,2,0,0,0,1.59,2.34L313,187a2,2,0,0,0,2.34-1.59l1.16-6.11a2.21,2.21,0,0,0-1.55-2.5l-36.32-10c-1.06-.3-1-.39.05-.2l37,6.25a2.05,2.05,0,0,0,2.34-1.63l1.48-7.78A2.11,2.11,0,0,0,318,161l-33.1-7.84c-1.07-.25-1.05-.35,0-.22L318.7,157a2.17,2.17,0,0,0,2.36-1.73l6.57-34.54a2,2,0,0,0-1.6-2.34l-13.56-2.57c-1.08-.21-1.06-.34,0-.29l14,.64a2.39,2.39,0,0,0,2.37-1.88l6.56-34.54a2.2,2.2,0,0,0-1.56-2.49l-29.47-7.89c-1.06-.29-1.05-.33,0-.1l29.74,6.42a2,2,0,0,0,2.33-1.55l4.18-22a2,2,0,0,0-1.59-2.33Z"/><path class="cls-3" d="M104.06,48.79a4.44,4.44,0,0,1,1.28.57,4.59,4.59,0,0,0,1.33.59,3.53,3.53,0,0,1,1.62.35l1.82.57,1.51.32a.79.79,0,0,1,.44.52,2.25,2.25,0,0,1-.22,1c-.15.33-.3.64-.44.93q-1.11,4.62-2.44,10.28-1.89,7.43-2.27,9.47a33.78,33.78,0,0,1-.66,3.38q-1.91,8-1.93,8.44a2.4,2.4,0,0,1-.37,1.2l-1.59,1.54A28.77,28.77,0,0,1,99,91.58l-.47.26a1,1,0,0,1-.45-.7,1.6,1.6,0,0,1,.22-1c.25-.55.38-.86.4-.94a16.89,16.89,0,0,0,.91-4.05c.18-.82.41-2.08.69-3.8a17.36,17.36,0,0,0,.27-1.82q.6-2.49,1.63-7.6a55.38,55.38,0,0,1,1.19-7.55c.66-3.11,1-4.58.88-4.39.12-.38.38-1.86.77-4.45l.32-1.51.41-1.91.2-.93,0-.12-1.65-.59c-.64,0-1.07.54-1.28,1.54-.12.55,0,.86.41.94a6.55,6.55,0,0,1,.4-.76l.12,0a6.06,6.06,0,0,1,.46.95c-.09.79-.59,1.09-1.52.89a1.4,1.4,0,0,1-1-.65,2,2,0,0,1-.22-1.52A4.13,4.13,0,0,1,104.06,48.79Z"/><path class="cls-3" d="M114.84,47.76l.84.36q.78.65,3.39,13.15.86,5.4,1.78,11.9a28.74,28.74,0,0,1,.76,4.41c.19.81.41,2.07.65,3.78l.92,3.55.15,0,0-.18q-.3-1.15,1.28-12.52,1.47-10.56,1.76-11.92c.2-.9.42-2.32.67-4.25-.06-.3-.13-.45-.2-.47a2.31,2.31,0,0,0,.25-.61c.13-.62-.19-1.19-1-1.7a7.16,7.16,0,0,1-1.16-.82l.17,0a1.33,1.33,0,0,1,.75-.08,2.88,2.88,0,0,1,1,.56,3,3,0,0,0,1,.54l.11,0a4.64,4.64,0,0,1,.38-1.2l.4-.3c.22-.17.34-.3.36-.38l.4.09c-.23,1.08-.15,1.66.23,1.75a4.71,4.71,0,0,0,.58,0,3.71,3.71,0,0,1,.92.08,3.15,3.15,0,0,1,.56.36,1.53,1.53,0,0,0,.58.3l0,.23c-1.59-.33-2.67-.12-3.24.65a4.12,4.12,0,0,0-.74,1.48,11.08,11.08,0,0,0-.33,1.56c-.09.79-.17,1.36-.25,1.71q-.25.91-1.18,7.52-1,6.94-1.18,9.21c-.35,1.79-.67,4-1,6.59L124.35,87a10.05,10.05,0,0,1-.66,2.22c-.42,1-.83,1.63-1.22,1.74a1,1,0,0,1-1.19-.37,14.57,14.57,0,0,1-1-2.69q0-.14-3.35-13-.87-4.12-2.08-10.4l-1.1-3.93a.72.72,0,0,0-.32-.49,8.77,8.77,0,0,1-.42,2.82l-.61,2.84c-.34,2.35-.91,5.84-1.69,10.44q-.57,2.67-1.24,8a3.43,3.43,0,0,0,.5,1.35c.33.58.64.9,1,1l0,.12-.18,0a2.82,2.82,0,0,1-1.37-.11c-.27-.06-.54.53-.8,1.77l-.12,0a1.47,1.47,0,0,1-.52-1,1.06,1.06,0,0,0-1.41-1.09c-.73,0-1.13,0-1.21,0l0-.18.17,0,0-.12a2.86,2.86,0,0,0,2.16-1.29,4.77,4.77,0,0,0,.61-2l.21-2.14c.19-.89.47-2.2.85-3.94.18-1.26.5-3.11.94-5.56q.77-3.3,1.94-9.91,1-7.43,1.83-10.83A9.55,9.55,0,0,1,114.84,47.76Z"/><path class="cls-3" d="M144.06,81.92a25.77,25.77,0,0,1-2.13,4.58c-.71,1.43-1.23,2.51-1.55,3.25A14.2,14.2,0,0,1,139,91.57c-1,1.25-1.54,2-1.76,2.29a6.22,6.22,0,0,1-6.08,1.74,6.67,6.67,0,0,1-1.85-.7,4.82,4.82,0,0,1-2-2.24,4.62,4.62,0,0,1-.34-2.93,3.88,3.88,0,0,1,.52-1.28,2.61,2.61,0,0,1,3.06-1.29,2.88,2.88,0,0,1,2,3.84,2,2,0,0,1-2.42,1.12,1.32,1.32,0,0,1-1-1,1,1,0,0,1,.43-1.18,1,1,0,0,1,.95-.16c.33.15.37.4.14.76s-.27.61-.2.62l0-.11a1.23,1.23,0,0,0,1-1.72c-.21-.7-.33-1-.34-.93q-2.77-.65-3.3,1.78a3.1,3.1,0,0,0,1.1,3.09,6.65,6.65,0,0,0,3.16,1.41,3,3,0,0,1,.72,0c1-.39,1.76-.7,2.23-.92a6.05,6.05,0,0,0,1.71-1.46,8.24,8.24,0,0,0,1.33-1.83,7.66,7.66,0,0,0,.24-2.56,14,14,0,0,0-.61-4.2,10.68,10.68,0,0,0-1.58-2.58c-.16-.2-.83-.95-2-2.25-1.34-1.5-2.13-2.36-2.37-2.57-.55-.44-1.1-.9-1.64-1.38a4.39,4.39,0,0,1-1.29-1.77,6.15,6.15,0,0,1,.13-3,16.77,16.77,0,0,1,1.73-4.67c1.59-2.16,2.85-3.76,3.75-4.78a13.45,13.45,0,0,0,.88-1.27,3,3,0,0,1,1-1.11,22.74,22.74,0,0,0,4.1,1.24c1.33.41,3.46.92,6.4,1.55a1.93,1.93,0,0,1,.49.26.33.33,0,0,1,.11.36c-.08.38-.73,1-2,1.92a9.4,9.4,0,0,0-2,1.71c-.14.26-.23.38-.26.37a5.34,5.34,0,0,1-2.31-.55,9.64,9.64,0,0,0-3.62-1c-.29,0-.44.07-.46.15-.82-.3-1.37-.35-1.64-.14a3.05,3.05,0,0,0-.68,1.64c-.06.27-.05.42,0,.43q.24,1.45,2.76,4.11l2.77,2.66Q145,77.69,144.06,81.92Zm-8.85-6.26-3.8-3.79-1.23-1.66-.27,1.28a2.49,2.49,0,0,0,0,1.24,3.19,3.19,0,0,0,.72,1.15,22.36,22.36,0,0,0,1.86,1.68A10.39,10.39,0,0,0,134.32,77Zm1.5,2.08c.09-.47-.16-.89-.77-1.26a5,5,0,0,0-.78,1.11,1,1,0,0,0,.27.87c.23.32.39.48.47.5l0-.12A2.4,2.4,0,0,0,136.71,77.74Zm3.59,9a12.52,12.52,0,0,0-.71-4.52,8.05,8.05,0,0,0-2.07-3.78c-.38.64-.65,1.13-.8,1.46A11.34,11.34,0,0,1,139.48,86a6.7,6.7,0,0,1,.11,2.33A3.86,3.86,0,0,0,140.3,86.76Z"/><path class="cls-3" d="M168.79,65.31c1.55.33,2.41.67,2.57,1s-.71,1.55-2.61,3.45c-2.18,2.24-3.34,3.47-3.46,3.69a1.55,1.55,0,0,0-.19,1.72l.26.48.29.06,0-.12c.35-.12.55-.3.6-.53l-.87-.19a3.48,3.48,0,0,1,0-.49s0-.11-.08-.2l.12,0a1.27,1.27,0,0,1,1.28-.34c.85.19,1.15.67.9,1.47-.33,1-1.1,1.34-2.29,1.09a1.63,1.63,0,0,1-1.08-.66,2.25,2.25,0,0,1-.46-1.8,4.85,4.85,0,0,1,1.36-2.13A22.06,22.06,0,0,0,166.81,70l-4.67-.88-.11,0c-.1.26-.24.74-.43,1.42a10.41,10.41,0,0,0-.4,1.31c-.08.55-.19,1.38-.35,2.48-.31,1.07-.68,2.7-1.11,4.92q-1.14,5.58-2.8,15.06c-.17,1.37-1.95,3.16-5.33,5.35l-.12,0a27.93,27.93,0,0,1,.9-6.73s.46-2.36,1.42-7.21c.24-1.13.47-2.41.7-3.86q.45-1.78,1.44-6.73,1.26-6.41.94-6.81a4.78,4.78,0,0,0-2.15-.85c-.85-.18-2-.42-3.55-.7l-2.62-.5c.05-.23.11-.34.19-.33,1.24-2,1.94-3,2.1-3a1.85,1.85,0,0,1,1.48-.11c2.64.48,5.67,1,9.06,1.57l2.43.28c1.46.19,2.34.32,2.65.38Z"/><path class="cls-3" d="M186.4,101l0,.12q-4.84,3.63-6.3,3.32a.9.9,0,0,1-.67-.56,10.08,10.08,0,0,1-.24-2.54c0-1.27-.08-2.49-.07-3.66.13-1.71.23-3.43.31-5.15,0-2.54-.43-3.9-1.37-4.06a1.68,1.68,0,0,0-1.8.47c-.27.3-.51,1.53-.72,3.67q-.61,4-1,6c0,.45,0,.89,0,1.34a2.48,2.48,0,0,1-.32,1.2,2.55,2.55,0,0,1-.83.19c-.45,0-.8,0-1,0l-2.29-.61c-1.29-.44-1.86-1-1.73-1.59a5.06,5.06,0,0,0,1.6-2.08q1.14-3.64,1.55-5.55.8-3.42,1.82-9.63c.41-2.1.74-3.66,1-4.7q.71-5,1.27-8.77.28-2.24.12-2.28a3,3,0,0,0-1.73-.43c-.76,0-1.25.16-1.46.6a1.72,1.72,0,0,0-.11.77,5.22,5.22,0,0,1,0,.77,1.43,1.43,0,0,0,.64.11l.54,0,.07-.29a1.26,1.26,0,0,1-.34-1l.12,0,0-.12c1,.37,1.39.91,1.24,1.6-.18.85-.9,1.15-2.13.88a1.83,1.83,0,0,1-.94-.44,2.51,2.51,0,0,1-.35-2.32q.48-2.26,3.27-1.67a11.6,11.6,0,0,1,2.43,0,21.9,21.9,0,0,1,3.51,1.17,19.12,19.12,0,0,0,3.95,1.09c2.47.2,3.62.29,3.47.26q1.6.46,1.68,3.75c-.06,1.25-.12,2.47-.17,3.67-.27,2.37-.41,3.59-.43,3.67a7.78,7.78,0,0,1-1.65,3.47,13.93,13.93,0,0,1-2.64,2.71c-.79.48-1.41.83-1.87,1.06a1.33,1.33,0,0,0,.08,1c.2.6.31.93.34,1,.07,1.92.13,3.34.17,4.28.27,1.8.49,3.14.66,4,.16,1.33.27,2.3.34,2.92a13.41,13.41,0,0,0,1.56,1.79C186.33,100.86,186.48,101,186.4,101Zm-1.56-25.88a8,8,0,0,0,.6-1.93,5.07,5.07,0,0,0-.06-2.29,3.66,3.66,0,0,0-1.7-1.85,23.12,23.12,0,0,0-2.39-1.18c-.36,1.3-.61,2.28-.75,2.93l-1,2.76c-.31,1.47-.48,2.25-.5,2.32-.46,1.4-.82,2.43-1.09,3.11-.1.46-.2,1.07-.32,1.81-.12.9-.2,1.47-.25,1.71l-1.28,5.12.35.08,0-.12a11.38,11.38,0,0,0,3.14-1.48,8.1,8.1,0,0,0,2.56-2.21,13,13,0,0,0,.69-2.1c.32-.91.55-1.58.68-2,.42-1.77.64-2.7.66-2.77A14.21,14.21,0,0,1,184.84,75.11Z"/><path class="cls-3" d="M207,70.51c.68.43,1,.92.91,1.47l.11,0,0-.11a3.06,3.06,0,0,1,1.3-.09c.38.08.54.3.46.65s-.28.44-.71.63a1.87,1.87,0,0,0-.83.61c-.5,2-1.21,4.27-2.15,7a37.19,37.19,0,0,1-1.17,4,46.14,46.14,0,0,0-1.4,7.65q-.06.9-.89,5.33a44.59,44.59,0,0,1-1.29,5.73c-.07.15-.29.49-.64,1a2.66,2.66,0,0,0-.43,1.12l-1.09.56a6.59,6.59,0,0,1-3.3.69,12.6,12.6,0,0,0-2.65-.78q-3.08-.81-3.72-2.34a9.14,9.14,0,0,1-.28-4.92c.36-1.7.73-3.4,1.09-5.11.35-2,.88-5,1.58-9.06q.35-1.38,1-6a42.28,42.28,0,0,0,.72-7.31,1.89,1.89,0,0,0-.42-1,1.5,1.5,0,0,1-.35-1.11l.12,0,0-.18c.89.19,2.27.47,4.13.83a4.65,4.65,0,0,1,1.71.24c.88.23,1.34.45,1.37.66a.71.71,0,0,1-.36.83l-1.23.65c-.49.42-.95,1.9-1.37,4.44s-1,6-1.69,10.14q-.49,2.92-1.1,5.46c-.09,1-.31,2.62-.68,5a10.42,10.42,0,0,0,.67,6.12c.59,1.21,1.14,1.9,1.68,2.06a3.15,3.15,0,0,0,3-.81,9.27,9.27,0,0,0,1.4-2.56c.18-.48.55-2.1,1.1-4.86s.84-4.37.86-4.85c.43-2.21.9-4.76,1.39-7.65.44-1.49,1-3.25,1.56-5.31A33,33,0,0,1,206.67,76a3.09,3.09,0,0,0-.89-2.19c-.69-.88-1-1.43-.95-1.66a.49.49,0,0,1,.24,0l0-.12c.88.4,1.37.56,1.47.5A16.71,16.71,0,0,1,207,70.51Z"/><path class="cls-3" d="M219.14,107.09a5,5,0,0,1-1,2q-.66.53-4.59.87c-2.62.22-4.2.22-4.76,0A7.12,7.12,0,0,1,206,107a7.45,7.45,0,0,1-.68-2.48,4.41,4.41,0,0,1-.05-2.34,22.05,22.05,0,0,1,.12-4.23c.06-.87.25-2.31.55-4.31.22-1.41.39-2.44.49-3.11a31.27,31.27,0,0,0,1-3.42q1.1-3.7,1.74-5.27c1.09-1.87,1.92-3.23,2.51-4.07a14,14,0,0,1,2.83-3.59,6.48,6.48,0,0,1,5.1-.3,32.64,32.64,0,0,1,6,1.64q.28.06.27.18a.17.17,0,0,1,0,.17s-.74.61-2.1,1.86q-1.66,1.53-1.89,1.47a19.18,19.18,0,0,1-1.86-.94,7.35,7.35,0,0,0-1.28-.27,20.16,20.16,0,0,0-.84,2.24,52.74,52.74,0,0,0-3.35,11.36c-.18,1.22-.31,2.14-.41,2.77l-.43,2c-.22,2.18-.5,4.2-.81,6.08l-.72,3.36q-.19,2.27,1.44,2.61a4.87,4.87,0,0,0,3.76-.59,2.43,2.43,0,0,0,.8-1.46,3.61,3.61,0,0,0,.18-1.24c0-.37-.27-.6-.73-.7a1.43,1.43,0,0,0-1.7.55,2.51,2.51,0,0,0-.15,1,1.69,1.69,0,0,1,.94.29c.11.12.1.41,0,.87a2.81,2.81,0,0,1-1.72-.43,1.55,1.55,0,0,1-.49-1.68c.34-1.59,1.45-2.18,3.35-1.77a2,2,0,0,1,1.78,1.59A5.47,5.47,0,0,1,219.14,107.09Zm-8-1.23c.08-1,.15-1.66.21-2.14s.28-1,.33-1.26c.43-2.58.73-4.52.88-5.82.21-1.13.36-2,.48-2.51a1.53,1.53,0,0,0-.77-.65l-1.34,0,0,.12a29.32,29.32,0,0,1-.23,3c-.08,1.12-.11,1.94-.1,2.47-.14,1.79-.25,3.12-.31,4l.11,1.18a4.88,4.88,0,0,0,.36.71,2.6,2.6,0,0,1,.33.71C211.09,105.81,211.11,105.86,211.15,105.86Zm.19-13.79c.07.14.47.3,1.2.5a4,4,0,0,0,.66,0l.32-1.51-2.2-.47A4.47,4.47,0,0,0,211.34,92.07Zm.2-2.51c.83.3,1.45.52,1.87.65l0-.12c.54-1.74,1.1-3.51,1.67-5.29s1-3.11,1.4-4a9.64,9.64,0,0,0,.79-2.2Q213.75,81.24,211.54,89.56Z"/><path class="cls-3" d="M245.5,81.72c1.55.33,2.4.68,2.57,1s-.72,1.54-2.62,3.44c-2.18,2.25-3.33,3.47-3.46,3.69a1.54,1.54,0,0,0-.18,1.72l.26.48.29.06,0-.11q.52-.2.6-.54l-.87-.19a3.6,3.6,0,0,1,0-.49.48.48,0,0,0-.08-.2l.11,0a1.27,1.27,0,0,1,1.29-.33c.85.18,1.15.67.9,1.46-.33,1-1.1,1.35-2.3,1.09a1.6,1.6,0,0,1-1.07-.65,2.26,2.26,0,0,1-.47-1.8,4.91,4.91,0,0,1,1.37-2.14,24.23,24.23,0,0,0,1.67-1.83l-4.67-.87-.12,0c-.09.27-.24.74-.42,1.43a8.29,8.29,0,0,0-.4,1.31c-.08.55-.2,1.37-.35,2.47q-.47,1.6-1.12,4.92-1.12,5.58-2.79,15.06c-.18,1.38-2,3.16-5.33,5.35l-.12,0a27.82,27.82,0,0,1,.89-6.73s.47-2.37,1.43-7.22c.24-1.12.47-2.41.7-3.85.29-1.19.77-3.44,1.44-6.73.83-4.28,1.15-6.55.94-6.81a4.8,4.8,0,0,0-2.15-.86c-.85-.18-2-.41-3.55-.7l-2.63-.5c0-.23.11-.34.19-.32,1.25-2,1.95-3,2.1-3a1.86,1.86,0,0,1,1.48-.11c2.65.49,5.67,1,9.07,1.58l2.43.28c1.45.18,2.34.31,2.65.38Z"/><path class="cls-3" d="M250.51,80.13a4.44,4.44,0,0,1,1.28.57,4.89,4.89,0,0,0,1.33.59,3.49,3.49,0,0,1,1.62.34l1.82.58,1.51.32a.74.74,0,0,1,.43.52,2,2,0,0,1-.21,1c-.15.34-.3.65-.44.94q-1.11,4.62-2.44,10.28c-1.26,5-2,8.1-2.27,9.47a33.09,33.09,0,0,1-.66,3.37c-1.27,5.36-1.91,8.17-1.93,8.45a2.29,2.29,0,0,1-.38,1.19l-1.58,1.55a30.4,30.4,0,0,1-3.12,3.64l-.48.26a1,1,0,0,1-.44-.7,1.6,1.6,0,0,1,.22-1c.25-.55.38-.87.4-.94a16.85,16.85,0,0,0,.91-4.06c.18-.81.4-2.07.69-3.79.09-.39.17-1,.27-1.83q.6-2.48,1.63-7.6a53.75,53.75,0,0,1,1.19-7.54c.66-3.11,1-4.58.88-4.39.12-.38.37-1.86.77-4.45l.32-1.51.41-1.91.2-.93,0-.12-1.65-.59c-.64,0-1.07.54-1.28,1.54-.12.54,0,.85.4.94a6.94,6.94,0,0,1,.41-.76l.12,0a6.06,6.06,0,0,1,.46.95c-.09.79-.6,1.09-1.52.89a1.43,1.43,0,0,1-1-.65,2,2,0,0,1-.22-1.52A4.09,4.09,0,0,1,250.51,80.13Z"/><path class="cls-3" d="M271,113.34a16.11,16.11,0,0,1-5.34,6.5,5.17,5.17,0,0,1-3.32,1,11.11,11.11,0,0,1-2.78-1.45,6.77,6.77,0,0,1-2.25-2,9.74,9.74,0,0,1-1-3.38,50,50,0,0,1-.51-7.57c.23-2.58.47-4.54.71-5.86.08-1.11.17-2.21.28-3.28a13.55,13.55,0,0,1,.63-3.26c.64-1.84,1.14-3.22,1.49-4.11.76-1.29,1.2-2,1.31-2.15a11.55,11.55,0,0,1,2.38-3.19,8.75,8.75,0,0,1,4.75-2.08l1.91.17a12.66,12.66,0,0,0,1.37.41,2.64,2.64,0,0,1,1.22.51,4.46,4.46,0,0,1,1.07,1.8,18.11,18.11,0,0,1,.58,1.86c.3,1.05.54,1.82.72,2.3q.93,5-.52,14c-.09,1-.18,1.82-.26,2.37A27.18,27.18,0,0,1,271,113.34Zm-8.57,5.14q1.21-9.93,1.22-10.24l.45-3.24a1,1,0,0,0-.2-.47,3,3,0,0,1-1,0c-.55,0-.82-.12-.8-.23a.3.3,0,0,1-.25.06,49,49,0,0,0-.31,5.7c0,1.1.08,3,.2,5.57l.2,1.62.35,1.22Zm2.19-14.76a6.35,6.35,0,0,1,.06-2l-.93-.2c-.59-.08-1-.14-1.3-.16a4,4,0,0,0-.11,1.8c.11.35.55.6,1.32.77l.82-.13C264.52,103.73,264.56,103.7,264.64,103.72Zm-2-3.28,2.2.48,0-.12c.38-1.78.68-3.11.91-4,.7-2.89,1.3-6.07,1.81-9.57l.27-1.27a2.24,2.24,0,0,0,0-1.21c-.5.46-.86.78-1.06,1a22.72,22.72,0,0,0-1.07,2.44A101.38,101.38,0,0,0,262.67,100.44Zm8.16-10.63c0-1.57,0-2.76,0-3.57l-.34-1.83-1.16-.25c-.26,1-.46,1.78-.6,2.24-.51,3.08-.9,5.39-1.17,6.91l-.7,3.25c-.42,2-.64,3-.66,3.07-.23,1.08-.4,1.9-.52,2.44l-.18,2-.73,2.27q-.35,3-.89,8.73c-.27,2.37-.42,3.82-.44,4.34l.11,0,0-.11a14.7,14.7,0,0,0,1.59-2.64,29.56,29.56,0,0,0,2.87-8.3A110.15,110.15,0,0,0,270.83,89.81Z"/><path class="cls-3" d="M279.8,83.05l.84.37q.76.64,3.39,13.15.86,5.4,1.78,11.9a28.74,28.74,0,0,1,.76,4.41c.19.81.41,2.07.65,3.78l.92,3.54.15,0,0-.18q-.3-1.16,1.29-12.53,1.47-10.55,1.76-11.91c.19-.9.42-2.32.67-4.25-.06-.3-.13-.46-.21-.47a2.07,2.07,0,0,0,.26-.61c.13-.62-.2-1.19-1-1.7a7.33,7.33,0,0,1-1.16-.82l.17,0a1.32,1.32,0,0,1,.75-.08,2.88,2.88,0,0,1,1,.56,2.88,2.88,0,0,0,1,.54l.11,0a4.15,4.15,0,0,1,.38-1.2l.4-.3c.22-.17.34-.3.35-.38l.41.09c-.23,1.08-.15,1.66.23,1.75h.58a4.36,4.36,0,0,1,.92.07,4.06,4.06,0,0,1,.56.37,1.57,1.57,0,0,0,.57.3l0,.23c-1.58-.34-2.66-.12-3.23.65a4,4,0,0,0-.74,1.48,12.37,12.37,0,0,0-.34,1.56,15.68,15.68,0,0,1-.24,1.71c-.17.61-.56,3.12-1.18,7.51q-1,7-1.18,9.22c-.35,1.79-.67,4-1,6.58l-.14,3.8a11,11,0,0,1-.66,2.22c-.43,1-.83,1.62-1.22,1.74a1.05,1.05,0,0,1-1.2-.37,16,16,0,0,1-.94-2.69q0-.14-3.35-13-.88-4.12-2.08-10.4l-1.1-3.93a.77.77,0,0,0-.32-.5,8.86,8.86,0,0,1-.42,2.83l-.61,2.84q-.53,3.53-1.69,10.44c-.38,1.78-.8,4.46-1.24,8.05a3.37,3.37,0,0,0,.5,1.35c.32.57.64.89.95,1l0,.12-.17,0a2.82,2.82,0,0,1-1.37-.11c-.27-.06-.54.53-.8,1.77l-.12,0a1.47,1.47,0,0,1-.52-1,1.71,1.71,0,0,0-.34-.86,1.62,1.62,0,0,0-1.07-.23c-.73,0-1.13,0-1.21,0l0-.18.17,0,0-.12a2.87,2.87,0,0,0,2.16-1.3,4.55,4.55,0,0,0,.6-2c.08-.71.15-1.43.22-2.14l.84-3.94c.19-1.26.51-3.11.95-5.57q.76-3.28,1.94-9.9a105.86,105.86,0,0,1,1.83-10.83A9.59,9.59,0,0,1,279.8,83.05Z"/><path class="cls-3" d="M309,117.22a25.77,25.77,0,0,1-2.13,4.58c-.71,1.43-1.23,2.51-1.55,3.25a15,15,0,0,1-1.42,1.82c-1,1.25-1.54,2-1.76,2.29a6.23,6.23,0,0,1-6.08,1.74,6.67,6.67,0,0,1-1.85-.7,4.82,4.82,0,0,1-2-2.24,4.62,4.62,0,0,1-.34-2.93,4.09,4.09,0,0,1,.51-1.28,2.63,2.63,0,0,1,3.07-1.29,2.58,2.58,0,0,1,2.15,2.16,2.63,2.63,0,0,1-.12,1.68,2,2,0,0,1-2.42,1.12,1.3,1.3,0,0,1-1-1,1,1,0,0,1,.43-1.18,1,1,0,0,1,.95-.16c.33.15.37.4.14.75s-.28.61-.2.63l0-.12a1.22,1.22,0,0,0,1-1.72c-.21-.69-.33-1-.35-.92q-2.76-.65-3.29,1.78a3.1,3.1,0,0,0,1.1,3.09,6.55,6.55,0,0,0,3.16,1.4,3.47,3.47,0,0,1,.72,0c1-.39,1.76-.7,2.23-.92a5.91,5.91,0,0,0,1.7-1.46,8.59,8.59,0,0,0,1.34-1.83,7.66,7.66,0,0,0,.24-2.56,14,14,0,0,0-.62-4.2,10.61,10.61,0,0,0-1.57-2.58c-.16-.2-.83-1-2-2.25-1.34-1.5-2.13-2.36-2.37-2.57-.55-.44-1.1-.9-1.64-1.38a4.46,4.46,0,0,1-1.29-1.77,6,6,0,0,1,.13-3,16.77,16.77,0,0,1,1.73-4.67q2.38-3.25,3.75-4.78a13.45,13.45,0,0,0,.88-1.27,2.8,2.8,0,0,1,1-1.11,22.47,22.47,0,0,0,4.1,1.24c1.33.41,3.46.92,6.4,1.55a1.93,1.93,0,0,1,.49.26.33.33,0,0,1,.11.36c-.08.38-.74,1-2,1.91a9.62,9.62,0,0,0-2,1.72c-.14.26-.23.38-.27.37a5.37,5.37,0,0,1-2.31-.55,9.56,9.56,0,0,0-3.61-1c-.29,0-.44.07-.46.14-.83-.29-1.37-.34-1.64-.13a3.05,3.05,0,0,0-.68,1.64c-.06.27,0,.41,0,.43q.22,1.45,2.76,4.11l2.77,2.66C308.31,111.46,309.62,114.4,309,117.22ZM300.17,111l-3.81-3.79c-.59-.82-1-1.37-1.22-1.66l-.27,1.28a2.49,2.49,0,0,0,0,1.24,3.19,3.19,0,0,0,.72,1.15,22.36,22.36,0,0,0,1.86,1.68,10.57,10.57,0,0,0,1.85,1.42Zm1.49,2.08c.1-.47-.15-.89-.76-1.26a5,5,0,0,0-.78,1.11,1.07,1.07,0,0,0,.26.87c.24.32.4.48.48.5l0-.12A2.41,2.41,0,0,0,301.66,113Zm3.59,9a12.45,12.45,0,0,0-.7-4.52,8.05,8.05,0,0,0-2.07-3.78c-.38.64-.65,1.13-.8,1.46a11.48,11.48,0,0,1,2.76,6.12,7,7,0,0,1,.11,2.33A3.82,3.82,0,0,0,305.25,122.06Z"/><path class="cls-3" d="M304.9,358.48c5.09,22.1-15.49,40.18-45.74,40.18h-221c-30.25,0-45.76-18.08-34.47-40.18s36.61-49.55,56.27-61,60.49-20.82,90.74-20.82H193c30.25,0,65.73,9.37,78.84,20.82S299.8,336.38,304.9,358.48Z"/></g></svg>