<svg xmlns="http://www.w3.org/2000/svg" width="540" height="580" viewBox="0 0 540 580"><defs><style>.cls-1{fill:#51271d;}.cls-2{fill:#252422;}.cls-3{fill:#403d39;}.cls-4{fill:#ccc5b9;}.cls-5{fill:#ea591f;}.cls-6{fill:#eb5e28;}.cls-7{fill:#ee7444;}.cls-8{fill:#ec6632;}.cls-9{fill:#ef8257;}.cls-10{opacity:0.85;}.cls-11{fill:#191919;}.cls-12{opacity:0.4;}.cls-13{fill:#fff;}.cls-14{fill:#eb5e2f;}.cls-15{fill:#442518;}.cls-16{fill:none;stroke:#442518;stroke-miterlimit:10;stroke-width:2px;}.cls-17{fill:#49241a;}.cls-18{fill:#513d38;}.cls-19{fill:#e6e7e8;}.cls-20{fill:#93a2cc;}</style></defs><title>jack_start_screen</title><g id="final"><path class="cls-1" d="M376.62,187.13a5,5,0,0,1,6.86-1.73l1.12.67a5,5,0,0,1,1.74,6.85l-9.81,16.47a5.73,5.73,0,0,1-7.11,2.22l-1.25-.57a4.39,4.39,0,0,1-2-6.37Z"/><path class="cls-2" d="M227.29,536.37l-4.87-1.85a28.88,28.88,0,0,1-3.59-1.73l-2.27-1.34a18,18,0,0,1-3.12-2.45l-1.28-1.3a14.58,14.58,0,0,1-2.2-3.09,3.08,3.08,0,0,1,.19-2.94,1.85,1.85,0,0,0-.59-2.51l-5.31-4.1a2.14,2.14,0,0,0-2.89.3l-8,9.38a1.88,1.88,0,0,0,.28,2.74l4.66,3.6,3.17,2.44,5.32,4.09,3.17,2.44,2.05,1.59c.87.67,2.34,1.71,3.26,2.31l6.87,4.47"/><path class="cls-2" d="M220.08,538.59a6.54,6.54,0,0,1,8.15-1.82,6.27,6.27,0,0,1,1,.64,6.52,6.52,0,1,1-9.15,1.18Z"/><path class="cls-2" d="M199.26,531.92c1.05-.33,1.18-1.12.29-1.76l-5.16-3.7c-.9-.64-1.61-.27-1.58.83l.1,4.6a1.44,1.44,0,0,0,2,1.41Z"/><path class="cls-2" d="M161.25,499.7l4.29,2.87A28.17,28.17,0,0,0,169,504.5l2.36,1.06a18.11,18.11,0,0,0,3.81,1.12L177,507a14.43,14.43,0,0,0,3.77,0,3.09,3.09,0,0,0,2.28-1.85,1.84,1.84,0,0,1,2.38-1l6.35,1.94a2.13,2.13,0,0,1,1.42,2.52l-3,11.85a1.89,1.89,0,0,1-2.4,1.36l-5.56-1.7L178.39,519,172.05,517l-3.82-1.17-2.43-.75c-1.06-.32-2.75-.91-3.78-1.32l-7.55-3"/><path class="cls-2" d="M163.6,506.82a6.49,6.49,0,0,0-3.21-7.65,5.78,5.78,0,0,0-1.09-.44,6.48,6.48,0,1,0,4.3,8.09Z"/><path class="cls-2" d="M181,519.85c-.34-1,.23-1.61,1.27-1.25l5.94,2c1,.35,1.14,1.15.23,1.77L184.65,525a1.43,1.43,0,0,1-2.28-.78Z"/><path class="cls-3" d="M332.42,312.61a2,2,0,0,1,.69,2.74L210.68,520.91a2,2,0,0,1-2.74.69l-8-4.75a2.09,2.09,0,0,1-.75-2.77L303.39,326c.54-1,.4-1-.29-.2l-52.9,64.88a19.11,19.11,0,0,0-2.1,3.36L194,511a1.75,1.75,0,0,1-2.55.79l-8-4.75a2.34,2.34,0,0,1-.92-2.86l51.09-118.79a19.61,19.61,0,0,1,2-3.44l65-86a2.3,2.3,0,0,1,2.93-.57Z"/><polygon class="cls-2" points="335.27 202.5 326.96 203.95 298.85 301.78 328.53 319.45 396.53 248.24 389.13 237.16 335.27 202.5"/><polygon class="cls-3" points="336.44 216.79 325.83 287.98 383.04 245.39 380.45 238.03 393.09 242.33 386.94 213.93 362.29 198.8 332.18 203.02 342.67 213.3 336.44 216.79"/><polygon class="cls-4" points="355.62 191.79 339.08 265.81 394.27 212.84 355.62 191.79"/><path class="cls-5" d="M463,188.25c-9.06,15.21-27.35,22.47-47.67,21a78.29,78.29,0,0,1-16.18-2.93A85.94,85.94,0,0,1,385.34,201c-1.58-.77-3.16-1.59-4.72-2.47-.65-.37-1.31-.75-2-1.14s-1.41-.85-2.11-1.29l-.11-.08-1-.65-.8-.53c-.34-.22-.68-.45-1-.69s-.92-.63-1.37-1-.9-.64-1.34-1-.89-.66-1.32-1c-1.75-1.35-3.41-2.74-5-4.19-.4-.36-.8-.72-1.19-1.09s-.77-.73-1.15-1.1-.76-.74-1.13-1.12-.74-.75-1.1-1.13l-1.07-1.14h0l-1-1.14-.42-.47c-.55-.63-1.08-1.27-1.6-1.91-.31-.37-.61-.76-.91-1.13l-.07-.09-.8-1a2.43,2.43,0,0,1-.14-.2c-.3-.38-.58-.78-.87-1.17l-.85-1.2q-.6-.87-1.17-1.74s0,0,0,0l-.11-.16c-.67-1-1.3-2.07-1.91-3.11-.24-.43-.48-.85-.71-1.28s-.58-1.07-.85-1.61c-.15-.27-.3-.55-.43-.84s-.41-.83-.61-1.24c-.27-.57-.52-1.13-.76-1.69-.38-.84-.72-1.69-1.05-2.54l-.42-1.13c-.16-.43-.31-.87-.46-1.31a1.35,1.35,0,0,1-.08-.24.76.76,0,0,1,0-.11l-.07-.22-.24-.74c-.08-.24-.15-.48-.22-.72-.13-.44-.25-.87-.37-1.31-.05-.2-.11-.39-.16-.59-.11-.42-.21-.86-.32-1.29v0c-.1-.44-.2-.87-.29-1.31s-.17-.82-.25-1.23-.16-.92-.23-1.39-.11-.77-.17-1.16c0-.05,0-.1,0-.14a48.29,48.29,0,0,1-.4-5.2c0-.43,0-.85,0-1.29s0-.63,0-1c0-.56,0-1.11.08-1.66a.34.34,0,0,1,0-.1v-.07l0-.29a5.67,5.67,0,0,1,.05-.58c0-.48.09-1,.15-1.44s.09-.77.16-1.15a.59.59,0,0,1,0-.14c0-.21.06-.41.1-.62.11-.61.22-1.22.36-1.82l.17-.77c0-.06,0-.11,0-.18s0-.19.08-.28.11-.44.17-.66c.27-1,.57-2,.92-3,.14-.39.29-.79.44-1.18s.31-.78.48-1.17.25-.58.39-.87c.42-.92.88-1.84,1.38-2.72.18-.33.36-.65.55-1s.31-.5.47-.76.41-.65.62-1c.09-.13.17-.27.26-.39l.48-.68.24-.33a.36.36,0,0,1,.07-.1l.14-.19.66-.86.66-.8c.25-.3.5-.59.76-.88.44-.5.89-1,1.36-1.46l.19-.19c.06-.07.13-.13.19-.19q.33-.33.66-.63l.59-.56.19-.16.36-.33.66-.56c.46-.39.94-.77,1.43-1.14l.36-.28c.45-.34.91-.66,1.38-1l.08,0,.12-.08.15-.11.76-.5,1.11-.69c.27-.17.56-.33.84-.49l.06,0c.34-.2.69-.39,1.05-.58l.38-.21.16-.08.11-.06.24-.12c.59-.3,1.18-.59,1.8-.86.32-.15.66-.31,1-.45l.89-.37.7-.28.53-.2.85-.31c1.24-.45,2.52-.85,3.82-1.2l.47-.13.35-.08q.66-.18,1.35-.33c.17,0,.35-.08.52-.12.48-.11,1-.21,1.46-.3l.54-.1.64-.12a63.1,63.1,0,0,1,8.36-.86l.64,0,1,0h.05c.77,0,1.53,0,2.3,0l1,0h.3l1,0c1.17.06,2.35.15,3.53.27l.83.09c.26,0,.51.06.77.09l.76.1,1.2.17c.79.12,1.59.25,2.38.4.38.06.75.14,1.12.21,1.85.37,3.71.8,5.57,1.31l.91.25.33.1c.43.12.87.25,1.3.39l.85.26,1.71.56.71.25,1.11.4,1,.38.88.33c1,.39,2,.8,2.93,1.23l1.18.52,1.28.59.38.18.82.4.73.37,1.19.6,1.36.73c1.05.57,2.1,1.16,3.15,1.78a91.35,91.35,0,0,1,8.4,5.67c.34.25.66.5,1,.76a85.7,85.7,0,0,1,9.4,8.53q2,2.15,3.86,4.38C468.84,147.78,473.37,170.84,463,188.25Z"/><path class="cls-6" d="M445.31,174.81a66,66,0,0,1-32.16,27.46,70,70,0,0,1-14,4A85.94,85.94,0,0,1,385.34,201c-1.58-.77-3.16-1.59-4.72-2.47-.65-.37-1.31-.75-2-1.14s-1.41-.85-2.11-1.29l-.11-.08-1-.65-.8-.53c-.34-.22-.68-.45-1-.69s-.92-.63-1.37-1-.9-.64-1.34-1-.89-.66-1.32-1c-1.75-1.35-3.41-2.74-5-4.19-.4-.36-.8-.72-1.19-1.09s-.77-.73-1.15-1.1-.76-.74-1.13-1.12-.74-.75-1.1-1.13l-1.07-1.14h0l-1-1.14-.42-.47c-.55-.63-1.08-1.27-1.6-1.91-.31-.37-.61-.76-.91-1.13l-.07-.09-.8-1a2.43,2.43,0,0,1-.14-.2c-.3-.38-.58-.78-.87-1.17l-.85-1.2q-.6-.87-1.17-1.74s0,0,0,0l-.11-.16c-.67-1-1.3-2.07-1.91-3.11-.24-.43-.48-.85-.71-1.28s-.58-1.07-.85-1.61c-.15-.27-.3-.55-.43-.84s-.41-.83-.61-1.24c-.27-.57-.52-1.13-.76-1.69-.38-.84-.72-1.69-1.05-2.54l-.42-1.13c-.16-.43-.31-.87-.46-1.31a1.35,1.35,0,0,1-.08-.24.76.76,0,0,1,0-.11l-.07-.22-.24-.74c-.08-.24-.15-.48-.22-.72-.13-.44-.25-.87-.37-1.31-.05-.2-.11-.39-.16-.59-.11-.42-.21-.86-.32-1.29v0c-.1-.44-.2-.87-.29-1.31s-.17-.82-.25-1.23-.16-.92-.23-1.39-.11-.77-.17-1.16c0-.05,0-.1,0-.14a48.29,48.29,0,0,1-.4-5.2c0-.43,0-.85,0-1.29s0-.63,0-1c0-.56,0-1.11.08-1.66a.34.34,0,0,1,0-.1v-.07l0-.29a5.67,5.67,0,0,1,.05-.58c0-.48.09-1,.15-1.44s.09-.77.16-1.15a.59.59,0,0,1,0-.14c0-.21.06-.41.1-.62.11-.61.22-1.22.36-1.82l.17-.77c0-.06,0-.11,0-.18s0-.19.08-.28.11-.44.17-.66c.27-1,.57-2,.92-3,.14-.39.29-.79.44-1.18s.31-.78.48-1.17.25-.58.39-.87c.42-.92.88-1.84,1.38-2.72.18-.33.36-.65.55-1s.31-.5.47-.76.41-.65.62-1c.09-.13.17-.27.26-.39l.48-.68.24-.33a.36.36,0,0,1,.07-.1l.14-.19.66-.86.66-.8c.25-.3.5-.59.76-.88.44-.5.89-1,1.36-1.46l.19-.19c.06-.07.13-.13.19-.19q.33-.33.66-.63l.59-.56.19-.16.36-.33.66-.56c.46-.39.94-.77,1.43-1.14l.36-.28c.45-.34.91-.66,1.38-1l.08,0,.12-.08.15-.11.76-.5,1.11-.69c.27-.17.56-.33.84-.49l.06,0c.34-.2.69-.39,1.05-.58l.38-.21.16-.08.11-.06.24-.12c.59-.3,1.18-.59,1.8-.86.32-.15.66-.31,1-.45l.89-.37.7-.28.53-.2.85-.31c1.24-.45,2.52-.85,3.82-1.2l.47-.13.35-.08q.66-.18,1.35-.33c.17,0,.35-.08.52-.12.48-.11,1-.21,1.46-.3l.54-.1.64-.12a63.1,63.1,0,0,1,8.36-.86l.64,0,1,0h.05c.77,0,1.53,0,2.3,0l1,0h.3l1,0c1.17.06,2.35.15,3.53.27l.83.09c.26,0,.51.06.77.09l.76.1,1.2.17c.79.12,1.59.25,2.38.4.38.06.75.14,1.12.21,1.85.37,3.71.8,5.57,1.31l.91.25.33.1c.43.12.87.25,1.3.39l.85.26,1.71.56.71.25,1.11.4,1,.38.88.33c1,.39,2,.8,2.93,1.23l1.18.52,1.28.59.38.18.82.4.73.37,1.19.6,1.36.73c1.05.57,2.1,1.16,3.15,1.78a91.35,91.35,0,0,1,8.4,5.67c.34.25.66.5,1,.76a85.7,85.7,0,0,1,9.4,8.53q2,2.15,3.86,4.38A66.35,66.35,0,0,1,445.31,174.81Z"/><path class="cls-7" d="M428.57,161.58l-.36.59h0c-.54.89-1.1,1.78-1.67,2.64a83.47,83.47,0,0,1-16.89,18.79c-.78.64-1.58,1.27-2.39,1.88-.54.41-1.08.8-1.63,1.19-1.36,1-2.74,1.9-4.14,2.77a75.43,75.43,0,0,1-20.87,9.06c-.65-.37-1.31-.75-2-1.14s-1.41-.85-2.11-1.29l-.11-.08-1-.65-.8-.53c-.34-.22-.68-.45-1-.69s-.92-.63-1.37-1-.9-.64-1.34-1-.89-.66-1.32-1c-1.75-1.35-3.41-2.74-5-4.19-.4-.36-.8-.72-1.19-1.09s-.77-.73-1.15-1.1-.76-.74-1.13-1.12-.74-.75-1.1-1.13l-1.07-1.14h0l-1-1.14-.42-.47c-.55-.63-1.08-1.27-1.6-1.91-.31-.37-.61-.76-.91-1.13l-.07-.09-.8-1a2.43,2.43,0,0,1-.14-.2c-.3-.38-.58-.78-.87-1.17l-.85-1.2q-.6-.87-1.17-1.74s0,0,0,0l-.11-.16c-.67-1-1.3-2.07-1.91-3.11-.24-.43-.48-.85-.71-1.28s-.58-1.07-.85-1.61c-.15-.27-.3-.55-.43-.84s-.41-.83-.61-1.24c-.27-.57-.52-1.13-.76-1.69-.38-.84-.72-1.69-1.05-2.54l-.42-1.13c-.16-.43-.31-.87-.46-1.31a2.25,2.25,0,0,1-.08-.24.76.76,0,0,1,0-.11l-.07-.22-.24-.74c-.07-.25-.15-.48-.22-.72-.13-.44-.25-.87-.37-1.31-.05-.2-.11-.39-.16-.59-.11-.42-.21-.86-.32-1.29v0c-.1-.44-.2-.87-.29-1.31s-.17-.82-.25-1.23-.16-.92-.23-1.39-.11-.77-.17-1.16c0-.05,0-.1,0-.14a48.29,48.29,0,0,1-.4-5.2c0-.43,0-.85,0-1.29s0-.63,0-1c0-.56,0-1.11.08-1.66a.34.34,0,0,1,0-.1v-.07l0-.29v-.14c0-.15,0-.29.05-.44,0-.48.09-1,.15-1.44s.09-.77.16-1.15a.59.59,0,0,1,0-.14c0-.21.06-.41.1-.62.11-.61.22-1.22.36-1.82l.17-.77c0-.06,0-.11,0-.18s0-.19.08-.28.11-.44.17-.66c.27-1,.57-2,.92-3,.14-.39.29-.79.44-1.18s.31-.78.48-1.17.25-.58.39-.87c.42-.92.88-1.84,1.38-2.72.18-.33.36-.65.55-1s.31-.5.47-.76.41-.65.62-1c.09-.13.17-.27.26-.39l.48-.68.24-.33a.36.36,0,0,1,.07-.1l.14-.19.66-.86.66-.8c.25-.3.5-.59.76-.88.44-.5.89-1,1.36-1.46l.19-.19c.06-.07.13-.13.19-.19q.33-.33.66-.63l.59-.56.19-.16.36-.33.66-.56c.46-.39.94-.77,1.43-1.14l.36-.28c.45-.34.91-.66,1.38-1l.08,0,.12-.08.15-.11.76-.5,1.11-.69c.27-.17.56-.33.84-.49l.06,0c.34-.2.69-.39,1.05-.58l.38-.21.16-.08.35-.18c.59-.3,1.18-.59,1.8-.86.32-.15.66-.31,1-.45l.89-.37.7-.28.53-.2.85-.31c1.24-.45,2.52-.85,3.82-1.2l.47-.13.35-.08q.66-.18,1.35-.33c.17,0,.35-.08.52-.12.48-.11,1-.21,1.46-.3l.54-.1.64-.12a63.1,63.1,0,0,1,8.36-.86l.64,0,1,0h.05c.77,0,1.53,0,2.3,0l1,0h.3l1,0c1.17.06,2.35.15,3.53.27l.83.09c.26,0,.51.06.77.09l.76.1,1.2.17c.79.12,1.59.25,2.38.4.38.06.75.14,1.12.21,1.85.37,3.71.8,5.57,1.31l.91.25.33.1c.43.12.87.25,1.3.39l.85.26,1.71.56.71.25,1.11.4,1,.38.88.33c1,.39,2,.8,2.93,1.23l1.18.52,1.28.59.38.18.82.4.73.37,1.19.6,1.36.73c1.05.57,2.1,1.16,3.15,1.78a91.35,91.35,0,0,1,8.4,5.67c.34.25.66.5,1,.76,0,.76.06,1.51.07,2.27h0a80.31,80.31,0,0,1-5.24,29.64A84.43,84.43,0,0,1,428.57,161.58Z"/><path class="cls-8" d="M428.32,166.86a109.81,109.81,0,0,1-7.18,10.61c-1.52,2-3.08,3.86-4.66,5.62l-.28.32c-.68.75-1.36,1.48-2.05,2.2-.48.49-1,1-1.44,1.45s-1.13,1.1-1.69,1.62l-.2.18c-.59.55-1.19,1.08-1.79,1.6l-.49.42h0c-1.06.89-2.1,1.73-3.15,2.51-7.2,5.38-14.26,8.16-20.05,7.58-1.58-.77-3.16-1.59-4.72-2.47-.65-.37-1.31-.75-2-1.14s-1.41-.85-2.11-1.29l-.11-.08c-3.85-5.13-4.77-13.7-2.94-23.83.29-1.66.67-3.37,1.11-5.11.14-.53.28-1.06.43-1.59.58-2.07,1.25-4.16,2-6.29h0a105.11,105.11,0,0,1,8-16.88l0,0c.16-.28.32-.56.49-.84q1.64-2.73,3.35-5.29h0a105.68,105.68,0,0,1,6.48-8.61c10.31-12.32,21.87-19.91,30.94-20.27l1.3.83,11.61,7.35a20.35,20.35,0,0,1,1.06,3h0c2.05,7.69.85,18.58-3.41,30.38a101.77,101.77,0,0,1-7.66,16.44C429,165.8,428.64,166.33,428.32,166.86Z"/><path class="cls-9" d="M351.08,171.32c-11.26-17.3-13.72-37.09-4.57-52.46,8.17-13.72,23.84-21,41.74-21.19A85.7,85.7,0,0,0,366.56,119C354.87,135.45,349.82,154.25,351.08,171.32Z"/><g class="cls-10"><polygon class="cls-11" points="360.29 140.29 366.63 144.07 369.38 132.25 360.29 140.29"/><rect class="cls-11" x="358.69" y="141" width="7.45" height="8.89" transform="translate(59.48 -100.99) rotate(17.26)"/><rect class="cls-11" x="363.47" y="147.48" width="10.24" height="7.7" transform="matrix(0.95, 0.3, -0.3, 0.95, 61.51, -102.56)"/><rect class="cls-11" x="361.64" y="154.47" width="10.24" height="5.48" transform="translate(63.17 -101.75) rotate(17.26)"/><rect class="cls-11" x="367.41" y="158.79" width="3.45" height="4.65" transform="translate(64.44 -102.28) rotate(17.26)"/><rect class="cls-11" x="366.31" y="163.01" width="3.45" height="3.31" transform="translate(65.44 -101.79) rotate(17.26)"/><polygon class="cls-11" points="369.73 164.15 381.83 171.36 383.48 154.82 369.73 164.15"/><rect class="cls-11" x="365.31" y="165.51" width="3.45" height="4.65" transform="translate(66.34 -101.35) rotate(17.26)"/><rect class="cls-11" x="368.23" y="165.54" width="13.07" height="6.87" transform="translate(67.02 -103.6) rotate(17.26)"/><polygon class="cls-11" points="391.13 176.68 378.59 168.59 378.03 183.21 391.13 176.68"/><polygon class="cls-11" points="381.49 170.86 396.28 180.41 397.05 162.99 381.49 170.86"/><polygon class="cls-11" points="389.9 176.18 405.64 184.08 391.02 193.58 389.9 176.18"/><polygon class="cls-11" points="395.32 181.51 409.5 188.63 410.05 169.84 395.32 181.51"/><polygon class="cls-11" points="435.22 185.31 428.88 181.53 437.97 173.48 435.22 185.31"/><rect class="cls-11" x="425.96" y="181.43" width="7.44" height="8.89" transform="translate(607.4 618.99) rotate(-135.7)"/><rect class="cls-11" x="416.44" y="179.41" width="10.24" height="7.7" transform="matrix(-0.72, -0.7, 0.7, -0.72, 595.3, 608.84)"/><rect class="cls-11" x="412.14" y="184.94" width="10.24" height="5.48" transform="matrix(-0.72, -0.7, 0.7, -0.72, 584.85, 613.4)"/><rect class="cls-11" x="410.97" y="185.12" width="3.45" height="4.65" transform="translate(577.18 609.81) rotate(-135.7)"/><rect class="cls-11" x="408.38" y="188.45" width="3.45" height="3.31" transform="translate(570.87 612.57) rotate(-135.7)"/><rect class="cls-11" x="406.06" y="190.17" width="3.45" height="4.65" transform="translate(565.23 615.05) rotate(-135.7)"/><rect class="cls-11" x="396.57" y="182.8" width="13.07" height="6.87" transform="translate(561.57 601.05) rotate(-135.7)"/><path class="cls-11" d="M394.38,146c-2.74,1-6-.16-8.65-2.83a17.14,17.14,0,0,1-2.23-2.75,20.43,20.43,0,0,1-2-4c0-.08-.06-.16-.08-.23-2.53-6.91-1-13.8,3.43-15.48s10.26,2.59,12.9,9.57a20.33,20.33,0,0,1,1.18,4.76,15.56,15.56,0,0,1-.17,5,10.57,10.57,0,0,1-.46,1.63A6.88,6.88,0,0,1,394.38,146Z"/><path class="cls-11" d="M396.09,149.48c-.75,2.64-2.78,3.06-4.51.92l-2.7-3.34-4.26-5.26a37,37,0,0,1-2.59-3.9l-.55-1.46,0-.08a40,40,0,0,1,4.93-.48l7.54-.5c2.74-.18,5,.46,5.06,1.42a24.32,24.32,0,0,1-.47,4.07c-.12.45-.84,3-1.58,5.63Z"/><path class="cls-11" d="M415.47,155.72c0,3.08,2.36,5.8,6,7.46a17.62,17.62,0,0,0,3.53,1.17,21.29,21.29,0,0,0,4.67.51h.26c7.73-.08,13.95-4.13,13.95-9.12s-6.35-9.13-14.19-9.14a21.42,21.42,0,0,0-5.11.61,16.07,16.07,0,0,0-4.86,2,10.34,10.34,0,0,0-1.43,1.05A7.23,7.23,0,0,0,415.47,155.72Z"/><path class="cls-11" d="M411.22,155.48c-2.21,1.63-1.89,3.68.72,4.54l4.77,1.58,6.52,2.16a39,39,0,0,0,4.8,1.1h1.72a35.49,35.49,0,0,0-1.28-4.79L426,152c-.8-2.63-2.24-4.52-3.2-4.21a26.25,26.25,0,0,0-3.83,2l-4.74,3.5Z"/></g><g class="cls-12"><path class="cls-13" d="M384.17,105.78c0-.67-2.79-.78-6.14-.26a31.22,31.22,0,0,0-10.49,3.88,33.53,33.53,0,0,0-7.9,8.34c-1.92,3-2.53,5.61-1.34,5.85s3.27-1.43,4.63-3.7a27,27,0,0,1,6.89-7.06,41.66,41.66,0,0,1,9.4-4.39C382,107.64,384.2,106.44,384.17,105.78Z"/></g><path class="cls-14" d="M365.3,205.17c1.26-1.5,4.61-1.35,7.45.34s4.42,4.68,3.52,6.65a24.71,24.71,0,0,1-3.78,5.78c-1.18,1.22-4.36.9-7.06-.71s-4.35-4.36-3.66-6.13A25.26,25.26,0,0,1,365.3,205.17Z"/><path class="cls-14" d="M375,211.7a9.87,9.87,0,0,1,10.46-3.82l4.88,1.45c3.69,1.1,6,4.56,5.06,7.69a24.46,24.46,0,0,1-6.26,9.77c-2.53,2.25-6.83,1.85-9.54-.88l-3.41-3.44A9.05,9.05,0,0,1,375,211.7Z"/><path class="cls-14" d="M365.2,195.89a8.89,8.89,0,0,1,1.23,10.7,9.89,9.89,0,0,1-10.48,3.8L351.08,209c-3.69-1.1-5.83-4.68-4.76-8a31.4,31.4,0,0,1,5.83-10c2.13-2.24,6.13-1.86,8.88.83Z"/><path class="cls-15" d="M431.84,94.49,430,93.8l-2.61-1a1,1,0,0,0-1.28.6l-1,2.61-.68,1.88-.49,1.33a5.07,5.07,0,0,1-1.07,1.63l-.77.72a11.7,11.7,0,0,0-1.28,1.52l-.46.68a3,3,0,0,1-1.53,1.06l-.45.11a5.79,5.79,0,0,0-1.78.83l-.38.27c-.44.33-.36.52.19.44l5-.79a4.52,4.52,0,0,1,1.93.19h0a1,1,0,0,1,.6,1.28l-.72,2a5,5,0,0,1-1.07,1.62l-.77.73c-.4.38-.35.43.1.11l5.19-3.63c.46-.32.85-.12.89.42l.62,9.92c0,.55.11.55.17,0l1-9.22c.05-.54.43-.69.84-.31l5.06,4.66c.4.37.5.29.21-.18l-3.5-5.76c-.29-.47-.81-1.21-1.15-1.64l-1.25-1.54a1.51,1.51,0,0,1-.11-1.63l.77-1.27c.29-.47.72-1.26,1-1.75L433,96a.88.88,0,0,0-.5-1.24Z"/><path class="cls-16" d="M431.84,94.49,430,93.8l-2.61-1a1,1,0,0,0-1.28.6l-1,2.61-.68,1.88-.49,1.33a5.07,5.07,0,0,1-1.07,1.63l-.77.72a11.7,11.7,0,0,0-1.28,1.52l-.46.68a3,3,0,0,1-1.53,1.06l-.45.11a5.79,5.79,0,0,0-1.78.83l-.38.27c-.44.33-.36.52.19.44l5-.79a4.52,4.52,0,0,1,1.93.19h0a1,1,0,0,1,.6,1.28l-.72,2a5,5,0,0,1-1.07,1.62l-.77.73c-.4.38-.35.43.1.11l5.19-3.63c.46-.32.85-.12.89.42l.62,9.92c0,.55.11.55.17,0l1-9.22c.05-.54.43-.69.84-.31l5.06,4.66c.4.37.5.29.21-.18l-3.5-5.76c-.29-.47-.81-1.21-1.15-1.64l-1.25-1.54a1.51,1.51,0,0,1-.11-1.63l.77-1.27c.29-.47.72-1.26,1-1.75L433,96a.88.88,0,0,0-.5-1.24Z"/><path class="cls-15" d="M243.65,322.86a16.39,16.39,0,0,0,2.76,1.76l4.05,2.05a2.8,2.8,0,0,1,1.41,2.86l-1.5,7.84a4.57,4.57,0,0,0,1,3.45l8.6,9.55c.74.82.6,1-.3.34l-10.8-7.54c-.9-.63-1.59-.24-1.54.86l.19,3.93c0,1.1.07,2.9,0,4l-.09,3.11c0,1.1-.13,2.9-.22,4l-.47,6.07a12.88,12.88,0,0,1-1,3.8l-1.49,3.16c-.47,1-.86.91-.87-.19l-.06-5.4a37.86,37.86,0,0,0-.3-4l-.41-2.91a14.44,14.44,0,0,1,.09-3.94l.38-2a16.86,16.86,0,0,0,.18-3.95l-.12-1.33c-.11-1.1-.69-1.25-1.31-.34l-2,3a10.33,10.33,0,0,0-1.41,3.63l-.67,4.54a16.92,16.92,0,0,0,0,4L238,365a29.41,29.41,0,0,1,.22,4l-.1,3.12a10.75,10.75,0,0,1-1,3.78l-1.25,2.47c-.5,1-1,.9-1.18-.19l-.57-4.05c-.16-1.09-.31-2.88-.35-4l-.09-2.79c0-1.1-.1-2.9-.15-4l0-.9a15.19,15.19,0,0,1,.47-3.92l1.19-4.17a21.3,21.3,0,0,1,1.51-3.67l1-1.8c.53-1,.43-1-.22-.15L230.6,358c-.66.88-1.71,2.34-2.34,3.24l-1.36,2a28.15,28.15,0,0,0-2,3.45l-1.49,3.16a11.62,11.62,0,0,1-2.36,3.13l-1.56,1.36c-.82.72-1.37.43-1.21-.66l.67-4.54a10.36,10.36,0,0,1,1.4-3.64l2-3c.61-.91,1.65-2.38,2.3-3.27l2.75-3.72c.66-.88,1.76-2.31,2.46-3.16l3.92-4.82c.7-.85.56-1-.3-.3l-8.07,6.4c-.86.69-2.24,1.84-3.06,2.58l-5.25,4.68A16.62,16.62,0,0,1,213.8,363l-3.47,1.64c-1,.47-1.24.16-.54-.69l2.88-3.45a31.29,31.29,0,0,1,2.77-2.87s2.63-2.34,3.95-3.32S226,349,226,349c.84-.71,2.16-1.93,2.93-2.72l1.48-1.53c.76-.79,2-2.13,2.66-3l1.42-1.73a9.19,9.19,0,0,0,1.64-3.51l.52-2.69a14.1,14.1,0,0,1,1.37-3.7l3.69-6.41C242.22,322.78,243.11,322.38,243.65,322.86Z"/><path class="cls-16" d="M243.65,322.86a16.39,16.39,0,0,0,2.76,1.76l4.05,2.05a2.8,2.8,0,0,1,1.41,2.86l-1.5,7.84a4.57,4.57,0,0,0,1,3.45l8.6,9.55c.74.82.6,1-.3.34l-10.8-7.54c-.9-.63-1.59-.24-1.54.86l.19,3.93c0,1.1.07,2.9,0,4l-.09,3.11c0,1.1-.13,2.9-.22,4l-.47,6.07a12.88,12.88,0,0,1-1,3.8l-1.49,3.16c-.47,1-.86.91-.87-.19l-.06-5.4a37.86,37.86,0,0,0-.3-4l-.41-2.91a14.44,14.44,0,0,1,.09-3.94l.38-2a16.86,16.86,0,0,0,.18-3.95l-.12-1.33c-.11-1.1-.69-1.25-1.31-.34l-2,3a10.33,10.33,0,0,0-1.41,3.63l-.67,4.54a16.92,16.92,0,0,0,0,4L238,365a29.41,29.41,0,0,1,.22,4l-.1,3.12a10.75,10.75,0,0,1-1,3.78l-1.25,2.47c-.5,1-1,.9-1.18-.19l-.57-4.05c-.16-1.09-.31-2.88-.35-4l-.09-2.79c0-1.1-.1-2.9-.15-4l0-.9a15.19,15.19,0,0,1,.47-3.92l1.19-4.17a21.3,21.3,0,0,1,1.51-3.67l1-1.8c.53-1,.43-1-.22-.15L230.6,358c-.66.88-1.71,2.34-2.34,3.24l-1.36,2a28.15,28.15,0,0,0-2,3.45l-1.49,3.16a11.62,11.62,0,0,1-2.36,3.13l-1.56,1.36c-.82.72-1.37.43-1.21-.66l.67-4.54a10.36,10.36,0,0,1,1.4-3.64l2-3c.61-.91,1.65-2.38,2.3-3.27l2.75-3.72c.66-.88,1.76-2.31,2.46-3.16l3.92-4.82c.7-.85.56-1-.3-.3l-8.07,6.4c-.86.69-2.24,1.84-3.06,2.58l-5.25,4.68A16.62,16.62,0,0,1,213.8,363l-3.47,1.64c-1,.47-1.24.16-.54-.69l2.88-3.45a31.29,31.29,0,0,1,2.77-2.87s2.63-2.34,3.95-3.32S226,349,226,349c.84-.71,2.16-1.93,2.93-2.72l1.48-1.53c.76-.79,2-2.13,2.66-3l1.42-1.73a9.19,9.19,0,0,0,1.64-3.51l.52-2.69a14.1,14.1,0,0,1,1.37-3.7l3.69-6.41C242.22,322.78,243.11,322.38,243.65,322.86Z"/><path class="cls-15" d="M490.38,239.14a12.07,12.07,0,0,0-2.07-2l-2-1.6a1.88,1.88,0,0,1-.23-2.74L490.4,228a3.41,3.41,0,0,0,.54-3.32l-3.1-7.15c-.44-1-.2-1.16.53-.33l5.66,6.45a1.3,1.3,0,0,0,2.27-.26l1.12-2.08c.52-1,1.44-2.52,2-3.44l1-1.57c.6-.92,1.62-2.4,2.27-3.29l2.61-3.63a14.74,14.74,0,0,1,2.79-2.79l2.46-1.79c.89-.65,1.16-.4.6.54l-1.85,3.14a33,33,0,0,0-1.79,3.57l-.52,1.27a14.34,14.34,0,0,1-2.1,3.34l-.82.91a16.89,16.89,0,0,0-2.19,3.3l-.09.18c-.47,1-.07,1.37.89.83l2.93-1.64a12.77,12.77,0,0,0,3-2.52l2.16-2.62a15.74,15.74,0,0,0,2-3.39l.18-.44a25.7,25.7,0,0,1,1.86-3.52l1-1.57a12.39,12.39,0,0,1,2.73-2.82l2-1.37c.91-.63,1.3-.31.88.71l-.86,2.1a39.66,39.66,0,0,1-1.75,3.59l-.72,1.29c-.53,1-1.4,2.52-1.92,3.47a15.66,15.66,0,0,1-2.4,3.11l-2.52,2.4a27.71,27.71,0,0,1-3.13,2.48l-1.48,1c-.92.6-.87.68.1.17l9.92-5.16c1-.51,2.56-1.35,3.53-1.88l1.94-1.06a36,36,0,0,0,3.37-2.13l2.47-1.79a16,16,0,0,1,3.51-1.81l1.95-.66c1-.36,1.32.05.62.9L532,211.26a12.82,12.82,0,0,1-3,2.52l-2.93,1.64c-1,.54-2.54,1.4-3.52,1.91l-3.93,2c-1,.51-2.58,1.31-3.58,1.79l-5.46,2.61c-1,.47-.94.6.11.28l9.86-3c1.05-.32,2.76-.87,3.8-1.23l6.63-2.29a23.54,23.54,0,0,1,3.88-.92l3.73-.49c1.09-.15,1.17.12.17.58l-4,1.86c-1,.46-2.66,1.14-3.7,1.5,0,0-3.31,1.15-4.9,1.58s-8.07,2.51-8.07,2.51c-1,.33-2.74.94-3.76,1.36l-1.94.78c-1,.42-2.66,1.14-3.66,1.61l-1.93.92a11.81,11.81,0,0,0-3.14,2.34l-1.26,1.4a16.78,16.78,0,0,1-3,2.56l-5.84,3.71C491.64,239.43,490.65,239.56,490.38,239.14Z"/><path class="cls-16" d="M490.38,239.14a12.07,12.07,0,0,0-2.07-2l-2-1.6a1.88,1.88,0,0,1-.23-2.74L490.4,228a3.41,3.41,0,0,0,.54-3.32l-3.1-7.15c-.44-1-.2-1.16.53-.33l5.66,6.45a1.3,1.3,0,0,0,2.27-.26l1.12-2.08c.52-1,1.44-2.52,2-3.44l1-1.57c.6-.92,1.62-2.4,2.27-3.29l2.61-3.63a14.74,14.74,0,0,1,2.79-2.79l2.46-1.79c.89-.65,1.16-.4.6.54l-1.85,3.14a33,33,0,0,0-1.79,3.57l-.52,1.27a14.34,14.34,0,0,1-2.1,3.34l-.82.91a16.89,16.89,0,0,0-2.19,3.3l-.09.18c-.47,1-.07,1.37.89.83l2.93-1.64a12.77,12.77,0,0,0,3-2.52l2.16-2.62a15.74,15.74,0,0,0,2-3.39l.18-.44a25.7,25.7,0,0,1,1.86-3.52l1-1.57a12.39,12.39,0,0,1,2.73-2.82l2-1.37c.91-.63,1.3-.31.88.71l-.86,2.1a39.66,39.66,0,0,1-1.75,3.59l-.72,1.29c-.53,1-1.4,2.52-1.92,3.47a15.66,15.66,0,0,1-2.4,3.11l-2.52,2.4a27.71,27.71,0,0,1-3.13,2.48l-1.48,1c-.92.6-.87.68.1.17l9.92-5.16c1-.51,2.56-1.35,3.53-1.88l1.94-1.06a36,36,0,0,0,3.37-2.13l2.47-1.79a16,16,0,0,1,3.51-1.81l1.95-.66c1-.36,1.32.05.62.9L532,211.26a12.82,12.82,0,0,1-3,2.52l-2.93,1.64c-1,.54-2.54,1.4-3.52,1.91l-3.93,2c-1,.51-2.58,1.31-3.58,1.79l-5.46,2.61c-1,.47-.94.6.11.28l9.86-3c1.05-.32,2.76-.87,3.8-1.23l6.63-2.29a23.54,23.54,0,0,1,3.88-.92l3.73-.49c1.09-.15,1.17.12.17.58l-4,1.86c-1,.46-2.66,1.14-3.7,1.5,0,0-3.31,1.15-4.9,1.58s-8.07,2.51-8.07,2.51c-1,.33-2.74.94-3.76,1.36l-1.94.78c-1,.42-2.66,1.14-3.66,1.61l-1.93.92a11.81,11.81,0,0,0-3.14,2.34l-1.26,1.4a16.78,16.78,0,0,1-3,2.56l-5.84,3.71C491.64,239.43,490.65,239.56,490.38,239.14Z"/><path class="cls-2" d="M332.35,203.77a.62.62,0,0,1,.57,1l-6.58,14a8.3,8.3,0,0,1-1.08,1.66l-22.5,25.9c-.36.42-.91,1.13-1.22,1.58l-15.77,22.63c-.32.45-.83,1.2-1.13,1.65L272.75,290c-.31.45-.77,1.22-1,1.71l-11.59,21.6a19.81,19.81,0,0,0-.84,1.81l-7,17.51a.9.9,0,0,1-1.26.48l-11-5.57a1.1,1.1,0,0,1-.5-1.38l12.56-29.42c.22-.51.59-1.33.83-1.83l8.19-17.13a14.2,14.2,0,0,1,1-1.73l13.6-19.54,1.15-1.64L287,240.56a15.37,15.37,0,0,1,1.28-1.52l18.61-18.93,1.41-1.42,8.17-8.31a11,11,0,0,1,1.54-1.26l7.92-5.13a3.6,3.6,0,0,1,1.84-.49Z"/><path class="cls-2" d="M388.2,254.4A1.5,1.5,0,0,0,388,256l13.42,25.46c.26.48.7,1.27,1,1.74l6,9.91,1.05,1.7,5.66,9.21a3.8,3.8,0,0,0,1.44,1.26l2.47,1.12a2.09,2.09,0,0,0,1.76-.13l5.56-3.54a15.89,15.89,0,0,0,1.6-1.2l9.14-8,1.5-1.32,23.3-20.73c.42-.37,1.06-1,1.44-1.39l18.18-19,1.38-1.45,9.79-10.41a.93.93,0,0,0-.09-1.37l-6-4.94a1.18,1.18,0,0,0-1.5,0l-14.29,13.5-1.45,1.38-12.18,11.63c-.39.38-1.07,1-1.5,1.32L444.11,270c-.43.35-1.12.92-1.54,1.28L432.49,280,431,281.24l-8.9,7.53a.76.76,0,0,1-1.22-.25l-7.67-15a19.93,19.93,0,0,0-1-1.72l-9-13.07c-.31-.45-.81-1.21-1.1-1.67l-3.81-6.13a13.25,13.25,0,0,0-1.2-1.59l-1.25-1.38a.92.92,0,0,0-1.36,0Z"/><rect class="cls-17" x="155.34" y="489.77" width="76.82" height="87.4" rx="10" ry="10"/><ellipse class="cls-18" cx="169.65" cy="548.83" rx="1.17" ry="23.47"/><ellipse class="cls-18" cx="178.44" cy="548.31" rx="0.59" ry="16.69"/><ellipse class="cls-18" cx="190.74" cy="547.27" rx="1.17" ry="21.9"/><ellipse class="cls-18" cx="207.15" cy="557.17" rx="1.17" ry="18.25"/><ellipse class="cls-18" cx="198.95" cy="545.18" rx="1.17" ry="13.56"/><ellipse class="cls-18" cx="222.38" cy="548.83" rx="1.17" ry="23.47"/><path class="cls-19" d="M95.27,109.07c-15.16,19.56-7.31,35.57,17.44,35.57H277c24.75,0,32.6-16,17.45-35.57l-72-93c-15.15-19.57-40-19.57-55.11,0Z"/><path class="cls-19" d="M71.87,210.17c-15.82,19-8.52,34.61,16.23,34.61H301.59c24.75,0,32.05-15.58,16.23-34.61L223.61,96.85c-15.82-19-41.71-19-57.53,0Z"/><path class="cls-20" d="M281.78,119.66c2.78,3.41,1.45,6.21-2.95,6.21H116.72c-4.4,0-5.73-2.8-3-6.21l79-97.11a6.25,6.25,0,0,1,10.09,0Z"/><ellipse class="cls-19" cx="118.68" cy="125.87" rx="28.71" ry="29.21"/><path class="cls-19" d="M12.16,465.25C-5,483.11,1.25,497.72,26,497.72H361.35c24.75,0,31-14.61,13.84-32.47L224.83,308.54a42.93,42.93,0,0,0-62.31,0Z"/><path class="cls-20" d="M348.63,476.41c2.84,3.36,1.56,6.11-2.84,6.11H43.19c-4.4,0-5.67-2.75-2.83-6.11l149-176.5a6.54,6.54,0,0,1,10.32,0Z"/><ellipse class="cls-19" cx="332.42" cy="487.45" rx="50.57" ry="44.86" transform="translate(-3.71 2.55) rotate(-0.44)"/><path class="cls-19" d="M191.21,482.52c0,21-23.16,38-51.73,38s-51.73-17-51.73-38Z"/><path class="cls-19" d="M288.1,482.52c0,21-23.16,38-51.73,38s-51.73-17-51.73-38Z"/><path class="cls-19" d="M115,482.59c0,21-23.16,38-51.73,38s-51.73-17-51.73-38Z"/><ellipse class="cls-19" cx="204.43" cy="30.05" rx="18.16" ry="15.18"/><ellipse class="cls-19" cx="219.28" cy="54.04" rx="18.16" ry="15.18"/><path class="cls-19" d="M33.07,337.42C16.68,356,23.51,371.14,48.26,371.14h292c24.75,0,31.58-15.18,15.19-33.72L224.06,188.79c-16.39-18.54-43.21-18.54-59.6,0Z"/><path class="cls-20" d="M333.15,350c2.7,3.47,1.31,6.31-3.09,6.31H59.93c-4.4,0-5.79-2.84-3.08-6.31L190.09,178.67a5.93,5.93,0,0,1,9.82,0Z"/><ellipse class="cls-19" cx="67.78" cy="359.45" rx="42.59" ry="40.74"/><path class="cls-19" d="M192.05,356.32c0,20.45-20.8,37-46.46,37s-46.46-16.59-46.46-37Z"/><path class="cls-19" d="M279.06,356.32c0,20.45-20.8,37-46.45,37s-46.46-16.59-46.46-37Z"/><path class="cls-19" d="M356.05,356.38c0,20.46-20.8,37-46.46,37s-46.45-16.58-46.45-37Z"/><path class="cls-20" d="M304.37,225.8c2.6,3.55,1.12,6.46-3.28,6.46H89.77c-4.4,0-5.87-2.91-3.28-6.46L190.71,83.3c2.6-3.55,6.85-3.55,9.44,0Z"/><ellipse class="cls-19" cx="291.66" cy="232.26" rx="33.83" ry="34.42"/><path class="cls-19" d="M196.6,124.82C196.6,141,183.75,154,167.9,154a29,29,0,0,1-28.71-29.21Z"/><path class="cls-19" d="M250.5,124.82C250.5,141,237.65,154,221.8,154a29,29,0,0,1-28.71-29.21Z"/><path class="cls-19" d="M294.26,124.82c0,16.13-12.85,29.21-28.7,29.21a29,29,0,0,1-28.71-29.21Z"/><path class="cls-19" d="M193.09,232.26c0,17.28-16.53,31.29-36.91,31.29s-36.91-14-36.91-31.29Z"/><path class="cls-19" d="M262.22,232.26c0,17.28-16.53,31.29-36.91,31.29s-36.91-14-36.91-31.29Z"/><path class="cls-19" d="M148.35,232.26c0,17.28-16.53,31.29-36.91,31.29s-36.91-14-36.91-31.29Z"/><ellipse class="cls-19" cx="271.4" cy="473.21" rx="29.44" ry="23.99"/><ellipse class="cls-19" cx="119.07" cy="356.38" rx="29.44" ry="23.99"/><path class="cls-19" d="M177.85,87.27c0,5.19-4.71,9.39-10.54,9.39s-10.55-4.2-10.55-9.39Z"/><path class="cls-19" d="M236.44,106.57c0,4.9-4.45,8.87-10,8.87s-10-4-10-8.87Z"/><path class="cls-19" d="M163.79,180.5c0,6.36-4.45,11.5-10,11.5s-10-5.14-10-11.5Z"/><path class="cls-19" d="M240,171.24c0,4.9-4.46,8.87-10,8.87s-10-4-10-8.87Z"/><path class="cls-19" d="M210.66,207.23c0,5.19-4.71,9.38-10.54,9.38s-10.55-4.19-10.55-9.38Z"/><path class="cls-19" d="M247,290a8.8,8.8,0,1,1-17.58,0Z"/><path class="cls-19" d="M153.29,297.18c0,4.21-4.72,7.61-10.57,7.61s-10.56-3.4-10.56-7.61Z"/><path class="cls-19" d="M278.63,334.07c0,4-3.67,7.31-8.21,7.31s-8.2-3.27-8.2-7.31Z"/><path class="cls-19" d="M200.12,317.39c0,4-3.67,7.3-8.2,7.3s-8.21-3.27-8.21-7.3Z"/><path class="cls-19" d="M132.16,421.05c0,6.35-4.46,11.48-10,11.48s-10-5.13-10-11.48Z"/><path class="cls-19" d="M196.6,407.49c0,4.62-4.19,8.35-9.37,8.35s-9.38-3.73-9.38-8.35Z"/><path class="cls-19" d="M250.5,423.14c0,5.19-4.71,9.39-10.54,9.39s-10.55-4.2-10.55-9.39Z"/><path class="cls-19" d="M177.85,456.52c0,6.34-4.45,11.47-9.95,11.47s-10-5.13-10-11.47Z"/><path class="cls-19" d="M99.35,459.3c0,4.32-3.93,7.82-8.79,7.82s-8.79-3.5-8.79-7.82Z"/></g></svg>
