<svg xmlns="http://www.w3.org/2000/svg" width="279.87" height="487.3" viewBox="0 0 279.87 487.3"><defs><style>.cls-1{fill:#51271d;}.cls-2{fill:#252422;}.cls-3{fill:#403d39;}.cls-4{fill:#ccc5b9;}.cls-5{fill:#ea591f;}.cls-6{fill:#eb5e28;}.cls-7{fill:#ee7444;}.cls-8{fill:#ec6632;}.cls-9{fill:#ef8257;}.cls-10{opacity:0.85;}.cls-11{fill:#191919;}.cls-12{opacity:0.4;}.cls-13{fill:#fff;}.cls-14{fill:#eb5e2f;}.cls-15{fill:#442518;}.cls-16{fill:none;stroke:#442518;stroke-miterlimit:10;stroke-width:2px;}</style></defs><title>jack_behind</title><g id="final"><path class="cls-1" d="M76,116.2a5,5,0,0,1,2.65-6.55l1.2-.52a5,5,0,0,1,6.56,2.65l7.49,17.64a5.73,5.73,0,0,1-2.41,7.05l-1.2.67A4.38,4.38,0,0,1,84,135Z"/><path class="cls-2" d="M269.55,443l-4.38,2.84a28.83,28.83,0,0,1-3.51,1.88l-2.43,1a18.68,18.68,0,0,1-3.82,1.07l-1.8.26a14.51,14.51,0,0,1-3.79-.05,3.09,3.09,0,0,1-2.27-1.89,1.84,1.84,0,0,0-2.37-1L238.73,449a2.13,2.13,0,0,0-1.46,2.5l2.84,12a1.88,1.88,0,0,0,2.38,1.39l5.65-1.64,3.84-1.11,6.45-1.87,3.84-1.11,2.49-.72c1.05-.31,2.76-.88,3.79-1.27l7.66-2.91"/><path class="cls-2" d="M267.08,450.15a6.54,6.54,0,0,1,3.34-7.66,6.72,6.72,0,0,1,1.11-.43,6.53,6.53,0,1,1-4.45,8.09Z"/><path class="cls-2" d="M249.39,463c.36-1-.21-1.61-1.25-1.27l-6,2c-1.05.35-1.17,1.14-.27,1.77l3.78,2.64a1.43,1.43,0,0,0,2.29-.75Z"/><path class="cls-2" d="M200.94,474.63l4.85-1.76a28.94,28.94,0,0,0,3.62-1.68l2.25-1.28a18.85,18.85,0,0,0,3.15-2.4l1.27-1.26a13.93,13.93,0,0,0,2.24-3,3.07,3.07,0,0,0-.14-2.92,1.85,1.85,0,0,1,.63-2.5l5.31-4a2.14,2.14,0,0,1,2.88.34l7.8,9.41a1.89,1.89,0,0,1-.33,2.74l-4.65,3.48-3.21,2.39-5.31,4-3.2,2.4-2,1.52c-.88.66-2.36,1.68-3.29,2.26l-6.88,4.33"/><path class="cls-2" d="M208.07,476.94A6.5,6.5,0,0,0,200,475a7.51,7.51,0,0,0-1,.62,6.48,6.48,0,1,0,9.07,1.31Z"/><path class="cls-2" d="M228.85,470.63c-1-.34-1.16-1.14-.26-1.77l5.15-3.58c.9-.63,1.61-.24,1.57.86l-.17,4.54a1.43,1.43,0,0,1-2,1.37Z"/><path class="cls-3" d="M151.12,226a2,2,0,0,1,2.62,1.06l93.51,220.22a2,2,0,0,1-1.06,2.63l-8.55,3.63a2.09,2.09,0,0,1-2.68-1L144.74,257.3c-.46-1-.61-.94-.33.12l21.09,81a19.19,19.19,0,0,0,1.47,3.69L229.35,454.9a1.77,1.77,0,0,1-.88,2.53l-8.55,3.63a2.34,2.34,0,0,1-2.85-.94l-65.66-111.4a19.59,19.59,0,0,1-1.59-3.64L118.88,241.85a2.28,2.28,0,0,1,1.27-2.7Z"/><polygon class="cls-2" points="63.97 158.64 60.23 166.21 122.55 246.68 154.34 233.18 137.06 136.24 123.75 135.66 63.97 158.64"/><polygon class="cls-3" points="76.19 166.14 127.36 216.76 126.79 145.44 119.33 143.18 130.26 135.52 103.72 123.71 76.95 134.66 62.56 161.44 77.05 159.06 76.19 166.14"/><polygon class="cls-4" points="67.35 135.9 117.29 192.97 107.17 117.15 67.35 135.9"/><path class="cls-5" d="M127.93,47.16c6.92,16.3,2,35.35-11.22,50.88a78,78,0,0,1-11.92,11.32,86.49,86.49,0,0,1-12.47,8c-1.55.82-3.15,1.6-4.78,2.34l-2.08.92c-.76.32-1.52.63-2.29.93l-.12,0-1.13.43-.89.33-1.16.41c-.52.19-1.05.36-1.58.53s-1.05.35-1.59.51l-1.58.47c-2.12.62-4.23,1.13-6.34,1.57-.53.11-1,.22-1.58.31s-1,.2-1.57.28-1,.18-1.58.25-1,.16-1.56.22l-1.54.19h0l-1.52.15q-.31,0-.63.06c-.83.07-1.66.13-2.49.17-.48,0-1,0-1.44.06a.48.48,0,0,1-.12,0l-1.32,0h-.23c-.49,0-1,0-1.46,0l-1.48,0c-.7,0-1.4,0-2.09-.09h-.21c-1.23-.07-2.44-.17-3.64-.3-.49-.05-1-.11-1.45-.18s-1.21-.16-1.8-.26l-.93-.15-1.37-.25-1.81-.38c-.9-.2-1.78-.42-2.66-.66L33.12,125l-1.33-.41a1.36,1.36,0,0,1-.25-.07l-.11,0-.22-.07-.73-.25c-.24-.07-.48-.16-.72-.24-.42-.15-.85-.31-1.27-.48l-.57-.22-1.23-.5h0l-1.23-.54-1.13-.53L23.05,121l-1-.55-.12-.07a48.45,48.45,0,0,1-4.43-2.76c-.35-.24-.7-.49-1-.75l-.76-.58c-.44-.34-.87-.68-1.29-1a.27.27,0,0,1-.08-.07l0,0-.22-.19c-.15-.13-.3-.25-.45-.39-.36-.31-.71-.63-1.06-1s-.57-.54-.84-.82a.94.94,0,0,1-.1-.1c-.15-.14-.29-.29-.44-.45-.43-.44-.85-.9-1.26-1.36l-.51-.59-.12-.14-.19-.23-.43-.53c-.65-.8-1.26-1.63-1.84-2.49-.24-.34-.47-.7-.69-1s-.45-.71-.67-1.08-.32-.55-.47-.83c-.49-.88-1-1.79-1.38-2.72l-.45-1-.33-.82c-.15-.36-.29-.72-.41-1.08-.06-.15-.11-.29-.16-.44L2,97l-.12-.4a.36.36,0,0,1,0-.11c0-.08-.05-.15-.06-.22-.11-.35-.21-.7-.31-1s-.18-.67-.26-1L.89,93.13c-.14-.65-.26-1.31-.36-2a2.38,2.38,0,0,1-.05-.26,2.51,2.51,0,0,0,0-.27l-.12-.9c0-.27-.07-.53-.09-.81l0-.24,0-.49c0-.29,0-.57-.07-.86,0-.61-.07-1.22-.08-1.83,0-.15,0-.31,0-.46,0-.56,0-1.12,0-1.69v-.1s0-.09,0-.14a1.28,1.28,0,0,1,0-.19c0-.3,0-.6,0-.91s.06-.86.1-1.3.06-.64.1-1v-.07c0-.39.1-.78.16-1.18l.06-.43,0-.18s0-.08,0-.13,0-.17,0-.26c.11-.65.22-1.3.36-2,.07-.35.15-.72.24-1.07s.14-.63.22-.94.12-.48.19-.73.1-.36.15-.54L2,71.37q.57-1.89,1.29-3.78l.18-.46c0-.11.08-.22.13-.33q.25-.64.54-1.29c.06-.16.14-.32.21-.48.2-.46.41-.91.62-1.36.07-.16.15-.34.23-.5s.19-.39.29-.58a61.7,61.7,0,0,1,4.25-7.25l.36-.54.56-.79,0,0c.44-.63.9-1.24,1.37-1.86.21-.27.41-.54.63-.8a2.27,2.27,0,0,1,.18-.25l.63-.77c.74-.91,1.5-1.8,2.3-2.68l.57-.62.52-.56.54-.56.84-.87c.56-.57,1.14-1.13,1.73-1.68.27-.27.55-.53.83-.78,1.39-1.28,2.83-2.52,4.35-3.72l.74-.59.27-.21c.35-.28.72-.55,1.08-.82l.72-.53c.48-.35,1-.7,1.46-1l.62-.43,1-.66L32,34l.79-.51c.89-.56,1.8-1.11,2.72-1.64.37-.22.74-.44,1.12-.65l1.23-.68.37-.2.81-.42c.24-.13.48-.26.73-.38l1.19-.6c.45-.23.91-.45,1.38-.67,1.09-.51,2.19-1,3.3-1.48a89.56,89.56,0,0,1,9.54-3.44l1.2-.35a84.92,84.92,0,0,1,12.43-2.54c2-.25,3.9-.42,5.82-.53C98.73,18.55,120,28.52,127.93,47.16Z"/><path class="cls-6" d="M106.63,53.5a66,66,0,0,1,3.17,42.17,69.81,69.81,0,0,1-5,13.69,86.49,86.49,0,0,1-12.47,8c-1.55.82-3.15,1.6-4.78,2.34l-2.08.92c-.76.32-1.52.63-2.29.93l-.12,0-1.13.43-.89.33-1.16.41c-.52.19-1.05.36-1.58.53s-1.05.35-1.59.51l-1.58.47c-2.12.62-4.23,1.13-6.34,1.57-.53.11-1,.22-1.58.31s-1,.2-1.57.28-1,.18-1.58.25-1,.16-1.56.22l-1.54.19h0l-1.52.15q-.31,0-.63.06c-.83.07-1.66.13-2.49.17-.48,0-1,0-1.44.06a.48.48,0,0,1-.12,0l-1.32,0h-.23c-.49,0-1,0-1.46,0l-1.48,0c-.7,0-1.4,0-2.09-.09h-.21c-1.23-.07-2.44-.17-3.64-.3-.49-.05-1-.11-1.45-.18s-1.21-.16-1.8-.26l-.93-.15-1.37-.25-1.81-.38c-.9-.2-1.78-.42-2.66-.66L33.12,125l-1.33-.41a1.36,1.36,0,0,1-.25-.07l-.11,0-.22-.07-.73-.25c-.24-.07-.48-.16-.72-.24-.42-.15-.85-.31-1.27-.48l-.57-.22-1.23-.5h0l-1.23-.54-1.13-.53L23.05,121l-1-.55-.12-.07a48.45,48.45,0,0,1-4.43-2.76c-.35-.24-.7-.49-1-.75l-.76-.58c-.44-.34-.87-.68-1.29-1a.27.27,0,0,1-.08-.07l0,0-.22-.19c-.15-.13-.3-.25-.45-.39-.36-.31-.71-.63-1.06-1s-.57-.54-.84-.82a.94.94,0,0,1-.1-.1c-.15-.14-.29-.29-.44-.45-.43-.44-.85-.9-1.26-1.36l-.51-.59-.12-.14-.19-.23-.43-.53c-.65-.8-1.26-1.63-1.84-2.49-.24-.34-.47-.7-.69-1s-.45-.71-.67-1.08-.32-.55-.47-.83c-.49-.88-1-1.79-1.38-2.72l-.45-1-.33-.82c-.15-.36-.29-.72-.41-1.08-.06-.15-.11-.29-.16-.44L2,97l-.12-.4a.36.36,0,0,1,0-.11c0-.08-.05-.15-.06-.22-.11-.35-.21-.7-.31-1s-.18-.67-.26-1L.89,93.13c-.14-.65-.26-1.31-.36-2a2.38,2.38,0,0,1-.05-.26,2.51,2.51,0,0,0,0-.27l-.12-.9c0-.27-.07-.53-.09-.81l0-.24,0-.49c0-.29,0-.57-.07-.86,0-.61-.07-1.22-.08-1.83,0-.15,0-.31,0-.46,0-.56,0-1.12,0-1.69v-.1s0-.09,0-.14a1.28,1.28,0,0,1,0-.19c0-.3,0-.6,0-.91s.06-.86.1-1.3.06-.64.1-1v-.07c0-.39.1-.78.16-1.18l.06-.43,0-.18s0-.08,0-.13,0-.17,0-.26c.11-.65.22-1.3.36-2,.07-.35.15-.72.24-1.07s.14-.63.22-.94.12-.48.19-.73.1-.36.15-.54L2,71.37q.57-1.89,1.29-3.78l.18-.46c0-.11.08-.22.13-.33q.25-.64.54-1.29c.06-.16.14-.32.21-.48.2-.46.41-.91.62-1.36.07-.16.15-.34.23-.5s.19-.39.29-.58a61.7,61.7,0,0,1,4.25-7.25l.36-.54.56-.79,0,0c.44-.63.9-1.24,1.37-1.86.21-.27.41-.54.63-.8a2.27,2.27,0,0,1,.18-.25l.63-.77c.74-.91,1.5-1.8,2.3-2.68l.57-.62.52-.56.54-.56.84-.87c.56-.57,1.14-1.13,1.73-1.68.27-.27.55-.53.83-.78,1.39-1.28,2.83-2.52,4.35-3.72l.74-.59.27-.21c.35-.28.72-.55,1.08-.82l.72-.53c.48-.35,1-.7,1.46-1l.62-.43,1-.66L32,34l.79-.51c.89-.56,1.8-1.11,2.72-1.64.37-.22.74-.44,1.12-.65l1.23-.68.37-.2.81-.42c.24-.13.48-.26.73-.38l1.19-.6c.45-.23.91-.45,1.38-.67,1.09-.51,2.19-1,3.3-1.48a89.56,89.56,0,0,1,9.54-3.44l1.2-.35a84.92,84.92,0,0,1,12.43-2.54c2-.25,3.9-.42,5.82-.53A66.31,66.31,0,0,1,106.63,53.5Z"/><path class="cls-7" d="M86.08,59.19c.09.22.18.43.26.64h0c.4,1,.79,1.93,1.15,2.9a83.13,83.13,0,0,1,5.18,24.73c0,1,.09,2,.1,3,0,.68,0,1.35,0,2q0,2.5-.21,5a75.21,75.21,0,0,1-5,22.18l-2.08.92c-.76.32-1.52.63-2.29.93l-.12,0-1.13.43-.89.33-1.16.41c-.52.19-1.05.36-1.58.53s-1.05.35-1.59.51l-1.58.47c-2.12.62-4.23,1.13-6.34,1.57-.53.11-1,.22-1.58.31s-1,.2-1.57.28-1,.18-1.58.25-1,.16-1.56.22l-1.54.19h0l-1.52.15q-.31,0-.63.06c-.83.07-1.66.13-2.49.17-.48,0-1,0-1.44.06a.48.48,0,0,1-.12,0l-1.32,0h-.23c-.49,0-1,0-1.46,0l-1.48,0c-.7,0-1.4,0-2.09-.09h-.21c-1.23-.07-2.44-.17-3.64-.3-.49-.05-1-.11-1.45-.18s-1.21-.16-1.8-.26l-.93-.15-1.37-.25-1.81-.38c-.9-.2-1.78-.42-2.66-.66L33.12,125l-1.33-.41-.25-.07-.11,0-.22-.07-.73-.25-.72-.24c-.42-.15-.85-.31-1.27-.48l-.57-.22-1.23-.5h0l-1.23-.54-1.13-.53L23.05,121l-1-.55-.12-.07a48.45,48.45,0,0,1-4.43-2.76c-.35-.24-.7-.49-1-.75l-.76-.58c-.44-.34-.87-.68-1.29-1a.27.27,0,0,1-.08-.07l0,0-.22-.19-.11-.09-.34-.3c-.36-.31-.71-.63-1.06-1s-.57-.54-.84-.82a.94.94,0,0,1-.1-.1c-.15-.14-.29-.29-.44-.45-.43-.44-.85-.9-1.26-1.36l-.51-.59-.12-.14-.19-.23-.43-.53c-.65-.8-1.26-1.63-1.84-2.49-.24-.34-.47-.7-.69-1s-.45-.71-.67-1.08-.32-.55-.47-.83c-.49-.88-1-1.79-1.38-2.72l-.45-1-.33-.82c-.15-.36-.29-.72-.41-1.08-.06-.15-.11-.29-.16-.44L2,97l-.12-.4a.36.36,0,0,1,0-.11c0-.08-.05-.15-.06-.22-.11-.35-.21-.7-.31-1s-.18-.67-.26-1L.89,93.13c-.14-.65-.26-1.31-.36-2a2.38,2.38,0,0,1-.05-.26,2.51,2.51,0,0,0,0-.27l-.12-.9c0-.27-.07-.53-.09-.81l0-.24,0-.49c0-.29,0-.57-.07-.86,0-.61-.07-1.22-.08-1.83,0-.15,0-.31,0-.46,0-.56,0-1.12,0-1.69v-.1s0-.09,0-.14a1.28,1.28,0,0,1,0-.19c0-.3,0-.6,0-.91s.06-.86.1-1.3.06-.64.1-1v-.07c0-.39.1-.78.16-1.18l.06-.43,0-.18c0-.13,0-.26.06-.39.11-.65.22-1.3.36-2,.07-.35.15-.72.24-1.07s.14-.63.22-.94.12-.48.19-.73.1-.36.15-.54L2,71.37q.57-1.89,1.29-3.78l.18-.46c0-.11.08-.22.13-.33q.25-.64.54-1.29c.06-.16.14-.32.21-.48.2-.46.41-.91.62-1.36.07-.16.15-.34.23-.5s.19-.39.29-.58a61.7,61.7,0,0,1,4.25-7.25l.36-.54.56-.79,0,0c.44-.63.9-1.24,1.37-1.86.21-.27.41-.54.63-.8a2.27,2.27,0,0,1,.18-.25l.63-.77c.74-.91,1.5-1.8,2.3-2.68l.57-.62.52-.56.54-.56.84-.87c.56-.57,1.14-1.13,1.73-1.68.27-.27.55-.53.83-.78,1.39-1.28,2.83-2.52,4.35-3.72l.74-.59.27-.21c.35-.28.72-.55,1.08-.82l.72-.53c.48-.35,1-.7,1.46-1l.62-.43,1-.66L32,34l.79-.51c.89-.56,1.8-1.11,2.72-1.64.37-.22.74-.44,1.12-.65l1.23-.68.37-.2.81-.42c.24-.13.48-.26.73-.38l1.19-.6c.45-.23.91-.45,1.38-.67,1.09-.51,2.19-1,3.3-1.48a89.56,89.56,0,0,1,9.54-3.44l1.2-.35c.63.42,1.25.85,1.87,1.29h0A80.51,80.51,0,0,1,79,46,85.52,85.52,0,0,1,86.08,59.19Z"/><path class="cls-8" d="M90.19,62.52a110.16,110.16,0,0,1,4.32,12.06c.69,2.39,1.29,4.76,1.78,7.07,0,.14.06.29.09.42.2,1,.39,2,.56,3,.12.68.22,1.35.32,2s.22,1.56.31,2.32l0,.27c.09.8.17,1.6.23,2.39,0,.21,0,.43,0,.64h0c.1,1.38.16,2.72.17,4,.09,9-1.84,16.33-5.73,20.66-1.55.82-3.15,1.6-4.78,2.34l-2.08.92c-.76.32-1.52.63-2.29.93l-.12,0c-6.42.07-13.88-4.25-21-11.7Q60.33,108,58.62,106c-.35-.42-.69-.85-1-1.29q-2-2.52-3.88-5.34h0a104.7,104.7,0,0,1-8.9-16.41l0,0c-.14-.3-.26-.59-.39-.9-.83-1.95-1.59-3.9-2.29-5.83h0A102.8,102.8,0,0,1,39,65.81c-3.84-15.6-3.13-29.41,1.94-36.94l1.43-.56,12.79-5a19.9,19.9,0,0,1,3.07.94h0c7.42,2.89,15.5,10.3,22.5,20.7a103.21,103.21,0,0,1,8.74,15.9C89.7,61.38,90,61.94,90.19,62.52Z"/><path class="cls-9" d="M48.15,127.46c-20.61-1.13-38-10.83-45-27.3C-3.12,85.46.29,68.54,10.69,54a85.74,85.74,0,0,0,4.4,30.1C21.45,103.21,33.63,118.4,48.15,127.46Z"/><g class="cls-10"><polygon class="cls-11" points="28.56 101.71 35.36 98.82 27.44 89.62 28.56 101.71"/><rect class="cls-11" x="30.24" y="98.58" width="7.45" height="8.89" transform="translate(-54.65 40.45) rotate(-36.52)"/><rect class="cls-11" x="37.25" y="97.68" width="10.24" height="7.7" transform="translate(-52.11 45.16) rotate(-36.52)"/><rect class="cls-11" x="40.91" y="103.74" width="10.24" height="5.48" transform="translate(-54.33 48.31) rotate(-36.52)"/><rect class="cls-11" x="48.86" y="104.54" width="3.45" height="4.65" transform="translate(-53.67 51.1) rotate(-36.52)"/><rect class="cls-11" x="51.07" y="108.2" width="3.45" height="3.31" transform="translate(-55.01 53) rotate(-36.52)"/><polygon class="cls-11" points="53.39 108.19 66.34 102.68 53.98 91.58 53.39 108.19"/><rect class="cls-11" x="53.04" y="110.21" width="3.45" height="4.65" transform="translate(-56.22 54.7) rotate(-36.52)"/><rect class="cls-11" x="53.71" y="103.53" width="13.07" height="6.87" transform="translate(-51.83 56.87) rotate(-36.52)"/><polygon class="cls-11" points="76.14 98.33 62.2 103.66 73.67 112.74 76.14 98.33"/><polygon class="cls-11" points="65.74 102.66 82.19 96.36 68.58 85.45 65.74 102.66"/><polygon class="cls-11" points="75.01 99.02 90.68 90.98 89.71 108.4 75.01 99.02"/><polygon class="cls-11" points="82.51 97.79 96.63 90.56 81.8 79.01 82.51 97.79"/><polygon class="cls-11" points="109.15 67.84 102.35 70.73 101.23 58.64 109.15 67.84"/><rect class="cls-11" x="102.61" y="68.21" width="7.44" height="8.89" transform="translate(223.19 126.79) rotate(170.51)"/><rect class="cls-11" x="94.31" y="73.81" width="10.24" height="7.7" transform="translate(210.3 137.86) rotate(170.51)"/><rect class="cls-11" x="95.33" y="80.99" width="10.24" height="5.48" transform="translate(213.33 149.76) rotate(170.51)"/><rect class="cls-11" x="95.83" y="84.95" width="3.45" height="4.65" transform="translate(208.18 157.27) rotate(170.51)"/><rect class="cls-11" x="96.45" y="89.29" width="3.45" height="3.31" transform="translate(210 164.45) rotate(170.51)"/><rect class="cls-11" x="97.01" y="91.9" width="3.45" height="4.65" transform="translate(211.66 170.88) rotate(170.51)"/><rect class="cls-11" x="84.39" y="90.86" width="13.07" height="6.87" transform="translate(196.15 172.32) rotate(170.51)"/><path class="cls-11" d="M53.31,77.58c-.78,2.82-3.65,4.71-7.39,5.3a17,17,0,0,1-3.54.18A20.1,20.1,0,0,1,38,82.33l-.24-.07c-7.06-2-11.73-7.34-10.45-11.91s8.15-6.75,15.34-4.76a20.68,20.68,0,0,1,4.53,1.86,15.8,15.8,0,0,1,3.94,3.09,11.43,11.43,0,0,1,1,1.33A6.91,6.91,0,0,1,53.31,77.58Z"/><path class="cls-11" d="M57.12,78.25c1.69,2.17.83,4-1.92,4.18l-4.29.21L44.15,83a38.11,38.11,0,0,1-4.68-.22L38,82.33l-.08,0A37.7,37.7,0,0,1,40.41,78l4.05-6.37c1.48-2.32,3.34-3.78,4.14-3.25a25.13,25.13,0,0,1,3,2.79l3.6,4.6Z"/><path class="cls-11" d="M73.61,66.3c2.48,1.82,6.07,1.52,9.55-.43a18.09,18.09,0,0,0,3-2.15,21.71,21.71,0,0,0,3.18-3.47l.15-.21c4.5-6.28,4.91-13.69.88-16.64s-11.12-.27-15.76,6.05a21.45,21.45,0,0,0-2.53,4.48A16.48,16.48,0,0,0,70.87,59a11.75,11.75,0,0,0,0,1.78A7.27,7.27,0,0,0,73.61,66.3Z"/><path class="cls-11" d="M70.9,69.58c0,2.75,1.85,3.7,4.09,2.11l4.1-2.92,5.59-4a40.48,40.48,0,0,0,3.72-3.22l1-1.32,0-.07a36.61,36.61,0,0,0-4.62-1.8l-8-2.79c-2.59-.91-5-.87-5.28.09a25.39,25.39,0,0,0-.68,4.25c0,.49,0,3.14,0,5.89Z"/></g><g class="cls-12"><path class="cls-13" d="M14.82,62c-.55-.37-2.28,1.8-3.84,4.81A31.42,31.42,0,0,0,7.91,77.6,34,34,0,0,0,10,88.91c1.27,3.31,3,5.35,3.93,4.53s.77-3.48-.25-5.92A26.6,26.6,0,0,1,12,77.79a41.29,41.29,0,0,1,2-10.18C15,64.92,15.37,62.41,14.82,62Z"/></g><path class="cls-14" d="M83.86,136c-.47-1.9,1.64-4.52,4.67-5.81s6.39-.8,7.45,1.09a24.85,24.85,0,0,1,2.44,6.47c.28,1.67-1.86,4-4.75,5.27s-6.09.93-7.11-.66A25.32,25.32,0,0,1,83.86,136Z"/><path class="cls-14" d="M94.86,132A9.87,9.87,0,0,1,98,121.33l4.05-3.08c3.07-2.33,7.2-2.12,9.2.46a24.56,24.56,0,0,1,4.18,10.82c.32,3.37-2.54,6.6-6.35,7.18l-4.79.72A9.07,9.07,0,0,1,94.86,132Z"/><path class="cls-14" d="M76.32,130.59a8.88,8.88,0,0,1,9.36,5.33,9.91,9.91,0,0,1-3.12,10.7l-4,3.07c-3.07,2.33-7.22,1.95-9.23-.86a31.24,31.24,0,0,1-4.65-10.63c-.55-3,2.12-6,5.92-6.66Z"/><path class="cls-15" d="M33.88,16.91,32.21,18,29.9,19.57A1,1,0,0,0,29.62,21l1.55,2.31,1.11,1.67.79,1.17a5.19,5.19,0,0,1,.68,1.83l.13,1a11.77,11.77,0,0,0,.46,1.93l.28.77a3,3,0,0,1,0,1.86l-.18.43A6.07,6.07,0,0,0,34,35.91v.46c0,.55.21.6.46.11L36.77,32a4.45,4.45,0,0,1,1.29-1.44l0,0a1,1,0,0,1,1.39.27l1.17,1.75a5.19,5.19,0,0,1,.68,1.83l.13,1c.07.55.13.55.15,0l.13-6.35c0-.55.4-.75.87-.46L51,34c.46.3.51.24.1-.13l-6.87-6.23c-.41-.37-.3-.76.24-.87l6.76-1.33c.54-.1.53-.23,0-.27l-6.73-.58a16.48,16.48,0,0,0-2,0l-2,.1a1.54,1.54,0,0,1-1.38-.88l-.57-1.37c-.21-.51-.59-1.33-.84-1.81l-1.93-3.72a.87.87,0,0,0-1.29-.33Z"/><path class="cls-16" d="M33.88,16.91,32.21,18,29.9,19.57A1,1,0,0,0,29.62,21l1.55,2.31,1.11,1.67.79,1.17a5.19,5.19,0,0,1,.68,1.83l.13,1a11.77,11.77,0,0,0,.46,1.93l.28.77a3,3,0,0,1,0,1.86l-.18.43A6.07,6.07,0,0,0,34,35.91v.46c0,.55.21.6.46.11L36.77,32a4.45,4.45,0,0,1,1.29-1.44l0,0a1,1,0,0,1,1.39.27l1.17,1.75a5.19,5.19,0,0,1,.68,1.83l.13,1c.07.55.13.55.15,0l.13-6.35c0-.55.4-.75.87-.46L51,34c.46.3.51.24.1-.13l-6.87-6.23c-.41-.37-.3-.76.24-.87l6.76-1.33c.54-.1.53-.23,0-.27l-6.73-.58a16.48,16.48,0,0,0-2,0l-2,.1a1.54,1.54,0,0,1-1.38-.88l-.57-1.37c-.21-.51-.59-1.33-.84-1.81l-1.93-3.72a.87.87,0,0,0-1.29-.33Z"/><path class="cls-15" d="M106.94,303.67a15.73,15.73,0,0,0,3-1.18l4.05-2.06a2.83,2.83,0,0,1,3.15.55l5.43,5.84a4.51,4.51,0,0,0,3.36,1.26l12.79-1.3c1.09-.11,1.14.09.1.45l-12.47,4.26c-1,.35-1.14,1.14-.22,1.75l3.28,2.17c.92.6,2.38,1.65,3.25,2.33l2.45,1.91c.87.68,2.26,1.82,3.1,2.54l4.61,4a13.27,13.27,0,0,1,2.48,3.06l1.67,3.07c.52,1,.22,1.23-.68.59L142,329.73a36.9,36.9,0,0,0-3.39-2.11L136,326.24a14.68,14.68,0,0,1-3.13-2.41l-1.36-1.46a17.22,17.22,0,0,0-3.08-2.49l-1.15-.68c-.94-.56-1.41-.18-1,.86l1.22,3.37a10.22,10.22,0,0,0,2.1,3.28l3.27,3.22a16.31,16.31,0,0,0,3.19,2.35l1.57.84a28,28,0,0,1,3.33,2.18l2.46,1.91a10.78,10.78,0,0,1,2.48,3l1.26,2.47c.5,1,.11,1.36-.86.84l-3.6-1.94c-1-.52-2.51-1.45-3.42-2.07l-2.3-1.57-3.31-2.24-.76-.51a15,15,0,0,1-2.88-2.69l-2.66-3.42a22.59,22.59,0,0,1-2.07-3.39l-.87-1.87c-.46-1-.58-.95-.25.1l3.44,11c.32,1.05.88,2.76,1.24,3.8l.76,2.25a30.35,30.35,0,0,0,1.6,3.65l1.67,3.07a11.23,11.23,0,0,1,1.13,3.75l.18,2.06c.1,1.09-.46,1.36-1.25.59l-3.27-3.22a10.44,10.44,0,0,1-2.1-3.29l-1.21-3.37c-.38-1-1-2.74-1.28-3.79L123.65,336c-.32-1-.82-2.78-1.1-3.84l-1.56-6c-.28-1.06-.47-1-.43.07l.4,10.29c.05,1.1.17,2.89.27,4l.67,7a16.34,16.34,0,0,1-.19,4l-.73,3.77c-.21,1.08-.6,1.09-.87,0L119,350.92a33,33,0,0,1-.68-3.93s-.33-3.51-.34-5.15-.42-8.45-.42-8.45c-.07-1.1-.28-2.88-.46-4l-.36-2.1c-.19-1.08-.56-2.84-.84-3.91l-.55-2.16a9.19,9.19,0,0,0-1.86-3.4l-1.87-2a14.21,14.21,0,0,1-2.17-3.29l-3-6.77C106,304.78,106.24,303.83,106.94,303.67Z"/><path class="cls-16" d="M106.94,303.67a15.73,15.73,0,0,0,3-1.18l4.05-2.06a2.83,2.83,0,0,1,3.15.55l5.43,5.84a4.51,4.51,0,0,0,3.36,1.26l12.79-1.3c1.09-.11,1.14.09.1.45l-12.47,4.26c-1,.35-1.14,1.14-.22,1.75l3.28,2.17c.92.6,2.38,1.65,3.25,2.33l2.45,1.91c.87.68,2.26,1.82,3.1,2.54l4.61,4a13.27,13.27,0,0,1,2.48,3.06l1.67,3.07c.52,1,.22,1.23-.68.59L142,329.73a36.9,36.9,0,0,0-3.39-2.11L136,326.24a14.68,14.68,0,0,1-3.13-2.41l-1.36-1.46a17.22,17.22,0,0,0-3.08-2.49l-1.15-.68c-.94-.56-1.41-.18-1,.86l1.22,3.37a10.22,10.22,0,0,0,2.1,3.28l3.27,3.22a16.31,16.31,0,0,0,3.19,2.35l1.57.84a28,28,0,0,1,3.33,2.18l2.46,1.91a10.78,10.78,0,0,1,2.48,3l1.26,2.47c.5,1,.11,1.36-.86.84l-3.6-1.94c-1-.52-2.51-1.45-3.42-2.07l-2.3-1.57-3.31-2.24-.76-.51a15,15,0,0,1-2.88-2.69l-2.66-3.42a22.59,22.59,0,0,1-2.07-3.39l-.87-1.87c-.46-1-.58-.95-.25.1l3.44,11c.32,1.05.88,2.76,1.24,3.8l.76,2.25a30.35,30.35,0,0,0,1.6,3.65l1.67,3.07a11.23,11.23,0,0,1,1.13,3.75l.18,2.06c.1,1.09-.46,1.36-1.25.59l-3.27-3.22a10.44,10.44,0,0,1-2.1-3.29l-1.21-3.37c-.38-1-1-2.74-1.28-3.79L123.65,336c-.32-1-.82-2.78-1.1-3.84l-1.56-6c-.28-1.06-.47-1-.43.07l.4,10.29c.05,1.1.17,2.89.27,4l.67,7a16.34,16.34,0,0,1-.19,4l-.73,3.77c-.21,1.08-.6,1.09-.87,0L119,350.92a33,33,0,0,1-.68-3.93s-.33-3.51-.34-5.15-.42-8.45-.42-8.45c-.07-1.1-.28-2.88-.46-4l-.36-2.1c-.19-1.08-.56-2.84-.84-3.91l-.55-2.16a9.19,9.19,0,0,0-1.86-3.4l-1.87-2a14.21,14.21,0,0,1-2.17-3.29l-3-6.77C106,304.78,106.24,303.83,106.94,303.67Z"/><path class="cls-15" d="M185.16,55.15a11.43,11.43,0,0,0-2.85.46l-2.47.67a1.87,1.87,0,0,1-2.34-1.44l-1.34-6.32a3.44,3.44,0,0,0-2.36-2.4l-7.6-1.72c-1.07-.24-1-.52,0-.62l8.55-.76a1.3,1.3,0,0,0,1.13-2l-1-2.13c-.48-1-1.18-2.65-1.57-3.68l-.66-1.75c-.39-1-1-2.73-1.32-3.77L170,25.46a14.76,14.76,0,0,1-.61-3.9v-3c0-1.1.36-1.17.8-.16l1.43,3.35a33.77,33.77,0,0,0,1.82,3.54l.72,1.18a13.91,13.91,0,0,1,1.45,3.66l.26,1.21A17,17,0,0,0,177.22,35l.1.18c.52,1,1.06.87,1.19-.22l.41-3.34a12.9,12.9,0,0,0-.25-3.92l-.84-3.29a16.15,16.15,0,0,0-1.53-3.64l-.25-.41a26.34,26.34,0,0,1-1.75-3.58L173.64,15a12.14,12.14,0,0,1-.65-3.87l.06-2.41c0-1.1.52-1.23,1.09-.29l1.18,1.94a39.68,39.68,0,0,1,1.87,3.53l.61,1.34c.46,1,1.21,2.62,1.67,3.6a15.83,15.83,0,0,1,1.09,3.77L181,26.1a25.2,25.2,0,0,1,.16,4l-.09,1.77c-.06,1.1,0,1.11.19,0l1.7-11c.16-1.08.42-2.87.57-4l.29-2.19a37.83,37.83,0,0,0,.28-4v-3a15.7,15.7,0,0,1,.61-3.91l.62-2c.33-1,.82-1,1.09,0l.83,3.28A12.65,12.65,0,0,1,187.51,9l-.4,3.33c-.13,1.09-.38,2.88-.55,4l-.67,4.39c-.16,1.08-.47,2.86-.67,3.94l-1.12,5.94c-.21,1.08-.07,1.12.29.08L187.81,21c.37-1,.93-2.74,1.26-3.8l2.06-6.7a24.61,24.61,0,0,1,1.55-3.67l1.81-3.3c.53-1,.79-.87.58.21L194.23,8c-.22,1.08-.65,2.82-1,3.87,0,0-1,3.36-1.62,4.9s-2.74,8-2.74,8c-.35,1-.86,2.77-1.13,3.83l-.51,2c-.27,1.06-.66,2.82-.86,3.9l-.41,2.1a12,12,0,0,0,0,3.92l.39,1.84a17.53,17.53,0,0,1,.28,4l-.47,6.9C186.15,54.31,185.67,55.18,185.16,55.15Z"/><path class="cls-16" d="M185.16,55.15a11.43,11.43,0,0,0-2.85.46l-2.47.67a1.87,1.87,0,0,1-2.34-1.44l-1.34-6.32a3.44,3.44,0,0,0-2.36-2.4l-7.6-1.72c-1.07-.24-1-.52,0-.62l8.55-.76a1.3,1.3,0,0,0,1.13-2l-1-2.13c-.48-1-1.18-2.65-1.57-3.68l-.66-1.75c-.39-1-1-2.73-1.32-3.77L170,25.46a14.76,14.76,0,0,1-.61-3.9v-3c0-1.1.36-1.17.8-.16l1.43,3.35a33.77,33.77,0,0,0,1.82,3.54l.72,1.18a13.91,13.91,0,0,1,1.45,3.66l.26,1.21A17,17,0,0,0,177.22,35l.1.18c.52,1,1.06.87,1.19-.22l.41-3.34a12.9,12.9,0,0,0-.25-3.92l-.84-3.29a16.15,16.15,0,0,0-1.53-3.64l-.25-.41a26.34,26.34,0,0,1-1.75-3.58L173.64,15a12.14,12.14,0,0,1-.65-3.87l.06-2.41c0-1.1.52-1.23,1.09-.29l1.18,1.94a39.68,39.68,0,0,1,1.87,3.53l.61,1.34c.46,1,1.21,2.62,1.67,3.6a15.83,15.83,0,0,1,1.09,3.77L181,26.1a25.2,25.2,0,0,1,.16,4l-.09,1.77c-.06,1.1,0,1.11.19,0l1.7-11c.16-1.08.42-2.87.57-4l.29-2.19a37.83,37.83,0,0,0,.28-4v-3a15.7,15.7,0,0,1,.61-3.91l.62-2c.33-1,.82-1,1.09,0l.83,3.28A12.65,12.65,0,0,1,187.51,9l-.4,3.33c-.13,1.09-.38,2.88-.55,4l-.67,4.39c-.16,1.08-.47,2.86-.67,3.94l-1.12,5.94c-.21,1.08-.07,1.12.29.08L187.81,21c.37-1,.93-2.74,1.26-3.8l2.06-6.7a24.61,24.61,0,0,1,1.55-3.67l1.81-3.3c.53-1,.79-.87.58.21L194.23,8c-.22,1.08-.65,2.82-1,3.87,0,0-1,3.36-1.62,4.9s-2.74,8-2.74,8c-.35,1-.86,2.77-1.13,3.83l-.51,2c-.27,1.06-.66,2.82-.86,3.9l-.41,2.1a12,12,0,0,0,0,3.92l.39,1.84a17.53,17.53,0,0,1,.28,4l-.47,6.9C186.15,54.31,185.67,55.18,185.16,55.15Z"/><path class="cls-2" d="M63.26,161.75a.63.63,0,0,1,1.12.11l7.44,13.6a8.6,8.6,0,0,1,.7,1.85l7.61,33.46c.12.53.36,1.4.54,1.92l9,26.09c.18.52.47,1.37.66,1.89l7.3,20.08c.19.52.54,1.35.77,1.84l10.58,22.11c.24.5.67,1.29,1,1.75l10,16a.9.9,0,0,1-.36,1.3l-11,5.58a1.1,1.1,0,0,1-1.4-.41L90.82,281.4c-.29-.47-.73-1.26-1-1.74l-9-16.74a15.6,15.6,0,0,1-.8-1.83l-7.73-22.52c-.18-.52-.47-1.37-.64-1.89l-5.53-16.59a16.64,16.64,0,0,1-.48-1.94L61.4,192l-.32-2-1.87-11.5a11.07,11.07,0,0,1-.11-2l.54-9.43a3.6,3.6,0,0,1,.7-1.77Z"/><path class="cls-2" d="M137.11,146.6a1.48,1.48,0,0,0,1.17,1.13L166.74,152c.55.08,1.44.18,2,.23l11.54,1,2,.17,10.77.86a3.79,3.79,0,0,0,1.87-.41l2.36-1.34a2.08,2.08,0,0,0,.94-1.49l.42-6.58a14.67,14.67,0,0,0,0-2l-1-12.09c-.05-.54-.13-1.44-.18-2l-3-31.05c-.05-.55-.17-1.44-.27-2l-4.61-25.91c-.09-.54-.26-1.43-.36-2l-2.61-14.05a.92.92,0,0,0-1.15-.73l-7.53,1.91a1.17,1.17,0,0,0-.85,1.24l2.45,19.51c.07.55.18,1.44.26,2L182,94c.07.54.15,1.44.17,2l.6,14.73c0,.55.07,1.45.12,2l1,13.26c0,.55.11,1.45.14,2l.81,11.63a.75.75,0,0,1-.91.84l-16.67-2.7a18.67,18.67,0,0,0-2-.18l-15.89-.44c-.55,0-1.45-.06-2-.1l-7.2-.54a13.22,13.22,0,0,0-2,0l-1.85.19a.93.93,0,0,0-.82,1.09Z"/></g></svg>
