<svg xmlns="http://www.w3.org/2000/svg" width="522.27" height="436.55" viewBox="0 0 522.27 436.55"><defs><style>.cls-1{fill:#d83f32;}.cls-2{fill:#e5e5e5;}.cls-3{fill:#bab4af;}.cls-4{fill:#9d6b53;}.cls-5{fill:#ede8e8;}.cls-6{fill:#513826;}.cls-7{fill:#191919;}.cls-8{fill:#377e62;}.cls-9{fill:#e2d681;}.cls-10{fill:#f5a631;}.cls-11{fill:#51271d;}</style></defs><title>kane</title><g id="Layer_4" data-name="Layer 4"><path class="cls-1" d="M307.57,140.83c-11,0-23.38,4.63-27.52,10.3s-7.51,17.48-7.51,26.25S273.21,199,274,206a136.07,136.07,0,0,0,3.61,19.28c1.16,3.65,6.84,6.65,12.62,6.65h58.92c7.44,0,14.88-4.19,16.53-9.31a141.6,141.6,0,0,0,4.51-22.93,118.39,118.39,0,0,0-.6-26.59c-1.16-7.13-4.81-17.3-8.11-22.6s-15-9.63-26-9.63Z"/><path class="cls-1" d="M285.87,154.34a148,148,0,0,0-8.6,21.59c-1.77,6.1-4.37,14.42-5.78,18.47s-6.07,5.9-10.38,4.08-5.21-10.5-2-19.3,9.12-18.91,13.14-22.47A91.56,91.56,0,0,1,285.39,147C288.61,145.28,288.82,148.57,285.87,154.34Z"/><path class="cls-1" d="M348.82,144.53c1.45,2.07,4.46,8.55,6.7,14.41s8.23,17.39,13.31,25.62,12.66,13,16.84,10.5,3.8-9.92-.84-16.59-12.08-17-16.52-22.94-11.23-11.7-15.09-12.78S347.37,142.47,348.82,144.53Z"/><path class="cls-2" d="M303.33,110.84c-11-.34-21.18,2.32-22.63,5.89s-2.09,8.64-1.4,11.25,2.57,3.88,4.19,2.82,2,.51.78,3.51a36.83,36.83,0,0,0-2.18,11.43c0,3.28,1.68,4.95,3.73,3.69a43.56,43.56,0,0,0,5.59-4c1-1,.12,1.8-2,6.15s-2.13,10,0,12.66,5.5,2.61,7.46,0,2.73.94,1.71,7.91,1.14,9.09,4.81,4.74,6.68-3.24,6.68,2.46,2.87,6.58,6.37,1.94,7.49-4.64,8.86,0,4.23,4.64,6.36,0,5.15-4.64,6.68,0,2.8,3.85,2.8-1.76,1.68-9.17,3.73-7.91,3.24.07,2.64-2.64.1-4.21,1.55-3.34,3.69,0,5-1.93.58-5.18-1.55-7.21-1.72-2.82.93-1.76,5.65-.75,6.68-4-1.35-8.27-5.28-11.08-3.51-3.91.93-2.46,8.08-1.31,8.08-6.15-3.43-10-7.61-11.6-4.19-2.42,0-1.93,7.61-.39,7.61-1.94-9-3.09-20-3.42Z"/><path class="cls-1" d="M284.33,108c.46,6.06,8.5,10.43,17.87,9.71l37-2.82,1.53-.12c11-.83,19.47-7.68,18.9-15.21a135.51,135.51,0,0,0-6.21-28.42c-2.83-8.09-6.94-18.36-9.13-22.81a80.24,80.24,0,0,1-5.67-17c-.93-4.91.75-10.63,3.74-12.71s9-2.68,13.33-1.35,9.61.93,11.69-.9,1.29-6.14-1.74-9.6S354.07.91,346.73,1.47,328.7,4.66,323,7.31s-11.6,8.7-13.08,13.43a147.92,147.92,0,0,1-7.67,18.39A173.23,173.23,0,0,0,293.5,61c-2.08,6.63-5.19,17.44-6.9,24A84.58,84.58,0,0,0,284.33,108Z"/><path class="cls-3" d="M314.13,121.24c4.84-1.54,4.56-3.7-.63-4.8a103.22,103.22,0,0,0-17.61-2,83.13,83.13,0,0,0-16.36,2c-4.49,1.1-5.63,3.26-2.51,4.8s10.75,2.8,17,2.8A80.37,80.37,0,0,0,314.13,121.24Z"/><path class="cls-3" d="M329.48,120.47c-2.86-2-2.57-4.38.65-5.36s11.11-1.79,17.55-1.79,13.75,1.21,16.25,2.68,2.51,3.89,0,5.36S354,124,347.38,124h-.7C340.08,124,332.34,122.43,329.48,120.47Z"/><circle class="cls-4" cx="322.6" cy="119.68" r="12.39"/><path class="cls-5" d="M318.48,221c.11,3.3,2.15,6,4.52,6s4.32-2.7,4.34-6l.25-40c0-3.3-2.38-5.85-5.32-5.67s-5.27,3-5.16,6.33Z"/><path class="cls-6" d="M276.5,209.79a1.69,1.69,0,0,0-1.72,2l.31,2.11a2.61,2.61,0,0,0,2.28,2.12l13.43,1c1.09.08,2.89.15,4,.15h44.9c1.1,0,2.9-.09,4-.19l10.09-1c1.09-.11,2.89-.25,4-.32l8.43-.57a2.69,2.69,0,0,0,2.35-2.1l.23-1.25a1.62,1.62,0,0,0-1.65-2Z"/><path class="cls-5" d="M255.51,193.53c-.23-2.19,2.16-4.77,5.32-5.74l7.82-2.38c3.15-1,5.66,0,5.56,2.22s-2.73,4.82-5.87,5.84l-6.7,2.18C258.5,196.68,255.75,195.72,255.51,193.53Z"/><path class="cls-5" d="M376.59,190.2c-3.1-1.15-5.5-3.78-5.35-5.84s3-3.48,6.25-3.14l2.41.25c3.28.34,6.71,1.25,7.63,2a11.38,11.38,0,0,0,2.1,1.52c.25.06.16,2.27-.2,4.91s-3.18,3.86-6.27,2.71Z"/><path class="cls-1" d="M303.4,223.85c-6.69,0-11.36,6.45-10.38,14.33s5.25,14.34,9.49,14.34,8.9-6.45,10.37-14.34S310.09,223.85,303.4,223.85Z"/><path class="cls-1" d="M341.88,225c-6.94,0-11.66,6.68-10.48,14.84l.11.77c1.18,8.17,6.06,14.85,10.85,14.85s9.47-6.71,10.4-14.91l.07-.65C353.76,231.68,348.83,225,341.88,225Z"/><path class="cls-6" d="M368.92,189.52c-4.73,3.7-8.28,7.58-7.89,8.62a1.87,1.87,0,0,0,2.26,1.31,19.53,19.53,0,0,0,4-2.57c1.37-1.09.92-.12-1,2.15l-5.21,6.2a3.79,3.79,0,0,0,.25,4.55,10.91,10.91,0,0,0,4.76,3.25,12.32,12.32,0,0,0,6.24-.52,21,21,0,0,0,6.93-5.4,74.34,74.34,0,0,0,5.89-8.24,26,26,0,0,0,2.86-6.77c.25-1.46-1.06-3.71-2.91-5a49.1,49.1,0,0,0-5.51-3.33C378.47,183.24,373.64,185.82,368.92,189.52Z"/><path class="cls-7" d="M331.92,243.48a56.23,56.23,0,0,1,.47,7.67V252a3.93,3.93,0,0,0,3.93,4h25.5c2.2,0,4-1.27,4-2.82a4.69,4.69,0,0,0-2.68-4,11.77,11.77,0,0,0-5.7-.56,15.48,15.48,0,0,1-4.35.28c-.74-.16-1.17-1.58-1-3.17s.45-3.58.55-4.43-1.63-1.54-3.83-1.54H335.39A3.26,3.26,0,0,0,331.92,243.48Z"/><path class="cls-7" d="M309.07,237.21a3.26,3.26,0,0,1,3.32,3.94l-.42,2.43c-.37,2.17-.77,5.74-.89,7.94l0,.49a4.29,4.29,0,0,1-4.22,4h-22.1c-2.2,0-4-1.33-4-2.95s.77-3.22,1.71-3.54a7.29,7.29,0,0,1,3.77,0c1.13.32,2.66.72,3.42.88a4.82,4.82,0,0,0,3.08-.88,3.43,3.43,0,0,0,1.11-3.47,40,40,0,0,1-.85-4.43l-.37-3.27c-.07-.62,1.67-1.13,3.87-1.13Z"/><path class="cls-5" d="M288.63,225.12c-6.05,0-11.51.82-12.13,1.74a6.71,6.71,0,0,0-1.12,3c0,.73,1.2,1.49,2.68,1.67s4.71.34,7.2.34H295c2.85,0,7.72,0,10.82.05s7.77.06,10.38.06h20.07l15.85-.05,2.72,0c6.05,0,11-.8,11-1.72a24.29,24.29,0,0,0-.37-3.63c-.21-1.08-5.33-1.92-11.38-1.89Z"/><path class="cls-8" d="M217.1,223a9.19,9.19,0,0,1-9.9,9.36l-30.46-1.92a10.84,10.84,0,0,1-10-10.64v-38.9a9.5,9.5,0,0,1,10-9.55l29.92,1.32a10.69,10.69,0,0,1,10.08,10.44Z"/><path class="cls-8" d="M234.73,179.89a8.79,8.79,0,0,0-10-8.8l-6.64.8a11.53,11.53,0,0,0-9.89,11.19l.15,39.89a8.54,8.54,0,0,0,9.94,8.64l7.11-1a11.68,11.68,0,0,0,9.8-11.36Z"/><path class="cls-8" d="M218.26,172.27a128.47,128.47,0,0,1-19.9.73l-21.61-1.24c-5.49-.32-5.54-1.27-.11-2.13l7.17-1.13a103,103,0,0,1,19.85-.78l21,1.63c5.49.43,5.51,1.36.06,2.08Z"/><polygon class="cls-9" points="185.07 230.94 185.07 171.85 188.74 171.85 188.74 231.17 185.07 230.94"/><polygon class="cls-9" points="167.08 196.97 208.66 199.81 208.44 203.98 166.86 201.14 167.08 196.97"/><polygon class="cls-9" points="188.74 171.85 185.07 171.85 208.34 168.42 212 168.42 188.74 171.85"/><polygon class="cls-9" points="222.56 171.36 224.71 171.12 185.07 168.17 182.49 168.42 222.56 171.36"/><polyline class="cls-9" points="222.56 171.36 222.56 231 224.71 230.51 224.71 171.12"/><polygon class="cls-9" points="208.34 200.08 234.62 197.38 234.62 201.06 208.34 204 208.34 200.08"/><path class="cls-9" d="M216.5,169.84c1,.08,1.78.71,1.78,1.39a1.06,1.06,0,0,1-1.41,1,24.15,24.15,0,0,0-3.19-.37,36.41,36.41,0,0,1-3.65-.37,15.27,15.27,0,0,1-3.19-.87c-.72-.33-1.61-2-2-3.74a26.09,26.09,0,0,1-.37-6.59,12.23,12.23,0,0,1,2.09-5.63c1-1.21,2.55-1.67,3.5-1a6.67,6.67,0,0,1,2.09,4.18,11.75,11.75,0,0,1-1.46,6.14,15,15,0,0,1-4.7,4.76,13.2,13.2,0,0,1-3.87,1.61,9,9,0,0,1-3.08-1.17,10.6,10.6,0,0,1-3.5-4.39,28.33,28.33,0,0,1-1.83-6.44c-.23-1.77.19-3.82.94-4.54a6.32,6.32,0,0,1,3.81-1.32c1.35,0,3,1.62,3.66,3.59a33.71,33.71,0,0,1,1.41,5.64,5.67,5.67,0,0,1-.37,2.92,14.21,14.21,0,0,1-1.93,2.13c-.75.68-1.8,1.64-2.35,2.12a7,7,0,0,1-2.45,1.24,33.74,33.74,0,0,1-4.24.59c-1.52.12-3.8.22-5.06.22s-2.23-.56-2.14-1.25a1.59,1.59,0,0,1,1.62-1.24c.8,0,2.3-.1,3.34-.22s2.65-.22,3.6-.22a7.26,7.26,0,0,0,3.19-.88,28.38,28.38,0,0,0,2.56-1.75A8.18,8.18,0,0,0,201,163.4c.32-.56.08-2.83-.52-5.05s-1.8-4-2.67-3.88a3.84,3.84,0,0,0-2.24.95c-.38.45-.4,1.93-.05,3.3a35.1,35.1,0,0,0,1.56,4.61,9.6,9.6,0,0,0,2.72,3.37,6.88,6.88,0,0,0,3,1.24,5.72,5.72,0,0,0,2.77-1.17,19.9,19.9,0,0,0,2.56-2.42,18.31,18.31,0,0,0,1.83-2.78,7.14,7.14,0,0,0,.41-3.73,4.58,4.58,0,0,0-1.15-2.64c-.43-.24-1.27.32-1.88,1.25a10.85,10.85,0,0,0-1.3,4.24,19.75,19.75,0,0,0,.52,5.42c.4,1.57,1.48,3,2.4,3.15a33.36,33.36,0,0,0,3.71.36C213.81,169.66,215.53,169.76,216.5,169.84Z"/><path class="cls-1" d="M143.35,217.86a8.68,8.68,0,0,0,9.89,8.85l30.56-3.53A11.53,11.53,0,0,0,193.73,212V124.37a9.09,9.09,0,0,0-10-9.19l-30,2.42a11.12,11.12,0,0,0-10,10.81Z"/><path class="cls-1" d="M125.81,122.57a7.77,7.77,0,0,1,9.83-7.85l7,1.54a13,13,0,0,1,9.75,12.15l-.18,89.45c0,5.5-4.39,8.91-9.72,7.58l-7.53-1.88a13.42,13.42,0,0,1-9.64-12.43Z"/><path class="cls-1" d="M142.43,117a69.82,69.82,0,0,0,19.67,1.29L183.78,116c5.47-.58,5.62-2.29.34-3.81L176.41,110a55.75,55.75,0,0,0-19.51-1.36l-21.13,3c-5.45.77-5.53,2.45-.18,3.74Z"/><polygon class="cls-9" points="175.42 224.16 175.42 116.16 171.76 116.16 171.76 224.58 175.42 224.16"/><polygon class="cls-9" points="193.41 162.07 151.83 167.27 152.05 174.88 193.63 169.69 193.41 162.07"/><polygon class="cls-9" points="171.75 116.16 175.42 116.16 152.15 109.88 148.49 109.88 171.75 116.16"/><polygon class="cls-9" points="137.93 115.27 135.78 114.82 175.42 109.44 178 109.88 137.93 115.27"/><polyline class="cls-9" points="137.93 115.27 137.93 224.28 135.78 223.38 135.78 114.82"/><polygon class="cls-9" points="152.15 167.75 125.87 162.82 125.87 169.55 152.15 174.93 152.15 167.75"/><path class="cls-9" d="M144,112.49a2.49,2.49,0,0,0-1.78,2.54c0,1.25.64,2,1.41,1.74a13.84,13.84,0,0,1,3.19-.67,21.34,21.34,0,0,0,3.65-.67,10.61,10.61,0,0,0,3.19-1.6c.72-.59,1.61-3.66,2-6.83A88.21,88.21,0,0,0,156,95a35.32,35.32,0,0,0-2.09-10.3c-1-2.21-2.55-3-3.5-1.87s-1.89,4.61-2.09,7.62a36.46,36.46,0,0,0,1.47,11.24,26.2,26.2,0,0,0,4.7,8.7c1.58,1.62,3.32,2.94,3.86,2.94s1.94-1,3.08-2.14,2.73-4.79,3.5-8a87.12,87.12,0,0,0,1.83-11.77c.23-3.24-.19-7-.94-8.3a5,5,0,0,0-3.81-2.4c-1.35,0-3,2.95-3.66,6.55s-1.29,8.24-1.41,10.3a18.51,18.51,0,0,0,.37,5.36,27.66,27.66,0,0,0,1.93,3.88c.75,1.25,1.81,3,2.35,3.88a6.87,6.87,0,0,0,2.46,2.27,19.36,19.36,0,0,0,4.23,1.07,43.16,43.16,0,0,0,5.06.4,2.12,2.12,0,0,0,2.15-2.27c-.09-1.25-.82-2.28-1.62-2.28a19.82,19.82,0,0,1-3.35-.4,20.87,20.87,0,0,0-3.6-.4,5.11,5.11,0,0,1-3.19-1.61,36.32,36.32,0,0,1-2.56-3.21,15.71,15.71,0,0,1-1.67-3.48c-.31-1-.08-5.18.52-9.23s1.81-7.24,2.67-7.09a3.42,3.42,0,0,1,2.24,1.74c.38.81.4,3.52.06,6s-1.05,6.3-1.57,8.43a19.63,19.63,0,0,1-2.72,6.16c-1,1.25-2.34,2.27-3,2.27s-1.93-1-2.77-2.14a33.4,33.4,0,0,1-2.55-4.42,40.6,40.6,0,0,1-1.83-5.08,23.29,23.29,0,0,1-.42-6.82c.2-2.21.72-4.38,1.15-4.82s1.28.58,1.88,2.27a32.85,32.85,0,0,1,1.3,7.76,65,65,0,0,1-.52,9.9c-.4,2.87-1.48,5.46-2.4,5.76a19.59,19.59,0,0,1-3.71.67C146.68,112.16,145,112.34,144,112.49Z"/><path class="cls-1" d="M73.43,85.22a9.19,9.19,0,0,0,9.89,9.37l30.46-1.93a10.82,10.82,0,0,0,10-10.63V43.13a9.51,9.51,0,0,0-10-9.56L83.85,34.9A10.68,10.68,0,0,0,73.78,45.34Z"/><path class="cls-1" d="M55.8,42.15a8.8,8.8,0,0,1,10-8.81l6.63.8a11.55,11.55,0,0,1,9.89,11.2l-.14,39.88a8.55,8.55,0,0,1-9.94,8.65l-7.12-1a11.66,11.66,0,0,1-9.79-11.35Z"/><path class="cls-1" d="M72.27,34.53a129.68,129.68,0,0,0,19.9.73L113.78,34c5.49-.32,5.54-1.28.11-2.13l-7.18-1.13A102.11,102.11,0,0,0,86.86,30l-21,1.63c-5.48.42-5.51,1.36-.05,2.07Z"/><polygon class="cls-9" points="105.45 93.19 105.45 34.11 101.79 34.11 101.79 93.42 105.45 93.19"/><polygon class="cls-9" points="123.45 59.23 81.87 62.07 82.08 66.23 123.67 63.39 123.45 59.23"/><polygon class="cls-9" points="101.79 34.11 105.45 34.11 82.19 30.68 78.52 30.68 101.79 34.11"/><polygon class="cls-9" points="67.97 33.62 65.81 33.38 105.45 30.43 108.04 30.68 67.97 33.62"/><polyline class="cls-9" points="67.97 33.62 67.97 93.26 65.81 92.77 65.81 33.38"/><polygon class="cls-9" points="82.19 62.34 55.9 59.63 55.9 63.32 82.19 66.26 82.19 62.34"/><path class="cls-9" d="M74,32.1c-1,.08-1.77.71-1.77,1.39s.63,1.11,1.41.95a24.07,24.07,0,0,1,3.18-.36c1,0,2.63-.21,3.66-.37a15.42,15.42,0,0,0,3.19-.88c.71-.32,1.61-2,2-3.73A26.59,26.59,0,0,0,86,22.51,12.42,12.42,0,0,0,84,16.88c-1-1.21-2.55-1.67-3.5-1A6.62,6.62,0,0,0,78.36,20a11.79,11.79,0,0,0,1.46,6.15,15.16,15.16,0,0,0,4.7,4.76,13.39,13.39,0,0,0,3.87,1.61,9.24,9.24,0,0,0,3.08-1.17A10.75,10.75,0,0,0,95,27a28.41,28.41,0,0,0,1.83-6.45c.23-1.77-.2-3.81-.94-4.53A6.29,6.29,0,0,0,92,14.68c-1.35,0-3,1.61-3.65,3.59A33.63,33.63,0,0,0,87,23.9a5.71,5.71,0,0,0,.36,2.93A15,15,0,0,0,89.28,29c.74.69,1.8,1.64,2.35,2.13a6.91,6.91,0,0,0,2.45,1.24,35.81,35.81,0,0,0,4.23.59c1.53.12,3.81.21,5.07.21s2.23-.56,2.14-1.24a1.59,1.59,0,0,0-1.62-1.24c-.8,0-2.31-.1-3.34-.22S97.9,30.2,97,30.2a7.35,7.35,0,0,1-3.18-.88,25.27,25.27,0,0,1-2.56-1.76,7.71,7.71,0,0,1-1.67-1.9c-.32-.56-.08-2.84.52-5.05s1.8-4,2.66-3.88a3.84,3.84,0,0,1,2.25.95c.37.44.4,1.93,0,3.29a33.83,33.83,0,0,1-1.57,4.62A9.43,9.43,0,0,1,90.74,29a6.79,6.79,0,0,1-3,1.25A5.68,5.68,0,0,1,84.94,29a20.65,20.65,0,0,1-2.56-2.42,18.06,18.06,0,0,1-1.83-2.78,7.16,7.16,0,0,1-.42-3.73,4.61,4.61,0,0,1,1.15-2.64c.43-.24,1.28.32,1.88,1.25A10.8,10.8,0,0,1,84.47,23,20.15,20.15,0,0,1,84,28.37c-.4,1.57-1.49,3-2.41,3.14a30.66,30.66,0,0,1-3.7.37C76.72,31.92,75,32,74,32.1Z"/><path class="cls-8" d="M63.65,86a9.2,9.2,0,0,1-9.9,9.37l-13.29-.84a10.83,10.83,0,0,1-10-10.63V65a9.5,9.5,0,0,1,10-9.56L53.4,56A10.69,10.69,0,0,1,63.48,66.45Z"/><path class="cls-8" d="M75.34,64.35c-.06-5.5-4-9.53-8.84-8.95S57.78,61,57.8,66.45L57.87,86c0,5.5,4,9.45,8.91,8.79S75.61,89,75.55,83.52Z"/><path class="cls-8" d="M66.57,55.64a119.58,119.58,0,0,1-18.65.56l-7.46-.42c-5.49-.32-6-1.21-1.1-2a98.24,98.24,0,0,1,18.85-.62l7.06.55C70.75,54.16,71.34,55,66.57,55.64Z"/><polygon class="cls-9" points="42.55 94.61 42.55 55.64 44.97 55.64 44.97 94.76 42.55 94.61"/><polygon class="cls-9" points="30.68 72.21 58.11 74.08 57.97 76.83 30.54 74.96 30.68 72.21"/><polygon class="cls-9" points="44.97 55.64 42.55 55.64 57.9 53.38 60.32 53.38 44.97 55.64"/><polygon class="cls-9" points="67.28 55.32 68.7 55.16 42.55 53.22 40.85 53.38 67.28 55.32"/><polyline class="cls-9" points="67.28 55.32 67.28 94.66 68.7 94.33 68.7 55.16"/><polygon class="cls-9" points="57.9 74.26 75.24 72.48 75.24 74.91 57.9 76.85 57.9 74.26"/><path class="cls-9" d="M63.29,54.32c.64,0,1.17.46,1.17.91a.7.7,0,0,1-.93.63,17.83,17.83,0,0,0-2.11-.24c-.64,0-1.72-.13-2.41-.24a10.57,10.57,0,0,1-2.1-.58,4.08,4.08,0,0,1-1.31-2.46A17.86,17.86,0,0,1,55.36,48a8,8,0,0,1,1.38-3.71,1.85,1.85,0,0,1,2.31-.68,4.43,4.43,0,0,1,1.38,2.75,7.83,7.83,0,0,1-1,4.06,9.86,9.86,0,0,1-3.1,3.13,8.64,8.64,0,0,1-2.55,1.07,6,6,0,0,1-2-.78,7,7,0,0,1-2.31-2.89,19.39,19.39,0,0,1-1.21-4.25,4.12,4.12,0,0,1,.62-3,4.17,4.17,0,0,1,2.52-.87c.89,0,2,1.06,2.41,2.36a21.67,21.67,0,0,1,.93,3.72,3.7,3.7,0,0,1-.24,1.93,9.39,9.39,0,0,1-1.28,1.4l-1.55,1.4a4.46,4.46,0,0,1-1.61.82,23,23,0,0,1-2.8.39c-1,.08-2.5.14-3.34.14s-1.47-.37-1.41-.82a1.06,1.06,0,0,1,1.07-.82c.53,0,1.52-.06,2.2-.14s1.75-.15,2.38-.15a4.78,4.78,0,0,0,2.1-.58A19,19,0,0,0,52,51.32a5.1,5.1,0,0,0,1.1-1.25,7.14,7.14,0,0,0-.34-3.33c-.4-1.46-1.19-2.61-1.76-2.56a2.47,2.47,0,0,0-1.48.63,3.22,3.22,0,0,0,0,2.17,23.56,23.56,0,0,0,1,3,6.32,6.32,0,0,0,1.79,2.22,4.48,4.48,0,0,0,2,.82,3.77,3.77,0,0,0,1.82-.77,13.7,13.7,0,0,0,1.69-1.59A12.44,12.44,0,0,0,59,48.86a4.67,4.67,0,0,0,.27-2.46,3,3,0,0,0-.75-1.74c-.29-.16-.85.21-1.24.82a7.21,7.21,0,0,0-.87,2.8,13.1,13.1,0,0,0,.35,3.57c.26,1,1,2,1.58,2.08a19.75,19.75,0,0,0,2.45.24C61.51,54.2,62.64,54.26,63.29,54.32Z"/><path class="cls-8" d="M158.06,110.73a9.19,9.19,0,0,1-9.89,9.37l-30.46-1.93a10.83,10.83,0,0,1-10-10.63V68.64a9.51,9.51,0,0,1,10-9.56l29.92,1.32a10.7,10.7,0,0,1,10.08,10.45Z"/><path class="cls-8" d="M175.7,67.66a8.8,8.8,0,0,0-10-8.81l-6.64.8a11.55,11.55,0,0,0-9.89,11.2l.14,39.88a8.56,8.56,0,0,0,9.95,8.65l7.11-1a11.66,11.66,0,0,0,9.8-11.35Z"/><path class="cls-8" d="M159.22,60a128.29,128.29,0,0,1-19.89.72l-21.62-1.24c-5.49-.31-5.53-1.27-.1-2.12l7.17-1.13a102.14,102.14,0,0,1,19.85-.78l21,1.63c5.48.42,5.51,1.36.06,2.07Z"/><polygon class="cls-9" points="126.04 118.7 126.04 59.62 129.7 59.62 129.7 118.93 126.04 118.7"/><polygon class="cls-9" points="108.05 84.74 149.63 87.58 149.41 91.74 107.83 88.9 108.05 84.74"/><polygon class="cls-9" points="129.7 59.62 126.04 59.62 149.31 56.18 152.97 56.18 129.7 59.62"/><polygon class="cls-9" points="163.53 59.13 165.68 58.88 126.04 55.94 123.46 56.18 163.53 59.13"/><polyline class="cls-9" points="163.53 59.13 163.53 118.77 165.68 118.28 165.68 58.88"/><polygon class="cls-9" points="149.31 87.84 175.59 85.14 175.59 88.83 149.31 91.77 149.31 87.84"/><path class="cls-9" d="M157.47,57.61c1,.08,1.78.7,1.78,1.39a1.06,1.06,0,0,1-1.41,1,24.15,24.15,0,0,0-3.19-.37c-1,0-2.62-.2-3.66-.36a15.31,15.31,0,0,1-3.18-.88c-.72-.32-1.61-2-2-3.73a26.12,26.12,0,0,1-.36-6.59,12.27,12.27,0,0,1,2.09-5.64c1-1.2,2.55-1.67,3.5-1a6.72,6.72,0,0,1,2.09,4.17,11.7,11.7,0,0,1-1.47,6.15,15.05,15.05,0,0,1-4.7,4.76,13.48,13.48,0,0,1-3.86,1.61A9.2,9.2,0,0,1,140,56.88a10.8,10.8,0,0,1-3.5-4.4A28.82,28.82,0,0,1,134.7,46c-.23-1.77.19-3.81.94-4.54a6.3,6.3,0,0,1,3.81-1.31c1.35,0,3,1.61,3.66,3.58a35,35,0,0,1,1.41,5.64,5.71,5.71,0,0,1-.37,2.93,14.21,14.21,0,0,1-1.93,2.12c-.75.69-1.81,1.64-2.35,2.12a6.81,6.81,0,0,1-2.46,1.25,33.83,33.83,0,0,1-4.23.58c-1.52.12-3.8.22-5.07.22s-2.22-.56-2.14-1.24a1.6,1.6,0,0,1,1.62-1.25,32.7,32.7,0,0,0,3.35-.22c1-.12,2.65-.21,3.6-.21a7.39,7.39,0,0,0,3.19-.88c.8-.49,2-1.28,2.56-1.76a8.14,8.14,0,0,0,1.67-1.9c.31-.57.08-2.84-.52-5.05s-1.81-4-2.67-3.88a3.9,3.9,0,0,0-2.25.95c-.37.44-.39,1.92-.05,3.29A34.61,34.61,0,0,0,138,51.09a9.51,9.51,0,0,0,2.72,3.37,6.75,6.75,0,0,0,3,1.25,5.59,5.59,0,0,0,2.76-1.18,19.25,19.25,0,0,0,2.56-2.41,17.81,17.81,0,0,0,1.83-2.78,7.19,7.19,0,0,0,.42-3.74A4.54,4.54,0,0,0,150.21,43c-.43-.24-1.28.32-1.88,1.24A11.07,11.07,0,0,0,147,48.46a19.77,19.77,0,0,0,.53,5.42c.4,1.57,1.48,3,2.4,3.14a33.25,33.25,0,0,0,3.71.37C154.78,57.43,156.49,57.53,157.47,57.61Z"/><path class="cls-8" d="M128.22,188a8.82,8.82,0,0,1-9.9,9L87.8,193.85a11.35,11.35,0,0,1-10-11V107.68a9.2,9.2,0,0,1,10-9.28l30,2.14a11,11,0,0,1,10,10.71Z"/><path class="cls-8" d="M145.77,106.1A8,8,0,0,0,135.89,98L129,99.34a12.63,12.63,0,0,0-9.8,11.91l.18,76.73a7.73,7.73,0,0,0,9.78,7.85l7.4-1.64a12.94,12.94,0,0,0,9.7-12.15Z"/><path class="cls-8" d="M129.21,100a79.15,79.15,0,0,1-19.74,1.15l-21.66-2c-5.48-.5-5.6-2-.27-3.38l7.55-1.92a63,63,0,0,1,19.61-1.22l21.09,2.64c5.46.69,5.52,2.18.14,3.32Z"/><polygon class="cls-9" points="96.16 194.71 96.16 99.27 99.82 99.27 99.82 195.08 96.16 194.71"/><polygon class="cls-9" points="78.16 139.84 119.75 144.43 119.53 151.16 77.94 146.57 78.16 139.84"/><polygon class="cls-9" points="99.82 99.27 96.16 99.27 119.43 93.72 123.09 93.72 99.82 99.27"/><polygon class="cls-9" points="133.65 98.48 135.8 98.08 96.16 93.32 93.58 93.72 133.65 98.48"/><polyline class="cls-9" points="133.65 98.48 133.65 194.81 135.8 194.02 135.8 98.08"/><polygon class="cls-9" points="119.43 144.86 145.71 140.5 145.71 146.45 119.43 151.2 119.43 144.86"/><path class="cls-9" d="M127.59,96a2.25,2.25,0,0,1,1.78,2.25c0,1.1-.64,1.8-1.41,1.54a15.72,15.72,0,0,0-3.19-.6,24.41,24.41,0,0,1-3.66-.59,11.17,11.17,0,0,1-3.18-1.42c-.72-.52-1.61-3.23-2-6a67.69,67.69,0,0,1-.36-10.64,28.11,28.11,0,0,1,2.09-9.1c1-2,2.55-2.7,3.5-1.66s1.88,4.08,2.09,6.74a28.69,28.69,0,0,1-1.47,9.93,22.5,22.5,0,0,1-4.7,7.69c-1.58,1.43-3.32,2.6-3.86,2.6a7.37,7.37,0,0,1-3.09-1.89c-1.15-1-2.72-4.23-3.5-7.09a70.31,70.31,0,0,1-1.82-10.41c-.23-2.86.19-6.16.94-7.33a5.06,5.06,0,0,1,3.81-2.13c1.35,0,3,2.61,3.66,5.8a85.76,85.76,0,0,1,1.41,9.1,14.45,14.45,0,0,1-.37,4.73,25.1,25.1,0,0,1-1.93,3.43L110,94.37a6.65,6.65,0,0,1-2.46,2,21.86,21.86,0,0,1-4.23.94,47.33,47.33,0,0,1-5.07.36,2,2,0,0,1-2.14-2c.09-1.11.82-2,1.62-2a21.43,21.43,0,0,0,3.34-.36,24.32,24.32,0,0,1,3.61-.35,5.42,5.42,0,0,0,3.19-1.42,32.64,32.64,0,0,0,2.55-2.84,13,13,0,0,0,1.68-3.07c.31-.91.08-4.58-.53-8.16s-1.8-6.4-2.66-6.27a3.41,3.41,0,0,0-2.25,1.54c-.37.71-.39,3.11,0,5.32s1,5.56,1.57,7.45a16.4,16.4,0,0,0,2.72,5.44,5.78,5.78,0,0,0,3,2,4.84,4.84,0,0,0,2.77-1.89,27.6,27.6,0,0,0,2.56-3.91,32.56,32.56,0,0,0,1.83-4.49,18.24,18.24,0,0,0,.42-6c-.2-1.95-.72-3.87-1.15-4.26s-1.28.52-1.88,2a26.38,26.38,0,0,0-1.31,6.86,50.89,50.89,0,0,0,.53,8.75c.4,2.54,1.48,4.83,2.4,5.09a21.49,21.49,0,0,0,3.71.59C124.9,95.73,126.61,95.89,127.59,96Z"/><path class="cls-10" d="M386.1,346.74c-3.37,0-5.18,4.4-4,9.78l7.87,36.69c1.16,5.37,4.9,9.77,8.32,9.77s5.25-4.39,4.08-9.77l-8-36.7C393.18,351.14,389.47,346.74,386.1,346.74Z"/><path class="cls-10" d="M117.49,346.74c-4.14,0-7.95,4.48-8.46,10L105.62,393c-.52,5.47,2.19,10,6,10s7.46-4.47,8.08-9.93l4.16-36.37C124.5,351.21,121.63,346.74,117.49,346.74Z"/><path class="cls-1" d="M6.68,104.68a9.65,9.65,0,0,1,9.83-11.8H78.06c6.6,0,14,2.74,16.38,6.08s6.45,11.07,9,17.18l4,9.73c2.51,6.1,6.55,16.12,9,22.26L122.23,163c2.41,6.14,6.86,16,9.89,21.83l5.08,9.84c3,5.86,7.81,15.28,10.62,20.92s10.52,10.26,17.12,10.26H458.28a11,11,0,0,1,11.08,12l-4.74,61.19c-.5,6.58-1.54,17.33-2.3,23.89L460,343.18a13.85,13.85,0,0,1-13.39,11.92H64.77a15,15,0,0,1-14.18-11.8Z"/><path class="cls-10" d="M19.51,100.82c-8.25,0-15.83-4-16.83-8.91S7.6,83,15.85,83H75.06c8.25,0,17.39,4,20.32,8.91A169,169,0,0,1,105.43,113c2.59,6.7,6.69,17.5,9.11,24s5.78,15.57,7.47,20.16,5.57,13.72,8.62,20.28,8,17.07,11,23.35,6.94,13.33,8.75,15.66a24.12,24.12,0,0,0,8.2,6.27c2.7,1.11,10.38,2,17.07,2H448.77c8.25,0,16.79,1.1,19,2.43s4,3.53,4,4.86v6.89c0,2.45-6.75,4.45-15,4.45h-291c-8.25,0-18-2.37-21.58-5.26S135,226.62,131.77,219L87.83,114.64C84.63,107,75.26,100.82,67,100.82Z"/><rect class="cls-10" x="16.21" y="387.78" width="465.42" height="21.28" rx="10" ry="10"/><path class="cls-10" d="M470.77,397.78c0-5.5,4.08-10,9.05-10s11.33-2,14.12-4.56a34.3,34.3,0,0,0,7.23-9.5c1.2-2.72.06-8.7-2.53-13.3s-6.33-9.39-8.32-10.64-2.81-3.31-1.81-4.56,4.74-1.08,8.32.38A39.75,39.75,0,0,1,507,351.68c2,1.88,5.57,7,8,11.4s4.34,12.48,4.34,18v2a36,36,0,0,1-5.79,18c-3.18,4.39-9.86,8-14.84,8H480.18c-5.17,0-9.41-4.5-9.41-10Z"/><path class="cls-11" d="M114.41,210.31c0-6.6,4-12,8.88-12s8.88,5.4,8.88,12v208.8c0,6.6-4,12-8.88,12s-8.88-5.4-8.88-12Z"/><path class="cls-11" d="M192.87,198.31c-4.61,0-8.39,5.4-8.39,12v208.8c0,6.6,4.51,12,10,12s9.94-5.4,9.85-12l-2.91-208.8C201.33,203.71,197.48,198.31,192.87,198.31Z"/><path class="cls-11" d="M114.74,296.3c-.34-5.07,4.78-9,11.37-8.74l64.53,2.53c6.59.26,12,3.83,12,7.94s-5.4,7.47-12,7.47H127.35C120.75,305.5,115.07,301.36,114.74,296.3Z"/><path class="cls-11" d="M127.32,337.27c-6.59-.47-12.25,2.69-12.58,7s4.78,7.89,11.38,7.89h64.51c6.6,0,12-2.14,12-4.77s-5.39-5.16-12-5.63Z"/><path class="cls-11" d="M126.37,383.74c-6.59-.45-12,3.67-12,9.14s5.4,9.94,12,9.93l64.24-.1c6.6,0,12-3.13,12-6.94s-5.39-7.28-12-7.72Z"/><path class="cls-11" d="M190.57,236.12c6.6,0,11.7,4.53,11.33,10s-6.06,9.51-12.64,9l-60.32-4.62c-6.59-.51-11.76-4-11.5-7.82s5.87-6.87,12.47-6.84Z"/><path class="cls-11" d="M419,213.2c0-6.6-4-12-8.88-12s-8.88,5.4-8.88,12V422c0,6.6,4,12,8.88,12s8.88-5.4,8.88-12Z"/><path class="cls-11" d="M340.58,201.2c4.62,0,8.39,5.4,8.39,12V422c0,6.6-4.5,12-10,12s-9.94-5.4-9.85-12L332,213.2C332.12,206.6,336,201.2,340.58,201.2Z"/><path class="cls-11" d="M418.72,299.19c.33-5.07-4.79-9-11.38-8.74L342.81,293c-6.59.26-12,3.84-12,7.94s5.4,7.48,12,7.48H406.1C412.7,308.4,418.38,304.25,418.72,299.19Z"/><path class="cls-11" d="M406.13,340.16c6.59-.47,12.25,2.69,12.59,7s-4.79,7.9-11.39,7.9H342.82c-6.6,0-12-2.15-12-4.78s5.39-5.16,12-5.63Z"/><path class="cls-11" d="M407.09,386.63c6.58-.44,12,3.67,12,9.14s-5.4,9.94-12,9.93l-64.24-.1c-6.6,0-12-3.13-12-6.94s5.39-7.27,12-7.72Z"/><path class="cls-11" d="M342.88,239c-6.6,0-11.69,4.53-11.32,10s6.05,9.51,12.64,9l60.32-4.62c6.58-.51,11.75-4,11.49-7.82s-5.86-6.87-12.46-6.84Z"/><path class="cls-6" d="M277.83,198c3.48,4.88,5.79,9.61,5.13,10.49a1.87,1.87,0,0,1-2.54.62,19.71,19.71,0,0,1-3.17-3.61c-1-1.43-.84-.38.35,2.34l3.24,7.43a3.77,3.77,0,0,1-1.53,4.29,10.94,10.94,0,0,1-5.48,1.76A12.2,12.2,0,0,1,268,219a21,21,0,0,1-5.12-7.15,74.07,74.07,0,0,1-3.31-9.56,25.7,25.7,0,0,1-.83-7.3c.18-1.48,2.07-3.26,4.21-4a47,47,0,0,1,6.22-1.63C270.45,189.23,274.35,193.08,277.83,198Z"/></g></svg>
