<svg xmlns="http://www.w3.org/2000/svg" width="100" height="75" viewBox="0 0 100 75"><defs><style>.cls-1{fill:#ea591f;}.cls-2{fill:#eb5e28;}.cls-3{fill:#ee7444;}.cls-4{fill:#ec6632;}.cls-5{fill:#ef8257;}.cls-6{opacity:0.85;}.cls-7{fill:#191919;}.cls-8{opacity:0.4;}.cls-9{fill:#fff;}</style></defs><title>life_face_1</title><g id="final"><path class="cls-1" d="M99.09,37.23c0,12.77-8.73,24-22,30.6A57.12,57.12,0,0,1,65.92,72a62.17,62.17,0,0,1-10.61,1.79c-1.28.11-2.56.18-3.87.21l-1.65,0c-.6,0-1.2,0-1.79,0h-.1l-.88,0-.69,0-.89-.06c-.4,0-.81,0-1.21-.09s-.8-.06-1.21-.11l-1.19-.13c-1.59-.19-3.15-.44-4.69-.75q-.57-.1-1.14-.24l-1.14-.25L33.74,72q-.56-.14-1.11-.3c-.36-.09-.72-.2-1.08-.31h0l-1.06-.33L30,70.92c-.57-.18-1.14-.38-1.71-.59-.33-.11-.66-.24-1-.36l-.08,0-.89-.35-.16-.07-1-.41-1-.43L22.88,68a0,0,0,0,0,0,0L22.74,68c-.8-.39-1.59-.79-2.35-1.22l-.92-.52c-.39-.22-.76-.45-1.13-.69-.2-.11-.39-.23-.58-.36l-.85-.55c-.37-.25-.74-.5-1.1-.76-.55-.38-1.08-.78-1.6-1.19l-.68-.54-.77-.64-.15-.12-.06-.06-.13-.11L12,60.83l-.41-.36-.72-.68-.31-.3-.69-.68v0c-.23-.23-.45-.46-.67-.7s-.41-.44-.61-.67-.45-.51-.66-.77-.37-.44-.54-.66l-.07-.08c-.78-1-1.51-2-2.18-3.08L4.66,52c-.12-.2-.23-.4-.34-.6s-.39-.7-.57-1c0,0,0,0,0-.08l0,0-.09-.18c-.07-.13-.13-.26-.19-.39-.15-.3-.3-.62-.44-.94L2.64,48l0-.1c-.06-.14-.12-.28-.17-.42-.16-.42-.32-.84-.46-1.26l-.17-.54a.56.56,0,0,1,0-.12l-.06-.2c-.05-.16-.1-.32-.14-.48-.21-.72-.38-1.44-.53-2.17-.06-.3-.11-.6-.16-.89s-.1-.6-.14-.91-.05-.45-.08-.68C.58,39.49.53,38.76.51,38c0-.26,0-.53,0-.79s0-.43,0-.64,0-.56,0-.83c0-.11,0-.23,0-.34s0-.4,0-.59l0-.3s0-.05,0-.09a.88.88,0,0,1,0-.16l.09-.78c0-.25.07-.5.11-.74L1,31.93c.09-.47.19-.94.31-1.4,0-.07,0-.13,0-.19a1.05,1.05,0,0,0,0-.19l.18-.63c0-.19.1-.38.16-.56l.06-.17.11-.34c.06-.2.13-.4.19-.59.15-.42.31-.83.47-1.24,0-.1.09-.2.13-.3.15-.38.32-.75.49-1.12l0-.06a.31.31,0,0,1,0-.1.61.61,0,0,1,.05-.12l.29-.59.43-.84.35-.61,0,0c.14-.25.29-.5.44-.75,0-.09.11-.18.17-.27s0-.07.06-.11a.22.22,0,0,0,0-.08.86.86,0,0,0,.1-.16c.26-.4.52-.8.8-1.2l.47-.64c.13-.19.27-.38.42-.56a4.46,4.46,0,0,1,.33-.43l.25-.32.42-.51c.61-.73,1.26-1.45,1.94-2.15l.24-.25.19-.18c.23-.24.47-.48.72-.71l.28-.26.8-.73.3-.26.36-.3a45,45,0,0,1,4.9-3.62l.4-.25c.19-.13.39-.26.6-.38h0c.47-.3.95-.57,1.44-.85l.65-.36.2-.1.63-.34c.76-.39,1.52-.77,2.31-1.13l.55-.26L25,5.45l.52-.22.81-.34c.54-.22,1.08-.43,1.64-.63L28.72,4c1.3-.46,2.62-.88,4-1.24l.66-.19.24-.06,1-.24.63-.15,1.28-.28L37,1.71l.85-.16.77-.14.67-.11C40,1.18,40.8,1.07,41.57,1L42.5.86l1-.1.3,0,.66-.06.6,0c.32,0,.64-.05,1-.06s.75,0,1.12-.06c.87,0,1.75,0,2.63,0a65.88,65.88,0,0,1,7.36.41l.9.1a61.82,61.82,0,0,1,9,1.82q2.07.59,4,1.29C87.67,10,99.09,22.62,99.09,37.23Z"/><path class="cls-2" d="M83,35.44a47.36,47.36,0,0,1-9.87,28.87A50,50,0,0,1,65.92,72a62.17,62.17,0,0,1-10.61,1.79c-1.28.11-2.56.18-3.87.21l-1.65,0c-.6,0-1.2,0-1.79,0h-.1l-.88,0-.69,0-.89-.06c-.4,0-.81,0-1.21-.09s-.8-.06-1.21-.11l-1.19-.13c-1.59-.19-3.15-.44-4.69-.75q-.57-.1-1.14-.24l-1.14-.25L33.74,72q-.56-.14-1.11-.3c-.36-.09-.72-.2-1.08-.31h0l-1.06-.33L30,70.92c-.57-.18-1.14-.38-1.71-.59-.33-.11-.66-.24-1-.36l-.08,0-.89-.35-.16-.07-1-.41-1-.43L22.88,68a0,0,0,0,0,0,0L22.74,68c-.8-.39-1.59-.79-2.35-1.22l-.92-.52c-.39-.22-.76-.45-1.13-.69-.2-.11-.39-.23-.58-.36l-.85-.55c-.37-.25-.74-.5-1.1-.76-.55-.38-1.08-.78-1.6-1.19l-.68-.54-.77-.64-.15-.12-.06-.06-.13-.11L12,60.83l-.41-.36-.72-.68-.31-.3-.69-.68v0c-.23-.23-.45-.46-.67-.7s-.41-.44-.61-.67-.45-.51-.66-.77-.37-.44-.54-.66l-.07-.08c-.78-1-1.51-2-2.18-3.08L4.66,52c-.12-.2-.23-.4-.34-.6s-.39-.7-.57-1c0,0,0,0,0-.08l0,0-.09-.18c-.07-.13-.13-.26-.19-.39-.15-.3-.3-.62-.44-.94L2.64,48l0-.1c-.06-.14-.12-.28-.17-.42-.16-.42-.32-.84-.46-1.26l-.17-.54a.56.56,0,0,1,0-.12l-.06-.2c-.05-.16-.1-.32-.14-.48-.21-.72-.38-1.44-.53-2.17-.06-.3-.11-.6-.16-.89s-.1-.6-.14-.91-.05-.45-.08-.68C.58,39.49.53,38.76.51,38c0-.26,0-.53,0-.79s0-.43,0-.64,0-.56,0-.83c0-.11,0-.23,0-.34s0-.4,0-.59l0-.3s0-.05,0-.09a.88.88,0,0,1,0-.16l.09-.78c0-.25.07-.5.11-.74L1,31.93c.09-.47.19-.94.31-1.4,0-.07,0-.13,0-.19a1.05,1.05,0,0,0,0-.19l.18-.63c0-.19.1-.38.16-.56l.06-.17.11-.34c.06-.2.13-.4.19-.59.15-.42.31-.83.47-1.24,0-.1.09-.2.13-.3.15-.38.32-.75.49-1.12l0-.06a.31.31,0,0,1,0-.1.61.61,0,0,1,.05-.12l.29-.59.43-.84.35-.61,0,0c.14-.25.29-.5.44-.75,0-.09.11-.18.17-.27s0-.07.06-.11a.22.22,0,0,0,0-.08.86.86,0,0,0,.1-.16c.26-.4.52-.8.8-1.2l.47-.64c.13-.19.27-.38.42-.56a4.46,4.46,0,0,1,.33-.43l.25-.32.42-.51c.61-.73,1.26-1.45,1.94-2.15l.24-.25.19-.18c.23-.24.47-.48.72-.71l.28-.26.8-.73.3-.26.36-.3a45,45,0,0,1,4.9-3.62l.4-.25c.19-.13.39-.26.6-.38h0c.47-.3.95-.57,1.44-.85l.65-.36.2-.1.63-.34c.76-.39,1.52-.77,2.31-1.13l.55-.26L25,5.45l.52-.22.81-.34c.54-.22,1.08-.43,1.64-.63L28.72,4c1.3-.46,2.62-.88,4-1.24l.66-.19.24-.06,1-.24.63-.15,1.28-.28L37,1.71l.85-.16.77-.14.67-.11C40,1.18,40.8,1.07,41.57,1L42.5.86l1-.1.3,0,.66-.06.6,0c.32,0,.64-.05,1-.06s.75,0,1.12-.06c.87,0,1.75,0,2.63,0a65.88,65.88,0,0,1,7.36.41l.9.1a61.82,61.82,0,0,1,9,1.82q2.07.59,4,1.29A47.57,47.57,0,0,1,83,35.44Z"/><path class="cls-3" d="M67.66,33.42c0,.16,0,.33,0,.5h0c0,.75,0,1.51-.06,2.25A59.5,59.5,0,0,1,64,54c-.25.69-.51,1.37-.79,2.05-.19.45-.38.89-.58,1.34-.48,1.1-1,2.18-1.55,3.24A54.49,54.49,0,0,1,51.44,74l-1.65,0c-.6,0-1.2,0-1.79,0h-.1l-.88,0-.69,0-.89-.06c-.4,0-.81,0-1.21-.09s-.8-.06-1.21-.11l-1.19-.13c-1.59-.19-3.15-.44-4.69-.75q-.57-.1-1.14-.24l-1.14-.25L33.74,72q-.56-.14-1.11-.3c-.36-.09-.72-.2-1.08-.31h0l-1.06-.33L30,70.92c-.57-.18-1.14-.38-1.71-.59-.33-.11-.66-.24-1-.36l-.08,0-.89-.35-.16-.07-1-.41-1-.43L22.88,68a0,0,0,0,0,0,0L22.74,68c-.8-.39-1.59-.79-2.35-1.22l-.92-.52c-.39-.22-.76-.45-1.13-.69-.2-.11-.39-.23-.58-.36l-.85-.55c-.37-.25-.74-.5-1.1-.76-.55-.38-1.08-.78-1.6-1.19l-.68-.54-.77-.64-.15-.12-.06-.06-.13-.11L12,60.83l-.41-.36-.72-.68-.31-.3-.69-.68v0c-.23-.23-.45-.46-.67-.7s-.41-.44-.61-.67-.45-.51-.66-.77-.37-.44-.54-.66l-.07-.08c-.78-1-1.51-2-2.18-3.08L4.66,52c-.12-.2-.23-.4-.34-.6s-.39-.7-.57-1c0,0,0,0,0-.08l0,0-.09-.18L3.55,50l-.14-.3c-.15-.3-.3-.62-.44-.94L2.64,48l0-.1c-.06-.14-.12-.28-.17-.42-.16-.42-.32-.84-.46-1.26l-.17-.54a.56.56,0,0,1,0-.12l-.06-.2c-.05-.16-.1-.32-.14-.48-.21-.72-.38-1.44-.53-2.17-.06-.3-.11-.6-.16-.89s-.1-.6-.14-.91-.05-.45-.08-.68C.58,39.49.53,38.76.51,38c0-.26,0-.53,0-.79s0-.43,0-.64,0-.56,0-.83c0-.11,0-.23,0-.34s0-.4,0-.59l0-.3s0-.05,0-.09a.88.88,0,0,1,0-.16l.09-.78c0-.25.07-.5.11-.74L1,31.93c.09-.47.19-.94.31-1.4,0-.07,0-.13,0-.19a1.05,1.05,0,0,0,0-.19l.18-.63c0-.19.1-.38.16-.56l.06-.17.11-.34c.06-.2.13-.4.19-.59.15-.42.31-.83.47-1.24,0-.1.09-.2.13-.3.15-.38.32-.75.49-1.12l0-.06a.31.31,0,0,1,0-.1.61.61,0,0,1,.05-.12l.29-.59.43-.84.35-.61,0,0c.14-.25.29-.5.44-.75,0-.09.11-.18.17-.27s0-.07.06-.11l.15-.24c.26-.4.52-.8.8-1.2l.47-.64c.13-.19.27-.38.42-.56a4.46,4.46,0,0,1,.33-.43l.25-.32.42-.51c.61-.73,1.26-1.45,1.94-2.15l.24-.25.19-.18c.23-.24.47-.48.72-.71l.28-.26.8-.73.3-.26.36-.3a45,45,0,0,1,4.9-3.62l.4-.25c.19-.13.39-.26.6-.38h0c.47-.3.95-.57,1.44-.85l.65-.36.2-.1.63-.34c.76-.39,1.52-.77,2.31-1.13l.55-.26L25,5.45l.52-.22.81-.34c.54-.22,1.08-.43,1.64-.63L28.72,4c1.3-.46,2.62-.88,4-1.24l.66-.19.24-.06,1-.24.63-.15,1.28-.28L37,1.71l.85-.16.77-.14.67-.11C40,1.18,40.8,1.07,41.57,1L42.5.86l1-.1.3,0,.66-.06.6,0c.32,0,.64-.05,1-.06s.75,0,1.12-.06c.87,0,1.75,0,2.63,0a65.88,65.88,0,0,1,7.36.41l.9.1c.31.46.6.92.89,1.39h0A57.52,57.52,0,0,1,66.7,22.65,60.43,60.43,0,0,1,67.66,33.42Z"/><path class="cls-4" d="M69.46,36.78A78.45,78.45,0,0,1,68.93,46c-.22,1.79-.49,3.53-.82,5.2l-.06.3c-.15.72-.3,1.42-.47,2.12-.11.48-.23,1-.35,1.43s-.3,1.09-.46,1.63a1.21,1.21,0,0,1,0,.18c-.17.56-.34,1.11-.53,1.65l-.14.45h0c-.33.94-.67,1.85-1,2.72-2.49,6-5.87,10.31-9.7,12.09-1.28.11-2.56.18-3.87.21l-1.65,0c-.6,0-1.2,0-1.79,0h-.1c-4.32-1.76-8.08-6.73-10.71-13.67-.43-1.15-.83-2.34-1.2-3.58-.11-.38-.22-.76-.32-1.15-.41-1.49-.77-3-1.08-4.64h0a74.34,74.34,0,0,1-1.3-13.39v-.75c0-1.53,0-3,.12-4.51h0q.24-4,.84-7.73C36.12,13.1,40.51,4.14,46,.57l1.13,0,10,.27a13.6,13.6,0,0,1,1.79,1.49h0c4.14,4,7.44,11.2,9.17,20.08a73.7,73.7,0,0,1,1.33,13C69.46,35.89,69.46,36.33,69.46,36.78Z"/><path class="cls-5" d="M22.88,68C9.4,61.48.5,50.13.5,37.23.5,25.72,7.59,15.45,18.69,8.71a61.33,61.33,0,0,0-5.61,21.21C11.9,44.42,15.73,57.93,22.88,68Z"/><g class="cls-6"><polygon class="cls-7" points="17.08 45.42 22.45 45.42 19.77 37.09 17.08 45.42"/><polygon class="cls-7" points="16.94 45.34 22.21 44.08 23.72 50.31 18.45 51.57 16.94 45.34"/><polygon class="cls-7" points="22.1 47.36 29.34 45.64 30.65 51.04 23.41 52.76 22.1 47.36"/><polygon class="cls-7" points="23.33 52.46 30.57 50.73 31.5 54.57 24.26 56.3 23.33 52.46"/><polygon class="cls-7" points="28.74 53.72 31.18 53.13 31.97 56.39 29.53 56.98 28.74 53.72"/><polygon class="cls-7" points="29.49 56.79 31.93 56.21 32.49 58.53 30.05 59.11 29.49 56.79"/><polygon class="cls-7" points="31.86 56.72 42.09 56.72 36.98 45.86 31.86 56.72"/><polygon class="cls-7" points="29.93 58.66 32.37 58.08 33.16 61.33 30.72 61.92 29.93 58.66"/><polygon class="cls-7" points="31.59 56.54 40.83 54.34 42 59.15 32.76 61.36 31.59 56.54"/><polygon class="cls-7" points="49.88 56.59 39.04 56.2 44.13 65.46 49.88 56.59"/><polygon class="cls-7" points="41.69 56.53 54.49 56.99 48.49 45.91 41.69 56.53"/><polygon class="cls-7" points="48.93 56.73 61.7 55.81 56.11 67.09 48.93 56.73"/><polygon class="cls-7" points="54.3 58.03 65.81 57.2 59.16 45.37 54.3 58.03"/><polygon class="cls-7" points="80.64 45.66 75.27 45.66 77.95 37.32 80.64 45.66"/><polygon class="cls-7" points="80.77 45.57 75.51 44.32 74 50.55 79.26 51.8 80.77 45.57"/><polygon class="cls-7" points="75.62 47.6 68.38 45.87 67.07 51.27 74.31 53 75.62 47.6"/><polygon class="cls-7" points="74.39 52.69 67.15 50.97 66.21 54.81 73.45 56.54 74.39 52.69"/><polygon class="cls-7" points="68.98 53.95 66.54 53.37 65.75 56.63 68.19 57.21 68.98 53.95"/><polygon class="cls-7" points="68.23 57.03 65.79 56.45 65.23 58.77 67.67 59.35 68.23 57.03"/><polygon class="cls-7" points="67.79 58.89 65.35 58.31 64.56 61.57 67 62.15 67.79 58.89"/><polygon class="cls-7" points="66.13 56.77 56.89 54.57 55.72 59.39 64.96 61.59 66.13 56.77"/><path class="cls-7" d="M40.5,36.29c-1.31,1.66-3.76,2.13-6.44,1.49a12.87,12.87,0,0,1-2.43-.86,15,15,0,0,1-2.76-1.7l-.14-.12C24.56,31.79,22.9,27,25,24.28S32.39,22,36.66,25.36a14.17,14.17,0,0,1,2.52,2.49A11.27,11.27,0,0,1,41,31a9.09,9.09,0,0,1,.33,1.18A4.94,4.94,0,0,1,40.5,36.29Z"/><path class="cls-7" d="M42.57,36.72c.7,2.5-.85,3.79-3.44,2.87l-.36-.13-5.92-2.11a29.77,29.77,0,0,1-3.09-1.44l-.89-.69-.05,0c-.05,0,1.76-1.36,4-2.93l2.24-1.55c2.25-1.57,4.42-2.38,4.81-1.81a17.76,17.76,0,0,1,1.24,2.69C41.22,31.9,41.87,34.21,42.57,36.72Z"/><path class="cls-7" d="M57.25,34.54c1.12,1.92,3.6,2.76,6.48,2.48a12.39,12.39,0,0,0,2.65-.55,15.52,15.52,0,0,0,3.13-1.37l.16-.09c4.83-2.85,7.26-7.62,5.44-10.73s-7.32-3.4-12.26-.57a15.63,15.63,0,0,0-3,2.23,11.59,11.59,0,0,0-2.32,3A7.94,7.94,0,0,0,57,30.13,5.15,5.15,0,0,0,57.25,34.54Z"/><path class="cls-7" d="M55,34.68c-1.09,2.5.21,4.09,2.91,3.54l.9-.19,6.22-1.28a29.58,29.58,0,0,0,3.42-1.06l1-.59,0,0c.06,0-1.54-1.59-3.56-3.46l-2.47-2.28c-2-1.86-4.07-2.95-4.56-2.4a18.38,18.38,0,0,0-1.69,2.61C57.14,29.86,56.13,32.18,55,34.68Z"/></g><g class="cls-8"><path class="cls-9" d="M19.16,15.23c-.27-.4-2,.55-3.93,2.11a22.73,22.73,0,0,0-5.12,6.27,24.33,24.33,0,0,0-1.82,8.08c-.1,2.56.51,4.41,1.33,4.12s1.51-2.09,1.52-4a19.33,19.33,0,0,1,1.68-6.91,29.65,29.65,0,0,1,4.24-6.19C18.48,17.19,19.42,15.63,19.16,15.23Z"/></g></g></svg>
