<svg xmlns="http://www.w3.org/2000/svg" width="100" height="75" viewBox="0 0 100 75"><defs><style>.cls-1{fill:#ea591f;}.cls-2{fill:#eb5e28;}.cls-3{fill:#ee7444;}.cls-4{fill:#ec6632;}.cls-5{fill:#ef8257;}.cls-6{opacity:0.4;}.cls-7{fill:#fff;}.cls-8{opacity:0.9;}.cls-9{fill:#191919;}.cls-10{fill:#efe2d3;}.cls-11{fill:#e0cdbd;}.cls-12{fill:#ede0d6;}.cls-13{opacity:0.6;}</style></defs><title>life_face_2</title><g id="final"><path class="cls-1" d="M99,37.66c0,12.72-8.69,23.93-21.88,30.5A57.51,57.51,0,0,1,66,72.3a62.81,62.81,0,0,1-10.58,1.78c-1.27.11-2.55.18-3.85.21l-1.64,0-1.79,0H48l-.87,0-.69,0-.89-.06-1.2-.08C44,74,43.55,74,43.15,74L42,73.83c-1.58-.19-3.14-.44-4.67-.74-.38-.08-.76-.15-1.14-.24L35,72.6l-1.13-.28L32.8,72c-.36-.09-.72-.2-1.08-.31h0c-.36-.11-.71-.21-1.06-.33l-.44-.13-1.7-.59-1-.37-.08,0-.89-.35-.16-.06-1-.41-1-.43-1.37-.64s0,0,0,0l-.13-.06c-.79-.39-1.57-.8-2.33-1.23-.31-.17-.62-.34-.92-.52s-.76-.45-1.13-.68c-.19-.11-.39-.23-.58-.36L17.14,65c-.37-.25-.74-.5-1.1-.76-.54-.38-1.07-.77-1.59-1.18l-.68-.54L13,61.84l-.14-.12-.07,0-.12-.12-.42-.36c-.14-.12-.28-.24-.41-.37s-.48-.44-.71-.67l-.32-.3-.68-.68s0,0,0,0l-.66-.7c-.21-.22-.41-.44-.61-.67L8.19,57l-.54-.65-.06-.09a35.4,35.4,0,0,1-2.17-3.06l-.48-.79c-.12-.2-.23-.4-.34-.6s-.39-.7-.57-1l0-.07,0,0-.09-.19-.19-.38c-.15-.31-.29-.62-.43-.94s-.23-.51-.33-.77l0-.09c-.06-.14-.11-.28-.16-.42-.17-.42-.32-.84-.46-1.26l-.17-.54L2.05,46c0-.07,0-.14,0-.2s-.1-.32-.14-.48c-.21-.71-.38-1.43-.53-2.16-.05-.3-.11-.59-.16-.89s-.09-.6-.13-.9S1,40.87,1,40.64a20.14,20.14,0,0,1-.15-2.19c0-.27,0-.53,0-.79s0-.43,0-.64l0-.83c0-.11,0-.22,0-.34s0-.39.05-.59l0-.3s0-.05,0-.08,0-.11,0-.17L1,33.94c0-.25.07-.5.11-.74l.15-.82c.09-.47.19-.94.31-1.41,0-.06,0-.12,0-.18a1.33,1.33,0,0,0,.05-.19L1.88,30c.05-.19.1-.37.16-.56l.06-.17.1-.34c.07-.19.13-.39.2-.58.15-.42.3-.83.47-1.24l.12-.3c.15-.38.32-.75.49-1.12l0-.06a.41.41,0,0,1,.05-.09.61.61,0,0,1,0-.12c.1-.2.19-.4.29-.59L4.33,24l.35-.61,0,0c.14-.25.28-.5.44-.75l.16-.26a.41.41,0,0,1,.07-.11.35.35,0,0,1,0-.08.86.86,0,0,1,.1-.16c.26-.4.52-.8.8-1.2.15-.21.3-.43.46-.64s.27-.38.41-.56l.34-.43a3.4,3.4,0,0,1,.25-.31l.41-.51c.61-.73,1.26-1.45,1.94-2.15l.24-.25.19-.18c.23-.24.47-.47.72-.7a3.45,3.45,0,0,1,.28-.26c.26-.25.52-.49.79-.72l.3-.27a3.37,3.37,0,0,1,.36-.3,45,45,0,0,1,4.88-3.61l.39-.25.6-.37,0,0c.48-.29.95-.57,1.44-.84L21,8l.19-.1.64-.34c.74-.39,1.51-.77,2.29-1.13l.55-.25L25.18,6l.52-.22.8-.34C27,5.2,27.58,5,28.13,4.79l.78-.28c1.29-.46,2.6-.87,3.95-1.24l.66-.18L33.76,3q.48-.13,1-.24c.2-.06.41-.1.62-.15l1.27-.28.54-.11L38,2.09,38.76,2l.66-.11q1.14-.18,2.28-.33l.93-.11,1-.1.31,0,.66-.06.59,0,1-.06,1.11-.06C48.14,1,49,1,49.9,1a65.47,65.47,0,0,1,7.33.41l.9.1a62.88,62.88,0,0,1,9,1.81c1.38.39,2.72.82,4,1.29C87.63,10.52,99,23.1,99,37.66Z"/><path class="cls-2" d="M83,35.87a47.25,47.25,0,0,1-9.83,28.78A51.11,51.11,0,0,1,66,72.3a62.81,62.81,0,0,1-10.58,1.78c-1.27.11-2.55.18-3.85.21l-1.64,0-1.79,0H48l-.87,0-.69,0-.89-.06-1.2-.08C44,74,43.55,74,43.15,74L42,73.83c-1.58-.19-3.14-.44-4.67-.74-.38-.08-.76-.15-1.14-.24L35,72.6l-1.13-.28L32.8,72c-.36-.09-.72-.2-1.08-.31h0c-.36-.11-.71-.21-1.06-.33l-.44-.13-1.7-.59-1-.37-.08,0-.89-.35-.16-.06-1-.41-1-.43-1.37-.64s0,0,0,0l-.13-.06c-.79-.39-1.57-.8-2.33-1.23-.31-.17-.62-.34-.92-.52s-.76-.45-1.13-.68c-.19-.11-.39-.23-.58-.36L17.14,65c-.37-.25-.74-.5-1.1-.76-.54-.38-1.07-.77-1.59-1.18l-.68-.54L13,61.84l-.14-.12-.07,0-.12-.12-.42-.36c-.14-.12-.28-.24-.41-.37s-.48-.44-.71-.67l-.32-.3-.68-.68s0,0,0,0l-.66-.7c-.21-.22-.41-.44-.61-.67L8.19,57l-.54-.65-.06-.09a35.4,35.4,0,0,1-2.17-3.06l-.48-.79c-.12-.2-.23-.4-.34-.6s-.39-.7-.57-1l0-.07,0,0-.09-.19-.19-.38c-.15-.31-.29-.62-.43-.94s-.23-.51-.33-.77l0-.09c-.06-.14-.11-.28-.16-.42-.17-.42-.32-.84-.46-1.26l-.17-.54L2.05,46c0-.07,0-.14,0-.2s-.1-.32-.14-.48c-.21-.71-.38-1.43-.53-2.16-.05-.3-.11-.59-.16-.89s-.09-.6-.13-.9S1,40.87,1,40.64a20.14,20.14,0,0,1-.15-2.19c0-.27,0-.53,0-.79s0-.43,0-.64l0-.83c0-.11,0-.22,0-.34s0-.39.05-.59l0-.3s0-.05,0-.08,0-.11,0-.17L1,33.94c0-.25.07-.5.11-.74l.15-.82c.09-.47.19-.94.31-1.41,0-.06,0-.12,0-.18a1.33,1.33,0,0,0,.05-.19L1.88,30c.05-.19.1-.37.16-.56l.06-.17.1-.34c.07-.19.13-.39.2-.58.15-.42.3-.83.47-1.24l.12-.3c.15-.38.32-.75.49-1.12l0-.06a.41.41,0,0,1,.05-.09.61.61,0,0,1,0-.12c.1-.2.19-.4.29-.59L4.33,24l.35-.61,0,0c.14-.25.28-.5.44-.75l.16-.26a.41.41,0,0,1,.07-.11.35.35,0,0,1,0-.08.86.86,0,0,1,.1-.16c.26-.4.52-.8.8-1.2.15-.21.3-.43.46-.64s.27-.38.41-.56l.34-.43a3.4,3.4,0,0,1,.25-.31l.41-.51c.61-.73,1.26-1.45,1.94-2.15l.24-.25.19-.18c.23-.24.47-.47.72-.7a3.45,3.45,0,0,1,.28-.26c.26-.25.52-.49.79-.72l.3-.27a3.37,3.37,0,0,1,.36-.3,45,45,0,0,1,4.88-3.61l.39-.25.6-.37,0,0c.48-.29.95-.57,1.44-.84L21,8l.19-.1.64-.34c.74-.39,1.51-.77,2.29-1.13l.55-.25L25.18,6l.52-.22.8-.34C27,5.2,27.58,5,28.13,4.79l.78-.28c1.29-.46,2.6-.87,3.95-1.24l.66-.18L33.76,3q.48-.13,1-.24c.2-.06.41-.1.62-.15l1.27-.28.54-.11L38,2.09,38.76,2l.66-.11q1.14-.18,2.28-.33l.93-.11,1-.1.31,0,.66-.06.59,0,1-.06,1.11-.06C48.14,1,49,1,49.9,1a65.47,65.47,0,0,1,7.33.41l.9.1a62.88,62.88,0,0,1,9,1.81c1.38.39,2.72.82,4,1.29A47.4,47.4,0,0,1,83,35.87Z"/><path class="cls-3" d="M67.69,33.86v.49h0c0,.75,0,1.5-.06,2.24a59.47,59.47,0,0,1-3.55,17.82c-.25.68-.51,1.36-.79,2-.18.46-.37.9-.57,1.34-.48,1.1-1,2.18-1.55,3.24a54.07,54.07,0,0,1-9.63,13.26l-1.64,0-1.79,0H48l-.87,0-.69,0-.89-.06-1.2-.08C44,74,43.55,74,43.15,74L42,73.83c-1.58-.19-3.14-.44-4.67-.74-.38-.08-.76-.15-1.14-.24L35,72.6l-1.13-.28L32.8,72c-.36-.09-.72-.2-1.08-.31h0c-.36-.11-.71-.21-1.06-.33l-.44-.13-1.7-.59-1-.37-.08,0-.89-.35-.16-.06-1-.41-1-.43-1.37-.64s0,0,0,0l-.13-.06c-.79-.39-1.57-.8-2.33-1.23-.31-.17-.62-.34-.92-.52s-.76-.45-1.13-.68c-.19-.11-.39-.23-.58-.36L17.14,65c-.37-.25-.74-.5-1.1-.76-.54-.38-1.07-.77-1.59-1.18l-.68-.54L13,61.84l-.14-.12-.07,0-.12-.12-.42-.36-.41-.37c-.24-.22-.48-.44-.71-.67l-.32-.3-.68-.68s0,0,0,0l-.66-.7c-.21-.22-.41-.44-.61-.67L8.19,57l-.54-.65-.06-.09a35.4,35.4,0,0,1-2.17-3.06l-.48-.79c-.12-.2-.23-.4-.34-.6s-.39-.7-.57-1l0-.07,0,0-.09-.19a.41.41,0,0,0,0-.09c-.05-.09-.09-.19-.14-.29-.15-.31-.29-.62-.43-.94s-.23-.51-.33-.77l0-.09c-.06-.14-.11-.28-.16-.42-.17-.42-.32-.84-.46-1.26l-.17-.54L2.05,46c0-.07,0-.14,0-.2s-.1-.32-.14-.48c-.21-.71-.38-1.43-.53-2.16-.05-.3-.11-.59-.16-.89s-.09-.6-.13-.9S1,40.87,1,40.64a20.14,20.14,0,0,1-.15-2.19c0-.27,0-.53,0-.79s0-.43,0-.64l0-.83c0-.11,0-.22,0-.34s0-.39.05-.59l0-.3s0-.05,0-.08,0-.11,0-.17L1,33.94c0-.25.07-.5.11-.74l.15-.82c.09-.47.19-.94.31-1.41,0-.06,0-.12,0-.18a1.33,1.33,0,0,0,.05-.19L1.88,30c.05-.19.1-.37.16-.56l.06-.17.1-.34c.07-.19.13-.39.2-.58.15-.42.3-.83.47-1.24l.12-.3c.15-.38.32-.75.49-1.12l0-.06a.41.41,0,0,1,.05-.09.61.61,0,0,1,0-.12c.1-.2.19-.4.29-.59L4.33,24l.35-.61,0,0c.14-.25.28-.5.44-.75l.16-.26a.41.41,0,0,1,.07-.11L5.52,22c.26-.4.52-.8.8-1.2.15-.21.3-.43.46-.64s.27-.38.41-.56l.34-.43a3.4,3.4,0,0,1,.25-.31l.41-.51c.61-.73,1.26-1.45,1.94-2.15l.24-.25.19-.18c.23-.24.47-.47.72-.7a3.45,3.45,0,0,1,.28-.26c.26-.25.52-.49.79-.72l.3-.27a3.37,3.37,0,0,1,.36-.3,45,45,0,0,1,4.88-3.61l.39-.25.6-.37,0,0c.48-.29.95-.57,1.44-.84L21,8l.19-.1.64-.34c.74-.39,1.51-.77,2.29-1.13l.55-.25L25.18,6l.52-.22.8-.34C27,5.2,27.58,5,28.13,4.79l.78-.28c1.29-.46,2.6-.87,3.95-1.24l.66-.18L33.76,3q.48-.13,1-.24c.2-.06.41-.1.62-.15l1.27-.28.54-.11L38,2.09,38.76,2l.66-.11q1.14-.18,2.28-.33l.93-.11,1-.1.31,0,.66-.06.59,0,1-.06,1.11-.06C48.14,1,49,1,49.9,1a65.47,65.47,0,0,1,7.33.41l.9.1c.3.46.59.92.88,1.38h0a57.4,57.4,0,0,1,7.73,20.22A61,61,0,0,1,67.69,33.86Z"/><path class="cls-4" d="M69.49,37.21A77.93,77.93,0,0,1,69,46.4c-.21,1.78-.49,3.51-.82,5.18l-.06.3c-.14.72-.29,1.42-.46,2.11-.11.49-.23,1-.36,1.43S67,56.51,66.81,57c0,.07,0,.13,0,.19-.17.56-.34,1.11-.52,1.64l-.15.44h0c-.33.94-.67,1.84-1,2.71-2.49,6-5.85,10.28-9.67,12-1.27.11-2.55.18-3.85.21l-1.64,0-1.79,0H48c-4.3-1.75-8-6.7-10.66-13.63q-.66-1.71-1.2-3.57c-.11-.37-.22-.76-.33-1.14-.4-1.48-.76-3-1.07-4.63h0A74.94,74.94,0,0,1,33.46,38v0c0-.23,0-.46,0-.7,0-1.53,0-3,.13-4.5h0a74,74,0,0,1,.84-7.7C36.27,13.6,40.65,4.67,46.16,1.11l1.12,0,9.95.27A15,15,0,0,1,59,2.89h0c4.13,4,7.42,11.16,9.15,20a74.33,74.33,0,0,1,1.32,13C69.49,36.32,69.49,36.76,69.49,37.21Z"/><path class="cls-5" d="M23.08,68.37C9.66,61.83.79,50.51.79,37.66c0-11.48,7.07-21.72,18.12-28.44a61.1,61.1,0,0,0-5.58,21.15C12.15,44.82,16,58.29,23.08,68.37Z"/><g class="cls-6"><path class="cls-7" d="M19.38,15.72c-.26-.39-2,.55-3.92,2.11a22.38,22.38,0,0,0-5.09,6.25,24.16,24.16,0,0,0-1.82,8.06c-.09,2.54.51,4.39,1.33,4.1s1.51-2.08,1.52-4a19.05,19.05,0,0,1,1.67-6.89,30.08,30.08,0,0,1,4.22-6.17C18.7,17.68,19.64,16.12,19.38,15.72Z"/></g><g class="cls-8"><polygon class="cls-9" points="17.79 55.99 23.14 55.99 20.46 64.31 17.79 55.99"/><polygon class="cls-9" points="17.64 56.08 22.89 57.33 24.4 51.12 19.15 49.87 17.64 56.08"/><polygon class="cls-9" points="22.79 54.06 30 55.78 31.3 50.4 24.09 48.68 22.79 54.06"/><polygon class="cls-9" points="24.01 48.98 31.23 50.7 32.16 46.87 24.94 45.15 24.01 48.98"/><polygon class="cls-9" points="29.4 47.73 31.84 48.31 32.62 45.06 30.19 44.48 29.4 47.73"/><polygon class="cls-9" points="30.14 44.66 32.58 45.24 33.14 42.93 30.7 42.35 30.14 44.66"/><polygon class="cls-9" points="32.51 44.73 42.7 44.73 37.6 55.55 32.51 44.73"/><polygon class="cls-9" points="30.59 42.8 33.02 43.38 33.8 40.13 31.37 39.55 30.59 42.8"/><polygon class="cls-9" points="32.24 44.91 41.45 47.11 42.61 42.3 33.4 40.11 32.24 44.91"/><polygon class="cls-9" points="50.46 44.87 39.67 45.25 44.74 36.02 50.46 44.87"/><polygon class="cls-9" points="42.3 44.92 55.05 44.46 49.07 55.5 42.3 44.92"/><polygon class="cls-9" points="49.51 44.73 62.24 45.64 56.66 34.39 49.51 44.73"/><polygon class="cls-9" points="54.87 43.43 66.32 44.25 59.71 56.05 54.87 43.43"/><polygon class="cls-9" points="81.1 55.76 75.75 55.76 78.42 64.07 81.1 55.76"/><polygon class="cls-9" points="81.23 55.85 75.99 57.1 74.49 50.88 79.73 49.63 81.23 55.85"/><polygon class="cls-9" points="76.1 53.83 68.89 55.55 67.58 50.16 74.8 48.44 76.1 53.83"/><polygon class="cls-9" points="74.87 48.74 67.66 50.47 66.73 46.63 73.94 44.91 74.87 48.74"/><polygon class="cls-9" points="69.48 47.49 67.05 48.07 66.26 44.82 68.7 44.24 69.48 47.49"/><polygon class="cls-9" points="68.74 44.42 66.31 45.01 65.75 42.69 68.18 42.11 68.74 44.42"/><polygon class="cls-9" points="68.3 42.57 65.87 43.15 65.08 39.9 67.52 39.32 68.3 42.57"/><polygon class="cls-9" points="66.65 44.68 57.44 46.87 56.27 42.07 65.48 39.87 66.65 44.68"/><path class="cls-9" d="M41,28.51c-1.34,1.63-3.79,2-6.45,1.36A12.55,12.55,0,0,1,32.17,29a14.47,14.47,0,0,1-2.72-1.76l-.14-.11c-4.08-3.39-5.64-8.22-3.46-10.86s7.37-2.09,11.56,1.3a14.33,14.33,0,0,1,2.46,2.54,11.07,11.07,0,0,1,1.71,3.17,7.62,7.62,0,0,1,.31,1.18A4.91,4.91,0,0,1,41,28.51Z"/><path class="cls-9" d="M43.06,29c.64,2.5-.93,3.76-3.5,2.78l-.33-.12-5.87-2.23a27.76,27.76,0,0,1-3-1.5l-.87-.71-.05,0c0-.05,1.79-1.33,4.08-2.85l2.23-1.48c2.29-1.53,4.47-2.3,4.84-1.71a17.53,17.53,0,0,1,1.19,2.7C41.82,24.15,42.41,26.47,43.06,29Z"/><path class="cls-9" d="M58.11,27.18c1.26,1.83,3.79,2.48,6.64,2a13.42,13.42,0,0,0,2.59-.75,15.31,15.31,0,0,0,3-1.6l.15-.1c4.58-3.19,6.63-8.12,4.59-11.08s-7.54-2.83-12.22.36a14.87,14.87,0,0,0-2.8,2.44A11.54,11.54,0,0,0,58,21.61a7.57,7.57,0,0,0-.42,1.21A5.18,5.18,0,0,0,58.11,27.18Z"/><path class="cls-9" d="M55.93,27.49c-.9,2.57.53,4.05,3.17,3.3l.84-.25L66,28.79a29.39,29.39,0,0,0,3.32-1.3l1-.67,0,0s-1.66-1.47-3.82-3.18L64,21.55c-2.15-1.71-4.28-2.64-4.72-2.06a18.64,18.64,0,0,0-1.48,2.72C57.65,22.55,56.82,24.92,55.93,27.49Z"/></g><path class="cls-10" d="M85.67,18.71a5.06,5.06,0,0,1,.26,1.39c0,.49.07,1.26.1,1.69A7.55,7.55,0,0,1,86,23.18a2.69,2.69,0,0,1-.57,1.08,3.31,3.31,0,0,1-1,.69l-.52.2-.36,0a2.21,2.21,0,0,1-.72-.07,7.28,7.28,0,0,1-.73-.28A2,2,0,0,1,81.4,24a7.94,7.94,0,0,1-.47-1.4,10.82,10.82,0,0,1-.2-1.39L80.67,20a3.89,3.89,0,0,1,.14-1.11c.1-.31.26-.77.36-1a3.53,3.53,0,0,1,.44-.77,9.23,9.23,0,0,0,.63-1.05c.2-.4.46-.74.58-.75l.21,0,.29.41a8.63,8.63,0,0,0,.58.7l.63.65a9.33,9.33,0,0,1,.64.77A5.11,5.11,0,0,1,85.67,18.71Z"/><path class="cls-11" d="M82.91,16.38c-.09,0-.3.29-.46.63a8,8,0,0,1-.49.87,3,3,0,0,0-.34.64c-.08.21-.21.59-.29.85a3.73,3.73,0,0,0-.11.92l.06,1a8.47,8.47,0,0,0,.16,1.16,7.26,7.26,0,0,0,.37,1.17,1.58,1.58,0,0,0,.54.7,4.74,4.74,0,0,0,.58.24,1.56,1.56,0,0,0,.57.06,3.13,3.13,0,0,0,.69-.2,2.37,2.37,0,0,0,.77-.56,2.25,2.25,0,0,0,.45-.9,6,6,0,0,0,0-1.16l-.08-1.41a4.39,4.39,0,0,0-.21-1.16,5.29,5.29,0,0,0-.39-.75c-.13-.18-.36-.47-.51-.64l-.51-.55a6,6,0,0,1-.45-.59C83.18,16.52,83,16.37,82.91,16.38Z"/><path class="cls-12" d="M83.06,17.24c-.08,0-.25.24-.38.52a6.06,6.06,0,0,1-.42.72A2.28,2.28,0,0,0,82,19c-.07.17-.18.49-.24.7a2.57,2.57,0,0,0-.09.77l0,.83a9.45,9.45,0,0,0,.14,1,6.1,6.1,0,0,0,.31,1,1.29,1.29,0,0,0,.45.58,3.26,3.26,0,0,0,.48.2,1.31,1.31,0,0,0,.48.05,2.86,2.86,0,0,0,.58-.16,2.18,2.18,0,0,0,.65-.48,1.85,1.85,0,0,0,.37-.74,5,5,0,0,0,0-1l-.06-1.17a3.65,3.65,0,0,0-.18-1,3.69,3.69,0,0,0-.33-.62c-.11-.15-.3-.39-.42-.53L83.77,18a5.62,5.62,0,0,1-.38-.49C83.29,17.35,83.14,17.23,83.06,17.24Z"/><g class="cls-13"><path class="cls-9" d="M78.16,26.1c.24.36-.35,1.53-1.31,2.6s-2.14,1.66-2.62,1.3.11-1.53,1.31-2.6S77.92,25.74,78.16,26.1Z"/></g><g class="cls-13"><path class="cls-9" d="M80.67,27.94c.3.42-.43,1.79-1.64,3s-2.67,1.93-3.27,1.52.13-1.79,1.64-3S80.37,27.53,80.67,27.94Z"/></g><g class="cls-13"><path class="cls-9" d="M23.46,27.14c-.24.36.35,1.53,1.31,2.6s2.14,1.66,2.62,1.3-.1-1.53-1.31-2.6S23.7,26.78,23.46,27.14Z"/></g><g class="cls-13"><path class="cls-9" d="M21,29c-.3.42.44,1.79,1.64,3s2.67,1.93,3.28,1.52-.14-1.79-1.64-3S21.25,28.57,21,29Z"/></g></g></svg>
