<svg xmlns="http://www.w3.org/2000/svg" width="125" height="75" viewBox="0 0 125 75"><defs><style>.cls-1{fill:#ea591f;}.cls-2{fill:#eb5e28;}.cls-3{fill:#ee7444;}.cls-4{fill:#ec6632;}.cls-5{fill:#ef8257;}.cls-6{opacity:0.4;}.cls-7{fill:#fff;}.cls-8{opacity:0.9;}.cls-9{fill:#191919;}.cls-10{fill:#efe2d3;}.cls-11{fill:#e0cdbd;}.cls-12{fill:#ede0d6;}</style></defs><title>life_face_3</title><g id="final"><path class="cls-1" d="M110.5,38c0,12.83-8.69,24.14-21.88,30.76A56.8,56.8,0,0,1,77.46,72.9a62.69,62.69,0,0,1-10.57,1.79c-1.27.11-2.55.18-3.85.21l-1.64,0-1.79,0h-.1l-.87,0-.69,0c-.3,0-.59,0-.89-.06s-.8,0-1.2-.09-.81-.06-1.21-.11l-1.19-.13c-1.58-.19-3.13-.45-4.67-.75-.37-.08-.76-.15-1.14-.24l-1.12-.26-1.12-.28-1.11-.29-1.08-.32h0L42.15,72l-.43-.14c-.58-.19-1.15-.39-1.71-.59l-1-.37-.08,0-.89-.35-.15-.07-1-.41-1-.43c-.47-.21-.92-.43-1.37-.65a0,0,0,0,0,0,0l-.13-.06q-1.2-.6-2.34-1.23l-.92-.53c-.38-.22-.76-.45-1.13-.69-.19-.11-.38-.24-.57-.36l-.84-.55c-.38-.25-.74-.51-1.1-.77C27,64.34,26.47,64,26,63.54c-.23-.18-.46-.36-.68-.55l-.77-.64-.15-.12-.06-.06-.13-.11-.42-.37-.41-.37-.71-.68-.31-.3-.68-.69h0L21,58.93l-.61-.68c-.22-.25-.44-.51-.65-.77l-.54-.66-.06-.08a35.33,35.33,0,0,1-2.17-3.1c-.17-.26-.33-.52-.49-.79l-.34-.6c-.2-.36-.39-.71-.57-1.06l0-.08,0,0-.09-.19c-.07-.12-.13-.25-.19-.38-.15-.31-.3-.62-.44-.94l-.33-.78,0-.1-.17-.42c-.16-.42-.31-.85-.45-1.27l-.18-.54s0-.08,0-.13l-.06-.2c-.05-.16-.09-.32-.14-.48-.2-.72-.38-1.44-.52-2.18-.06-.3-.11-.6-.16-.9s-.1-.6-.14-.91-.06-.45-.08-.68c-.08-.73-.13-1.47-.15-2.21,0-.27,0-.53,0-.8s0-.43,0-.64,0-.56,0-.84c0-.11,0-.22,0-.33s0-.41,0-.6l0-.3a.28.28,0,0,1,0-.09.78.78,0,0,1,0-.16c0-.27.06-.53.09-.79s.07-.5.11-.74.09-.56.14-.83c.09-.47.2-.95.31-1.42,0-.06,0-.12.05-.18a1.33,1.33,0,0,1,.05-.19c0-.22.11-.43.17-.64s.11-.38.17-.56,0-.12,0-.18l.11-.33c.06-.2.13-.4.2-.59.14-.42.3-.84.47-1.25L14.5,27c.15-.37.32-.75.49-1.12l0-.07,0-.09.06-.12c.09-.2.19-.4.29-.6s.28-.56.43-.83.22-.42.34-.63a.05.05,0,0,0,0,0c.14-.25.29-.49.44-.75l.17-.27a.61.61,0,0,1,.07-.1l0-.09a.86.86,0,0,0,.1-.16c.26-.4.52-.8.8-1.2.15-.22.3-.44.46-.65l.42-.56.33-.44.26-.32.41-.51c.61-.74,1.25-1.46,1.93-2.16a3,3,0,0,1,.25-.25l.18-.19c.23-.24.47-.47.72-.7l.28-.27.8-.73.29-.26.36-.31a45.17,45.17,0,0,1,4.88-3.64l.4-.25.59-.37,0,0c.47-.29.95-.57,1.43-.85l.65-.36L32.7,8l.63-.33c.75-.4,1.51-.78,2.29-1.14l.56-.26L36.69,6l.51-.22L38,5.46c.53-.22,1.08-.43,1.63-.64l.77-.28c1.29-.46,2.6-.88,4-1.25.22-.06.44-.13.66-.18l.24-.06,1-.25.62-.15,1.27-.28.54-.11.84-.16L50.26,2l.66-.12c.76-.12,1.52-.23,2.28-.32l.93-.11,1-.11.3,0,.66-.05.59-.05,1-.06,1.12-.06C59.64,1,60.52,1,61.4,1a65.47,65.47,0,0,1,7.33.41l.9.11a61.54,61.54,0,0,1,9,1.82c1.37.39,2.72.82,4,1.3C99.13,10.6,110.5,23.28,110.5,38Z"/><path class="cls-2" d="M94.5,36.16a47.88,47.88,0,0,1-9.82,29,50.68,50.68,0,0,1-7.22,7.72,62.69,62.69,0,0,1-10.57,1.79c-1.27.11-2.55.18-3.85.21l-1.64,0-1.79,0h-.1l-.87,0-.69,0c-.3,0-.59,0-.89-.06s-.8,0-1.2-.09-.81-.06-1.21-.11l-1.19-.13c-1.58-.19-3.13-.45-4.67-.75-.37-.08-.76-.15-1.14-.24l-1.12-.26-1.12-.28-1.11-.29-1.08-.32h0L42.15,72l-.43-.14c-.58-.19-1.15-.39-1.71-.59l-1-.37-.08,0-.89-.35-.15-.07-1-.41-1-.43c-.47-.21-.92-.43-1.37-.65a0,0,0,0,0,0,0l-.13-.06q-1.2-.6-2.34-1.23l-.92-.53c-.38-.22-.76-.45-1.13-.69-.19-.11-.38-.24-.57-.36l-.84-.55c-.38-.25-.74-.51-1.1-.77C27,64.34,26.47,64,26,63.54c-.23-.18-.46-.36-.68-.55l-.77-.64-.15-.12-.06-.06-.13-.11-.42-.37-.41-.37-.71-.68-.31-.3-.68-.69h0L21,58.93l-.61-.68c-.22-.25-.44-.51-.65-.77l-.54-.66-.06-.08a35.33,35.33,0,0,1-2.17-3.1c-.17-.26-.33-.52-.49-.79l-.34-.6c-.2-.36-.39-.71-.57-1.06l0-.08,0,0-.09-.19c-.07-.12-.13-.25-.19-.38-.15-.31-.3-.62-.44-.94l-.33-.78,0-.1-.17-.42c-.16-.42-.31-.85-.45-1.27l-.18-.54s0-.08,0-.13l-.06-.2c-.05-.16-.09-.32-.14-.48-.2-.72-.38-1.44-.52-2.18-.06-.3-.11-.6-.16-.9s-.1-.6-.14-.91-.06-.45-.08-.68c-.08-.73-.13-1.47-.15-2.21,0-.27,0-.53,0-.8s0-.43,0-.64,0-.56,0-.84c0-.11,0-.22,0-.33s0-.41,0-.6l0-.3a.28.28,0,0,1,0-.09.78.78,0,0,1,0-.16c0-.27.06-.53.09-.79s.07-.5.11-.74.09-.56.14-.83c.09-.47.2-.95.31-1.42,0-.06,0-.12.05-.18a1.33,1.33,0,0,1,.05-.19c0-.22.11-.43.17-.64s.11-.38.17-.56,0-.12,0-.18l.11-.33c.06-.2.13-.4.2-.59.14-.42.3-.84.47-1.25L14.5,27c.15-.37.32-.75.49-1.12l0-.07,0-.09.06-.12c.09-.2.19-.4.29-.6s.28-.56.43-.83.22-.42.34-.63a.05.05,0,0,0,0,0c.14-.25.29-.49.44-.75l.17-.27a.61.61,0,0,1,.07-.1l0-.09a.86.86,0,0,0,.1-.16c.26-.4.52-.8.8-1.2.15-.22.3-.44.46-.65l.42-.56.33-.44.26-.32.41-.51c.61-.74,1.25-1.46,1.93-2.16a3,3,0,0,1,.25-.25l.18-.19c.23-.24.47-.47.72-.7l.28-.27.8-.73.29-.26.36-.31a45.17,45.17,0,0,1,4.88-3.64l.4-.25.59-.37,0,0c.47-.29.95-.57,1.43-.85l.65-.36L32.7,8l.63-.33c.75-.4,1.51-.78,2.29-1.14l.56-.26L36.69,6l.51-.22L38,5.46c.53-.22,1.08-.43,1.63-.64l.77-.28c1.29-.46,2.6-.88,4-1.25.22-.06.44-.13.66-.18l.24-.06,1-.25.62-.15,1.27-.28.54-.11.84-.16L50.26,2l.66-.12c.76-.12,1.52-.23,2.28-.32l.93-.11,1-.11.3,0,.66-.05.59-.05,1-.06,1.12-.06C59.64,1,60.52,1,61.4,1a65.47,65.47,0,0,1,7.33.41l.9.11a61.54,61.54,0,0,1,9,1.82c1.37.39,2.72.82,4,1.3A48.08,48.08,0,0,1,94.5,36.16Z"/><path class="cls-3" d="M79.19,34.13v.5h0c0,.75,0,1.51-.06,2.26a60.33,60.33,0,0,1-3.55,18c-.25.69-.51,1.38-.79,2.06l-.57,1.34c-.49,1.11-1,2.2-1.55,3.27A54.49,54.49,0,0,1,63,74.9l-1.64,0-1.79,0h-.1l-.87,0-.69,0c-.3,0-.59,0-.89-.06s-.8,0-1.2-.09-.81-.06-1.21-.11l-1.19-.13c-1.58-.19-3.13-.45-4.67-.75-.37-.08-.76-.15-1.14-.24l-1.12-.26-1.12-.28-1.11-.29-1.08-.32h0L42.15,72l-.43-.14c-.58-.19-1.15-.39-1.71-.59l-1-.37-.08,0-.89-.35-.15-.07-1-.41-1-.43c-.47-.21-.92-.43-1.37-.65a0,0,0,0,0,0,0l-.13-.06q-1.2-.6-2.34-1.23l-.92-.53c-.38-.22-.76-.45-1.13-.69-.19-.11-.38-.24-.57-.36l-.84-.55c-.38-.25-.74-.51-1.1-.77C27,64.34,26.47,64,26,63.54c-.23-.18-.46-.36-.68-.55l-.77-.64-.15-.12-.06-.06-.13-.11-.42-.37-.41-.37-.71-.68-.31-.3-.68-.69h0L21,58.93l-.61-.68c-.22-.25-.44-.51-.65-.77l-.54-.66-.06-.08a35.33,35.33,0,0,1-2.17-3.1c-.17-.26-.33-.52-.49-.79l-.34-.6c-.2-.36-.39-.71-.57-1.06l0-.08,0,0-.09-.19-.05-.09c-.05-.09-.09-.19-.14-.29-.15-.31-.3-.62-.44-.94l-.33-.78,0-.1-.17-.42c-.16-.42-.31-.85-.45-1.27l-.18-.54s0-.08,0-.13l-.06-.2c-.05-.16-.09-.32-.14-.48-.2-.72-.38-1.44-.52-2.18-.06-.3-.11-.6-.16-.9s-.1-.6-.14-.91-.06-.45-.08-.68c-.08-.73-.13-1.47-.15-2.21,0-.27,0-.53,0-.8s0-.43,0-.64,0-.56,0-.84c0-.11,0-.22,0-.33s0-.41,0-.6l0-.3a.28.28,0,0,1,0-.09.78.78,0,0,1,0-.16c0-.27.06-.53.09-.79s.07-.5.11-.74.09-.56.14-.83c.09-.47.2-.95.31-1.42,0-.06,0-.12.05-.18a1.33,1.33,0,0,1,.05-.19c0-.22.11-.43.17-.64s.11-.38.17-.56,0-.12,0-.18l.11-.33c.06-.2.13-.4.2-.59.14-.42.3-.84.47-1.25L14.5,27c.15-.37.32-.75.49-1.12l0-.07,0-.09.06-.12c.09-.2.19-.4.29-.6s.28-.56.43-.83.22-.42.34-.63a.05.05,0,0,0,0,0c.14-.25.29-.49.44-.75l.17-.27a.61.61,0,0,1,.07-.1,2,2,0,0,1,.14-.25c.26-.4.52-.8.8-1.2.15-.22.3-.44.46-.65l.42-.56.33-.44.26-.32.41-.51c.61-.74,1.25-1.46,1.93-2.16a3,3,0,0,1,.25-.25l.18-.19c.23-.24.47-.47.72-.7l.28-.27.8-.73.29-.26.36-.31a45.17,45.17,0,0,1,4.88-3.64l.4-.25.59-.37,0,0c.47-.29.95-.57,1.43-.85l.65-.36L32.7,8l.63-.33c.75-.4,1.51-.78,2.29-1.14l.56-.26L36.69,6l.51-.22L38,5.46c.53-.22,1.08-.43,1.63-.64l.77-.28c1.29-.46,2.6-.88,4-1.25.22-.06.44-.13.66-.18l.24-.06,1-.25.62-.15,1.27-.28.54-.11.84-.16L50.26,2l.66-.12c.76-.12,1.52-.23,2.28-.32l.93-.11,1-.11.3,0,.66-.05.59-.05,1-.06,1.12-.06C59.64,1,60.52,1,61.4,1a65.47,65.47,0,0,1,7.33.41l.9.11c.3.45.59.92.88,1.39h0a58.24,58.24,0,0,1,7.73,20.4A62,62,0,0,1,79.19,34.13Z"/><path class="cls-4" d="M81,37.51a79.31,79.31,0,0,1-.53,9.27c-.22,1.79-.49,3.54-.82,5.22l-.06.31c-.14.72-.3,1.43-.46,2.13-.12.48-.23,1-.36,1.43s-.29,1.1-.45,1.64c0,.06,0,.13,0,.19-.17.56-.35,1.11-.53,1.65l-.14.45h0c-.33.94-.67,1.85-1,2.73-2.49,6-5.85,10.36-9.67,12.15-1.27.11-2.55.18-3.85.21l-1.64,0-1.79,0h-.1c-4.3-1.77-8-6.76-10.66-13.74-.43-1.15-.84-2.35-1.2-3.6-.11-.38-.22-.76-.32-1.15-.41-1.5-.77-3-1.08-4.67h0A76.3,76.3,0,0,1,45,38.26v-.75c0-1.54,0-3,.12-4.54h0a78,78,0,0,1,.84-7.77C47.78,13.71,52.15,4.7,57.66,1.11l1.12,0,10,.27a14.31,14.31,0,0,1,1.78,1.5h0c4.13,4,7.42,11.26,9.14,20.18A74.63,74.63,0,0,1,81,36.17C81,36.61,81,37.06,81,37.51Z"/><path class="cls-5" d="M34.59,68.93c-13.43-6.6-22.29-18-22.29-31,0-11.57,7.06-21.9,18.12-28.67a62.21,62.21,0,0,0-5.59,21.33C23.65,45.19,27.47,58.77,34.59,68.93Z"/><g class="cls-6"><path class="cls-7" d="M30.88,15.85c-.26-.4-2,.55-3.91,2.12a22.61,22.61,0,0,0-5.1,6.3,24.58,24.58,0,0,0-1.82,8.13c-.09,2.56.51,4.43,1.34,4.13s1.5-2.1,1.51-4a19.46,19.46,0,0,1,1.67-6.94,30.49,30.49,0,0,1,4.22-6.23C30.21,17.82,31.15,16.25,30.88,15.85Z"/></g><g class="cls-8"><polygon class="cls-9" points="29.86 54.88 35.21 54.88 32.54 63.26 29.86 54.88"/><rect class="cls-9" x="30.4" y="49.24" width="5.4" height="6.44" transform="translate(13.19 -6.29) rotate(13.53)"/><rect class="cls-9" x="35.41" y="48.29" width="7.42" height="5.58" transform="translate(13.03 -7.73) rotate(13.53)"/><rect class="cls-9" x="36.45" y="44.76" width="7.42" height="3.97" transform="translate(12.05 -8.1) rotate(13.53)"/><rect class="cls-9" x="41.84" y="43.51" width="2.5" height="3.37" transform="translate(11.77 -8.82) rotate(13.53)"/><rect class="cls-9" x="42.47" y="41.38" width="2.5" height="2.4" transform="translate(11.17 -9.04) rotate(13.53)"/><polygon class="cls-9" points="44.58 43.52 54.78 43.52 49.68 54.43 44.58 43.52"/><rect class="cls-9" x="43.02" y="38.54" width="2.5" height="3.37" transform="translate(10.64 -9.24) rotate(13.53)"/><rect class="cls-9" x="44.77" y="39.9" width="9.47" height="4.98" transform="translate(11.29 -10.4) rotate(13.53)"/><polygon class="cls-9" points="62.54 43.66 51.74 44.05 56.81 34.74 62.54 43.66"/><polygon class="cls-9" points="54.38 43.71 67.13 43.25 61.15 54.38 54.38 43.71"/><polygon class="cls-9" points="61.59 43.52 74.31 44.44 68.73 33.09 61.59 43.52"/><polygon class="cls-9" points="66.94 42.21 78.4 43.04 71.78 54.94 66.94 42.21"/><polygon class="cls-9" points="93.17 54.64 87.82 54.64 90.5 63.02 93.17 54.64"/><rect class="cls-9" x="87.24" y="49.01" width="5.39" height="6.44" transform="translate(189.58 81.97) rotate(166.47)"/><rect class="cls-9" x="80.2" y="48.05" width="7.42" height="5.58" transform="translate(177.39 80.65) rotate(166.47)"/><rect class="cls-9" x="79.16" y="44.52" width="7.42" height="3.97" transform="translate(174.32 72.34) rotate(166.47)"/><rect class="cls-9" x="78.69" y="43.27" width="2.5" height="3.37" transform="translate(168.19 69.97) rotate(166.47)"/><rect class="cls-9" x="78.07" y="41.14" width="2.5" height="2.4" transform="translate(166.34 64.95) rotate(166.47)"/><rect class="cls-9" x="77.51" y="38.31" width="2.5" height="3.37" transform="translate(164.7 60.45) rotate(166.47)"/><rect class="cls-9" x="68.8" y="39.66" width="9.47" height="4.98" transform="translate(154.88 65.94) rotate(166.47)"/></g><g class="cls-8"><path class="cls-9" d="M54.86,22.57c.74,0,1.54,1.61,1.79,3.52s-.65,2.83-2,2a19.17,19.17,0,0,1-3.55-2.63,13.37,13.37,0,0,0-3.19-2.22A16,16,0,0,0,44.32,22a16.84,16.84,0,0,1-3.42-1.08,11.37,11.37,0,0,0-3.42-.9,25.8,25.8,0,0,0-4.63.6c-1.7.37-2.73.07-2.28-.65a4.51,4.51,0,0,1,3.32-1.42c1.37-.06,3.79-.06,5.37,0a35.92,35.92,0,0,1,6.3,1,42.6,42.6,0,0,1,5.69,1.93A12.44,12.44,0,0,0,54.86,22.57Z"/></g><g class="cls-8"><path class="cls-9" d="M69.45,22.88c-.73.11-1.34,1.78-1.36,3.7s1,2.72,2.22,1.78a20,20,0,0,0,3.2-3,13.52,13.52,0,0,1,2.88-2.58,15.65,15.65,0,0,1,3.42-1.7,17.11,17.11,0,0,0,3.25-1.48,11.29,11.29,0,0,1,3.28-1.29,25.23,25.23,0,0,1,4.65.05c1.73.15,2.71-.26,2.18-.92a4.5,4.5,0,0,0-3.45-1c-1.37.11-3.76.39-5.32.64a34.76,34.76,0,0,0-6.11,1.73,42.36,42.36,0,0,0-5.4,2.59A12.49,12.49,0,0,1,69.45,22.88Z"/></g><path class="cls-10" d="M93.4,15.8a5.32,5.32,0,0,1,1.33-.5l1.66-.4a6.1,6.1,0,0,1,1.39-.18,2.53,2.53,0,0,1,1.17.36,3.13,3.13,0,0,1,.86.84l.29.48s.05.15.1.34a2.18,2.18,0,0,1,.07.72,5.63,5.63,0,0,1-.15.78,2,2,0,0,1-.71.81,9,9,0,0,1-1.3.72,10.56,10.56,0,0,1-1.35.44l-1.17.28a3.48,3.48,0,0,1-1.12.06c-.33,0-.81-.12-1.08-.17a3.46,3.46,0,0,1-.84-.29,11.44,11.44,0,0,0-1.15-.43c-.44-.13-.82-.32-.85-.43l-.06-.2.34-.37a5.88,5.88,0,0,0,.59-.69l.54-.75a6.69,6.69,0,0,1,.65-.76A5.12,5.12,0,0,1,93.4,15.8Z"/><path class="cls-11" d="M91.59,18.94c0,.09.34.24.7.34a7.07,7.07,0,0,1,.95.33,3.38,3.38,0,0,0,.7.22l.89.13a3.66,3.66,0,0,0,.94-.06l1-.24a10.41,10.41,0,0,0,1.13-.36A8.65,8.65,0,0,0,99,18.72a1.62,1.62,0,0,0,.6-.66,4.76,4.76,0,0,0,.13-.61,1.79,1.79,0,0,0,0-.57,3.84,3.84,0,0,0-.32-.65,2.47,2.47,0,0,0-.7-.66,2.28,2.28,0,0,0-1-.27,6.59,6.59,0,0,0-1.16.15l-1.39.34A4.93,4.93,0,0,0,94,16.2a5.78,5.78,0,0,0-.67.53,7.84,7.84,0,0,0-.54.61l-.46.6a4.93,4.93,0,0,1-.5.56C91.67,18.65,91.56,18.86,91.59,18.94Z"/><path class="cls-12" d="M92.41,18.64a1.21,1.21,0,0,0,.58.29,5.6,5.6,0,0,1,.8.27,2.63,2.63,0,0,0,.58.19l.74.1a2.9,2.9,0,0,0,.78,0l.81-.19a8.44,8.44,0,0,0,.93-.31,6.13,6.13,0,0,0,.92-.48,1.42,1.42,0,0,0,.49-.55,2.33,2.33,0,0,0,.11-.51,1.54,1.54,0,0,0,0-.48,3,3,0,0,0-.27-.54,2.09,2.09,0,0,0-.59-.55,1.79,1.79,0,0,0-.8-.23,5.2,5.2,0,0,0-1,.13L95.34,16a3.74,3.74,0,0,0-.93.34,4.08,4.08,0,0,0-.55.44,4.32,4.32,0,0,0-.45.51l-.38.5c-.1.12-.28.33-.42.47S92.38,18.57,92.41,18.64Z"/><path class="cls-10" d="M30.07,16.6a5.19,5.19,0,0,0-1.42.14L27,17.13a7.23,7.23,0,0,0-1.32.46,2.64,2.64,0,0,0-.88.85,3,3,0,0,0-.39,1.13l-.05.56s0,.16.06.36a2.55,2.55,0,0,0,.27.67,5.53,5.53,0,0,0,.48.63,2.08,2.08,0,0,0,1,.41,8.05,8.05,0,0,0,1.48.05,11.67,11.67,0,0,0,1.41-.2l1.17-.28a3.54,3.54,0,0,0,1-.45c.28-.18.67-.47.89-.63a4.73,4.73,0,0,0,.63-.64,8.33,8.33,0,0,1,.83-.9c.33-.31.59-.66.57-.77l0-.21L33.64,18a8.53,8.53,0,0,1-.84-.35L32,17.22c-.25-.13-.66-.3-.92-.4A5.38,5.38,0,0,0,30.07,16.6Z"/><path class="cls-11" d="M33.09,18.59c0,.09-.2.37-.48.62a8.66,8.66,0,0,0-.7.72,2.87,2.87,0,0,1-.53.51c-.18.14-.51.37-.74.51a3.24,3.24,0,0,1-.86.37l-1,.23a10,10,0,0,1-1.17.17,7.29,7.29,0,0,1-1.24,0,1.8,1.8,0,0,1-.83-.32,4.41,4.41,0,0,1-.39-.49,1.61,1.61,0,0,1-.22-.53,3.35,3.35,0,0,1,0-.72,2.56,2.56,0,0,1,.34-.9,2.32,2.32,0,0,1,.74-.69,6.43,6.43,0,0,1,1.1-.37l1.4-.33a5,5,0,0,1,1.17-.13,5.43,5.43,0,0,1,.84.17,7.12,7.12,0,0,1,.76.31L32,18a6.86,6.86,0,0,0,.7.27C32.88,18.37,33.07,18.5,33.09,18.59Z"/><path class="cls-12" d="M32.22,18.69c0,.07-.16.31-.39.52a5.3,5.3,0,0,0-.59.6,2.54,2.54,0,0,1-.44.42c-.15.12-.42.31-.61.43a2.85,2.85,0,0,1-.72.31l-.81.19a8.55,8.55,0,0,1-1,.14,5.05,5.05,0,0,1-1,0A1.4,1.4,0,0,1,26,21a2.47,2.47,0,0,1-.33-.41,1.21,1.21,0,0,1-.18-.44,2.41,2.41,0,0,1,0-.61,2.16,2.16,0,0,1,.28-.75,1.87,1.87,0,0,1,.62-.57,5.36,5.36,0,0,1,.91-.31l1.16-.27a3.84,3.84,0,0,1,1-.11,5.1,5.1,0,0,1,.7.14c.18.06.46.18.63.26l.56.28c.14.06.4.17.58.23S32.21,18.61,32.22,18.69Z"/><path class="cls-10" d="M15.05,22a5.51,5.51,0,0,0-1.33.52l-1.5.83a6.68,6.68,0,0,0-1.14.8,2.63,2.63,0,0,0-.63,1.06,3.24,3.24,0,0,0-.06,1.19l.1.56.16.32a2,2,0,0,0,.44.58,6.45,6.45,0,0,0,.63.47,2,2,0,0,0,1.07.12,8.17,8.17,0,0,0,1.44-.35,9.78,9.78,0,0,0,1.3-.58l1-.58a3.44,3.44,0,0,0,.87-.71c.21-.25.52-.63.68-.85a4.06,4.06,0,0,0,.43-.78,9.59,9.59,0,0,1,.56-1.1,1.69,1.69,0,0,0,.34-.89l-.09-.19-.5,0A7.56,7.56,0,0,1,18,22.3l-.9-.19a6.54,6.54,0,0,0-1-.13A5,5,0,0,0,15.05,22Z"/><path class="cls-11" d="M18.5,23.13a1.37,1.37,0,0,1-.29.72,8.12,8.12,0,0,0-.49.89,3.15,3.15,0,0,1-.36.63c-.14.18-.4.49-.58.69a3.1,3.1,0,0,1-.73.59l-.88.49a10,10,0,0,1-1.08.48,6.74,6.74,0,0,1-1.19.31,1.72,1.72,0,0,1-.89-.08,4.67,4.67,0,0,1-.51-.36,1.88,1.88,0,0,1-.35-.45,3.12,3.12,0,0,1-.2-.7,2.48,2.48,0,0,1,.08-1,2.08,2.08,0,0,1,.53-.85,5.52,5.52,0,0,1,1-.67l1.25-.69a4.47,4.47,0,0,1,1.1-.44,4.89,4.89,0,0,1,.84-.06,7.34,7.34,0,0,1,.82.09l.74.13A5.47,5.47,0,0,0,18,23,.69.69,0,0,1,18.5,23.13Z"/><path class="cls-12" d="M17.69,23.46a1.23,1.23,0,0,1-.24.6,5.27,5.27,0,0,0-.4.74,3.3,3.3,0,0,1-.31.53c-.11.15-.33.41-.48.58a2.75,2.75,0,0,1-.6.49l-.73.4a8.38,8.38,0,0,1-.9.4,5.47,5.47,0,0,1-1,.26,1.35,1.35,0,0,1-.73-.07,3.61,3.61,0,0,1-.43-.3,1.36,1.36,0,0,1-.3-.38,3.77,3.77,0,0,1-.17-.58,2.21,2.21,0,0,1,.07-.8,1.89,1.89,0,0,1,.44-.72,5.53,5.53,0,0,1,.8-.55l1-.57a3.61,3.61,0,0,1,.91-.37,3.44,3.44,0,0,1,.71-.05,5.23,5.23,0,0,1,.68.07l.62.11a5.32,5.32,0,0,0,.62.07C17.47,23.33,17.66,23.39,17.69,23.46Z"/><path class="cls-10" d="M109.08,16.53a5.82,5.82,0,0,1,1.39.32l1.6.59a6.72,6.72,0,0,1,1.26.62,2.49,2.49,0,0,1,.77,1,3.16,3.16,0,0,1,.25,1.17l0,.56s0,.16-.1.35a2.3,2.3,0,0,1-.35.63,4.15,4.15,0,0,1-.55.56,2,2,0,0,1-1,.29,8.3,8.3,0,0,1-1.48-.13,11.28,11.28,0,0,1-1.37-.37l-1.13-.41a4.22,4.22,0,0,1-1-.58c-.24-.21-.6-.55-.8-.74a3.81,3.81,0,0,1-.54-.71,9.51,9.51,0,0,0-.72-1,1.79,1.79,0,0,1-.47-.84l.06-.2.49-.11a7.82,7.82,0,0,0,.88-.25l.86-.32a8.1,8.1,0,0,1,1-.28A5.69,5.69,0,0,1,109.08,16.53Z"/><path class="cls-11" d="M105.84,18.14c0,.09.15.39.39.68a6.08,6.08,0,0,1,.61.8,3.83,3.83,0,0,0,.46.57l.68.6a3.49,3.49,0,0,0,.81.47l.94.34a8.14,8.14,0,0,0,1.14.32,6.49,6.49,0,0,0,1.23.12,1.62,1.62,0,0,0,.86-.21,3.75,3.75,0,0,0,.45-.44,1.65,1.65,0,0,0,.28-.5,2.82,2.82,0,0,0,.09-.72,2.37,2.37,0,0,0-.22-.93,2.32,2.32,0,0,0-.65-.77,6.87,6.87,0,0,0-1-.51l-1.34-.49a5.06,5.06,0,0,0-1.16-.27,3.86,3.86,0,0,0-.84.07,7.23,7.23,0,0,0-.8.21l-.71.24a5.75,5.75,0,0,1-.72.19C106.07,18,105.86,18.06,105.84,18.14Z"/><path class="cls-12" d="M106.68,18.35a1.27,1.27,0,0,0,.33.56,4.56,4.56,0,0,1,.51.67,3.13,3.13,0,0,0,.38.47c.14.13.39.36.56.5a3,3,0,0,0,.68.4l.78.28a7.65,7.65,0,0,0,1,.27,7.32,7.32,0,0,0,1,.1,1.44,1.44,0,0,0,.71-.18,3.34,3.34,0,0,0,.38-.37,1.32,1.32,0,0,0,.23-.42,2.35,2.35,0,0,0,.08-.6,2.14,2.14,0,0,0-.18-.78,1.89,1.89,0,0,0-.55-.64,4.41,4.41,0,0,0-.87-.42l-1.12-.41a4.08,4.08,0,0,0-1-.23,4,4,0,0,0-.7.06,6.36,6.36,0,0,0-.66.18l-.59.2c-.15.05-.42.12-.61.16A.54.54,0,0,0,106.68,18.35Z"/><path class="cls-10" d="M120.15,25.48a5.13,5.13,0,0,1,1.18.79l1.29,1.12a6.84,6.84,0,0,1,1,1,2.7,2.7,0,0,1,.38,1.17,3.18,3.18,0,0,1-.18,1.18l-.22.52-.22.29a2.53,2.53,0,0,1-.55.47,4.75,4.75,0,0,1-.72.32,1.9,1.9,0,0,1-1.07-.1,7.51,7.51,0,0,1-1.34-.65,10.85,10.85,0,0,1-1.14-.83l-.91-.79a3.82,3.82,0,0,1-.7-.88c-.16-.29-.38-.73-.49-1a3.69,3.69,0,0,1-.25-.85,9.61,9.61,0,0,0-.32-1.19,1.69,1.69,0,0,1-.14-.94l.12-.17.5.07a7.65,7.65,0,0,0,.91.08h.92c.27,0,.72,0,1,.08A5.42,5.42,0,0,1,120.15,25.48Z"/><path class="cls-11" d="M116.54,25.83a1.56,1.56,0,0,0,.13.77,7.06,7.06,0,0,1,.29,1,3,3,0,0,0,.23.7c.09.2.28.56.42.8a3.22,3.22,0,0,0,.58.73l.76.65a10.67,10.67,0,0,0,1,.71,6.73,6.73,0,0,0,1.11.55,1.63,1.63,0,0,0,.88.11,5.06,5.06,0,0,0,.58-.25,1.73,1.73,0,0,0,.44-.37,3.37,3.37,0,0,0,.34-.64,2.39,2.39,0,0,0,.12-.95,2.25,2.25,0,0,0-.33-1,7.67,7.67,0,0,0-.8-.85l-1.08-.93a4.42,4.42,0,0,0-1-.67,5,5,0,0,0-.81-.24,7.34,7.34,0,0,0-.82-.08l-.75,0a5.2,5.2,0,0,1-.74-.08A.68.68,0,0,0,116.54,25.83Z"/><path class="cls-12" d="M117.26,26.32a1.32,1.32,0,0,0,.11.64,5,5,0,0,1,.24.81,2.45,2.45,0,0,0,.19.58c.08.17.23.47.34.66a3,3,0,0,0,.49.61l.63.55a9.24,9.24,0,0,0,.8.58,4.94,4.94,0,0,0,.92.46,1.34,1.34,0,0,0,.73.09,3.48,3.48,0,0,0,.48-.21,1.25,1.25,0,0,0,.37-.31,2.8,2.8,0,0,0,.29-.53,2,2,0,0,0,.1-.8,1.83,1.83,0,0,0-.28-.79A4.71,4.71,0,0,0,122,28l-.9-.77a3.87,3.87,0,0,0-.82-.56,5.82,5.82,0,0,0-.68-.2,5.05,5.05,0,0,0-.68-.06l-.62,0-.62-.07A.58.58,0,0,0,117.26,26.32Z"/><path class="cls-10" d="M5.44,32.64a5.49,5.49,0,0,0-1.07.93c-.34.37-.85,1-1.14,1.28A6.63,6.63,0,0,0,2.41,36a2.7,2.7,0,0,0-.24,1.21,3.43,3.43,0,0,0,.33,1.15l.29.49.25.25a2.15,2.15,0,0,0,.61.4,5.48,5.48,0,0,0,.75.23,2,2,0,0,0,1-.23,8.88,8.88,0,0,0,1.25-.81,12.22,12.22,0,0,0,1-1l.8-.89a3.9,3.9,0,0,0,.58-1c.12-.3.28-.76.36-1a3.68,3.68,0,0,0,.15-.89,8.35,8.35,0,0,1,.17-1.21,1.77,1.77,0,0,0,0-1l-.15-.15-.49.14a8.4,8.4,0,0,1-.89.19l-.91.12a8.52,8.52,0,0,0-1,.2A5.44,5.44,0,0,0,5.44,32.64Z"/><path class="cls-11" d="M9.06,32.53a1.38,1.38,0,0,1,0,.78,6.84,6.84,0,0,0-.16,1,3.5,3.5,0,0,1-.14.72c-.07.21-.21.59-.32.84a3.24,3.24,0,0,1-.49.8l-.67.75a9.52,9.52,0,0,1-.85.81,6.62,6.62,0,0,1-1,.69,1.7,1.7,0,0,1-.86.22,4.73,4.73,0,0,1-.6-.17,1.64,1.64,0,0,1-.49-.31A3.49,3.49,0,0,1,3,38.07a2.5,2.5,0,0,1-.24-.93,2.21,2.21,0,0,1,.22-1,6.26,6.26,0,0,1,.68-.94l1-1.07a4.48,4.48,0,0,1,.89-.78A5.17,5.17,0,0,1,6.28,33a7.33,7.33,0,0,1,.81-.19l.74-.12a5.69,5.69,0,0,0,.72-.17A.67.67,0,0,1,9.06,32.53Z"/><path class="cls-12" d="M8.41,33.11a1.21,1.21,0,0,1,0,.65,5.19,5.19,0,0,0-.13.83,2.89,2.89,0,0,1-.12.6,7,7,0,0,1-.26.71,2.77,2.77,0,0,1-.4.66l-.56.62a9.31,9.31,0,0,1-.71.68,5.56,5.56,0,0,1-.86.57,1.4,1.4,0,0,1-.72.18,3.65,3.65,0,0,1-.5-.14,1.38,1.38,0,0,1-.4-.26,2.7,2.7,0,0,1-.36-.5,2.08,2.08,0,0,1-.2-.77,1.86,1.86,0,0,1,.18-.82,4.56,4.56,0,0,1,.57-.79l.79-.89a4.38,4.38,0,0,1,.74-.65,4.55,4.55,0,0,1,.65-.28c.18,0,.48-.12.67-.15l.62-.1a5.83,5.83,0,0,0,.6-.15A.61.61,0,0,1,8.41,33.11Z"/></g></svg>
