<svg xmlns="http://www.w3.org/2000/svg" width="503.44" height="181.75" viewBox="0 0 503.44 181.75"><defs><style>.cls-1{fill:#ec6632;}.cls-2{fill:#442518;}</style></defs><title>load_button</title><g id="final"><rect class="cls-1" x="6.44" y="12.03" width="497" height="159.5" rx="12" ry="12"/><path class="cls-2" d="M45.34,34.2a17.19,17.19,0,0,1,4.57-.32c.39-.32.88-.22,1.47.32a3.48,3.48,0,0,1,1.11,1.6c.14.53.31,1.44.51,2.72a21.66,21.66,0,0,0-.44,7.68,141.17,141.17,0,0,1,0,15.68Q52,77.87,52,78.2q-.33,8.16-1.18,21.76c0-.32.05,3,.15,9.92q0,2.88.88,12.8,0,3.36.15,6.72.15,5.11,1,5.92c.89,1,3.58,1.44,8.1,1.44a40.71,40.71,0,0,1,6.19-2.08q2.94-.81,4.86-5a3.22,3.22,0,0,0-.3-3.52q-2.35-2.88-4.71-1.76a1.43,1.43,0,0,0-.88,1.28,3.73,3.73,0,0,0,1.17,2.4c.79.85,1.38,1.28,1.77,1.28l-1.33,2.4Q63,129.71,63,126.52a12,12,0,0,1,.44-2.88,7.47,7.47,0,0,1,1.62-2.72A5.39,5.39,0,0,1,67,120.6c1.77,0,4.12,1,7.07,3.06.29.22.56,1.13.81,2.75a9.69,9.69,0,0,1,.07,3.55q-.43,1.14-2.64,5.82l-1,2.26q-3.52.59-10.12,1.6a41,41,0,0,1-7.92-.16q-5.73.48-15,1.6V110.2q0-36.33,2.11-52.16a117.94,117.94,0,0,0,1.27-14.88,10.75,10.75,0,0,0-.73-4.72c-.5-.91-2-1.36-4.42-1.36a16.29,16.29,0,0,0-1.62,6.4h.74v-.32A22.61,22.61,0,0,1,37,40.68a2.61,2.61,0,0,1,1.92-1.36c.19-.11.29-.06.29.16a4.48,4.48,0,0,1,.29,1.6A5.56,5.56,0,0,1,38.2,44.6a3.51,3.51,0,0,1-2.72,1.6q-3.39,0-3.39-4.64c0-3.2.93-5.5,2.8-6.88C35.18,34.36,38.67,34.2,45.34,34.2Z"/><path class="cls-2" d="M118.09,116.28q-3,12.79-9.57,20.16a15,15,0,0,1-4.27,3.52,14,14,0,0,1-3.24,1.12,26.76,26.76,0,0,1-7.51-2.24q-5-2.09-6.48-4a27.07,27.07,0,0,1-4.27-8.32,145.94,145.94,0,0,1-5.16-19.68Q76.42,96.43,76.27,91c-.39-3-.74-5.92-1-8.8a40.23,40.23,0,0,1-.15-9Q76,65.4,76.56,61.56c1.18-3.84,1.87-6,2.06-6.4q2.07-7,4.13-9.76Q87.61,39,93.2,37.24l4.72-.64a33.46,33.46,0,0,0,3.53.32,6.31,6.31,0,0,1,3.24.64,11.9,11.9,0,0,1,3.53,4.16c.3.42,1.08,1.94,2.36,4.56s2.26,4.5,2.94,5.68q4.86,12.63,6,37.28c.3,2.77.49,4.9.59,6.4A78.83,78.83,0,0,1,118.09,116.28ZM91.14,87h5.6v-.32q0-7.37.14-11,.3-12-.58-26.24V45.88a6.44,6.44,0,0,0-.59-3.2c-1,1.49-1.67,2.56-2.06,3.2a68.31,68.31,0,0,0-1.33,7Q91.14,60.75,91.14,87Zm6.48,7.52a19.31,19.31,0,0,1-.88-5.28H94.38c-1.47.1-2.55.21-3.24.32a11.82,11.82,0,0,0,.66,4.8c.45.85,1.65,1.28,3.61,1.28l1.92-.8C97.33,94.62,97.42,94.52,97.62,94.52ZM100,134.68Q97.76,107.8,97.62,107L97,98.2a2.64,2.64,0,0,0-.73-1.12,7.81,7.81,0,0,1-2.51.48c-1.37.21-2.06.16-2.06-.16a.84.84,0,0,1-.59.32,144.47,144.47,0,0,0,2.21,15.2q.89,4.32,3.39,14.56l1.32,4.16,1.48,3Zm5.45-80.32q-1.19-6.24-1.77-9.44l-1.77-4.64H99q-.15,4.32-.3,6.24.55,12.63.74,18.88V89.56l.59,5.28-.59,6.4q.67,8,2.35,23.52.89,9.6,1.18,11.68h.3v-.32a40.72,40.72,0,0,0,2.5-7.84q2.5-8,2.65-23.52A322.31,322.31,0,0,0,105.43,54.36Z"/><path class="cls-2" d="M174.78,135.31a3.58,3.58,0,0,1,1.18,2.24c-.2.75-.35,1.34-.44,1.77a11.71,11.71,0,0,0-2.14.24,11.09,11.09,0,0,1-1.69.24l-4.27-.16a30,30,0,0,1-2.95.56,27.19,27.19,0,0,1-3.83.4,3.76,3.76,0,0,1-2.79-.8,16.16,16.16,0,0,1,0-6.24q-.15-1.29-1.77-8.08t-1.91-7a4.37,4.37,0,0,0-1.77-.32c-1.18,0-4.12.74-8.84,2.24-4,1.28-6.5,2.42-7.43,3.44a9,9,0,0,0-2,4.4c-.2,1.49-.44,3-.74,4.64q-1.47,9.12-1.47,9.28,0,6.87,4.42,8.64a1.36,1.36,0,0,1,.51.48,1.35,1.35,0,0,1,.22.8h-.44v.32q-5.44-.65-5.45-3.2h-.73v9.28h-.59a63.4,63.4,0,0,1-1.47-6.4,9.54,9.54,0,0,1,0-2.4c.09-1.18.14-1.92.14-2.24-.49-.22-.73-.22-.73,0A15,15,0,0,1,124,149.4l-2.06-.48v-.32a7.69,7.69,0,0,0,4.27-2.88,47.39,47.39,0,0,0,3.09-8.8q2.35-10.89,2.94-15l.89-5.6h-.3l-7.21,4.16c-.89-2.35-1.33-3.42-1.33-3.2l9.87-4.64q1-11.2,1.77-16.64Q138,73.07,138.7,56.28q0-.64.59-6.08c.3-3.31.44-5.87.44-7.68,0-2.24-.24-3.74-.73-4.48s-2.06-1.12-4.71-1.12c-5.4,0-8.4.9-9,2.72a6.72,6.72,0,0,0-.29,1.92,4.62,4.62,0,0,0,1.18,3.12A3.46,3.46,0,0,0,128.84,46c1.27,0,1.91-.86,1.91-2.56l-2-.24q-.66-.09-.51-1.68c.09-1.07.29-1.6.59-1.6v.32q4.56-.64,4.56,3.68a5.76,5.76,0,0,1-1.4,3.76,4.46,4.46,0,0,1-3.6,1.68,5.32,5.32,0,0,1-4.64-2.48,10.11,10.11,0,0,1-1.7-5.84c0-4.38,1.62-6.56,4.86-6.56,1.48-.11,2.55-.22,3.24-.32a23.52,23.52,0,0,1,7.22-.32,55.25,55.25,0,0,1,6.77,1.36q5.59,1.07,6.19,1.68,1,1.28,1.62,5.28c.29,2,.59,4,.88,5.93q2.35,10.9,3.24,14.59,3.39,14.9,4.86,22.43,4.56,16.18,6.92,24.36,3.67,15.7,5.45,23.72C173.41,133.33,173.9,134,174.78,135.31Zm-21.35-22.23c0-1.39-.88-2.24-2.65-2.56a44,44,0,0,1-4.27,1.28q-5,1.92-7.66,2.88a6.28,6.28,0,0,0-2.21,1.12c-.88,1-1.32,2.5-1.32,4.64h1.76q10.9-5,14.29-5A11,11,0,0,0,153,114.2,1.63,1.63,0,0,0,153.43,113.08ZM137.08,112H138q11.34-4.32,14.13-4.32a18.46,18.46,0,0,0-.88-5.28q-1.77-8.49-2.36-11.36Q146.22,75.16,145,67.16,143,55,141.94,52.28,140.62,76,139.88,87.8,138.11,104,137.08,112Z"/><path class="cls-2" d="M221.46,116.72c-.49,4-.79,6.46-.88,7.53a10.93,10.93,0,0,1-1.92,5.93,28.4,28.4,0,0,1-7.8,7,24.36,24.36,0,0,1-9.13,3.85q.74-.24-3.54-.48l-7.95.48H187.3c-1.48-.11-2.21-.38-2.21-.8h.29q.15.32.15-6.08c0-.32-.1-2-.29-5q.44-14.88.29-22.4.58-9.6.88-14.56a58.39,58.39,0,0,0-.14-6.88c-.4-3.52-.59-5.82-.59-6.88,0-2.24.19-5.28.59-9.12.39-4.38.63-7.36.73-9v-11l-.44-4.32h.3c-1.38-1.92-2.75-2.88-4.13-2.88q-2.35,0-3.09,3.46a9.08,9.08,0,0,0,0,5.12,13.68,13.68,0,0,0,.88,2h.59v-.32a3,3,0,0,1,1-.32c0-1.18.69-1.76,2.06-1.76a4.46,4.46,0,0,1-1.1,3.28,3.68,3.68,0,0,1-2.87,1.52,2.91,2.91,0,0,1-1.62-.49q-3-2.45-1.77-9.31,1.18-6.53,8.84-6.52a30.42,30.42,0,0,1,4.19.4,32.53,32.53,0,0,0,3.76.4q1.32-.64,9.28-.8,8.53-.17,11.19.8t5.59,6.09q2.35,4.17,2.36,17.78.3,43.44,0,45.84A62.67,62.67,0,0,1,221.46,116.72Zm-10.6-32.44a195.77,195.77,0,0,0-1-26.24q-.6-7.68-.74-11.68a6.14,6.14,0,0,0-2.76-2.72,16.58,16.58,0,0,0-3.49-1.44,22,22,0,0,0-2.76.16c-1.16.1-1.84.48-2,1.12a45.55,45.55,0,0,0,0,5.93V85.79q-.3,11.7,0,19.23v12a17.29,17.29,0,0,1-.09,3.53c-.24,1.81-.36,3-.36,3.52l.89,12.82c.1.75.24,1.13.44,1.13l1.18.32q2.35-3.36,3.53-5.12a39.61,39.61,0,0,0,4.71-11.68q.89-8.81,1.48-23Q210.57,89.07,210.86,84.28Z"/><path class="cls-2" d="M317.91,147.8a9.7,9.7,0,0,1-.51,4.48c-.45.85-.81,1.28-1.11,1.28q-.89,0-4.12-7.2t-6.19-8a4,4,0,0,0-2.21.48c-1,.42-1.62.69-1.91.8a96.64,96.64,0,0,1-10.46.8q-6.91,0-10.6-2.4a45.44,45.44,0,0,1-4.86-6.72,59.94,59.94,0,0,1-5.3-12.8q-1-3.69-1.62-5.44-.3-12.48-.15-21.28a83.17,83.17,0,0,0,1-12q3.39-17,5.45-25.28a20.15,20.15,0,0,1,13.55-12.8,69.11,69.11,0,0,1,7.22-.16c4.81,0,7.6.16,8.39.48q2.79.48,5.6,1.12c2.55.74,3.77,1.81,3.68,3.2a19,19,0,0,1-3.54,6.08L309.08,56a4.34,4.34,0,0,1-2.21,2.72A3.14,3.14,0,0,1,304,58c-1.12-.75-2.18-1.44-3.16-2.08q-4.27-2.25-7.36-1.6a2.58,2.58,0,0,0-2.21,2.08c-.4,4.16-.59,7.3-.59,9.44q-.3,5,.44,28,.15,6.24.88,20.32.58,10.23.74,11.36a58.82,58.82,0,0,0,.15,5.92c0,1.06.05,1.6.14,1.6q3.39,3.36,5.89,3c.1,0,.94-.22,2.51-.64a3.19,3.19,0,0,0,1.91-1.28,8.1,8.1,0,0,0,.59-4.64c-.29-2.88-.44-4.48-.44-4.8q1-20.49,1-26.88a54.87,54.87,0,0,0-6,.16c-2.16.42-3.14,1.76-2.94,4,.19,1.7.88,2.56,2.06,2.56V102c.68-.22,1-.43,1-.64a3.36,3.36,0,0,1,1.47,3c0,1.7-1,2.56-2.94,2.56a4.17,4.17,0,0,1-4-2.08,7.76,7.76,0,0,1-.66-5q.44-4.65,5.15-5.44h8.54q4.71-.17,7.22-.16v-.48q4.56-.16,4.56,1.92a18.92,18.92,0,0,0-1.77,8.32q.3,4.47.45,9l-.3,6.4q.73,7,1.18,10.4c0-.22-.05,1.76-.15,5.92a20.29,20.29,0,0,0,0,3.52,35.8,35.8,0,0,1,.3,3.68C317.62,142.14,317.71,143.74,317.91,147.8ZM280.36,84.44a8.5,8.5,0,0,0,4.12,1c1.28-.43,2.26-.75,2.95-1a39.58,39.58,0,0,0,.44-8.64c0-.32.2-2.14.59-5.44.29-2.88.44-5.18.44-6.88q0-4-1-5.44-1.92,2.55-2.8,3.68A81.47,81.47,0,0,0,282.72,70a71.24,71.24,0,0,0-2.36,10.72C280,83.21,280,84.44,280.36,84.44ZM288,90.52c0-1.39-.84-2.4-2.51-3-.68.32-2.4.48-5.15.48a7.16,7.16,0,0,0,.66,3.6c.44.69,1.5,1,3.17,1a12.27,12.27,0,0,1,3.24-.48A2.73,2.73,0,0,0,288,90.52Zm1.91,36.32c-.1-1.5-.24-3-.44-4.48v-7c-.39-4.8-.74-8.38-1-10.72,0-.32.1-1.76.29-4.32a12,12,0,0,0-.29-4,2.14,2.14,0,0,0-1.62-1.2c-.79-.16-1.57-.3-2.36-.4a17.93,17.93,0,0,0-3.83.64h-.29a71.25,71.25,0,0,0,2.06,17.44q1.18,3.84,1.77,5.76l.74,4.48,1.91,4.64,1.62,1.76a3.15,3.15,0,0,1,1,1.76h.29A12,12,0,0,0,289.93,126.84Z"/><path class="cls-2" d="M371.37,135.31a3.61,3.61,0,0,1,1.17,2.24c-.19.75-.34,1.34-.44,1.77a11.52,11.52,0,0,0-2.13.24,11.16,11.16,0,0,1-1.7.24l-4.27-.16a29.46,29.46,0,0,1-2.94.56,27.33,27.33,0,0,1-3.83.4,3.77,3.77,0,0,1-2.8-.8,16.57,16.57,0,0,1,0-6.24q-.15-1.29-1.77-8.08t-1.91-7a4.31,4.31,0,0,0-1.77-.32c-1.18,0-4.12.74-8.83,2.24-4,1.28-6.51,2.42-7.44,3.44a9.05,9.05,0,0,0-2,4.4c-.2,1.49-.44,3-.73,4.64q-1.49,9.12-1.48,9.28,0,6.87,4.42,8.64a1.39,1.39,0,0,1,.52.48,1.42,1.42,0,0,1,.22.8h-.44v.32c-3.64-.43-5.45-1.5-5.45-3.2H327v9.28h-.59a63.4,63.4,0,0,1-1.47-6.4,9.54,9.54,0,0,1,0-2.4c.1-1.18.15-1.92.15-2.24-.5-.22-.74-.22-.74,0a15,15,0,0,1-3.83,1.92l-2.06-.48v-.32a7.65,7.65,0,0,0,4.27-2.88,46.65,46.65,0,0,0,3.09-8.8q2.36-10.89,2.95-15l.88-5.6h-.29l-7.22,4.16c-.88-2.35-1.32-3.42-1.32-3.2l9.86-4.64q1-11.2,1.77-16.64,2.06-22.89,2.8-39.68c0-.43.19-2.46.59-6.08q.44-5,.44-7.68c0-2.24-.25-3.74-.74-4.48s-2.06-1.12-4.71-1.12c-5.4,0-8.39.9-9,2.72a6.41,6.41,0,0,0-.3,1.92,4.62,4.62,0,0,0,1.18,3.12A3.47,3.47,0,0,0,325.42,46c1.28,0,1.91-.86,1.91-2.56l-2-.24c-.44-.06-.62-.62-.52-1.68s.3-1.6.59-1.6v.32c3-.43,4.57.8,4.57,3.68a5.76,5.76,0,0,1-1.4,3.76A4.5,4.5,0,0,1,325,49.4a5.33,5.33,0,0,1-4.64-2.48,10.11,10.11,0,0,1-1.69-5.84c0-4.38,1.62-6.56,4.86-6.56,1.47-.11,2.55-.22,3.24-.32a23.45,23.45,0,0,1,7.21-.32,55.28,55.28,0,0,1,6.78,1.36q5.6,1.07,6.18,1.68,1,1.28,1.62,5.28c.29,2,.59,4,.88,5.93q2.35,10.9,3.24,14.59,3.39,14.9,4.86,22.43,4.56,16.18,6.92,24.36,3.69,15.7,5.45,23.72C370,133.33,370.48,134,371.37,135.31ZM350,113.08c0-1.39-.88-2.24-2.65-2.56a43.13,43.13,0,0,1-4.27,1.28q-5,1.92-7.66,2.88a6.2,6.2,0,0,0-2.2,1.12c-.89,1-1.33,2.5-1.33,4.64h1.77q10.89-5,14.28-5a10,10,0,0,0,1.62-1.28A1.59,1.59,0,0,0,350,113.08ZM333.67,112h.88q11.34-4.32,14.14-4.32a19,19,0,0,0-.89-5.28Q346,93.87,345.45,91q-2.65-15.84-3.83-23.84Q339.55,55,338.53,52.28,337.2,76,336.47,87.8,334.7,104,333.67,112Z"/><path class="cls-2" d="M376.37,39.48q1.19.8,7.36,11.68.88,1.28,2.51,4.16Q389,65.4,393,78.2q2.5,8.64,6.19,19.84l6.18,15.36,1.77,6.4c.29,1.06.73,2.72,1.32,5,.2,0,.3.1.3.32h.29q2.2-9.93,5.74-30.24c-.09-2.14-.09-5.44,0-9.92q.3-2.57.74-7.84,0-2.56.15-7.68a45.45,45.45,0,0,1,1.91-9.28q1-5.13,2.21-10.24,2.2-7.85,4-7.84a1.74,1.74,0,0,1,1.47.8l1,3.68a104.23,104.23,0,0,1,3.09,13.28q1.77,11.36,3.83,34.08v12c0,.64.07,3,.2,7,.06,3.41.1,5.44.1,6.08v8.64q1.17,13.44-.73,13.44l-4.21-.48q1,.48-4.21.48c-.88-2.15-1.36-7.34-1.46-15.6V111.34q0-2.25-.14-7.08c-.3-1.82-.59-4.55-.89-8.19-.1-2.47-.24-6.17-.44-11.1-.39-1.6-1-4.12-1.69-7.55s-1.11-5-1.11-4.82h-.44q-.3,4.32-1.18,13.12.15,3.36-.14,10.24-.17.48-3.12,16.8c-.69,4.37-1.44,8.74-2.22,13.12a48.68,48.68,0,0,1-4,12.16q-.45,1-1.11,2.16a2.41,2.41,0,0,1-1.56,1.36q-1.64.15-4-7.36-1.49-4.8-3-9.44-3.57-8.81-7.72-22.88-5.93-20.32-7-23.2a64.33,64.33,0,0,0-4.45-9.76,15.81,15.81,0,0,1-1.63-3.52h-.3q0,15.84.74,19.52.43,4.15-.74,25.6-.15,1.11,1.25,10.72,0,.48,1.4,11.68v8.64q.59,1.92,5.45,1.92v-.32h.3v.32h.29v1.12L383.44,146a12.06,12.06,0,0,1-2.5.32c-1,0-1.58.69-1.77,2.08-.1.74-.25,1.6-.44,2.56-.2,0-.3.1-.3.32a2.94,2.94,0,0,1-1.47-2.16,29.86,29.86,0,0,1-.44-3,10.17,10.17,0,0,0-.44-1.12c-.2-.43-.3-.48-.3-.16L372.54,146a2.86,2.86,0,0,1-1-2.08q4.86-1.77,4.86-10.24a71.57,71.57,0,0,0-.59-8c-.49-3.84-.79-6.08-.88-6.72q.28-17.44,0-40.16l-.15-8.8q-.44-3.84-1.18-11.36,0-3.69.15-11a41.54,41.54,0,0,1-.15-5.76C373.77,41.13,374.7,40.33,376.37,39.48Z"/><path class="cls-2" d="M476.65,134.2a11.23,11.23,0,0,1-5.45,4.48l-6.92,1c-5,1.28-7.61,1.92-7.8,1.92q-5.75,0-11.34-5.92a28.62,28.62,0,0,1-6.77-11.84,63.18,63.18,0,0,1-1-9.44,122.29,122.29,0,0,1-.73-20.8c.29-4,.59-6.88.88-8.8q.45-1.77,3.24-13c.39-2,.79-4,1.18-5.92a23.56,23.56,0,0,1,1.77-5.76q2.35-4.48,3.75-7c.93-1.66,1.64-3,2.14-3.92a15.36,15.36,0,0,1,10.31-7.68q.44,0,7.21.4c4.52.26,7.31.45,8.39.56,2.16-.86,3.78-1.44,4.86-1.76,1.48.53,2.21,1.33,2.21,2.4q0,1.11-2.35,4.32-1.33,2.24-2.65,4.32c-1.28,1.7-2.61,2.56-4,2.56a10.29,10.29,0,0,1-3.39-.88,18.33,18.33,0,0,0-3.09-1,10.72,10.72,0,0,0-7.51,1.44c-1.18,1-2.06,1.7-2.65,2.24a17.66,17.66,0,0,1-1.33,1.76q-2.79,6.07-3.82,17l-1,6.88a65.78,65.78,0,0,0-.89,8.48c0,1.7.3,2.61.89,2.72a51.39,51.39,0,0,1,2.65-6.24c.68-1.07,1.37-2.14,2.06-3.2a13.77,13.77,0,0,1,2.94.16c1.38-.22,2.8-.43,4.27-.64a55,55,0,0,1,7.37-.64c3,0,4.51.57,4.41,1.73-.19.12-.29.23-.29.35h.29A29.41,29.41,0,0,0,470.1,90q-2.73,4.1-2.87,5.84a44.1,44.1,0,0,0-5.16-.16c-2.94,0-4.51.1-4.71.32a4.93,4.93,0,0,0-1,3c-.1,1.38-.15,2.72-.15,4q-.44,5.59.74,32.16a6.51,6.51,0,0,0,1.47,2.24c.3.32,1,.42,2.06.32,2.16-.54,3.78-1,4.86-1.28l3.68-.64a7.86,7.86,0,0,0,7.22-6.56,2.89,2.89,0,0,0-.66-2.64,2.84,2.84,0,0,0-2.14-1,2.31,2.31,0,0,0-2.35,1.84c-.4,1.22-.44,1.84-.15,1.84a8.66,8.66,0,0,0,2.21,1.44l-.15,1A9.16,9.16,0,0,1,470,132c-1.58-.54-2.36-1.87-2.36-4a5.85,5.85,0,0,1,1.18-3.84,5.92,5.92,0,0,1,4.56-1.92q5.59,0,5.75,5.28A11.74,11.74,0,0,1,476.65,134.2Zm-23.56-24.48a8.23,8.23,0,0,0-.29-3.36c-.89.42-1.82.85-2.8,1.28-.39.32-.74,1.44-1,3.36A22.1,22.1,0,0,1,453.09,109.72Zm-4-8.64c-.1,2.24.44,3.46,1.62,3.68,1.17-.11,2.06-.22,2.65-.32a50.49,50.49,0,0,0,0-9.44c-1.67.64-2.9,1.06-3.69,1.28C449.51,97.88,449.31,99.48,449.12,101.08Zm5.15,30.24q-1-8.16-1-9.44-.3-6.72-.3-10.08a22.76,22.76,0,0,0-2.35,1.12,2.18,2.18,0,0,0-1.18,2.08q0,3.84,3.09,12.48l1.47,3.84Z"/></g></svg>