<svg xmlns="http://www.w3.org/2000/svg" width="69" height="69" viewBox="0 0 69 69"><defs><style>.cls-1{fill:#ec6632;}.cls-2,.cls-4{fill:#442518;}.cls-3{fill:none;}.cls-3,.cls-4{stroke:#442518;stroke-miterlimit:10;stroke-width:2px;}</style></defs><title>music_button</title><g id="Layer_2" data-name="Layer 2"><rect class="cls-1" width="69" height="69" rx="12" ry="12"/></g><g id="Layer_4" data-name="Layer 4"><path class="cls-2" d="M22.15,53.93c-1,0-1.87-2.25-1.87-5V16a5,5,0,0,1,5-5H52.69a5,5,0,0,1,5,5V46.21c0,1.66-1,3-2.18,3s-2.19-2.25-2.19-5V20a5,5,0,0,0-5-5H24.64c-.34,0-.62,2.25-.62,5v29C24,51.68,23.18,53.93,22.15,53.93Z"/><path class="cls-3" d="M22.15,53.93c-1,0-1.87-2.25-1.87-5V16a5,5,0,0,1,5-5H52.69a5,5,0,0,1,5,5V46.21c0,1.66-1,3-2.18,3s-2.19-2.25-2.19-5V20a5,5,0,0,0-5-5H24.64c-.34,0-.62,2.25-.62,5v29C24,51.68,23.18,53.93,22.15,53.93Z"/><ellipse class="cls-4" cx="17.62" cy="52.63" rx="8.06" ry="5.75" transform="translate(-11.57 5.42) rotate(-13.22)"/><ellipse class="cls-4" cx="51.05" cy="45.47" rx="8.06" ry="5.75" transform="translate(-9.05 12.88) rotate(-13.22)"/></g></svg>