<svg id="Layer_2" data-name="Layer 2" xmlns="http://www.w3.org/2000/svg" width="70" height="70" viewBox="0 0 70 70"><defs><style>.cls-1{fill:#ec6632;}.cls-2{fill:#442518;}.cls-3{fill:none;stroke:#442518;stroke-miterlimit:10;stroke-width:2px;}.cls-4{fill:#ccc5b9;}</style></defs><title>mute_sound_button</title><rect class="cls-1" x="0.5" y="0.5" width="69" height="69" rx="12" ry="12"/><path class="cls-2" d="M12.45,24.12a2,2,0,0,0-2,2V43.26a2,2,0,0,0,2,2H24.78a6.9,6.9,0,0,1,3.59,1.22l13.44,10.4c.87.67,1.58.32,1.58-.78V15.35c0-1.1-.75-1.51-1.67-.9L28.72,23a7.81,7.81,0,0,1-3.67,1.1Z"/><path class="cls-3" d="M12.45,24.12a2,2,0,0,0-2,2V43.26a2,2,0,0,0,2,2H24.78a6.9,6.9,0,0,1,3.59,1.22l13.44,10.4c.87.67,1.58.32,1.58-.78V15.35c0-1.1-.75-1.51-1.67-.9L28.72,23a7.81,7.81,0,0,1-3.67,1.1Z"/><path class="cls-2" d="M49.41,26.54a3.17,3.17,0,0,1,0-2.65c.39-.53,1.13.15,1.64,1.51a25.53,25.53,0,0,1,1.21,4.52,35.53,35.53,0,0,1,.06,5.47A39.93,39.93,0,0,1,51.61,41a17,17,0,0,1-1.27,3.43c-.4.71-1,.67-1.24-.07a3,3,0,0,1,.15-2.41,10.47,10.47,0,0,0,1-2.67,34.44,34.44,0,0,0,.57-4.49,18.09,18.09,0,0,0-.31-4.7C50.29,29.05,49.77,27.47,49.41,26.54Z"/><path class="cls-3" d="M49.41,26.54a3.17,3.17,0,0,1,0-2.65c.39-.53,1.13.15,1.64,1.51a25.53,25.53,0,0,1,1.21,4.52,35.53,35.53,0,0,1,.06,5.47A39.93,39.93,0,0,1,51.61,41a17,17,0,0,1-1.27,3.43c-.4.71-1,.67-1.24-.07a3,3,0,0,1,.15-2.41,10.47,10.47,0,0,0,1-2.67,34.44,34.44,0,0,0,.57-4.49,18.09,18.09,0,0,0-.31-4.7C50.29,29.05,49.77,27.47,49.41,26.54Z"/><path class="cls-2" d="M55.05,22.51a4.69,4.69,0,0,1,.06-3.93c.58-.78,1.68.22,2.45,2.24a37.14,37.14,0,0,1,1.8,6.69,52.27,52.27,0,0,1,.1,8.09,57.73,57.73,0,0,1-1.12,8.25,25.16,25.16,0,0,1-1.88,5.08c-.6,1-1.43,1-1.86-.12a4.49,4.49,0,0,1,.22-3.56,15.35,15.35,0,0,0,1.57-4,48,48,0,0,0,.84-6.64,26.66,26.66,0,0,0-.46-7C56.36,26.21,55.59,23.88,55.05,22.51Z"/><path class="cls-3" d="M55.05,22.51a4.69,4.69,0,0,1,.06-3.93c.58-.78,1.68.22,2.45,2.24a37.14,37.14,0,0,1,1.8,6.69,52.27,52.27,0,0,1,.1,8.09,57.73,57.73,0,0,1-1.12,8.25,25.16,25.16,0,0,1-1.88,5.08c-.6,1-1.43,1-1.86-.12a4.49,4.49,0,0,1,.22-3.56,15.35,15.35,0,0,0,1.57-4,48,48,0,0,0,.84-6.64,26.66,26.66,0,0,0-.46-7C56.36,26.21,55.59,23.88,55.05,22.51Z"/><path class="cls-4" d="M53.32,53.74c2.8,3.39,4.66,7.33,4.14,8.75s-3.25-.19-6.05-3.58l-34.73-42c-2.8-3.39-4.66-7.33-4.14-8.75s3.25.19,6.05,3.58Z"/></svg>
