<svg xmlns="http://www.w3.org/2000/svg" width="1920" height="1080" viewBox="0 0 1920 1080"><defs><style>.cls-1{fill:#2951aa;opacity:0.9;}.cls-2{fill:#f7f8f9;}.cls-3{opacity:0.8;}.cls-4{fill:#e1e5ef;}</style></defs><title>play_game_screen_1</title><g id="Layer_4" data-name="Layer 4"><rect class="cls-1" x="-2" y="-0.5" width="1924" height="1080"/><rect class="cls-2" x="-2" y="750.5" width="1924" height="330"/><g class="cls-3"><path class="cls-4" d="M1655.9,232.5c-1.05-1.94-3.25-3.75-4.9-4l-3-.52,3-.65c1.65-.35,3.71-2.29,4.58-4.31l.84-1.94c.87-2,1.58-3.72,1.58-3.78s.71,1.56,1.58,3.58l.84,1.93c.87,2,2.88,3.95,4.47,4.28s1.59.83,0,1.09-3.74,2.07-4.79,4l-.2.37c-1.05,1.93-1.9,3.6-1.9,3.69s-.85-1.41-1.9-3.35Z"/></g><g class="cls-3"><path class="cls-4" d="M116.61,93.33c-1-1.93-3.18-3.73-4.75-4s-2.86-.49-2.86-.5,1.29-.28,2.86-.62,3.57-2.25,4.44-4.27l.64-1.51c.87-2,1.58-3.71,1.58-3.77s.72,1.56,1.59,3.58l.64,1.49c.87,2,2.81,3.94,4.31,4.26s1.51.79,0,1-3.58,2-4.63,4v0c-1,1.93-1.9,3.59-1.9,3.68s-.85-1.42-1.9-3.36Z"/></g><g class="cls-3"><path class="cls-4" d="M36.84,240.36c0-.2.48-.38,1.08-.41a8.89,8.89,0,0,0,2.19-.45,15.1,15.1,0,0,0,1.8-.8l1.44-.77a2.82,2.82,0,0,0,1-1.12l.68-1.45a3.76,3.76,0,0,0,.3-1.44l-.08-1.78L45.21,230c0-.58.11-1.07.31-1.08s.39.3.4.7L46,231l.06,1.42.05,1.07,0,.71a3.19,3.19,0,0,0,.41,1l.8,1.39a2.91,2.91,0,0,0,1.15,1,16.88,16.88,0,0,0,1.87.63,8.84,8.84,0,0,0,2.21.26l1.84-.08c.4,0,.74.19.76.47s-.8.64-1.81.79a19.64,19.64,0,0,0-2.91.69,5.74,5.74,0,0,0-1.79,1.15l-1,1.12a4.59,4.59,0,0,0-.67,1.45,6.72,6.72,0,0,0-.29,1.8l.06,1.42a.73.73,0,0,1-.7.75c-.4,0-.76-.61-.8-1.39l-.09-2.14a3.82,3.82,0,0,0-.43-1.41,5.19,5.19,0,0,0-.78-1l-.77-.68a4.92,4.92,0,0,0-1.31-.66,5.89,5.89,0,0,0-1.85-.28l-2,.1C37.35,240.69,36.85,240.55,36.84,240.36Z"/></g><g class="cls-3"><path class="cls-4" d="M750.77,85.77c0-.19.44-.36,1-.39a7.24,7.24,0,0,0,2-.43,14.08,14.08,0,0,0,1.66-.75l1.32-.73a2.68,2.68,0,0,0,1-1.06l.62-1.38a3.56,3.56,0,0,0,.27-1.37L758.55,78l-.09-2c0-.56.11-1,.29-1s.35.29.37.66l.06,1.35.06,1.36,0,1,0,.68a3.12,3.12,0,0,0,.38,1l.73,1.32a2.75,2.75,0,0,0,1.06,1,16,16,0,0,0,1.72.6,8,8,0,0,0,2,.25L767,84a.62.62,0,0,1,.7.45c0,.27-.74.61-1.66.76a16.11,16.11,0,0,0-2.69.65A5,5,0,0,0,761.66,87l-1,1.06a4.53,4.53,0,0,0-.62,1.38,6.58,6.58,0,0,0-.26,1.7l.06,1.35a.67.67,0,0,1-.65.71c-.37,0-.7-.58-.73-1.32l-.09-2a3.81,3.81,0,0,0-.4-1.34,5,5,0,0,0-.72-1l-.71-.65a4.64,4.64,0,0,0-1.2-.63,5.08,5.08,0,0,0-1.71-.26l-1.86.09C751.24,86.08,750.77,86,750.77,85.77Z"/></g><g class="cls-3"><path class="cls-4" d="M990.29,256.47a8,8,0,0,0,4.86-4.36l1.22-2.83c.87-2,1.58-3.73,1.58-3.79s.71,1.53,1.58,3.55l1.22,2.83a8,8,0,0,0,4.75,4.35c1.74.36,1.74.9,0,1.19a8.46,8.46,0,0,0-5.07,4l-.58,1.08c-1,1.93-1.9,3.6-1.9,3.71s-.85-1.4-1.9-3.34l-.58-1.07a8.55,8.55,0,0,0-5.18-4.08l-3.29-.58Z"/></g><g class="cls-3"><path class="cls-4" d="M1268.87,134c-.65-1.7-2-3.27-3-3.5s-1.78-.43-1.78-.44l1.78-.53c1-.29,2.31-2.25,3-4.36l0-.09c.64-2.11,1.17-3.87,1.17-3.92s.53,1.63,1.17,3.74l0,.1c.65,2.1,2,4,2.89,4.33s.95.69,0,.91-2.25,1.79-2.9,3.49-1.19,3.15-1.19,3.22S1269.53,135.68,1268.87,134Z"/></g><g class="cls-3"><path class="cls-4" d="M1801.57,105.3c0-.29.69-.57,1.57-.61a11.81,11.81,0,0,0,3.17-.67,24.92,24.92,0,0,0,2.62-1.18l2.08-1.16a4.15,4.15,0,0,0,1.52-1.67l1-2.18a5.51,5.51,0,0,0,.44-2.15l-.12-2.66-.14-3.19c0-.88.17-1.61.46-1.63s.56.46.58,1l.1,2.12.09,2.13.07,1.6,0,1.07a4.87,4.87,0,0,0,.6,1.57l1.16,2.08a4.24,4.24,0,0,0,1.67,1.53,26.14,26.14,0,0,0,2.71.94,11.88,11.88,0,0,0,3.22.39l2.66-.11c.58,0,1.08.29,1.1.71s-1.16,1-2.62,1.18a26.61,26.61,0,0,0-4.22,1,8.12,8.12,0,0,0-2.59,1.71l-1.53,1.67a7.32,7.32,0,0,0-1,2.18,10.6,10.6,0,0,0-.41,2.68l.09,2.13a1.06,1.06,0,0,1-1,1.11c-.59,0-1.11-.91-1.16-2.08l-.14-3.19a5.75,5.75,0,0,0-.63-2.11,7.5,7.5,0,0,0-1.14-1.55l-1.11-1a7.1,7.1,0,0,0-1.9-1,8,8,0,0,0-2.68-.41l-2.94.14C1802.31,105.8,1801.58,105.59,1801.57,105.3Z"/></g><g class="cls-3"><path class="cls-4" d="M1033.27,70.65a7.64,7.64,0,0,0-4.47-3.6c-1.48-.24-2.68-.44-2.68-.45l2.68-.55c1.47-.3,3.42-2.19,4.32-4.19l.3-.67c.9-2,1.64-3.69,1.64-3.74s.74,1.55,1.64,3.55l.3.67c.9,2,2.8,3.89,4.22,4.18s1.42.7,0,.93-3.39,1.84-4.37,3.59-1.79,3.24-1.79,3.32S1034.25,72.4,1033.27,70.65Z"/></g></g></svg>
