<svg xmlns="http://www.w3.org/2000/svg" width="328.05" height="251.74" viewBox="0 0 328.05 251.74"><defs><style>.cls-1{fill:#ea591f;}.cls-2{fill:#eb5e28;}.cls-3{fill:#ee7444;}.cls-4{fill:#ec6632;}.cls-5{fill:#ef8257;}.cls-6{opacity:0.9;}.cls-7{fill:#442518;}.cls-8{opacity:0.4;}.cls-9{fill:#fff;}</style></defs><title>play_again_button</title><g id="final"><path class="cls-1" d="M328.05,125.53c0,53.33-45.54,98.65-109,115.16a206.48,206.48,0,0,1-34.88,5.93q-6.28.54-12.7.68c-1.8,0-3.61.08-5.43.08-2.08,0-4.16,0-6.22-.11-86.57-2.45-155.74-56-155.74-121.74C4.12,61.35,70.06,8.76,153.77,4q6.1-.36,12.31-.36A215.69,215.69,0,0,1,190.26,5c1,.11,2,.23,3,.36a199.8,199.8,0,0,1,43,10.28C290.55,35.33,328.05,77.13,328.05,125.53Z"/><path class="cls-2" d="M275.3,119.59c0,47.95-21.66,91.08-56.21,121.1a206.48,206.48,0,0,1-34.88,5.93q-6.28.54-12.7.68c-1.8,0-3.61.08-5.43.08-2.08,0-4.16,0-6.22-.11-86.57-2.45-155.74-56-155.74-121.74C4.12,61.35,70.06,8.76,153.77,4q6.1-.36,12.31-.36A215.69,215.69,0,0,1,190.26,5c1,.11,2,.23,3,.36a199.8,199.8,0,0,1,43,10.28C260.65,44,275.3,80.15,275.3,119.59Z"/><path class="cls-3" d="M224.78,112.9c0,53.3-20.55,101.24-53.27,134.4-1.8,0-3.61.08-5.43.08-2.08,0-4.16,0-6.22-.11-86.57-2.45-155.74-56-155.74-121.74C4.12,61.35,70.06,8.76,153.77,4q6.1-.36,12.31-.36A215.69,215.69,0,0,1,190.26,5c1,.11,2,.23,3,.36,1,1.5,2,3,2.91,4.58h0C214.21,39.21,224.78,74.68,224.78,112.9Z"/><path class="cls-4" d="M230.72,124c0,60-19.89,110.11-46.51,122.58q-6.28.54-12.7.68c-1.8,0-3.61.08-5.43.08-2.08,0-4.16,0-6.22-.11-27.36-11.25-48-62.14-48-123.23,0-56.46,17.63-104.21,41.92-120l36.49,1A47.4,47.4,0,0,1,196.14,10h0C216.56,29.86,230.72,73.46,230.72,124Z"/><path class="cls-5" d="M77.64,227.61C33.36,205.87,4.12,168.27,4.12,125.53c0-38.14,23.3-72.19,59.76-94.52a204.66,204.66,0,0,0-18.43,70.31C41.56,149.35,54.16,194.12,77.64,227.61Z"/><g class="cls-6"><path class="cls-7" d="M138,52.83c0-.71-.2,1.88-.58,7.77A53.65,53.65,0,0,1,136,67c-.25,1.59-.54,3.23-.86,4.89a11.8,11.8,0,0,1-1.73,4.41,32.51,32.51,0,0,0-2.59,2.3l-1.53,1.25c-.71.26-1.38.48-2,.67-1,.32-1.5.63-1.63.91a16.68,16.68,0,0,0-.09,3.79q.09,6.33.09,5.57,0,5.37.1,6v3.64l-.39,2.78c-1-.06-1.66-.09-2.11-.09l-2,.38a16,16,0,0,1-2.59.29c-1,0-1.54-.22-1.73-.67a18.75,18.75,0,0,1,.19-3.07A99.62,99.62,0,0,0,117,85.54q-.19-4.89,0-18.13l.28-16.79c-.51-1.41-.86-2.46-1-3.16a6.92,6.92,0,0,0-1.78-1.73,3.4,3.4,0,0,0-2.06-1q-1.92.28-1.92,2.88a1.62,1.62,0,0,0,.67,1.53c.2.19.36.1.48-.29a.44.44,0,0,1,.15-.33.49.49,0,0,0,.14-.34c1-.38,1.54-.44,1.54-.19a2.76,2.76,0,0,1,.38,1.34c0,1.41-.74,2.11-2.21,2.11a2.52,2.52,0,0,1-2.2-1.48,6.44,6.44,0,0,1-.87-3.31,3,3,0,0,1,1.25-2.78,16.15,16.15,0,0,1,3.36-1.16q11.7,1.35,18.8,2.21a14.4,14.4,0,0,1,4.51,2C137.46,47.93,138,49.89,138,52.83Zm-7.3,5.37q0-11.13-4-12.47L126,48c-.19,1.54-.31,2.59-.37,3.17-.31,1.09-.5,1.76-.56,2-.12,2.3-.19,4.06-.19,5.28-.18,1.47-.34,2.59-.46,3.36v6.33c.32,2.43.57,4.22.77,5.37q.09.48.09,5.76A2.91,2.91,0,0,0,128.09,78a21.75,21.75,0,0,0,1.16-5A75,75,0,0,0,130.68,58.2Z"/><path class="cls-7" d="M147,39.59a12.28,12.28,0,0,1,3-.19c.25-.19.57-.13,1,.19a2.16,2.16,0,0,1,.72,1c.09.32.2.86.33,1.63a12,12,0,0,0-.29,4.6,73.74,73.74,0,0,1,0,9.41q-.37,9.59-.38,9.78-.23,4.89-.77,13,0-.28.1,6,0,1.73.57,7.67c0,1.34,0,2.69.1,4,.06,2,.29,3.23.67,3.55q.87.86,5.28.86a29.59,29.59,0,0,1,4-1.24,5.07,5.07,0,0,0,3.16-3,1.8,1.8,0,0,0-.19-2.11c-1-1.15-2-1.5-3.07-1a.85.85,0,0,0-.57.76,2.13,2.13,0,0,0,.76,1.44c.51.51.9.77,1.15.77l-.86,1.44q-3.16-1.24-3.16-3.17a6.87,6.87,0,0,1,.28-1.72,4.65,4.65,0,0,1,1.06-1.64,4.13,4.13,0,0,1,1.24-.19,9.52,9.52,0,0,1,4.61,1.84c.19.13.37.68.53,1.65a5.51,5.51,0,0,1,.05,2.13c-.2.45-.77,1.61-1.72,3.49l-.67,1.35-6.6,1a27.93,27.93,0,0,1-5.16-.1q-3.72.3-9.74,1V85.16q0-21.78,1.38-31.28a65.34,65.34,0,0,0,.82-8.92,6,6,0,0,0-.48-2.83c-.32-.54-1.27-.81-2.87-.81a9.08,9.08,0,0,0-1.06,3.83h.48V45a14.75,14.75,0,0,1,.86-1.49,1.71,1.71,0,0,1,1.25-.81c.13-.06.19,0,.19.09a2.58,2.58,0,0,1,.2,1,3.19,3.19,0,0,1-.82,2.11,2.33,2.33,0,0,1-1.77,1c-1.48,0-2.21-.92-2.21-2.78a4.63,4.63,0,0,1,1.82-4.12C140.37,39.68,142.64,39.59,147,39.59Z"/><path class="cls-7" d="M200.72,100.21a2.14,2.14,0,0,1,.76,1.35c-.13.45-.22.8-.28,1.06a8.9,8.9,0,0,0-1.4.14,7.47,7.47,0,0,1-1.1.15l-2.78-.1a19.07,19.07,0,0,1-1.92.34,18.24,18.24,0,0,1-2.49.23,2.62,2.62,0,0,1-1.83-.47,9.35,9.35,0,0,1,0-3.75c-.06-.51-.44-2.12-1.15-4.84a24.42,24.42,0,0,0-1.24-4.17,3.13,3.13,0,0,0-1.16-.2,30.23,30.23,0,0,0-5.75,1.35c-2.63.76-4.24,1.45-4.85,2.06A5.21,5.21,0,0,0,174.24,96c-.13.89-.29,1.82-.48,2.78q-1,5.48-1,5.56,0,4.13,2.88,5.18a1,1,0,0,1,.33.29.76.76,0,0,1,.15.48h-.29v.19c-2.37-.25-3.55-.89-3.55-1.91h-.48v5.56h-.38a34.67,34.67,0,0,1-1-3.84,4.91,4.91,0,0,1,0-1.44c.06-.7.09-1.15.09-1.34q-.48-.2-.48,0a10,10,0,0,1-2.49,1.15l-1.34-.29v-.19a5,5,0,0,0,2.78-1.72,26.9,26.9,0,0,0,2-5.28q1.53-6.53,1.92-9l.58-3.36h-.2l-4.7,2.5a8.93,8.93,0,0,0-.86-1.92l6.43-2.78c.44-4.48.83-7.81,1.15-10q1.34-13.73,1.82-23.79c0-.26.13-1.47.39-3.65.19-2,.28-3.52.28-4.6a5.09,5.09,0,0,0-.48-2.69c-.32-.45-1.34-.67-3.07-.67q-5.27,0-5.85,1.63a3.55,3.55,0,0,0-.19,1.15,2.64,2.64,0,0,0,.77,1.87,2.29,2.29,0,0,0,1.72.82c.83,0,1.25-.51,1.25-1.54L170.74,45c-.29,0-.4-.37-.34-1s.19-1,.38-1v.19c2-.25,3,.48,3,2.21a3.34,3.34,0,0,1-.91,2.26,3,3,0,0,1-2.35,1,3.58,3.58,0,0,1-3-1.48,5.78,5.78,0,0,1-1.1-3.51q0-3.93,3.17-3.93c1-.06,1.66-.13,2.11-.19a16.59,16.59,0,0,1,4.7-.19,37.86,37.86,0,0,1,4.41.82c2.43.42,3.77.76,4,1a6.85,6.85,0,0,1,1.06,3.17c.19,1.22.38,2.4.57,3.56,1,4.35,1.73,7.27,2.11,8.74q2.21,8.94,3.17,13.45,3,9.7,4.51,14.61,2.39,9.41,3.55,14.22C199.82,99,200.14,99.45,200.72,100.21ZM186.8,86.88c0-.83-.57-1.34-1.72-1.53-1.22.38-2.15.64-2.78.77-2.18.76-3.84,1.34-5,1.72a4.12,4.12,0,0,0-1.44.68A3.78,3.78,0,0,0,175,91.3h1.15q7.09-3,9.3-3a6.77,6.77,0,0,0,1.06-.76A.94.94,0,0,0,186.8,86.88Zm-10.64-.67h.57c4.93-1.72,8-2.59,9.21-2.59a10.39,10.39,0,0,0-.57-3.16q-1.16-5.08-1.54-6.81-1.72-9.51-2.49-14.3a64.11,64.11,0,0,0-2-8.92q-.85,14.2-1.34,21.3Q176.83,81.42,176.16,86.21Z"/><path class="cls-7" d="M223,43c3.46.19,5.15,1.79,5.09,4.8l-.87,3.26c-.57,1.41-1.31,3.3-2.2,5.66q-1.35,3.16-3.84,9.69c-.32,1-.8,2.37-1.44,4.22l-.1,6q.19.87.29,17.08a18.43,18.43,0,0,1-1.24,6.81,32.68,32.68,0,0,1-3.7,5q-3.12,3.73-5.13,3.74H210a54.24,54.24,0,0,0,2.11-6.07l.48-4.13a65.23,65.23,0,0,1-.38-8.28c0-.57-.07-2.24-.19-5-.13-3.08-.2-4.84-.2-5.29V75.75a14.25,14.25,0,0,0-.57-4.52l-1.15-2.6-1.63-5-2.4-5.77c-.39-1.42-1-3.5-1.73-6.26L203,48.33a10.16,10.16,0,0,1-1-3.46h.19a6.65,6.65,0,0,1,2.4-.29q4.69,0,5.75,1.34a4.34,4.34,0,0,1,.2,2.78,19,19,0,0,0-.1,3.07q2.49,10,6.81,16a3.53,3.53,0,0,1,.77,1.44h.19v-.29q2.79-6.9,5-12.28a31.52,31.52,0,0,0,2.11-6.13,5.62,5.62,0,0,1,.34-1.44,6,6,0,0,0,.33-1.63c0-1.54-.87-2.31-2.63-2.31A3.85,3.85,0,0,0,221,46a2.6,2.6,0,0,0-1.12,2.11c0,1.15.4,1.72,1.2,1.72s1.3-.41,1.3-1.24c-.32.06-.74.13-1.25.19-.19-.83-.26-1.25-.19-1.25a1.85,1.85,0,0,1,1.2-.38c1.05,0,1.55.48,1.48,1.44-.13,2-1,3-2.78,3a2.57,2.57,0,0,1-1.82-.72,3,3,0,0,1-.77-2.25,5.23,5.23,0,0,1,1.28-3.74A4.28,4.28,0,0,1,223,43.23Z"/></g><path class="cls-7" d="M107.78,181.41a2.12,2.12,0,0,1,.77,1.34c-.13.45-.23.81-.29,1.06a7.78,7.78,0,0,0-1.39.15,8.86,8.86,0,0,1-1.11.14L103,184a16.34,16.34,0,0,1-1.92.34,18.61,18.61,0,0,1-2.49.24,2.56,2.56,0,0,1-1.82-.48,9,9,0,0,1,0-3.74c-.07-.51-.45-2.13-1.16-4.85a25.22,25.22,0,0,0-1.24-4.17,3.08,3.08,0,0,0-1.15-.19,30.57,30.57,0,0,0-5.76,1.34q-3.93,1.15-4.85,2.06a5.29,5.29,0,0,0-1.29,2.64c-.13.9-.29,1.83-.48,2.78-.64,3.65-1,5.5-1,5.57,0,2.75,1,4.47,2.88,5.18a.83.83,0,0,1,.33.29.73.73,0,0,1,.15.48h-.29v.19c-2.37-.26-3.55-.9-3.55-1.92H78.9v5.56h-.38a35.45,35.45,0,0,1-1-3.83,4.92,4.92,0,0,1,0-1.44c.06-.71.09-1.15.09-1.35q-.48-.18-.48,0a10.25,10.25,0,0,1-2.49,1.16l-1.34-.29v-.19a5,5,0,0,0,2.78-1.73,25.82,25.82,0,0,0,2-5.28q1.55-6.52,1.92-9l.58-3.36h-.19l-4.7,2.49a10,10,0,0,0-.87-1.92l6.43-2.78c.45-4.48.83-7.8,1.15-10Q83.8,144.1,84.27,134c0-.25.13-1.47.39-3.64.19-2,.28-3.52.28-4.61a5.24,5.24,0,0,0-.47-2.69c-.33-.44-1.35-.67-3.07-.67-3.52,0-5.47.55-5.86,1.63a3.61,3.61,0,0,0-.19,1.16,2.68,2.68,0,0,0,.77,1.87,2.33,2.33,0,0,0,1.73.81c.83,0,1.24-.51,1.24-1.53l-1.29-.15c-.29,0-.4-.36-.34-1s.19-1,.39-1v.19c2-.26,3,.48,3,2.2a3.26,3.26,0,0,1-.91,2.26,3,3,0,0,1-2.35,1,3.55,3.55,0,0,1-3-1.49,5.69,5.69,0,0,1-1.11-3.5c0-2.62,1.06-3.94,3.17-3.94,1-.06,1.66-.12,2.11-.19a17,17,0,0,1,4.7-.19,40.23,40.23,0,0,1,4.41.82c2.43.43,3.78.76,4,1a6.9,6.9,0,0,1,1.06,3.17c.19,1.22.38,2.41.57,3.56q1.55,6.54,2.11,8.74,2.2,8.94,3.17,13.45,3,9.71,4.51,14.61,2.4,9.42,3.55,14.22C106.88,180.22,107.2,180.64,107.78,181.41ZM93.87,168.08c0-.83-.58-1.34-1.73-1.54a28.22,28.22,0,0,1-2.78.77c-2.18.77-3.84,1.34-5,1.73a4.16,4.16,0,0,0-1.44.67,3.8,3.8,0,0,0-.86,2.78h1.15q7.09-3,9.3-3a6.21,6.21,0,0,0,1.06-.77A.93.93,0,0,0,93.87,168.08Zm-10.65-.67h.57q7.39-2.59,9.21-2.59a10.44,10.44,0,0,0-.57-3.17q-1.16-5.09-1.54-6.81-1.73-9.5-2.49-14.29a64.41,64.41,0,0,0-2-8.93q-.85,14.2-1.34,21.3Q83.89,162.61,83.22,167.41Z"/><path class="cls-7" d="M140.78,188.9a5.37,5.37,0,0,1-.34,2.68c-.29.51-.52.77-.72.77-.38,0-1.28-1.44-2.68-4.32s-2.75-4.47-4-4.79a2.78,2.78,0,0,0-1.44.28c-.64.26-1.06.42-1.25.48a67.55,67.55,0,0,1-6.81.48A13.55,13.55,0,0,1,116.6,183a27.37,27.37,0,0,1-3.16-4,34.19,34.19,0,0,1-3.46-7.68c-.44-1.47-.8-2.56-1-3.26q-.2-7.49-.1-12.76a45.51,45.51,0,0,0,.67-7.2q2.2-10.16,3.55-15.15a12.76,12.76,0,0,1,8.83-7.68c.19-.06,1.76-.09,4.7-.09a27,27,0,0,1,5.47.28c1.21.2,2.43.42,3.64.68,1.67.44,2.47,1.08,2.4,1.91a11.15,11.15,0,0,1-2.3,3.65c-.26.7-.51,1.41-.77,2.11a2.62,2.62,0,0,1-1.44,1.63,2.16,2.16,0,0,1-1.87-.38l-2.06-1.25a8,8,0,0,0-4.8-1,1.66,1.66,0,0,0-1.44,1.25q-.37,3.74-.38,5.66-.19,3,.29,16.79.09,3.74.57,12.18c.26,4.09.42,6.37.48,6.81a33.56,33.56,0,0,0,.1,3.55c0,.64,0,1,.1,1,1.47,1.34,2.74,2,3.83,1.82.07,0,.61-.12,1.63-.38a2.09,2.09,0,0,0,1.25-.77,4.53,4.53,0,0,0,.38-2.78c-.19-1.73-.28-2.69-.28-2.88q.66-12.27.67-16.12c-2.3,0-3.62,0-3.93.1a2,2,0,0,0-1.92,2.4c.12,1,.57,1.53,1.34,1.53v-1.53c.45-.13.67-.26.67-.38a2,2,0,0,1,1,1.82q0,1.53-1.92,1.53a2.78,2.78,0,0,1-2.64-1.24,4.38,4.38,0,0,1-.43-3q.28-2.78,3.36-3.26h5.56c2.05-.06,3.62-.1,4.7-.1v-.28c2-.07,3,.32,3,1.15a10.58,10.58,0,0,0-1.15,5c.12,1.79.22,3.58.29,5.37l-.2,3.84q.48,4.22.77,6.23c0-.13,0,1.06-.1,3.55a12.16,12.16,0,0,0,0,2.11,20.43,20.43,0,0,1,.2,2.21A17.77,17.77,0,0,1,140.78,188.9Zm-24.47-38a6,6,0,0,0,2.69.57l1.92-.57a21.87,21.87,0,0,0,.29-5.18c0-.2.13-1.28.38-3.27a39.86,39.86,0,0,0,.29-4.12,5.67,5.67,0,0,0-.67-3.26c-.83,1-1.44,1.76-1.83,2.2a47.65,47.65,0,0,0-1.53,5,41.31,41.31,0,0,0-1.54,6.43C116.06,150.17,116.06,150.91,116.31,150.91Zm5,3.64c0-.83-.54-1.44-1.63-1.82a11.45,11.45,0,0,1-3.36.29,4,4,0,0,0,.44,2.16c.28.41,1,.62,2.06.62a9,9,0,0,1,2.11-.29A1.57,1.57,0,0,0,121.3,154.55Zm1.25,21.78c-.06-.9-.16-1.79-.29-2.69v-4.22c-.25-2.88-.48-5-.67-6.43,0-.19.06-1.05.19-2.59a6.44,6.44,0,0,0-.19-2.39,1.34,1.34,0,0,0-1-.72c-.52-.1-1-.18-1.54-.24a13.14,13.14,0,0,0-2.49.38h-.2a39.23,39.23,0,0,0,1.35,10.46l1.15,3.45.48,2.69,1.25,2.78,1,1.05c.45.45.67.8.67,1.06h.2A6.77,6.77,0,0,0,122.55,176.33Z"/><path class="cls-7" d="M144.71,124.43a7.67,7.67,0,0,1,2.21.48,7.7,7.7,0,0,0,2.3.48,5.77,5.77,0,0,1,2.69,0l3.07.29h2.49a1.18,1.18,0,0,1,.86.67,3.38,3.38,0,0,1,0,1.63c-.13.57-.25,1.12-.38,1.63q-.19,7.68-.38,17.08-.48,12.38-.39,15.73a52.28,52.28,0,0,1,.1,5.56q-.28,13.34-.19,14a3.81,3.81,0,0,1-.19,2l-2,3a47.34,47.34,0,0,1-3.7,6.81l-.66.57a1.72,1.72,0,0,1-1-1,2.67,2.67,0,0,1,0-1.73,15.77,15.77,0,0,0,.31-1.63,27.22,27.22,0,0,0,.08-6.72c0-1.34-.07-3.42-.19-6.23,0-.64-.07-1.63-.2-3q.1-4.12,0-12.57a90.45,90.45,0,0,1-.67-12.32q0-7.72-.09-7.25c.06-.63,0-3.07-.29-7.29v-7.38l-2.81-.39c-1,.26-1.51,1.22-1.51,2.88,0,.9.32,1.34,1,1.34a11.67,11.67,0,0,1,.38-1.34h.2a9,9,0,0,1,1,1.34c.13,1.28-.57,1.92-2.11,1.92a2.23,2.23,0,0,1-1.82-.68,3.13,3.13,0,0,1-.87-2.32A6.67,6.67,0,0,1,144.71,124.43Z"/><path class="cls-7" d="M194.69,181.41a2.12,2.12,0,0,1,.77,1.34c-.13.45-.23.81-.29,1.06a7.87,7.87,0,0,0-1.39.15,8.56,8.56,0,0,1-1.1.14l-2.79-.1a16.42,16.42,0,0,1-1.91.34,18.58,18.58,0,0,1-2.5.24,2.6,2.6,0,0,1-1.82-.48,9,9,0,0,1,0-3.74q-.1-.77-1.15-4.85a24.53,24.53,0,0,0-1.25-4.17,3,3,0,0,0-1.15-.19,30.57,30.57,0,0,0-5.76,1.34q-3.93,1.15-4.84,2.06a5.29,5.29,0,0,0-1.3,2.64c-.13.9-.28,1.83-.48,2.78-.64,3.65-1,5.5-1,5.57,0,2.75,1,4.47,2.88,5.18a.93.93,0,0,1,.34.29.78.78,0,0,1,.14.48h-.29v.19q-3.54-.39-3.54-1.92h-.48v5.56h-.39a35.45,35.45,0,0,1-1-3.83,5.73,5.73,0,0,1,0-1.44c.07-.71.1-1.15.1-1.35q-.48-.18-.48,0a10.23,10.23,0,0,1-2.5,1.16l-1.34-.29v-.19a5,5,0,0,0,2.78-1.73,26.62,26.62,0,0,0,2-5.28q1.53-6.52,1.92-9l.57-3.36h-.19l-4.7,2.49a10.69,10.69,0,0,0-.86-1.92l6.42-2.78c.45-4.48.83-7.8,1.15-10q1.35-13.71,1.83-23.79c0-.25.12-1.47.38-3.64.19-2,.29-3.52.29-4.61a5.11,5.11,0,0,0-.48-2.69c-.32-.44-1.34-.67-3.07-.67-3.52,0-5.47.55-5.85,1.63a3.61,3.61,0,0,0-.19,1.16,2.67,2.67,0,0,0,.76,1.87,2.33,2.33,0,0,0,1.73.81c.83,0,1.25-.51,1.25-1.53l-1.3-.15c-.29,0-.4-.36-.33-1s.19-1,.38-1v.19c2-.26,3,.48,3,2.2a3.26,3.26,0,0,1-.91,2.26,3,3,0,0,1-2.35,1,3.55,3.55,0,0,1-3-1.49,5.68,5.68,0,0,1-1.1-3.5c0-2.62,1.05-3.94,3.16-3.94,1-.06,1.66-.12,2.11-.19a17,17,0,0,1,4.7-.19,40.7,40.7,0,0,1,4.42.82c2.43.43,3.77.76,4,1a6.92,6.92,0,0,1,1,3.17c.19,1.22.39,2.41.58,3.56q1.53,6.54,2.11,8.74,2.2,8.94,3.16,13.45,3,9.71,4.51,14.61,2.4,9.42,3.55,14.22C193.8,180.22,194.12,180.64,194.69,181.41Zm-13.91-13.33c0-.83-.57-1.34-1.73-1.54a27.47,27.47,0,0,1-2.78.77c-2.17.77-3.84,1.34-5,1.73a4.37,4.37,0,0,0-1.44.67,3.84,3.84,0,0,0-.86,2.78h1.15q7.1-3,9.31-3a6.46,6.46,0,0,0,1.05-.77A.93.93,0,0,0,180.78,168.08Zm-10.65-.67h.58q7.38-2.59,9.21-2.59a10.57,10.57,0,0,0-.58-3.17q-1.16-5.09-1.53-6.81-1.73-9.5-2.5-14.29a65,65,0,0,0-2-8.93q-.87,14.2-1.34,21.3Q170.81,162.61,170.13,167.41Z"/><path class="cls-7" d="M196.42,119.15l1.44.29q1.45.77,9.82,19.65,3.18,8.25,6.83,18.22A43.52,43.52,0,0,1,217.2,164q.87,1.81,2.31,5.75l2.65,5.29.26,0v-.29q-.87-1.72-2.21-20.24Q219,137.38,219,135.12t-.38-7c-.19-.45-.35-.67-.48-.67a3.35,3.35,0,0,0,.19-1.06c0-1-.7-1.8-2.11-2.35a10.68,10.68,0,0,1-2.11-.91h.29a2.1,2.1,0,0,1,1.15-.38,4.6,4.6,0,0,1,1.82.53,4.68,4.68,0,0,0,1.73.52h.19a6.84,6.84,0,0,1,.19-2c.07-.07.24-.27.53-.61a1.53,1.53,0,0,0,.43-.71h.67c0,1.79.32,2.68,1,2.68a8.3,8.3,0,0,0,.91-.19,6.47,6.47,0,0,1,1.49-.19,5.84,5.84,0,0,1,1,.38,2.58,2.58,0,0,0,1,.29v.38c-2.63,0-4.26.71-4.9,2.11a6.74,6.74,0,0,0-.67,2.59,18.15,18.15,0,0,0,0,2.59c.13,1.28.19,2.21.19,2.79q-.09,1.53.67,12.28.78,11.31,1.25,15c.06,2.94.29,6.53.67,10.75l1.06,6a16.41,16.41,0,0,1-.29,3.74c-.32,1.79-.77,2.85-1.34,3.17a1.7,1.7,0,0,1-2-.19,27,27,0,0,1-2.4-3.94L209,161.36q-2.79-6.23-6.82-15.73l-3.07-5.85c-.19-.39-.41-.61-.67-.67a13.82,13.82,0,0,1,.29,4.6v4.7q.38,5.76.86,17.08,0,4.41.77,13.14a5.32,5.32,0,0,0,1.25,2c.7.8,1.31,1.2,1.82,1.2V182h-.29a4.41,4.41,0,0,1-2.2.29c-.45,0-.67,1-.67,3.07h-.2a2.48,2.48,0,0,1-1.15-1.35,2.72,2.72,0,0,0-.81-1.24,2.55,2.55,0,0,0-1.78,0c-1.15.25-1.79.38-1.92.38v-.29h.29v-.19a4.64,4.64,0,0,0,3-2.78,7.56,7.56,0,0,0,.28-3.36c-.13-1.15-.25-2.3-.38-3.45v-6.53q-.19-3.06-.38-9.11.09-5.48-.29-16.31a174.39,174.39,0,0,1-.77-17.75A15.06,15.06,0,0,1,196.42,119.15Z"/><path class="cls-7" d="M248.51,174.94a3.62,3.62,0,0,1,1.25,2.64,3.27,3.27,0,0,1-.92,2.25,2.72,2.72,0,0,1-2.06,1c-1.92,0-2.84-.83-2.78-2.5.06-1,.93-1.53,2.59-1.53a3.81,3.81,0,0,0,.29.72.6.6,0,0,1,.09.33h-.19c-1.21.71-1.57,1.06-1.05,1.06a1.39,1.39,0,0,0,.86.29c1,0,1.44-.71,1.44-2.11,0-1.22-.58-1.83-1.73-1.83a4.29,4.29,0,0,0-2.4.77,3.69,3.69,0,0,0-1.53,3.26,5.67,5.67,0,0,0,1,3.26,3,3,0,0,0,2.5,1.54c.13-.32.29-.77.48-1.34h.19V183h.19c.32.89.39,1.34.19,1.34-.13.39-.25.58-.38.58a5.22,5.22,0,0,1-3.88-1.61,6.67,6.67,0,0,1-1.88-4,4.91,4.91,0,0,1,.1-2.34,4.7,4.7,0,0,1,2.88-2.63l1.44-.64a.69.69,0,0,1,.29-.05A4.55,4.55,0,0,1,248.51,174.94Zm-1.44-51.37c.9.12,1.44.44,1.63,1a19.73,19.73,0,0,1,.1,4.23q-.11,1.14.38,15.92.57,15.54.58,20.24a12.11,12.11,0,0,1-.19,2.93,11.51,11.51,0,0,1-2.8,2.11,13.16,13.16,0,0,1-3.27,1.77,1.12,1.12,0,0,1-.95-.28c-.32-.26-.51-.37-.57-.34a17.11,17.11,0,0,1-.28-3c0-1.09.09-4.93.29-11.51q0-1.55-.29-14c-.19-6.52,0-10.84.48-12.95.12-.58,1-1.7,2.54-3.36A20.23,20.23,0,0,0,247.07,123.57Z"/><g class="cls-8"><path class="cls-9" d="M79.13,42.1C78.27,40.31,73.69,40,69,41.45L56.61,45.2a36.55,36.55,0,0,0-14.48,9.43l-4.32,5a38.42,38.42,0,0,0-7.39,15.69L28.05,89.28c-.83,4.87,1.24,9.09,4.62,9.36s6.66-3.52,7.31-8.43L40.8,84A35.63,35.63,0,0,1,47.85,68.3l4.32-5a52.53,52.53,0,0,1,14-10.78l6.48-3.17C77.06,47.14,80,43.89,79.13,42.1Z"/></g></g></svg>