<svg id="Layer_2" data-name="Layer 2" xmlns="http://www.w3.org/2000/svg" width="90" height="115" viewBox="0 0 90 115"><defs><style>.cls-1{fill:#e5e5e5;}.cls-2{fill:#d83f32;}.cls-3{fill:#9d6b53;}</style></defs><title>point_elf</title><path class="cls-1" d="M39,65C28,65.21,17.34,68.84,15.29,73s-3.72,8.52-3.72,9.63,1.4,1.52,3.11.92,3.36-.61,3.66,0-2.5,2.91-6.22,5.12-7.43,5.35-8.24,7a21.61,21.61,0,0,0-1.46,7.87c0,2.72,1.89,3.79,4.21,2.38s2.31-.51,0,2,4.79,4.58,15.79,4.58H76c3,0,4.42-1.9,3.11-4.21s-1.88-4.71-1.28-5.31,2.09-.19,3.3.91,2.69,1.11,3.29,0-.13-3.66-1.64-5.67a46.23,46.23,0,0,0-6-6.41c-1.81-1.51-3.21-4-3.11-5.49s2.08-1.51,4.4,0,2.39.93.18-1.28a25.77,25.77,0,0,1-5.49-8.6c-.81-2.52-2.22-6.28-3.14-8.36s-10.68-3.57-21.68-3.32Z"/><path class="cls-2" d="M19.81,64.54c-1.11,1.21,7,2.2,18,2.2h9.43c11,0,20.66-2.39,21.46-5.31a25.85,25.85,0,0,0,.18-10.8,24.05,24.05,0,0,0-4.39-9c-1.71-1.91-3.11-5-3.11-7a21.41,21.41,0,0,1,.55-5.12c.3-.91,1-3.13,1.46-4.94a31.06,31.06,0,0,0,.92-7,32.55,32.55,0,0,1,1.28-7.87c.7-2.32,2.85-4.62,4.76-5.13a32.33,32.33,0,0,1,6.77-.91A5.76,5.76,0,0,1,81.68,6a8.46,8.46,0,0,0,3.84,3.11c1.41.5,3.14.34,3.84-.37a2.68,2.68,0,0,0,.19-3.11c-.61-1-3.16-2.49-5.68-3.3A39.2,39.2,0,0,0,74,.84H64.47c-2.31,0-4.87.91-5.67,2A17.22,17.22,0,0,1,53.85,6.7,28.84,28.84,0,0,0,48,10.91c-1.31,1.31-3.78,3.86-5.49,5.67s-4.43,4.86-6,6.77a21.9,21.9,0,0,0-3.84,7c-.5,1.91-.26,4.22.55,5.13a4.42,4.42,0,0,1,.92,3.66,7.33,7.33,0,0,1-2.93,3.47,18.06,18.06,0,0,0-4.58,5.13,26.4,26.4,0,0,0-2.75,6.22c-.3,1.41-.87,3.88-1.28,5.49A14,14,0,0,1,19.81,64.54Z"/><circle class="cls-3" cx="45.43" cy="69.85" r="6.77"/></svg>
