<svg xmlns="http://www.w3.org/2000/svg" width="120" height="170" viewBox="0 0 120 170"><defs><style>.cls-1{fill:#ea591f;}.cls-2{fill:#eb5e28;}.cls-3{fill:#ee7444;}.cls-4{fill:#ec6632;}.cls-5{fill:#ef8257;}.cls-6{fill:#191919;}.cls-7{opacity:0.4;}.cls-8{fill:#fff;}.cls-9{fill:#e5e5e5;}.cls-10{fill:#d83f32;}.cls-11{fill:#377e62;}.cls-12{fill:#e2d681;}.cls-13{fill:#deab90;}</style></defs><title>pumpkin_elf_right</title><g id="final"><path class="cls-1" d="M95.9,101.86c0,9.79-6.64,18.41-16.71,23.47a43.73,43.73,0,0,1-8.51,3.18,47.65,47.65,0,0,1-8.08,1.37c-1,.09-2,.14-2.94.16l-1.25,0L57,130H57l-.67,0-.53,0-.67,0-.92-.07-.92-.09-.91-.1c-1.21-.15-2.39-.34-3.56-.57l-.87-.19-.86-.19-.86-.21-.84-.23-.83-.24h0l-.8-.25-.34-.11c-.44-.14-.87-.3-1.3-.45l-.75-.28-.06,0-.68-.26-.12-.06-.74-.31L39,126l-1-.49h0l-.1,0c-.61-.3-1.2-.61-1.78-.94l-.71-.4-.85-.52-.45-.28-.64-.42-.84-.59c-.41-.29-.82-.6-1.21-.91l-.52-.41-.59-.5a.44.44,0,0,1-.11-.09l-.05,0-.09-.09c-.11-.09-.22-.18-.32-.28l-.32-.28-.54-.52-.24-.23c-.18-.17-.35-.35-.52-.52h0l-.51-.54c-.15-.17-.31-.34-.46-.52s-.34-.39-.5-.59l-.41-.51-.05-.06a27.12,27.12,0,0,1-1.66-2.36c-.12-.2-.25-.4-.37-.61s-.17-.3-.26-.45-.29-.54-.43-.81a.14.14,0,0,1,0-.06l0,0a.91.91,0,0,1-.07-.14l-.14-.29c-.12-.24-.23-.48-.34-.73s-.17-.39-.25-.59l0-.07-.12-.33c-.13-.32-.24-.64-.35-1l-.14-.42,0-.09s0-.11,0-.16-.07-.24-.11-.36c-.15-.55-.29-1.11-.4-1.67l-.12-.68c0-.23-.07-.46-.1-.7s-.05-.34-.07-.52c-.06-.56-.1-1.12-.11-1.68,0-.21,0-.41,0-.61s0-.33,0-.49,0-.43,0-.64a2.28,2.28,0,0,1,0-.26l0-.46,0-.22a.2.2,0,0,1,0-.07.62.62,0,0,1,0-.13c0-.2.05-.4.07-.59s.05-.39.09-.57.07-.43.11-.63c.06-.37.14-.73.23-1.08a.83.83,0,0,1,0-.15,1,1,0,0,1,0-.14c0-.17.08-.33.13-.49l.12-.43a.5.5,0,0,0,0-.13l.09-.26.15-.45c.11-.32.23-.63.36-1l.09-.23c.12-.29.24-.58.37-.86,0,0,0,0,0,0l0-.07,0-.09.22-.46.33-.64.27-.47s0,0,0,0c.11-.19.22-.38.34-.57l.12-.21a.56.56,0,0,1,.05-.08.16.16,0,0,0,0-.07l.08-.12c.19-.31.39-.61.61-.92l.35-.49c.1-.15.21-.29.32-.43l.25-.33c.06-.08.13-.16.19-.25l.32-.39c.47-.56,1-1.11,1.48-1.65l.18-.19.14-.14.55-.54.22-.2.61-.56.22-.2.27-.23A36.13,36.13,0,0,1,34,80.47l.3-.19.46-.29h0l1.1-.65.5-.27.14-.09.49-.25c.57-.31,1.15-.59,1.75-.87l.42-.2.39-.17.39-.17.62-.25,1.24-.49.6-.22c1-.35,2-.67,3-.95l.51-.14.18,0,.73-.19.48-.11,1-.22.41-.08.64-.13.58-.1.51-.09c.58-.1,1.16-.18,1.74-.25l.71-.09.78-.08.23,0,.5,0,.45,0,.74-.05.85,0c.66,0,1.33,0,2,0A48.82,48.82,0,0,1,64,74l.69.08a47.07,47.07,0,0,1,6.88,1.39c1.05.3,2.07.63,3.07,1C87.22,81,95.9,90.65,95.9,101.86Z"/><path class="cls-2" d="M83.69,100.48a36.49,36.49,0,0,1-7.51,22.15,38.23,38.23,0,0,1-5.5,5.88,47.65,47.65,0,0,1-8.08,1.37c-1,.09-2,.14-2.94.16l-1.25,0L57,130H57l-.67,0-.53,0-.67,0-.92-.07-.92-.09-.91-.1c-1.21-.15-2.39-.34-3.56-.57l-.87-.19-.86-.19-.86-.21-.84-.23-.83-.24h0l-.8-.25-.34-.11c-.44-.14-.87-.3-1.3-.45l-.75-.28-.06,0-.68-.26-.12-.06-.74-.31L39,126l-1-.49h0l-.1,0c-.61-.3-1.2-.61-1.78-.94l-.71-.4-.85-.52-.45-.28-.64-.42-.84-.59c-.41-.29-.82-.6-1.21-.91l-.52-.41-.59-.5a.44.44,0,0,1-.11-.09l-.05,0-.09-.09c-.11-.09-.22-.18-.32-.28l-.32-.28-.54-.52-.24-.23c-.18-.17-.35-.35-.52-.52h0l-.51-.54c-.15-.17-.31-.34-.46-.52s-.34-.39-.5-.59l-.41-.51-.05-.06a27.12,27.12,0,0,1-1.66-2.36c-.12-.2-.25-.4-.37-.61s-.17-.3-.26-.45-.29-.54-.43-.81a.14.14,0,0,1,0-.06l0,0a.91.91,0,0,1-.07-.14l-.14-.29c-.12-.24-.23-.48-.34-.73s-.17-.39-.25-.59l0-.07-.12-.33c-.13-.32-.24-.64-.35-1l-.14-.42,0-.09s0-.11,0-.16-.07-.24-.11-.36c-.15-.55-.29-1.11-.4-1.67l-.12-.68c0-.23-.07-.46-.1-.7s-.05-.34-.07-.52c-.06-.56-.1-1.12-.11-1.68,0-.21,0-.41,0-.61s0-.33,0-.49,0-.43,0-.64a2.28,2.28,0,0,1,0-.26l0-.46,0-.22a.2.2,0,0,1,0-.07.62.62,0,0,1,0-.13c0-.2.05-.4.07-.59s.05-.39.09-.57.07-.43.11-.63c.06-.37.14-.73.23-1.08a.83.83,0,0,1,0-.15,1,1,0,0,1,0-.14c0-.17.08-.33.13-.49l.12-.43a.5.5,0,0,0,0-.13l.09-.26.15-.45c.11-.32.23-.63.36-1l.09-.23c.12-.29.24-.58.37-.86,0,0,0,0,0,0l0-.07,0-.09.22-.46.33-.64.27-.47s0,0,0,0c.11-.19.22-.38.34-.57l.12-.21a.56.56,0,0,1,.05-.08.16.16,0,0,0,0-.07l.08-.12c.19-.31.39-.61.61-.92l.35-.49c.1-.15.21-.29.32-.43l.25-.33c.06-.08.13-.16.19-.25l.32-.39c.47-.56,1-1.11,1.48-1.65l.18-.19.14-.14.55-.54.22-.2.61-.56.22-.2.27-.23A36.13,36.13,0,0,1,34,80.47l.3-.19.46-.29h0l1.1-.65.5-.27.14-.09.49-.25c.57-.31,1.15-.59,1.75-.87l.42-.2.39-.17.39-.17.62-.25,1.24-.49.6-.22c1-.35,2-.67,3-.95l.51-.14.18,0,.73-.19.48-.11,1-.22.41-.08.64-.13.58-.1.51-.09c.58-.1,1.16-.18,1.74-.25l.71-.09.78-.08.23,0,.5,0,.45,0,.74-.05.85,0c.66,0,1.33,0,2,0A48.82,48.82,0,0,1,64,74l.69.08a47.07,47.07,0,0,1,6.88,1.39c1.05.3,2.07.63,3.07,1A36.62,36.62,0,0,1,83.69,100.48Z"/><path class="cls-3" d="M72,98.93v.39h0c0,.58,0,1.15,0,1.73a46.25,46.25,0,0,1-2.71,13.7c-.19.53-.39,1-.61,1.57-.14.35-.28.69-.43,1-.37.84-.76,1.68-1.19,2.49A41.49,41.49,0,0,1,59.66,130l-1.25,0L57,130H57l-.67,0-.53,0-.67,0-.92-.07-.92-.09-.91-.1c-1.21-.15-2.39-.34-3.56-.57l-.87-.19-.86-.19-.86-.21-.84-.23-.83-.24h0l-.8-.25-.34-.11c-.44-.14-.87-.3-1.3-.45l-.75-.28-.06,0-.68-.26-.12-.06-.74-.31L39,126l-1-.49h0l-.1,0c-.61-.3-1.2-.61-1.78-.94l-.71-.4-.85-.52-.45-.28-.64-.42-.84-.59c-.41-.29-.82-.6-1.21-.91l-.52-.41-.59-.5-.11-.09-.05,0-.09-.09c-.11-.09-.22-.18-.32-.28l-.32-.28-.54-.52-.24-.23c-.18-.17-.35-.35-.52-.52h0l-.51-.54c-.15-.17-.31-.34-.46-.52s-.34-.39-.5-.59l-.41-.51-.05-.06a27.12,27.12,0,0,1-1.66-2.36c-.12-.2-.25-.4-.37-.61s-.17-.3-.26-.45-.29-.54-.43-.81a.14.14,0,0,1,0-.06l0,0a.91.91,0,0,1-.07-.14.16.16,0,0,0,0-.07,2.14,2.14,0,0,1-.1-.22c-.12-.24-.23-.48-.34-.73s-.17-.39-.25-.59l0-.07-.12-.33c-.13-.32-.24-.64-.35-1l-.14-.42,0-.09s0-.11,0-.16-.07-.24-.11-.36c-.15-.55-.29-1.11-.4-1.67l-.12-.68c0-.23-.07-.46-.1-.7s-.05-.34-.07-.52c-.06-.56-.1-1.12-.11-1.68,0-.21,0-.41,0-.61s0-.33,0-.49,0-.43,0-.64a2.28,2.28,0,0,1,0-.26l0-.46,0-.22a.2.2,0,0,1,0-.07.62.62,0,0,1,0-.13c0-.2.05-.4.07-.59s.05-.39.09-.57.07-.43.11-.63c.06-.37.14-.73.23-1.08a.83.83,0,0,1,0-.15,1,1,0,0,1,0-.14c0-.17.08-.33.13-.49l.12-.43a.5.5,0,0,0,0-.13l.09-.26.15-.45c.11-.32.23-.63.36-1l.09-.23c.12-.29.24-.58.37-.86,0,0,0,0,0,0l0-.07,0-.09.22-.46.33-.64.27-.47s0,0,0,0c.11-.19.22-.38.34-.57l.12-.21a.56.56,0,0,1,.05-.08l.12-.19c.19-.31.39-.61.61-.92l.35-.49c.1-.15.21-.29.32-.43l.25-.33c.06-.08.13-.16.19-.25l.32-.39c.47-.56,1-1.11,1.48-1.65l.18-.19.14-.14.55-.54.22-.2.61-.56.22-.2.27-.23A36.13,36.13,0,0,1,34,80.47l.3-.19.46-.29h0l1.1-.65.5-.27.14-.09.49-.25c.57-.31,1.15-.59,1.75-.87l.42-.2.39-.17.39-.17.62-.25,1.24-.49.6-.22c1-.35,2-.67,3-.95l.51-.14.18,0,.73-.19.48-.11,1-.22.41-.08.64-.13.58-.1.51-.09c.58-.1,1.16-.18,1.74-.25l.71-.09.78-.08.23,0,.5,0,.45,0,.74-.05.85,0c.66,0,1.33,0,2,0A48.82,48.82,0,0,1,64,74l.69.08c.23.35.46.7.68,1.06h0a44.71,44.71,0,0,1,5.9,15.57A47.5,47.5,0,0,1,72,98.93Z"/><path class="cls-4" d="M73.37,101.51a59.75,59.75,0,0,1-.41,7.07c-.16,1.37-.37,2.71-.62,4,0,.08,0,.16,0,.23-.11.55-.22,1.09-.35,1.63l-.27,1.09c-.11.43-.23.84-.35,1.25a.57.57,0,0,1,0,.14c-.12.43-.26.86-.4,1.27l-.11.34h0c-.25.73-.51,1.42-.78,2.09-1.9,4.59-4.47,7.91-7.39,9.27-1,.09-2,.14-2.94.16l-1.25,0L57,130H57c-3.28-1.35-6.14-5.16-8.14-10.49-.33-.88-.64-1.79-.92-2.75-.08-.28-.17-.58-.25-.88-.3-1.14-.58-2.32-.81-3.56h0a57.37,57.37,0,0,1-1-10.28v-.57c0-1.17,0-2.33.09-3.46h0c.12-2,.34-4,.64-5.93,1.42-8.77,4.76-15.65,9-18.38l.85,0L64,74a11.82,11.82,0,0,1,1.37,1.14h0c3.15,3.07,5.66,8.59,7,15.4a57.94,57.94,0,0,1,1,10C73.37,100.83,73.37,101.17,73.37,101.51Z"/><path class="cls-5" d="M37.94,125.49c-10.25-5-17-13.74-17-23.63C20.92,93,26.31,85.15,34.75,80a47.39,47.39,0,0,0-4.26,16.27A44.76,44.76,0,0,0,37.94,125.49Z"/><path class="cls-6" d="M52,100.25c-.74,1.44-2.5,2.14-4.6,2a9,9,0,0,1-1.93-.31,11.28,11.28,0,0,1-2.31-.88l-.12-.07c-3.6-1.9-5.53-5.29-4.33-7.62s5.17-2.74,8.84-.86a11.51,11.51,0,0,1,2.25,1.52,8.44,8.44,0,0,1,1.78,2.11A5.49,5.49,0,0,1,52,97,3.81,3.81,0,0,1,52,100.25Z"/><path class="cls-6" d="M53.61,100.27c.89,1.79-.15,3-2.29,2.64l-4.88-.77a21.08,21.08,0,0,1-2.51-.64l-.76-.39,0,0c-.05,0,1.44-1.61,3.3-3.53s3.68-3.17,4-2.79a12.33,12.33,0,0,1,1.32,1.84Z"/><path class="cls-6" d="M63.75,99.07c.66,1.57,2.45,2.45,4.65,2.51a9.75,9.75,0,0,0,2-.16,11.94,11.94,0,0,0,2.49-.74l.13-.06c3.92-1.7,6.22-5.1,5.15-7.64S73,89.69,69,91.37a12.13,12.13,0,0,0-2.48,1.41,9.07,9.07,0,0,0-2,2.07,7.42,7.42,0,0,0-.5.84A4,4,0,0,0,63.75,99.07Z"/><path class="cls-6" d="M62.06,99c-1.07,1.8-.08,3.13,2.2,3l5.17-.41a22.84,22.84,0,0,0,2.68-.47l.83-.35,0,0s-1.35-1.77-3.11-3.89l-.13-.15c-1.76-2.11-3.54-3.54-4-3.18a15.07,15.07,0,0,0-1.53,1.83Z"/><g class="cls-7"><path class="cls-8" d="M35.11,85c-.2-.3-1.55.42-3,1.62a17.53,17.53,0,0,0-3.89,4.81,18.88,18.88,0,0,0-1.39,6.2c-.07,2,.39,3.38,1,3.16S29,99.16,29,97.7a14.79,14.79,0,0,1,1.28-5.3,23.13,23.13,0,0,1,3.23-4.75C34.59,86.49,35.31,85.29,35.11,85Z"/></g><path class="cls-9" d="M44.56,102.4c-11,.25-22.32,5.22-25.16,11s-5.18,11.85-5.18,13.39,2,2.11,4.33,1.27,4.67-.84,5.09,0-3.47,4-8.65,7.13-10.33,7.43-11.45,9.67-2,7.16-2,10.94,2.63,5.27,5.85,3.31,3.22-.7,0,2.8,3.15,6.36,14.15,6.36h82.31c4.19,0,6.14-2.63,4.32-5.85s-2.62-6.54-1.78-7.38,2.9-.27,4.58,1.27,3.74,1.54,4.58,0-.19-5.09-2.29-7.89a63.74,63.74,0,0,0-8.4-8.91c-2.52-2.1-4.46-5.53-4.32-7.63s2.89-2.1,6.1,0,3.34,1.3.26-1.78a36.16,36.16,0,0,1-7.64-12c-1.12-3.5-3.08-8.73-4.36-11.62s-11.33-5-22.33-4.8Z"/><path class="cls-10" d="M25.35,86.55c-1.49,1.62,6.29,3,17.29,3H69c11,0,20.89-3.21,22-7.13a35.05,35.05,0,0,0,.25-14.5c-1-4.06-3.6-9.48-5.9-12.05s-4.18-6.77-4.18-9.34a28.54,28.54,0,0,1,.74-6.89c.4-1.21,1.29-4.2,2-6.63a41.9,41.9,0,0,0,1.23-9.34A44.37,44.37,0,0,1,86.8,13.05c1-3.11,3.82-6.21,6.39-6.89a43.67,43.67,0,0,1,9.1-1.23c2.43,0,5.2,1.33,6.14,3a11.21,11.21,0,0,0,5.17,4.18c1.89.68,4.21.46,5.16-.49A3.61,3.61,0,0,0,119,7.39C118.19,6,114.76,4.05,111.38,3A52,52,0,0,0,98.11,1H85.33c-3.11,0-6.54,1.22-7.62,2.7a23.3,23.3,0,0,1-6.64,5.17,39,39,0,0,0-7.87,5.65c-1.76,1.76-5.07,5.19-7.37,7.62s-5.95,6.53-8.11,9.1a29.31,29.31,0,0,0-5.17,9.34c-.67,2.57-.34,5.66.74,6.88a6,6,0,0,1,1.23,4.92,9.83,9.83,0,0,1-3.93,4.67,24,24,0,0,0-6.15,6.88,35.65,35.65,0,0,0-3.69,8.36c-.4,1.89-1.18,5.21-1.72,7.37A18.89,18.89,0,0,1,25.35,86.55Z"/><path class="cls-11" d="M68.12,152.26a9.31,9.31,0,0,1-9.88,9.49l-13.32-.67a10.67,10.67,0,0,1-10-10.51V139.29a9.62,9.62,0,0,1,10-9.65l13,.46A10.62,10.62,0,0,1,68,140.46Z"/><path class="cls-11" d="M79.87,138.76c-.07-5.49-4.07-9.61-8.88-9.15s-8.73,5.35-8.7,10.85l.05,11.8c0,5.5,4,9.56,8.94,9s8.82-5.48,8.75-11Z"/><path class="cls-11" d="M71.06,129.81a151.41,151.41,0,0,1-18.66.45l-7.48-.35c-5.49-.25-6-1-1.1-1.58a120.64,120.64,0,0,1,18.87-.5l7.07.44C75.25,128.61,75.83,129.3,71.06,129.81Z"/><polygon class="cls-12" points="47.02 161.19 47.02 129.81 49.44 129.81 49.44 161.31 47.02 161.19"/><polygon class="cls-12" points="35.14 143.15 62.6 144.66 62.45 146.87 34.99 145.36 35.14 143.15"/><polygon class="cls-12" points="49.44 129.81 47.02 129.81 62.38 127.98 64.8 127.98 49.44 129.81"/><polygon class="cls-12" points="71.77 129.55 73.19 129.42 47.02 127.85 45.32 127.98 71.77 129.55"/><polyline class="cls-12" points="71.77 129.55 71.77 161.22 73.19 160.96 73.19 129.42"/><polygon class="cls-12" points="62.38 144.8 79.74 143.36 79.74 145.32 62.38 146.88 62.38 144.8"/><path class="cls-12" d="M67.77,128.74c.65,0,1.18.38,1.18.74s-.42.59-.93.5a20.92,20.92,0,0,0-2.11-.19c-.64,0-1.73-.11-2.41-.19a12.56,12.56,0,0,1-2.11-.47,3.18,3.18,0,0,1-1.31-2,11.63,11.63,0,0,1-.24-3.5,6,6,0,0,1,1.38-3,2.15,2.15,0,0,1,2.31-.54,3.33,3.33,0,0,1,1.38,2.22,5.3,5.3,0,0,1-1,3.26,9.21,9.21,0,0,1-3.11,2.53,10,10,0,0,1-2.55.85,7.08,7.08,0,0,1-2-.62A6.21,6.21,0,0,1,53.94,126a13,13,0,0,1-1.2-3.42,2.8,2.8,0,0,1,.62-2.41,4.76,4.76,0,0,1,2.52-.7,3.06,3.06,0,0,1,2.41,1.9,14.73,14.73,0,0,1,.93,3,2.43,2.43,0,0,1-.24,1.55,8.2,8.2,0,0,1-1.28,1.13l-1.55,1.13a5.29,5.29,0,0,1-1.62.66c-.53.1-1.79.24-2.79.31s-2.51.11-3.35.11-1.47-.29-1.41-.66.54-.66,1.07-.66,1.52,0,2.2-.11,1.76-.12,2.38-.12a5.7,5.7,0,0,0,2.11-.47,17.34,17.34,0,0,0,1.69-.93,4.72,4.72,0,0,0,1.1-1,4.77,4.77,0,0,0-.34-2.68c-.4-1.18-1.19-2.11-1.76-2.06a2.94,2.94,0,0,0-1.49.5,2.14,2.14,0,0,0,0,1.75,16.37,16.37,0,0,0,1,2.45,5.5,5.5,0,0,0,1.8,1.79,5.18,5.18,0,0,0,2,.66,4.32,4.32,0,0,0,1.83-.62,12.63,12.63,0,0,0,1.69-1.28,9.47,9.47,0,0,0,1.2-1.48,3.09,3.09,0,0,0,.28-2A2.2,2.2,0,0,0,63,121c-.28-.13-.84.17-1.24.66a4.89,4.89,0,0,0-.86,2.25,8.62,8.62,0,0,0,.34,2.88,2.46,2.46,0,0,0,1.59,1.67c.61.09,1.71.17,2.45.19Z"/><path class="cls-10" d="M84.34,131.29c-4.19,1.35-7.62,3.12-7.62,3.93A1.38,1.38,0,0,0,78,136.7a14.57,14.57,0,0,0,3.44-.74c1.22-.41.67.15-1.23,1.23L75,140.14a2.77,2.77,0,0,0-1,3.19,8,8,0,0,0,2.46,3.45A9,9,0,0,0,80.9,148a15.37,15.37,0,0,0,6.15-2,53.11,53.11,0,0,0,6.14-4.18,19.16,19.16,0,0,0,3.69-3.93c.54-1,.21-2.83-.74-4.18a33.22,33.22,0,0,0-3-3.69C92.52,129.38,88.54,129.94,84.34,131.29Z"/><path class="cls-10" d="M32.15,131.67c4.34,1.4,7.89,3.24,7.89,4.07a1.42,1.42,0,0,1-1.27,1.53,14.83,14.83,0,0,1-3.56-.76c-1.26-.42-.69.15,1.27,1.27l5.35,3.05a2.87,2.87,0,0,1,1,3.31,8.34,8.34,0,0,1-2.54,3.57A9.26,9.26,0,0,1,35.72,149a15.87,15.87,0,0,1-6.36-2A56.19,56.19,0,0,1,23,142.62a19.61,19.61,0,0,1-3.81-4.08c-.56-1-.22-2.92.76-4.32a36.14,36.14,0,0,1,3-3.82C23.69,129.7,27.82,130.27,32.15,131.67Z"/><circle class="cls-13" cx="58.52" cy="106.24" r="9.37"/></g></svg>
