<svg xmlns="http://www.w3.org/2000/svg" width="120" height="165" viewBox="0 0 120 165"><defs><style>.cls-1{fill:#ea591f;}.cls-2{fill:#eb5e28;}.cls-3{fill:#ee7444;}.cls-4{fill:#ec6632;}.cls-5{fill:#ef8257;}.cls-6{fill:#191919;}.cls-7{opacity:0.4;}.cls-8{fill:#fff;}.cls-9{fill:#e5e5e5;}.cls-10{fill:#d83f32;}.cls-11{fill:#9d6b53;}.cls-12{fill:#377e62;}.cls-13{fill:#e2d681;}</style></defs><title>pumpkin_elf_left</title><g id="final"><path class="cls-1" d="M99.18,99.94c0,9.56-6.48,18-16.31,22.91A42,42,0,0,1,74.56,126a47.3,47.3,0,0,1-7.88,1.34c-1,.08-1.9.13-2.87.15l-1.22,0-1.34,0h-.07l-.65,0-.52,0-.65,0-.9-.07-.9-.08-.89-.1c-1.18-.14-2.34-.33-3.48-.56l-.85-.18-.84-.19-.83-.21-.82-.22-.81-.23h0l-.79-.25-.32-.1c-.43-.14-.85-.29-1.27-.45-.25-.08-.49-.18-.73-.27a.08.08,0,0,1-.06,0l-.66-.26-.12,0-.73-.31-.72-.32-1-.48h0l-.1,0c-.59-.29-1.17-.6-1.74-.91l-.69-.4q-.42-.24-.84-.51l-.43-.27-.62-.41-.82-.57c-.41-.29-.8-.58-1.19-.89l-.5-.41c-.2-.15-.39-.31-.58-.48L35,118l0,0-.1-.08-.31-.28-.3-.27-.53-.5-.24-.23L33,116.1h0c-.17-.18-.34-.35-.5-.53l-.45-.5c-.17-.19-.33-.39-.49-.58l-.4-.49-.05-.06q-.87-1.12-1.62-2.31l-.36-.59-.25-.45c-.15-.26-.29-.52-.43-.79a.17.17,0,0,0,0-.05l0,0-.06-.14c-.05-.1-.1-.19-.14-.29s-.23-.46-.33-.7-.17-.39-.24-.58l0-.07c0-.11-.09-.21-.13-.32-.12-.31-.23-.63-.33-.94l-.14-.41,0-.09s0-.1,0-.15-.07-.24-.1-.36c-.15-.53-.29-1.07-.39-1.62,0-.22-.09-.45-.12-.67s-.07-.45-.1-.68a4.43,4.43,0,0,1-.06-.51c-.07-.54-.1-1.09-.12-1.64,0-.2,0-.4,0-.6s0-.32,0-.48,0-.41,0-.62,0-.17,0-.25l0-.45,0-.22s0,0,0-.06,0-.09,0-.13c0-.19.05-.38.07-.58s.05-.37.08-.55.07-.42.11-.62c.07-.35.14-.71.23-1.06a.65.65,0,0,1,0-.13l0-.14c0-.17.09-.32.13-.48l.12-.42a.5.5,0,0,0,0-.13l.09-.25c0-.15.09-.3.14-.44.11-.31.23-.62.35-.93l.09-.22c.12-.29.24-.56.37-.84l0,0a.25.25,0,0,1,0-.07.36.36,0,0,1,0-.09l.21-.44c.1-.21.21-.42.32-.63l.26-.46s0,0,0,0c.1-.19.21-.37.32-.56l.12-.2.06-.08,0-.06.08-.12c.19-.31.38-.6.59-.9l.34-.48.31-.42L31,86l.19-.24.31-.39c.45-.54.93-1.08,1.44-1.6l.18-.19a1.85,1.85,0,0,1,.14-.14c.17-.18.35-.35.54-.53l.2-.19.6-.55.22-.19a3,3,0,0,1,.27-.23,33.26,33.26,0,0,1,3.63-2.71l.3-.19.44-.28h0c.35-.22.7-.43,1.07-.63l.48-.27a.71.71,0,0,1,.15-.08l.47-.25c.56-.3,1.13-.58,1.71-.85l.41-.19.38-.17.38-.16.6-.25c.4-.17.81-.33,1.22-.48l.58-.21q1.44-.51,2.94-.93l.49-.14.18,0,.71-.18.47-.11c.31-.08.63-.15.95-.21l.4-.08.62-.13.57-.1.5-.09c.56-.09,1.13-.17,1.7-.24l.69-.08.76-.08.22,0,.49,0,.44,0,.72,0,.83,0c.65,0,1.3,0,2,0a49,49,0,0,1,5.46.3l.67.08a45,45,0,0,1,6.71,1.36q1.53.44,3,1C90.7,79.57,99.18,89,99.18,99.94Z"/><path class="cls-2" d="M87.26,98.6a35.72,35.72,0,0,1-7.32,21.62A38.41,38.41,0,0,1,74.56,126a47.3,47.3,0,0,1-7.88,1.34c-1,.08-1.9.13-2.87.15l-1.22,0-1.34,0h-.07l-.65,0-.52,0-.65,0-.9-.07-.9-.08-.89-.1c-1.18-.14-2.34-.33-3.48-.56l-.85-.18-.84-.19-.83-.21-.82-.22-.81-.23h0l-.79-.25-.32-.1c-.43-.14-.85-.29-1.27-.45-.25-.08-.49-.18-.73-.27a.08.08,0,0,1-.06,0l-.66-.26-.12,0-.73-.31-.72-.32-1-.48h0l-.1,0c-.59-.29-1.17-.6-1.74-.91l-.69-.4q-.42-.24-.84-.51l-.43-.27-.62-.41-.82-.57c-.41-.29-.8-.58-1.19-.89l-.5-.41c-.2-.15-.39-.31-.58-.48L35,118l0,0-.1-.08-.31-.28-.3-.27-.53-.5-.24-.23L33,116.1h0c-.17-.18-.34-.35-.5-.53l-.45-.5c-.17-.19-.33-.39-.49-.58l-.4-.49-.05-.06q-.87-1.12-1.62-2.31l-.36-.59-.25-.45c-.15-.26-.29-.52-.43-.79a.17.17,0,0,0,0-.05l0,0-.06-.14c-.05-.1-.1-.19-.14-.29s-.23-.46-.33-.7-.17-.39-.24-.58l0-.07c0-.11-.09-.21-.13-.32-.12-.31-.23-.63-.33-.94l-.14-.41,0-.09s0-.1,0-.15-.07-.24-.1-.36c-.15-.53-.29-1.07-.39-1.62,0-.22-.09-.45-.12-.67s-.07-.45-.1-.68a4.43,4.43,0,0,1-.06-.51c-.07-.54-.1-1.09-.12-1.64,0-.2,0-.4,0-.6s0-.32,0-.48,0-.41,0-.62,0-.17,0-.25l0-.45,0-.22s0,0,0-.06,0-.09,0-.13c0-.19.05-.38.07-.58s.05-.37.08-.55.07-.42.11-.62c.07-.35.14-.71.23-1.06a.65.65,0,0,1,0-.13l0-.14c0-.17.09-.32.13-.48l.12-.42a.5.5,0,0,0,0-.13l.09-.25c0-.15.09-.3.14-.44.11-.31.23-.62.35-.93l.09-.22c.12-.29.24-.56.37-.84l0,0a.25.25,0,0,1,0-.07.36.36,0,0,1,0-.09l.21-.44c.1-.21.21-.42.32-.63l.26-.46s0,0,0,0c.1-.19.21-.37.32-.56l.12-.2.06-.08,0-.06.08-.12c.19-.31.38-.6.59-.9l.34-.48.31-.42L31,86l.19-.24.31-.39c.45-.54.93-1.08,1.44-1.6l.18-.19a1.85,1.85,0,0,1,.14-.14c.17-.18.35-.35.54-.53l.2-.19.6-.55.22-.19a3,3,0,0,1,.27-.23,33.26,33.26,0,0,1,3.63-2.71l.3-.19.44-.28h0c.35-.22.7-.43,1.07-.63l.48-.27a.71.71,0,0,1,.15-.08l.47-.25c.56-.3,1.13-.58,1.71-.85l.41-.19.38-.17.38-.16.6-.25c.4-.17.81-.33,1.22-.48l.58-.21q1.44-.51,2.94-.93l.49-.14.18,0,.71-.18.47-.11c.31-.08.63-.15.95-.21l.4-.08.62-.13.57-.1.5-.09c.56-.09,1.13-.17,1.7-.24l.69-.08.76-.08.22,0,.49,0,.44,0,.72,0,.83,0c.65,0,1.3,0,2,0a49,49,0,0,1,5.46.3l.67.08a45,45,0,0,1,6.71,1.36q1.53.44,3,1A35.8,35.8,0,0,1,87.26,98.6Z"/><path class="cls-3" d="M75.85,97.09c0,.12,0,.25,0,.37h0c0,.56,0,1.12,0,1.68a45.11,45.11,0,0,1-2.64,13.38c-.19.51-.39,1-.59,1.53-.14.34-.28.67-.43,1-.36.83-.74,1.64-1.15,2.43a40.72,40.72,0,0,1-7.18,10l-1.22,0-1.34,0h-.07l-.65,0-.52,0-.65,0-.9-.07-.9-.08-.89-.1c-1.18-.14-2.34-.33-3.48-.56l-.85-.18-.84-.19-.83-.21-.82-.22-.81-.23h0l-.79-.25-.32-.1c-.43-.14-.85-.29-1.27-.45-.25-.08-.49-.18-.73-.27a.08.08,0,0,1-.06,0l-.66-.26-.12,0-.73-.31-.72-.32-1-.48h0l-.1,0c-.59-.29-1.17-.6-1.74-.91l-.69-.4q-.42-.24-.84-.51l-.43-.27-.62-.41-.82-.57c-.41-.29-.8-.58-1.19-.89l-.5-.41c-.2-.15-.39-.31-.58-.48L35,118l0,0-.1-.08-.31-.28-.3-.27-.53-.5-.24-.23L33,116.1h0c-.17-.18-.34-.35-.5-.53l-.45-.5c-.17-.19-.33-.39-.49-.58l-.4-.49-.05-.06q-.87-1.12-1.62-2.31l-.36-.59-.25-.45c-.15-.26-.29-.52-.43-.79a.17.17,0,0,0,0-.05l0,0-.06-.14,0-.07a1.47,1.47,0,0,1-.1-.22c-.12-.23-.23-.46-.33-.7s-.17-.39-.24-.58l0-.07c0-.11-.09-.21-.13-.32-.12-.31-.23-.63-.33-.94l-.14-.41,0-.09s0-.1,0-.15-.07-.24-.1-.36c-.15-.53-.29-1.07-.39-1.62,0-.22-.09-.45-.12-.67s-.07-.45-.1-.68a4.43,4.43,0,0,1-.06-.51c-.07-.54-.1-1.09-.12-1.64,0-.2,0-.4,0-.6s0-.32,0-.48,0-.41,0-.62,0-.17,0-.25l0-.45,0-.22s0,0,0-.06,0-.09,0-.13c0-.19.05-.38.07-.58s.05-.37.08-.55.07-.42.11-.62c.07-.35.14-.71.23-1.06a.65.65,0,0,1,0-.13l0-.14c0-.17.09-.32.13-.48l.12-.42a.5.5,0,0,0,0-.13l.09-.25c0-.15.09-.3.14-.44.11-.31.23-.62.35-.93l.09-.22c.12-.29.24-.56.37-.84l0,0a.25.25,0,0,1,0-.07.36.36,0,0,1,0-.09l.21-.44c.1-.21.21-.42.32-.63l.26-.46s0,0,0,0c.1-.19.21-.37.32-.56l.12-.2.06-.08a1.74,1.74,0,0,1,.11-.18c.19-.31.38-.6.59-.9l.34-.48.31-.42L31,86l.19-.24.31-.39c.45-.54.93-1.08,1.44-1.6l.18-.19a1.85,1.85,0,0,1,.14-.14c.17-.18.35-.35.54-.53l.2-.19.6-.55.22-.19a3,3,0,0,1,.27-.23,33.26,33.26,0,0,1,3.63-2.71l.3-.19.44-.28h0c.35-.22.7-.43,1.07-.63l.48-.27a.71.71,0,0,1,.15-.08l.47-.25c.56-.3,1.13-.58,1.71-.85l.41-.19.38-.17.38-.16.6-.25c.4-.17.81-.33,1.22-.48l.58-.21q1.44-.51,2.94-.93l.49-.14.18,0,.71-.18.47-.11c.31-.08.63-.15.95-.21l.4-.08.62-.13.57-.1.5-.09c.56-.09,1.13-.17,1.7-.24l.69-.08.76-.08.22,0,.49,0,.44,0,.72,0,.83,0c.65,0,1.3,0,2,0a49,49,0,0,1,5.46.3l.67.08.66,1h0A43.3,43.3,0,0,1,75.14,89,46.29,46.29,0,0,1,75.85,97.09Z"/><path class="cls-4" d="M77.19,99.61a59.14,59.14,0,0,1-.4,6.9c-.16,1.34-.36,2.64-.61,3.89,0,.08,0,.15,0,.23-.11.54-.22,1.06-.35,1.58s-.17.72-.26,1.07-.22.82-.34,1.22c0,0,0,.1,0,.14-.12.42-.25.83-.39,1.24l-.11.33h0c-.24.71-.5,1.38-.76,2-1.86,4.48-4.36,7.72-7.21,9-1,.08-1.9.13-2.87.15l-1.22,0-1.34,0h-.07c-3.2-1.32-6-5-8-10.24-.32-.85-.62-1.75-.89-2.68l-.24-.86c-.3-1.11-.57-2.27-.8-3.47h0a56.64,56.64,0,0,1-1-10v0c0-.17,0-.34,0-.52,0-1.15,0-2.28.1-3.38h0a55,55,0,0,1,.62-5.78c1.38-8.56,4.65-15.27,8.75-17.94l.84,0,7.41.2a11.13,11.13,0,0,1,1.33,1.12h0c3.08,3,5.53,8.38,6.81,15a55.18,55.18,0,0,1,1,9.74C77.19,98.94,77.19,99.27,77.19,99.61Z"/><path class="cls-5" d="M42.61,123C32.6,118.09,26,109.6,26,99.94c0-8.61,5.27-16.31,13.51-21.35a46.23,46.23,0,0,0-4.17,15.88A43.68,43.68,0,0,0,42.61,123Z"/><path class="cls-6" d="M55.78,99.14c-1,1.27-2.76,1.66-4.76,1.23a9.59,9.59,0,0,1-1.81-.6,11.46,11.46,0,0,1-2.08-1.23L47,98.46c-3.15-2.41-4.47-6-2.93-8s5.42-1.81,8.65.6a11.08,11.08,0,0,1,1.91,1.82A8.21,8.21,0,0,1,56,95.17a5.8,5.8,0,0,1,.27.87A3.74,3.74,0,0,1,55.78,99.14Z"/><path class="cls-6" d="M57.32,99.42c.56,1.86-.62,2.84-2.64,2.17l-4.56-1.52a22,22,0,0,1-2.32-1l-.67-.5,0,0s1.65-1.32,3.75-2.86,4.06-2.46,4.35-2a12.65,12.65,0,0,1,1,2C56.24,95.84,56.76,97.56,57.32,99.42Z"/><path class="cls-6" d="M68.18,98c.86,1.42,2.72,2,4.85,1.76a10.24,10.24,0,0,0,2-.45,11.64,11.64,0,0,0,2.3-1.08l.12-.07c3.54-2.2,5.27-5.81,3.87-8.11s-5.49-2.44-9.11-.24A11.46,11.46,0,0,0,70,91.56a9,9,0,0,0-1.68,2.3,5.43,5.43,0,0,0-.36.88A3.91,3.91,0,0,0,68.18,98Z"/><path class="cls-6" d="M66.54,98.18c-.78,1.89.37,3,2.54,2.53L74,99.57a21,21,0,0,0,2.52-.84l.76-.46,0,0s-1.59-1.54-3.63-3.37-4-3-4.36-2.56a13.74,13.74,0,0,0-1.21,2C68,94.54,67.31,96.29,66.54,98.18Z"/><g class="cls-7"><path class="cls-8" d="M39.85,83.47c-.2-.3-1.51.42-2.92,1.58a16.92,16.92,0,0,0-3.8,4.7,18.28,18.28,0,0,0-1.36,6c-.06,1.91.38,3.3,1,3.08s1.12-1.56,1.12-3a14.55,14.55,0,0,1,1.25-5.17,22.64,22.64,0,0,1,3.15-4.63C39.34,84.94,40,83.77,39.85,83.47Z"/></g><path class="cls-9" d="M75.62,100.46c11,.25,22.27,5.11,25,10.8s5,11.56,5,13.07-1.9,2.06-4.22,1.24-4.56-.82-5,0,3.39,4,8.45,7,10.08,7.26,11.18,9.44,2,7,2,10.68-2.57,5.15-5.71,3.23-3.14-.68,0,2.74-3.29,6.21-14.29,6.21H18.28c-4.1,0-6-2.58-4.23-5.72s2.56-6.38,1.74-7.2-2.83-.26-4.47,1.24-3.65,1.5-4.47,0,.19-5,2.24-7.7a61.7,61.7,0,0,1,8.19-8.69c2.46-2.05,4.36-5.41,4.23-7.46s-2.82-2-6,0-3.25,1.27-.24-1.73a35.4,35.4,0,0,0,7.45-11.68c1.09-3.41,3-8.52,4.26-11.34s11.28-4.92,22.27-4.67Z"/><path class="cls-10" d="M94.86,85c1.45,1.58-6.36,2.88-17.36,2.88H52.71c-11,0-20.86-3.13-21.92-7a34.27,34.27,0,0,1-.24-14.16A31.82,31.82,0,0,1,36.31,55c2.25-2.51,4.08-6.61,4.08-9.12a27.83,27.83,0,0,0-.72-6.72c-.39-1.19-1.26-4.1-1.92-6.48a41,41,0,0,1-1.2-9.12,42.71,42.71,0,0,0-1.68-10.31c-.92-3-3.73-6.06-6.24-6.72a42.06,42.06,0,0,0-8.87-1.2c-2.38,0-5.08,1.29-6,2.88a11.07,11.07,0,0,1-5,4.08c-1.85.66-4.12.44-5-.48a3.54,3.54,0,0,1-.24-4.08c.79-1.32,4.14-3.26,7.44-4.32A51,51,0,0,1,23.83,1.5H36.31c3,0,6.38,1.19,7.44,2.64a22.6,22.6,0,0,0,6.48,5,38,38,0,0,1,7.68,5.52c1.71,1.71,5,5.06,7.2,7.44S70.91,28.51,73,31a28.49,28.49,0,0,1,5,9.12c.66,2.51.34,5.53-.72,6.72a5.86,5.86,0,0,0-1.2,4.8A9.65,9.65,0,0,0,80,56.21a23.28,23.28,0,0,1,6,6.72,34.78,34.78,0,0,1,3.6,8.15c.4,1.85,1.15,5.09,1.68,7.2A18.45,18.45,0,0,0,94.86,85Z"/><circle class="cls-11" cx="62.71" cy="104.44" r="8.88"/><path class="cls-12" d="M53.11,148.9A9.32,9.32,0,0,0,63,158.4l12.52-.64a10.66,10.66,0,0,0,10-10.51V136.72a9.62,9.62,0,0,0-10-9.65l-12.17.44a10.6,10.6,0,0,0-10.11,10.35Z"/><path class="cls-12" d="M41.63,136.21c.08-5.5,4-9.63,8.68-9.17s8.51,5.32,8.49,10.82l0,11c0,5.5-4,9.57-8.72,9S41.41,152.5,41.49,147Z"/><path class="cls-12" d="M50.24,127.22a149.4,149.4,0,0,0,18.45.44l6.82-.32c5.5-.25,6.09-1,1.31-1.56a120,120,0,0,0-18.65-.47l-6.42.4C46.26,126.05,45.58,126.73,50.24,127.22Z"/><polygon class="cls-13" points="73.7 157.85 73.7 127.22 71.34 127.22 71.34 157.97 73.7 157.85"/><polygon class="cls-13" points="85.3 140.25 58.5 141.72 58.64 143.88 85.44 142.41 85.3 140.25"/><polygon class="cls-13" points="71.34 127.23 73.7 127.23 58.7 125.44 56.34 125.44 71.34 127.23"/><polygon class="cls-13" points="49.54 126.97 48.15 126.84 73.7 125.32 75.37 125.44 49.54 126.97"/><polyline class="cls-13" points="49.54 126.97 49.54 157.89 48.15 157.63 48.15 126.84"/><polygon class="cls-13" points="58.7 141.86 41.77 140.46 41.77 142.37 58.7 143.89 58.7 141.86"/><path class="cls-13" d="M53.44,126.18c-.62,0-1.14.37-1.14.72s.41.58.91.5a17.27,17.27,0,0,1,2-.19c.63,0,1.69-.11,2.36-.19a11,11,0,0,0,2.05-.46A3,3,0,0,0,61,124.63a11.11,11.11,0,0,0,.24-3.42,5.69,5.69,0,0,0-1.35-2.92,2.1,2.1,0,0,0-2.25-.53,3.25,3.25,0,0,0-1.35,2.16,5.12,5.12,0,0,0,.94,3.19,9,9,0,0,0,3,2.47,9.76,9.76,0,0,0,2.49.83,6.69,6.69,0,0,0,2-.61,5.9,5.9,0,0,0,2.25-2.27,12.73,12.73,0,0,0,1.18-3.34,2.73,2.73,0,0,0-.6-2.35,4.71,4.71,0,0,0-2.46-.69A3,3,0,0,0,62.7,119a16.11,16.11,0,0,0-.91,2.92,2.48,2.48,0,0,0,.24,1.52,8.14,8.14,0,0,0,1.24,1.1l1.52,1.1a5,5,0,0,0,1.58.65c.52.1,1.75.24,2.73.3s2.45.12,3.26.12,1.44-.3,1.38-.65-.52-.65-1-.65-1.49,0-2.15-.11-1.72-.11-2.33-.11a5.63,5.63,0,0,1-2-.46,18.82,18.82,0,0,1-1.65-.91,4.53,4.53,0,0,1-1.08-1,4.63,4.63,0,0,1,.34-2.61c.39-1.15,1.16-2.06,1.72-2a2.77,2.77,0,0,1,1.44.49,2.08,2.08,0,0,1,0,1.71,16,16,0,0,1-1,2.39,5.39,5.39,0,0,1-1.75,1.74,5,5,0,0,1-2,.65,4.24,4.24,0,0,1-1.78-.61,12,12,0,0,1-1.65-1.25,10.16,10.16,0,0,1-1.18-1.44,3,3,0,0,1-.27-1.94,2.21,2.21,0,0,1,.74-1.36c.28-.13.83.16,1.22.64a5.06,5.06,0,0,1,.84,2.2,8.48,8.48,0,0,1-.34,2.81,2.39,2.39,0,0,1-1.55,1.63c-.59.08-1.67.17-2.39.19S54.07,126.14,53.44,126.18Z"/><path class="cls-10" d="M37.27,128.67c4.09,1.32,7.44,3.05,7.44,3.84a1.34,1.34,0,0,1-1.2,1.44,13.87,13.87,0,0,1-3.36-.72c-1.19-.4-.65.14,1.2,1.2l5,2.88a2.71,2.71,0,0,1,1,3.12,7.91,7.91,0,0,1-2.4,3.36,8.74,8.74,0,0,1-4.32,1.2,15.13,15.13,0,0,1-6-1.92,53.72,53.72,0,0,1-6-4.08,18.81,18.81,0,0,1-3.6-3.84c-.52-.92-.2-2.76.72-4.08a34.77,34.77,0,0,1,2.88-3.6C29.29,126.81,33.18,127.35,37.27,128.67Z"/><path class="cls-10" d="M88.21,129.05c-4.23,1.36-7.7,3.15-7.7,4a1.39,1.39,0,0,0,1.24,1.49,14.43,14.43,0,0,0,3.48-.74c1.23-.41.67.14-1.24,1.24l-5.22,3a2.81,2.81,0,0,0-1,3.23,8.22,8.22,0,0,0,2.48,3.48,9.09,9.09,0,0,0,4.47,1.24,15.55,15.55,0,0,0,6.21-2,53.43,53.43,0,0,0,6.21-4.22,19.06,19.06,0,0,0,3.73-4c.55-.95.21-2.85-.74-4.22a35.1,35.1,0,0,0-3-3.73C96.47,127.12,92.45,127.68,88.21,129.05Z"/></g></svg>
