<svg id="Layer_2" data-name="Layer 2" xmlns="http://www.w3.org/2000/svg" width="70" height="70.13" viewBox="0 0 70 70.13"><defs><style>.cls-1{fill:#ec6632;}.cls-2{fill:#442518;}.cls-3{fill:none;stroke:#442518;stroke-miterlimit:10;stroke-width:2px;}</style></defs><title>settings_button</title><rect class="cls-1" x="0.5" y="0.99" width="69" height="69" rx="12" ry="12"/><path class="cls-2" d="M48.8,45.09a4.33,4.33,0,0,1,3.43-.92l6.82,1.5a1.67,1.67,0,0,0,2.09-1.56l.38-5.67a1.89,1.89,0,0,0-1.87-2l-7.11-.11a2.47,2.47,0,0,1-2.31-2L49.73,31a2.35,2.35,0,0,1,1.61-2.54l6.21-1.82a1.71,1.71,0,0,0,1.11-2.39L56.6,19.58A1.84,1.84,0,0,0,54,18.7l-6.61,3.54a4.59,4.59,0,0,1-3.58.12l-4.13-1.9a3,3,0,0,1-1.59-2.82l.54-4.83A2.48,2.48,0,0,0,37,10.24L32.55,8.92a1.36,1.36,0,0,0-1.86,1.42l.15,6.55a3.74,3.74,0,0,1-1.68,3L27,21.13a3.23,3.23,0,0,1-3.31-.22l-6.27-4.83a2.33,2.33,0,0,0-3,.2l-3.12,3.15a1.54,1.54,0,0,0,.29,2.48l8,5a2.83,2.83,0,0,1,1.14,3l-.87,3a2.09,2.09,0,0,1-2.49,1.43l-6.59-1.65a1.6,1.6,0,0,0-2.06,1.51L8.5,38.44a2,2,0,0,0,1.88,2.13l6.06.4a4,4,0,0,1,2.94,1.89l2.3,4.24a3.38,3.38,0,0,1-.26,3.35L17.79,55.2A2,2,0,0,0,18.18,58l5,3.71a1.56,1.56,0,0,0,2.44-.63L29,53.65a2.5,2.5,0,0,1,2.77-1.34l3.75.92a5.09,5.09,0,0,1,2.87,2.26L42,62.56a1.62,1.62,0,0,0,2.51.56l4.17-3.19a2,2,0,0,0,.36-2.8l-4.32-5.6A2.21,2.21,0,0,1,45,48.6Z"/><path class="cls-3" d="M48.8,45.09a4.33,4.33,0,0,1,3.43-.92l6.82,1.5a1.67,1.67,0,0,0,2.09-1.56l.38-5.67a1.89,1.89,0,0,0-1.87-2l-7.11-.11a2.47,2.47,0,0,1-2.31-2L49.73,31a2.35,2.35,0,0,1,1.61-2.54l6.21-1.82a1.71,1.71,0,0,0,1.11-2.39L56.6,19.58A1.84,1.84,0,0,0,54,18.7l-6.61,3.54a4.59,4.59,0,0,1-3.58.12l-4.13-1.9a3,3,0,0,1-1.59-2.82l.54-4.83A2.48,2.48,0,0,0,37,10.24L32.55,8.92a1.36,1.36,0,0,0-1.86,1.42l.15,6.55a3.74,3.74,0,0,1-1.68,3L27,21.13a3.23,3.23,0,0,1-3.31-.22l-6.27-4.83a2.33,2.33,0,0,0-3,.2l-3.12,3.15a1.54,1.54,0,0,0,.29,2.48l8,5a2.83,2.83,0,0,1,1.14,3l-.87,3a2.09,2.09,0,0,1-2.49,1.43l-6.59-1.65a1.6,1.6,0,0,0-2.06,1.51L8.5,38.44a2,2,0,0,0,1.88,2.13l6.06.4a4,4,0,0,1,2.94,1.89l2.3,4.24a3.38,3.38,0,0,1-.26,3.35L17.79,55.2A2,2,0,0,0,18.18,58l5,3.71a1.56,1.56,0,0,0,2.44-.63L29,53.65a2.5,2.5,0,0,1,2.77-1.34l3.75.92a5.09,5.09,0,0,1,2.87,2.26L42,62.56a1.62,1.62,0,0,0,2.51.56l4.17-3.19a2,2,0,0,0,.36-2.8l-4.32-5.6A2.21,2.21,0,0,1,45,48.6Z"/><circle class="cls-1" cx="34.07" cy="36.42" r="8.08"/></svg>
