<svg xmlns="http://www.w3.org/2000/svg" width="209" height="151" viewBox="0 0 209 151"><defs><style>.cls-1,.cls-2,.cls-3,.cls-4{fill:#c8d0db;}.cls-1{opacity:0.95;}.cls-2{opacity:0.9;}.cls-3{opacity:0.7;}</style></defs><title>smoke_effect_1</title><g id="final"><ellipse class="cls-1" cx="107.95" cy="74.76" rx="27.53" ry="26.32"/><ellipse class="cls-1" cx="133.55" cy="102.77" rx="22.48" ry="21.49"/><ellipse class="cls-2" cx="50.71" cy="81.52" rx="35.02" ry="33.09"/><circle class="cls-3" cx="50.71" cy="116.3" r="29.7"/><circle class="cls-4" cx="75.83" cy="107.12" r="29.7"/><path class="cls-3" d="M160,29.32A40.06,40.06,0,0,0,122.44,4C102,4,85.13,18.85,82.67,38A38.88,38.88,0,1,0,62.18,85.91a22.75,22.75,0,0,0,18.2,8.89,23.69,23.69,0,0,0,4.88-.51,59.41,59.41,0,1,0,74.75-65Z"/></g></svg>
