<svg id="Layer_2" data-name="Layer 2" xmlns="http://www.w3.org/2000/svg" width="70" height="70" viewBox="0 0 70 70"><defs><style>.cls-1{fill:#ec6632;}.cls-2{fill:#442518;}.cls-3{fill:none;stroke:#442518;stroke-miterlimit:10;stroke-width:2px;}</style></defs><title>sound_button</title><rect class="cls-1" x="1" y="0.74" width="69" height="69" rx="12" ry="12"/><path class="cls-2" d="M13,24.36a2,2,0,0,0-2,2V43.5a2,2,0,0,0,2,2H25.28a6.9,6.9,0,0,1,3.59,1.22l13.44,10.4c.87.68,1.58.33,1.58-.77V15.59c0-1.1-.75-1.5-1.67-.9l-13,8.57a7.81,7.81,0,0,1-3.67,1.1Z"/><path class="cls-3" d="M13,24.36a2,2,0,0,0-2,2V43.5a2,2,0,0,0,2,2H25.28a6.9,6.9,0,0,1,3.59,1.22l13.44,10.4c.87.68,1.58.33,1.58-.77V15.59c0-1.1-.75-1.5-1.67-.9l-13,8.57a7.81,7.81,0,0,1-3.67,1.1Z"/><path class="cls-2" d="M49.91,26.79a3.17,3.17,0,0,1,0-2.65c.39-.54,1.13.14,1.64,1.5a25.62,25.62,0,0,1,1.21,4.53,35.37,35.37,0,0,1,.06,5.46,39.93,39.93,0,0,1-.75,5.57,17.16,17.16,0,0,1-1.27,3.44c-.4.7-1,.67-1.24-.08a3,3,0,0,1,.15-2.41,10.47,10.47,0,0,0,1-2.67A34,34,0,0,0,51.37,35a18.12,18.12,0,0,0-.31-4.7C50.79,29.29,50.27,27.71,49.91,26.79Z"/><path class="cls-3" d="M49.91,26.79a3.17,3.17,0,0,1,0-2.65c.39-.54,1.13.14,1.64,1.5a25.62,25.62,0,0,1,1.21,4.53,35.37,35.37,0,0,1,.06,5.46,39.93,39.93,0,0,1-.75,5.57,17.16,17.16,0,0,1-1.27,3.44c-.4.7-1,.67-1.24-.08a3,3,0,0,1,.15-2.41,10.47,10.47,0,0,0,1-2.67A34,34,0,0,0,51.37,35a18.12,18.12,0,0,0-.31-4.7C50.79,29.29,50.27,27.71,49.91,26.79Z"/><path class="cls-2" d="M55.55,22.75a4.67,4.67,0,0,1,.06-3.92c.58-.79,1.68.21,2.45,2.23a37.23,37.23,0,0,1,1.8,6.7,52.22,52.22,0,0,1,.1,8.09,57.77,57.77,0,0,1-1.12,8.24A25.16,25.16,0,0,1,57,49.17c-.6,1-1.43,1-1.86-.12a4.49,4.49,0,0,1,.22-3.56,15.35,15.35,0,0,0,1.57-4,48,48,0,0,0,.84-6.64,26.72,26.72,0,0,0-.46-7C56.86,26.45,56.09,24.12,55.55,22.75Z"/><path class="cls-3" d="M55.55,22.75a4.67,4.67,0,0,1,.06-3.92c.58-.79,1.68.21,2.45,2.23a37.23,37.23,0,0,1,1.8,6.7,52.22,52.22,0,0,1,.1,8.09,57.77,57.77,0,0,1-1.12,8.24A25.16,25.16,0,0,1,57,49.17c-.6,1-1.43,1-1.86-.12a4.49,4.49,0,0,1,.22-3.56,15.35,15.35,0,0,0,1.57-4,48,48,0,0,0,.84-6.64,26.72,26.72,0,0,0-.46-7C56.86,26.45,56.09,24.12,55.55,22.75Z"/></svg>
