<svg xmlns="http://www.w3.org/2000/svg" width="307.58" height="239.17" viewBox="0 0 307.58 239.17"><defs><style>.cls-1{fill:#ea591f;}.cls-2{fill:#eb5e28;}.cls-3{fill:#ee7444;}.cls-4{fill:#ec6632;}.cls-5{fill:#ef8257;}.cls-6{opacity:0.9;}.cls-7{fill:#442518;}.cls-8{opacity:0.4;}.cls-9{fill:#fff;}</style></defs><title>start_game_button_1</title><g id="final"><path class="cls-1" d="M298.28,118.42c0,47.92-40.92,88.63-97.9,103.46a185.1,185.1,0,0,1-31.33,5.33q-5.64.48-11.41.61c-1.62,0-3.25.07-4.88.07-1.87,0-3.73,0-5.59-.09C69.39,225.6,7.25,177.47,7.25,118.42,7.25,60.76,66.5,13.52,141.7,9.27Q147.18,9,152.76,9a193.43,193.43,0,0,1,21.72,1.22c.9.09,1.78.2,2.67.32a179.22,179.22,0,0,1,38.63,9.24C264.58,37.39,298.28,74.94,298.28,118.42Z"/><path class="cls-2" d="M250.89,113.08c0,43.08-19.47,81.84-50.51,108.8a185.1,185.1,0,0,1-31.33,5.33q-5.64.48-11.41.61c-1.62,0-3.25.07-4.88.07-1.87,0-3.73,0-5.59-.09C69.39,225.6,7.25,177.47,7.25,118.42,7.25,60.76,66.5,13.52,141.7,9.27Q147.18,9,152.76,9a193.43,193.43,0,0,1,21.72,1.22c.9.09,1.78.2,2.67.32a179.22,179.22,0,0,1,38.63,9.24C237.72,45.16,250.89,77.65,250.89,113.08Z"/><path class="cls-3" d="M205.5,107.07c0,47.89-18.47,91-47.86,120.75-1.62,0-3.25.07-4.88.07-1.87,0-3.73,0-5.59-.09C69.39,225.6,7.25,177.47,7.25,118.42,7.25,60.76,66.5,13.52,141.7,9.27Q147.18,9,152.76,9a193.43,193.43,0,0,1,21.72,1.22c.9.09,1.78.2,2.67.32q1.35,2,2.62,4.11h0A175.8,175.8,0,0,1,205.5,107.07Z"/><path class="cls-4" d="M210.84,117.09C210.84,171,193,216,169.05,227.21q-5.64.48-11.41.61c-1.62,0-3.25.07-4.88.07-1.87,0-3.73,0-5.59-.09C122.59,217.69,104,172,104,117.09c0-50.73,15.84-93.63,37.66-107.82l32.78.9a42.84,42.84,0,0,1,5.29,4.43h0C198.11,32.48,210.84,71.64,210.84,117.09Z"/><path class="cls-5" d="M73.31,210.14C33.52,190.61,7.25,156.82,7.25,118.42c0-34.27,20.93-64.85,53.69-84.92A184,184,0,0,0,44.39,96.68C40.89,139.82,52.21,180.05,73.31,210.14Z"/><g class="cls-6"><path class="cls-7" d="M101,89.31a37.77,37.77,0,0,1-1.64,7.16c-.57,2.24-1,3.93-1.21,5.08a21.06,21.06,0,0,1-1.46,3c-1,2.07-1.58,3.33-1.81,3.79a9,9,0,0,1-8.1,4.31,9.42,9.42,0,0,1-2.85-.43,6.82,6.82,0,0,1-3.44-2.59,6.74,6.74,0,0,1-1.38-4.05,5.72,5.72,0,0,1,.34-2,3.81,3.81,0,0,1,4-2.76,3.72,3.72,0,0,1,3.7,2.42,3.79,3.79,0,0,1,.35,2.41A2.89,2.89,0,0,1,84.35,108a1.9,1.9,0,0,1-1.72-1,1.62,1.62,0,0,1,1.55-2.33c.52.12.66.47.43,1s-.2,1-.08,1v-.18a1.77,1.77,0,0,0,.94-2.75c-.51-.92-.77-1.32-.77-1.21q-4.14-.09-4.14,3.53a4.48,4.48,0,0,0,2.5,4,9.61,9.61,0,0,0,4.91,1,4.43,4.43,0,0,1,1-.17c1.32-.87,2.28-1.53,2.89-2a8.7,8.7,0,0,0,2-2.58,12,12,0,0,0,1.33-3,11.29,11.29,0,0,0-.43-3.7,20.58,20.58,0,0,0-2.15-5.78,15.43,15.43,0,0,0-3-3.19c-.29-.23-1.46-1.09-3.53-2.58-2.36-1.73-3.74-2.7-4.14-2.93q-1.38-.69-2.76-1.47a6.62,6.62,0,0,1-2.37-2.11,8.93,8.93,0,0,1-.73-4.35,24.71,24.71,0,0,1,1-7.16c1.61-3.56,2.91-6.2,3.88-7.93a17.88,17.88,0,0,0,.86-2.06A4.24,4.24,0,0,1,83,58.2a33.14,33.14,0,0,0,6.2.52q3,.26,9.57.26a2.51,2.51,0,0,1,.77.21.47.47,0,0,1,.26.47c0,.58-.73,1.69-2.2,3.32A14.68,14.68,0,0,0,95.21,66c-.11.4-.2.61-.25.61a7.7,7.7,0,0,1-3.45-.09,14,14,0,0,0-5.43-.26c-.4.12-.61.23-.61.35q-1.89-.27-2.37.3a4.46,4.46,0,0,0-.47,2.54c0,.4.06.6.17.6.52,1.33,2.24,3,5.17,5L92.72,78Q101,83,101,89.31Zm-14.48-6.2L80,78.88l-2.24-2v1.9a3.75,3.75,0,0,0,.34,1.76A4.74,4.74,0,0,0,79.44,82a36.13,36.13,0,0,0,3.15,1.81,16.43,16.43,0,0,0,3.06,1.46Zm2.76,2.5c0-.69-.49-1.21-1.47-1.55A7.63,7.63,0,0,0,87,85.87,1.56,1.56,0,0,0,87.67,87a2.32,2.32,0,0,0,.82.56v-.17A3.53,3.53,0,0,0,89.27,85.61Zm7.84,11.72a18.3,18.3,0,0,0-2.37-6.21q-2-3.62-4.09-4.74A23.15,23.15,0,0,0,90,88.71a16.52,16.52,0,0,1,5.77,7.84,9.68,9.68,0,0,1,.86,3.28A5.56,5.56,0,0,0,97.11,97.33Z"/><path class="cls-7" d="M131.07,58.2c2.29,0,3.62.23,4,.69s-.54,2.41-2.67,5.69c-2.41,3.85-3.68,5.94-3.79,6.29a2.25,2.25,0,0,0,.26,2.5l.51.6h.43V73.8c.46-.29.69-.6.69-1h-1.29a5.78,5.78,0,0,1-.17-.69c0-.06-.06-.14-.17-.26H129a1.85,1.85,0,0,1,1.72-.86c1.27,0,1.84.6,1.73,1.81-.18,1.5-1.15,2.24-2.93,2.24a2.35,2.35,0,0,1-1.73-.6,3.29,3.29,0,0,1-1.2-2.41,7,7,0,0,1,1.29-3.45,35.48,35.48,0,0,0,1.81-3.11l-6.9.18h-.17c-.06.4-.11,1.12-.17,2.15a13.85,13.85,0,0,0-.17,2c0,.81.14,2,.25,3.62-.11,1.61-.14,4.06-.08,7.33q.09,8.28.6,22.24.26,3-6,9.22h-.17a40.77,40.77,0,0,1-.77-9.83q0,.09-.18-10.68c0-1.67,0-3.57-.17-5.69.06-1.78.06-5.12,0-10-.11-6.32-.36-9.64-.73-10s-1.48-.51-3.32-.57c-1.26,0-3,0-5.26.09l-3.87.09c0-.35.05-.52.17-.52q1.73-4.91,2.07-4.91a2.67,2.67,0,0,1,2.06-.61q5.86-.16,13.36-.51l3.54-.35c2.12-.17,3.42-.26,3.88-.26Z"/><path class="cls-7" d="M165.46,105.6a1.91,1.91,0,0,1,.68,1.21c-.11.4-.2.72-.25,1a7,7,0,0,0-1.25.13,8.3,8.3,0,0,1-1,.13l-2.5-.09a27.15,27.15,0,0,1-4,.52,2.39,2.39,0,0,1-1.64-.43,8.21,8.21,0,0,1,0-3.37c0-.45-.4-1.91-1-4.35a21.92,21.92,0,0,0-1.12-3.75,2.88,2.88,0,0,0-1-.17,26.89,26.89,0,0,0-5.18,1.21c-2.35.69-3.8,1.3-4.35,1.85a4.72,4.72,0,0,0-1.16,2.37c-.12.81-.26,1.64-.43,2.5-.58,3.28-.87,4.94-.87,5,0,2.47.87,4,2.59,4.65a.93.93,0,0,1,.3.26.69.69,0,0,1,.13.43h-.26v.17c-2.12-.23-3.19-.8-3.19-1.72h-.43v5h-.34a29.92,29.92,0,0,1-.86-3.45,4.59,4.59,0,0,1,0-1.29c.05-.63.08-1,.08-1.21-.29-.11-.43-.11-.43,0a9.17,9.17,0,0,1-2.24,1l-1.21-.26v-.17a4.46,4.46,0,0,0,2.5-1.56,23.32,23.32,0,0,0,1.81-4.74q1.38-5.85,1.73-8.1l.51-3h-.17l-4.22,2.24a8.56,8.56,0,0,0-.78-1.73l5.78-2.5q.6-6,1-9,1.22-12.33,1.64-21.37c0-.23.11-1.33.34-3.28.18-1.78.26-3.16.26-4.14a4.54,4.54,0,0,0-.43-2.41c-.29-.4-1.2-.6-2.76-.6q-4.74,0-5.25,1.46a3.16,3.16,0,0,0-.18,1,2.39,2.39,0,0,0,.69,1.68,2.08,2.08,0,0,0,1.55.73c.75,0,1.12-.46,1.12-1.38L138.52,56q-.39,0-.3-.9c.06-.58.17-.87.34-.87v.18c1.79-.23,2.68.43,2.68,2a3,3,0,0,1-.82,2,2.7,2.7,0,0,1-2.11.91A3.18,3.18,0,0,1,135.59,58a5.13,5.13,0,0,1-1-3.14q0-3.54,2.84-3.54c.87,0,1.5-.11,1.9-.17a15.32,15.32,0,0,1,4.22-.17,33.94,33.94,0,0,1,4,.74,12.58,12.58,0,0,1,3.62.9,6.17,6.17,0,0,1,.95,2.84c.17,1.1.34,2.16.51,3.2q1.38,5.86,1.9,7.85,2,8,2.84,12.09c1.79,5.81,3.13,10.19,4.05,13.12q2.16,8.46,3.19,12.78C164.65,104.53,164.94,104.91,165.46,105.6Zm-12.5-12c0-.74-.52-1.2-1.55-1.38a24.15,24.15,0,0,1-2.5.69q-2.94,1-4.48,1.55a4,4,0,0,0-1.3.61,3.45,3.45,0,0,0-.77,2.5h1q6.38-2.67,8.36-2.67a6,6,0,0,0,.95-.69A.87.87,0,0,0,153,93.62Zm-9.57-.6h.52q6.63-2.33,8.27-2.33a9.21,9.21,0,0,0-.51-2.84l-1.38-6.12q-1.56-8.53-2.24-12.84a58.89,58.89,0,0,0-1.81-8Q145.46,73.63,145,80,144,88.72,143.39,93Z"/><path class="cls-7" d="M198.38,103.53v.18q-5.77,6.63-7.93,6.63a1.32,1.32,0,0,1-1.12-.6,14.69,14.69,0,0,1-1.12-3.53q-.69-2.67-1.21-5.18c-.34-2.47-.72-4.94-1.12-7.41-.74-3.62-1.81-5.4-3.19-5.34a2.42,2.42,0,0,0-2.41,1.21q-.43.77.09,5.43.34,5.85.43,8.79c.17.63.31,1.26.43,1.89a3.61,3.61,0,0,1-.09,1.81,3.65,3.65,0,0,1-1.12.52,14.32,14.32,0,0,1-1.46.34l-3.45-.17c-2-.23-2.93-.8-2.93-1.72a7.56,7.56,0,0,0,1.64-3.45c.34-3.68.51-6.46.51-8.36q.09-5.08-.34-14.22-.09-4.65,0-7-.53-7.34-.86-12.84c-.18-2.19-.35-3.28-.52-3.28a4.41,4.41,0,0,0-2.59-.09c-1.09.18-1.72.61-1.89,1.3a2.57,2.57,0,0,0,.08,1.12,7.23,7.23,0,0,1,.18,1.12,2.21,2.21,0,0,0,.94,0,7.7,7.7,0,0,1,.78-.13V60.1a1.86,1.86,0,0,1-.78-1.3h.18v-.17c1.49.23,2.24.86,2.24,1.9q0,1.89-2.76,1.89a2.67,2.67,0,0,1-1.47-.34,3.7,3.7,0,0,1-1.2-3.19q0-3.36,4.13-3.36a17.26,17.26,0,0,1,3.45-.78,33.3,33.3,0,0,1,5.35.6,27,27,0,0,0,5.94.35c3.57-.46,5.23-.69,5-.69,1.61.12,2.79,1.72,3.53,4.83q.43,2.67.87,5.25c.34,3.45.51,5.23.51,5.35a11.28,11.28,0,0,1-1.29,5.43,20,20,0,0,1-2.93,4.65c-1,.92-1.75,1.61-2.33,2.07a1.93,1.93,0,0,0,.43,1.47q.69,1.2.78,1.29,1,4.05,1.55,6,1.38,3.7,2.16,5.52l1.38,4A19,19,0,0,0,197.6,103C198.24,103.36,198.49,103.53,198.38,103.53ZM188.3,67.25a11.88,11.88,0,0,0,.25-2.93,7.36,7.36,0,0,0-.76-3.23,5.34,5.34,0,0,0-3-2.11,33,33,0,0,0-3.75-.95c-.12,1.95-.17,3.42-.17,4.39l-.6,4.23v3.44q-.34,3.19-.6,4.74c0,.69,0,1.58.08,2.68.12,1.32.17,2.15.17,2.49l-.25,7.68h.51V87.5a16.24,16.24,0,0,0,4-3.06,11.87,11.87,0,0,0,3-3.92,22.08,22.08,0,0,0,.34-3.19c.17-1.38.29-2.41.34-3.1q.09-4,.09-4.14A19.6,19.6,0,0,1,188.3,67.25Z"/><path class="cls-7" d="M226.65,58.2q3.45,0,4,.69c.35.52-.54,2.41-2.67,5.69-2.41,3.85-3.68,5.94-3.79,6.29a2.25,2.25,0,0,0,.26,2.5l.51.6h.44V73.8c.45-.29.69-.6.69-1h-1.3a5.78,5.78,0,0,1-.17-.69c0-.06-.06-.14-.17-.26h.17A1.85,1.85,0,0,1,226.3,71c1.27,0,1.84.6,1.73,1.81-.18,1.5-1.15,2.24-2.93,2.24a2.35,2.35,0,0,1-1.73-.6,3.29,3.29,0,0,1-1.2-2.41,7,7,0,0,1,1.29-3.45,35.48,35.48,0,0,0,1.81-3.11l-6.9.18h-.17c-.06.4-.11,1.12-.17,2.15a13.85,13.85,0,0,0-.17,2c0,.81.14,2,.26,3.62-.12,1.61-.15,4.06-.09,7.33q.09,8.28.6,22.24c.18,2-1.81,5.08-5.94,9.22h-.18a40.77,40.77,0,0,1-.77-9.83q0,.09-.17-10.68c0-1.67-.06-3.57-.18-5.69.06-1.78.06-5.12,0-10-.11-6.32-.36-9.64-.73-10s-1.48-.51-3.32-.57c-1.26,0-3,0-5.26.09l-3.87.09c0-.35,0-.52.17-.52q1.73-4.91,2.07-4.91a2.69,2.69,0,0,1,2.07-.61c3.9-.11,8.36-.28,13.35-.51l3.54-.35c2.12-.17,3.42-.26,3.88-.26Z"/></g><path class="cls-7" d="M119.65,184a4.77,4.77,0,0,1-.3,2.41c-.26.46-.48.69-.65.69-.34,0-1.15-1.29-2.41-3.88s-2.47-4-3.62-4.3a2.55,2.55,0,0,0-1.29.25c-.58.23-.95.38-1.13.44-2.64.28-4.68.43-6.11.43a12.09,12.09,0,0,1-6.21-1.3,24.46,24.46,0,0,1-2.84-3.62A30.63,30.63,0,0,1,92,168.26c-.4-1.32-.72-2.3-1-2.93-.11-4.48-.14-8.31-.08-11.47a42.84,42.84,0,0,0,.6-6.46q2-9.14,3.19-13.62a11.45,11.45,0,0,1,7.93-6.89c.17-.06,1.58-.09,4.22-.09a24.05,24.05,0,0,1,4.92.26q1.64.25,3.27.6c1.49.41,2.21,1,2.16,1.73a10,10,0,0,1-2.07,3.27l-.69,1.9a2.4,2.4,0,0,1-1.3,1.46,1.92,1.92,0,0,1-1.68-.34l-1.85-1.12a7,7,0,0,0-4.31-.86,1.45,1.45,0,0,0-1.29,1.12c-.23,2.24-.35,3.93-.35,5.08q-.17,2.67.26,15.08.09,3.38.52,11,.34,5.52.43,6.12a28.43,28.43,0,0,0,.09,3.19c0,.57,0,.86.08.86,1.32,1.21,2.47,1.75,3.45,1.64.06,0,.55-.12,1.47-.35a1.9,1.9,0,0,0,1.12-.69,4,4,0,0,0,.34-2.49c-.17-1.56-.26-2.42-.26-2.59q.6-11,.61-14.48a34.12,34.12,0,0,0-3.54.09,1.81,1.81,0,0,0-1.72,2.15c.11.92.52,1.38,1.21,1.38v-1.38c.4-.11.6-.23.6-.34a1.77,1.77,0,0,1,.86,1.63c0,.92-.58,1.38-1.72,1.38a2.49,2.49,0,0,1-2.37-1.12,3.93,3.93,0,0,1-.39-2.67,3.14,3.14,0,0,1,3-2.93h5q2.76-.09,4.23-.09V155c1.78,0,2.67.29,2.67,1a9.55,9.55,0,0,0-1,4.48c.12,1.61.21,3.22.26,4.83l-.17,3.44q.43,3.79.69,5.61c0-.12,0,1-.09,3.19a11.71,11.71,0,0,0,0,1.89,17.48,17.48,0,0,1,.18,2A17.66,17.66,0,0,1,119.65,184Zm-22-34.13a5.38,5.38,0,0,0,2.41.52l1.73-.52a19.87,19.87,0,0,0,.26-4.65c0-.18.11-1.15.34-2.94a36,36,0,0,0,.26-3.7,5.07,5.07,0,0,0-.6-2.93c-.75.92-1.3,1.58-1.64,2a43,43,0,0,0-1.38,4.48,37.21,37.21,0,0,0-1.38,5.78Q97.32,149.9,97.67,149.9Zm4.48,3.28c0-.75-.49-1.3-1.46-1.64a10.35,10.35,0,0,1-3,.26,3.57,3.57,0,0,0,.39,1.94c.26.37.87.56,1.85.56a7.94,7.94,0,0,1,1.9-.26A1.39,1.39,0,0,0,102.15,153.18Zm1.12,19.56c0-.8-.14-1.61-.25-2.41v-3.8c-.24-2.58-.44-4.51-.61-5.77,0-.17.06-.95.17-2.33a5.89,5.89,0,0,0-.17-2.15,1.23,1.23,0,0,0-1-.65c-.46-.08-.92-.16-1.38-.21a11.31,11.31,0,0,0-2.24.34h-.17a35.18,35.18,0,0,0,1.21,9.4c.46,1.37.8,2.41,1,3.1l.43,2.41,1.12,2.5,1,1c.4.4.61.72.61.95h.17A6.06,6.06,0,0,0,103.27,172.74Z"/><path class="cls-7" d="M150.94,177.3a2,2,0,0,1,.69,1.21c-.12.41-.21.72-.26,1a7.92,7.92,0,0,0-1.25.13,6.57,6.57,0,0,1-1,.13l-2.5-.08c-.18.05-.75.15-1.73.3a17.08,17.08,0,0,1-2.24.21,2.34,2.34,0,0,1-1.64-.43,8.16,8.16,0,0,1,0-3.36c-.05-.46-.4-1.91-1-4.35a21.92,21.92,0,0,0-1.12-3.75,2.7,2.7,0,0,0-1-.17,27.33,27.33,0,0,0-5.17,1.2q-3.53,1-4.35,1.85a4.71,4.71,0,0,0-1.16,2.38c-.12.8-.26,1.63-.43,2.5-.58,3.27-.87,4.94-.87,5,0,2.47.87,4,2.59,4.66a.82.82,0,0,1,.3.26.65.65,0,0,1,.13.43h-.26v.17c-2.12-.23-3.19-.8-3.19-1.72H125v5h-.34a29.92,29.92,0,0,1-.86-3.45,4.67,4.67,0,0,1,0-1.3c0-.63.08-1,.08-1.2-.29-.12-.43-.12-.43,0a8.93,8.93,0,0,1-2.24,1l-1.21-.26v-.17a4.45,4.45,0,0,0,2.5-1.55,23.77,23.77,0,0,0,1.81-4.74q1.38-5.86,1.73-8.1l.51-3h-.17l-4.22,2.24a8.16,8.16,0,0,0-.78-1.72l5.78-2.5q.6-6,1-9,1.22-12.33,1.64-21.38c0-.23.11-1.32.34-3.27.18-1.78.26-3.16.26-4.14a4.51,4.51,0,0,0-.43-2.41c-.29-.41-1.21-.61-2.76-.61q-4.74,0-5.25,1.47a3.1,3.1,0,0,0-.18,1,2.39,2.39,0,0,0,.69,1.68,2.08,2.08,0,0,0,1.55.73c.75,0,1.12-.45,1.12-1.37l-1.16-.13c-.26,0-.36-.33-.3-.91s.17-.86.34-.86v.17c1.78-.23,2.68.43,2.68,2a3,3,0,0,1-.82,2,2.73,2.73,0,0,1-2.11.9,3.2,3.2,0,0,1-2.72-1.33,5.14,5.14,0,0,1-1-3.15q0-3.53,2.84-3.53c.87-.06,1.5-.12,1.9-.17a15.23,15.23,0,0,1,4.22-.18,36.31,36.31,0,0,1,4,.74,12.58,12.58,0,0,1,3.62.9,6.18,6.18,0,0,1,1,2.85c.17,1.09.34,2.16.51,3.19q1.38,5.88,1.9,7.86,2,8,2.84,12.08,2.67,8.73,4.06,13.13,2.15,8.46,3.18,12.77C150.13,176.24,150.42,176.61,150.94,177.3Zm-12.5-12c0-.75-.52-1.21-1.55-1.38-1.1.34-1.93.57-2.5.69q-2.94,1-4.48,1.55a3.93,3.93,0,0,0-1.3.6,3.46,3.46,0,0,0-.77,2.5h1q6.38-2.67,8.36-2.67a6,6,0,0,0,1-.69A.83.83,0,0,0,138.44,165.33Zm-9.57-.61h.52q6.63-2.33,8.27-2.32a9.11,9.11,0,0,0-.52-2.85c-.68-3-1.15-5.08-1.37-6.12q-1.56-8.52-2.25-12.84a57.6,57.6,0,0,0-1.8-8q-.78,12.75-1.21,19.13Q129.48,160.41,128.87,164.72Z"/><path class="cls-7" d="M153.86,125.68q.69.43,4.31,6.29c.35.46.84,1.21,1.47,2.24q1.63,5.43,4,12.33,1.47,4.65,3.62,10.69c.81,1.84,2,4.59,3.62,8.27l1,3.45c.17.57.43,1.46.77,2.67.12,0,.18.06.18.17H173q1.29-5.34,3.36-16.29-.09-1.73,0-5.34c.11-.92.26-2.33.43-4.23,0-.91,0-2.29.09-4.13a22.73,22.73,0,0,1,1.12-5q.6-2.76,1.29-5.52,1.29-4.22,2.33-4.22a1.06,1.06,0,0,1,.86.43l.6,2a51.76,51.76,0,0,1,1.81,7.16q1,6.12,2.24,18.35v6.47c0,.34,0,1.61.12,3.79,0,1.84.06,2.93.06,3.28v4.65c.46,4.83.31,7.24-.43,7.24l-2.46-.26c.39.17-.43.26-2.47.26q-.76-1.72-.85-8.4v-7.62q0-1.21-.09-3.81c-.17-1-.34-2.45-.51-4.42q-.09-2-.26-6c-.23-.87-.56-2.22-1-4.07s-.65-2.71-.65-2.6h-.26q-.17,2.32-.69,7.07c.06,1.21,0,3-.08,5.52-.06.17-.67,3.18-1.83,9-.4,2.35-.84,4.71-1.3,7.06a24.85,24.85,0,0,1-2.34,6.55q-.27.53-.66,1.17a1.37,1.37,0,0,1-.91.73c-.63.06-1.42-1.26-2.34-4q-.87-2.58-1.74-5.08a130.17,130.17,0,0,1-4.51-12.33q-3.48-10.93-4.08-12.49a33.49,33.49,0,0,0-2.61-5.26,7.76,7.76,0,0,1-.95-1.9h-.18a73,73,0,0,0,.43,10.52q.27,2.24-.43,13.79a44.44,44.44,0,0,0,.73,5.77c0,.18.28,2.27.82,6.3v4.65c.23.69,1.3,1,3.19,1v-.17H159v.17h.17v.61l-1.21.77a6.4,6.4,0,0,1-1.46.17c-.58,0-.92.38-1,1.13-.06.4-.14.86-.26,1.37-.11,0-.17.06-.17.18a1.58,1.58,0,0,1-.86-1.17,15.46,15.46,0,0,1-.26-1.59,4.6,4.6,0,0,0-.26-.61c-.11-.22-.17-.25-.17-.08l-1.9.6A1.48,1.48,0,0,1,151,182c1.9-.63,2.84-2.47,2.84-5.51a35,35,0,0,0-.34-4.31c-.29-2.07-.46-3.28-.52-3.62q.18-9.41,0-21.64l-.08-4.74c-.18-1.38-.41-3.41-.69-6.12q0-2,.08-5.94a20.77,20.77,0,0,1-.08-3.11C152.34,126.57,152.89,126.14,153.86,125.68Z"/><path class="cls-7" d="M212.56,176.7a6.51,6.51,0,0,1-3.19,2.42l-4.05.52c-2.93.68-4.45,1-4.57,1q-3.36,0-6.64-3.19a15.19,15.19,0,0,1-4-6.38,31.54,31.54,0,0,1-.6-5.08,60.67,60.67,0,0,1-.43-11.21q.25-3.18.51-4.74.27-.94,1.9-7c.23-1.09.46-2.15.69-3.19a12.41,12.41,0,0,1,1-3.1c.92-1.61,1.65-2.86,2.2-3.75s1-1.59,1.25-2.11a9,9,0,0,1,6-4.14c.18,0,1.58.07,4.23.22s4.28.24,4.91.3c1.26-.46,2.21-.78,2.84-.95.87.29,1.3.72,1.3,1.29a5.44,5.44,0,0,1-1.38,2.33c-.52.81-1,1.58-1.55,2.33a3.11,3.11,0,0,1-2.33,1.38,6.24,6.24,0,0,1-2-.48,13.81,13.81,0,0,0-1.81-.56,6.74,6.74,0,0,0-4.4.78c-.69.52-1.21.92-1.55,1.2a8,8,0,0,1-.78,1,27.16,27.16,0,0,0-2.24,9.14l-.6,3.7a33.68,33.68,0,0,0-.52,4.57c0,.92.18,1.41.52,1.47a27.8,27.8,0,0,1,1.55-3.36l1.21-1.73a8.58,8.58,0,0,1,1.72.09l2.5-.35a35.1,35.1,0,0,1,4.31-.34c1.78,0,2.64.31,2.59.93-.12.07-.18.13-.18.19h.18a16.5,16.5,0,0,0-2.55,3A8.4,8.4,0,0,0,207,156a27.15,27.15,0,0,0-3-.09,9.23,9.23,0,0,0-2.76.18,2.44,2.44,0,0,0-.6,1.63q-.09,1.13-.09,2.16-.26,3,.43,17.32a3.29,3.29,0,0,0,.86,1.21c.17.17.58.23,1.21.17,1.26-.29,2.21-.52,2.84-.69l2.16-.34a5.31,5.31,0,0,0,2.07-.61A4.62,4.62,0,0,0,212.3,174a1.45,1.45,0,0,0-.39-1.42,1.74,1.74,0,0,0-1.25-.56,1.35,1.35,0,0,0-1.38,1c-.23.66-.25,1-.08,1a5.21,5.21,0,0,0,1.29.78l-.09.52a5.63,5.63,0,0,1-1.72.17,2,2,0,0,1-1.38-2.16,3,3,0,0,1,.69-2.07,3.65,3.65,0,0,1,2.67-1q3.28,0,3.36,2.84A6,6,0,0,1,212.56,176.7Zm-13.79-13.18a4.07,4.07,0,0,0-.17-1.81c-.52.23-1.07.46-1.64.69-.23.17-.43.77-.6,1.81A13.71,13.71,0,0,1,198.77,163.52Zm-2.33-4.66c-.06,1.21.26,1.87.95,2,.69-.06,1.21-.12,1.55-.18a25,25,0,0,0,0-5.08c-1,.34-1.69.57-2.15.69C196.67,157.14,196.56,158,196.44,158.86Zm3,16.29c-.4-2.93-.61-4.62-.61-5.08-.11-2.42-.17-4.22-.17-5.43a13.73,13.73,0,0,0-1.38.6,1.17,1.17,0,0,0-.69,1.12,21.82,21.82,0,0,0,1.81,6.72l.87,2.07Z"/><g class="cls-8"><path class="cls-9" d="M74.64,43.47c-.77-1.61-5.28-1.75-10-.32L55.29,46a36.48,36.48,0,0,0-14.48,9.43l-2.69,3.13a38.29,38.29,0,0,0-7.39,15.69L28.91,85c-.84,4.88,1,9.07,4,9.32s6-3.57,6.69-8.48l.49-3.73a35.75,35.75,0,0,1,7.06-15.75l2.69-3.13a52.64,52.64,0,0,1,14-10.78l4.19-2C72.41,48.18,75.42,45.08,74.64,43.47Z"/></g></g></svg>