<svg xmlns="http://www.w3.org/2000/svg" width="295" height="220" viewBox="0 0 295 220"><defs><style>.cls-1{fill:#ea591f;}.cls-2{fill:#eb5e28;}.cls-3{fill:#ee7444;}.cls-4{fill:#ec6632;}.cls-5{fill:#ef8257;}.cls-6{opacity:0.9;}.cls-7{fill:#442518;}.cls-8{opacity:0.4;}.cls-9{fill:#fff;}</style></defs><title>start_game_button</title><g id="final"><path class="cls-1" d="M292.18,109.85c0,47.86-40.92,88.53-97.9,103.34A184.93,184.93,0,0,1,163,218.52q-5.64.48-11.41.61c-1.62,0-3.25.07-4.88.07-1.86,0-3.73,0-5.59-.1C63.29,216.9,1.15,168.83,1.15,109.85,1.15,52.25,60.4,5.06,135.6.82,139.26.61,142.94.5,146.66.5a193.76,193.76,0,0,1,21.73,1.21c.89.1,1.77.2,2.67.32a179.85,179.85,0,0,1,38.62,9.23C258.48,28.9,292.18,66.42,292.18,109.85Z"/><path class="cls-2" d="M244.79,104.51c0,43-19.47,81.75-50.51,108.68A184.93,184.93,0,0,1,163,218.52q-5.64.48-11.41.61c-1.62,0-3.25.07-4.88.07-1.86,0-3.73,0-5.59-.1C63.29,216.9,1.15,168.83,1.15,109.85,1.15,52.25,60.4,5.06,135.6.82,139.26.61,142.94.5,146.66.5a193.76,193.76,0,0,1,21.73,1.21c.89.1,1.77.2,2.67.32a179.85,179.85,0,0,1,38.62,9.23C231.62,36.66,244.79,69.12,244.79,104.51Z"/><path class="cls-3" d="M199.4,98.51c0,47.84-18.47,90.86-47.86,120.62-1.62,0-3.25.07-4.88.07-1.86,0-3.73,0-5.59-.1C63.29,216.9,1.15,168.83,1.15,109.85,1.15,52.25,60.4,5.06,135.6.82,139.26.61,142.94.5,146.66.5a193.76,193.76,0,0,1,21.73,1.21c.89.1,1.77.2,2.67.32q1.33,2,2.61,4.11h0C189.91,32.38,199.4,64.22,199.4,98.51Z"/><path class="cls-4" d="M204.74,108.51c0,53.82-17.88,98.82-41.79,110q-5.64.48-11.41.61c-1.62,0-3.25.07-4.88.07-1.86,0-3.73,0-5.59-.1C116.49,209,97.94,163.33,97.94,108.51,97.94,57.84,113.78,15,135.6.82l32.79.89a43.52,43.52,0,0,1,5.28,4.43h0C192,24,204.74,63.12,204.74,108.51Z"/><path class="cls-5" d="M67.21,201.46C27.42,182,1.15,148.2,1.15,109.85,1.15,75.62,22.08,45.07,54.84,25a183.65,183.65,0,0,0-16.55,63.1C34.79,131.22,46.11,171.4,67.21,201.46Z"/><g class="cls-6"><path class="cls-7" d="M94.89,80.77a37.57,37.57,0,0,1-1.64,7.15c-.57,2.24-1,3.93-1.2,5.08a22.34,22.34,0,0,1-1.47,3c-1,2.07-1.58,3.33-1.81,3.79a9,9,0,0,1-8.1,4.3,9.31,9.31,0,0,1-2.84-.43,6.92,6.92,0,0,1-3.45-2.58A6.74,6.74,0,0,1,73,97a5.72,5.72,0,0,1,.34-2,3.82,3.82,0,0,1,4-2.75,4.19,4.19,0,0,1,4,4.82,2.88,2.88,0,0,1-3.1,2.32,1.89,1.89,0,0,1-1.73-1,1.44,1.44,0,0,1,.26-1.81,1.41,1.41,0,0,1,1.29-.51c.52.11.66.46.43,1s-.2,1-.08,1V97.9a1.78,1.78,0,0,0,.95-2.75c-.52-.92-.78-1.32-.78-1.21-2.76,0-4.14,1.12-4.14,3.53a4.52,4.52,0,0,0,2.5,4,9.64,9.64,0,0,0,4.92,1,4.87,4.87,0,0,1,1-.17c1.32-.86,2.28-1.52,2.89-2a8.83,8.83,0,0,0,2-2.58,12.44,12.44,0,0,0,1.34-3,11.41,11.41,0,0,0-.44-3.7,20.62,20.62,0,0,0-2.15-5.77,15.41,15.41,0,0,0-3-3.18c-.29-.23-1.46-1.09-3.53-2.58-2.36-1.73-3.74-2.7-4.14-2.93q-1.38-.69-2.76-1.47a6.7,6.7,0,0,1-2.37-2.1A9.06,9.06,0,0,1,70,68.72a24.32,24.32,0,0,1,1-7.15c1.6-3.56,2.9-6.2,3.87-7.92a19.71,19.71,0,0,0,.87-2.07,4.16,4.16,0,0,1,1.12-1.89,33.14,33.14,0,0,0,6.2.52q3,.26,9.57.26a2.51,2.51,0,0,1,.77.21.48.48,0,0,1,.26.47c0,.58-.73,1.68-2.19,3.32a13.69,13.69,0,0,0-2.37,3.06c-.12.4-.21.6-.26.6A7.7,7.7,0,0,1,85.41,58,14.17,14.17,0,0,0,80,57.78c-.4.12-.6.23-.6.35q-1.91-.26-2.37.3A4.35,4.35,0,0,0,76.53,61c0,.4.06.6.17.6q.78,2,5.18,5l4.74,2.92Q94.89,74.48,94.89,80.77Zm-14.48-6.2-6.55-4.22-2.24-2v1.9A3.77,3.77,0,0,0,72,72a4.72,4.72,0,0,0,1.38,1.42,33.45,33.45,0,0,0,3.15,1.81,15.69,15.69,0,0,0,3.06,1.46Zm2.76,2.5c0-.69-.49-1.21-1.47-1.55a8.37,8.37,0,0,0-.77,1.81,1.56,1.56,0,0,0,.64,1.16,2.32,2.32,0,0,0,.82.56v-.17A3.53,3.53,0,0,0,83.17,77.07ZM91,88.78a18.26,18.26,0,0,0-2.37-6.2q-2-3.61-4.09-4.74a23.15,23.15,0,0,0-.69,2.33A16.43,16.43,0,0,1,89.63,88a9.7,9.7,0,0,1,.86,3.27A5.37,5.37,0,0,0,91,88.78Z"/><path class="cls-7" d="M125,49.69q3.45,0,4,.69t-2.67,5.68c-2.41,3.85-3.68,5.94-3.79,6.29a2.23,2.23,0,0,0,.26,2.49l.52.61h.43v-.18a1.17,1.17,0,0,0,.69-.94h-1.3c0-.18-.11-.4-.17-.69,0-.06-.06-.14-.17-.26h.17a1.86,1.86,0,0,1,1.72-.86c1.27,0,1.84.6,1.73,1.81-.17,1.49-1.15,2.24-2.93,2.24a2.33,2.33,0,0,1-1.73-.61,3.27,3.27,0,0,1-1.2-2.41,7,7,0,0,1,1.29-3.44c1-1.67,1.64-2.7,1.81-3.1l-6.89.17h-.18c-.06.4-.11,1.12-.17,2.15a13.85,13.85,0,0,0-.17,2c0,.81.14,2,.26,3.62q-.18,2.41-.09,7.32.09,8.27.6,22.21c.18,2-1.81,5.08-5.94,9.21h-.18a40.64,40.64,0,0,1-.77-9.81q0,.09-.17-10.68c0-1.66-.06-3.56-.18-5.68q.09-2.67,0-10c-.11-6.31-.36-9.63-.73-9.94s-1.48-.5-3.32-.56c-1.26,0-3,0-5.25.08l-3.88.09c0-.34,0-.51.17-.51,1.15-3.28,1.84-4.91,2.07-4.91a2.69,2.69,0,0,1,2.07-.61q5.85-.16,13.36-.51l3.53-.35c2.12-.17,3.42-.25,3.88-.25Z"/><path class="cls-7" d="M159.36,97a1.89,1.89,0,0,1,.69,1.21c-.12.4-.21.71-.26.94a8,8,0,0,0-1.25.13,6.57,6.57,0,0,1-1,.13l-2.5-.08c-.17,0-.75.16-1.73.3a16.94,16.94,0,0,1-2.24.21,2.29,2.29,0,0,1-1.63-.43,8.11,8.11,0,0,1,0-3.35c-.06-.46-.41-1.91-1-4.35A20.85,20.85,0,0,0,147.29,88a2.88,2.88,0,0,0-1-.17A26.69,26.69,0,0,0,141.09,89q-3.54,1-4.36,1.85a4.72,4.72,0,0,0-1.16,2.36c-.12.81-.26,1.64-.43,2.5-.58,3.27-.86,4.94-.86,5q0,3.7,2.58,4.65a.83.83,0,0,1,.3.26.69.69,0,0,1,.13.43H137v.17c-2.12-.23-3.18-.8-3.18-1.72h-.43v5h-.35a32.62,32.62,0,0,1-.86-3.45,4.59,4.59,0,0,1,0-1.29c0-.63.08-1,.08-1.21-.28-.11-.43-.11-.43,0a9.17,9.17,0,0,1-2.24,1l-1.2-.26v-.17a4.54,4.54,0,0,0,2.5-1.55,24.42,24.42,0,0,0,1.81-4.74c.91-3.9,1.49-6.6,1.72-8.09l.52-3h-.18L130.57,89a8.56,8.56,0,0,0-.78-1.73l5.78-2.49c.4-4,.75-7,1-9q1.22-12.3,1.64-21.35c0-.23.12-1.32.35-3.27.17-1.78.25-3.16.25-4.13a4.51,4.51,0,0,0-.43-2.41c-.29-.4-1.2-.61-2.75-.61-3.16,0-4.92.49-5.26,1.47a3.09,3.09,0,0,0-.17,1,2.39,2.39,0,0,0,.69,1.68,2.05,2.05,0,0,0,1.55.73c.74,0,1.12-.46,1.12-1.38l-1.17-.12c-.25,0-.36-.33-.3-.91s.17-.86.35-.86v.17q2.67-.34,2.67,2a2.94,2.94,0,0,1-.82,2,2.73,2.73,0,0,1-2.11.9,3.2,3.2,0,0,1-2.72-1.33,5.14,5.14,0,0,1-1-3.15q0-3.53,2.85-3.53c.86,0,1.49-.11,1.89-.17a15,15,0,0,1,4.23-.17,33.52,33.52,0,0,1,4,.74,13.16,13.16,0,0,1,3.62.89,6.22,6.22,0,0,1,.95,2.85c.17,1.09.34,2.16.52,3.19.91,3.91,1.55,6.53,1.89,7.85q2,8,2.85,12.07c1.78,5.81,3.13,10.17,4.05,13.11q2.15,8.45,3.19,12.76C158.55,96,158.84,96.35,159.36,97Zm-12.5-12c0-.75-.52-1.21-1.55-1.38-1.09.34-1.93.57-2.5.69-1.95.69-3.45,1.2-4.48,1.55a4,4,0,0,0-1.3.6,3.46,3.46,0,0,0-.77,2.5h1q6.38-2.67,8.36-2.67a6,6,0,0,0,.95-.69A.83.83,0,0,0,146.86,85.08Zm-9.57-.61h.52q6.63-2.32,8.27-2.32a9.21,9.21,0,0,0-.51-2.84q-1-4.56-1.38-6.12-1.56-8.52-2.24-12.82a59,59,0,0,0-1.81-8q-.78,12.75-1.21,19.11Q137.9,80.17,137.29,84.47Z"/><path class="cls-7" d="M192.28,95v.17q-5.78,6.63-7.93,6.63a1.31,1.31,0,0,1-1.12-.61,14.56,14.56,0,0,1-1.12-3.53c-.46-1.77-.86-3.5-1.21-5.16-.34-2.47-.72-4.94-1.12-7.4-.74-3.62-1.81-5.4-3.19-5.34a2.43,2.43,0,0,0-2.41,1.2q-.44.78.09,5.43.34,5.85.43,8.78c.17.63.31,1.26.43,1.89a3.61,3.61,0,0,1-.09,1.81,3.65,3.65,0,0,1-1.12.52c-.63.17-1.12.28-1.46.34L169,99.54c-1.95-.23-2.93-.8-2.93-1.72a7.46,7.46,0,0,0,1.64-3.45q.51-5.5.51-8.35.09-5.07-.34-14.2-.09-4.65,0-7Q167.37,57.54,167,52c-.17-2.19-.35-3.28-.52-3.28a4.41,4.41,0,0,0-2.59-.08q-1.63.26-1.89,1.29a2.57,2.57,0,0,0,.08,1.12,7.23,7.23,0,0,1,.18,1.12,2.15,2.15,0,0,0,1,0L164,52v-.44a1.81,1.81,0,0,1-.77-1.29h.17v-.17c1.49.23,2.24.86,2.24,1.9q0,1.89-2.76,1.89a2.75,2.75,0,0,1-1.47-.34,3.7,3.7,0,0,1-1.2-3.19q0-3.36,4.14-3.36a16.88,16.88,0,0,1,3.44-.77,33.3,33.3,0,0,1,5.35.6,27.11,27.11,0,0,0,5.94.34c3.57-.45,5.23-.68,5-.68q2.41.16,3.54,4.82.42,2.67.86,5.25c.34,3.44.52,5.22.52,5.34a11.36,11.36,0,0,1-1.3,5.42A20,20,0,0,1,184.78,72c-1,.92-1.75,1.61-2.32,2.07a1.82,1.82,0,0,0,.43,1.46c.46.8.71,1.23.77,1.29q1,4.05,1.55,6c.92,2.47,1.64,4.3,2.16,5.51.63,1.83,1.09,3.18,1.38,4a17.62,17.62,0,0,0,2.75,2.07C192.14,94.8,192.4,95,192.28,95ZM182.2,58.73a11.93,11.93,0,0,0,.26-2.93,7.44,7.44,0,0,0-.77-3.22,5.34,5.34,0,0,0-3-2.11,33,33,0,0,0-3.75-.95c-.12,1.95-.17,3.41-.17,4.39l-.6,4.22v3.44c-.23,2.13-.43,3.7-.6,4.74,0,.69,0,1.58.08,2.67q.18,2,.18,2.49l-.26,7.66h.51V79a16.22,16.22,0,0,0,4-3,11.87,11.87,0,0,0,3-3.92,22.08,22.08,0,0,0,.34-3.19c.17-1.37.29-2.41.35-3.1,0-2.63.08-4,.08-4.13A21.2,21.2,0,0,1,182.2,58.73Z"/><path class="cls-7" d="M220.55,49.69q3.45,0,4,.69t-2.67,5.68c-2.41,3.85-3.67,5.94-3.79,6.29a2.23,2.23,0,0,0,.26,2.49l.52.61h.43v-.18a1.17,1.17,0,0,0,.69-.94h-1.3c-.05-.18-.11-.4-.17-.69,0-.06-.06-.14-.17-.26h.17a1.87,1.87,0,0,1,1.73-.86c1.26,0,1.83.6,1.72,1.81-.17,1.49-1.15,2.24-2.93,2.24a2.29,2.29,0,0,1-1.72-.61,3.25,3.25,0,0,1-1.21-2.41,7,7,0,0,1,1.29-3.44,34.75,34.75,0,0,0,1.81-3.1l-6.89.17h-.18c0,.4-.11,1.12-.17,2.15a15.49,15.49,0,0,0-.17,2c.06.81.14,2,.26,3.62q-.18,2.41-.09,7.32.09,8.27.61,22.21.26,3-5.95,9.21h-.17a40,40,0,0,1-.78-9.81q0,.09-.17-10.68c0-1.66-.06-3.56-.18-5.68q.09-2.67,0-10c-.11-6.31-.35-9.63-.73-9.94s-1.48-.5-3.32-.56c-1.26,0-3,0-5.25.08l-3.88.09c0-.34.06-.51.17-.51,1.15-3.28,1.84-4.91,2.07-4.91a2.69,2.69,0,0,1,2.07-.61q5.85-.16,13.36-.51l3.53-.35c2.13-.17,3.42-.25,3.88-.25Z"/></g><path class="cls-7" d="M113.55,175.38a4.77,4.77,0,0,1-.3,2.41c-.26.46-.48.69-.65.69-.34,0-1.15-1.29-2.41-3.87s-2.47-4-3.62-4.31a2.58,2.58,0,0,0-1.29.26c-.58.23-1,.38-1.12.43a60.2,60.2,0,0,1-6.12.43,12.21,12.21,0,0,1-6.21-1.29A25,25,0,0,1,89,166.52a30.63,30.63,0,0,1-3.11-6.89c-.4-1.32-.71-2.3-.94-2.93-.12-4.48-.15-8.29-.09-11.45a41.46,41.46,0,0,0,.6-6.46q2-9.12,3.19-13.6a11.45,11.45,0,0,1,7.93-6.89c.17,0,1.58-.08,4.22-.08a23.27,23.27,0,0,1,4.92.26q1.64.26,3.27.6c1.5.4,2.21,1,2.16,1.72a10,10,0,0,1-2.07,3.27l-.69,1.9a2.41,2.41,0,0,1-1.29,1.46,1.93,1.93,0,0,1-1.68-.35L103.55,126a7,7,0,0,0-4.31-.86A1.45,1.45,0,0,0,98,126.22c-.23,2.24-.34,3.94-.34,5.08q-.18,2.67.25,15.07.09,3.36.52,10.93.34,5.52.43,6.12a28.19,28.19,0,0,0,.09,3.18c0,.58,0,.86.08.86,1.33,1.21,2.47,1.75,3.45,1.64.06,0,.55-.12,1.47-.35a1.91,1.91,0,0,0,1.12-.68,4.08,4.08,0,0,0,.34-2.5c-.17-1.55-.26-2.41-.26-2.58q.6-11,.61-14.47a34.12,34.12,0,0,0-3.54.09,1.82,1.82,0,0,0-1.72,2.15c.11.92.52,1.38,1.21,1.38v-1.38c.4-.11.6-.23.6-.34a1.77,1.77,0,0,1,.86,1.63c0,.92-.57,1.38-1.72,1.38A2.49,2.49,0,0,1,99,152.31a3.93,3.93,0,0,1-.39-2.67,3.15,3.15,0,0,1,3-2.93h5c1.83-.05,3.24-.08,4.22-.08v-.26c1.78-.06,2.67.29,2.67,1a9.54,9.54,0,0,0-1,4.48c.11,1.61.2,3.21.25,4.82l-.17,3.45c.29,2.52.52,4.39.69,5.59,0-.11,0,.95-.08,3.19a9.77,9.77,0,0,0,0,1.89,19.43,19.43,0,0,1,.17,2A17.12,17.12,0,0,1,113.55,175.38Zm-22-34.09a5.42,5.42,0,0,0,2.42.52l1.72-.52a19.82,19.82,0,0,0,.26-4.65c0-.17.11-1.15.34-2.93a33.17,33.17,0,0,0,.26-3.7,5.09,5.09,0,0,0-.6-2.93c-.75.92-1.3,1.59-1.64,2A42.27,42.27,0,0,0,93,133.54a37.09,37.09,0,0,0-1.38,5.77Q91.23,141.29,91.57,141.29Zm4.48,3.27c0-.74-.48-1.29-1.46-1.63a10.44,10.44,0,0,1-3,.25,3.54,3.54,0,0,0,.39,1.94c.26.38.88.56,1.85.56a8.69,8.69,0,0,1,1.9-.26A1.35,1.35,0,0,0,96.05,144.56Zm1.12,19.55c0-.81-.14-1.61-.25-2.42v-3.78q-.35-3.89-.61-5.77c0-.17.06-.95.18-2.33a5.88,5.88,0,0,0-.18-2.15,1.22,1.22,0,0,0-1-.64c-.46-.09-.91-.16-1.37-.22a12.14,12.14,0,0,0-2.24.34h-.18a35.11,35.11,0,0,0,1.21,9.39l1,3.1.43,2.41,1.12,2.5,1,.94c.4.4.61.72.61,1h.17A6,6,0,0,0,97.17,164.11Z"/><path class="cls-7" d="M144.84,168.66a2,2,0,0,1,.69,1.21c-.12.4-.21.72-.26.95A6.89,6.89,0,0,0,144,171a6.57,6.57,0,0,1-1,.13l-2.5-.09a27.15,27.15,0,0,1-4,.52,2.34,2.34,0,0,1-1.64-.43,8.16,8.16,0,0,1,0-3.36c0-.46-.4-1.91-1-4.35a21.58,21.58,0,0,0-1.12-3.74,2.68,2.68,0,0,0-1-.17,27.36,27.36,0,0,0-5.18,1.2q-3.53,1-4.35,1.85a4.8,4.8,0,0,0-1.16,2.37c-.12.8-.26,1.64-.43,2.5-.58,3.27-.87,4.93-.87,5,0,2.47.87,4,2.59,4.65a.75.75,0,0,1,.3.26.67.67,0,0,1,.13.43h-.26v.17c-2.12-.23-3.19-.8-3.19-1.72h-.43v5h-.34a29.5,29.5,0,0,1-.86-3.44,4.61,4.61,0,0,1,0-1.29c0-.64.08-1,.08-1.21-.29-.11-.43-.11-.43,0a8.93,8.93,0,0,1-2.24,1l-1.21-.25v-.18a4.37,4.37,0,0,0,2.5-1.55,23.51,23.51,0,0,0,1.81-4.73q1.38-5.85,1.73-8.09l.51-3h-.17l-4.22,2.24a8.58,8.58,0,0,0-.78-1.72l5.78-2.5c.4-4,.74-7,1-8.95q1.22-12.31,1.64-21.35c0-.23.11-1.32.34-3.27.18-1.78.26-3.16.26-4.14a4.56,4.56,0,0,0-.43-2.41c-.29-.4-1.2-.6-2.76-.6q-4.74,0-5.25,1.46a3.16,3.16,0,0,0-.18,1,2.39,2.39,0,0,0,.69,1.68,2.12,2.12,0,0,0,1.56.73c.74,0,1.12-.46,1.12-1.38l-1.17-.13q-.39,0-.3-.9c.06-.58.17-.86.35-.86v.17q2.67-.34,2.67,2a3,3,0,0,1-.82,2,2.74,2.74,0,0,1-2.11.91A3.21,3.21,0,0,1,115,121.1a5.11,5.11,0,0,1-1-3.14q0-3.52,2.84-3.53c.87-.06,1.5-.11,1.9-.17a15.23,15.23,0,0,1,4.22-.18,38.54,38.54,0,0,1,4,.74,12.58,12.58,0,0,1,3.62.9,6.18,6.18,0,0,1,.95,2.85c.17,1.09.34,2.15.51,3.19q1.38,5.86,1.9,7.84,2,8,2.84,12.08,2.67,8.7,4.06,13.1,2.15,8.46,3.18,12.76C144,167.6,144.32,168,144.84,168.66Zm-12.5-12c0-.74-.52-1.2-1.55-1.38a23.48,23.48,0,0,1-2.5.69q-2.94,1-4.48,1.55a3.79,3.79,0,0,0-1.3.61,3.42,3.42,0,0,0-.77,2.49h1q6.37-2.67,8.36-2.67a5,5,0,0,0,1-.69A.83.83,0,0,0,132.34,156.7Zm-9.57-.6h.52q6.63-2.32,8.27-2.33a9.3,9.3,0,0,0-.51-2.84q-1-4.56-1.38-6.11-1.56-8.52-2.24-12.83a58.27,58.27,0,0,0-1.81-8q-.78,12.74-1.21,19.11Q123.38,151.8,122.77,156.1Z"/><path class="cls-7" d="M147.77,117.1q.67.44,4.31,6.28c.34.46.83,1.21,1.46,2.24q1.64,5.43,4,12.31,1.47,4.65,3.62,10.68l3.63,8.26,1,3.45c.17.57.43,1.46.77,2.67.12,0,.18,0,.18.17h.17q1.29-5.34,3.36-16.27-.09-1.72,0-5.34c.12-.92.26-2.33.43-4.22,0-.92,0-2.29.09-4.13a22.73,22.73,0,0,1,1.12-5q.6-2.74,1.29-5.51,1.29-4.22,2.33-4.21a1.06,1.06,0,0,1,.86.43l.6,2a50.17,50.17,0,0,1,1.81,7.14q1,6.12,2.24,18.34v6.46c0,.34,0,1.6.12,3.79q.06,2.74.06,3.27v4.65c.46,4.82.31,7.23-.43,7.23l-2.46-.26c.39.17-.43.26-2.47.26-.51-1.16-.79-4-.85-8.39v-7.62c0-.8,0-2.07-.08-3.8-.18-1-.35-2.45-.52-4.41q-.09-2-.26-6c-.23-.86-.56-2.22-1-4.06s-.65-2.71-.65-2.6h-.26q-.17,2.33-.69,7.06c.06,1.2,0,3-.08,5.51q-.09.25-1.83,9c-.4,2.35-.84,4.71-1.3,7.06a24.9,24.9,0,0,1-2.34,6.54c-.18.35-.39.73-.65,1.16a1.42,1.42,0,0,1-.92.74q-.94.08-2.34-4-.87-2.59-1.74-5.08a129.84,129.84,0,0,1-4.51-12.32c-2.32-7.28-3.68-11.45-4.08-12.48a33.43,33.43,0,0,0-2.61-5.25,8.47,8.47,0,0,1-1-1.89H148q0,8.52.44,10.5.25,2.23-.44,13.77a46.37,46.37,0,0,0,.73,5.77q0,.25.83,6.29V172c.22.68,1.29,1,3.18,1v-.17h.18v.17h.17v.6l-1.21.78a8,8,0,0,1-1.46.17c-.58,0-.92.37-1,1.12-.05.4-.14.86-.26,1.38a.15.15,0,0,0-.17.17,1.58,1.58,0,0,1-.86-1.16,16.1,16.1,0,0,1-.26-1.6,4.54,4.54,0,0,0-.26-.6c-.11-.23-.17-.26-.17-.09l-1.9.61a1.49,1.49,0,0,1-.6-1.12c1.9-.64,2.85-2.47,2.85-5.51a35.44,35.44,0,0,0-.35-4.31c-.29-2.06-.46-3.27-.52-3.61q.18-9.39,0-21.61l-.08-4.74q-.25-2.06-.69-6.11,0-2,.08-5.94a20.62,20.62,0,0,1-.08-3.1C146.24,118,146.79,117.56,147.77,117.1Z"/><path class="cls-7" d="M206.46,168.07a6.55,6.55,0,0,1-3.19,2.41l-4.05.51c-2.93.69-4.45,1-4.57,1-2.24,0-4.45-1.07-6.63-3.19a15.09,15.09,0,0,1-4-6.37,31.54,31.54,0,0,1-.6-5.08A60.46,60.46,0,0,1,183,146.2q.25-3.18.51-4.74.27-.94,1.9-7c.23-1.09.46-2.15.69-3.19a12.41,12.41,0,0,1,1-3.1c.92-1.6,1.65-2.85,2.2-3.74s1-1.59,1.25-2.11a9,9,0,0,1,6-4.13l4.23.21c2.64.15,4.28.25,4.91.3,1.26-.45,2.21-.77,2.85-.94q1.29.43,1.29,1.29a5.43,5.43,0,0,1-1.38,2.32c-.52.81-1,1.58-1.55,2.33a3.11,3.11,0,0,1-2.33,1.38,6.24,6.24,0,0,1-2-.48,13.36,13.36,0,0,0-1.81-.56,6.74,6.74,0,0,0-4.4.78c-.69.51-1.2.92-1.55,1.2a8,8,0,0,1-.78,1,27.27,27.27,0,0,0-2.24,9.12l-.6,3.71a33.42,33.42,0,0,0-.52,4.56c0,.92.18,1.41.52,1.46a28.61,28.61,0,0,1,1.55-3.35l1.21-1.73a8.51,8.51,0,0,1,1.72.09l2.5-.34a35.44,35.44,0,0,1,4.31-.35c1.78,0,2.64.31,2.59.93-.12.07-.17.13-.17.19h.17a16.5,16.5,0,0,0-2.55,3,8.31,8.31,0,0,0-1.68,3.14c-.34-.05-1.35-.08-3-.08a9.91,9.91,0,0,0-2.76.17,2.44,2.44,0,0,0-.6,1.63q-.09,1.13-.09,2.16-.25,3,.43,17.3a3.41,3.41,0,0,0,.86,1.21A1.67,1.67,0,0,0,197,170c1.26-.29,2.21-.52,2.84-.69l2.16-.34a5.25,5.25,0,0,0,2.07-.61,4.6,4.6,0,0,0,2.15-2.92,1.44,1.44,0,0,0-.39-1.42,1.7,1.7,0,0,0-1.25-.56,1.35,1.35,0,0,0-1.38,1c-.22.66-.25,1-.08,1a4.76,4.76,0,0,0,1.29.77l-.08.52a5.69,5.69,0,0,1-1.73.17,2,2,0,0,1-1.38-2.15,3,3,0,0,1,.69-2.07,3.61,3.61,0,0,1,2.67-1q3.28,0,3.37,2.84A6,6,0,0,1,206.46,168.07Zm-13.79-13.18a4.11,4.11,0,0,0-.17-1.81c-.52.24-1.07.47-1.64.69a3.45,3.45,0,0,0-.6,1.81A16.37,16.37,0,0,1,192.67,154.89Zm-2.33-4.65c-.05,1.21.26,1.87.95,2,.69-.05,1.21-.11,1.55-.17a25,25,0,0,0,0-5.08c-1,.35-1.69.58-2.15.69C190.57,148.52,190.46,149.38,190.34,150.24Zm3,16.28c-.4-2.93-.6-4.62-.6-5.08q-.18-3.62-.18-5.43a12.74,12.74,0,0,0-1.37.61,1.14,1.14,0,0,0-.69,1.11,21.52,21.52,0,0,0,1.81,6.72l.86,2.07Z"/><g class="cls-8"><path class="cls-9" d="M68.54,35c-.77-1.61-5.28-1.75-10-.32l-9.33,2.83A36.69,36.69,0,0,0,34.7,46.92L32,50a38.42,38.42,0,0,0-7.39,15.69L22.81,76.4c-.83,4.88,1,9.07,4,9.32s6-3.57,6.69-8.48L34,73.53A35.71,35.71,0,0,1,41,57.79l2.69-3.12a52.6,52.6,0,0,1,14-10.77l4.18-2C66.31,39.68,69.32,36.58,68.54,35Z"/></g></g></svg>
