<svg xmlns="http://www.w3.org/2000/svg" width="1920" height="1080" viewBox="0 0 1920 1080"><defs><style>.cls-1{fill:#2951aa;opacity:0.9;}.cls-2{fill:#576a9e;}.cls-3{fill:#b1c2e0;}.cls-4{fill:#f7f8f9;}.cls-5{fill:#7585ba;}.cls-6{fill:#93a2cc;}.cls-7{fill:#5b4343;}.cls-8{fill:#694b4b;}.cls-9{fill:#49241a;}.cls-10{fill:#47271e;}.cls-11,.cls-22,.cls-27{fill:none;}.cls-12{opacity:0.25;}.cls-13{fill:#191919;}.cls-14{opacity:0.35;}.cls-15{fill:#e1e5ef;}.cls-16{fill:#8797c6;}.cls-17{fill:#5970aa;}.cls-18{fill:#ffa700;}.cls-19{fill:#663c32;}.cls-20{fill:#562f27;}.cls-21{fill:#28100b;}.cls-22,.cls-27{stroke:#191919;stroke-miterlimit:10;}.cls-22{stroke-width:3px;}.cls-23,.cls-29{fill:#f5a631;}.cls-24{fill:#001919;}.cls-25{fill:#efc389;}.cls-26{fill:#eaceac;}.cls-27{stroke-width:5px;}.cls-28,.cls-29,.cls-33{opacity:0.1;}.cls-30{fill:#513d38;}.cls-31{fill:#e6e7e8;}.cls-32,.cls-33,.cls-34{fill:#eac359;}.cls-34{opacity:0.05;}.cls-35{opacity:0.8;}</style></defs><title>start_screen</title><g id="final"><rect class="cls-1" x="-4" y="-0.5" width="1924" height="1080"/><path class="cls-2" d="M983.59,781.48c-11.33,22-.34,40,24.41,40h540.89c24.75,0,35.73-18,24.41-40L1299,248.33c-11.32-22-29.85-22-41.17,0Z"/><path class="cls-3" d="M1186.71,383.56c-11.31,22-.31,40,24.44,40h135.06c24.75,0,35.75-18,24.44-40l-71.41-139c-11.31-22-29.81-22-41.12,0Z"/><ellipse class="cls-3" cx="1200.26" cy="403.37" rx="26.5" ry="20.55" transform="translate(532.25 1479.05) rotate(-76.74)"/><ellipse class="cls-3" cx="1228.42" cy="410.47" rx="25.77" ry="23.06" transform="translate(784.51 1627.21) rotate(-88.43)"/><ellipse class="cls-3" cx="1265.69" cy="412.66" rx="26.69" ry="23.06" transform="translate(816.32 1665.79) rotate(-88.33)"/><ellipse class="cls-3" cx="1309.6" cy="412.03" rx="26.01" ry="26.76" transform="translate(-11.38 38.1) rotate(-1.66)"/><ellipse class="cls-3" cx="1353.33" cy="407.29" rx="25.1" ry="27.01" transform="translate(-9.19 31.89) rotate(-1.35)"/><path class="cls-2" d="M1787.91,737.48c11.32,22,.33,40-24.42,40H1195c-24.75,0-35.74-18-24.41-40l288.07-560c11.32-22,29.85-22,41.17,0Z"/><path class="cls-3" d="M1575.9,322.15c11.31,22,.31,40-24.44,40H1406.55c-24.75,0-35.75-18-24.44-40l76.33-148.62c11.31-22,29.81-22,41.12,0Z"/><ellipse class="cls-3" cx="1560.85" cy="341.07" rx="21.44" ry="27.66" transform="translate(-36.62 367.23) rotate(-13.26)"/><ellipse class="cls-3" cx="1531.46" cy="348.49" rx="24.07" ry="26.9" transform="matrix(1, -0.03, 0.03, 1, -8.96, 42.01)"/><ellipse class="cls-3" cx="1492.56" cy="350.77" rx="24.07" ry="27.85" transform="translate(-9.59 43.65) rotate(-1.67)"/><ellipse class="cls-3" cx="1446.72" cy="350.11" rx="27.93" ry="27.15" transform="translate(1054.87 1786.09) rotate(-88.34)"/><ellipse class="cls-3" cx="1401.08" cy="345.16" rx="28.2" ry="26.2" transform="translate(1023.12 1737.75) rotate(-88.65)"/><path class="cls-2" d="M234,805.22c-11.54,21.89-.73,39.81,24,39.81H948.49c24.75,0,35.56-17.92,24-39.81L624.22,144.33c-11.54-21.9-30.42-21.9-42,0Z"/><path class="cls-3" d="M485.27,324.68c-11.52,21.9-.7,39.82,24.05,39.82H697.75c24.75,0,35.57-17.92,24-39.82l-97.3-184.94c-11.53-21.9-30.39-21.9-41.91,0Z"/><ellipse class="cls-3" cx="506.52" cy="340.08" rx="32.05" ry="25.38" transform="translate(49.64 744.39) rotate(-75.38)"/><ellipse class="cls-3" cx="541.36" cy="348.66" rx="31.13" ry="28.53" transform="translate(173.99 877.5) rotate(-88)"/><ellipse class="cls-3" cx="587.47" cy="351.3" rx="32.23" ry="28.53" transform="translate(215.85 926.13) rotate(-88)"/><ellipse class="cls-3" cx="641.79" cy="350.53" rx="32.17" ry="32.32" transform="translate(-54.12 125.87) rotate(-10.75)"/><ellipse class="cls-3" cx="695.89" cy="344.81" rx="31.05" ry="32.62" transform="translate(-11.63 24.53) rotate(-2)"/><rect class="cls-4" x="-4" y="750.5" width="1924" height="330"/><rect class="cls-5" x="1529.85" y="729.54" width="36.74" height="60.62" rx="10" ry="10"/><path class="cls-5" d="M1499.58,516.48c-5.75,9.38-1.45,17,9.55,17h69.15c11,0,15.3-7.67,9.55-17l-33.67-54.93c-5.75-9.38-15.16-9.38-20.91,0Z"/><path class="cls-5" d="M1477.78,588.11c-6.56,8.84-2.92,16.06,8.08,16.06H1606.2c11,0,14.64-7.22,8.08-16.06L1558,512.17c-6.56-8.83-17.28-8.83-23.84,0Z"/><path class="cls-5" d="M1466.09,654.8c-7.24,8.29-4.16,15.06,6.84,15.06h148.78c11,0,14.08-6.77,6.85-15.06l-68.08-77.94c-7.24-8.28-19.08-8.28-26.32,0Z"/><path class="cls-5" d="M1453.08,728.62c-7.19,8.32-4.08,15.13,6.92,15.13h176.37c11,0,14.11-6.81,6.92-15.13l-82-94.86c-7.2-8.32-19-8.32-26.17,0Z"/><rect class="cls-6" x="289.35" y="812.92" width="42.88" height="80.58" rx="10" ry="10"/><path class="cls-6" d="M251.31,534.78c-5.21,9.69-.48,17.61,10.52,17.61h87.38c11,0,15.74-7.92,10.52-17.61L315,451.66c-5.21-9.68-13.74-9.68-18.95,0Z"/><path class="cls-6" d="M225.59,629.53c-6,9.21-1.91,16.76,9.09,16.76H381.79c11,0,15.09-7.55,9.09-16.76L319.15,519.41c-6-9.22-15.83-9.22-21.83,0Z"/><path class="cls-6" d="M211.76,717.73c-6.69,8.73-3.17,15.87,7.83,15.87H399.9c11,0,14.52-7.14,7.83-15.87l-85.82-111.9c-6.69-8.73-17.64-8.73-24.34,0Z"/><path class="cls-6" d="M196.59,815.88c-6.65,8.76-3.09,15.93,7.91,15.93H417c11,0,14.56-7.17,7.91-15.93L322.84,681.44c-6.65-8.76-17.53-8.76-24.18,0Z"/><rect class="cls-7" x="1515" y="635.5" width="126" height="172"/><g id="_Group_" data-name="&lt;Group&gt;"><path class="cls-8" d="M1744.59,574.53a15.65,15.65,0,0,1,10.37,7l37.8,67.4c1.89,3.36.28,5.94-3.56,5.75l-177.36-9a13,13,0,0,1-10-6.67l-39-81.47c-1.67-3.48.1-5.92,3.92-5.44Z"/><path class="cls-8" d="M1743.11,799.05v7.05s-3.14.2-7,.39l-68.68,3.27c-3.84.19-7,.11-7-.16s0-3.65,0-7.5v-81a7,7,0,0,1,7-7h68.71a7,7,0,0,1,7,7Z"/><path class="cls-8" d="M1604.85,652.57v-7.15c0-.08,3.15,0,7,.21l177.36,9a7.46,7.46,0,0,1,7,7.35V796.62a7.43,7.43,0,0,1-7,7.33l-39.09,1.87c-3.85.18-7,.31-7,.28v-85a7,7,0,0,0-7-7H1667.4a7,7,0,0,0-7,7v81c0,3.85,0,7.22,0,7.5s-3.12.65-7,.83l-41.62,2a6.63,6.63,0,0,1-7-6.67Z"/><path class="cls-8" d="M1604.85,812.91c0,.08-3.14-.08-7-.35l-76.15-5.4a7.65,7.65,0,0,1-7-7.5V657.14c0-3.85,0-7,0-7l7-.36,76.07-3.85a6.6,6.6,0,0,1,7,6.64V812.91Z"/><path class="cls-8" d="M1601.83,639c1.66,3.47,3,6.38,3,6.46s-3.15.31-7,.51l-76.07,3.85c-3.85.2-7,.09-7-.24a56.73,56.73,0,0,1,2.9-6.94l39.19-85.07c1.61-3.5,4.29-3.52,6,0Z"/></g><path class="cls-9" d="M1512.87,733.14c-.1-1.83,3-3.28,6.82-3.21l76.54,1.36c3.85.06,7.08,1.7,7.18,3.64s-3,3.45-6.81,3.37L1520,736.63C1516.19,736.55,1513,735,1512.87,733.14Z"/><path class="cls-9" d="M1603.72,684.71s-.08,0-.17,0l-7.17.06-12.65.11-9.68.09-3.91,0-2.7,0-8.48.08-15.51.13-8,.08-2.69,0-2.53,0-7.79.07-2.32,0c-3.85,0-7.12-.72-7.28-1.68s-.28-1.81-.3-1.89a.32.32,0,0,1,0-.15l7-.08,4.42-.05,8-.09,1.51,0,1.67,0,8.17-.09,15.5-.17,9.44-.11,2.71,0h.68l7.42-.08,16.94-.19c3.85-.05,7-.05,7,0s.07.44.14.9.21,1.32.3,1.91S1603.72,684.69,1603.72,684.71Z"/><path class="cls-9" d="M1513,765.7c0-1.06,3.12-1.76,7-1.55l78.58,4.15c3.84.21,7,1.29,7,2.41s-3.12,1.86-7,1.64L1520,768C1516.14,767.8,1513,766.76,1513,765.7Z"/><path class="cls-9" d="M1533,611.38c1.45,0,2.67,3,2.71,6.9l2,184.08c0,3.85-1.18,7-2.71,7.1s-2.81-3.05-2.85-6.9l-1.68-184.09C1530.42,614.62,1531.58,611.43,1533,611.38Z"/><path class="cls-9" d="M1603.19,735.11c-.1-1.83,3-3.41,6.81-3.5l177.56-4.23c3.85-.09,7.09,1.42,7.2,3.36s-3,3.59-6.8,3.67l-177.58,3.88C1606.53,738.38,1603.29,736.94,1603.19,735.11Z"/><path class="cls-10" d="M1602.84,770.88c-.15-1,2.88-2,6.73-2.21l178-7.47c3.85-.16,7.12.62,7.27,1.73s-2.87,2.15-6.71,2.31l-178.06,7.27C1606.25,772.67,1603,771.93,1602.84,770.88Z"/><path class="cls-9" d="M1602.75,682.77c0-1,3.1-1.87,7-1.83L1788,682.78c3.85,0,7,1,7,2.08s-3.1,2-7,1.93l-178.25-2C1606,684.71,1602.78,683.82,1602.75,682.77Z"/><path class="cls-9" d="M1566.85,564.35c1.45-.05,2.68,3,2.74,6.9l3.65,233.6c.06,3.85-1.14,7-2.67,7.1s-2.83-3.05-2.89-6.9l-3.37-233.61C1564.25,567.59,1565.4,564.4,1566.85,564.35Z"/><path class="cls-9" d="M1647.27,647.77c-1.45,0-2.63,3.08-2.62,6.93l.34,149.73c0,3.85,1.26,7,2.8,7.08s2.77-3.07,2.75-6.92l-.6-149.74C1649.92,651,1648.72,647.81,1647.27,647.77Z"/><path class="cls-9" d="M1759.69,654.05c-1.45,0-2.64,3.09-2.64,6.94l-.14,138c0,3.85,1.24,7,2.77,7.07s2.78-3.09,2.78-6.94l-.13-138C1762.33,657.26,1761.14,654.08,1759.69,654.05Z"/><path class="cls-9" d="M1709,651.35c-1.74,0-3.14,3.16-3.1,7l1.31,142.9c0,3.85,1.56,7,3.4,7s3.3-3.16,3.26-7l-1.64-142.9C1712.18,654.48,1710.72,651.34,1709,651.35Z"/><path class="cls-9" d="M1604.14,813.87a7.23,7.23,0,0,1-2.35.11l-3.18-.08a2,2,0,0,1-.76-.1l-3.77-6-19.87-31.64c-2-3.26-2.89-6.73-1.87-7.7s3.55.89,5.61,4.14L1598.49,805l4.64,7.32Z"/><path class="cls-9" d="M1612.62,808.39c-2.69,2.75-5.71,5-6.72,5a4,4,0,0,0-1.71.19,7.54,7.54,0,0,1-2.2.12,12.88,12.88,0,0,1-2.22-.14l1.36-1.39,6.14-6.32,34-35c2.68-2.77,5.82-4.13,7-3s-.11,4.25-2.8,7Z"/><path class="cls-11" d="M1613.36,813.14l-2.79,0-4.66,0-4,0h-3l-3.11,0h-2.29"/><path class="cls-9" d="M1603.69,711.35c.07,2-2.27,1.55-5.19-1l-23.7-20.3-5.69-4.87a.87.87,0,0,1,0-1l.5-.91.87-1.62c.41-.76,1.46-.78,2.34,0l6.92,5.87,18.49,15.7C1601.16,705.72,1603.62,709.37,1603.69,711.35Z"/><path class="cls-9" d="M1534.41,682.79a3.74,3.74,0,0,1-.2,2.92l-1.55,1.7-5.53,6-9.41,10.24c-2.61,2.83-4.74,3.89-4.74,2.36s2.14-5.11,4.76-7.93l5.85-6.31c2.61-2.83,5.55-6,6.51-7l2.75-3C1533.39,681.18,1534.1,681.64,1534.41,682.79Z"/><path class="cls-9" d="M1513,807.5c0,.09.64.15,1.52.14l2,0a1,1,0,0,0,.5-.07l3.1-6.36,12.54-25.69c1.69-3.46,2.55-7,1.91-7.9s-2.55,1.22-4.26,4.68l-13,26.3-3.7,7.52Z"/><path class="cls-10" d="M1794.44,804.25a9.48,9.48,0,0,1-2.45.1l-3.3-.07a2.62,2.62,0,0,1-.78-.08l-4.4-5.55-19.7-24.87c-2.39-3-3.47-6.14-2.41-6.95s3.89,1,6.3,4l20.39,25.48,5.3,6.62Z"/><path class="cls-9" d="M1794.54,685.75c.25.12.45.82.45,1.54s-2.43,3.31-5.4,5.75L1769,710l-5.62,4.62-.27.23a6.69,6.69,0,0,1-.94.06l-2.36,0-1.56,0a5.14,5.14,0,0,1-.07-1.2,6.12,6.12,0,0,1,.07-1.26l2.7-2.2,8.07-6.56,15.93-13,6.44-5.25a2,2,0,0,1,1.87-.41Z"/><path class="cls-9" d="M1604,711.35c-.08,2,2.44,1.82,5.62-.36l31.37-21.5,6.24-4.27a.75.75,0,0,0,0-1c-.26-.37-.53-.78-.62-.91l-1.1-1.62c-.51-.76-1.83-.78-2.92,0l-7.77,5.27-24.88,16.89C1606.74,706,1604.06,709.37,1604,711.35Z"/><path class="cls-8" d="M1757.1,806.59c-.43.42.54-53,.54-53a7.56,7.56,0,0,1,7.13-7.3l31.12-1.36a6.57,6.57,0,0,1,6.92,6.69l-.5,44.72a7.76,7.76,0,0,1-7.06,7.5Z"/><path class="cls-9" d="M1757.66,749.29c-.06-1.5,3-2.88,6.89-3l31.27-1.38c3.85-.17,7,.89,7,2.36s-3.13,2.83-7,3l-31.1,1.48C1760.92,751.89,1757.73,750.8,1757.66,749.29Z"/><path class="cls-9" d="M1757.09,804c-.08-1.42,3-2.75,6.84-3l31.26-1.81c3.84-.22,7,.72,7,2.1s-3.09,2.7-6.93,2.94l-31.08,1.89C1760.38,806.39,1757.17,805.42,1757.09,804Z"/><path class="cls-10" d="M1759.38,806.37c-1.36.12-2.43-2.93-2.39-6.78l.52-45.91c0-3.85,1.19-7.09,2.55-7.21s2.43,2.95,2.39,6.8l-.52,45.89C1761.89,803,1760.74,806.26,1759.38,806.37Z"/><path class="cls-9" d="M1797.87,751.76c0-3.85,1.19-7,2.55-7.07s2.43,3.08,2.39,6.93l-.51,45c0,3.85-1.19,7-2.54,7s-2.44-3.12-2.39-7Z"/><path class="cls-9" d="M1766.08,792.57c-2.17,3.19-3.94,6.46-3.95,7.28a1.26,1.26,0,0,0,1.18,1.41c.67,0,3-2.69,5.12-5.88l26.13-38.79c2.15-3.19,3.92-6.37,3.93-7.06a1.16,1.16,0,0,0-1.18-1.2c-.65,0-3,2.67-5.13,5.85Z"/><path class="cls-9" d="M1766.07,759c-2.2-3.15-4-6.42-4-7.26a1.6,1.6,0,0,1,1.44-1.59c.78,0,3.22,2.52,5.42,5.68l25.59,36.81c2.2,3.16,4,6.37,4,7.12a1.57,1.57,0,0,1-1.49,1.47c-.8,0-3.27-2.5-5.47-5.66Z"/><path class="cls-9" d="M1755.55,806.47a7.4,7.4,0,0,0,7-7.32l-.13-75.33a6.86,6.86,0,0,0-7-6.85l-103.6,2.28a7.22,7.22,0,0,0-7,7.15l-.17,78a6.62,6.62,0,0,0,7,6.68Z"/><path class="cls-8" d="M1604.35,814c-.41.42,0-51.8,0-51.8a7.59,7.59,0,0,1,7-7.39l31.09-1.72a6.56,6.56,0,0,1,7,6.61v43.55a7.76,7.76,0,0,1-7,7.58Z"/><path class="cls-9" d="M1604,757.89c-.08-1.5,3-2.91,6.84-3.12l31.56-1.79c3.84-.22,7,.81,7,2.27s-3.09,2.85-6.94,3.08l-31.37,1.87C1607.25,760.43,1604,759.39,1604,757.89Z"/><path class="cls-9" d="M1604,812.35c-.1-1.4,3-2.77,6.81-3l31.52-2.22c3.84-.27,7,.64,7.07,2s-3.05,2.73-6.89,3l-31.35,2.29C1607.32,814.68,1604.1,813.76,1604,812.35Z"/><path class="cls-9" d="M1606.33,814.68c-1.36.13-2.48-2.91-2.48-6.76V762.29c0-3.85,1.12-7.11,2.48-7.24s2.49,2.92,2.49,6.77v45.61C1608.82,811.28,1607.7,814.54,1606.33,814.68Z"/><path class="cls-9" d="M1644.45,759.86c0-3.85,1.12-7,2.49-7.1s2.48,3,2.48,6.9v44.76c0,3.85-1.12,7-2.48,7.05s-2.49-3.09-2.49-6.94Z"/><path class="cls-9" d="M1612.61,802.61c-2.18,3.17-4,6.45-4,7.29a1.31,1.31,0,0,0,1.28,1.43c.7-.05,3.06-2.69,5.23-5.87l27.69-40.5c2.17-3.18,4-6.36,4-7.07a1.19,1.19,0,0,0-1.27-1.21c-.7,0-3.06,2.67-5.25,5.84Z"/><path class="cls-9" d="M1610.72,767.14c-2.35-3-4.28-6.23-4.28-7.07a1.66,1.66,0,0,1,1.56-1.62c.85-.05,3.47,2.4,5.82,5.45l28.69,37.22c2.35,3,4.28,6.17,4.28,6.94a1.65,1.65,0,0,1-1.61,1.49c-.88.06-3.53-2.38-5.88-5.43Z"/><path class="cls-5" d="M1597.69,647c-4.45.34-7.79,1.78-7.42,3.2s2.71,2.44,5.2,2.25l6.66-.51a3.85,3.85,0,0,0,2.9-2.85C1605.44,647.57,1602.14,646.64,1597.69,647Z"/><g class="cls-12"><path class="cls-13" d="M1611.71,650.89c-5.5-.21-10.71-.29-11.58-.19s-1.58.46-1.58.79a7.19,7.19,0,0,0,.15,1.26,3.77,3.77,0,0,0,.88,1.39,2.46,2.46,0,0,0,1.38.73,1.86,1.86,0,0,1,1.1.4c.24.22.64.61.88.87a3.82,3.82,0,0,1,.44,2c0,.86,4.5,1.61,10,1.67l171.06,2c5.5.06,10.13-.8,10.28-1.9s-4.21-2.19-9.71-2.4Z"/></g><g class="cls-14"><path class="cls-13" d="M1558.44,577.7c3.49-7.47,5.53-13.56,4.54-13.52a3.62,3.62,0,0,0-2.64,1.36c-.46.72-1.56,2.4-2.46,3.75s-4.54,8.54-8.1,16l-23.25,48.62c-3.56,7.44-5.15,13.53-3.55,13.53s5.78-6.11,9.27-13.59Z"/></g><g class="cls-12"><path class="cls-13" d="M1666.52,661.76c0-5,2.37-9.08,5.26-9.08s5.26,4,5.26,8.84-.59,9.69-1.31,10.74a5,5,0,0,1-3.69,1.91,6.18,6.18,0,0,1-3.94-1.67C1667.23,671.58,1666.52,666.74,1666.52,661.76Z"/></g><g class="cls-12"><path class="cls-13" d="M1659.06,658.82c0-4.58,2-8.33,4.39-8.33s4.38,3.65,4.38,8.11-.49,8.9-1.09,9.87a4.1,4.1,0,0,1-3.07,1.75,5,5,0,0,1-3.29-1.53C1659.66,667.84,1659.06,663.4,1659.06,658.82Z"/></g><g class="cls-12"><path class="cls-13" d="M1723.08,656.19c1,0,8.51.08,16.76.18h.52c8.25.1,14.55,2.36,14,5a13.83,13.83,0,0,1-4.3,7.27c-1.81,1.32-6.84,2.41-11.18,2.41s-9.08-1.09-10.53-2.41a38.33,38.33,0,0,1-4.82-5.7c-1.2-1.81-2.19-4.08-2.19-5A1.76,1.76,0,0,1,1723.08,656.19Z"/></g><path class="cls-15" d="M1791.73,644.66c4.37,7.63,1,13.76-7.47,13.62l-18.18-.31-5.42-.09-18.65-.32-13.07-.22-19.18-.32-19.18-.32-24.22-.41-18.65-.32-18.66-.32-9.49-.16c-8.79-.15-16-1.41-16-2.82a2.86,2.86,0,0,0-2.91-2.64,15.82,15.82,0,0,1-3-.24l-.06-.16s-2.56-6.75-5.67-15l-16.63-43.93c-3.11-8.23-6.63-17.52-7.81-20.64s-2.19-5.78-2.24-5.91.55-.18,1.32-.14l4.93.28,3.7.21,16.14.91,144.18,8.15c8.79.5,16.81,2.37,17.84,4.16l9.81,17.13Z"/><path class="cls-5" d="M1757.07,573.84c1.87,4.19,2,7.51.33,7.37l-19-1.49-146-11.5L1576.22,567l-3.23-.25a11.09,11.09,0,0,1-3.27-.55l-.89-1.33-.76-1.12c0-.06-1.89-2.82-4.12-6.15s-1.71-5.87,1.16-5.65l5.5.42,16.25,1.23L1737.7,565C1746.48,565.68,1755.19,569.65,1757.07,573.84Z"/><path class="cls-16" d="M1610.14,586.21c-1.7,2.76,2.59,5,9.54,5s11.56-2.25,10.25-5-5.6-5-9.54-5S1611.85,583.46,1610.14,586.21Z"/><g class="cls-12"><path class="cls-13" d="M1562.58,578.47c0-6.57-2-11.94-4.35-11.94s-4.35,5.23-4.35,11.62.49,12.76,1.09,14.14a4,4,0,0,0,3,2.51,4.47,4.47,0,0,0,3.26-2.2C1562,591.39,1562.58,585,1562.58,578.47Z"/></g><g class="cls-12"><path class="cls-13" d="M1568.74,574.61c0-6-1.64-11-3.63-11s-3.62,4.8-3.62,10.67.41,11.71.91,13,1.64,2.31,2.53,2.31a3.75,3.75,0,0,0,2.72-2C1568.25,586.48,1568.74,580.64,1568.74,574.61Z"/></g><path class="cls-5" d="M1605.62,649.92c0-.16-2.5-7.07-5.44-15.37l-7-19.7c-2.94-8.3-5.36-15.12-5.38-15.16s-2.43-6.87-5.37-15.17l-.73-2.06L1575.87,566c-.27-.78-1.16-3.29-2-5.57a42.33,42.33,0,0,0-1.92-4.8l-1-1.55-2.6-3.85a8.3,8.3,0,0,0-5.95-3.06,6.49,6.49,0,0,0-5.58,3.17l-8.78,17.6-22.81,45.77L1518.05,628l-3.83,7.68c-2.09,4.2-3.78,7.64-3.76,7.63h0c-.07.62-.42,1.16-.52,1.79a11.46,11.46,0,0,0-.15,2.11l0,.5a4.48,4.48,0,0,0,1.39,1.6l.46.17.42.15a16.22,16.22,0,0,0,4,.5,11.15,11.15,0,0,0,3-.13l.15-.31c0-.05,2.57-5.39,5.67-11.85l5.62-11.76,2.59-5.42,2.6-5.41,6.9-14.44,10.61-22.16c3.8-7.94,8-14.44,9.3-14.44a14,14,0,0,1,2.43.09s1.1,3.67,2.41,8,2.37,7.94,2.37,7.94,2.07,6.9,4.59,15.34l11.56,38.65c2.53,8.43,4.59,15.33,4.6,15.35v.05s1.61.07,3.56.13l6.44.21,4.06.13C1605.2,650.18,1605.68,650.07,1605.62,649.92Z"/><path class="cls-5" d="M1560.77,573.85c0-6.56-2-11.93-4.35-11.93s-4.35,5.23-4.35,11.62.49,12.75,1.09,14.13a4,4,0,0,0,3,2.52,4.49,4.49,0,0,0,3.26-2.2C1560.18,586.78,1560.77,580.42,1560.77,573.85Z"/><path class="cls-5" d="M1566.92,571.42c0-5.23-1.63-9.5-3.62-9.5s-3.62,4.16-3.62,9.25.41,10.15.9,11.25a3.32,3.32,0,0,0,2.54,2,3.77,3.77,0,0,0,2.72-1.75C1566.43,581.71,1566.92,576.64,1566.92,571.42Z"/><g class="cls-12"><path class="cls-17" d="M1607.86,587.09c-1.74,2.58,2.65,4.7,9.76,4.7s11.83-2.12,10.49-4.7-5.73-4.7-9.76-4.7S1609.61,584.5,1607.86,587.09Z"/></g><g class="cls-12"><path class="cls-17" d="M1645.91,645.45c0,1.08,7.2,2,16,2h19.74c8.8,0,16-.89,16-2s-7.2-2-16-2h-19.74C1653.11,643.48,1645.91,644.36,1645.91,645.45Z"/></g><path class="cls-16" d="M1649.42,644.13c0,1.09,7.2,2,16,2h18.42c8.8,0,16-.89,16-2s-7.2-2-16-2h-18.42C1656.62,642.16,1649.42,643.05,1649.42,644.13Z"/><polyline class="cls-11" points="1622.23 816.68 1602.99 815.31 1602.95 815.3 1602.81 815.29 1602.41 815.26 1602.24 815.25 1602.1 815.24 1601.62 815.21 1510.86 808.72 1505.59 808.35"/><path class="cls-11" d="M1508.54,643.25c16.78-33.1,33-66.42,49.67-99.75"/><path class="cls-11" d="M1505.59,649.18l1.54-3.09"/><path class="cls-11" d="M1509.41,650.64l1.88.73"/><path class="cls-9" d="M1531.1,692.19a8,8,0,0,1,7.93-8.09l24.28-.27a8.07,8.07,0,0,1,8.13,7.91l.53,33.94a7.66,7.66,0,0,1-7.87,7.82l-24.66-.54a8.32,8.32,0,0,1-8.06-8.17Z"/><path class="cls-18" d="M1534.61,696.62a8,8,0,0,1,7.93-8.09l17.11-.2a8.07,8.07,0,0,1,8.12,7.91l.4,25.06a7.66,7.66,0,0,1-7.87,7.82l-17.42-.38a8.34,8.34,0,0,1-8.07-8.18Z"/><path class="cls-9" d="M1550.83,685.62c-.86.07-1.51,3.27-1.44,7.12l.61,32c.07,3.84.87,6.94,1.79,6.87s1.58-3.27,1.49-7.12l-.72-32C1552.47,688.66,1551.7,685.56,1550.83,685.62Z"/><g class="cls-12"><path class="cls-13" d="M1603.38,649.92a49.06,49.06,0,0,0-7-.25h-76.27c-3.85,0-6.94.07-6.85.16l0,.1h0l.17.07.58.23c.21.08.37,3.29.37,7.14v16.86c0,3.85,0,7,0,7a.32.32,0,0,0,0,.15c0,.09,0,3.31,0,7.16V800.16a45.42,45.42,0,0,0,.28,7l2.21.16,8.92.64.8.06,9.71.71,9.71.7,15.46,1.12,9.71.71,9.72.7,9.67.7,7.25.53,1.24.09,2.63.19c.91.06,1.66-3,1.66-6.88V662.27c0-3.85-.84-7-1.87-7s-2.3-1.21-2.83-2.64a1.75,1.75,0,0,1,1.87-2.51A8,8,0,0,0,1603.38,649.92Z"/></g><g class="cls-12"><path class="cls-13" d="M1593.67,615.74c-3.2-8.78-5.83-16-5.85-16s-2.64-7.27-5.84-16.06l-.11-.3c-3.19-8.79-6-16.62-6.33-17.4l-2.26-6.22c-1-2.63-1.89-5.18-2.06-5.66s-.45-.89-.61-.9a17.33,17.33,0,0,1-2.28-3,8.3,8.3,0,0,0-5.95-3.06,6.49,6.49,0,0,0-5.58,3.17l-9.22,18.5-21.93,44-7.6,15.26-4.08,8.65a84.32,84.32,0,0,0-4.2,9.93l0,.63,0,.49a4.51,4.51,0,0,0,1.38,1.61l.47.17.28.1a25.5,25.5,0,0,0,4,.2h9l8.45,0,17.35,0,17.37,0,12.52,0,13.34,0,7.52,0h4.25c.13,0-2.37-7.19-5.57-16Z"/></g><g class="cls-12"><path class="cls-17" d="M1716.24,599.63c-1.3,1.93,2,3.5,7.28,3.5s8.83-1.57,7.83-3.5-4.28-3.51-7.28-3.51S1717.54,597.7,1716.24,599.63Z"/></g><path class="cls-16" d="M1717.94,599c-1.27,2.06,1.93,3.74,7.12,3.74s8.62-1.68,7.64-3.74-4.18-3.73-7.11-3.73S1719.21,596.92,1717.94,599Z"/><path class="cls-15" d="M1661.26,656.4c0-4,2-7.22,4.38-7.22s4.39,3.16,4.39,7-.5,7.71-1.1,8.55a4.25,4.25,0,0,1-3.07,1.52,5.3,5.3,0,0,1-3.29-1.33C1661.85,664.21,1661.26,660.37,1661.26,656.4Z"/><path class="cls-15" d="M1668.71,658.25c0-5,2.37-9.07,5.26-9.07s5.26,4,5.26,8.83-.59,9.69-1.31,10.74a5,5,0,0,1-3.68,1.91,6.21,6.21,0,0,1-4-1.67C1669.42,668.07,1668.71,663.24,1668.71,658.25Z"/><path class="cls-15" d="M1725.28,652.68c1,0,8.5.08,16.75.18h.52c8.25.1,14.55,2.37,14,5a13.77,13.77,0,0,1-4.3,7.27c-1.81,1.33-6.84,2.41-11.18,2.41s-9.08-1.08-10.52-2.41a37.78,37.78,0,0,1-4.83-5.7c-1.2-1.81-2.19-4.08-2.19-5A1.76,1.76,0,0,1,1725.28,652.68Z"/><g class="cls-12"><path class="cls-17" d="M1742.48,619.54c-1.75,2.58,2.65,4.7,9.76,4.7s11.83-2.12,10.49-4.7-5.73-4.71-9.76-4.71S1744.22,617,1742.48,619.54Z"/></g><path class="cls-16" d="M1744.76,618.66c-1.71,2.76,2.58,5,9.53,5s11.57-2.25,10.26-5-5.61-5-9.54-5S1746.46,615.91,1744.76,618.66Z"/><path class="cls-5" d="M1604.83,651.46a3.68,3.68,0,0,1-3.28,0c-.93-.52-.72-1.46.45-2.09s2.65-.62,3.28,0A1.29,1.29,0,0,1,1604.83,651.46Z"/><g class="cls-12"><path class="cls-13" d="M1604.83,651.46a3.68,3.68,0,0,1-3.28,0c-.93-.52-.72-1.46.45-2.09s2.65-.62,3.28,0A1.29,1.29,0,0,1,1604.83,651.46Z"/></g><g class="cls-12"><path class="cls-13" d="M1599,650.78a.47.47,0,0,1,.22-.29l.44-.29a1.14,1.14,0,0,1,.54-.15h.88c.3,0,.5.09.43.2a4,4,0,0,1-1.32.44C1599.53,650.82,1599,650.86,1599,650.78Z"/></g><path class="cls-19" d="M1755.93,799.36a7.38,7.38,0,0,1-7,7.33l-92.57,4.39a6.6,6.6,0,0,1-7-6.66l0-8c0-3.85,0-10.15,0-14l.1-46.93a7.33,7.33,0,0,1,7-7.23l91.92-3a6.8,6.8,0,0,1,7,6.77l.16,28.77c0,3.85,0,8.47.06,10.26s0,6.4.06,10.25v1.49c0,3.85.05,10.15.08,14Z"/><path class="cls-20" d="M1706.47,726.48l-46.91.58-7.19.13-1.07,0-1.07,1.16-.69,1.51,0,1.57a27.39,27.39,0,0,1-.17,8.35l-.21,10.54a19,19,0,0,1,.21,5.22h.13c0,.77-.07,1.55-.08,2.33s.15,1.52.22,2.28h.1l0,.93c0,.22,0,.44,0,.66h-.06c-.07,1.27-.17,2.54-.2,3.81,0,2,.32,3.87.18,5.82l-.12,0,0,1.47c.12,1.84.07,3.67.07,5.51h-.07a18.63,18.63,0,0,1-.09,3.66h-.05c0,.55,0,1.1,0,1.65,0,0,0,0,0,0,.2,1.86.34,3.72.38,5.59l56.82-3.59Z"/><polygon class="cls-21" points="1755.97 806.36 1649.42 811.42 1649.46 789.45 1706.17 784.87 1755.88 789.8 1755.97 806.36"/><path class="cls-13" d="M1697.62,755.12c1.1,0,1.79.12,1.53.28a3.05,3.05,0,0,0-.73.64c-.16.2-.45.54-.65.74a7.2,7.2,0,0,1-.74.64,1.29,1.29,0,0,1-.64.28,2,2,0,0,1-.83-.37,3.16,3.16,0,0,1-.74-.64c-.1-.16-.31-.45-.46-.65a2.71,2.71,0,0,0-.94-.64c-.36-.16.24-.28,1.34-.28Z"/><path class="cls-22" d="M1697.62,755.12c1.1,0,1.79.12,1.53.28a3.05,3.05,0,0,0-.73.64c-.16.2-.45.54-.65.74a7.2,7.2,0,0,1-.74.64,1.29,1.29,0,0,1-.64.28,2,2,0,0,1-.83-.37,3.16,3.16,0,0,1-.74-.64c-.1-.16-.31-.45-.46-.65a2.71,2.71,0,0,0-.94-.64c-.36-.16.24-.28,1.34-.28Z"/><path class="cls-23" d="M1701.24,738.82a2.3,2.3,0,0,1,2.54,2.75l-1.5,9.94a5.06,5.06,0,0,1-3.13,3.79,2,2,0,0,1-2.67-2.17v-11a3.27,3.27,0,0,1,3-3.21Z"/><path class="cls-22" d="M1701.24,738.82a2.3,2.3,0,0,1,2.54,2.75l-1.5,9.94a5.06,5.06,0,0,1-3.13,3.79,2,2,0,0,1-2.67-2.17v-11a3.27,3.27,0,0,1,3-3.21Z"/><path class="cls-23" d="M1696.11,753a2.09,2.09,0,0,1-2.67,2.26,4.56,4.56,0,0,1-3-3.72l-1-10.08a2.42,2.42,0,0,1,2.68-2.75l1,.08a3.32,3.32,0,0,1,3,3.24Z"/><path class="cls-22" d="M1696.11,753a2.09,2.09,0,0,1-2.67,2.26,4.56,4.56,0,0,1-3-3.72l-1-10.08a2.42,2.42,0,0,1,2.68-2.75l1,.08a3.32,3.32,0,0,1,3,3.24Z"/><path class="cls-24" d="M1693.73,735c1.31-1,2.38-.49,2.38,1.14a2.71,2.71,0,0,1-3,2.71l-1-.08c-1.64-.13-1.92-1-.61-2.06Z"/><path class="cls-22" d="M1693.73,735c1.31-1,2.38-.49,2.38,1.14a2.71,2.71,0,0,1-3,2.71l-1-.08c-1.64-.13-1.92-1-.61-2.06Z"/><path class="cls-24" d="M1701.41,736.82c1.35.95,1.1,1.82-.54,1.93l-1.77.12a2.78,2.78,0,0,1-3-2.8c0-1.65,1.1-2.22,2.45-1.26Z"/><path class="cls-22" d="M1701.41,736.82c1.35.95,1.1,1.82-.54,1.93l-1.77.12a2.78,2.78,0,0,1-3-2.8c0-1.65,1.1-2.22,2.45-1.26Z"/><path class="cls-25" d="M1699.06,752.48c.5.62.76,1.28.59,1.46s-.58,0-.89-.3l-1-1.13a.56.56,0,0,1,0-.83C1698,751.5,1698.56,751.86,1699.06,752.48Z"/><path class="cls-26" d="M1702.51,740.46a2.85,2.85,0,0,1,.36,1.66c-.12.2-.37,0-.57-.37l-.65-1.29a1,1,0,0,1,0-.94C1701.81,739.32,1702.2,739.74,1702.51,740.46Z"/><circle class="cls-27" cx="1696.2" cy="731.6" r="1.57"/><path class="cls-13" d="M1687.86,729.41c0-.73,2.11-1.09,4.6-.79s4.32,1,4.06,1.64-2.32,1-4.6.79S1687.82,730.14,1687.86,729.41Z"/><g class="cls-28"><path class="cls-23" d="M1755.93,799.36a7.38,7.38,0,0,1-7,7.33l-92.57,4.39a6.6,6.6,0,0,1-7-6.66l0-8c0-3.85,0-10.15,0-14l.1-46.93a7.33,7.33,0,0,1,7-7.23l91.92-3a6.8,6.8,0,0,1,7,6.77l.16,28.77c0,3.85,0,8.47.06,10.26s0,6.4.06,10.25v1.49c0,3.85.05,10.15.08,14Z"/></g><circle class="cls-29" cx="1696.55" cy="747.18" r="9.87"/><circle class="cls-29" cx="1696.12" cy="747.18" r="14.25"/><rect class="cls-5" x="1236.26" y="789.94" width="22.39" height="39.23" rx="10" ry="10"/><path class="cls-5" d="M1221.44,645.79c-5.5,9.53-1,17.32,10,17.32H1258c11,0,15.5-7.79,10-17.32l-13.27-23c-5.5-9.53-14.5-9.53-20,0Z"/><path class="cls-5" d="M1208.72,692.42c-6.3,9-2.46,16.4,8.54,16.4H1275c11,0,14.85-7.38,8.54-16.4l-25.94-37.13c-6.3-9-16.61-9-22.91,0Z"/><path class="cls-5" d="M1202.09,735.88c-7,8.49-3.71,15.44,7.29,15.44h75.06c11,0,14.28-7,7.29-15.44l-32.11-39c-7-8.49-18.43-8.49-25.42,0Z"/><path class="cls-5" d="M1194.13,783.62c-7,8.53-3.63,15.51,7.37,15.51h91.87c11,0,14.31-7,7.37-15.51l-40.68-49.94c-6.94-8.53-18.31-8.53-25.26,0Z"/><rect class="cls-5" x="1431.74" y="763.81" width="37.31" height="65.36" rx="10" ry="10"/><path class="cls-5" d="M1400.39,535.17c-5.5,9.53-1,17.32,10,17.32h70.84c11,0,15.5-7.79,10-17.32l-35.42-61.35c-5.5-9.53-14.5-9.53-20,0Z"/><path class="cls-5" d="M1378.22,612.25c-6.3,9-2.46,16.4,8.54,16.4h122.82c11,0,14.84-7.38,8.54-16.4l-58.5-83.72c-6.3-9-16.61-9-22.91,0Z"/><path class="cls-5" d="M1366.34,684c-7,8.5-3.71,15.45,7.29,15.45h151.7c11,0,14.29-7,7.3-15.45l-70.44-85.61c-7-8.5-18.43-8.5-25.41,0Z"/><path class="cls-5" d="M1353.13,763.62c-7,8.53-3.63,15.5,7.37,15.5h179.72c11,0,14.31-7,7.37-15.5L1463,659.74c-7-8.53-18.32-8.53-25.26,0Z"/><rect class="cls-6" x="173.76" y="738.94" width="52.45" height="98.56" rx="10" ry="10"/><path class="cls-6" d="M125.11,402.65c-5.21,9.68-.48,17.61,10.52,17.61H251.44c11,0,15.74-7.93,10.52-17.61L203,293.11c-5.22-9.68-13.75-9.68-19,0Z"/><path class="cls-6" d="M93.33,518.35c-6,9.21-1.91,16.76,9.09,16.76H291.29c11,0,15.09-7.55,9.09-16.76L207.77,376.17c-6-9.22-15.83-9.22-21.83,0Z"/><path class="cls-6" d="M76.13,626c-6.7,8.73-3.17,15.87,7.83,15.87H313.44c11,0,14.52-7.14,7.83-15.87l-110.4-144c-6.69-8.73-17.65-8.73-24.34,0Z"/><path class="cls-6" d="M57.59,746.11C50.94,754.87,54.5,762,65.5,762H334.36c11,0,14.56-7.17,7.91-15.93L212,574.55c-6.65-8.76-17.53-8.76-24.18,0Z"/><rect class="cls-6" x="1135.35" y="814.92" width="42.88" height="80.58" rx="10" ry="10"/><path class="cls-6" d="M1097.31,536.78c-5.21,9.69-.48,17.61,10.52,17.61h87.38c11,0,15.74-7.92,10.52-17.61L1161,453.66c-5.21-9.68-13.74-9.68-19,0Z"/><path class="cls-6" d="M1071.59,631.53c-6,9.21-1.91,16.76,9.09,16.76h147.11c11,0,15.09-7.55,9.09-16.76l-71.73-110.12c-6-9.22-15.83-9.22-21.83,0Z"/><path class="cls-6" d="M1057.76,719.73c-6.69,8.73-3.17,15.87,7.83,15.87H1245.9c11,0,14.52-7.14,7.83-15.87l-85.82-111.9c-6.69-8.73-17.64-8.73-24.34,0Z"/><path class="cls-6" d="M1042.59,817.88c-6.65,8.76-3.09,15.93,7.91,15.93H1263c11,0,14.56-7.17,7.91-15.93L1168.84,683.44c-6.65-8.76-17.53-8.76-24.18,0Z"/><rect class="cls-5" x="1813.45" y="778.41" width="58.04" height="109.09" rx="10" ry="10"/><path class="cls-5" d="M1758.6,408.1c-5.21,9.69-.48,17.61,10.52,17.61h132.44c11,0,15.74-7.92,10.53-17.61l-67.27-125c-5.21-9.68-13.74-9.68-19,0Z"/><path class="cls-5" d="M1723.27,536.06c-6,9.22-1.91,16.76,9.09,16.76h213.31c11,0,15.09-7.54,9.08-16.76L1849.93,375.12c-6-9.21-15.83-9.21-21.83,0Z"/><path class="cls-5" d="M1704.1,655.16c-6.69,8.73-3.17,15.87,7.83,15.87h258.25c11,0,14.53-7.14,7.83-15.87L1853.23,492.44c-6.7-8.73-17.65-8.73-24.35,0Z"/><path class="cls-5" d="M1683.59,788.05c-6.65,8.76-3.09,15.93,7.91,15.93h301.83c11,0,14.56-7.17,7.91-15.93L1854.51,594.77c-6.65-8.76-17.53-8.76-24.19,0Z"/><rect class="cls-9" x="1689.74" y="874.63" width="56.33" height="75.53" rx="10" ry="10"/><ellipse class="cls-30" cx="1735.58" cy="925.68" rx="0.86" ry="20.28"/><ellipse class="cls-30" cx="1729.13" cy="925.23" rx="0.43" ry="14.42"/><ellipse class="cls-30" cx="1720.11" cy="924.32" rx="0.86" ry="18.93"/><ellipse class="cls-30" cx="1708.08" cy="932.89" rx="0.86" ry="15.78"/><ellipse class="cls-30" cx="1714.09" cy="922.52" rx="0.86" ry="11.72"/><ellipse class="cls-30" cx="1696.91" cy="925.68" rx="0.86" ry="20.28"/><path class="cls-31" d="M1785.62,538.75c13.59,20.69,4.47,37.61-20.28,37.61h-96.47c-24.75,0-33.88-16.92-20.29-37.61l43.81-66.64c13.59-20.69,35.83-20.69,49.43,0Z"/><path class="cls-31" d="M1802.44,626.13c14.27,20.22,5.69,36.77-19.06,36.77H1650.82c-24.75,0-33.32-16.55-19.06-36.77l59.4-84.21c14.27-20.23,37.61-20.23,51.88,0Z"/><path class="cls-6" d="M1654.19,553.55c-2.5,3.62-.94,6.58,3.46,6.58h114.61c4.4,0,6-3,3.46-6.58l-56.22-81.49c-2.5-3.62-6.59-3.62-9.09,0Z"/><ellipse class="cls-31" cx="1772.96" cy="560.13" rx="21.05" ry="25.24"/><path class="cls-31" d="M1845.51,846.61c15.63,19.19,8.16,34.89-16.59,34.89H1607c-24.75,0-32.21-15.7-16.59-34.89l99.14-121.77c15.63-19.19,41.2-19.19,56.82,0Z"/><path class="cls-6" d="M1605.2,861.87c-2.56,3.57-1.06,6.5,3.34,6.5h217.64c4.4,0,5.9-2.93,3.34-6.5L1722,711.77c-2.56-3.58-6.76-3.58-9.32,0Z"/><ellipse class="cls-31" cx="1616.21" cy="872.63" rx="37.09" ry="38.77" transform="translate(-17.61 33.44) rotate(-1.18)"/><path class="cls-31" d="M1719.77,868.37c0,18.13,17,32.84,37.93,32.84s37.94-14.71,37.94-32.84Z"/><path class="cls-31" d="M1648.71,868.37c0,18.13,17,32.84,37.94,32.84s37.94-14.71,37.94-32.84Z"/><path class="cls-31" d="M1774.07,868.43c0,18.13,17,32.84,37.93,32.84s37.94-14.71,37.94-32.84Z"/><ellipse class="cls-31" cx="1711.95" cy="478.5" rx="13.32" ry="13.12"/><ellipse class="cls-31" cx="1699.06" cy="499.24" rx="13.32" ry="13.12"/><path class="cls-31" d="M1830.59,736.11c14.86,19.8,6.76,36-18,36H1622.47c-24.75,0-32.85-16.2-18-36l86.06-114.74c14.85-19.8,39.15-19.8,54,0Z"/><path class="cls-6" d="M1616.48,752.62c-2.42,3.68-.8,6.68,3.6,6.68H1813.9c4.4,0,6-3,3.6-6.68L1721.4,607c-2.43-3.67-6.39-3.67-8.82,0Z"/><ellipse class="cls-31" cx="1810.29" cy="762.01" rx="31.23" ry="35.21"/><path class="cls-31" d="M1719.15,759.3c0,17.68,15.26,32,34.07,32s34.07-14.33,34.07-32Z"/><path class="cls-31" d="M1655.34,759.3c0,17.68,15.26,32,34.07,32s34.07-14.33,34.07-32Z"/><path class="cls-31" d="M1602.76,759.36c0,17.67,15.26,32,34.07,32s34.07-14.34,34.07-32Z"/><path class="cls-6" d="M1637.54,645.28c-2.32,3.74-.62,6.8,3.78,6.8H1792c4.4,0,6.11-3.06,3.79-6.8l-74.92-120.72c-2.32-3.74-6.12-3.74-8.44,0Z"/><ellipse class="cls-31" cx="1646.1" cy="652.08" rx="24.81" ry="29.75"/><path class="cls-31" d="M1715.81,559.23c0,13.94,9.43,25.24,21.06,25.24s21.05-11.3,21.05-25.24Z"/><path class="cls-31" d="M1676.29,559.23c0,13.94,9.42,25.24,21,25.24s21.05-11.3,21.05-25.24Z"/><path class="cls-31" d="M1647.08,559.23c0,13.94,9.42,25.24,21.05,25.24s21-11.3,21-25.24Z"/><path class="cls-31" d="M1718.39,652.08a27.07,27.07,0,0,0,54.14,0Z"/><path class="cls-31" d="M1667.69,652.08a27.07,27.07,0,0,0,54.14,0Z"/><path class="cls-31" d="M1749.32,652.08a27.07,27.07,0,0,0,54.13,0Z"/><ellipse class="cls-31" cx="1660.96" cy="860.32" rx="21.59" ry="20.73"/><ellipse class="cls-31" cx="1772.67" cy="759.36" rx="21.59" ry="20.73"/><path class="cls-31" d="M1729.56,526.78a7.74,7.74,0,1,0,15.47,0Z"/><path class="cls-31" d="M1686.6,543.46a7.31,7.31,0,1,0,14.61,0Z"/><path class="cls-31" d="M1739.87,607.35c0,5.49,3.27,9.94,7.31,9.94s7.3-4.45,7.3-9.94Z"/><path class="cls-31" d="M1684,599.35a7.31,7.31,0,1,0,14.61,0Z"/><path class="cls-31" d="M1705.5,630.45a7.74,7.74,0,1,0,15.47,0Z"/><path class="cls-31" d="M1678.86,702c0,4.42,2.89,8,6.45,8s6.44-3.57,6.44-8Z"/><path class="cls-31" d="M1747.58,708.19c0,3.63,3.46,6.58,7.74,6.58s7.75-2.95,7.75-6.58Z"/><path class="cls-31" d="M1655.66,740.08a6,6,0,1,0,12,0Z"/><path class="cls-31" d="M1713.24,725.65a6,6,0,1,0,12,0Z"/><path class="cls-31" d="M1763.07,815.25c0,5.48,3.27,9.91,7.31,9.91s7.3-4.43,7.3-9.91Z"/><path class="cls-31" d="M1715.81,803.53a6.88,6.88,0,1,0,13.75,0Z"/><path class="cls-31" d="M1676.29,817.05a7.74,7.74,0,1,0,15.46,0Z"/><path class="cls-31" d="M1729.56,845.9c0,5.48,3.27,9.91,7.31,9.91s7.3-4.43,7.3-9.91Z"/><path class="cls-31" d="M1787.13,848.3a6.45,6.45,0,1,0,12.89,0Z"/><circle class="cls-32" cx="314" cy="165.5" r="55"/><circle class="cls-33" cx="314.5" cy="166" r="66.5"/><circle class="cls-34" cx="314" cy="165.5" r="76"/><g class="cls-35"><path class="cls-15" d="M1662.87,227.06c1.58.33,1.58.83,0,1.09s-3.72,2.08-4.77,4l-.2.38c-1.05,1.93-1.9,3.59-1.9,3.68s-.85-1.42-1.9-3.35l-.2-.38c-1.05-1.93-3.25-3.74-4.9-4s-3-.51-3-.52,1.35-.3,3-.64,3.71-2.29,4.58-4.31l.84-1.94c.87-2,1.58-3.73,1.58-3.79s.71,1.55,1.58,3.57l.84,1.95C1659.29,224.81,1661.29,226.73,1662.87,227.06Z"/></g><g class="cls-35"><path class="cls-15" d="M123.08,88c1.52.32,1.52.79,0,1s-3.6,2-4.65,4v0c-1,1.94-1.9,3.59-1.9,3.68s-.85-1.42-1.89-3.35l0,0c-1-1.94-3.18-3.74-4.75-4s-2.86-.49-2.86-.5l2.86-.61c1.57-.33,3.57-2.26,4.44-4.28l.64-1.5c.87-2,1.58-3.72,1.58-3.78s.72,1.55,1.59,3.57l.64,1.51C119.62,85.76,121.57,87.67,123.08,88Z"/></g><g class="cls-35"><path class="cls-15" d="M34.84,240.36c0-.2.48-.38,1.08-.41a8.89,8.89,0,0,0,2.19-.45,15.1,15.1,0,0,0,1.8-.8l1.44-.77a2.82,2.82,0,0,0,1-1.12l.68-1.45a3.76,3.76,0,0,0,.3-1.44l-.08-1.78L43.21,230c0-.58.11-1.07.31-1.08s.39.3.4.7L44,231l.06,1.42.05,1.07,0,.71a3.19,3.19,0,0,0,.41,1l.8,1.39a2.91,2.91,0,0,0,1.15,1,16.88,16.88,0,0,0,1.87.63,8.84,8.84,0,0,0,2.21.26l1.84-.08c.4,0,.74.19.76.47s-.8.64-1.81.79a19.64,19.64,0,0,0-2.91.69,5.74,5.74,0,0,0-1.79,1.15l-1,1.12a4.59,4.59,0,0,0-.67,1.45,6.72,6.72,0,0,0-.29,1.8l.06,1.42a.73.73,0,0,1-.7.75c-.4,0-.76-.61-.8-1.39l-.09-2.14a3.82,3.82,0,0,0-.43-1.41,5.19,5.19,0,0,0-.78-1l-.77-.68a4.92,4.92,0,0,0-1.31-.66,5.89,5.89,0,0,0-1.85-.28l-2,.1C35.35,240.69,34.85,240.55,34.84,240.36Z"/></g><g class="cls-35"><path class="cls-15" d="M748.77,85.77c0-.19.44-.36,1-.39a7.24,7.24,0,0,0,2-.43,14.08,14.08,0,0,0,1.66-.75l1.32-.73a2.68,2.68,0,0,0,1-1.06l.62-1.38a3.56,3.56,0,0,0,.27-1.37L756.55,78l-.09-2c0-.56.11-1,.29-1s.35.29.37.66l.06,1.35.06,1.36,0,1,0,.68a3.12,3.12,0,0,0,.38,1l.73,1.32a2.75,2.75,0,0,0,1.06,1,16,16,0,0,0,1.72.6,8,8,0,0,0,2,.25L765,84a.62.62,0,0,1,.7.45c0,.27-.74.61-1.66.76a16.11,16.11,0,0,0-2.69.65A5,5,0,0,0,759.66,87l-1,1.06a4.53,4.53,0,0,0-.62,1.38,6.58,6.58,0,0,0-.26,1.7l.06,1.35a.67.67,0,0,1-.65.71c-.37,0-.7-.58-.73-1.32l-.09-2a3.81,3.81,0,0,0-.4-1.34,5,5,0,0,0-.72-1l-.71-.65a4.64,4.64,0,0,0-1.2-.63,5.08,5.08,0,0,0-1.71-.26l-1.86.09C749.24,86.08,748.77,86,748.77,85.77Z"/></g><g class="cls-35"><path class="cls-15" d="M1003.5,256.22c1.74.36,1.74.9,0,1.19a8.46,8.46,0,0,0-5.07,4l-.58,1.08c-1,1.93-1.9,3.6-1.9,3.71s-.85-1.4-1.9-3.34l-.58-1.07a8.55,8.55,0,0,0-5.18-4.08l-3.29-.58,3.29-.7a8.09,8.09,0,0,0,4.86-4.37l1.22-2.83c.87-2,1.58-3.73,1.58-3.79s.71,1.53,1.58,3.55l1.22,2.83A8,8,0,0,0,1003.5,256.22Z"/></g><g class="cls-35"><path class="cls-15" d="M1272.15,129.31c.94.28.94.68,0,.91s-2.25,1.79-2.9,3.48-1.19,3.16-1.19,3.24-.54-1.25-1.19-2.95-2-3.28-3-3.51-1.78-.43-1.78-.44l1.78-.54c1-.29,2.31-2.24,3-4.35l0-.09c.64-2.11,1.17-3.87,1.17-3.92s.53,1.63,1.17,3.74l0,.09C1269.91,127.08,1271.21,129,1272.15,129.31Z"/></g><g class="cls-35"><path class="cls-15" d="M1799.57,105.3c0-.29.69-.57,1.57-.61a11.81,11.81,0,0,0,3.17-.67,24.92,24.92,0,0,0,2.62-1.18l2.08-1.16a4.15,4.15,0,0,0,1.52-1.67l1-2.18a5.51,5.51,0,0,0,.44-2.15l-.12-2.66-.14-3.19c0-.88.17-1.61.46-1.63s.56.46.58,1l.1,2.12.09,2.13.07,1.6,0,1.07a4.87,4.87,0,0,0,.6,1.57l1.16,2.08a4.24,4.24,0,0,0,1.67,1.53,26.14,26.14,0,0,0,2.71.94,11.88,11.88,0,0,0,3.22.39l2.66-.11c.58,0,1.08.29,1.1.71s-1.16,1-2.62,1.18a26.61,26.61,0,0,0-4.22,1,8.12,8.12,0,0,0-2.59,1.71l-1.53,1.67a7.32,7.32,0,0,0-1,2.18,10.6,10.6,0,0,0-.41,2.68l.09,2.13a1.06,1.06,0,0,1-1,1.11c-.59,0-1.11-.91-1.16-2.08l-.14-3.19a5.75,5.75,0,0,0-.63-2.11,7.5,7.5,0,0,0-1.14-1.55l-1.11-1a7.1,7.1,0,0,0-1.9-1,8,8,0,0,0-2.68-.41l-2.94.14C1800.31,105.8,1799.58,105.59,1799.57,105.3Z"/></g><g class="cls-35"><path class="cls-15" d="M1039.2,65.84c1.41.29,1.41.71,0,.94s-3.37,1.85-4.35,3.59-1.79,3.24-1.79,3.32-.81-1.29-1.79-3a7.63,7.63,0,0,0-4.47-3.61c-1.47-.24-2.68-.44-2.68-.45l2.68-.56c1.48-.3,3.42-2.18,4.32-4.19l.3-.66c.9-2,1.64-3.69,1.64-3.74s.74,1.55,1.64,3.56l.3.67C1035.9,63.68,1037.79,65.56,1039.2,65.84Z"/></g><rect class="cls-9" x="624.74" y="894.63" width="56.33" height="75.53" rx="10" ry="10"/><ellipse class="cls-30" cx="670.58" cy="945.68" rx="0.86" ry="20.28"/><ellipse class="cls-30" cx="664.13" cy="945.23" rx="0.43" ry="14.42"/><ellipse class="cls-30" cx="655.11" cy="944.32" rx="0.86" ry="18.93"/><ellipse class="cls-30" cx="643.08" cy="952.89" rx="0.86" ry="15.78"/><ellipse class="cls-30" cx="649.09" cy="942.52" rx="0.86" ry="11.72"/><ellipse class="cls-30" cx="631.91" cy="945.68" rx="0.86" ry="20.28"/><path class="cls-31" d="M720.62,558.75c13.59,20.69,4.47,37.61-20.28,37.61H603.87c-24.75,0-33.88-16.92-20.29-37.61l43.81-66.64c13.59-20.69,35.83-20.69,49.43,0Z"/><path class="cls-31" d="M737.44,646.13c14.27,20.22,5.69,36.77-19.06,36.77H585.82c-24.75,0-33.32-16.55-19.06-36.77l59.4-84.21c14.27-20.23,37.61-20.23,51.88,0Z"/><path class="cls-6" d="M589.19,573.55c-2.5,3.62-.94,6.58,3.46,6.58H707.26c4.4,0,6-3,3.46-6.58L654.5,492.06c-2.5-3.62-6.59-3.62-9.09,0Z"/><ellipse class="cls-31" cx="707.96" cy="580.13" rx="21.05" ry="25.24"/><path class="cls-31" d="M780.51,866.61c15.63,19.19,8.16,34.89-16.59,34.89H542c-24.75,0-32.21-15.7-16.59-34.89l99.14-121.77c15.63-19.19,41.2-19.19,56.82,0Z"/><path class="cls-6" d="M540.2,881.87c-2.56,3.57-1.06,6.5,3.34,6.5H761.18c4.4,0,5.9-2.93,3.34-6.5L657,731.77c-2.56-3.58-6.76-3.58-9.32,0Z"/><ellipse class="cls-31" cx="551.21" cy="892.63" rx="37.09" ry="38.77" transform="translate(-18.25 11.53) rotate(-1.18)"/><path class="cls-31" d="M654.77,888.37c0,18.13,17,32.84,37.93,32.84s37.94-14.71,37.94-32.84Z"/><path class="cls-31" d="M583.71,888.37c0,18.13,17,32.84,37.94,32.84s37.94-14.71,37.94-32.84Z"/><path class="cls-31" d="M709.07,888.43c0,18.13,17,32.84,37.93,32.84s37.94-14.71,37.94-32.84Z"/><ellipse class="cls-31" cx="646.95" cy="498.5" rx="13.32" ry="13.12"/><ellipse class="cls-31" cx="634.06" cy="519.24" rx="13.32" ry="13.12"/><path class="cls-31" d="M765.59,756.11c14.86,19.8,6.76,36-18,36H557.47c-24.75,0-32.85-16.2-18-36l86.06-114.74c14.85-19.8,39.15-19.8,54,0Z"/><path class="cls-6" d="M551.48,772.62c-2.42,3.68-.8,6.68,3.6,6.68H748.9c4.4,0,6-3,3.6-6.68L656.4,627c-2.43-3.67-6.39-3.67-8.82,0Z"/><ellipse class="cls-31" cx="745.29" cy="782.01" rx="31.23" ry="35.21"/><path class="cls-31" d="M654.15,779.3c0,17.68,15.26,32,34.07,32s34.07-14.33,34.07-32Z"/><path class="cls-31" d="M590.34,779.3c0,17.68,15.26,32,34.07,32s34.07-14.33,34.07-32Z"/><path class="cls-31" d="M537.76,779.36c0,17.67,15.26,32,34.07,32s34.07-14.34,34.07-32Z"/><path class="cls-6" d="M572.54,665.28c-2.32,3.74-.62,6.8,3.78,6.8H727c4.4,0,6.11-3.06,3.79-6.8L655.89,544.56c-2.32-3.74-6.12-3.74-8.44,0Z"/><ellipse class="cls-31" cx="581.1" cy="672.08" rx="24.81" ry="29.75"/><path class="cls-31" d="M650.81,579.23c0,13.94,9.43,25.24,21.06,25.24s21-11.3,21-25.24Z"/><path class="cls-31" d="M611.29,579.23c0,13.94,9.42,25.24,21.05,25.24s21-11.3,21-25.24Z"/><path class="cls-31" d="M582.08,579.23c0,13.94,9.42,25.24,21,25.24s21-11.3,21-25.24Z"/><path class="cls-31" d="M653.39,672.08a27.07,27.07,0,0,0,54.14,0Z"/><path class="cls-31" d="M602.69,672.08a27.07,27.07,0,0,0,54.14,0Z"/><path class="cls-31" d="M684.32,672.08a27.07,27.07,0,0,0,54.13,0Z"/><ellipse class="cls-31" cx="595.96" cy="880.32" rx="21.59" ry="20.73"/><ellipse class="cls-31" cx="707.67" cy="779.36" rx="21.59" ry="20.73"/><path class="cls-31" d="M664.56,546.78a7.74,7.74,0,1,0,15.47,0Z"/><path class="cls-31" d="M621.6,563.46a7.31,7.31,0,1,0,14.61,0Z"/><path class="cls-31" d="M674.87,627.35c0,5.49,3.27,9.94,7.31,9.94s7.3-4.45,7.3-9.94Z"/><path class="cls-31" d="M619,619.35a7.31,7.31,0,1,0,14.61,0Z"/><path class="cls-31" d="M640.5,650.45a7.74,7.74,0,1,0,15.47,0Z"/><path class="cls-31" d="M613.86,722c0,4.42,2.89,8,6.45,8s6.44-3.57,6.44-8Z"/><path class="cls-31" d="M682.58,728.19c0,3.63,3.46,6.58,7.74,6.58s7.75-2.95,7.75-6.58Z"/><path class="cls-31" d="M590.66,760.08a6,6,0,1,0,12,0Z"/><path class="cls-31" d="M648.24,745.65a6,6,0,1,0,12,0Z"/><path class="cls-31" d="M698.07,835.25c0,5.48,3.27,9.91,7.31,9.91s7.3-4.43,7.3-9.91Z"/><path class="cls-31" d="M650.81,823.53a6.88,6.88,0,1,0,13.75,0Z"/><path class="cls-31" d="M611.29,837.05a7.74,7.74,0,1,0,15.46,0Z"/><path class="cls-31" d="M664.56,865.9c0,5.48,3.27,9.91,7.31,9.91s7.3-4.43,7.3-9.91Z"/><path class="cls-31" d="M722.13,868.3a6.45,6.45,0,1,0,12.89,0Z"/></g></svg>