<svg xmlns="http://www.w3.org/2000/svg" width="267" height="212" viewBox="0 0 267 212"><defs><style>.cls-1{fill:#663c32;}.cls-2{fill:#562f27;}.cls-3{fill:#28100b;}.cls-4{fill:#dd5e45;}.cls-5{fill:#d83f32;}.cls-6{fill:#e2d681;}.cls-7{fill:#377e62;}.cls-8{fill:#191919;}.cls-14,.cls-9{fill:none;stroke:#191919;stroke-miterlimit:10;}.cls-9{stroke-width:3px;}.cls-10,.cls-16{fill:#f5a631;}.cls-11{fill:#001919;}.cls-12{fill:#efc389;}.cls-13{fill:#eaceac;}.cls-14{stroke-width:5px;}.cls-15,.cls-16{opacity:0.1;}</style></defs><title>stue_right</title><g id="Layer_4" data-name="Layer 4"><path class="cls-1" d="M.45,192.69a7.39,7.39,0,0,0,7,7.33l245.43,11.66a6.61,6.61,0,0,0,7-6.67l-.09-39.49c0-3.85,0-10.15,0-14l-.28-134.33a7.33,7.33,0,0,0-7-7.23L8.53,1.93a6.78,6.78,0,0,0-7,6.77L1,98.83c0,3.85-.06,10.15-.08,14l0,1.84c0,3.85-.06,10.15-.08,14L.68,152.38c0,3.85-.06,10.15-.08,14Z"/><path class="cls-2" d="M120.92,5.22,235.14,6.64l17.52.3,2.59-.05,2.61,2.84,1.68,3.67.08,3.82A67,67,0,0,0,260,37.55l.53,25.66A45.86,45.86,0,0,0,260,75.92h-.31c0,1.9.17,3.78.19,5.68-.13,1.85-.35,3.7-.53,5.55h-.24c0,.75,0,1.51.07,2.26,0,.54-.06,1.07-.07,1.61h.14c.16,3.09.41,6.17.48,9.26.1,4.75-.76,9.42-.43,14.17,0,0,.11,0,.29,0,0,1.2.06,2.39.08,3.59-.3,4.46-.18,8.93-.17,13.4h.16c-.53,2.87.18,6.09.23,8.9h.12c0,1.34.05,2.67.12,4,0,0-.05,0-.05,0-.5,4.53-.83,9.07-.93,13.63l-138.33-8.76Z"/><polygon class="cls-3" points="0.41 199.69 259.83 212.01 259.72 158.52 121.65 147.38 0.64 159.38 0.41 199.69"/><path class="cls-4" d="M1.14,123.56a4.69,4.69,0,0,0,4.68,5l1.35,0,10,.09,3.39,0,10,.09,61,.53,10,.09,27.36.25a5.32,5.32,0,0,0,5.29-5l.36-6.42a4.7,4.7,0,0,0-4.71-5l-123-.55a5.38,5.38,0,0,0-5.31,5Z"/><path class="cls-4" d="M92.63,179.88a6.8,6.8,0,0,0,4.85-6.23l.1-45.86a5,5,0,0,0-5-5h-.87a5,5,0,0,0-5,5l-.1,48.65a3.69,3.69,0,0,0,4.83,3.76Z"/><path class="cls-4" d="M20.15,123a5,5,0,0,1,5,5.05l-.42,48.38a6.52,6.52,0,0,1-4.93,6l-3,.65a3.85,3.85,0,0,1-4.85-4L12.36,128a5,5,0,0,1,5-5Z"/><path class="cls-5" d="M44,107a9.19,9.19,0,0,1-9.89,9.37l-1.26-.08a10.82,10.82,0,0,1-10-10.63v-4.78a9.51,9.51,0,0,1,10-9.56l1,0A10.7,10.7,0,0,1,43.92,101.8Z"/><path class="cls-5" d="M51.49,100.46c-.06-5.5-2.61-9.7-5.68-9.33s-5.56,5.17-5.54,10.67l0,5.19c0,5.5,2.59,9.66,5.7,9.23s5.62-5.27,5.56-10.77Z"/><path class="cls-5" d="M45.86,91.28a95.45,95.45,0,0,1-14.28.22c-4.81-.27-6.2-.9-3.08-1.39a76.44,76.44,0,0,1,14.28-.22C47.51,90.25,48.9,90.88,45.86,91.28Z"/><polygon class="cls-6" points="30.54 116.14 30.54 91.28 32.08 91.28 32.08 116.24 30.54 116.14"/><polygon class="cls-6" points="22.97 101.85 40.46 103.05 40.37 104.8 22.87 103.6 22.97 101.85"/><polygon class="cls-6" points="32.08 91.28 30.54 91.28 40.33 89.84 41.87 89.84 32.08 91.28"/><polygon class="cls-6" points="46.31 91.08 47.22 90.97 30.54 89.73 29.45 89.84 46.31 91.08"/><polygon class="cls-6" points="46.31 91.08 46.31 116.17 47.22 115.96 47.22 90.97 46.31 91.08"/><polygon class="cls-6" points="40.33 103.16 51.39 102.02 51.39 103.57 40.33 104.81 40.33 103.16"/><path class="cls-6" d="M43.76,90.44c.41,0,.75.29.75.58a.44.44,0,0,1-.59.4,8.84,8.84,0,0,0-1.34-.15c-.42,0-1.11-.09-1.54-.16a5.63,5.63,0,0,1-1.34-.37,2.53,2.53,0,0,1-.84-1.57,10.58,10.58,0,0,1-.15-2.77A5.19,5.19,0,0,1,39.59,84a1.18,1.18,0,0,1,1.47-.43,2.81,2.81,0,0,1,.88,1.75,4.92,4.92,0,0,1-.62,2.59,6.2,6.2,0,0,1-2,2,5.33,5.33,0,0,1-1.62.68,3.9,3.9,0,0,1-1.3-.49A4.52,4.52,0,0,1,35,88.28a12,12,0,0,1-.77-2.71,2.59,2.59,0,0,1,.4-1.91,2.65,2.65,0,0,1,1.6-.55c.57,0,1.26.68,1.54,1.51A14.16,14.16,0,0,1,38.31,87a2.41,2.41,0,0,1-.15,1.23,6.76,6.76,0,0,1-.82.89l-1,.89a2.92,2.92,0,0,1-1,.53,15.18,15.18,0,0,1-1.78.24c-.64.06-1.6.1-2.13.1s-.94-.24-.9-.53a.68.68,0,0,1,.68-.52c.34,0,1,0,1.41-.09s1.11-.09,1.51-.09a3.09,3.09,0,0,0,1.34-.37c.34-.21.83-.54,1.08-.74a3.41,3.41,0,0,0,.7-.8A4.44,4.44,0,0,0,37,85.6c-.25-.93-.75-1.67-1.12-1.63a1.57,1.57,0,0,0-.94.4,2,2,0,0,0,0,1.38,13.38,13.38,0,0,0,.66,1.94,3.9,3.9,0,0,0,1.14,1.42,2.85,2.85,0,0,0,1.27.53,2.42,2.42,0,0,0,1.17-.5,9.64,9.64,0,0,0,1.08-1A8.76,8.76,0,0,0,41,87a3,3,0,0,0,.17-1.58,1.88,1.88,0,0,0-.48-1.1c-.18-.11-.54.13-.79.52a4.49,4.49,0,0,0-.55,1.79,8.31,8.31,0,0,0,.22,2.28c.17.66.62,1.25,1,1.32a12,12,0,0,0,1.56.15C42.63,90.36,43.35,90.4,43.76,90.44Z"/><path class="cls-7" d="M90.42,110.2a9.06,9.06,0,0,0,9.9,9.24l7.56-.58a11,11,0,0,0,10-10.76V89.46a9.41,9.41,0,0,0-10-9.47l-7.24.38A10.8,10.8,0,0,0,90.56,90.91Z"/><path class="cls-7" d="M80.75,88.81c0-5.5,3.34-9.53,7.31-9s7.21,5.55,7.2,11L95.2,110.2c0,5.5-3.34,9.45-7.37,8.79s-7.31-5.71-7.26-11.21Z"/><path class="cls-7" d="M88,80.1a94.16,94.16,0,0,0,17.15.44l2.72-.19c5.49-.38,6.67-1.31,2.63-2.08a76.3,76.3,0,0,0-17.3-.46L90.79,78C85.32,78.55,84.06,79.48,88,80.1Z"/><polygon class="cls-6" points="107.86 118.87 107.86 80.1 105.86 80.1 105.86 119.02 107.86 118.87"/><polygon class="cls-6" points="117.68 96.58 95 98.45 95.11 101.18 117.8 99.31 117.68 96.58"/><polygon class="cls-6" points="105.86 80.1 107.86 80.1 95.17 77.85 93.17 77.85 105.86 80.1"/><polygon class="cls-6" points="87.42 79.78 86.24 79.62 107.86 77.69 109.27 77.85 87.42 79.78"/><polygon class="cls-6" points="87.42 79.78 87.42 118.91 86.24 118.59 86.24 79.62 87.42 79.78"/><polygon class="cls-6" points="95.17 98.62 80.83 96.85 80.83 99.26 95.17 101.2 95.17 98.62"/><path class="cls-6" d="M90.72,78.78a1,1,0,0,0-1,.91.61.61,0,0,0,.77.63,10.75,10.75,0,0,1,1.74-.24c.53,0,1.43-.14,2-.24A7.55,7.55,0,0,0,96,79.26a4.26,4.26,0,0,0,1.08-2.45,20.51,20.51,0,0,0,.2-4.32,9.16,9.16,0,0,0-1.14-3.7c-.53-.79-1.39-1.09-1.91-.67a4.74,4.74,0,0,0-1.14,2.74,8.94,8.94,0,0,0,.8,4A9.22,9.22,0,0,0,96.44,78a6.82,6.82,0,0,0,2.11,1.06,4.47,4.47,0,0,0,1.68-.77,6.85,6.85,0,0,0,1.91-2.88,21.46,21.46,0,0,0,1-4.23,4.76,4.76,0,0,0-.51-3,3.09,3.09,0,0,0-2.08-.87c-.74,0-1.64,1.06-2,2.36a27.25,27.25,0,0,0-.77,3.69,4.49,4.49,0,0,0,.2,1.92A9.71,9.71,0,0,0,99,76.72c.4.45,1,1.07,1.28,1.39a3.67,3.67,0,0,0,1.34.82,16,16,0,0,0,2.31.38c.83.08,2.07.14,2.76.14s1.21-.36,1.17-.81a.93.93,0,0,0-.89-.82,16,16,0,0,1-1.82-.14,17,17,0,0,0-2-.15,3.56,3.56,0,0,1-1.74-.57,15.69,15.69,0,0,1-1.4-1.16,4.82,4.82,0,0,1-.91-1.24,8.8,8.8,0,0,1,.28-3.32c.33-1.45,1-2.6,1.46-2.54a1.91,1.91,0,0,1,1.22.62,3.72,3.72,0,0,1,0,2.16,27.12,27.12,0,0,1-.85,3,6.4,6.4,0,0,1-1.48,2.21,3.4,3.4,0,0,1-1.66.81,2.87,2.87,0,0,1-1.51-.76,12.55,12.55,0,0,1-1.39-1.59,11.34,11.34,0,0,1-1-1.82,5.51,5.51,0,0,1-.23-2.45,3.21,3.21,0,0,1,.63-1.73c.23-.16.69.21,1,.81a8.37,8.37,0,0,1,.72,2.79,15.69,15.69,0,0,1-.29,3.55c-.22,1-.81,2-1.31,2.07a16.71,16.71,0,0,1-2,.24C92.19,78.66,91.25,78.73,90.72,78.78Z"/><path class="cls-5" d="M230.73,159.31a9.18,9.18,0,0,1-9.89,9.36l-52.72-3.37a10.84,10.84,0,0,1-10-10.64V88.85a9.5,9.5,0,0,1,10-9.55l52,2.32a10.71,10.71,0,0,1,10.08,10.45Z"/><path class="cls-5" d="M256.06,87.42a8.78,8.78,0,0,0-10-8.79l-18.33,2.23a11.57,11.57,0,0,0-9.89,11.21l.24,67.24a8.53,8.53,0,0,0,9.94,8.63l19-2.63a11.69,11.69,0,0,0,9.8-11.37Z"/><path class="cls-5" d="M228,81.47a128.48,128.48,0,0,1-19.9.74l-40-2.32c-5.49-.32-5.53-1.29-.1-2.15l19.06-3a102.11,102.11,0,0,1,19.85-.79L246,77c5.48.43,5.51,1.38,0,2.1Z"/><polygon class="cls-6" points="184.53 166.35 184.53 80.28 189.81 80.28 189.81 166.69 184.53 166.35"/><polygon class="cls-6" points="158.59 116.87 218.53 121.01 218.22 127.08 158.28 122.94 158.59 116.87"/><polygon class="cls-6" points="189.81 80.28 184.54 80.28 218.07 75.28 223.35 75.28 189.81 80.28"/><polygon class="cls-6" points="238.57 79.57 241.67 79.21 184.54 74.92 180.81 75.28 238.57 79.57"/><polygon class="cls-6" points="238.57 79.57 238.57 166.44 241.67 165.73 241.67 79.21 238.57 79.57"/><polygon class="cls-6" points="218.07 121.4 255.96 117.47 255.96 122.83 218.07 127.12 218.07 121.4"/><path class="cls-6" d="M229.84,77.35c1.41.12,2.56,1,2.56,2a1.53,1.53,0,0,1-2,1.39,33.61,33.61,0,0,0-4.6-.54c-1.41-.06-3.78-.3-5.27-.53a21.92,21.92,0,0,1-4.59-1.28c-1-.47-2.32-2.92-2.86-5.44a38.56,38.56,0,0,1-.53-9.6,18.06,18.06,0,0,1,3-8.21c1.41-1.76,3.68-2.43,5.05-1.49s2.72,3.67,3,6.08a17.26,17.26,0,0,1-2.11,9,21.82,21.82,0,0,1-6.78,6.93c-2.27,1.29-4.78,2.34-5.57,2.34a13,13,0,0,1-4.44-1.7c-1.66-.94-3.93-3.82-5-6.4A41.75,41.75,0,0,1,197,60.51c-.33-2.58.28-5.56,1.36-6.62A9,9,0,0,1,203.86,52c1.95,0,4.32,2.35,5.27,5.22a50.07,50.07,0,0,1,2,8.21,8.53,8.53,0,0,1-.53,4.27,22.05,22.05,0,0,1-2.79,3.09c-1.07,1-2.6,2.39-3.39,3.09a9.84,9.84,0,0,1-3.53,1.81,47.5,47.5,0,0,1-6.1.86c-2.2.17-5.48.32-7.31.32S184.31,78,184.44,77a2.31,2.31,0,0,1,2.33-1.81c1.16,0,3.33-.14,4.82-.32s3.83-.32,5.19-.32a10.54,10.54,0,0,0,4.6-1.28,38.72,38.72,0,0,0,3.69-2.56A11.64,11.64,0,0,0,207.48,68c.45-.82.11-4.13-.76-7.36s-2.59-5.77-3.84-5.65a5.47,5.47,0,0,0-3.23,1.39c-.54.64-.58,2.8-.08,4.8a50.76,50.76,0,0,0,2.26,6.71,14,14,0,0,0,3.91,4.91,9.77,9.77,0,0,0,4.37,1.81,8.08,8.08,0,0,0,4-1.71,29,29,0,0,0,3.69-3.51,25.53,25.53,0,0,0,2.64-4.06,10.48,10.48,0,0,0,.6-5.43c-.29-1.76-1-3.49-1.66-3.84s-1.84.46-2.71,1.81A16,16,0,0,0,214.78,64a29.07,29.07,0,0,0,.75,7.9c.58,2.28,2.14,4.35,3.47,4.58a48.49,48.49,0,0,0,5.34.53C226,77.09,228.43,77.24,229.84,77.35Z"/><path class="cls-7" d="M197.54,159.31a9.37,9.37,0,0,0,9.86,9.57l39.5-1.69a10.55,10.55,0,0,0,10-10.42V129.92a9.68,9.68,0,0,0-10-9.7L208,121.38a10.57,10.57,0,0,0-10.13,10.3Z"/><path class="cls-7" d="M176.68,129.14A9.28,9.28,0,0,1,186.81,120l11.32.92A11,11,0,0,1,208,131.68l-.15,27.63a9,9,0,0,1-10,9.08L186,167.3a11,11,0,0,1-9.79-10.92Z"/><path class="cls-7" d="M197.88,121.19a189.76,189.76,0,0,0,20,.49l29.07-1.12c5.49-.21,5.51-.86,0-1.44l-11.87-1.26a154.3,154.3,0,0,0-19.94-.54l-28.31,1.49c-5.49.29-5.5.92,0,1.4Z"/><polygon class="cls-6" points="235.29 167.69 235.29 120.7 230.97 120.7 230.97 167.88 235.29 167.69"/><polygon class="cls-6" points="256.52 140.68 207.46 142.94 207.72 146.25 256.78 143.99 256.52 140.68"/><polygon class="cls-6" points="230.97 120.7 235.29 120.7 207.84 117.97 203.52 117.97 230.97 120.7"/><polygon class="cls-6" points="191.07 120.31 188.53 120.12 235.29 117.78 238.34 117.97 191.07 120.31"/><polygon class="cls-6" points="191.07 120.31 191.07 167.74 188.53 167.35 188.53 120.12 191.07 120.31"/><polygon class="cls-6" points="207.84 143.15 176.84 141 176.84 143.93 207.84 146.27 207.84 143.15"/><path class="cls-6" d="M198.21,119.11c-1.15.06-2.09.56-2.09,1.1s.74.89,1.66.76,2.61-.26,3.76-.29,3.09-.17,4.31-.29a26.17,26.17,0,0,0,3.76-.7,4.82,4.82,0,0,0,2.34-3,14.13,14.13,0,0,0,.43-5.24,8.14,8.14,0,0,0-2.46-4.48,4.37,4.37,0,0,0-4.13-.82,5,5,0,0,0-2.47,3.32,7,7,0,0,0,1.73,4.89,16.08,16.08,0,0,0,5.55,3.78,20.08,20.08,0,0,0,4.56,1.28,14,14,0,0,0,3.63-.93,10.14,10.14,0,0,0,4.13-3.49,17.28,17.28,0,0,0,2.16-5.12A3.77,3.77,0,0,0,224,106.3a9.86,9.86,0,0,0-4.5-1,5.39,5.39,0,0,0-4.31,2.85,20.58,20.58,0,0,0-1.67,4.49,3.23,3.23,0,0,0,.43,2.32,14.93,14.93,0,0,0,2.28,1.69c.88.55,2.13,1.31,2.78,1.69a10.11,10.11,0,0,0,2.89,1c.95.16,3.2.37,5,.47s4.49.17,6,.17,2.63-.44,2.53-1-1-1-1.91-1-2.73-.08-4-.17-3.13-.18-4.25-.18a11.84,11.84,0,0,1-3.76-.7c-.95-.38-2.3-1-3-1.39a8.1,8.1,0,0,1-2-1.52c-.37-.45-.09-2.25.62-4s2.12-3.15,3.14-3.09a5.76,5.76,0,0,1,2.65.76c.44.35.47,1.53.06,2.62a21.27,21.27,0,0,1-1.85,3.66,9.11,9.11,0,0,1-3.2,2.68,10.41,10.41,0,0,1-3.57,1,8.67,8.67,0,0,1-3.27-.93,22.9,22.9,0,0,1-3-1.92,15,15,0,0,1-2.16-2.21,4,4,0,0,1-.49-3,3.32,3.32,0,0,1,1.36-2.1c.5-.19,1.5.26,2.21,1a6.75,6.75,0,0,1,1.54,3.38,10.88,10.88,0,0,1-.61,4.31,4.06,4.06,0,0,1-2.84,2.5c-1.08.13-3.05.26-4.37.29S199.36,119,198.21,119.11Z"/><path class="cls-5" d="M247.65,174.12a9.26,9.26,0,0,1-9.89,9.44L224,182.79a10.74,10.74,0,0,1-10-10.57v-15a9.57,9.57,0,0,1,10-9.61l13.37.53A10.64,10.64,0,0,1,247.5,158.5Z"/><path class="cls-5" d="M259.52,156.6c-.06-5.5-4.1-9.57-9-9s-8.84,5.45-8.81,10.95l.06,15.62c0,5.5,4.09,9.51,9,8.91s8.94-5.6,8.87-11.1Z"/><path class="cls-5" d="M250.62,147.77a137.11,137.11,0,0,1-18.77.51l-7.81-.4c-5.49-.28-5.94-1.08-1-1.77a110.77,110.77,0,0,1,19-.57l7.41.51C254.91,146.43,255.45,147.2,250.62,147.77Z"/><polygon class="cls-6" points="226.29 182.91 226.29 147.77 228.74 147.77 228.74 183.05 226.29 182.91"/><polygon class="cls-6" points="214.26 162.71 242.05 164.4 241.91 166.88 214.12 165.19 214.26 162.71"/><polygon class="cls-6" points="228.74 147.77 226.29 147.77 241.84 145.72 244.29 145.72 228.74 147.77"/><polygon class="cls-6" points="251.34 147.48 252.78 147.33 226.29 145.58 224.56 145.72 251.34 147.48"/><polygon class="cls-6" points="251.34 147.48 251.34 182.95 252.78 182.66 252.78 147.33 251.34 147.48"/><polygon class="cls-6" points="241.84 164.56 259.4 162.95 259.4 165.14 241.84 166.89 241.84 164.56"/><path class="cls-6" d="M247.29,146.57c.66.05,1.19.42,1.19.83s-.42.66-.94.57a16.43,16.43,0,0,0-2.13-.22c-.65,0-1.75-.12-2.44-.22a10.71,10.71,0,0,1-2.13-.52,3.57,3.57,0,0,1-1.33-2.22,14.16,14.16,0,0,1-.25-3.92,6.86,6.86,0,0,1,1.4-3.35,2,2,0,0,1,2.34-.61,3.86,3.86,0,0,1,1.4,2.48,6.42,6.42,0,0,1-1,3.66,9.21,9.21,0,0,1-5.73,3.78,6.67,6.67,0,0,1-2.06-.69,6.6,6.6,0,0,1-2.33-2.61,15.87,15.87,0,0,1-1.23-3.84,3.41,3.41,0,0,1,.63-2.7,4.56,4.56,0,0,1,2.55-.78,3.15,3.15,0,0,1,2.44,2.13,18.44,18.44,0,0,1,.95,3.36,3.11,3.11,0,0,1-.25,1.74,9.17,9.17,0,0,1-1.29,1.26L235.53,146a4.83,4.83,0,0,1-1.64.74,24.61,24.61,0,0,1-2.83.35c-1,.07-2.54.13-3.39.13s-1.48-.33-1.43-.74a1.07,1.07,0,0,1,1.09-.74c.53,0,1.54-.06,2.23-.13s1.78-.13,2.41-.13a5.34,5.34,0,0,0,2.13-.52,18.3,18.3,0,0,0,1.71-1,5,5,0,0,0,1.12-1.13,5.87,5.87,0,0,0-.35-3c-.41-1.32-1.21-2.36-1.78-2.31a2.66,2.66,0,0,0-1.5.57,2.57,2.57,0,0,0,0,1.95,18.67,18.67,0,0,0,1.05,2.75,5.88,5.88,0,0,0,1.81,2,4.91,4.91,0,0,0,2,.74,4,4,0,0,0,1.85-.7,14,14,0,0,0,1.71-1.43,10.76,10.76,0,0,0,1.22-1.66,3.83,3.83,0,0,0,.28-2.22,2.57,2.57,0,0,0-.77-1.57c-.29-.14-.85.19-1.26.74a6.12,6.12,0,0,0-.87,2.53,10.7,10.7,0,0,0,.35,3.22,2.59,2.59,0,0,0,1.61,1.87,22.43,22.43,0,0,0,2.48.22Z"/><path class="cls-5" d="M172.62,175.32a8.82,8.82,0,0,1-9.89,9L146,182.64a11.32,11.32,0,0,1-9.95-11V123.72a9.21,9.21,0,0,1,10-9.3l16.32,1.14a11,11,0,0,1,10,10.7Z"/><path class="cls-5" d="M185.42,122.58c0-5.5-4.4-9.17-9.7-8.16a12.46,12.46,0,0,0-9.6,11.84l.11,49.06a7.76,7.76,0,0,0,9.8,7.88h0a12.87,12.87,0,0,0,9.7-12.12Z"/><path class="cls-5" d="M175.8,114.84a79.34,79.34,0,0,1-19.51,1.08L146,115c-5.47-.49-5.59-2-.25-3.33l.16,0a64.72,64.72,0,0,1,19.63-1.2l9.9,1.22C180.89,112.3,181.06,113.75,175.8,114.84Z"/><polygon class="cls-6" points="149.34 182.98 149.34 114.85 152 114.85 152 183.25 149.34 182.98"/><polygon class="cls-6" points="136.26 143.81 166.49 147.09 166.33 151.89 136.1 148.62 136.26 143.81"/><polygon class="cls-6" points="152 114.85 149.34 114.85 166.25 110.89 168.91 110.89 152 114.85"/><polygon class="cls-6" points="176.59 114.28 178.15 114 149.34 110.6 147.46 110.89 176.59 114.28"/><polygon class="cls-6" points="176.59 114.28 176.59 183.06 178.15 182.49 178.15 114 176.59 114.28"/><polygon class="cls-6" points="166.25 147.4 185.35 144.28 185.35 148.53 166.25 151.92 166.25 147.4"/><path class="cls-6" d="M172.19,112.53a1.6,1.6,0,0,1,1.29,1.6c0,.79-.47,1.29-1,1.1a10.55,10.55,0,0,0-2.31-.42,19.8,19.8,0,0,1-2.66-.42,8.35,8.35,0,0,1-2.32-1c-.52-.37-1.17-2.31-1.44-4.3a48.72,48.72,0,0,1-.27-7.6A20,20,0,0,1,165,95c.71-1.39,1.86-1.92,2.55-1.18A9.8,9.8,0,0,1,169,98.6a20.11,20.11,0,0,1-1.06,7.09,16,16,0,0,1-3.42,5.49,8.15,8.15,0,0,1-2.8,1.86,5.36,5.36,0,0,1-2.24-1.35,13,13,0,0,1-2.55-5.07,49.31,49.31,0,0,1-1.33-7.43c-.16-2,.14-4.39.69-5.23a3.69,3.69,0,0,1,2.77-1.52c1,0,2.17,1.86,2.66,4.14a58.2,58.2,0,0,1,1,6.5,10.16,10.16,0,0,1-.27,3.37,17,17,0,0,1-1.4,2.45c-.54.79-1.31,1.89-1.71,2.45a4.86,4.86,0,0,1-1.78,1.43,16.4,16.4,0,0,1-3.08.68,35.55,35.55,0,0,1-3.68.25,1.43,1.43,0,0,1-1.56-1.43c.07-.79.59-1.44,1.18-1.44a16.29,16.29,0,0,0,2.43-.25,17.34,17.34,0,0,1,2.62-.26,3.9,3.9,0,0,0,2.31-1,22.66,22.66,0,0,0,1.86-2,9.32,9.32,0,0,0,1.22-2.2,19.63,19.63,0,0,0-.38-5.82c-.44-2.56-1.31-4.57-1.94-4.48A2.51,2.51,0,0,0,157,95.9a8.77,8.77,0,0,0,0,3.8c.25,1.58.77,4,1.14,5.32a11.69,11.69,0,0,0,2,3.88,4.17,4.17,0,0,0,2.2,1.43,3.48,3.48,0,0,0,2-1.35,20.11,20.11,0,0,0,1.86-2.78,23.1,23.1,0,0,0,1.33-3.21,12.72,12.72,0,0,0,.3-4.3,6.87,6.87,0,0,0-.83-3c-.31-.28-.93.36-1.37,1.43a18.43,18.43,0,0,0-.95,4.9,36.46,36.46,0,0,0,.38,6.24c.29,1.82,1.08,3.45,1.75,3.63a15.44,15.44,0,0,0,2.69.43C170.23,112.32,171.48,112.44,172.19,112.53Z"/><path class="cls-7" d="M175.47,190.27a9.43,9.43,0,0,0,9.83,9.66l39.49-1.32a10.44,10.44,0,0,0,10-10.33v-16.7a9.75,9.75,0,0,0-10-9.76l-38.87.91A10.51,10.51,0,0,0,175.75,173Z"/><path class="cls-7" d="M154.53,171a9.52,9.52,0,0,1,10.18-9.36l11.3.71A10.74,10.74,0,0,1,185.92,173l-.12,17.31a9.26,9.26,0,0,1-10,9.27l-11.82-.85A10.67,10.67,0,0,1,154.17,188Z"/><path class="cls-7" d="M175.76,162.57c5.48.38,14.47.56,20,.39l29.05-.88c5.5-.17,5.52-.67,0-1.13L213,160a192.6,192.6,0,0,0-20-.42l-28.3,1.16c-5.5.22-5.5.72,0,1.1Z"/><polygon class="cls-6" points="213.18 199 213.18 162.19 208.86 162.19 208.86 199.15 213.18 199"/><polygon class="cls-6" points="234.41 177.84 185.35 179.61 185.61 182.21 234.67 180.44 234.41 177.84"/><polygon class="cls-6" points="208.86 162.19 213.18 162.19 185.73 160.05 181.41 160.05 208.86 162.19"/><polygon class="cls-6" points="168.96 161.89 166.42 161.74 213.18 159.9 216.23 160.05 168.96 161.89"/><polygon class="cls-6" points="168.96 161.89 168.96 199.04 166.42 198.74 166.42 161.74 168.96 161.89"/><polygon class="cls-6" points="185.73 179.78 154.73 178.1 154.73 180.39 185.73 182.22 185.73 179.78"/><path class="cls-6" d="M176.1,160.94c-1.15.05-2.09.44-2.09.87s.75.69,1.66.59,2.61-.2,3.76-.23,3.09-.12,4.31-.22a33.27,33.27,0,0,0,3.76-.55,4.13,4.13,0,0,0,2.34-2.33,8.75,8.75,0,0,0,.44-4.1,6.23,6.23,0,0,0-2.47-3.51,5.31,5.31,0,0,0-4.13-.64,4.15,4.15,0,0,0-2.46,2.6c-.24,1,.54,2.75,1.72,3.83a16.86,16.86,0,0,0,5.55,3,25.31,25.31,0,0,0,4.56,1,17.73,17.73,0,0,0,3.63-.73,10.09,10.09,0,0,0,4.13-2.74,12.16,12.16,0,0,0,2.16-4,2.59,2.59,0,0,0-1.11-2.83,12.18,12.18,0,0,0-4.5-.82,5.63,5.63,0,0,0-4.31,2.23,13.69,13.69,0,0,0-1.66,3.51,2.05,2.05,0,0,0,.43,1.83A15.87,15.87,0,0,0,194.1,159c.88.43,2.13,1,2.77,1.32a12.28,12.28,0,0,0,2.9.78c.94.12,3.19.29,5,.36s4.48.14,6,.14,2.63-.35,2.53-.77-1-.78-1.91-.78-2.72-.06-3.94-.14-3.14-.13-4.26-.13a15,15,0,0,1-3.75-.55c-1-.3-2.31-.79-3-1.1a8.14,8.14,0,0,1-2-1.18c-.37-.35-.09-1.77.62-3.15s2.13-2.46,3.14-2.41a6.93,6.93,0,0,1,2.65.59c.44.27.47,1.2.06,2a15.73,15.73,0,0,1-1.84,2.87,9,9,0,0,1-3.21,2.1,12.78,12.78,0,0,1-3.57.78A10.56,10.56,0,0,1,189,159a23.56,23.56,0,0,1-3-1.51,12.82,12.82,0,0,1-2.15-1.73,2.6,2.6,0,0,1-.5-2.33,2.65,2.65,0,0,1,1.36-1.64,3,3,0,0,1,2.22.78,4.92,4.92,0,0,1,1.54,2.64,6.86,6.86,0,0,1-.62,3.38,3.92,3.92,0,0,1-2.83,2c-1.09.1-3.06.2-4.38.23S177.26,160.89,176.1,160.94Z"/><path class="cls-5" d="M227.06,198.61c.06,5-4.39,8.92-9.88,8.67l-1.24-.06c-5.5-.25-10-4.49-10-9.43s4.5-8.84,10-8.66l1,0C222.45,189.34,227,193.59,227.06,198.61Z"/><path class="cls-5" d="M234.64,197.56c-.07-5-2.64-8.83-5.71-8.56s-5.55,4.59-5.53,9.61,2.6,8.88,5.71,8.57S234.72,202.54,234.64,197.56Z"/><path class="cls-5" d="M229,189.11a132.3,132.3,0,0,1-14.28.16c-4.82-.2-6.2-.66-3.09-1a104.29,104.29,0,0,1,14.28-.16C230.63,188.36,232,188.82,229,189.11Z"/><polygon class="cls-6" points="213.65 207.12 213.65 189.11 215.19 189.11 215.19 207.19 213.65 207.12"/><polygon class="cls-6" points="206.08 196.76 223.58 197.63 223.49 198.9 205.99 198.03 206.08 196.76"/><polygon class="cls-6" points="215.2 189.11 213.66 189.11 223.45 188.06 224.99 188.06 215.2 189.11"/><polygon class="cls-6" points="229.43 188.96 230.34 188.88 213.66 187.99 212.57 188.06 229.43 188.96"/><polygon class="cls-6" points="229.43 188.96 229.43 207.14 230.34 206.99 230.34 188.88 229.43 188.96"/><polygon class="cls-6" points="223.45 197.71 234.51 196.89 234.51 198.01 223.45 198.91 223.45 197.71"/><path class="cls-6" d="M226.88,188.49c.41,0,.75.22.75.43s-.27.34-.59.29a13,13,0,0,0-1.34-.11c-.42,0-1.11-.07-1.54-.11a8.1,8.1,0,0,1-1.34-.27,1.82,1.82,0,0,1-.84-1.14,5.62,5.62,0,0,1-.15-2,3.13,3.13,0,0,1,.88-1.72,1.48,1.48,0,0,1,1.47-.31,2,2,0,0,1,.88,1.27,2.81,2.81,0,0,1-.62,1.88,5.68,5.68,0,0,1-2,1.45,6.82,6.82,0,0,1-1.62.49,4.71,4.71,0,0,1-1.3-.36,3.66,3.66,0,0,1-1.47-1.34,6.65,6.65,0,0,1-.77-2,1.5,1.5,0,0,1,.39-1.38,3.26,3.26,0,0,1,1.61-.41,1.94,1.94,0,0,1,1.54,1.1,8.56,8.56,0,0,1,.59,1.72,1.32,1.32,0,0,1-.15.89,5.55,5.55,0,0,1-.82.65l-1,.64a3.29,3.29,0,0,1-1,.38c-.34.06-1.14.14-1.78.18s-1.6.07-2.13.07-.94-.17-.9-.38.34-.38.68-.38,1,0,1.4-.07,1.12-.07,1.52-.07a4.2,4.2,0,0,0,1.34-.26,12.05,12.05,0,0,0,1.08-.54,3,3,0,0,0,.7-.58,2.38,2.38,0,0,0-.22-1.54c-.25-.67-.76-1.21-1.12-1.18a1.83,1.83,0,0,0-.94.29c-.16.13-.17.59,0,1a10.14,10.14,0,0,0,.66,1.41,3.48,3.48,0,0,0,1.15,1,3.68,3.68,0,0,0,1.27.37,3,3,0,0,0,1.17-.35,8,8,0,0,0,1.07-.74,5.15,5.15,0,0,0,.77-.85,1.59,1.59,0,0,0,.18-1.13,1.28,1.28,0,0,0-.48-.81c-.18-.07-.54.1-.79.38a2.59,2.59,0,0,0-.55,1.3,4.4,4.4,0,0,0,.22,1.65,1.46,1.46,0,0,0,1,1c.38.05,1.09.1,1.56.11Z"/><path class="cls-7" d="M107,173.18a9.27,9.27,0,0,0,9.89,9.45l18-1a10.72,10.72,0,0,0,10-10.55V152.44a9.57,9.57,0,0,0-10-9.61l-17.58.68a10.64,10.64,0,0,0-10.1,10.38Z"/><path class="cls-7" d="M93.66,151.8a9,9,0,0,1,10.07-9h.06a11.32,11.32,0,0,1,9.9,11l-.08,19.29a8.73,8.73,0,0,1-10,8.82l-.42-.05a11.4,11.4,0,0,1-9.8-11.18Z"/><path class="cls-7" d="M103.68,143.09a148.09,148.09,0,0,0,19.88.63l11.33-.57c5.49-.27,5.53-1.11.08-1.86l-.46-.06a118,118,0,0,0-19.89-.69l-10.86.74C98.27,141.65,98.23,142.46,103.68,143.09Z"/><polygon class="cls-6" points="131.09 181.85 131.09 143.09 128.33 143.09 128.33 182 131.09 181.85"/><rect class="cls-6" x="113.38" y="160.5" width="31.37" height="2.74" transform="translate(-9.39 7.96) rotate(-3.41)"/><polygon class="cls-6" points="128.33 143.09 131.09 143.09 113.57 140.83 110.81 140.83 128.33 143.09"/><polygon class="cls-6" points="102.86 142.77 101.24 142.6 131.09 140.67 133.04 140.83 102.86 142.77"/><polygon class="cls-6" points="102.86 142.77 102.86 181.9 101.24 181.57 101.24 142.6 102.86 142.77"/><polygon class="cls-6" points="113.57 161.61 93.78 159.84 93.78 162.25 113.57 164.18 113.57 161.61"/><path class="cls-6" d="M107.42,141.77c-.73,0-1.33.46-1.33.91s.47.73,1.06.63a18.37,18.37,0,0,1,2.4-.24c.73,0,2-.14,2.75-.24a13.21,13.21,0,0,0,2.4-.58,3.91,3.91,0,0,0,1.49-2.45,14.76,14.76,0,0,0,.28-4.32,7.52,7.52,0,0,0-1.57-3.7,2.31,2.31,0,0,0-2.64-.67,4.19,4.19,0,0,0-1.57,2.73,6.9,6.9,0,0,0,1.1,4,10.78,10.78,0,0,0,3.54,3.12,11,11,0,0,0,2.91,1.06,7.58,7.58,0,0,0,2.32-.77,7.3,7.3,0,0,0,2.64-2.88,17,17,0,0,0,1.37-4.23,3.65,3.65,0,0,0-.71-3,5.22,5.22,0,0,0-2.87-.86,3.55,3.55,0,0,0-2.75,2.35,19.52,19.52,0,0,0-1.06,3.7,3.34,3.34,0,0,0,.27,1.92,10.58,10.58,0,0,0,1.46,1.39l1.77,1.4a5.58,5.58,0,0,0,1.85.81,26.92,26.92,0,0,0,3.18.39c1.15.08,2.87.14,3.82.14s1.68-.37,1.61-.82a1.18,1.18,0,0,0-1.22-.81c-.6,0-1.74-.07-2.52-.15s-2-.14-2.71-.14a6.14,6.14,0,0,1-2.4-.58,21,21,0,0,1-1.93-1.15,5.48,5.48,0,0,1-1.25-1.25c-.24-.37-.07-1.86.39-3.31s1.36-2.6,2-2.55a3.24,3.24,0,0,1,1.7.63,2.86,2.86,0,0,1,0,2.16,21.56,21.56,0,0,1-1.18,3,6.48,6.48,0,0,1-2,2.21,5.61,5.61,0,0,1-2.28.82,4.68,4.68,0,0,1-2.09-.77,14.33,14.33,0,0,1-1.92-1.58,10.84,10.84,0,0,1-1.38-1.83,4.09,4.09,0,0,1-.31-2.45,2.86,2.86,0,0,1,.86-1.73c.33-.15,1,.21,1.42.82a6.61,6.61,0,0,1,1,2.79,11.38,11.38,0,0,1-.39,3.55,2.92,2.92,0,0,1-1.81,2.06,25.45,25.45,0,0,1-2.8.24C109.45,141.65,108.16,141.72,107.42,141.77Z"/><path class="cls-8" d="M139.62,74.94c-1.1,0-1.5.31-.88.68a7.29,7.29,0,0,1,1.8,1.57A21,21,0,0,0,142.11,79a18.34,18.34,0,0,0,1.8,1.58,3.33,3.33,0,0,0,1.57.67,5.21,5.21,0,0,0,2-.9,8.09,8.09,0,0,0,1.8-1.57c.24-.37.75-1.08,1.12-1.57a6.37,6.37,0,0,1,2.28-1.57c.88-.37.7-.68-.4-.68Z"/><path class="cls-9" d="M139.62,74.94c-1.1,0-1.5.31-.88.68a7.29,7.29,0,0,1,1.8,1.57A21,21,0,0,0,142.11,79a18.34,18.34,0,0,0,1.8,1.58,3.33,3.33,0,0,0,1.57.67,5.21,5.21,0,0,0,2-.9,8.09,8.09,0,0,0,1.8-1.57c.24-.37.75-1.08,1.12-1.57a6.37,6.37,0,0,1,2.28-1.57c.88-.37.7-.68-.4-.68Z"/><path class="cls-10" d="M129.38,35a2.29,2.29,0,0,0-2.54,2.75l4.94,32.69a5.25,5.25,0,0,0,3.31,3.86l7.3,2.26a2.08,2.08,0,0,0,2.86-2.11V39.09a3.27,3.27,0,0,0-3-3.21Z"/><path class="cls-9" d="M129.38,35a2.29,2.29,0,0,0-2.54,2.75l4.94,32.69a5.25,5.25,0,0,0,3.31,3.86l7.3,2.26a2.08,2.08,0,0,0,2.86-2.11V39.09a3.27,3.27,0,0,0-3-3.21Z"/><path class="cls-10" d="M146.15,74.19a2.17,2.17,0,0,0,2.89,2.2l7.25-2a4.75,4.75,0,0,0,3.2-3.78l3.42-33.11a2.42,2.42,0,0,0-2.68-2.75l-11.09.88a3.32,3.32,0,0,0-3,3.24Z"/><path class="cls-9" d="M146.15,74.19a2.17,2.17,0,0,0,2.89,2.2l7.25-2a4.75,4.75,0,0,0,3.2-3.78l3.42-33.11a2.42,2.42,0,0,0-2.68-2.75l-11.09.88a3.32,3.32,0,0,0-3,3.24Z"/><path class="cls-11" d="M148.54,23.31c-1.32-1-2.39-.47-2.39,1.18v8.38a2.73,2.73,0,0,0,3,2.76l11.09-.88c1.64-.13,1.92-1,.6-2Z"/><path class="cls-9" d="M148.54,23.31c-1.32-1-2.39-.47-2.39,1.18v8.38a2.73,2.73,0,0,0,3,2.76l11.09-.88c1.64-.13,1.92-1,.6-2Z"/><path class="cls-11" d="M129.74,32.88c-1.35.95-1.11,1.82.54,1.93l12.88.86a2.78,2.78,0,0,0,3-2.8v-8.6c0-1.65-1.1-2.22-2.45-1.27Z"/><path class="cls-9" d="M129.74,32.88c-1.35.95-1.11,1.82.54,1.93l12.88.86a2.78,2.78,0,0,0,3-2.8v-8.6c0-1.65-1.1-2.22-2.45-1.27Z"/><path class="cls-12" d="M139,68.52c-1.22,1.51-1.86,3.11-1.43,3.56s1.41.11,2.16-.74l2.48-2.75a1.37,1.37,0,0,0,0-2C141.65,66.13,140.18,67,139,68.52Z"/><path class="cls-13" d="M130.56,39.25c-.76,1.73-1.16,3.55-.87,4s.92.09,1.4-.88,1.18-2.4,1.56-3.16a2.35,2.35,0,0,0,0-2.28C132.27,36.49,131.33,37.51,130.56,39.25Z"/><circle class="cls-14" cx="145.93" cy="17.67" r="3.82"/><path class="cls-8" d="M166.24,12.35c-.1-1.78-2.42-3-5.15-2.64L149,11.14c-2.73.32-4.45,1.8-3.83,3.29s3.39,2.53,6.13,2.31L161.44,16C164.18,15.75,166.34,14.12,166.24,12.35Z"/><g class="cls-15"><path class="cls-10" d="M.45,192.69a7.39,7.39,0,0,0,7,7.33l245.43,11.66a6.61,6.61,0,0,0,7-6.67l-.09-39.49c0-3.85,0-10.15,0-14l-.28-134.33a7.33,7.33,0,0,0-7-7.23L8.53,1.93a6.78,6.78,0,0,0-7,6.77L1,98.83c0,3.85-.06,10.15-.08,14l0,1.84c0,3.85-.06,10.15-.08,14L.68,152.38c0,3.85-.06,10.15-.08,14Z"/></g><circle class="cls-16" cx="145.07" cy="55.61" r="24.02"/><circle class="cls-16" cx="146.14" cy="55.61" r="34.7"/></g></svg>
