<svg xmlns="http://www.w3.org/2000/svg" width="261" height="211" viewBox="0 0 261 211"><defs><style>.cls-1{fill:#663c32;}.cls-2{fill:#562f27;}.cls-3{fill:#28100b;}.cls-4{fill:#dd5e45;}.cls-5{fill:#d83f32;}.cls-6{fill:#e2d681;}.cls-7{fill:#377e62;}.cls-8{fill:#191919;}.cls-14,.cls-9{fill:none;stroke:#191919;stroke-miterlimit:10;}.cls-9{stroke-width:3px;}.cls-10,.cls-16{fill:#f5a631;}.cls-11{fill:#001919;}.cls-12{fill:#efc389;}.cls-13{fill:#eaceac;}.cls-14{stroke-width:5px;}.cls-15,.cls-16{opacity:0.1;}</style></defs><title>stue_left</title><g id="Layer_4" data-name="Layer 4"><path class="cls-1" d="M260.55,191.49a7.39,7.39,0,0,1-7,7.33L8.16,210.47a6.6,6.6,0,0,1-7-6.66l.09-39.49c0-3.85,0-10.15,0-14L1.58,16a7.33,7.33,0,0,1,7-7.23l243.88-8a6.79,6.79,0,0,1,7,6.77L260,97.62c0,3.85.06,10.15.08,14l0,1.85c0,3.85.06,10.15.08,14l.13,23.7c0,3.85.06,10.15.08,14Z"/><path class="cls-2" d="M140.08,4,25.86,5.44l-17.52.3-2.59,0L3.14,8.52,1.46,12.19,1.38,16A67,67,0,0,1,1,36.35L.43,62A45.86,45.86,0,0,1,1,74.72h.31c0,1.89-.17,3.78-.19,5.67s.35,3.71.53,5.56a.93.93,0,0,1,.24,0c0,.75,0,1.5-.07,2.26,0,.53.06,1.07.07,1.61H1.71c-.16,3.09-.41,6.18-.48,9.27-.1,4.74.76,9.41.43,14.16,0,0-.11,0-.29.06,0,1.19-.06,2.39-.08,3.59.3,4.46.18,8.93.17,13.4H1.3c.53,2.86-.18,6.09-.23,8.9H1c0,1.33,0,2.67-.12,4l.05,0c.5,4.54.83,9.07.93,13.63l138.33-8.75Z"/><polygon class="cls-3" points="260.58 198.49 1.17 210.81 1.28 157.32 139.35 146.18 260.36 158.17 260.58 198.49"/><path class="cls-4" d="M259.86,122.36a4.69,4.69,0,0,1-4.68,5h-1.35l-10,.09-3.39,0-10,.09-61,.54-10,.09-27.36.25a5.33,5.33,0,0,1-5.29-5l-.36-6.42a4.69,4.69,0,0,1,4.71-5l123-.55a5.38,5.38,0,0,1,5.31,5Z"/><path class="cls-4" d="M168.37,178.68a6.81,6.81,0,0,1-4.85-6.24l-.1-45.85a5,5,0,0,1,5-5h.87a5,5,0,0,1,5,5l.1,48.64a3.69,3.69,0,0,1-4.83,3.77Z"/><path class="cls-4" d="M240.85,121.83a5,5,0,0,0-5,5l.42,48.38a6.55,6.55,0,0,0,4.93,6.05l3,.64a3.84,3.84,0,0,0,4.85-3.95l-.44-51.23a5,5,0,0,0-5-5Z"/><path class="cls-5" d="M217,105.79a9.19,9.19,0,0,0,9.89,9.37l1.26-.08a10.83,10.83,0,0,0,10-10.63V99.67a9.51,9.51,0,0,0-10-9.56l-1,0a10.71,10.71,0,0,0-10.08,10.45Z"/><path class="cls-5" d="M209.51,99.25c.06-5.5,2.61-9.69,5.68-9.33s5.56,5.18,5.54,10.68l0,5.19c0,5.5-2.59,9.65-5.7,9.23s-5.62-5.28-5.56-10.78Z"/><path class="cls-5" d="M215.14,90.08a95.45,95.45,0,0,0,14.28.22c4.81-.28,6.2-.9,3.08-1.39a76.34,76.34,0,0,0-14.28-.23C213.49,89.05,212.1,89.68,215.14,90.08Z"/><polygon class="cls-6" points="230.46 114.94 230.46 90.08 228.92 90.08 228.92 115.03 230.46 114.94"/><polygon class="cls-6" points="238.03 100.65 220.54 101.84 220.63 103.59 238.13 102.4 238.03 100.65"/><polygon class="cls-6" points="228.92 90.08 230.46 90.08 220.67 88.63 219.13 88.63 228.92 90.08"/><polygon class="cls-6" points="214.69 89.87 213.78 89.77 230.46 88.53 231.55 88.63 214.69 89.87"/><polygon class="cls-6" points="214.69 89.87 214.69 114.97 213.78 114.76 213.78 89.77 214.69 89.87"/><polygon class="cls-6" points="220.67 101.95 209.61 100.82 209.61 102.37 220.67 103.61 220.67 101.95"/><path class="cls-6" d="M217.24,89.23c-.41,0-.75.3-.75.59a.44.44,0,0,0,.59.4,10.26,10.26,0,0,1,1.34-.16,13.59,13.59,0,0,0,1.54-.15,6.15,6.15,0,0,0,1.34-.37,2.53,2.53,0,0,0,.84-1.57,10.6,10.6,0,0,0,.15-2.77,5.14,5.14,0,0,0-.88-2.37,1.17,1.17,0,0,0-1.47-.43,2.81,2.81,0,0,0-.88,1.75,4.92,4.92,0,0,0,.62,2.59,6.2,6.2,0,0,0,2,2,5.61,5.61,0,0,0,1.62.68,3.9,3.9,0,0,0,1.3-.49,4.65,4.65,0,0,0,1.47-1.85,12.14,12.14,0,0,0,.77-2.71,1.86,1.86,0,0,0-2-2.47c-.57,0-1.26.68-1.54,1.51a14.4,14.4,0,0,0-.59,2.37,2.45,2.45,0,0,0,.15,1.24,6.76,6.76,0,0,0,.82.89l1,.89a2.92,2.92,0,0,0,1,.53,15.18,15.18,0,0,0,1.78.24c.64.05,1.6.09,2.13.09s.94-.23.9-.52a.67.67,0,0,0-.68-.52,12.59,12.59,0,0,1-1.41-.1c-.43,0-1.11-.09-1.51-.09a3,3,0,0,1-1.34-.37,9.66,9.66,0,0,1-1.08-.74,3.05,3.05,0,0,1-.7-.8A4.41,4.41,0,0,1,224,84.4c.25-.93.75-1.67,1.12-1.63a1.57,1.57,0,0,1,.94.4,2,2,0,0,1,0,1.38,13.38,13.38,0,0,1-.66,1.94,4,4,0,0,1-1.14,1.42,2.82,2.82,0,0,1-1.27.52,2.4,2.4,0,0,1-1.17-.49,8.85,8.85,0,0,1-1.08-1,7.64,7.64,0,0,1-.77-1.17,3,3,0,0,1-.17-1.57,1.92,1.92,0,0,1,.48-1.11c.18-.1.54.14.79.53a4.49,4.49,0,0,1,.55,1.78,8.24,8.24,0,0,1-.22,2.28c-.17.66-.62,1.26-1,1.33s-1.09.13-1.56.15Z"/><path class="cls-7" d="M170.58,109a9.08,9.08,0,0,1-9.9,9.25l-7.56-.58a11,11,0,0,1-10-10.76V88.25a9.4,9.4,0,0,1,10-9.46l7.24.38A10.78,10.78,0,0,1,170.44,89.7Z"/><path class="cls-7" d="M180.25,87.61c-.05-5.5-3.34-9.53-7.31-9s-7.21,5.54-7.2,11L165.8,109c0,5.5,3.34,9.46,7.37,8.8s7.31-5.71,7.26-11.21Z"/><path class="cls-7" d="M173,78.9a94.16,94.16,0,0,1-17.15.44l-2.72-.19c-5.49-.38-6.67-1.32-2.63-2.08a75.72,75.72,0,0,1,17.3-.46l2.41.22C175.68,77.35,176.94,78.27,173,78.9Z"/><polygon class="cls-6" points="153.14 117.66 153.14 78.9 155.14 78.9 155.14 117.81 153.14 117.66"/><polygon class="cls-6" points="143.32 95.38 166 97.24 165.88 99.98 143.2 98.11 143.32 95.38"/><polygon class="cls-6" points="155.14 78.9 153.14 78.9 165.83 76.64 167.83 76.64 155.14 78.9"/><polygon class="cls-6" points="173.59 78.58 174.76 78.42 153.14 76.48 151.73 76.64 173.59 78.58"/><polygon class="cls-6" points="173.59 78.58 173.59 117.71 174.76 117.38 174.76 78.42 173.59 78.58"/><polygon class="cls-6" points="165.83 97.42 180.16 95.64 180.16 98.06 165.83 99.99 165.83 97.42"/><path class="cls-6" d="M170.28,77.58a1,1,0,0,1,1,.91.61.61,0,0,1-.77.63,9.74,9.74,0,0,0-1.74-.24c-.53,0-1.43-.14-2-.24a7.55,7.55,0,0,1-1.74-.58,4.26,4.26,0,0,1-1.08-2.45,20.54,20.54,0,0,1-.2-4.32,9.11,9.11,0,0,1,1.14-3.7c.53-.79,1.39-1.09,1.91-.67a4.74,4.74,0,0,1,1.14,2.74,9,9,0,0,1-.8,4,9.22,9.22,0,0,1-2.56,3.12,6.82,6.82,0,0,1-2.11,1.06,4.47,4.47,0,0,1-1.68-.77,6.85,6.85,0,0,1-1.91-2.88,21.62,21.62,0,0,1-1-4.23,4.81,4.81,0,0,1,.51-3,3.13,3.13,0,0,1,2.08-.86c.74,0,1.64,1.06,2,2.35a27.66,27.66,0,0,1,.77,3.7,4.51,4.51,0,0,1-.2,1.92A9.18,9.18,0,0,1,162,75.51c-.4.45-1,1.08-1.28,1.4a3.65,3.65,0,0,1-1.34.81,14.55,14.55,0,0,1-2.31.39c-.83.08-2.07.14-2.76.14s-1.21-.37-1.17-.81a.93.93,0,0,1,.89-.82,16.25,16.25,0,0,0,1.82-.15,19.43,19.43,0,0,1,2-.14,3.47,3.47,0,0,0,1.74-.58,14.11,14.11,0,0,0,1.4-1.15,5,5,0,0,0,.91-1.25,8.75,8.75,0,0,0-.28-3.31c-.33-1.45-1-2.6-1.46-2.55a2,2,0,0,0-1.22.63,3.72,3.72,0,0,0,0,2.16,27.12,27.12,0,0,0,.85,3,6.27,6.27,0,0,0,1.48,2.2,3.43,3.43,0,0,0,1.66.82,2.9,2.9,0,0,0,1.51-.77A11.83,11.83,0,0,0,165.72,74a11,11,0,0,0,1-1.83A5.48,5.48,0,0,0,167,69.7a3.25,3.25,0,0,0-.63-1.73c-.23-.15-.69.21-1,.82a8.37,8.37,0,0,0-.72,2.79,15.69,15.69,0,0,0,.29,3.55c.22,1,.81,2,1.31,2.07a16.71,16.71,0,0,0,2,.24C168.81,77.46,169.75,77.53,170.28,77.58Z"/><path class="cls-5" d="M30.27,158.1a9.18,9.18,0,0,0,9.89,9.36l52.72-3.37a10.84,10.84,0,0,0,10-10.64V87.65a9.5,9.5,0,0,0-10-9.55L40.92,80.42A10.71,10.71,0,0,0,30.84,90.87Z"/><path class="cls-5" d="M4.94,86.22a8.78,8.78,0,0,1,10-8.79l18.33,2.23A11.56,11.56,0,0,1,43.2,90.87L43,158.1A8.52,8.52,0,0,1,33,166.73l-19-2.62a11.69,11.69,0,0,1-9.8-11.37Z"/><path class="cls-5" d="M33,80.27a127.24,127.24,0,0,0,19.9.73l40-2.31c5.49-.32,5.53-1.29.1-2.15l-19.06-3a102.11,102.11,0,0,0-19.85-.79L15,75.78c-5.48.43-5.51,1.37,0,2.1Z"/><polygon class="cls-6" points="76.47 165.15 76.47 79.08 71.19 79.08 71.19 165.48 76.47 165.15"/><polygon class="cls-6" points="102.41 115.67 42.47 119.81 42.78 125.88 102.72 121.74 102.41 115.67"/><polygon class="cls-6" points="71.19 79.08 76.46 79.08 42.93 74.07 37.65 74.07 71.19 79.08"/><polygon class="cls-6" points="22.43 78.36 19.33 78.01 76.46 73.72 80.19 74.07 22.43 78.36"/><polygon class="cls-6" points="22.43 78.36 22.43 165.24 19.33 164.53 19.33 78.01 22.43 78.36"/><polygon class="cls-6" points="42.93 120.19 5.04 116.26 5.04 121.63 42.93 125.92 42.93 120.19"/><path class="cls-6" d="M31.16,76.15c-1.41.12-2.56,1-2.56,2a1.53,1.53,0,0,0,2,1.38,35.34,35.34,0,0,1,4.6-.53c1.41-.06,3.78-.3,5.27-.53a21.92,21.92,0,0,0,4.59-1.28c1-.47,2.32-2.92,2.86-5.44a38.56,38.56,0,0,0,.53-9.6,18.06,18.06,0,0,0-3-8.21c-1.41-1.76-3.68-2.43-5-1.49s-2.72,3.67-3,6.08a17.2,17.2,0,0,0,2.11,9,21.72,21.72,0,0,0,6.78,6.93c2.27,1.29,4.78,2.35,5.57,2.35a13.12,13.12,0,0,0,4.44-1.71c1.66-.93,3.93-3.81,5-6.39A41.83,41.83,0,0,0,64,59.3c.33-2.58-.28-5.55-1.36-6.61a9,9,0,0,0-5.49-1.92c-2,0-4.32,2.35-5.27,5.23a50.07,50.07,0,0,0-2,8.21,8.47,8.47,0,0,0,.53,4.26,21.5,21.5,0,0,0,2.79,3.1c1.07,1,2.6,2.38,3.39,3.09a9.84,9.84,0,0,0,3.53,1.81,47.77,47.77,0,0,0,6.1.85c2.2.18,5.48.32,7.31.32s3.21-.81,3.08-1.81A2.3,2.3,0,0,0,74.23,74c-1.16,0-3.33-.15-4.82-.32s-3.83-.32-5.19-.32a10.54,10.54,0,0,1-4.6-1.28,42.76,42.76,0,0,1-3.69-2.56,11.64,11.64,0,0,1-2.41-2.77c-.45-.82-.11-4.13.76-7.36s2.59-5.77,3.84-5.65a5.53,5.53,0,0,1,3.23,1.38c.54.65.58,2.81.08,4.8a50.42,50.42,0,0,1-2.26,6.72,14,14,0,0,1-3.91,4.91,9.89,9.89,0,0,1-4.37,1.81,8.08,8.08,0,0,1-4-1.71,29,29,0,0,1-3.69-3.52,25.43,25.43,0,0,1-2.64-4.05,10.52,10.52,0,0,1-.6-5.44c.29-1.76,1-3.48,1.66-3.84s1.84.47,2.71,1.82a16,16,0,0,1,1.88,6.18,29,29,0,0,1-.75,7.89C44.89,73,43.33,75.06,42,75.3a48.49,48.49,0,0,1-5.34.53C35,75.89,32.57,76,31.16,76.15Z"/><path class="cls-7" d="M63.46,158.1a9.38,9.38,0,0,1-9.86,9.58L14.1,166a10.55,10.55,0,0,1-10-10.42V128.72a9.68,9.68,0,0,1,10-9.7L53,120.18a10.56,10.56,0,0,1,10.13,10.3Z"/><path class="cls-7" d="M84.32,127.94a9.27,9.27,0,0,0-10.13-9.19l-11.32.92A11,11,0,0,0,53,130.48l.15,27.62a9,9,0,0,0,10,9.08L75,166.09a11,11,0,0,0,9.79-10.91Z"/><path class="cls-7" d="M63.12,120a192.51,192.51,0,0,1-19.95.49L14.1,119.36c-5.49-.21-5.51-.86,0-1.44l11.87-1.27a152.52,152.52,0,0,1,19.94-.53l28.31,1.48c5.49.29,5.5.92,0,1.41Z"/><polygon class="cls-6" points="25.71 166.49 25.71 119.5 30.03 119.5 30.03 166.67 25.71 166.49"/><polygon class="cls-6" points="4.48 139.48 53.54 141.74 53.28 145.05 4.22 142.79 4.48 139.48"/><polygon class="cls-6" points="30.03 119.5 25.71 119.5 53.16 116.77 57.48 116.77 30.03 119.5"/><polygon class="cls-6" points="69.93 119.11 72.47 118.92 25.71 116.57 22.66 116.77 69.93 119.11"/><polygon class="cls-6" points="69.93 119.11 69.93 166.54 72.47 166.15 72.47 118.92 69.93 119.11"/><polygon class="cls-6" points="53.16 141.95 84.16 139.8 84.16 142.73 53.16 145.07 53.16 141.95"/><path class="cls-6" d="M62.79,117.9c1.15.07,2.09.56,2.09,1.11s-.74.88-1.66.76-2.61-.26-3.76-.3-3.09-.16-4.31-.29a25,25,0,0,1-3.76-.69,4.85,4.85,0,0,1-2.34-3,14.13,14.13,0,0,1-.43-5.24,8.2,8.2,0,0,1,2.46-4.49,4.37,4.37,0,0,1,4.13-.81,5,5,0,0,1,2.47,3.32A7,7,0,0,1,56,113.19,16.22,16.22,0,0,1,50.4,117a20.08,20.08,0,0,1-4.56,1.28,14.4,14.4,0,0,1-3.63-.93,10.14,10.14,0,0,1-4.13-3.49,17.39,17.39,0,0,1-2.16-5.12A3.76,3.76,0,0,1,37,105.1a9.86,9.86,0,0,1,4.5-1,5.39,5.39,0,0,1,4.31,2.85,20.73,20.73,0,0,1,1.67,4.48,3.25,3.25,0,0,1-.43,2.33,14.93,14.93,0,0,1-2.28,1.69L42,117.09a10.11,10.11,0,0,1-2.89,1c-1,.16-3.2.37-5,.46s-4.49.18-6,.18-2.63-.45-2.53-1,1-1,1.91-1,2.73-.08,3.95-.18,3.13-.17,4.25-.17a11.84,11.84,0,0,0,3.76-.7c1-.38,2.3-1,3-1.4a7.84,7.84,0,0,0,2-1.51c.37-.45.09-2.26-.62-4s-2.12-3.15-3.14-3.08a5.77,5.77,0,0,0-2.65.75c-.44.36-.47,1.54-.06,2.62a21.74,21.74,0,0,0,1.85,3.67,9.11,9.11,0,0,0,3.2,2.68,10.64,10.64,0,0,0,3.57,1,8.67,8.67,0,0,0,3.27-.93,22.9,22.9,0,0,0,3-1.92,15.09,15.09,0,0,0,2.16-2.22,4,4,0,0,0,.49-3,3.29,3.29,0,0,0-1.36-2.1c-.5-.19-1.5.25-2.21,1a6.75,6.75,0,0,0-1.54,3.38,10.81,10.81,0,0,0,.61,4.3,4.07,4.07,0,0,0,2.84,2.51c1.08.13,3,.26,4.37.29S61.64,117.84,62.79,117.9Z"/><path class="cls-5" d="M13.35,172.92a9.26,9.26,0,0,0,9.89,9.44L37,181.58A10.73,10.73,0,0,0,47,171V156a9.56,9.56,0,0,0-10-9.6l-13.37.52A10.66,10.66,0,0,0,13.5,157.3Z"/><path class="cls-5" d="M1.48,155.4c.06-5.5,4.1-9.57,9-9.05s8.84,5.45,8.81,11l-.06,15.62c0,5.5-4.09,9.51-9,8.9s-8.94-5.59-8.87-11.09Z"/><path class="cls-5" d="M10.38,146.56a135.48,135.48,0,0,0,18.77.52l7.81-.4c5.49-.28,5.94-1.08,1-1.77a109.77,109.77,0,0,0-19-.57l-7.41.51C6.09,145.23,5.55,146,10.38,146.56Z"/><polygon class="cls-6" points="34.71 181.71 34.71 146.56 32.26 146.56 32.26 181.85 34.71 181.71"/><polygon class="cls-6" points="46.74 161.51 18.95 163.2 19.09 165.68 46.88 163.99 46.74 161.51"/><polygon class="cls-6" points="32.26 146.57 34.71 146.57 19.16 144.52 16.71 144.52 32.26 146.57"/><polygon class="cls-6" points="9.66 146.27 8.22 146.13 34.71 144.38 36.44 144.52 9.66 146.27"/><polygon class="cls-6" points="9.66 146.27 9.66 181.75 8.22 181.46 8.22 146.13 9.66 146.27"/><polygon class="cls-6" points="19.16 163.36 1.6 161.75 1.6 163.94 19.16 165.69 19.16 163.36"/><path class="cls-6" d="M13.71,145.37c-.66,0-1.19.42-1.19.83s.42.66.94.56a18.51,18.51,0,0,1,2.13-.21c.65,0,1.75-.13,2.44-.22a11.45,11.45,0,0,0,2.13-.52,3.63,3.63,0,0,0,1.33-2.22,14.16,14.16,0,0,0,.25-3.92,6.94,6.94,0,0,0-1.4-3.36A2,2,0,0,0,18,135.7a3.89,3.89,0,0,0-1.4,2.49,6.39,6.39,0,0,0,1,3.65,9.29,9.29,0,0,0,5.73,3.79,6.49,6.49,0,0,0,2.06-.7,6.47,6.47,0,0,0,2.33-2.61,15.79,15.79,0,0,0,1.23-3.83,3.41,3.41,0,0,0-.63-2.7,4.56,4.56,0,0,0-2.55-.78,3.15,3.15,0,0,0-2.44,2.13,18.16,18.16,0,0,0-.95,3.35,3.15,3.15,0,0,0,.25,1.75,9.76,9.76,0,0,0,1.29,1.26l1.57,1.26a4.83,4.83,0,0,0,1.64.74,24.61,24.61,0,0,0,2.83.35c1,.07,2.54.13,3.39.13s1.48-.33,1.43-.74a1.06,1.06,0,0,0-1.09-.74c-.53,0-1.54-.06-2.23-.13s-1.78-.13-2.41-.13a5.52,5.52,0,0,1-2.13-.52,18.3,18.3,0,0,1-1.71-1.05,5.43,5.43,0,0,1-1.12-1.13,5.9,5.9,0,0,1,.35-3c.41-1.31,1.21-2.35,1.78-2.3a2.66,2.66,0,0,1,1.5.56,2.6,2.6,0,0,1,0,2,18.67,18.67,0,0,1-1,2.75,5.88,5.88,0,0,1-1.81,2,4.91,4.91,0,0,1-2,.74,4.11,4.11,0,0,1-1.85-.7,13.23,13.23,0,0,1-1.71-1.44,10.67,10.67,0,0,1-1.22-1.65,3.83,3.83,0,0,1-.28-2.22,2.57,2.57,0,0,1,.77-1.57c.29-.14.85.19,1.26.74a6.07,6.07,0,0,1,.87,2.53,10.7,10.7,0,0,1-.35,3.22A2.61,2.61,0,0,1,18.73,145a22.43,22.43,0,0,1-2.48.22C15.51,145.26,14.36,145.32,13.71,145.37Z"/><path class="cls-5" d="M88.38,174.12a8.82,8.82,0,0,0,9.89,9L115,181.44a11.32,11.32,0,0,0,10-11V122.51a9.22,9.22,0,0,0-10-9.3l-16.32,1.15a11,11,0,0,0-10,10.7Z"/><path class="cls-5" d="M75.58,121.38c0-5.5,4.4-9.17,9.7-8.16a12.45,12.45,0,0,1,9.6,11.84l-.11,49.06c0,5.5-4.42,9-9.8,7.88h0a12.87,12.87,0,0,1-9.7-12.12Z"/><path class="cls-5" d="M85.2,113.64a79.83,79.83,0,0,0,19.51,1.08l10.3-.94c5.47-.5,5.59-2,.25-3.33l-.16,0a64.72,64.72,0,0,0-19.63-1.2l-9.9,1.22C80.11,111.1,79.94,112.55,85.2,113.64Z"/><polygon class="cls-6" points="111.66 181.78 111.66 113.64 109 113.64 109 182.04 111.66 181.78"/><polygon class="cls-6" points="124.74 142.61 94.52 145.89 94.67 150.69 124.9 147.41 124.74 142.61"/><polygon class="cls-6" points="109 113.64 111.66 113.64 94.75 109.68 92.09 109.68 109 113.64"/><polygon class="cls-6" points="84.41 113.08 82.85 112.8 111.66 109.4 113.54 109.68 84.41 113.08"/><polygon class="cls-6" points="84.41 113.08 84.41 181.85 82.85 181.29 82.85 112.8 84.41 113.08"/><polygon class="cls-6" points="94.75 146.19 75.65 143.08 75.65 147.32 94.75 150.72 94.75 146.19"/><path class="cls-6" d="M88.81,111.33a1.6,1.6,0,0,0-1.29,1.6c0,.79.47,1.28,1,1.1a10.55,10.55,0,0,1,2.31-.42,18.38,18.38,0,0,0,2.66-.43,8.06,8.06,0,0,0,2.32-1c.52-.37,1.17-2.31,1.44-4.3a48.72,48.72,0,0,0,.27-7.6A20,20,0,0,0,96,93.77c-.71-1.39-1.86-1.92-2.55-1.18A9.8,9.8,0,0,0,92,97.4,20.17,20.17,0,0,0,93,104.49,16.13,16.13,0,0,0,96.45,110a8.07,8.07,0,0,0,2.8,1.85,5.26,5.26,0,0,0,2.24-1.35,12.87,12.87,0,0,0,2.55-5.06A49.54,49.54,0,0,0,105.37,98c.16-2-.14-4.4-.69-5.23a3.69,3.69,0,0,0-2.77-1.52c-1,0-2.17,1.86-2.66,4.13a58.55,58.55,0,0,0-1,6.5,10.23,10.23,0,0,0,.27,3.38,17,17,0,0,0,1.4,2.45c.54.79,1.31,1.89,1.71,2.44a4.79,4.79,0,0,0,1.78,1.44,16.4,16.4,0,0,0,3.08.68c1.1.13,2.76.25,3.68.25a1.44,1.44,0,0,0,1.56-1.44c-.07-.79-.59-1.43-1.18-1.43a17.74,17.74,0,0,1-2.43-.25,17.34,17.34,0,0,0-2.62-.26,3.9,3.9,0,0,1-2.31-1,21.42,21.42,0,0,1-1.86-2,9.07,9.07,0,0,1-1.22-2.19,19.71,19.71,0,0,1,.38-5.83c.44-2.55,1.31-4.56,1.94-4.47A2.47,2.47,0,0,1,104,94.7a8.77,8.77,0,0,1,0,3.8c-.25,1.57-.77,4-1.14,5.31a11.65,11.65,0,0,1-2,3.89,4.17,4.17,0,0,1-2.2,1.43,3.53,3.53,0,0,1-2-1.35A20.11,20.11,0,0,1,94.89,105a23.62,23.62,0,0,1-1.33-3.21,12.78,12.78,0,0,1-.3-4.31,6.92,6.92,0,0,1,.83-3c.31-.27.93.37,1.37,1.44a18.43,18.43,0,0,1,1,4.9A36.46,36.46,0,0,1,96,107c-.29,1.81-1.08,3.45-1.75,3.63a14.57,14.57,0,0,1-2.69.42C90.77,111.12,89.52,111.23,88.81,111.33Z"/><path class="cls-7" d="M85.53,189.06a9.44,9.44,0,0,1-9.83,9.67l-39.49-1.32a10.45,10.45,0,0,1-10-10.34V170.38a9.76,9.76,0,0,1,10-9.77l38.87.91a10.53,10.53,0,0,1,10.16,10.23Z"/><path class="cls-7" d="M106.47,169.77a9.52,9.52,0,0,0-10.18-9.37l-11.3.72a10.74,10.74,0,0,0-9.91,10.64l.12,17.3a9.27,9.27,0,0,0,10,9.28l11.82-.85a10.68,10.68,0,0,0,9.77-10.72Z"/><path class="cls-7" d="M85.24,161.37c-5.48.38-14.47.56-20,.39l-29-.88c-5.5-.17-5.52-.68,0-1.13l11.83-1a198.34,198.34,0,0,1,20-.42l28.3,1.17c5.5.22,5.5.72,0,1.1Z"/><polygon class="cls-6" points="47.82 197.8 47.82 160.99 52.14 160.99 52.14 197.94 47.82 197.8"/><polygon class="cls-6" points="26.59 176.64 75.64 178.41 75.39 181 26.33 179.23 26.59 176.64"/><polygon class="cls-6" points="52.14 160.99 47.82 160.99 75.27 158.85 79.59 158.85 52.14 160.99"/><polygon class="cls-6" points="92.04 160.69 94.58 160.53 47.82 158.7 44.77 158.85 92.04 160.69"/><polygon class="cls-6" points="92.04 160.69 92.04 197.84 94.58 197.53 94.58 160.53 92.04 160.69"/><polygon class="cls-6" points="75.27 178.57 106.27 176.89 106.27 179.19 75.27 181.02 75.27 178.57"/><path class="cls-6" d="M84.9,159.74c1.15,0,2.09.44,2.09.87s-.75.69-1.66.59-2.61-.2-3.76-.23-3.09-.13-4.31-.23a31.3,31.3,0,0,1-3.76-.54,4.16,4.16,0,0,1-2.34-2.33,8.76,8.76,0,0,1-.44-4.1,6.28,6.28,0,0,1,2.47-3.52,5.3,5.3,0,0,1,4.13-.63,4.15,4.15,0,0,1,2.46,2.6c.24,1-.54,2.75-1.72,3.83a17,17,0,0,1-5.55,3A25,25,0,0,1,68,160a17.73,17.73,0,0,1-3.63-.73,10,10,0,0,1-4.13-2.73,12.2,12.2,0,0,1-2.16-4,2.58,2.58,0,0,1,1.11-2.82,12.18,12.18,0,0,1,4.5-.82A5.63,5.63,0,0,1,68,151.12a13.69,13.69,0,0,1,1.66,3.51,2.06,2.06,0,0,1-.43,1.83,15.87,15.87,0,0,1-2.28,1.32l-2.77,1.32a12.28,12.28,0,0,1-2.9.78c-.94.12-3.19.29-5,.36s-4.48.14-6,.14-2.63-.35-2.53-.78,1-.77,1.91-.77,2.72-.06,3.94-.14,3.14-.14,4.26-.14A15,15,0,0,0,61.6,158c.95-.3,2.31-.8,3-1.1a8.14,8.14,0,0,0,2-1.18c.37-.35.09-1.77-.62-3.15s-2.13-2.47-3.14-2.42a6.91,6.91,0,0,0-2.65.6c-.44.27-.47,1.2-.06,2.05A16.08,16.08,0,0,0,62,155.68a9,9,0,0,0,3.21,2.1,13.09,13.09,0,0,0,3.57.77,10.28,10.28,0,0,0,3.27-.73,23.6,23.6,0,0,0,3-1.5,13.9,13.9,0,0,0,2.15-1.73,2.6,2.6,0,0,0,.5-2.33,2.65,2.65,0,0,0-1.36-1.64,3.07,3.07,0,0,0-2.22.77A5,5,0,0,0,72.57,154a6.8,6.8,0,0,0,.62,3.37,3.89,3.89,0,0,0,2.83,2c1.09.1,3.06.21,4.38.23S83.74,159.69,84.9,159.74Z"/><path class="cls-5" d="M33.94,197.41c-.06,5,4.39,8.92,9.88,8.67l1.24-.06c5.5-.25,10-4.5,10-9.44s-4.5-8.83-10-8.65l-1,0C38.55,188.14,34,192.39,33.94,197.41Z"/><path class="cls-5" d="M26.36,196.36c.07-5,2.64-8.83,5.71-8.57s5.55,4.6,5.53,9.62S35,206.28,31.89,206,26.28,201.34,26.36,196.36Z"/><path class="cls-5" d="M32,187.9a132,132,0,0,0,14.28.17c4.82-.2,6.2-.66,3.09-1a105.74,105.74,0,0,0-14.28-.17C30.37,187.16,29,187.61,32,187.9Z"/><polygon class="cls-6" points="47.35 205.92 47.35 187.91 45.8 187.91 45.8 205.99 47.35 205.92"/><polygon class="cls-6" points="54.92 195.56 37.42 196.43 37.51 197.7 55.01 196.83 54.92 195.56"/><polygon class="cls-6" points="45.8 187.91 47.34 187.91 37.55 186.86 36.01 186.86 45.8 187.91"/><polygon class="cls-6" points="31.57 187.76 30.66 187.68 47.34 186.78 48.43 186.86 31.57 187.76"/><polygon class="cls-6" points="31.57 187.76 31.57 205.94 30.66 205.79 30.66 187.68 31.57 187.76"/><polygon class="cls-6" points="37.55 196.51 26.49 195.69 26.49 196.81 37.55 197.71 37.55 196.51"/><path class="cls-6" d="M34.12,187.29c-.41,0-.75.22-.75.43s.27.34.59.29.93-.1,1.34-.12,1.11-.06,1.54-.11a9.38,9.38,0,0,0,1.34-.26,1.85,1.85,0,0,0,.84-1.14,5.62,5.62,0,0,0,.15-2,3.13,3.13,0,0,0-.88-1.72,1.45,1.45,0,0,0-1.47-.31,1.92,1.92,0,0,0-.88,1.27,2.79,2.79,0,0,0,.62,1.87,5.71,5.71,0,0,0,2,1.46,6.82,6.82,0,0,0,1.62.49,4.71,4.71,0,0,0,1.3-.36,3.73,3.73,0,0,0,1.47-1.34,6.65,6.65,0,0,0,.77-2,1.52,1.52,0,0,0-.39-1.39,3.38,3.38,0,0,0-1.61-.4,1.93,1.93,0,0,0-1.54,1.09,9,9,0,0,0-.59,1.72,1.33,1.33,0,0,0,.15.9,6.39,6.39,0,0,0,.82.64l1,.65a3.29,3.29,0,0,0,1,.38c.34.06,1.14.14,1.78.18s1.6.06,2.13.06.94-.17.9-.37-.34-.38-.68-.38-1,0-1.4-.07-1.12-.07-1.52-.07a4,4,0,0,1-1.34-.27,9.91,9.91,0,0,1-1.08-.53,3,3,0,0,1-.7-.58,2.37,2.37,0,0,1,.22-1.54c.25-.68.76-1.21,1.12-1.18a1.83,1.83,0,0,1,.94.29c.16.13.17.58,0,1a10.14,10.14,0,0,1-.66,1.41,3.45,3.45,0,0,1-1.15,1,3.51,3.51,0,0,1-1.27.38,2.9,2.9,0,0,1-1.17-.36,7.12,7.12,0,0,1-1.07-.73,5.15,5.15,0,0,1-.77-.85,1.61,1.61,0,0,1-.18-1.14,1.22,1.22,0,0,1,.48-.8c.18-.07.54.1.79.38a2.56,2.56,0,0,1,.55,1.29,4.38,4.38,0,0,1-.22,1.65,1.46,1.46,0,0,1-1,1c-.38,0-1.09.1-1.56.12Z"/><path class="cls-7" d="M154,172a9.27,9.27,0,0,1-9.89,9.45l-18-1a10.72,10.72,0,0,1-10-10.55V151.24a9.57,9.57,0,0,1,10-9.61l17.58.68a10.64,10.64,0,0,1,10.1,10.38Z"/><path class="cls-7" d="M167.34,150.6a9,9,0,0,0-10.07-9h-.06a11.32,11.32,0,0,0-9.9,11l.08,19.29a8.73,8.73,0,0,0,10,8.82l.42-.05a11.4,11.4,0,0,0,9.8-11.18Z"/><path class="cls-7" d="M157.32,141.88a146.46,146.46,0,0,1-19.88.63L126.11,142c-5.49-.28-5.53-1.11-.08-1.86l.46-.07a119.07,119.07,0,0,1,19.89-.68l10.86.74C162.73,140.45,162.77,141.26,157.32,141.88Z"/><polygon class="cls-6" points="129.91 180.65 129.91 141.88 132.67 141.88 132.67 180.8 129.91 180.65"/><rect class="cls-6" x="130.56" y="144.98" width="2.74" height="31.37" transform="translate(-36.29 282.81) rotate(-86.59)"/><polygon class="cls-6" points="132.67 141.89 129.91 141.89 147.43 139.63 150.19 139.63 132.67 141.89"/><polygon class="cls-6" points="158.14 141.56 159.76 141.4 129.91 139.47 127.96 139.63 158.14 141.56"/><polygon class="cls-6" points="158.14 141.56 158.14 180.69 159.76 180.37 159.76 141.4 158.14 141.56"/><polygon class="cls-6" points="147.43 160.4 167.22 158.63 167.22 161.05 147.43 162.98 147.43 160.4"/><path class="cls-6" d="M153.58,140.57c.73.05,1.33.46,1.33.91s-.47.73-1.06.62a22.63,22.63,0,0,0-2.4-.24c-.73,0-2-.13-2.75-.24a12.46,12.46,0,0,1-2.4-.57,3.94,3.94,0,0,1-1.49-2.45,14.8,14.8,0,0,1-.28-4.33,7.49,7.49,0,0,1,1.57-3.69,2.31,2.31,0,0,1,2.64-.68,4.24,4.24,0,0,1,1.57,2.74,6.9,6.9,0,0,1-1.1,4,10.45,10.45,0,0,1-6.45,4.17,7.5,7.5,0,0,1-2.32-.76,7.34,7.34,0,0,1-2.64-2.89,16.89,16.89,0,0,1-1.37-4.22,3.65,3.65,0,0,1,.71-3,5.22,5.22,0,0,1,2.87-.86,3.55,3.55,0,0,1,2.75,2.35,19.31,19.31,0,0,1,1.06,3.7,3.34,3.34,0,0,1-.27,1.92,10.58,10.58,0,0,1-1.46,1.39c-.56.45-1.36,1.08-1.77,1.39a5.4,5.4,0,0,1-1.85.82,27.25,27.25,0,0,1-3.18.38c-1.15.08-2.87.15-3.82.15s-1.68-.37-1.61-.82a1.17,1.17,0,0,1,1.22-.81c.6,0,1.74-.07,2.52-.15s2-.14,2.71-.14a6.14,6.14,0,0,0,2.4-.58c.6-.32,1.47-.83,1.93-1.15a5.48,5.48,0,0,0,1.25-1.25c.24-.37.07-1.86-.39-3.31s-1.36-2.6-2-2.55a3.08,3.08,0,0,0-1.7.63,2.86,2.86,0,0,0,0,2.16,22.05,22.05,0,0,0,1.18,3A6.48,6.48,0,0,0,141,138.5a5.61,5.61,0,0,0,2.28.82,4.68,4.68,0,0,0,2.09-.77,14.36,14.36,0,0,0,1.92-1.59,10.76,10.76,0,0,0,1.38-1.82,4.11,4.11,0,0,0,.31-2.45,2.86,2.86,0,0,0-.86-1.73c-.33-.16-1,.21-1.42.82a6.61,6.61,0,0,0-1,2.78,11.41,11.41,0,0,0,.39,3.56,2.92,2.92,0,0,0,1.81,2.06,25.45,25.45,0,0,0,2.8.24C151.55,140.45,152.84,140.51,153.58,140.57Z"/><path class="cls-8" d="M121.38,73.74c1.1,0,1.5.3.88.67a7.32,7.32,0,0,0-1.8,1.58,21,21,0,0,1-1.57,1.79,18.2,18.2,0,0,1-1.8,1.57,3.36,3.36,0,0,1-1.57.68,5.37,5.37,0,0,1-2-.9,8.09,8.09,0,0,1-1.8-1.57c-.24-.37-.75-1.08-1.12-1.57a6.38,6.38,0,0,0-2.28-1.58c-.88-.37-.7-.67.4-.67Z"/><path class="cls-9" d="M121.38,73.74c1.1,0,1.5.3.88.67a7.32,7.32,0,0,0-1.8,1.58,21,21,0,0,1-1.57,1.79,18.2,18.2,0,0,1-1.8,1.57,3.36,3.36,0,0,1-1.57.68,5.37,5.37,0,0,1-2-.9,8.09,8.09,0,0,1-1.8-1.57c-.24-.37-.75-1.08-1.12-1.57a6.38,6.38,0,0,0-2.28-1.58c-.88-.37-.7-.67.4-.67Z"/><path class="cls-10" d="M131.62,33.75a2.3,2.3,0,0,1,2.54,2.76L129.22,69.2a5.27,5.27,0,0,1-3.31,3.86l-7.3,2.26a2.08,2.08,0,0,1-2.86-2.11V37.89a3.28,3.28,0,0,1,3-3.22Z"/><path class="cls-9" d="M131.62,33.75a2.3,2.3,0,0,1,2.54,2.76L129.22,69.2a5.27,5.27,0,0,1-3.31,3.86l-7.3,2.26a2.08,2.08,0,0,1-2.86-2.11V37.89a3.28,3.28,0,0,1,3-3.22Z"/><path class="cls-10" d="M114.85,73a2.17,2.17,0,0,1-2.89,2.2l-7.25-2a4.75,4.75,0,0,1-3.2-3.78L98.09,36.3a2.42,2.42,0,0,1,2.68-2.75l11.09.88a3.31,3.31,0,0,1,3,3.23Z"/><path class="cls-9" d="M114.85,73a2.17,2.17,0,0,1-2.89,2.2l-7.25-2a4.75,4.75,0,0,1-3.2-3.78L98.09,36.3a2.42,2.42,0,0,1,2.68-2.75l11.09.88a3.31,3.31,0,0,1,3,3.23Z"/><path class="cls-11" d="M112.46,22.11c1.32-1,2.39-.47,2.39,1.18v8.37a2.74,2.74,0,0,1-3,2.77l-11.09-.88c-1.64-.13-1.92-1-.6-2.06Z"/><path class="cls-9" d="M112.46,22.11c1.32-1,2.39-.47,2.39,1.18v8.37a2.74,2.74,0,0,1-3,2.77l-11.09-.88c-1.64-.13-1.92-1-.6-2.06Z"/><path class="cls-11" d="M131.26,31.68c1.35,1,1.11,1.82-.54,1.93l-12.88.85a2.78,2.78,0,0,1-3-2.8v-8.6c0-1.65,1.1-2.22,2.45-1.26Z"/><path class="cls-9" d="M131.26,31.68c1.35,1,1.11,1.82-.54,1.93l-12.88.85a2.78,2.78,0,0,1-3-2.8v-8.6c0-1.65,1.1-2.22,2.45-1.26Z"/><path class="cls-12" d="M122,67.31c1.22,1.52,1.86,3.12,1.43,3.56s-1.41.12-2.16-.73l-2.48-2.75a1.37,1.37,0,0,1,0-2C119.35,64.92,120.82,65.8,122,67.31Z"/><path class="cls-13" d="M130.44,38.05c.76,1.73,1.16,3.55.87,4s-.92.09-1.4-.89-1.18-2.39-1.56-3.15a2.35,2.35,0,0,1,0-2.28C128.73,35.28,129.67,36.31,130.44,38.05Z"/><circle class="cls-14" cx="115.07" cy="16.47" r="3.82"/><path class="cls-8" d="M94.76,11.15c.1-1.78,2.42-3,5.15-2.65L112,9.93c2.73.32,4.45,1.81,3.83,3.29s-3.39,2.53-6.13,2.32l-10.17-.78C96.82,14.55,94.66,12.92,94.76,11.15Z"/><g class="cls-15"><path class="cls-10" d="M260.55,191.49a7.39,7.39,0,0,1-7,7.33L8.16,210.47a6.6,6.6,0,0,1-7-6.66l.09-39.49c0-3.85,0-10.15,0-14L1.58,16a7.33,7.33,0,0,1,7-7.23l243.88-8a6.79,6.79,0,0,1,7,6.77L260,97.62c0,3.85.06,10.15.08,14l0,1.85c0,3.85.06,10.15.08,14l.13,23.7c0,3.85.06,10.15.08,14Z"/></g><circle class="cls-16" cx="115.93" cy="54.41" r="24.02"/><circle class="cls-16" cx="114.86" cy="54.41" r="34.7"/></g></svg>
