<svg xmlns="http://www.w3.org/2000/svg" width="675" height="500" viewBox="0 0 675 500"><defs><style>.cls-1{fill:#ea591f;}.cls-2{fill:#eb5e28;}.cls-3{fill:#ee7444;}.cls-4{fill:#ec6632;}.cls-5{fill:#ef8257;}.cls-6{fill:#442518;}</style></defs><title>start_screen_title</title><g id="final"><path class="cls-1" d="M630.23,261.75c0,104.13-81.84,192.62-195.8,224.85a344.21,344.21,0,0,1-62.67,11.57q-11.29,1.05-22.83,1.34c-3.23.09-6.49.14-9.75.14-3.74,0-7.48,0-11.19-.2C172.43,494.66,48.13,390.07,48.13,261.75c0-125.3,118.5-228,268.91-237.2q11-.71,22.14-.7a356.35,356.35,0,0,1,43.44,2.64c1.79.2,3.56.44,5.34.7a335.51,335.51,0,0,1,77.25,20.07C562.83,85.65,630.23,167.26,630.23,261.75Z"/><path class="cls-2" d="M535.44,250.15c0,93.62-38.93,177.84-101,236.45a344.21,344.21,0,0,1-62.67,11.57q-11.29,1.05-22.83,1.34c-3.23.09-6.49.14-9.75.14-3.74,0-7.48,0-11.19-.2C172.43,494.66,48.13,390.07,48.13,261.75c0-125.3,118.5-228,268.91-237.2q11-.71,22.14-.7a356.35,356.35,0,0,1,43.44,2.64c1.79.2,3.56.44,5.34.7a335.51,335.51,0,0,1,77.25,20.07C509.11,102.53,535.44,173.15,535.44,250.15Z"/><path class="cls-3" d="M444.65,237.09c0,104.07-36.93,197.66-95.72,262.42-3.23.09-6.49.14-9.75.14-3.74,0-7.48,0-11.19-.2C172.43,494.66,48.13,390.07,48.13,261.75c0-125.3,118.5-228,268.91-237.2q11-.71,22.14-.7a356.35,356.35,0,0,1,43.44,2.64c1.79.2,3.56.44,5.34.7,1.79,2.93,3.53,5.92,5.24,8.93l0,0C425.67,93.22,444.65,162.47,444.65,237.09Z"/><path class="cls-4" d="M455.33,258.85c0,117.09-35.75,215-83.57,239.32q-11.29,1.05-22.83,1.34c-3.23.09-6.49.14-9.75.14-3.74,0-7.48,0-11.19-.2-49.16-22-86.27-121.33-86.27-240.6,0-110.25,31.69-203.46,75.32-234.3l65.58,1.94a89.41,89.41,0,0,1,10.58,9.63l0,0C429.89,75,455.33,160.09,455.33,258.85Z"/><path class="cls-5" d="M180.25,461.07C100.68,418.62,48.13,345.19,48.13,261.75c0-74.47,41.87-140.94,107.4-184.55-17.79,41.2-29.4,87.65-33.11,137.29C115.42,308.26,138.06,395.67,180.25,461.07Z"/><path class="cls-6" d="M367.55,112a3.12,3.12,0,0,1,1,1.92c-.17.64-.29,1.14-.38,1.51a9.67,9.67,0,0,0-1.82.21,10.4,10.4,0,0,1-1.45.2l-3.65-.14a19.59,19.59,0,0,1-2.52.48,22.48,22.48,0,0,1-3.28.35,3.2,3.2,0,0,1-2.39-.69,13.92,13.92,0,0,1,0-5.34q-.13-1.09-1.51-6.91c-.93-3.87-1.47-5.86-1.64-6a3.84,3.84,0,0,0-1.51-.27q-1.52,0-7.56,1.91-5.16,1.65-6.36,2.94a7.69,7.69,0,0,0-1.7,3.77c-.17,1.28-.38,2.6-.63,4q-1.26,7.8-1.26,7.93,0,5.9,3.78,7.39a1.31,1.31,0,0,1,.44.41,1.17,1.17,0,0,1,.19.69h-.38v.27c-3.11-.36-4.66-1.28-4.66-2.73h-.63v7.93h-.5a53.85,53.85,0,0,1-1.26-5.47,7.74,7.74,0,0,1,0-2.05q.12-1.51.12-1.92-.63-.27-.63,0A12.56,12.56,0,0,1,324.1,124l-1.77-.41v-.27a6.49,6.49,0,0,0,3.66-2.47,39.28,39.28,0,0,0,2.64-7.52c1.34-6.21,2.19-10.49,2.52-12.87l.76-4.79h-.25l-6.18,3.56a14.1,14.1,0,0,0-1.13-2.74l8.44-4q.88-9.58,1.51-14.24,1.77-19.56,2.39-33.94c0-.36.17-2.1.51-5.2q.38-4.24.38-6.57a7.8,7.8,0,0,0-.63-3.83c-.43-.64-1.77-1-4-1q-6.93,0-7.69,2.33A5.49,5.49,0,0,0,325,31.8a3.9,3.9,0,0,0,1,2.67,2.94,2.94,0,0,0,2.26,1.16c1.1,0,1.64-.73,1.64-2.19l-1.7-.2c-.38-.05-.52-.53-.44-1.44s.25-1.37.5-1.37v.28q3.92-.55,3.91,3.14a4.9,4.9,0,0,1-1.2,3.22,3.82,3.82,0,0,1-3.08,1.44,4.56,4.56,0,0,1-4-2.12,8.63,8.63,0,0,1-1.45-5q0-5.61,4.16-5.61c1.26-.09,2.18-.18,2.77-.27a20.22,20.22,0,0,1,6.17-.28,49,49,0,0,1,5.79,1.17c3.19.61,5,1.09,5.29,1.43.59.73,1.05,2.24,1.39,4.53.25,1.73.5,3.42.76,5.07q2,9.32,2.77,12.47,2.9,12.75,4.15,19.19,3.92,13.84,5.92,20.83,3.15,13.44,4.66,20.29C366.38,110.3,366.8,110.9,367.55,112ZM349.29,93c0-1.19-.76-1.92-2.27-2.19a36.16,36.16,0,0,1-3.65,1.09q-4.29,1.65-6.55,2.46a5.54,5.54,0,0,0-1.89,1,5.74,5.74,0,0,0-1.13,4h1.51Q344.63,95,347.53,95a8.3,8.3,0,0,0,1.38-1.1A1.36,1.36,0,0,0,349.29,93Zm-14-1h.75q9.7-3.7,12.1-3.7a16.13,16.13,0,0,0-.76-4.51q-1.51-7.26-2-9.72-2.26-13.55-3.27-20.39Q340.34,43.31,339.46,41q-1.12,20.25-1.76,30.38Q336.19,85.18,335.31,92Z"/><path class="cls-6" d="M12.76,151.84q15.5,1.23,16.82,4.72.95,2.48-.38,16.63-.19,5.75-2.08,22-.37,2.25,0,17.24v5.13q4.77.42,13.93,1.44c3.06.28,4.65.34,4.78.2q0-4.3-.67-13.13t-.66-37.78v-5.95c.88-1.5,2.71-2.26,5.48-2.26.88-.13,2.14-.27,3.78-.41,1.76-.82,2.9-.47,3.4,1q0,10.25,1,26.23.38,8.61,1.7,25.82.18,3.08.19,29.11v17q.26,7,.94,21.31-.37,5.53-7,5.54c-4.91,0-7.37-1.1-7.37-3.28q0-5.12-.38-15.86t-.37-16.06q0,2.87.56-13.71.38-10.44-.58-11.87c-.38-.54-3.3-1.33-8.76-2.35A78.44,78.44,0,0,0,26.55,221v17.45q0,10.28.57,26.69,0,1,.85,6.46a57.44,57.44,0,0,1,.85,7.91,7.15,7.15,0,0,1-.37,2.67c-.63,1.09-2.12,1.64-4.49,1.64q-6.72,0-9.52-1.64c-1.12-.69-1.74-2.6-1.87-5.75V248.53q0-6.17-1.7-79.65a40,40,0,0,0-.56-9.65l-.67-.72A1.58,1.58,0,0,0,8.42,158q-2.83,0-2.84,4.11c0,1.37.44,2,1.32,2,1.39,0,2.08-.75,2.08-2.26h.38v.82a3.64,3.64,0,0,1,1.13,2.47q0,4.09-4.53,4.1a4.11,4.11,0,0,1-3.78-2.67,9,9,0,0,1-.38-4.72,10,10,0,0,1,4-7Q7.09,153.9,12.76,151.84Z"/><path class="cls-6" d="M119.51,252q-3.78,16.43-12.28,25.87a19.19,19.19,0,0,1-5.48,4.51,17.5,17.5,0,0,1-4.16,1.44Q94.38,283.65,88,281t-8.32-5.14q-2.83-3.27-5.48-10.67a188.06,188.06,0,0,1-6.61-25.25q-1.51-13.35-1.7-20.32-.75-5.75-1.32-11.3a51.09,51.09,0,0,1-.19-11.49q1.13-10.05,1.89-15,2.26-7.38,2.64-8.21,2.66-9,5.29-12.52,6.24-8.21,13.42-10.47l6-.82a37.54,37.54,0,0,0,4.54.41,8.16,8.16,0,0,1,4.15.82,15.26,15.26,0,0,1,4.54,5.34c.38.55,1.38,2.5,3,5.85s2.9,5.78,3.78,7.29q6.24,16.22,7.75,47.83c.38,3.56.63,6.29.75,8.21A101.38,101.38,0,0,1,119.51,252ZM84.93,214.45h7.18V214q0-9.43.19-14.16.38-15.4-.75-33.67V161.7a8.29,8.29,0,0,0-.76-4.11c-1.26,1.92-2.14,3.28-2.65,4.11a90.24,90.24,0,0,0-1.7,9Q84.93,180.8,84.93,214.45Zm8.32,9.65a24.62,24.62,0,0,1-1.14-6.77h-3c-1.89.14-3.28.27-4.16.41,0,3,.29,5.06.85,6.16s2.11,1.64,4.63,1.64c1-.41,1.83-.75,2.46-1C92.87,224.24,93,224.1,93.25,224.1Zm3,51.53q-2.83-34.49-3-35.52l-.76-11.29a3.38,3.38,0,0,0-.94-1.43,9.73,9.73,0,0,1-3.22.61c-1.76.28-2.64.21-2.64-.2a1.1,1.1,0,0,1-.76.41,183.66,183.66,0,0,0,2.84,19.5q1.13,5.55,4.34,18.68l1.7,5.34,1.89,3.9Zm7-103q-1.52-8-2.27-12.12l-2.26-6H95c-.13,3.7-.26,6.36-.38,8q.71,16.22.94,24.22v31l.76,6.77-.76,8.21q.87,10.28,3,30.18,1.13,12.32,1.51,15h.38v-.41a52.36,52.36,0,0,0,3.21-10.06q3.21-10.26,3.4-30.18A412.39,412.39,0,0,0,103.26,172.58Z"/><path class="cls-6" d="M141.8,146.71q.94-.41,5.86-.41c.5-.41,1.13-.27,1.89.41a4.57,4.57,0,0,1,1.41,2,34.37,34.37,0,0,1,.66,3.49,27.81,27.81,0,0,0-.56,9.86,177.22,177.22,0,0,1,0,20.11q-.76,20.53-.76,20.94-.44,10.47-1.51,27.92,0-.62.19,12.73,0,3.69,1.13,16.42,0,4.32.19,8.62.19,6.58,1.32,7.6,1.71,1.85,10.4,1.85c.62-.41,3.27-1.3,7.93-2.67q3.78-1,6.24-6.37a4.14,4.14,0,0,0-.38-4.51c-2-2.46-4-3.22-6.05-2.26a1.85,1.85,0,0,0-1.13,1.64,4.71,4.71,0,0,0,1.51,3.08c1,1.1,1.76,1.64,2.27,1.64l-1.7,3.08q-6.24-2.65-6.24-6.77a15.83,15.83,0,0,1,.57-3.7,9.89,9.89,0,0,1,2.08-3.49,7.2,7.2,0,0,1,2.45-.41q3.41,0,9.07,3.94c.38.28.73,1.45,1,3.52a12.62,12.62,0,0,1,.1,4.56q-.57,1.46-3.39,7.46l-1.32,2.9q-4.51.75-13,2.05-2.07.42-10.16-.2-7.35.61-19.2,2V244.22q0-46.6,2.72-66.92a153.23,153.23,0,0,0,1.63-19.09q0-4.32-1-6.06t-5.67-1.74a21,21,0,0,0-2.08,8.21h1v-.41A29.53,29.53,0,0,1,131,155a3.4,3.4,0,0,1,2.46-1.74c.25-.14.37-.07.37.2a5.77,5.77,0,0,1,.38,2.06,7.13,7.13,0,0,1-1.6,4.51,4.52,4.52,0,0,1-3.5,2.06q-4.35,0-4.35-6,0-6.15,3.59-8.82Q129,146.71,141.8,146.71Z"/><path class="cls-6" d="M197.16,146.71q.94-.41,5.85-.41c.51-.41,1.14-.27,1.89.41a4.52,4.52,0,0,1,1.42,2,34.37,34.37,0,0,1,.66,3.49,27.81,27.81,0,0,0-.56,9.86,182,182,0,0,1,0,20.11q-.76,20.53-.76,20.94-.43,10.47-1.51,27.92,0-.62.19,12.73,0,3.69,1.13,16.42,0,4.32.19,8.62c.12,4.39.57,6.92,1.32,7.6q1.71,1.85,10.39,1.85.94-.62,7.94-2.67,3.78-1,6.23-6.37a4.12,4.12,0,0,0-.37-4.51c-2-2.46-4-3.22-6-2.26a1.83,1.83,0,0,0-1.13,1.64,4.71,4.71,0,0,0,1.51,3.08c1,1.1,1.76,1.64,2.27,1.64l-1.7,3.08q-6.24-2.65-6.24-6.77a15.83,15.83,0,0,1,.57-3.7,9.89,9.89,0,0,1,2.08-3.49,7.2,7.2,0,0,1,2.45-.41q3.4,0,9.07,3.94c.38.28.72,1.45,1,3.52a12.56,12.56,0,0,1,.09,4.56q-.56,1.46-3.38,7.46l-1.32,2.9q-4.52.75-13,2.05c-1.39.28-4.77.21-10.17-.2q-7.34.61-19.19,2V244.22q0-46.6,2.71-66.92a151.31,151.31,0,0,0,1.63-19.09q0-4.32-.94-6.06t-5.67-1.74a20.83,20.83,0,0,0-2.08,8.21h.95v-.41a29.53,29.53,0,0,1,1.7-3.19,3.38,3.38,0,0,1,2.45-1.74c.26-.14.38-.07.38.2a6,6,0,0,1,.38,2.06,7.14,7.14,0,0,1-1.61,4.51,4.49,4.49,0,0,1-3.49,2.06q-4.35,0-4.35-6,0-6.15,3.59-8.82Q184.31,146.71,197.16,146.71Z"/><path class="cls-6" d="M277.83,154.1q10.2.61,10,10.26l-1.7,7c-1.14,3-2.59,7-4.35,12.12q-2.64,6.76-7.56,20.73-.94,3.08-2.83,9L271.22,226q.38,1.85.57,36.54a42.43,42.43,0,0,1-2.46,14.58q-1.12,2.67-7.27,10.67t-10.11,8h.38a126.51,126.51,0,0,0,4.15-13l.95-8.86a151.33,151.33,0,0,1-.76-17.71q0-1.84-.38-10.7c-.25-6.59-.37-10.36-.37-11.33V224.09a32.45,32.45,0,0,0-1.14-9.67l-2.26-5.56-3.22-10.71-4.72-12.35q-1.14-4.53-3.4-13.39l-2.65-7a23.23,23.23,0,0,1-1.89-7.41H237a12.48,12.48,0,0,1,4.73-.62q9.25,0,11.33,2.88.94,1.44.38,6a43,43,0,0,0-.19,6.57q4.91,21.36,13.42,34.28a7.75,7.75,0,0,1,1.51,3.08h.38v-.61q5.48-14.79,9.82-26.28,3.59-9.24,4.16-13.14a13.16,13.16,0,0,1,.66-3.08,13.46,13.46,0,0,0,.66-3.49q0-4.92-5.18-4.92a7.21,7.21,0,0,0-4.71,1.84,5.7,5.7,0,0,0-2.2,4.52c0,2.46.78,3.69,2.36,3.69s2.55-.88,2.55-2.66c-.63.13-1.45.27-2.46.41-.37-1.78-.5-2.67-.37-2.67a3.37,3.37,0,0,1,2.37-.82c2.07,0,3,1,2.92,3.08-.26,4.24-2.08,6.36-5.48,6.36a4.83,4.83,0,0,1-3.59-1.54c-1-1-1.51-2.63-1.51-4.82a11.86,11.86,0,0,1,2.5-8,8.21,8.21,0,0,1,6.75-3.49Z"/><path class="cls-6" d="M370.6,237.65q0,3.49-3.59,17-1.89,8-2.65,12.11a53.08,53.08,0,0,1-3.21,7.19q-3.21,7.38-4,9-6,10.26-17.76,10.26a19.32,19.32,0,0,1-6.23-1,15.3,15.3,0,0,1-7.56-6.16,17,17,0,0,1-3-9.65,14.9,14.9,0,0,1,.75-4.72q2.08-6.57,8.69-6.57,5.86,0,8.13,5.75a9.65,9.65,0,0,1,.75,5.75q-1.32,5.54-6.8,5.54a4.11,4.11,0,0,1-3.78-2.47,3.65,3.65,0,0,1,.57-4.31,3,3,0,0,1,2.83-1.23c1.14.28,1.45,1.1.95,2.47s-.44,2.25-.19,2.25v-.41q4.15-2,2.08-6.57c-1.14-2.18-1.7-3.14-1.7-2.87q-9.08-.21-9.07,8.42a10.85,10.85,0,0,0,5.48,9.64q3.78,2.47,10.77,2.47a9.18,9.18,0,0,1,2.26-.41q4.35-3.09,6.33-4.72A20.69,20.69,0,0,0,355,278.3a30.89,30.89,0,0,0,2.93-7.19q.38-2.46-.95-8.82a51.88,51.88,0,0,0-4.72-13.76,35.57,35.57,0,0,0-6.61-7.59q-1-.83-7.75-6.16-7.76-6.17-9.07-7-3-1.65-6-3.49a15.2,15.2,0,0,1-5.19-5c-1.07-1.85-1.61-5.3-1.61-10.37a63.08,63.08,0,0,1,2.27-17q5.3-12.72,8.5-18.88a51.59,51.59,0,0,0,1.89-4.93,10.36,10.36,0,0,1,2.46-4.52q4,1,13.6,1.23,6.62.63,21,.62a6.09,6.09,0,0,1,1.7.51A1.18,1.18,0,0,1,368,167q0,2.06-4.82,7.91t-5.19,7.28q-.39,1.44-.57,1.44-1.89.83-7.56-.2-7.94-1.65-11.9-.62c-.88.28-1.32.55-1.32.82-2.77-.41-4.51-.17-5.2.72s-1,2.91-1,6.06c0,.95.13,1.43.38,1.43q1.69,4.73,11.34,11.91.94.61,10.39,7Q370.6,222.67,370.6,237.65Zm-31.75-14.78L324.5,212.81c-2.4-2.32-4-3.9-4.92-4.72v4.52a9.53,9.53,0,0,0,.76,4.2,11,11,0,0,0,3,3.39,72.37,72.37,0,0,0,6.9,4.31c4,2.33,6.2,3.49,6.71,3.49Zm6,5.95q0-2.46-3.21-3.69a20.63,20.63,0,0,0-1.7,4.31,3.82,3.82,0,0,0,1.42,2.77c.94.89,1.54,1.33,1.79,1.33v-.41A8.79,8.79,0,0,0,344.9,228.82Zm17.19,27.92q-.75-6.15-5.19-14.78t-9-11.29c-.75,2.46-1.26,4.31-1.51,5.54q8.31,6.38,12.66,18.68A25.09,25.09,0,0,1,361,262.7,14.2,14.2,0,0,0,362.09,256.74Z"/><path class="cls-6" d="M430.68,175q0-2.25-1.14,16.63a125.92,125.92,0,0,1-2.83,13.75q-.76,5.13-1.7,10.47a26.52,26.52,0,0,1-3.4,9.44,69.12,69.12,0,0,0-5.11,4.93l-3,2.67c-1.39.55-2.71,1-4,1.44q-2.83,1-3.21,1.95c-.25.61-.31,3.32-.19,8.1q.19,13.56.19,11.91,0,11.51.19,12.73v7.8l-.75,5.95c-1.89-.13-3.28-.2-4.16-.2-1.26.27-2.58.55-4,.82a28.59,28.59,0,0,1-5.1.61c-1.89,0-3-.47-3.4-1.43q-.19-.21.38-6.57.94-9.44-.19-31-.39-10.47,0-38.8l.57-35.92q-1.51-4.51-2.08-6.78a14.61,14.61,0,0,0-3.5-3.69c-1.83-1.51-3.18-2.19-4.06-2.06q-3.78.63-3.78,6.16c0,1.65.44,2.74,1.32,3.29.38.41.69.2,1-.62a1,1,0,0,1,.28-.72,1,1,0,0,0,.29-.71c2-.83,3-1,3-.42a6.19,6.19,0,0,1,.75,2.88q0,4.51-4.34,4.52c-1.77,0-3.21-1.06-4.35-3.19a14.82,14.82,0,0,1-1.7-7.08c0-2.87.82-4.86,2.46-6a30,30,0,0,1,6.61-2.47q23.06,2.88,37,4.73,7,2.46,8.88,4.31Q430.68,165.59,430.68,175Zm-14.36,11.5q0-23.82-7.89-26.69l-1.28,4.92q-.56,4.93-.73,6.78c-.61,2.33-1,3.77-1.1,4.31q-.37,7.39-.37,11.29c-.37,3.15-.67,5.54-.91,7.19v13.54q.93,7.81,1.51,11.5.18,1,.19,12.32c2.64,0,4.47-1,5.47-2.88a49.21,49.21,0,0,0,2.27-10.67A174.25,174.25,0,0,0,416.32,186.54Z"/><path class="cls-6" d="M486.41,252q-3.78,16.43-12.28,25.87a19.05,19.05,0,0,1-5.48,4.51,17.35,17.35,0,0,1-4.16,1.44q-3.21-.19-9.63-2.87t-8.32-5.14q-2.84-3.27-5.48-10.67a188.06,188.06,0,0,1-6.61-25.25q-1.51-13.35-1.7-20.32-.75-5.75-1.32-11.3a51.09,51.09,0,0,1-.19-11.49c.76-6.7,1.38-11.7,1.89-15q2.26-7.38,2.64-8.21,2.66-9,5.29-12.52,6.24-8.21,13.42-10.47l6-.82a37.29,37.29,0,0,0,4.53.41,8.23,8.23,0,0,1,4.16.82,15.35,15.35,0,0,1,4.53,5.34q.57.82,3,5.85t3.78,7.29q6.24,16.22,7.75,47.83c.38,3.56.63,6.29.75,8.21A101.38,101.38,0,0,1,486.41,252Zm-34.58-37.57H459V214q0-9.43.19-14.16.38-15.4-.75-33.67V161.7a8.29,8.29,0,0,0-.76-4.11c-1.26,1.92-2.14,3.28-2.64,4.11a84.79,84.79,0,0,0-1.7,9Q451.83,180.8,451.83,214.45Zm8.32,9.65a24.62,24.62,0,0,1-1.14-6.77h-3c-1.89.14-3.28.27-4.16.41,0,3,.29,5.06.85,6.16s2.11,1.64,4.63,1.64c1-.41,1.83-.75,2.46-1C459.77,224.24,459.89,224.1,460.15,224.1Zm3,51.53q-2.84-34.49-3-35.52l-.76-11.29a3.38,3.38,0,0,0-.94-1.43,9.72,9.72,0,0,1-3.21.61c-1.77.28-2.65.21-2.65-.2a1.08,1.08,0,0,1-.76.41,186.28,186.28,0,0,0,2.84,19.5q1.13,5.55,4.34,18.68l1.7,5.34,1.89,3.9Zm7-103q-1.52-8-2.27-12.12l-2.26-6h-3.78c-.13,3.7-.26,6.36-.38,8q.7,16.22.95,24.22v31l.75,6.77-.75,8.21q.85,10.28,3,30.18,1.13,12.32,1.51,15h.38v-.41a52.36,52.36,0,0,0,3.21-10.06q3.21-10.26,3.4-30.18A412.39,412.39,0,0,0,470.16,172.58Z"/><path class="cls-6" d="M546.68,252q-3.78,16.43-12.28,25.87a19.19,19.19,0,0,1-5.48,4.51,17.5,17.5,0,0,1-4.16,1.44q-3.21-.19-9.64-2.87t-8.31-5.14q-2.83-3.27-5.48-10.67a188.06,188.06,0,0,1-6.61-25.25q-1.52-13.35-1.7-20.32-.76-5.75-1.32-11.3a51.09,51.09,0,0,1-.19-11.49q1.13-10.05,1.89-15,2.27-7.38,2.64-8.21,2.64-9,5.29-12.52,6.24-8.21,13.42-10.47l6-.82a37.54,37.54,0,0,0,4.54.41,8.16,8.16,0,0,1,4.15.82,15.26,15.26,0,0,1,4.54,5.34c.38.55,1.38,2.5,3,5.85s2.9,5.78,3.78,7.29q6.24,16.22,7.75,47.83c.37,3.56.63,6.29.75,8.21A101.38,101.38,0,0,1,546.68,252ZM512.1,214.45h7.18V214q0-9.43.19-14.16.38-15.4-.76-33.67V161.7a8.31,8.31,0,0,0-.75-4.11c-1.26,1.92-2.14,3.28-2.65,4.11a87.43,87.43,0,0,0-1.7,9Q512.1,180.8,512.1,214.45Zm8.32,9.65a24.62,24.62,0,0,1-1.14-6.77h-3c-1.89.14-3.28.27-4.16.41q0,4.51.85,6.16t4.63,1.64c1-.41,1.83-.75,2.46-1C520,224.24,520.16,224.1,520.42,224.1Zm3,51.53q-2.84-34.49-3-35.52l-.76-11.29a3.27,3.27,0,0,0-.95-1.43,9.59,9.59,0,0,1-3.21.61c-1.76.28-2.64.21-2.64-.2a1.1,1.1,0,0,1-.76.41,183.66,183.66,0,0,0,2.84,19.5q1.13,5.55,4.34,18.68l1.7,5.34,1.89,3.9Zm7-103q-1.51-8-2.27-12.12l-2.27-6h-3.77c-.13,3.7-.26,6.36-.38,8q.71,16.22.94,24.22v31l.76,6.77-.76,8.21q.87,10.28,3,30.18,1.13,12.32,1.51,15h.37v-.41a51.84,51.84,0,0,0,3.22-10.06q3.21-10.26,3.4-30.18A414.82,414.82,0,0,0,530.43,172.58Z"/><path class="cls-6" d="M571.61,150.82q8.13-.42,9.07,2.66,1.32,4.72-.25,22-.25,5.34-.13,17.24-.24,3.9-.37,11.91c.24,5.2.31,7.8.18,7.8.13.55.44.69.94.41q7.26-11.09,11.56-19.3,3.72-6.36,10.25-19.29a88.17,88.17,0,0,0,2.61-10.68,24.24,24.24,0,0,1,1.87-7c-.25-1.77.12-2.67,1.12-2.67a3.85,3.85,0,0,0-.19-1q7.17-.21,14.36,0H623A34.43,34.43,0,0,1,620.4,164q-2.05,5.14-4.1,10.3-1.31,4.11-4.47,11.53-2.79,3.92-8,12.15c-.74,1.65-2,4.19-3.72,7.62a20.79,20.79,0,0,0-3.17,5.56,60.19,60.19,0,0,0,2.14,7q2.13,6.39,6.77,18.33a84.07,84.07,0,0,0,2,10.3c.86,2.88,2.23,7.14,4.08,12.77q2,5.15,5.2,16.47a42.32,42.32,0,0,1,1.49,5.77h-4.2c-.38.13-2.07.58-5.06,1.33a30.46,30.46,0,0,1-6.58,1.13,4.67,4.67,0,0,1-3.05-.82c-.38-2.19-.89-5-1.52-8.42q-.59-1.85-1.53-5.54T594.24,258q-1.35-5.33-4.2-15.6a73.55,73.55,0,0,0-5-13.55q-2.69-4.09-5.15-7.8.18,8.47,0,14.67-.57,11.58-.76,9.3.38,6,1.13,18.18,0,.21,2.46,16.54v4.54l-7.83-1h-5c-2,0-3.37-.61-4-1.84q-.76-1.23-.57-4.92V264.78q-.15-3.69-.15-5.95,0-3.06-.51-8.6c-.34-3.69-.57-6.42-.66-8.2q0-4.71.52-12.09.54-9,.8-12.1V167.43q0-7.17-2.7-8.61a7.33,7.33,0,0,0-3.08-.61c-2.57,0-3.85.2-3.85.61-.13,1.37-.2,2.67-.2,3.9q.19,3.9,1.23,3.9a9.26,9.26,0,0,1,2,.21c.12-1.92.31-3.76.56-5.54,0-.14.25-.38.76-.72s.75-.58.75-.72A7.26,7.26,0,0,1,563.3,165q0,6-5.67,6a6.26,6.26,0,0,1-4.72-2.26q-1.32-1.42-1.32-6.56c-.13-3.56.21-5.68,1-6.37s3.3-1.16,7.46-1.43a17.31,17.31,0,0,1,5.67-2.06A25.15,25.15,0,0,0,571.61,150.82Z"/><path class="cls-6" d="M663.62,154.1q10.21.61,10,10.26l-1.7,7c-1.14,3-2.59,7-4.35,12.12Q665,190.23,660,204.19q-.94,3.08-2.83,9L657,226q.38,1.85.57,36.54a42.43,42.43,0,0,1-2.46,14.58q-1.12,2.67-7.27,10.67t-10.11,8h.38a124,124,0,0,0,4.15-13l1-8.86a151.33,151.33,0,0,1-.76-17.71c0-1.23-.12-4.8-.38-10.7-.25-6.59-.37-10.36-.37-11.33V224.09a32.45,32.45,0,0,0-1.14-9.67l-2.26-5.56-3.22-10.71-4.72-12.35q-1.12-4.53-3.4-13.39l-2.64-7a23,23,0,0,1-1.89-7.41h.37a12.48,12.48,0,0,1,4.73-.62q9.26,0,11.33,2.88.95,1.44.38,6a44.45,44.45,0,0,0-.19,6.57q4.92,21.36,13.42,34.28a7.75,7.75,0,0,1,1.51,3.08h.38v-.61q5.48-14.79,9.82-26.28,3.59-9.24,4.16-13.14A13.72,13.72,0,0,1,669,167a13.46,13.46,0,0,0,.66-3.49q0-4.92-5.18-4.92a7.21,7.21,0,0,0-4.71,1.84,5.7,5.7,0,0,0-2.2,4.52c0,2.46.78,3.69,2.36,3.69s2.55-.88,2.55-2.66c-.63.13-1.45.27-2.46.41-.37-1.78-.5-2.67-.37-2.67a3.37,3.37,0,0,1,2.37-.82c2.07,0,3,1,2.92,3.08-.26,4.24-2.08,6.36-5.48,6.36a4.83,4.83,0,0,1-3.59-1.54c-1-1-1.51-2.63-1.51-4.82a11.82,11.82,0,0,1,2.51-8,8.18,8.18,0,0,1,6.74-3.49Z"/><path class="cls-6" d="M193.8,412.28c-.25,2.55-.63,4.2-1.13,4.93q-1.14,1.5-9.13,4.17t-9.89,2.26q-3.15-.69-7.18-5.2a18.52,18.52,0,0,1-2.52-5.27c-1-2.78-1.38-4.54-1.13-5.27a54.43,54.43,0,0,1-1.64-9.58q-.37-3-.76-10c-.17-3.29-.29-5.7-.37-7.25,0,1,.2-1.74.63-8.22q.62-8.89,1.26-12.72,2.13-7.12,3.4-10.4,2.5-7.39,4.28-9.45,3.52-3.56,10.45-3.15,3.78-.4,13.1.83.63,0,.63.27c.08.09.08.23,0,.41-.08,0-1.26,1.73-3.52,5.2-1.85,2.83-2.95,4.24-3.28,4.24a40.54,40.54,0,0,1-4.28-1.23,13.76,13.76,0,0,0-2.77,0,53.68,53.68,0,0,0-.76,5.48,132.12,132.12,0,0,0-1.89,27.23q.25,4.24.38,6.43v4.79q.75,7.53,1,14.1v7.94c.42,3.46,1.8,5.2,4.15,5.2a10,10,0,0,0,7.56-3.15c.59-.64.92-1.87,1-3.7a9,9,0,0,0-.19-2.87,1.64,1.64,0,0,0-1.83-1.23c-1.76,0-2.85.68-3.27,2.05a6.29,6.29,0,0,0,.13,2.33,3.55,3.55,0,0,1,2.07.2c.3.23.4.89.32,2a5.63,5.63,0,0,1-3.78-.14A3.67,3.67,0,0,1,183.1,410c0-3.74,2.05-5.61,6.17-5.61,2.27,0,3.73.91,4.41,2.74A13.93,13.93,0,0,1,193.8,412.28Zm-23.55-35.86c1.84.28,3.23.46,4.16.55v-.27c.34-4.2.72-8.44,1.11-12.73s.77-7.53,1.12-9.72a22.1,22.1,0,0,0,.66-5.34Q171.15,356.59,170.25,376.42Zm.69,5.75c.21.27,1.11.46,2.71.55a7.07,7.07,0,0,0,1.39-.28v-3.55h-4.79A11,11,0,0,0,170.94,382.17Zm5.73,31.2c-.25-2.19-.42-3.83-.5-4.92.08-1.37.12-2.37.12-3q-.37-9-.75-13.55-.14-4-.13-5.89a3.08,3.08,0,0,0-1.89-1.09l-2.77.68v.28a68.78,68.78,0,0,1,.88,7c.34,2.56.63,4.43.89,5.62q.75,6.15,1.13,9.17l.76,2.6a10.87,10.87,0,0,0,1.07,1.43,6.32,6.32,0,0,1,1,1.44C176.52,413.28,176.59,413.37,176.67,413.37Z"/><path class="cls-6" d="M202.87,334.54q10.32.82,11.21,3.15.63,1.65-.25,11.09-.14,3.83-1.39,14.64a112.14,112.14,0,0,0,0,11.5v3.42q3.18.27,9.29,1a13.32,13.32,0,0,0,3.18.13q0-2.87-.44-8.76T224,345.49v-4c.59-1,1.8-1.5,3.65-1.5q.88-.13,2.52-.27c1.18-.55,1.93-.32,2.27.68q0,6.82.63,17.49.26,5.73,1.13,17.21.14,2.06.13,19.4v11.35q.18,4.64.63,14.21-.26,3.68-4.66,3.68c-3.28,0-4.91-.72-4.91-2.18,0-2.27-.09-5.8-.26-10.57s-.25-8.35-.25-10.71q0,1.9.38-9.14.26-7-.39-7.91-.37-.56-5.84-1.57a51.77,51.77,0,0,0-7-1V392.3q0,6.84.38,17.79c0,.46.19,1.89.57,4.31a38.3,38.3,0,0,1,.57,5.27,4.76,4.76,0,0,1-.25,1.78c-.42.73-1.41,1.09-3,1.09q-4.49,0-6.35-1.09c-.75-.46-1.16-1.73-1.25-3.83V399q0-4.1-1.13-53.1a26.22,26.22,0,0,0-.38-6.43l-.44-.48a1.08,1.08,0,0,0-.82-.34c-1.26,0-1.89.91-1.89,2.74,0,.91.3,1.37.88,1.37.93,0,1.39-.5,1.39-1.51h.25v.55a2.4,2.4,0,0,1,.76,1.64c0,1.83-1,2.74-3,2.74a2.74,2.74,0,0,1-2.51-1.78,5.93,5.93,0,0,1-.26-3.15,6.66,6.66,0,0,1,2.65-4.65A22.16,22.16,0,0,1,202.87,334.54Z"/><path class="cls-6" d="M284.49,414.33v.28Q276,425.14,272.9,425.14a1.91,1.91,0,0,1-1.64-.95,25.63,25.63,0,0,1-1.64-5.62c-.67-2.82-1.25-5.56-1.76-8.21q-.75-5.88-1.64-11.77-1.64-8.62-4.66-8.48A3.48,3.48,0,0,0,258,392q-.63,1.23.12,8.63.51,9.3.63,14c.25,1,.46,2,.63,3a6.1,6.1,0,0,1-.12,2.87,5.12,5.12,0,0,1-1.64.82c-.93.27-1.64.46-2.14.55l-5-.28c-2.86-.36-4.28-1.27-4.28-2.73a12.22,12.22,0,0,0,2.39-5.48q.75-8.75.76-13.27.12-8.07-.51-22.58c-.08-4.93-.08-8.62,0-11.09q-.75-11.62-1.26-20.39c-.25-3.47-.5-5.2-.75-5.2a5.88,5.88,0,0,0-3.78-.14c-1.6.28-2.52,1-2.77,2.06a4.24,4.24,0,0,0,.12,1.78,12.5,12.5,0,0,1,.25,1.77,2.93,2.93,0,0,0,1.39-.06c.67-.14,1.05-.21,1.13-.21v-.68A3.06,3.06,0,0,1,242,343.3h.25V343c2.18.37,3.28,1.37,3.28,3,0,2-1.35,3-4,3a3.54,3.54,0,0,1-2.14-.55q-1.77-1.37-1.77-5.06,0-5.34,6.05-5.34a22.78,22.78,0,0,1,5-1.23,43.44,43.44,0,0,1,7.81,1,36.76,36.76,0,0,0,8.69.55c5.2-.73,7.64-1.1,7.3-1.1q3.53.29,5.17,7.67c.42,2.82.83,5.61,1.26,8.34q.75,8.22.75,8.49a19.26,19.26,0,0,1-1.89,8.62,32.6,32.6,0,0,1-4.28,7.39q-2.14,2.19-3.4,3.29a3.14,3.14,0,0,0,.63,2.32c.67,1.28,1.05,2,1.13,2.06,1,4.28,1.77,7.48,2.27,9.58q2,5.88,3.15,8.75,1.38,4.38,2,6.44a28.1,28.1,0,0,0,4,3.28C284.28,414.06,284.66,414.33,284.49,414.33Zm-14.74-57.62a20.5,20.5,0,0,0,.38-4.65,12.57,12.57,0,0,0-1.12-5.13c-.67-1.32-2.12-2.44-4.37-3.35a47,47,0,0,0-5.48-1.51q-.26,4.65-.25,7l-.87,6.71v5.47q-.51,5.07-.88,7.53c0,1.09,0,2.51.12,4.24.17,2.1.25,3.42.25,4l-.37,12.18h.75v-.27a24.58,24.58,0,0,0,5.86-4.86c2.31-2.42,3.76-4.49,4.34-6.23a35.57,35.57,0,0,0,.51-5.06c.25-2.19.42-3.83.5-4.93.08-4.2.13-6.38.13-6.57A35.06,35.06,0,0,1,269.75,356.71Z"/><path class="cls-6" d="M287.38,336.32a9.25,9.25,0,0,1,2.9.69,9.35,9.35,0,0,0,3,.68c.42-.27,1.6-.27,3.53,0,2.6.28,3.95.41,4,.41h3.28a1.66,1.66,0,0,1,1.13,1,5.27,5.27,0,0,1,0,2.33c-.17.82-.34,1.59-.5,2.32q-.25,10.95-.51,24.36-.63,17.65-.5,22.45.25,3.56.13,7.94-.39,19-.26,20a5.72,5.72,0,0,1-.24,2.87l-2.62,4.24a66.77,66.77,0,0,1-4.85,9.72l-.87.82a2.36,2.36,0,0,1-1.24-1.37,4.08,4.08,0,0,1,0-2.46c.27-1.37.4-2.14.4-2.33a41.81,41.81,0,0,0,.1-9.58c0-1.91-.08-4.88-.25-8.89,0-.91-.08-2.33-.25-4.25q.12-5.88,0-17.92a138.12,138.12,0,0,1-.88-17.59c0-7.34-.05-10.79-.13-10.33.08-.91,0-4.38-.38-10.4V340.43c-2.54-.36-3.78-.55-3.69-.55-1.31.37-2,1.74-2,4.11,0,1.28.42,1.91,1.26,1.91.09-.45.26-1.09.51-1.91h.25a13.24,13.24,0,0,1,1.39,1.91c.16,1.83-.76,2.74-2.78,2.74a2.84,2.84,0,0,1-2.39-1,4.77,4.77,0,0,1-1.13-3.32A9.85,9.85,0,0,1,287.38,336.32Z"/><path class="cls-6" d="M344.44,391.75q0,2.33-2.39,11.36-1.26,5.34-1.76,8.07a34.48,34.48,0,0,1-2.15,4.79c-1.42,3.29-2.31,5.3-2.64,6a12.94,12.94,0,0,1-11.84,6.84,12.78,12.78,0,0,1-4.16-.69,10.29,10.29,0,0,1-5-4.1,11.38,11.38,0,0,1-2-6.43,10,10,0,0,1,.5-3.15q1.4-4.38,5.8-4.38a5.43,5.43,0,0,1,5.41,3.83,6.44,6.44,0,0,1,.51,3.83,4.29,4.29,0,0,1-4.54,3.7,2.76,2.76,0,0,1-2.52-1.64,2.44,2.44,0,0,1,.38-2.88,2,2,0,0,1,1.89-.82c.76.18,1,.73.63,1.64s-.29,1.51-.13,1.51V419q2.78-1.37,1.39-4.37c-.76-1.46-1.13-2.1-1.13-1.92q-6-.13-6.05,5.61a7.25,7.25,0,0,0,3.65,6.43c1.68,1.1,4.08,1.65,7.18,1.65a6.12,6.12,0,0,1,1.51-.28c1.94-1.37,3.34-2.42,4.22-3.15a13.54,13.54,0,0,0,2.9-4.1,20.24,20.24,0,0,0,1.95-4.79,19.51,19.51,0,0,0-.63-5.89,34.72,34.72,0,0,0-3.15-9.17,23.31,23.31,0,0,0-4.4-5.06c-.42-.36-2.15-1.73-5.17-4.11-3.44-2.73-5.46-4.28-6-4.65-1.35-.73-2.69-1.5-4-2.33a10,10,0,0,1-3.47-3.35q-1.07-1.85-1.07-6.91a42,42,0,0,1,1.51-11.36q3.52-8.48,5.67-12.59c.08-.09.5-1.18,1.26-3.28a6.85,6.85,0,0,1,1.64-3,44.35,44.35,0,0,0,9.07.83c2.93.27,7.6.41,14,.41a3.82,3.82,0,0,1,1.13.34.79.79,0,0,1,.38.75q0,1.36-3.21,5.27T336,354.8c-.17.64-.29,1-.37,1-.84.36-2.52.32-5-.14-3.53-.73-6.17-.87-7.94-.41-.59.18-.88.37-.88.55-1.85-.28-3-.12-3.46.48s-.7,1.94-.7,4c0,.64.09,1,.26,1q1.13,3.15,7.55,7.94c.42.27,2.73,1.83,6.93,4.65Q344.44,381.76,344.44,391.75Zm-21.16-9.85-9.57-6.71q-2.4-2.32-3.28-3.15v3a6.41,6.41,0,0,0,.51,2.81,7.42,7.42,0,0,0,2,2.26,52.09,52.09,0,0,0,4.6,2.87,23.34,23.34,0,0,0,4.47,2.33Zm4,4c0-1.1-.71-1.92-2.14-2.47a13.68,13.68,0,0,0-1.13,2.88,2.53,2.53,0,0,0,.94,1.84c.63.6,1,.89,1.2.89v-.27A5.92,5.92,0,0,0,327.31,385.87Zm11.46,18.61a30.59,30.59,0,0,0-3.46-9.86q-3-5.75-6-7.52c-.51,1.64-.84,2.87-1,3.69q5.54,4.24,8.44,12.46a16.63,16.63,0,0,1,1.26,5.2A9.34,9.34,0,0,0,338.77,404.48Z"/><path class="cls-6" d="M388.4,342.34q5,0,5.79,1.1c.51.82-.8,3.83-3.9,9q-5.3,9.18-5.54,10-.88,2.48.37,4l.76,1h.63v-.27a1.9,1.9,0,0,0,1-1.51h-1.89a8.24,8.24,0,0,1-.25-1.09c0-.09-.09-.23-.26-.41h.26a2.63,2.63,0,0,1,2.52-1.37c1.84,0,2.68.95,2.52,2.87q-.39,3.56-4.29,3.56a3.26,3.26,0,0,1-2.52-1,5.38,5.38,0,0,1-1.76-3.83,11.63,11.63,0,0,1,1.89-5.47q2.26-4,2.64-4.93l-10.07.27h-.25c-.09.64-.17,1.78-.26,3.42a24.72,24.72,0,0,0-.25,3.15q.12,1.92.38,5.75-.26,3.82-.13,11.63.13,13.14.89,35.31.38,4.8-8.7,14.64h-.25c-.84-3.65-1.22-8.84-1.13-15.6q0,.13-.25-17c0-2.64-.09-5.65-.25-9q.12-4.24,0-15.88-.25-15-1.08-15.8c-.54-.5-2.16-.8-4.84-.89q-2.78,0-7.69.14l-5.67.13c0-.55.09-.82.26-.82q2.51-7.8,3-7.8c.5-.64,1.51-1,3-1q8.56-.27,19.53-.82c.08,0,1.8-.18,5.16-.55q4.65-.41,5.67-.41Z"/><path class="cls-6" d="M397,335.64q1,.69,6.3,10c.5.73,1.22,1.92,2.14,3.56q2.4,8.63,5.8,19.57,2.13,7.39,5.29,17,1.75,4.38,5.29,13.14l1.51,5.47c.25.91.63,2.33,1.13,4.24.17,0,.25.1.25.28h.26q1.89-8.49,4.91-25.87-.13-2.73,0-8.48.26-2.19.63-6.71,0-2.19.12-6.57a40,40,0,0,1,1.64-7.94q.88-4.37,1.89-8.75,1.89-6.71,3.4-6.71a1.52,1.52,0,0,1,1.26.68l.88,3.15A90.14,90.14,0,0,1,442.31,353q1.51,9.72,3.27,29.15v10.26q0,.82.17,6c.05,2.92.08,4.65.08,5.2v7.39q1,11.49-.62,11.49l-3.6-.41c.58.28-.62.41-3.6.41q-1.12-2.75-1.24-13.33V397.1c0-1.28,0-3.29-.13-6q-.37-2.34-.76-7c-.08-2.1-.21-5.27-.37-9.48q-.51-2.07-1.45-6.46c-.63-2.94-.95-4.31-.95-4.13h-.37q-.25,3.69-1,11.22.12,2.88-.13,8.76-.14.41-2.66,14.37-.9,5.61-1.91,11.22a41.44,41.44,0,0,1-3.42,10.4c-.26.55-.58,1.17-1,1.85a2,2,0,0,1-1.33,1.16c-.93.09-2.07-2-3.42-6.29-.85-2.74-1.69-5.43-2.54-8.08q-3-7.51-6.6-19.57-5.07-17.37-6-19.84a56.09,56.09,0,0,0-3.81-8.35,13.78,13.78,0,0,1-1.4-3h-.25q0,13.54.63,16.7.38,3.56-.63,21.89a76.16,76.16,0,0,0,1.07,9.17q0,.42,1.2,10V423c.33,1.1,1.89,1.65,4.66,1.65v-.28h.25v.28h.25v.95L403,426.79a9.79,9.79,0,0,1-2.14.27c-.84,0-1.35.59-1.51,1.78-.09.64-.21,1.37-.38,2.19-.17,0-.25.09-.25.27a2.46,2.46,0,0,1-1.26-1.85c-.17-.86-.3-1.71-.38-2.53a9.39,9.39,0,0,0-.38-1c-.17-.36-.25-.41-.25-.13l-2.77,1a2.42,2.42,0,0,1-.88-1.78q4.15-1.51,4.15-8.76a62.24,62.24,0,0,0-.5-6.85c-.42-3.28-.67-5.2-.76-5.74q.26-14.93,0-34.35l-.12-7.53q-.37-3.28-1-9.72c0-2.1,0-5.24.13-9.44a37.25,37.25,0,0,1-.13-4.93C394.74,337.05,395.53,336.37,397,335.64Z"/><path class="cls-6" d="M492.94,417.61a3.1,3.1,0,0,1,1,1.92c-.17.64-.29,1.14-.38,1.51a10.45,10.45,0,0,0-1.82.2,9.45,9.45,0,0,1-1.45.21l-3.65-.14a24.4,24.4,0,0,1-2.52.48,22.17,22.17,0,0,1-3.28.34,3.19,3.19,0,0,1-2.39-.68,13.92,13.92,0,0,1,0-5.34q-.13-1.1-1.51-6.91c-.93-3.88-1.47-5.86-1.64-5.95a3.67,3.67,0,0,0-1.51-.28q-1.51,0-7.56,1.92-5.16,1.64-6.36,2.94a7.69,7.69,0,0,0-1.7,3.76c-.17,1.28-.38,2.6-.63,4q-1.26,7.8-1.26,7.94c0,3.92,1.26,6.39,3.78,7.39a1.31,1.31,0,0,1,.44.41,1.22,1.22,0,0,1,.19.69h-.38v.27q-4.67-.56-4.66-2.74H455v7.94h-.5a53.85,53.85,0,0,1-1.26-5.47,7.82,7.82,0,0,1,0-2.06c.08-1,.12-1.64.12-1.91q-.63-.28-.63,0a12.94,12.94,0,0,1-3.27,1.64l-1.77-.41V429a6.49,6.49,0,0,0,3.66-2.47A39.8,39.8,0,0,0,454,419c1.34-6.2,2.19-10.49,2.52-12.86l.76-4.79h-.25l-6.18,3.56a13.66,13.66,0,0,0-1.13-2.74l8.44-4q.88-9.57,1.51-14.23,1.77-19.57,2.39-33.94c0-.36.17-2.1.51-5.2q.38-4.24.38-6.57a7.89,7.89,0,0,0-.63-3.83c-.43-.64-1.77-1-4-1-4.61,0-7.18.78-7.68,2.33a5.44,5.44,0,0,0-.25,1.64,3.94,3.94,0,0,0,1,2.67,3,3,0,0,0,2.26,1.16c1.1,0,1.64-.73,1.64-2.19l-1.7-.2c-.38-.05-.52-.53-.44-1.44s.25-1.37.5-1.37v.27q3.92-.54,3.91,3.15a4.9,4.9,0,0,1-1.2,3.22,3.81,3.81,0,0,1-3.08,1.43,4.54,4.54,0,0,1-4-2.12,8.6,8.6,0,0,1-1.45-5q0-5.61,4.16-5.61c1.26-.09,2.18-.19,2.77-.28a20.62,20.62,0,0,1,6.17-.27,49,49,0,0,1,5.79,1.17c3.19.61,5,1.08,5.29,1.43.59.73,1.05,2.24,1.39,4.52.25,1.74.5,3.43.76,5.07q2,9.33,2.77,12.48,2.9,12.75,4.15,19.19Q485,388.56,487,395.54q3.15,13.44,4.66,20.29C491.77,415.92,492.19,416.51,492.94,417.61Zm-18.26-19c0-1.18-.76-1.91-2.27-2.19a34.24,34.24,0,0,1-3.65,1.1q-4.29,1.63-6.55,2.46a5.54,5.54,0,0,0-1.89,1,5.72,5.72,0,0,0-1.13,4h1.51q9.32-4.25,12.22-4.24a8.3,8.3,0,0,0,1.38-1.1A1.37,1.37,0,0,0,474.68,398.59Zm-14-1h.75q9.71-3.69,12.1-3.69a16.24,16.24,0,0,0-.76-4.52q-1.52-7.25-2-9.71-2.26-13.56-3.27-20.39-1.77-10.41-2.65-12.73-1.12,20.25-1.76,30.38Q461.58,390.8,460.7,397.63Z"/><path class="cls-6" d="M530.35,391.75q0,2.33-2.39,11.36-1.26,5.34-1.77,8.07a34.7,34.7,0,0,1-2.14,4.79q-2.14,4.93-2.64,6a13,13,0,0,1-11.84,6.84,12.74,12.74,0,0,1-4.16-.69,10.25,10.25,0,0,1-5-4.1,11.38,11.38,0,0,1-2-6.43,10,10,0,0,1,.5-3.15q1.38-4.38,5.8-4.38a5.44,5.44,0,0,1,5.41,3.83,6.44,6.44,0,0,1,.51,3.83,4.29,4.29,0,0,1-4.54,3.7,2.76,2.76,0,0,1-2.52-1.64,2.43,2.43,0,0,1,.38-2.88,2,2,0,0,1,1.89-.82c.75.18,1,.73.63,1.64s-.3,1.51-.13,1.51V419q2.77-1.37,1.39-4.37-1.14-2.19-1.14-1.92-6-.13-6,5.61a7.23,7.23,0,0,0,3.65,6.43q2.52,1.65,7.18,1.65a6.12,6.12,0,0,1,1.51-.28q2.89-2.06,4.22-3.15a13.71,13.71,0,0,0,2.9-4.1,20.24,20.24,0,0,0,1.95-4.79,19.51,19.51,0,0,0-.63-5.89,34.72,34.72,0,0,0-3.15-9.17,23.38,23.38,0,0,0-4.41-5.06q-.63-.54-5.16-4.11-5.16-4.09-6.05-4.65c-1.34-.73-2.68-1.5-4-2.33A10,10,0,0,1,495,379.5q-1.06-1.85-1.07-6.91a42,42,0,0,1,1.51-11.36q3.53-8.48,5.67-12.59c.08-.09.5-1.18,1.26-3.28a6.85,6.85,0,0,1,1.64-3,44.31,44.31,0,0,0,9.06.83q4.41.4,14,.41a3.82,3.82,0,0,1,1.13.34.79.79,0,0,1,.38.75q0,1.36-3.21,5.27c-2.15,2.6-3.3,4.22-3.47,4.86s-.29,1-.38,1c-.84.36-2.52.32-5-.14q-5.29-1.1-7.94-.41c-.59.18-.88.37-.88.55-1.85-.28-3-.12-3.47.48s-.69,1.94-.69,4c0,.64.08,1,.25,1q1.14,3.15,7.56,7.94c.42.27,2.73,1.83,6.93,4.65Q530.35,381.76,530.35,391.75Zm-21.16-9.85-9.57-6.71q-2.4-2.32-3.28-3.15v3a6.41,6.41,0,0,0,.51,2.81,7.29,7.29,0,0,0,2,2.26,50.43,50.43,0,0,0,4.6,2.87q4,2.33,4.47,2.33Zm4,4c0-1.1-.71-1.92-2.14-2.47a13.07,13.07,0,0,0-1.13,2.88,2.53,2.53,0,0,0,.94,1.84c.63.6,1,.89,1.2.89v-.27A5.92,5.92,0,0,0,513.22,385.87Zm11.46,18.61a30.59,30.59,0,0,0-3.46-9.86q-3-5.75-6-7.52c-.51,1.64-.84,2.87-1,3.69q5.53,4.24,8.44,12.46a16.63,16.63,0,0,1,1.26,5.2A9.5,9.5,0,0,0,524.68,404.48Z"/></g></svg>