<svg xmlns="http://www.w3.org/2000/svg" width="1920" height="1080" viewBox="0 0 1920 1080"><defs><style>.cls-1{fill:#0e255a;}.cls-2{fill:#576a9e;}.cls-3{fill:#b1c2e0;}.cls-4{fill:#f7f8f9;}.cls-5{fill:#7585ba;}.cls-6{fill:#694b4b;}.cls-7{fill:#49241a;}.cls-8{fill:#47271e;}.cls-20,.cls-25,.cls-43,.cls-9{fill:none;}.cls-10{opacity:0.25;}.cls-11{fill:#191919;}.cls-12{opacity:0.35;}.cls-13{fill:#e1e5ef;}.cls-14{fill:#8797c6;}.cls-15{fill:#5970aa;}.cls-16{fill:#ffa700;}.cls-17{fill:#663c32;}.cls-18{fill:#562f27;}.cls-19{fill:#28100b;}.cls-20,.cls-25{stroke:#191919;}.cls-20,.cls-25,.cls-43{stroke-miterlimit:10;}.cls-20{stroke-width:3px;}.cls-21,.cls-27{fill:#f5a631;}.cls-22{fill:#001919;}.cls-23{fill:#efc389;}.cls-24{fill:#eaceac;}.cls-25{stroke-width:5px;}.cls-26,.cls-27,.cls-47{opacity:0.1;}.cls-28{fill:#93a2cc;}.cls-29{fill:#51271d;}.cls-30{fill:#252422;}.cls-31{fill:#403d39;}.cls-32{fill:#ccc5b9;}.cls-33{fill:#ea591f;}.cls-34{fill:#eb5e28;}.cls-35{fill:#ee7444;}.cls-36{fill:#ec6632;}.cls-37{fill:#ef8257;}.cls-38{opacity:0.85;}.cls-39{opacity:0.4;}.cls-40{fill:#fff;}.cls-41{fill:#eb5e2f;}.cls-42{fill:#442518;}.cls-43{stroke:#442518;stroke-width:2px;}.cls-44{fill:#513d38;}.cls-45{fill:#e6e7e8;}.cls-46,.cls-47,.cls-48{fill:#eac359;}.cls-48{opacity:0.05;}.cls-49{opacity:0.8;}</style></defs><title>title_screen</title><g id="final"><rect class="cls-1" width="1924" height="1080"/><path class="cls-2" d="M937.59,782c-11.33,22-.34,40,24.41,40h540.89c24.75,0,35.73-18,24.41-40L1253,248.83c-11.32-22-29.85-22-41.17,0Z"/><path class="cls-3" d="M1140.71,384.06c-11.31,22-.31,40,24.44,40h135.06c24.75,0,35.75-18,24.44-40l-71.41-139c-11.31-22-29.81-22-41.12,0Z"/><ellipse class="cls-3" cx="1154.26" cy="403.87" rx="26.5" ry="20.55" transform="translate(496.32 1434.67) rotate(-76.74)"/><ellipse class="cls-3" cx="1182.42" cy="410.97" rx="25.77" ry="23.06" transform="translate(739.27 1581.72) rotate(-88.43)"/><ellipse class="cls-3" cx="1219.69" cy="413.16" rx="26.69" ry="23.06" transform="translate(771.16 1620.29) rotate(-88.33)"/><ellipse class="cls-3" cx="1263.6" cy="412.53" rx="26.01" ry="26.76" transform="translate(-11.42 36.76) rotate(-1.66)"/><ellipse class="cls-3" cx="1307.33" cy="407.79" rx="25.1" ry="27.01" transform="translate(-9.21 30.81) rotate(-1.35)"/><path class="cls-2" d="M1741.91,738c11.32,22,.33,40-24.42,40H1149c-24.75,0-35.74-18-24.41-40l288.07-560c11.32-22,29.85-22,41.17,0Z"/><path class="cls-3" d="M1529.9,322.65c11.31,22,.31,40-24.44,40H1360.55c-24.75,0-35.75-18-24.44-40L1412.44,174c11.31-22,29.81-22,41.12,0Z"/><ellipse class="cls-3" cx="1514.85" cy="341.57" rx="21.44" ry="27.66" transform="translate(-37.96 356.69) rotate(-13.26)"/><ellipse class="cls-3" cx="1485.46" cy="348.99" rx="24.07" ry="26.9" transform="translate(-8.99 40.75) rotate(-1.57)"/><ellipse class="cls-3" cx="1446.56" cy="351.27" rx="24.07" ry="27.85" transform="translate(-9.62 42.31) rotate(-1.67)"/><ellipse class="cls-3" cx="1400.72" cy="350.61" rx="27.93" ry="27.15" transform="translate(1009.7 1740.59) rotate(-88.34)"/><ellipse class="cls-3" cx="1355.08" cy="345.66" rx="28.2" ry="26.2" transform="translate(977.7 1692.25) rotate(-88.65)"/><path class="cls-2" d="M238,805.72c-11.54,21.89-.73,39.81,24,39.81H952.49c24.75,0,35.56-17.92,24-39.81L628.22,144.83c-11.54-21.9-30.42-21.9-42,0Z"/><path class="cls-3" d="M489.27,325.18c-11.52,21.9-.7,39.82,24.05,39.82H701.75c24.75,0,35.57-17.92,24-39.82l-97.3-184.94c-11.53-21.9-30.39-21.9-41.91,0Z"/><ellipse class="cls-3" cx="510.52" cy="340.58" rx="32.05" ry="25.38" transform="matrix(0.25, -0.97, 0.97, 0.25, 52.14, 748.64)"/><ellipse class="cls-3" cx="545.36" cy="349.16" rx="31.13" ry="28.53" transform="translate(177.35 881.98) rotate(-88)"/><ellipse class="cls-3" cx="591.47" cy="351.8" rx="32.23" ry="28.53" transform="translate(219.21 930.61) rotate(-88)"/><ellipse class="cls-3" cx="645.79" cy="351.03" rx="32.17" ry="32.32" transform="translate(-54.15 126.63) rotate(-10.75)"/><ellipse class="cls-3" cx="699.89" cy="345.31" rx="31.05" ry="32.62" transform="translate(-11.64 24.67) rotate(-2)"/><rect class="cls-4" y="751" width="1924" height="330"/><rect class="cls-5" x="1533.85" y="730.04" width="36.74" height="60.62" rx="10" ry="10"/><path class="cls-5" d="M1503.58,517c-5.75,9.38-1.45,17,9.55,17h69.15c11,0,15.3-7.67,9.55-17l-33.67-54.93c-5.75-9.38-15.16-9.38-20.91,0Z"/><path class="cls-5" d="M1481.78,588.61c-6.56,8.84-2.92,16.06,8.08,16.06H1610.2c11,0,14.64-7.22,8.08-16.06L1562,512.67c-6.56-8.83-17.28-8.83-23.84,0Z"/><path class="cls-5" d="M1470.09,655.3c-7.24,8.29-4.16,15.06,6.84,15.06h148.78c11,0,14.08-6.77,6.85-15.06l-68.08-77.94c-7.24-8.28-19.08-8.28-26.32,0Z"/><path class="cls-5" d="M1457.08,729.12c-7.19,8.32-4.08,15.13,6.92,15.13h176.37c11,0,14.11-6.81,6.92-15.13l-82-94.86c-7.2-8.32-19-8.32-26.17,0Z"/><g id="_Group_" data-name="&lt;Group&gt;"><path class="cls-6" d="M1793.2,655.16a7.48,7.48,0,0,1,7,7.36v134.6a7.45,7.45,0,0,1-7,7.34l-39.09,1.86c-3.85.19-7,.32-7,.29v-85a7,7,0,0,0-7-7H1671.4a7,7,0,0,0-7,7v81c0,3.85,0,7.22,0,7.49s-3.13.65-7,.84l-41.62,2a6.63,6.63,0,0,1-7-6.67V645.93c0-.09,3.15,0,7,.2Z"/><path class="cls-6" d="M1748.59,575a15.65,15.65,0,0,1,10.37,7l37.81,67.4c1.88,3.36.27,6-3.57,5.75l-177.36-9a13,13,0,0,1-10-6.67l-39-81.47c-1.67-3.47.1-5.92,3.92-5.43Z"/><path class="cls-6" d="M1747.11,799.56v7.05s-3.14.2-7,.38l-68.68,3.28c-3.84.18-7,.11-7-.17s0-3.64,0-7.49v-81a7,7,0,0,1,7-7h68.71a7,7,0,0,1,7,7Z"/><path class="cls-6" d="M1608.85,806.26v7.15c0,.09-3.14-.07-7-.34l-76.15-5.41a7.64,7.64,0,0,1-7-7.49V657.65c0-3.85,0-7,0-7l7-.35,76.07-3.86a6.61,6.61,0,0,1,7,6.65Z"/><path class="cls-6" d="M1605.83,639.46c1.66,3.47,3,6.38,3,6.47s-3.15.31-7,.5l-76.07,3.86c-3.85.19-7,.08-7-.24a57.65,57.65,0,0,1,2.9-6.95L1560.86,558c1.62-3.5,4.29-3.52,6,0Z"/></g><path class="cls-7" d="M1516.87,733.64c-.1-1.83,3-3.28,6.82-3.21l76.54,1.36c3.85.06,7.08,1.7,7.18,3.64s-3,3.45-6.81,3.37L1524,737.13C1520.19,737.05,1517,735.48,1516.87,733.64Z"/><path class="cls-7" d="M1607.72,685.21s-.08,0-.17,0l-7.17.06-12.65.11-9.68.09-3.91,0-2.7,0-8.48.08-15.51.13-8,.08-2.69,0-2.53,0-7.79.07-2.32,0c-3.85,0-7.12-.72-7.28-1.68s-.28-1.81-.3-1.89a.32.32,0,0,1,0-.15l7-.08,4.42-.05,8-.09,1.51,0,1.67,0,8.17-.09,15.5-.17,9.44-.11,2.71,0h.68l7.42-.08,16.94-.19c3.85-.05,7-.05,7,0s.07.44.14.9.21,1.32.3,1.91S1607.72,685.19,1607.72,685.21Z"/><path class="cls-7" d="M1517,766.2c0-1.06,3.12-1.76,7-1.55l78.58,4.15c3.84.21,7,1.29,7,2.41s-3.12,1.86-7,1.64L1524,768.51C1520.14,768.3,1517,767.26,1517,766.2Z"/><path class="cls-7" d="M1537,611.88c1.45,0,2.67,3,2.71,6.9l2,184.08c0,3.85-1.18,7-2.71,7.1s-2.81-3.05-2.85-6.9L1534.45,619C1534.42,615.12,1535.58,611.93,1537,611.88Z"/><path class="cls-7" d="M1607.19,735.61c-.1-1.83,3-3.41,6.81-3.5l177.56-4.23c3.85-.09,7.09,1.42,7.2,3.36s-3,3.59-6.8,3.67l-177.58,3.88C1610.53,738.88,1607.29,737.44,1607.19,735.61Z"/><path class="cls-8" d="M1606.84,771.38c-.15-1,2.88-2,6.73-2.21l178-7.47c3.85-.16,7.12.62,7.27,1.73s-2.87,2.15-6.71,2.31L1614.09,773C1610.25,773.17,1607,772.43,1606.84,771.38Z"/><path class="cls-7" d="M1606.75,683.27c0-1,3.1-1.87,7-1.83L1792,683.28c3.85,0,7,1,7,2.08s-3.1,2-7,1.93l-178.25-2C1610,685.21,1606.78,684.32,1606.75,683.27Z"/><path class="cls-7" d="M1570.85,564.85c1.45-.05,2.68,3,2.74,6.9l3.65,233.6c.06,3.85-1.14,7-2.67,7.1s-2.83-3.05-2.89-6.9l-3.37-233.61C1568.25,568.09,1569.4,564.9,1570.85,564.85Z"/><path class="cls-7" d="M1651.27,648.27c-1.45,0-2.63,3.08-2.62,6.93l.34,149.73c0,3.85,1.26,7,2.8,7.08s2.77-3.07,2.75-6.92l-.6-149.74C1653.92,651.5,1652.72,648.31,1651.27,648.27Z"/><path class="cls-7" d="M1763.69,654.55c-1.45,0-2.64,3.09-2.64,6.94l-.14,138c0,3.85,1.24,7,2.77,7.07s2.78-3.09,2.78-6.94l-.13-138C1766.33,657.76,1765.14,654.58,1763.69,654.55Z"/><path class="cls-7" d="M1713,651.85c-1.74,0-3.14,3.16-3.1,7l1.31,142.9c0,3.85,1.56,7,3.4,7s3.3-3.16,3.26-7l-1.64-142.9C1716.18,655,1714.72,651.84,1713,651.85Z"/><path class="cls-7" d="M1608.14,814.37a7.23,7.23,0,0,1-2.35.11l-3.18-.08a2,2,0,0,1-.76-.1l-3.77-6-19.87-31.64c-2-3.26-2.89-6.73-1.87-7.7s3.55.89,5.61,4.14l20.54,32.36,4.64,7.32Z"/><path class="cls-7" d="M1616.62,808.89c-2.69,2.75-5.71,5-6.72,5a4,4,0,0,0-1.71.19,7.54,7.54,0,0,1-2.2.12,12.88,12.88,0,0,1-2.22-.14l1.36-1.39,6.14-6.32,34-35c2.68-2.77,5.82-4.13,7-3s-.11,4.25-2.8,7Z"/><path class="cls-9" d="M1617.36,813.64l-2.79,0-4.66,0-4,0h-3l-3.11,0h-2.29"/><path class="cls-7" d="M1607.69,711.85c.07,2-2.27,1.55-5.19-1l-23.7-20.3-5.69-4.87a.87.87,0,0,1,0-1l.5-.91.87-1.62c.41-.76,1.46-.78,2.34,0l6.92,5.87,18.49,15.7C1605.16,706.22,1607.62,709.87,1607.69,711.85Z"/><path class="cls-7" d="M1538.41,683.29a3.74,3.74,0,0,1-.2,2.92l-1.55,1.7-5.53,6-9.41,10.24c-2.61,2.83-4.74,3.89-4.74,2.36s2.14-5.11,4.76-7.93l5.85-6.31c2.61-2.83,5.55-6,6.51-7l2.75-3C1537.39,681.68,1538.1,682.14,1538.41,683.29Z"/><path class="cls-7" d="M1517,808c0,.09.64.15,1.52.14l2,0a1,1,0,0,0,.5-.07l3.1-6.36L1536.73,776c1.69-3.46,2.55-7,1.91-7.9s-2.55,1.22-4.26,4.68l-13,26.3-3.7,7.52Z"/><path class="cls-8" d="M1798.44,804.75a9.48,9.48,0,0,1-2.45.1l-3.3-.07a2.62,2.62,0,0,1-.78-.08l-4.4-5.55-19.7-24.87c-2.39-3-3.47-6.14-2.41-6.95s3.89,1,6.3,4l20.39,25.48,5.3,6.62Z"/><path class="cls-7" d="M1798.54,686.25c.25.12.45.82.45,1.54s-2.43,3.31-5.4,5.75l-20.61,17-5.62,4.62-.27.23a6.69,6.69,0,0,1-.94.06l-2.36,0-1.56,0a5.14,5.14,0,0,1-.07-1.2,6.12,6.12,0,0,1,.07-1.26l2.7-2.2,8.07-6.56,15.93-13,6.44-5.25a2,2,0,0,1,1.87-.41Z"/><path class="cls-7" d="M1608,711.85c-.08,2,2.44,1.82,5.62-.36L1645,690l6.24-4.27a.75.75,0,0,0,0-1c-.26-.37-.53-.78-.62-.91l-1.1-1.62c-.51-.76-1.83-.78-2.92,0l-7.77,5.27-24.88,16.89C1610.74,706.49,1608.06,709.87,1608,711.85Z"/><path class="cls-6" d="M1761.1,807.09c-.43.42.54-53,.54-53a7.56,7.56,0,0,1,7.13-7.3l31.12-1.36a6.57,6.57,0,0,1,6.92,6.69l-.5,44.72a7.76,7.76,0,0,1-7.06,7.5Z"/><path class="cls-7" d="M1761.66,749.79c-.06-1.5,3-2.88,6.89-3l31.27-1.38c3.85-.17,7,.89,7,2.36s-3.13,2.83-7,3l-31.1,1.48C1764.92,752.39,1761.73,751.3,1761.66,749.79Z"/><path class="cls-7" d="M1761.09,804.51c-.08-1.42,3-2.75,6.84-3l31.26-1.81c3.84-.22,7,.72,7,2.1s-3.09,2.7-6.93,2.94l-31.08,1.89C1764.38,806.89,1761.17,805.92,1761.09,804.51Z"/><path class="cls-8" d="M1763.38,806.87c-1.36.12-2.43-2.93-2.39-6.78l.52-45.91c0-3.85,1.19-7.09,2.55-7.21s2.43,2.95,2.39,6.8l-.52,45.89C1765.89,803.51,1764.74,806.76,1763.38,806.87Z"/><path class="cls-7" d="M1801.87,752.26c0-3.85,1.19-7,2.55-7.07s2.43,3.08,2.39,6.93l-.51,45c0,3.85-1.19,7-2.54,7s-2.44-3.12-2.39-7Z"/><path class="cls-7" d="M1770.08,793.07c-2.17,3.19-3.94,6.46-3.95,7.28a1.26,1.26,0,0,0,1.18,1.41c.67,0,3-2.69,5.12-5.88l26.13-38.79c2.15-3.19,3.92-6.37,3.93-7.06a1.16,1.16,0,0,0-1.18-1.2c-.65,0-3,2.67-5.13,5.85Z"/><path class="cls-7" d="M1770.07,759.48c-2.2-3.15-4-6.42-4-7.26a1.6,1.6,0,0,1,1.44-1.59c.78,0,3.22,2.52,5.42,5.68l25.59,36.81c2.2,3.16,4,6.37,4,7.12a1.57,1.57,0,0,1-1.49,1.47c-.8,0-3.27-2.5-5.47-5.66Z"/><path class="cls-7" d="M1759.55,807a7.4,7.4,0,0,0,7-7.32l-.13-75.33a6.86,6.86,0,0,0-7-6.85l-103.6,2.28a7.22,7.22,0,0,0-7,7.15l-.17,78a6.62,6.62,0,0,0,7,6.68Z"/><path class="cls-6" d="M1608.35,814.46c-.41.42,0-51.8,0-51.8a7.59,7.59,0,0,1,7-7.39l31.09-1.72a6.56,6.56,0,0,1,7,6.61v43.55a7.76,7.76,0,0,1-7,7.58Z"/><path class="cls-7" d="M1608,758.39c-.08-1.5,3-2.91,6.84-3.12l31.56-1.79c3.84-.22,7,.81,7,2.27s-3.09,2.85-6.94,3.08l-31.37,1.87C1611.25,760.93,1608,759.89,1608,758.39Z"/><path class="cls-7" d="M1608,812.85c-.1-1.4,3-2.77,6.81-3l31.52-2.22c3.84-.27,7,.64,7.07,2s-3.05,2.73-6.89,3l-31.35,2.29C1611.32,815.18,1608.1,814.26,1608,812.85Z"/><path class="cls-7" d="M1610.33,815.18c-1.36.13-2.48-2.91-2.48-6.76V762.79c0-3.85,1.12-7.11,2.48-7.24s2.49,2.92,2.49,6.77v45.61C1612.82,811.78,1611.7,815,1610.33,815.18Z"/><path class="cls-7" d="M1648.45,760.36c0-3.85,1.12-7,2.49-7.1s2.48,3,2.48,6.9v44.76c0,3.85-1.12,7-2.48,7.05s-2.49-3.09-2.49-6.94Z"/><path class="cls-7" d="M1616.61,803.11c-2.18,3.17-4,6.45-4,7.29a1.31,1.31,0,0,0,1.28,1.43c.7-.05,3.06-2.69,5.23-5.87l27.69-40.5c2.17-3.18,4-6.36,4-7.07a1.19,1.19,0,0,0-1.27-1.21c-.7,0-3.06,2.67-5.25,5.84Z"/><path class="cls-7" d="M1614.72,767.64c-2.35-3-4.28-6.23-4.28-7.07A1.66,1.66,0,0,1,1612,759c.85-.05,3.47,2.4,5.82,5.45l28.69,37.22c2.35,3,4.28,6.17,4.28,6.94a1.65,1.65,0,0,1-1.61,1.49c-.88.06-3.53-2.38-5.88-5.43Z"/><path class="cls-5" d="M1601.69,647.47c-4.45.34-7.79,1.78-7.42,3.2s2.71,2.44,5.2,2.25l6.66-.51a3.85,3.85,0,0,0,2.9-2.85C1609.44,648.07,1606.14,647.14,1601.69,647.47Z"/><g class="cls-10"><path class="cls-11" d="M1615.71,651.39c-5.5-.21-10.71-.29-11.58-.19s-1.58.46-1.58.79a7.19,7.19,0,0,0,.15,1.26,3.77,3.77,0,0,0,.88,1.39,2.46,2.46,0,0,0,1.38.73,1.86,1.86,0,0,1,1.1.4c.24.22.64.61.88.87a3.82,3.82,0,0,1,.44,2c0,.86,4.5,1.61,10,1.67l171.06,2c5.5.06,10.13-.8,10.28-1.9s-4.21-2.19-9.71-2.4Z"/></g><g class="cls-12"><path class="cls-11" d="M1562.44,578.2c3.49-7.47,5.53-13.56,4.54-13.52a3.62,3.62,0,0,0-2.64,1.36c-.46.72-1.56,2.4-2.46,3.75s-4.54,8.54-8.1,16l-23.25,48.62c-3.56,7.44-5.15,13.53-3.55,13.53s5.78-6.11,9.27-13.59Z"/></g><g class="cls-10"><path class="cls-11" d="M1670.52,662.26c0-5,2.37-9.08,5.26-9.08s5.26,4,5.26,8.84-.59,9.69-1.31,10.74a5,5,0,0,1-3.69,1.91,6.18,6.18,0,0,1-3.94-1.67C1671.23,672.08,1670.52,667.24,1670.52,662.26Z"/></g><g class="cls-10"><path class="cls-11" d="M1663.06,659.32c0-4.58,2-8.33,4.39-8.33s4.38,3.65,4.38,8.11-.49,8.9-1.09,9.87a4.1,4.1,0,0,1-3.07,1.75,5,5,0,0,1-3.29-1.53C1663.66,668.34,1663.06,663.9,1663.06,659.32Z"/></g><g class="cls-10"><path class="cls-11" d="M1727.08,656.69c1,0,8.51.08,16.76.18h.52c8.25.1,14.55,2.36,14,5a13.83,13.83,0,0,1-4.3,7.27c-1.81,1.32-6.84,2.41-11.18,2.41s-9.08-1.09-10.53-2.41a38.33,38.33,0,0,1-4.82-5.7c-1.2-1.81-2.19-4.08-2.19-5A1.76,1.76,0,0,1,1727.08,656.69Z"/></g><path class="cls-13" d="M1795.73,645.16c4.37,7.63,1,13.76-7.47,13.62l-18.18-.31-5.42-.09-18.65-.32-13.07-.22-19.18-.32-19.18-.32-24.22-.41-18.65-.32-18.66-.32-9.49-.16c-8.79-.15-16-1.41-16-2.82a2.86,2.86,0,0,0-2.91-2.64,15.82,15.82,0,0,1-3-.24l-.06-.16s-2.56-6.75-5.67-15l-16.63-43.93c-3.11-8.23-6.63-17.52-7.81-20.64s-2.19-5.78-2.24-5.91.55-.18,1.32-.14l4.93.28,3.7.21,16.14.91,144.18,8.15c8.79.5,16.81,2.37,17.84,4.16l9.81,17.13Z"/><path class="cls-5" d="M1761.07,574.34c1.87,4.19,2,7.51.33,7.37l-19-1.49-146-11.5-16.11-1.27-3.23-.25a11.09,11.09,0,0,1-3.27-.55l-.89-1.33-.76-1.12c0-.06-1.89-2.82-4.12-6.15s-1.71-5.87,1.16-5.65l5.5.42,16.25,1.23,150.84,11.46C1750.48,566.18,1759.19,570.15,1761.07,574.34Z"/><path class="cls-14" d="M1614.14,586.71c-1.7,2.76,2.59,5,9.54,5s11.56-2.25,10.25-5-5.6-5-9.54-5S1615.85,584,1614.14,586.71Z"/><g class="cls-10"><path class="cls-11" d="M1566.58,579c0-6.57-2-11.94-4.35-11.94s-4.35,5.23-4.35,11.62.49,12.76,1.09,14.14a4,4,0,0,0,3,2.51,4.47,4.47,0,0,0,3.26-2.2C1566,591.89,1566.58,585.53,1566.58,579Z"/></g><g class="cls-10"><path class="cls-11" d="M1572.74,575.11c0-6-1.64-11-3.63-11s-3.62,4.8-3.62,10.67.41,11.71.91,13,1.64,2.31,2.53,2.31a3.75,3.75,0,0,0,2.72-2C1572.25,587,1572.74,581.14,1572.74,575.11Z"/></g><path class="cls-5" d="M1609.62,650.42c0-.16-2.5-7.07-5.44-15.37l-7-19.7c-2.94-8.3-5.36-15.12-5.38-15.16s-2.43-6.87-5.37-15.17l-.73-2.06-5.85-16.51c-.27-.78-1.16-3.29-2-5.57a42.33,42.33,0,0,0-1.92-4.8l-1-1.55-2.6-3.85a8.3,8.3,0,0,0-5.95-3.06,6.49,6.49,0,0,0-5.58,3.17l-8.78,17.6-22.81,45.77-7.16,14.36-3.83,7.68c-2.09,4.2-3.78,7.64-3.76,7.63h0c-.07.62-.42,1.16-.52,1.79a11.46,11.46,0,0,0-.15,2.11l0,.5a4.48,4.48,0,0,0,1.39,1.6l.46.17.42.15a16.22,16.22,0,0,0,4,.5,11.15,11.15,0,0,0,3-.13l.15-.31c0-.05,2.57-5.39,5.67-11.85l5.62-11.76,2.59-5.42,2.6-5.41,6.9-14.44,10.61-22.16c3.8-7.94,8-14.44,9.3-14.44a14,14,0,0,1,2.43.09s1.1,3.67,2.41,8,2.37,7.94,2.37,7.94,2.07,6.9,4.59,15.34l11.56,38.65c2.53,8.43,4.59,15.33,4.6,15.35v.05s1.61.07,3.56.13l6.44.21,4.06.13C1609.2,650.68,1609.68,650.57,1609.62,650.42Z"/><path class="cls-5" d="M1564.77,574.35c0-6.56-2-11.93-4.35-11.93s-4.35,5.23-4.35,11.62.49,12.75,1.09,14.13a4,4,0,0,0,3,2.52,4.49,4.49,0,0,0,3.26-2.2C1564.18,587.28,1564.77,580.92,1564.77,574.35Z"/><path class="cls-5" d="M1570.92,571.92c0-5.23-1.63-9.5-3.62-9.5s-3.62,4.16-3.62,9.25.41,10.15.9,11.25a3.32,3.32,0,0,0,2.54,2,3.77,3.77,0,0,0,2.72-1.75C1570.43,582.21,1570.92,577.14,1570.92,571.92Z"/><g class="cls-10"><path class="cls-15" d="M1611.86,587.59c-1.74,2.58,2.65,4.7,9.76,4.7s11.83-2.12,10.49-4.7-5.73-4.7-9.76-4.7S1613.61,585,1611.86,587.59Z"/></g><g class="cls-10"><path class="cls-15" d="M1649.91,646c0,1.08,7.2,2,16,2h19.74c8.8,0,16-.89,16-2s-7.2-2-16-2h-19.74C1657.11,644,1649.91,644.86,1649.91,646Z"/></g><path class="cls-14" d="M1653.42,644.63c0,1.09,7.2,2,16,2h18.42c8.8,0,16-.89,16-2s-7.2-2-16-2h-18.42C1660.62,642.66,1653.42,643.55,1653.42,644.63Z"/><polyline class="cls-9" points="1626.23 817.18 1606.99 815.81 1606.95 815.8 1606.81 815.79 1606.41 815.76 1606.24 815.75 1606.1 815.74 1605.62 815.71 1514.86 809.22 1509.59 808.85"/><path class="cls-9" d="M1512.54,643.75c16.78-33.1,33-66.42,49.67-99.75"/><path class="cls-9" d="M1509.59,649.68l1.54-3.09"/><path class="cls-9" d="M1513.41,651.14l1.88.73"/><path class="cls-7" d="M1535.1,692.69a8,8,0,0,1,7.93-8.09l24.28-.27a8.07,8.07,0,0,1,8.13,7.91l.53,33.94a7.66,7.66,0,0,1-7.87,7.82l-24.66-.54a8.32,8.32,0,0,1-8.06-8.17Z"/><path class="cls-16" d="M1538.61,697.12a8,8,0,0,1,7.93-8.09l17.11-.2a8.07,8.07,0,0,1,8.12,7.91l.4,25.06a7.66,7.66,0,0,1-7.87,7.82l-17.42-.38a8.34,8.34,0,0,1-8.07-8.18Z"/><path class="cls-7" d="M1554.83,686.12c-.86.07-1.51,3.27-1.44,7.12l.61,32c.07,3.84.87,6.94,1.79,6.87s1.58-3.27,1.49-7.12l-.72-32C1556.47,689.16,1555.7,686.06,1554.83,686.12Z"/><g class="cls-10"><path class="cls-11" d="M1607.38,650.42a49.06,49.06,0,0,0-7-.25h-76.27c-3.85,0-6.94.07-6.85.16l0,.1h0l.17.07.58.23c.21.08.37,3.29.37,7.14v16.86c0,3.85,0,7,0,7a.32.32,0,0,0,0,.15c0,.09,0,3.31,0,7.16V800.66a45.42,45.42,0,0,0,.28,7l2.21.16,8.92.64.8.06,9.71.71,9.71.7,15.46,1.12,9.71.71,9.72.7,9.67.7,7.25.53,1.24.09,2.63.19c.91.06,1.66-3,1.66-6.88V662.77c0-3.85-.84-7-1.87-7s-2.3-1.21-2.83-2.64a1.75,1.75,0,0,1,1.87-2.51A8,8,0,0,0,1607.38,650.42Z"/></g><g class="cls-10"><path class="cls-11" d="M1597.67,616.24c-3.2-8.78-5.83-16-5.85-16s-2.64-7.27-5.84-16.06l-.11-.3c-3.19-8.79-6-16.62-6.33-17.4l-2.26-6.22c-1-2.63-1.89-5.18-2.06-5.66s-.45-.89-.61-.9a17.33,17.33,0,0,1-2.28-3,8.3,8.3,0,0,0-5.95-3.06,6.49,6.49,0,0,0-5.58,3.17l-9.22,18.5-21.93,44-7.6,15.26-4.08,8.65a84.32,84.32,0,0,0-4.2,9.93l0,.63,0,.49a4.51,4.51,0,0,0,1.38,1.61l.47.17.28.1a25.5,25.5,0,0,0,4,.2h9l8.45,0,17.35,0,17.37,0,12.52,0,13.34,0,7.52,0h4.25c.13,0-2.37-7.19-5.57-16Z"/></g><g class="cls-10"><path class="cls-15" d="M1720.24,600.13c-1.3,1.93,2,3.5,7.28,3.5s8.83-1.57,7.83-3.5-4.28-3.51-7.28-3.51S1721.54,598.2,1720.24,600.13Z"/></g><path class="cls-14" d="M1721.94,599.47c-1.27,2.06,1.93,3.74,7.12,3.74s8.62-1.68,7.64-3.74-4.18-3.73-7.11-3.73S1723.21,597.42,1721.94,599.47Z"/><path class="cls-13" d="M1665.26,656.9c0-4,2-7.22,4.38-7.22s4.39,3.16,4.39,7-.5,7.71-1.1,8.55a4.25,4.25,0,0,1-3.07,1.52,5.3,5.3,0,0,1-3.29-1.33C1665.85,664.71,1665.26,660.87,1665.26,656.9Z"/><path class="cls-13" d="M1672.71,658.75c0-5,2.37-9.07,5.26-9.07s5.26,4,5.26,8.83-.59,9.69-1.31,10.74a5,5,0,0,1-3.68,1.91,6.21,6.21,0,0,1-4-1.67C1673.42,668.57,1672.71,663.74,1672.71,658.75Z"/><path class="cls-13" d="M1729.28,653.18c1,0,8.5.08,16.75.18h.52c8.25.1,14.55,2.37,14,5a13.77,13.77,0,0,1-4.3,7.27c-1.81,1.33-6.84,2.41-11.18,2.41s-9.08-1.08-10.52-2.41a37.78,37.78,0,0,1-4.83-5.7c-1.2-1.81-2.19-4.08-2.19-5A1.76,1.76,0,0,1,1729.28,653.18Z"/><g class="cls-10"><path class="cls-15" d="M1746.48,620c-1.75,2.58,2.65,4.7,9.76,4.7s11.83-2.12,10.49-4.7-5.73-4.71-9.76-4.71S1748.22,617.45,1746.48,620Z"/></g><path class="cls-14" d="M1748.76,619.16c-1.71,2.76,2.58,5,9.53,5s11.57-2.25,10.26-5-5.61-5-9.54-5S1750.46,616.41,1748.76,619.16Z"/><path class="cls-5" d="M1608.83,652a3.68,3.68,0,0,1-3.28,0c-.93-.52-.72-1.46.45-2.09s2.65-.62,3.28,0A1.29,1.29,0,0,1,1608.83,652Z"/><g class="cls-10"><path class="cls-11" d="M1608.83,652a3.68,3.68,0,0,1-3.28,0c-.93-.52-.72-1.46.45-2.09s2.65-.62,3.28,0A1.29,1.29,0,0,1,1608.83,652Z"/></g><g class="cls-10"><path class="cls-11" d="M1603,651.28a.47.47,0,0,1,.22-.29l.44-.29a1.14,1.14,0,0,1,.54-.15h.88c.3,0,.5.09.43.2a4,4,0,0,1-1.32.44C1603.53,651.32,1603,651.36,1603,651.28Z"/></g><path class="cls-17" d="M1759.93,799.86a7.38,7.38,0,0,1-7,7.33l-92.57,4.39a6.6,6.6,0,0,1-7-6.66l0-8c0-3.85,0-10.15,0-14l.1-46.93a7.33,7.33,0,0,1,7-7.23l91.92-3a6.8,6.8,0,0,1,7,6.77l.16,28.77c0,3.85,0,8.47.06,10.26s0,6.4.06,10.25v1.49c0,3.85.05,10.15.08,14Z"/><path class="cls-18" d="M1710.47,727l-46.91.58-7.19.13-1.07,0-1.07,1.16-.69,1.51,0,1.57a27.39,27.39,0,0,1-.17,8.35l-.21,10.54a19,19,0,0,1,.21,5.22h.13c0,.77-.07,1.55-.08,2.33s.15,1.52.22,2.28h.1l0,.93c0,.22,0,.44,0,.66h-.06c-.07,1.27-.17,2.54-.2,3.81,0,2,.32,3.87.18,5.82l-.12,0,0,1.47c.12,1.84.07,3.67.07,5.51h-.07a18.63,18.63,0,0,1-.09,3.66h-.05c0,.55,0,1.1,0,1.65,0,0,0,0,0,0,.2,1.86.34,3.72.38,5.59l56.82-3.59Z"/><polygon class="cls-19" points="1759.97 806.86 1653.42 811.92 1653.46 789.95 1710.17 785.37 1759.88 790.3 1759.97 806.86"/><path class="cls-11" d="M1701.62,755.62c1.1,0,1.79.12,1.53.28a3.05,3.05,0,0,0-.73.64c-.16.2-.45.54-.65.74a7.2,7.2,0,0,1-.74.64,1.29,1.29,0,0,1-.64.28,2,2,0,0,1-.83-.37,3.16,3.16,0,0,1-.74-.64c-.1-.16-.31-.45-.46-.65a2.71,2.71,0,0,0-.94-.64c-.36-.16.24-.28,1.34-.28Z"/><path class="cls-20" d="M1701.62,755.62c1.1,0,1.79.12,1.53.28a3.05,3.05,0,0,0-.73.64c-.16.2-.45.54-.65.74a7.2,7.2,0,0,1-.74.64,1.29,1.29,0,0,1-.64.28,2,2,0,0,1-.83-.37,3.16,3.16,0,0,1-.74-.64c-.1-.16-.31-.45-.46-.65a2.71,2.71,0,0,0-.94-.64c-.36-.16.24-.28,1.34-.28Z"/><path class="cls-21" d="M1705.24,739.32a2.3,2.3,0,0,1,2.54,2.75l-1.5,9.94a5.06,5.06,0,0,1-3.13,3.79,2,2,0,0,1-2.67-2.17v-11a3.27,3.27,0,0,1,3-3.21Z"/><path class="cls-20" d="M1705.24,739.32a2.3,2.3,0,0,1,2.54,2.75l-1.5,9.94a5.06,5.06,0,0,1-3.13,3.79,2,2,0,0,1-2.67-2.17v-11a3.27,3.27,0,0,1,3-3.21Z"/><path class="cls-21" d="M1700.11,753.54a2.09,2.09,0,0,1-2.67,2.26,4.56,4.56,0,0,1-3-3.72l-1-10.08a2.42,2.42,0,0,1,2.68-2.75l1,.08a3.32,3.32,0,0,1,3,3.24Z"/><path class="cls-20" d="M1700.11,753.54a2.09,2.09,0,0,1-2.67,2.26,4.56,4.56,0,0,1-3-3.72l-1-10.08a2.42,2.42,0,0,1,2.68-2.75l1,.08a3.32,3.32,0,0,1,3,3.24Z"/><path class="cls-22" d="M1697.73,735.48c1.31-1,2.38-.49,2.38,1.14a2.71,2.71,0,0,1-3,2.71l-1-.08c-1.64-.13-1.92-1-.61-2.06Z"/><path class="cls-20" d="M1697.73,735.48c1.31-1,2.38-.49,2.38,1.14a2.71,2.71,0,0,1-3,2.71l-1-.08c-1.64-.13-1.92-1-.61-2.06Z"/><path class="cls-22" d="M1705.41,737.32c1.35.95,1.1,1.82-.54,1.93l-1.77.12a2.78,2.78,0,0,1-3-2.8c0-1.65,1.1-2.22,2.45-1.26Z"/><path class="cls-20" d="M1705.41,737.32c1.35.95,1.1,1.82-.54,1.93l-1.77.12a2.78,2.78,0,0,1-3-2.8c0-1.65,1.1-2.22,2.45-1.26Z"/><path class="cls-23" d="M1703.06,753c.5.62.76,1.28.59,1.46s-.58,0-.89-.3l-1-1.13a.56.56,0,0,1,0-.83C1702,752,1702.56,752.36,1703.06,753Z"/><path class="cls-24" d="M1706.51,741a2.85,2.85,0,0,1,.36,1.66c-.12.2-.37,0-.57-.37l-.65-1.29a1,1,0,0,1,0-.94C1705.81,739.82,1706.2,740.24,1706.51,741Z"/><circle class="cls-25" cx="1700.2" cy="732.1" r="1.57"/><path class="cls-11" d="M1691.86,729.91c0-.73,2.11-1.09,4.6-.79s4.32,1,4.06,1.64-2.32,1-4.6.79S1691.82,730.64,1691.86,729.91Z"/><g class="cls-26"><path class="cls-21" d="M1759.93,799.86a7.38,7.38,0,0,1-7,7.33l-92.57,4.39a6.6,6.6,0,0,1-7-6.66l0-8c0-3.85,0-10.15,0-14l.1-46.93a7.33,7.33,0,0,1,7-7.23l91.92-3a6.8,6.8,0,0,1,7,6.77l.16,28.77c0,3.85,0,8.47.06,10.26s0,6.4.06,10.25v1.49c0,3.85.05,10.15.08,14Z"/></g><circle class="cls-27" cx="1700.55" cy="747.68" r="9.87"/><circle class="cls-27" cx="1700.12" cy="747.68" r="14.25"/><rect class="cls-28" x="1414.74" y="764.31" width="37.31" height="65.36" rx="10" ry="10"/><path class="cls-28" d="M1383.39,535.67c-5.5,9.53-1,17.32,10,17.32h70.84c11,0,15.5-7.79,10-17.32l-35.42-61.35c-5.5-9.53-14.5-9.53-20,0Z"/><path class="cls-28" d="M1361.22,612.75c-6.3,9-2.46,16.4,8.54,16.4h122.82c11,0,14.84-7.38,8.54-16.4L1442.62,529c-6.3-9-16.61-9-22.91,0Z"/><path class="cls-28" d="M1349.34,684.52c-7,8.5-3.71,15.45,7.29,15.45h151.7c11,0,14.29-7,7.3-15.45l-70.44-85.61c-7-8.5-18.43-8.5-25.41,0Z"/><path class="cls-28" d="M1336.13,764.12c-7,8.53-3.63,15.5,7.37,15.5h179.72c11,0,14.31-7,7.37-15.5L1446,660.24c-7-8.53-18.32-8.53-25.26,0Z"/><rect class="cls-5" x="1240.26" y="790.44" width="22.39" height="39.23" rx="10" ry="10"/><path class="cls-5" d="M1225.44,646.29c-5.5,9.53-1,17.32,10,17.32H1262c11,0,15.5-7.79,10-17.32l-13.27-23c-5.5-9.53-14.5-9.53-20,0Z"/><path class="cls-5" d="M1212.72,692.92c-6.3,9-2.46,16.4,8.54,16.4H1279c11,0,14.85-7.38,8.54-16.4l-25.94-37.13c-6.3-9-16.61-9-22.91,0Z"/><path class="cls-5" d="M1206.09,736.38c-7,8.49-3.71,15.44,7.29,15.44h75.06c11,0,14.28-7,7.29-15.44l-32.11-39c-7-8.49-18.43-8.49-25.42,0Z"/><path class="cls-5" d="M1198.13,784.12c-7,8.53-3.63,15.51,7.37,15.51h91.87c11,0,14.31-7,7.37-15.51l-40.68-49.94c-6.94-8.53-18.31-8.53-25.26,0Z"/><rect class="cls-5" x="177.76" y="739.44" width="52.45" height="98.56" rx="10" ry="10"/><path class="cls-5" d="M129.11,403.15c-5.21,9.68-.48,17.61,10.52,17.61H255.44c11,0,15.74-7.93,10.52-17.61L207,293.61c-5.22-9.68-13.75-9.68-19,0Z"/><path class="cls-5" d="M97.33,518.85c-6,9.21-1.91,16.76,9.09,16.76H295.29c11,0,15.09-7.55,9.09-16.76L211.77,376.67c-6-9.22-15.83-9.22-21.83,0Z"/><path class="cls-5" d="M80.13,626.54c-6.7,8.73-3.17,15.87,7.83,15.87H317.44c11,0,14.52-7.14,7.83-15.87l-110.4-144c-6.69-8.73-17.65-8.73-24.34,0Z"/><path class="cls-5" d="M61.59,746.61c-6.65,8.76-3.09,15.93,7.91,15.93H338.36c11,0,14.56-7.17,7.91-15.93L216,575.05c-6.65-8.76-17.53-8.76-24.18,0Z"/><rect class="cls-28" x="1139.35" y="815.42" width="42.88" height="80.58" rx="10" ry="10"/><path class="cls-28" d="M1101.31,537.28c-5.21,9.69-.48,17.61,10.52,17.61h87.38c11,0,15.74-7.92,10.52-17.61L1165,454.16c-5.21-9.68-13.74-9.68-19,0Z"/><path class="cls-28" d="M1075.59,632c-6,9.21-1.91,16.76,9.09,16.76h147.11c11,0,15.09-7.55,9.09-16.76l-71.73-110.12c-6-9.22-15.83-9.22-21.83,0Z"/><path class="cls-28" d="M1061.76,720.23c-6.69,8.73-3.17,15.87,7.83,15.87H1249.9c11,0,14.52-7.14,7.83-15.87l-85.82-111.9c-6.69-8.73-17.64-8.73-24.34,0Z"/><path class="cls-28" d="M1046.59,818.38c-6.65,8.76-3.09,15.93,7.91,15.93H1267c11,0,14.56-7.17,7.91-15.93L1172.84,683.94c-6.65-8.76-17.53-8.76-24.18,0Z"/><rect class="cls-28" x="293.35" y="813.42" width="42.88" height="80.58" rx="10" ry="10"/><path class="cls-28" d="M255.31,535.28c-5.21,9.69-.48,17.61,10.52,17.61h87.38c11,0,15.74-7.92,10.52-17.61L319,452.16c-5.21-9.68-13.74-9.68-18.95,0Z"/><path class="cls-28" d="M229.59,630c-6,9.21-1.91,16.76,9.09,16.76H385.79c11,0,15.09-7.55,9.09-16.76L323.15,519.91c-6-9.22-15.83-9.22-21.83,0Z"/><path class="cls-28" d="M215.76,718.23c-6.69,8.73-3.17,15.87,7.83,15.87H403.9c11,0,14.52-7.14,7.83-15.87l-85.82-111.9c-6.69-8.73-17.64-8.73-24.34,0Z"/><path class="cls-28" d="M200.59,816.38c-6.65,8.76-3.09,15.93,7.91,15.93H421c11,0,14.56-7.17,7.91-15.93L326.84,681.94c-6.65-8.76-17.53-8.76-24.18,0Z"/><rect class="cls-5" x="1817.45" y="778.91" width="58.04" height="109.09" rx="10" ry="10"/><path class="cls-5" d="M1762.6,408.6c-5.21,9.69-.48,17.61,10.52,17.61h132.44c11,0,15.74-7.92,10.53-17.61l-67.27-125c-5.21-9.68-13.74-9.68-19,0Z"/><path class="cls-5" d="M1727.27,536.56c-6,9.22-1.91,16.76,9.09,16.76h213.31c11,0,15.09-7.54,9.08-16.76L1853.93,375.62c-6-9.21-15.83-9.21-21.83,0Z"/><path class="cls-5" d="M1708.1,655.66c-6.69,8.73-3.17,15.87,7.83,15.87h258.25c11,0,14.53-7.14,7.83-15.87L1857.23,492.94c-6.7-8.73-17.65-8.73-24.35,0Z"/><path class="cls-5" d="M1687.59,788.55c-6.65,8.76-3.09,15.93,7.91,15.93h301.83c11,0,14.56-7.17,7.91-15.93L1858.51,595.27c-6.65-8.76-17.53-8.76-24.19,0Z"/><path class="cls-29" d="M296.13,622.09a5,5,0,0,1,6.82-1.86l1.14.64a5,5,0,0,1,1.86,6.82l-9.5,16.65a5.72,5.72,0,0,1-7.07,2.35l-1.26-.54a4.41,4.41,0,0,1-2.11-6.34Z"/><path class="cls-30" d="M153.31,974l-4.91-1.76a28.88,28.88,0,0,1-3.62-1.67l-2.3-1.3a17.92,17.92,0,0,1-3.16-2.38l-1.3-1.29a14.36,14.36,0,0,1-2.26-3,3.08,3.08,0,0,1,.13-2.94,1.86,1.86,0,0,0-.63-2.51l-5.39-4a2.13,2.13,0,0,0-2.88.35L119.15,963a1.87,1.87,0,0,0,.34,2.73l4.72,3.51,3.22,2.38,5.39,4L136,978l2.08,1.54c.88.66,2.37,1.67,3.3,2.25l7,4.35"/><path class="cls-30" d="M146.14,976.39a6.51,6.51,0,0,1,8.11-2,6.78,6.78,0,0,1,1,.62,6.53,6.53,0,1,1-9.13,1.35Z"/><path class="cls-30" d="M125.2,970.11c1-.35,1.15-1.14.25-1.77l-5.23-3.61c-.9-.62-1.61-.23-1.56.87l.19,4.6a1.42,1.42,0,0,0,2,1.36Z"/><path class="cls-30" d="M86.6,938.6l4.34,2.79a28.82,28.82,0,0,0,3.52,1.86l2.38,1a18.3,18.3,0,0,0,3.83,1.06l1.76.25a14.43,14.43,0,0,0,3.78-.06,3.06,3.06,0,0,0,2.24-1.89,1.84,1.84,0,0,1,2.37-1l6.37,1.82a2.14,2.14,0,0,1,1.48,2.5l-2.77,11.9a1.88,1.88,0,0,1-2.37,1.4l-5.59-1.6-3.85-1.1-6.37-1.82-3.85-1.1-2.45-.7c-1-.3-2.76-.86-3.79-1.25L80,949.82"/><path class="cls-30" d="M89.07,945.67a6.48,6.48,0,0,0-3.35-7.59,6.27,6.27,0,0,0-1.1-.42,6.48,6.48,0,1,0,4.45,8Z"/><path class="cls-30" d="M106.68,958.38c-.36-1,.21-1.61,1.25-1.28l6,1.93c1,.34,1.17,1.13.27,1.77l-3.71,2.61a1.42,1.42,0,0,1-2.29-.74Z"/><path class="cls-31" d="M254.26,748.36a2,2,0,0,1,.75,2.73l-118.6,207.8a2,2,0,0,1-2.73.74L125.61,955a2.06,2.06,0,0,1-.8-2.75l100.68-190c.51-1,.38-1.06-.3-.19L173.51,827.9a19.94,19.94,0,0,0-2,3.4l-52,118a1.77,1.77,0,0,1-2.54.84l-8.07-4.61a2.33,2.33,0,0,1-1-2.84l48.88-119.72a19.31,19.31,0,0,1,1.93-3.47l63.4-87.14a2.31,2.31,0,0,1,2.92-.63Z"/><polygon class="cls-30" points="255.07 638.21 246.79 639.83 220.5 738.15 250.5 755.28 317.17 682.81 309.57 671.87 255.07 638.21"/><polygon class="cls-31" points="256.51 652.49 247.22 723.86 303.63 680.22 300.9 672.9 313.62 676.97 306.94 648.69 282.02 634.02 251.99 638.79 262.66 648.88 256.51 652.49"/><polygon class="cls-32" points="275.22 627.14 260.05 701.44 314.25 647.46 275.22 627.14"/><path class="cls-33" d="M382.52,621.6c-8.78,15.38-26.93,23-47.28,21.88A78.05,78.05,0,0,1,319,640.85a86.17,86.17,0,0,1-13.91-5.08c-1.6-.74-3.18-1.54-4.76-2.39-.66-.35-1.33-.72-2-1.09s-1.42-.83-2.12-1.26l-.12-.07-1-.64-.81-.51c-.35-.22-.69-.44-1-.67s-.93-.61-1.39-.93-.91-.63-1.36-1l-1.34-1c-1.77-1.31-3.46-2.67-5.09-4.09l-1.2-1.07q-.6-.52-1.17-1.08c-.4-.36-.78-.72-1.16-1.1s-.75-.74-1.12-1.11l-1.08-1.11v0l-1-1.11-.43-.47c-.56-.62-1.11-1.25-1.64-1.88-.32-.37-.62-.74-.93-1.11l-.07-.09-.82-1-.15-.19c-.3-.38-.6-.77-.88-1.16s-.59-.78-.88-1.18c-.41-.58-.81-1.15-1.2-1.72,0,0,0,0,0,0l-.12-.16c-.68-1-1.34-2-2-3.08-.25-.41-.5-.83-.74-1.26s-.6-1.06-.88-1.59c-.15-.27-.3-.55-.44-.83s-.43-.82-.64-1.24-.53-1.11-.79-1.67c-.39-.83-.75-1.67-1.09-2.52-.15-.37-.3-.74-.44-1.12s-.33-.86-.49-1.3l-.09-.24,0-.11a1.43,1.43,0,0,1-.08-.22c-.08-.24-.17-.48-.25-.73l-.24-.72-.39-1.3c-.06-.2-.11-.39-.17-.58-.12-.43-.23-.86-.34-1.29,0,0,0,0,0,0-.11-.44-.22-.87-.32-1.31l-.27-1.22c-.09-.46-.17-.92-.25-1.38s-.13-.78-.19-1.16a.78.78,0,0,1,0-.14,48.35,48.35,0,0,1-.49-5.2c0-.42,0-.85,0-1.28v-.95c0-.56,0-1.11,0-1.66a.41.41,0,0,1,0-.11v-.06c0-.1,0-.2,0-.29s0-.4,0-.59q0-.72.12-1.44c0-.38.08-.77.14-1.16a.59.59,0,0,1,0-.13l.09-.62c.09-.62.2-1.23.32-1.83l.16-.77a1.16,1.16,0,0,1,0-.18,2.29,2.29,0,0,1,.07-.28c.05-.23.1-.45.16-.67.25-1,.53-2,.86-3l.42-1.18c.15-.4.3-.79.46-1.18s.24-.59.37-.88c.41-.93.85-1.85,1.34-2.75.17-.33.34-.65.53-1s.29-.51.45-.76.4-.66.61-1c.08-.13.16-.26.25-.39l.46-.69.24-.34.07-.09c0-.07.09-.13.13-.19.21-.3.43-.59.65-.88l.64-.81.74-.9c.43-.51.88-1,1.34-1.48a1.66,1.66,0,0,1,.18-.19l.19-.2c.21-.22.43-.43.65-.64s.38-.38.58-.57l.18-.17.36-.33.64-.57c.46-.4.94-.79,1.42-1.17l.35-.28c.45-.35.9-.69,1.36-1l.08-.06.12-.07.15-.11.75-.52,1.09-.71.84-.51.06,0,1-.6.39-.21a.53.53,0,0,1,.15-.08l.11-.07.24-.12c.58-.31,1.17-.62,1.78-.9.32-.16.66-.32,1-.46s.59-.27.89-.39.45-.2.69-.29.34-.15.53-.21.56-.23.84-.34c1.24-.46,2.5-.88,3.8-1.26l.46-.14.35-.09c.44-.13.89-.24,1.35-.36l.51-.12c.49-.12,1-.23,1.46-.33l.54-.11c.21,0,.42-.1.63-.13a62.88,62.88,0,0,1,8.35-1l.64,0,1,0h0c.77,0,1.53,0,2.31,0h1.33l1,0c1.17,0,2.35.1,3.53.2l.84.08.76.07.77.09,1.2.15c.79.1,1.59.22,2.39.35l1.12.19q2.79.49,5.59,1.21l.92.23.33.09,1.31.37c.29.07.57.16.85.25.57.16,1.15.34,1.72.53l.72.23,1.11.38c.34.12.69.23,1,.36l.88.32c1,.37,2,.76,3,1.17.4.16.79.32,1.19.5s.86.37,1.28.57c.14.05.26.11.39.17l.83.38.74.35,1.2.59,1.37.7c1.06.55,2.12,1.12,3.18,1.73a91.14,91.14,0,0,1,8.51,5.5c.34.25.67.49,1,.75A84.1,84.1,0,0,1,368,558.3c1.38,1.41,2.7,2.84,3.95,4.31C387.6,581,392.56,604,382.52,621.6Z"/><path class="cls-34" d="M364.57,608.49a66.06,66.06,0,0,1-31.64,28.06,69.52,69.52,0,0,1-13.92,4.3,86.17,86.17,0,0,1-13.91-5.08c-1.6-.74-3.18-1.54-4.76-2.39-.66-.35-1.33-.72-2-1.09s-1.42-.83-2.12-1.26l-.12-.07-1-.64-.81-.51c-.35-.22-.69-.44-1-.67s-.93-.61-1.39-.93-.91-.63-1.36-1l-1.34-1c-1.77-1.31-3.46-2.67-5.09-4.09l-1.2-1.07q-.6-.52-1.17-1.08c-.4-.36-.78-.72-1.16-1.1s-.75-.74-1.12-1.11l-1.08-1.11v0l-1-1.11-.43-.47c-.56-.62-1.11-1.25-1.64-1.88-.32-.37-.62-.74-.93-1.11l-.07-.09-.82-1-.15-.19c-.3-.38-.6-.77-.88-1.16s-.59-.78-.88-1.18c-.41-.58-.81-1.15-1.2-1.72,0,0,0,0,0,0l-.12-.16c-.68-1-1.34-2-2-3.08-.25-.41-.5-.83-.74-1.26s-.6-1.06-.88-1.59c-.15-.27-.3-.55-.44-.83s-.43-.82-.64-1.24-.53-1.11-.79-1.67c-.39-.83-.75-1.67-1.09-2.52-.15-.37-.3-.74-.44-1.12s-.33-.86-.49-1.3l-.09-.24,0-.11a1.43,1.43,0,0,1-.08-.22c-.08-.24-.17-.48-.25-.73l-.24-.72-.39-1.3c-.06-.2-.11-.39-.17-.58-.12-.43-.23-.86-.34-1.29,0,0,0,0,0,0-.11-.44-.22-.87-.32-1.31l-.27-1.22c-.09-.46-.17-.92-.25-1.38s-.13-.78-.19-1.16a.78.78,0,0,1,0-.14,48.35,48.35,0,0,1-.49-5.2c0-.42,0-.85,0-1.28v-.95c0-.56,0-1.11,0-1.66a.41.41,0,0,1,0-.11v-.06c0-.1,0-.2,0-.29s0-.4,0-.59q0-.72.12-1.44c0-.38.08-.77.14-1.16a.59.59,0,0,1,0-.13l.09-.62c.09-.62.2-1.23.32-1.83l.16-.77a1.16,1.16,0,0,1,0-.18,2.29,2.29,0,0,1,.07-.28c.05-.23.1-.45.16-.67.25-1,.53-2,.86-3l.42-1.18c.15-.4.3-.79.46-1.18s.24-.59.37-.88c.41-.93.85-1.85,1.34-2.75.17-.33.34-.65.53-1s.29-.51.45-.76.4-.66.61-1c.08-.13.16-.26.25-.39l.46-.69.24-.34.07-.09c0-.07.09-.13.13-.19.21-.3.43-.59.65-.88l.64-.81.74-.9c.43-.51.88-1,1.34-1.48a1.66,1.66,0,0,1,.18-.19l.19-.2c.21-.22.43-.43.65-.64s.38-.38.58-.57l.18-.17.36-.33.64-.57c.46-.4.94-.79,1.42-1.17l.35-.28c.45-.35.9-.69,1.36-1l.08-.06.12-.07.15-.11.75-.52,1.09-.71.84-.51.06,0,1-.6.39-.21a.53.53,0,0,1,.15-.08l.11-.07.24-.12c.58-.31,1.17-.62,1.78-.9.32-.16.66-.32,1-.46s.59-.27.89-.39.45-.2.69-.29.34-.15.53-.21.56-.23.84-.34c1.24-.46,2.5-.88,3.8-1.26l.46-.14.35-.09c.44-.13.89-.24,1.35-.36l.51-.12c.49-.12,1-.23,1.46-.33l.54-.11c.21,0,.42-.1.63-.13a62.88,62.88,0,0,1,8.35-1l.64,0,1,0h0c.77,0,1.53,0,2.31,0h1.33l1,0c1.17,0,2.35.1,3.53.2l.84.08.76.07.77.09,1.2.15c.79.1,1.59.22,2.39.35l1.12.19q2.79.49,5.59,1.21l.92.23.33.09,1.31.37c.29.07.57.16.85.25.57.16,1.15.34,1.72.53l.72.23,1.11.38c.34.12.69.23,1,.36l.88.32c1,.37,2,.76,3,1.17.4.16.79.32,1.19.5s.86.37,1.28.57c.14.05.26.11.39.17l.83.38.74.35,1.2.59,1.37.7c1.06.55,2.12,1.12,3.18,1.73a91.14,91.14,0,0,1,8.51,5.5c.34.25.67.49,1,.75A84.1,84.1,0,0,1,368,558.3c1.38,1.41,2.7,2.84,3.95,4.31A66.29,66.29,0,0,1,364.57,608.49Z"/><path class="cls-35" d="M347.59,595.58c-.11.2-.22.4-.34.59h0c-.52.9-1.06,1.8-1.61,2.67A83.5,83.5,0,0,1,329.09,618c-.78.66-1.56,1.3-2.36,1.92-.53.42-1.06.83-1.61,1.23-1.33,1-2.7,1.95-4.09,2.85a75,75,0,0,1-20.69,9.43c-.66-.35-1.33-.72-2-1.09s-1.42-.83-2.12-1.26l-.12-.07-1-.64-.81-.51c-.35-.22-.69-.44-1-.67s-.93-.61-1.39-.93-.91-.63-1.36-1l-1.34-1c-1.77-1.31-3.46-2.67-5.09-4.09l-1.2-1.07q-.6-.52-1.17-1.08c-.4-.36-.78-.72-1.16-1.1s-.75-.74-1.12-1.11l-1.08-1.11v0l-1-1.11-.43-.47c-.56-.62-1.11-1.25-1.64-1.88-.32-.37-.62-.74-.93-1.11l-.07-.09-.82-1-.15-.19c-.3-.38-.6-.77-.88-1.16s-.59-.78-.88-1.18c-.41-.58-.81-1.15-1.2-1.72,0,0,0,0,0,0l-.12-.16c-.68-1-1.34-2-2-3.08-.25-.41-.5-.83-.74-1.26s-.6-1.06-.88-1.59c-.15-.27-.3-.55-.44-.83s-.43-.82-.64-1.24-.53-1.11-.79-1.67c-.39-.83-.75-1.67-1.09-2.52-.15-.37-.3-.74-.44-1.12s-.33-.86-.49-1.3l-.09-.24,0-.11a1.43,1.43,0,0,1-.08-.22c-.08-.24-.17-.48-.25-.73s-.16-.48-.24-.72l-.39-1.3c-.06-.2-.11-.39-.17-.58-.12-.43-.23-.86-.34-1.29,0,0,0,0,0,0-.11-.44-.22-.87-.32-1.31l-.27-1.22c-.09-.46-.17-.92-.25-1.38s-.13-.78-.19-1.16a.78.78,0,0,1,0-.14,48.35,48.35,0,0,1-.49-5.2c0-.42,0-.85,0-1.28v-.95c0-.56,0-1.11,0-1.66a.41.41,0,0,1,0-.11v-.06c0-.1,0-.2,0-.29v-.15c0-.14,0-.29,0-.44q0-.72.12-1.44c0-.38.08-.77.14-1.16a.59.59,0,0,1,0-.13l.09-.62c.09-.62.2-1.23.32-1.83l.16-.77a1.16,1.16,0,0,1,0-.18,2.29,2.29,0,0,1,.07-.28c.05-.23.1-.45.16-.67.25-1,.53-2,.86-3l.42-1.18c.15-.4.3-.79.46-1.18s.24-.59.37-.88c.41-.93.85-1.85,1.34-2.75.17-.33.34-.65.53-1s.29-.51.45-.76.4-.66.61-1c.08-.13.16-.26.25-.39l.46-.69.24-.34.07-.09c0-.07.09-.13.13-.19.21-.3.43-.59.65-.88l.64-.81.74-.9c.43-.51.88-1,1.34-1.48a1.66,1.66,0,0,1,.18-.19l.19-.2c.21-.22.43-.43.65-.64s.38-.38.58-.57l.18-.17.36-.33.64-.57c.46-.4.94-.79,1.42-1.17l.35-.28c.45-.35.9-.69,1.36-1l.08-.06.12-.07.15-.11.75-.52,1.09-.71.84-.51.06,0,1-.6.39-.21a.53.53,0,0,1,.15-.08,3.9,3.9,0,0,1,.35-.19c.58-.31,1.17-.62,1.78-.9.32-.16.66-.32,1-.46s.59-.27.89-.39.45-.2.69-.29.34-.15.53-.21.56-.23.84-.34c1.24-.46,2.5-.88,3.8-1.26l.46-.14.35-.09c.44-.13.89-.24,1.35-.36l.51-.12c.49-.12,1-.23,1.46-.33l.54-.11c.21,0,.42-.1.63-.13a62.88,62.88,0,0,1,8.35-1l.64,0,1,0h0c.77,0,1.53,0,2.31,0h1.33l1,0c1.17,0,2.35.1,3.53.2l.84.08.76.07.77.09,1.2.15c.79.1,1.59.22,2.39.35l1.12.19q2.79.49,5.59,1.21l.92.23.33.09,1.31.37c.29.07.57.16.85.25.57.16,1.15.34,1.72.53l.72.23,1.11.38c.34.12.69.23,1,.36l.88.32c1,.37,2,.76,3,1.17.4.16.79.32,1.19.5s.86.37,1.28.57c.14.05.26.11.39.17l.83.38.74.35,1.2.59,1.37.7c1.06.55,2.12,1.12,3.18,1.73a91.14,91.14,0,0,1,8.51,5.5c.34.25.67.49,1,.75.05.75.09,1.51.11,2.27h0A80.51,80.51,0,0,1,353.86,582,85.36,85.36,0,0,1,347.59,595.58Z"/><path class="cls-36" d="M347.44,600.86a107.35,107.35,0,0,1-7,10.74c-1.48,2-3,3.91-4.55,5.7-.09.12-.19.23-.28.33-.67.77-1.33,1.51-2,2.23-.47.51-.94,1-1.41,1.48s-1.11,1.12-1.66,1.66l-.19.18c-.59.56-1.18,1.11-1.76,1.63l-.49.43h0c-1,.91-2.07,1.77-3.1,2.57-7.1,5.51-14.1,8.42-19.91,7.95-1.6-.74-3.18-1.54-4.76-2.39-.66-.35-1.33-.72-2-1.09s-1.42-.83-2.12-1.26l-.12-.07c-3.94-5.06-5-13.61-3.38-23.77q.39-2.52,1-5.13c.12-.53.26-1.07.4-1.61.54-2.07,1.17-4.18,1.91-6.32h0a104.59,104.59,0,0,1,7.66-17l0-.05c.15-.29.31-.57.48-.85,1-1.85,2.14-3.63,3.25-5.36h0a104.81,104.81,0,0,1,6.31-8.74c10.09-12.5,21.5-20.3,30.57-20.83l1.31.8,11.75,7.13a21.46,21.46,0,0,1,1.11,3h0c2.2,7.64,1.2,18.56-2.84,30.44a102.6,102.6,0,0,1-7.36,16.57Q347.91,600.05,347.44,600.86Z"/><path class="cls-37" d="M270.3,606.75c-11.58-17.09-14.41-36.83-5.54-52.37,7.91-13.86,23.44-21.4,41.33-22a85.74,85.74,0,0,0-21.28,21.74C273.43,570.81,268.72,589.7,270.3,606.75Z"/><g class="cls-38"><polygon class="cls-11" points="278.93 575.56 285.34 579.22 287.87 567.35 278.93 575.56"/><rect class="cls-11" x="277.43" y="576.22" width="7.45" height="8.89" transform="translate(173.15 -55.38) rotate(16.2)"/><rect class="cls-11" x="282.31" y="582.59" width="10.24" height="7.7" transform="translate(175.01 -56.9) rotate(16.2)"/><rect class="cls-11" x="280.59" y="589.62" width="10.24" height="5.48" transform="matrix(0.96, 0.28, -0.28, 0.96, 176.59, -56.19)"/><rect class="cls-11" x="286.44" y="593.89" width="3.45" height="4.65" transform="translate(177.76 -56.72) rotate(16.2)"/><rect class="cls-11" x="285.4" y="598.13" width="3.45" height="3.31" transform="translate(178.72 -56.29) rotate(16.2)"/><polygon class="cls-11" points="288.81 599.24 301.04 606.22 302.39 589.65 288.81 599.24"/><rect class="cls-11" x="284.46" y="600.65" width="3.45" height="4.65" transform="translate(179.57 -55.9) rotate(16.2)"/><rect class="cls-11" x="287.4" y="600.53" width="13.07" height="6.87" transform="translate(180.16 -58.02) rotate(16.2)"/><polygon class="cls-11" points="310.44 611.37 297.75 603.51 297.47 618.14 310.44 611.37"/><polygon class="cls-11" points="300.69 605.72 315.66 615 316.11 597.56 300.69 605.72"/><polygon class="cls-11" points="309.2 610.89 325.09 618.5 310.64 628.27 309.2 610.89"/><polygon class="cls-11" points="314.73 616.12 329.03 622.97 329.24 604.18 314.73 616.12"/><polygon class="cls-11" points="354.69 619.17 348.27 615.51 357.21 607.3 354.69 619.17"/><rect class="cls-11" x="345.43" y="615.4" width="7.44" height="8.89" transform="translate(178.96 1310.61) rotate(-136.77)"/><rect class="cls-11" x="335.87" y="613.54" width="10.24" height="7.7" transform="translate(166.54 1300.77) rotate(-136.77)"/><rect class="cls-11" x="331.65" y="619.14" width="10.24" height="5.48" transform="translate(156.18 1305.64) rotate(-136.77)"/><rect class="cls-11" x="330.48" y="619.4" width="3.45" height="4.65" transform="translate(148.38 1302.25) rotate(-136.77)"/><rect class="cls-11" x="327.93" y="622.78" width="3.45" height="3.31" transform="translate(142.13 1305.19) rotate(-136.77)"/><rect class="cls-11" x="325.66" y="624.54" width="3.45" height="4.65" transform="translate(136.54 1307.84) rotate(-136.77)"/><rect class="cls-11" x="316.06" y="617.26" width="13.07" height="6.87" transform="translate(132.47 1293.89) rotate(-136.77)"/><path class="cls-11" d="M313.12,580.64c-2.72,1.09-6,0-8.7-2.67a17.55,17.55,0,0,1-2.28-2.71,20.53,20.53,0,0,1-2.1-4,1.55,1.55,0,0,1-.08-.23c-2.65-6.85-1.27-13.78,3.14-15.53s10.31,2.39,13.08,9.32a20,20,0,0,1,1.26,4.74,15.41,15.41,0,0,1-.07,5,10.36,10.36,0,0,1-.43,1.64A6.9,6.9,0,0,1,313.12,580.64Z"/><path class="cls-11" d="M314.89,584.08c-.7,2.66-2.72,3.11-4.49,1l-2.76-3.29-4.36-5.18a39.31,39.31,0,0,1-2.66-3.86l-.58-1.45,0-.07a36.76,36.76,0,0,1,4.93-.58l7.52-.63c2.74-.24,5,.36,5.09,1.32a24.44,24.44,0,0,1-.39,4.08c-.12.45-.79,3-1.48,5.65Z"/><path class="cls-11" d="M334.39,590c.05,3.08,2.47,5.76,6.13,7.35a18.43,18.43,0,0,0,3.55,1.1,22.08,22.08,0,0,0,4.68.43H349c7.72-.23,13.87-4.39,13.77-9.37s-6.51-9-14.36-8.88a21.13,21.13,0,0,0-5.09.7,16.51,16.51,0,0,0-4.83,2.11,10.94,10.94,0,0,0-1.41,1.08A7.24,7.24,0,0,0,334.39,590Z"/><path class="cls-11" d="M330.14,589.8c-2.19,1.67-1.82,3.71.8,4.53l4.8,1.49,6.55,2a40.23,40.23,0,0,0,4.82,1l1.64,0h.09a37.07,37.07,0,0,0-1.37-4.77l-2.6-8c-.85-2.62-2.33-4.49-3.28-4.15a25.68,25.68,0,0,0-3.79,2l-4.68,3.58Z"/></g><g class="cls-39"><path class="cls-40" d="M302.17,540.6c0-.66-2.81-.72-6.15-.14a31.51,31.51,0,0,0-10.42,4.07,34.19,34.19,0,0,0-7.74,8.49c-1.86,3-2.42,5.66-1.23,5.87s3.24-1.48,4.57-3.78a26.65,26.65,0,0,1,6.75-7.18,41.54,41.54,0,0,1,9.32-4.57C300,542.51,302.21,541.27,302.17,540.6Z"/></g><path class="cls-41" d="M285.14,640.33c1.24-1.53,4.59-1.43,7.46.2s4.5,4.6,3.64,6.58a24.49,24.49,0,0,1-3.67,5.86c-1.16,1.24-4.34,1-7.07-.58s-4.43-4.29-3.78-6.06A25.45,25.45,0,0,1,285.14,640.33Z"/><path class="cls-41" d="M295,646.68a9.85,9.85,0,0,1,10.38-4l4.9,1.36c3.71,1,6.06,4.44,5.21,7.59a24.55,24.55,0,0,1-6.08,9.89c-2.49,2.29-6.79,2-9.56-.71l-3.47-3.37A9.06,9.06,0,0,1,295,646.68Z"/><path class="cls-41" d="M284.88,631.06a8.88,8.88,0,0,1,1.42,10.67,9.88,9.88,0,0,1-10.4,4l-4.9-1.36c-3.71-1-5.92-4.57-4.91-7.87a31.63,31.63,0,0,1,5.65-10.14c2.09-2.27,6.08-2,8.88.68Z"/><path class="cls-42" d="M349.62,528.43l-1.89-.65-2.63-.9a1,1,0,0,0-1.27.62l-.91,2.63-.65,1.89-.46,1.34a5.18,5.18,0,0,1-1,1.65l-.75.74a11,11,0,0,0-1.26,1.54l-.45.68a3,3,0,0,1-1.51,1.1l-.45.11a5.9,5.9,0,0,0-1.76.87l-.37.28c-.44.33-.35.52.19.43l5-.88a4.5,4.5,0,0,1,1.93.15h.05a1,1,0,0,1,.62,1.27l-.69,2a5,5,0,0,1-1,1.65l-.76.74c-.39.38-.35.43.1.11l5.13-3.73c.44-.33.84-.14.89.41l.8,9.9c0,.55.12.55.17,0l.8-9.24c0-.55.42-.69.83-.33l5.15,4.57c.41.37.51.28.21-.18L350,541.5a19,19,0,0,0-1.18-1.61l-1.28-1.52a1.53,1.53,0,0,1-.14-1.63l.75-1.28c.28-.48.7-1.27.93-1.77l1.79-3.79a.87.87,0,0,0-.51-1.23Z"/><path class="cls-43" d="M349.62,528.43l-1.89-.65-2.63-.9a1,1,0,0,0-1.27.62l-.91,2.63-.65,1.89-.46,1.34a5.18,5.18,0,0,1-1,1.65l-.75.74a11,11,0,0,0-1.26,1.54l-.45.68a3,3,0,0,1-1.51,1.1l-.45.11a5.9,5.9,0,0,0-1.76.87l-.37.28c-.44.33-.35.52.19.43l5-.88a4.5,4.5,0,0,1,1.93.15h.05a1,1,0,0,1,.62,1.27l-.69,2a5,5,0,0,1-1,1.65l-.76.74c-.39.38-.35.43.1.11l5.13-3.73c.44-.33.84-.14.89.41l.8,9.9c0,.55.12.55.17,0l.8-9.24c0-.55.42-.69.83-.33l5.15,4.57c.41.37.51.28.21-.18L350,541.5a19,19,0,0,0-1.18-1.61l-1.28-1.52a1.53,1.53,0,0,1-.14-1.63l.75-1.28c.28-.48.7-1.27.93-1.77l1.79-3.79a.87.87,0,0,0-.51-1.23Z"/><path class="cls-42" d="M165.7,760.25a15.65,15.65,0,0,0,2.79,1.72l4.09,2a2.81,2.81,0,0,1,1.46,2.84l-1.35,7.86a4.49,4.49,0,0,0,1,3.43l8.78,9.4c.75.8.62.95-.3.34l-10.93-7.34c-.92-.61-1.6-.21-1.53.88l.26,3.93c.08,1.1.13,2.9.11,4l0,3.11c0,1.1-.07,2.9-.14,4l-.36,6.07a12.87,12.87,0,0,1-.93,3.82l-1.44,3.19c-.45,1-.84.93-.87-.17l-.16-5.4a38,38,0,0,0-.38-4l-.46-2.89a14.92,14.92,0,0,1,0-3.95l.34-2a16.41,16.41,0,0,0,.11-4l-.15-1.33c-.12-1.09-.71-1.23-1.31-.31l-2,3a10.42,10.42,0,0,0-1.34,3.66l-.58,4.55a16.91,16.91,0,0,0,.06,4l.28,1.76a26.55,26.55,0,0,1,.29,4l0,3.11a10.61,10.61,0,0,1-.89,3.8l-1.2,2.5c-.48,1-1,.91-1.19-.18l-.64-4c-.18-1.08-.37-2.87-.42-4l-.15-2.78c0-1.1-.15-2.9-.22-4l0-.9a14.83,14.83,0,0,1,.39-3.93l1.12-4.19a21.64,21.64,0,0,1,1.44-3.7l1-1.82c.51-1,.4-1-.23-.14l-6.68,9.4c-.64.9-1.66,2.38-2.28,3.29l-1.32,2a27.67,27.67,0,0,0-1.94,3.49l-1.43,3.19a11.6,11.6,0,0,1-2.3,3.17l-1.53,1.39c-.81.74-1.36.45-1.23-.64l.59-4.55a10.27,10.27,0,0,1,1.34-3.67l1.94-3c.6-.93,1.61-2.42,2.25-3.31l2.68-3.78c.64-.89,1.71-2.33,2.39-3.2l3.84-4.89c.68-.86.54-1-.31-.3l-7.94,6.55c-.85.7-2.21,1.89-3,2.63l-5.17,4.78A15.86,15.86,0,0,1,136.6,801l-3.44,1.71c-1,.48-1.24.18-.55-.68l2.81-3.51a32.64,32.64,0,0,1,2.72-2.92s2.58-2.39,3.89-3.39,6.46-5.45,6.46-5.45c.84-.72,2.13-2,2.88-2.77l1.45-1.56c.75-.8,1.93-2.17,2.61-3l1.39-1.75a9.5,9.5,0,0,0,1.58-3.54l.46-2.7a14.08,14.08,0,0,1,1.31-3.72l3.57-6.49C164.27,760.2,165.15,759.79,165.7,760.25Z"/><path class="cls-43" d="M165.7,760.25a15.65,15.65,0,0,0,2.79,1.72l4.09,2a2.81,2.81,0,0,1,1.46,2.84l-1.35,7.86a4.49,4.49,0,0,0,1,3.43l8.78,9.4c.75.8.62.95-.3.34l-10.93-7.34c-.92-.61-1.6-.21-1.53.88l.26,3.93c.08,1.1.13,2.9.11,4l0,3.11c0,1.1-.07,2.9-.14,4l-.36,6.07a12.87,12.87,0,0,1-.93,3.82l-1.44,3.19c-.45,1-.84.93-.87-.17l-.16-5.4a38,38,0,0,0-.38-4l-.46-2.89a14.92,14.92,0,0,1,0-3.95l.34-2a16.41,16.41,0,0,0,.11-4l-.15-1.33c-.12-1.09-.71-1.23-1.31-.31l-2,3a10.42,10.42,0,0,0-1.34,3.66l-.58,4.55a16.91,16.91,0,0,0,.06,4l.28,1.76a26.55,26.55,0,0,1,.29,4l0,3.11a10.61,10.61,0,0,1-.89,3.8l-1.2,2.5c-.48,1-1,.91-1.19-.18l-.64-4c-.18-1.08-.37-2.87-.42-4l-.15-2.78c0-1.1-.15-2.9-.22-4l0-.9a14.83,14.83,0,0,1,.39-3.93l1.12-4.19a21.64,21.64,0,0,1,1.44-3.7l1-1.82c.51-1,.4-1-.23-.14l-6.68,9.4c-.64.9-1.66,2.38-2.28,3.29l-1.32,2a27.67,27.67,0,0,0-1.94,3.49l-1.43,3.19a11.6,11.6,0,0,1-2.3,3.17l-1.53,1.39c-.81.74-1.36.45-1.23-.64l.59-4.55a10.27,10.27,0,0,1,1.34-3.67l1.94-3c.6-.93,1.61-2.42,2.25-3.31l2.68-3.78c.64-.89,1.71-2.33,2.39-3.2l3.84-4.89c.68-.86.54-1-.31-.3l-7.94,6.55c-.85.7-2.21,1.89-3,2.63l-5.17,4.78A15.86,15.86,0,0,1,136.6,801l-3.44,1.71c-1,.48-1.24.18-.55-.68l2.81-3.51a32.64,32.64,0,0,1,2.72-2.92s2.58-2.39,3.89-3.39,6.46-5.45,6.46-5.45c.84-.72,2.13-2,2.88-2.77l1.45-1.56c.75-.8,1.93-2.17,2.61-3l1.39-1.75a9.5,9.5,0,0,0,1.58-3.54l.46-2.7a14.08,14.08,0,0,1,1.31-3.72l3.57-6.49C164.27,760.2,165.15,759.79,165.7,760.25Z"/><path class="cls-42" d="M410.83,672a12.18,12.18,0,0,0-2.1-2l-2-1.56a1.87,1.87,0,0,1-.28-2.73l4.22-4.89a3.43,3.43,0,0,0,.47-3.34l-3.23-7.09c-.45-1-.22-1.15.52-.34l5.78,6.34a1.3,1.3,0,0,0,2.27-.3l1.08-2.1c.5-1,1.39-2.54,2-3.47l1-1.59c.58-.93,1.57-2.43,2.2-3.33l2.54-3.67a14.81,14.81,0,0,1,2.74-2.85l2.43-1.84c.88-.66,1.15-.42.61.54l-1.79,3.16a32.23,32.23,0,0,0-1.72,3.61l-.5,1.28a14,14,0,0,1-2,3.37l-.8.94a16.39,16.39,0,0,0-2.13,3.33l-.09.19c-.45,1,0,1.37.91.81l2.9-1.7a12.79,12.79,0,0,0,3-2.57l2.1-2.66a15.78,15.78,0,0,0,2-3.42l.17-.45a25.76,25.76,0,0,1,1.79-3.56l1-1.59a12.14,12.14,0,0,1,2.68-2.86l2-1.41c.89-.64,1.3-.33.89.69l-.82,2.12c-.41,1-1.16,2.65-1.68,3.62l-.7,1.3c-.52,1-1.35,2.55-1.86,3.51a15.25,15.25,0,0,1-2.34,3.15l-2.48,2.45a26.62,26.62,0,0,1-3.07,2.53l-1.47,1c-.91.62-.86.7.11.17l9.82-5.34c1-.53,2.53-1.4,3.49-1.95l1.92-1.09a36.9,36.9,0,0,0,3.34-2.19l2.43-1.84a15.74,15.74,0,0,1,3.47-1.88l1.94-.7c1-.37,1.32,0,.64.89l-2.11,2.65a12.4,12.4,0,0,1-3,2.58l-2.9,1.7c-.95.56-2.52,1.44-3.48,2l-3.9,2.12c-1,.52-2.56,1.36-3.54,1.85l-5.41,2.71c-1,.49-.93.62.11.28l9.8-3.16c1.05-.34,2.75-.93,3.78-1.3l6.59-2.42a24.29,24.29,0,0,1,3.86-1l3.72-.56c1.09-.17,1.17.1.18.58l-3.91,1.93c-1,.48-2.64,1.19-3.68,1.57,0,0-3.29,1.21-4.87,1.68s-8,2.65-8,2.65c-1,.35-2.72,1-3.73,1.43l-1.92.82c-1,.43-2.65,1.18-3.63,1.67l-1.92,1a11.83,11.83,0,0,0-3.1,2.4l-1.23,1.42a17.21,17.21,0,0,1-3,2.62L413,671.64C412.09,672.25,411.11,672.39,410.83,672Z"/><path class="cls-43" d="M410.83,672a12.18,12.18,0,0,0-2.1-2l-2-1.56a1.87,1.87,0,0,1-.28-2.73l4.22-4.89a3.43,3.43,0,0,0,.47-3.34l-3.23-7.09c-.45-1-.22-1.15.52-.34l5.78,6.34a1.3,1.3,0,0,0,2.27-.3l1.08-2.1c.5-1,1.39-2.54,2-3.47l1-1.59c.58-.93,1.57-2.43,2.2-3.33l2.54-3.67a14.81,14.81,0,0,1,2.74-2.85l2.43-1.84c.88-.66,1.15-.42.61.54l-1.79,3.16a32.23,32.23,0,0,0-1.72,3.61l-.5,1.28a14,14,0,0,1-2,3.37l-.8.94a16.39,16.39,0,0,0-2.13,3.33l-.09.19c-.45,1,0,1.37.91.81l2.9-1.7a12.79,12.79,0,0,0,3-2.57l2.1-2.66a15.78,15.78,0,0,0,2-3.42l.17-.45a25.76,25.76,0,0,1,1.79-3.56l1-1.59a12.14,12.14,0,0,1,2.68-2.86l2-1.41c.89-.64,1.3-.33.89.69l-.82,2.12c-.41,1-1.16,2.65-1.68,3.62l-.7,1.3c-.52,1-1.35,2.55-1.86,3.51a15.25,15.25,0,0,1-2.34,3.15l-2.48,2.45a26.62,26.62,0,0,1-3.07,2.53l-1.47,1c-.91.62-.86.7.11.17l9.82-5.34c1-.53,2.53-1.4,3.49-1.95l1.92-1.09a36.9,36.9,0,0,0,3.34-2.19l2.43-1.84a15.74,15.74,0,0,1,3.47-1.88l1.94-.7c1-.37,1.32,0,.64.89l-2.11,2.65a12.4,12.4,0,0,1-3,2.58l-2.9,1.7c-.95.56-2.52,1.44-3.48,2l-3.9,2.12c-1,.52-2.56,1.36-3.54,1.85l-5.41,2.71c-1,.49-.93.62.11.28l9.8-3.16c1.05-.34,2.75-.93,3.78-1.3l6.59-2.42a24.29,24.29,0,0,1,3.86-1l3.72-.56c1.09-.17,1.17.1.18.58l-3.91,1.93c-1,.48-2.64,1.19-3.68,1.57,0,0-3.29,1.21-4.87,1.68s-8,2.65-8,2.65c-1,.35-2.72,1-3.73,1.43l-1.92.82c-1,.43-2.65,1.18-3.63,1.67l-1.92,1a11.83,11.83,0,0,0-3.1,2.4l-1.23,1.42a17.21,17.21,0,0,1-3,2.62L413,671.64C412.09,672.25,411.11,672.39,410.83,672Z"/><path class="cls-30" d="M252.17,639.54a.63.63,0,0,1,.59,1l-6.31,14.16a9.1,9.1,0,0,1-1,1.68l-22,26.32c-.35.42-.89,1.14-1.19,1.6l-15.35,22.92c-.31.45-.8,1.21-1.1,1.67l-11.56,18c-.3.46-.75,1.24-1,1.73L182,750.35a19.94,19.94,0,0,0-.81,1.83l-6.67,17.64a.91.91,0,0,1-1.26.5L162.17,765a1.08,1.08,0,0,1-.53-1.36l12-29.66c.21-.51.57-1.33.79-1.83l7.88-17.29a15.49,15.49,0,0,1,1-1.74l13.24-19.8,1.12-1.65,9.85-14.45a16.94,16.94,0,0,1,1.25-1.55L227,656.35l1.37-1.45,8-8.46a12.31,12.31,0,0,1,1.51-1.28l7.83-5.28a3.59,3.59,0,0,1,1.83-.52Z"/><path class="cls-30" d="M309,689.13a1.48,1.48,0,0,0-.19,1.61l13.89,25.2c.26.49.72,1.26,1,1.73l6.19,9.79,1.08,1.69,5.83,9.1a4,4,0,0,0,1.46,1.24l2.5,1.06a2.07,2.07,0,0,0,1.75-.15l5.5-3.65a17,17,0,0,0,1.57-1.23l9-8.13L360,726l22.91-21.16c.41-.38,1-1,1.41-1.42l17.83-19.36,1.35-1.48,9.6-10.59a.93.93,0,0,0-.12-1.36l-6.08-4.83a1.17,1.17,0,0,0-1.5.08l-14,13.76-1.43,1.4L378,692.94c-.39.39-1.06,1-1.48,1.34l-11.36,9.4c-.43.35-1.11.94-1.52,1.31l-9.92,8.86-1.5,1.32-8.77,7.69a.75.75,0,0,1-1.22-.22l-8-14.89a18.48,18.48,0,0,0-1-1.7l-9.28-12.9c-.32-.45-.83-1.19-1.13-1.65l-3.93-6.06a13.28,13.28,0,0,0-1.23-1.57l-1.27-1.35a.91.91,0,0,0-1.36,0Z"/><rect class="cls-7" x="77.34" y="925.27" width="76.82" height="87.4" rx="10" ry="10"/><ellipse class="cls-44" cx="91.65" cy="984.33" rx="1.17" ry="23.47"/><ellipse class="cls-44" cx="100.44" cy="983.81" rx="0.59" ry="16.69"/><ellipse class="cls-44" cx="112.74" cy="982.77" rx="1.17" ry="21.9"/><ellipse class="cls-44" cx="129.15" cy="992.67" rx="1.17" ry="18.25"/><ellipse class="cls-44" cx="120.95" cy="980.68" rx="1.17" ry="13.56"/><ellipse class="cls-44" cx="144.38" cy="984.33" rx="1.17" ry="23.47"/><path class="cls-45" d="M17.27,544.57C2.11,564.13,10,580.14,34.71,580.14H199c24.75,0,32.6-16,17.45-35.57l-72-93c-15.15-19.57-39.95-19.57-55.11,0Z"/><path class="cls-45" d="M-6.13,645.67c-15.82,19-8.52,34.61,16.23,34.61H223.59c24.75,0,32-15.58,16.23-34.61L145.61,532.35c-15.82-19-41.71-19-57.53,0Z"/><path class="cls-28" d="M203.78,555.16c2.78,3.41,1.45,6.21-2.95,6.21H38.72c-4.4,0-5.73-2.8-2.95-6.21l79-97.11a6.25,6.25,0,0,1,10.09,0Z"/><ellipse class="cls-45" cx="40.68" cy="561.37" rx="28.71" ry="29.21"/><path class="cls-45" d="M-65.84,900.75C-83,918.61-76.75,933.22-52,933.22H283.35c24.75,0,31-14.61,13.84-32.47L146.83,744a42.93,42.93,0,0,0-62.31,0Z"/><path class="cls-28" d="M270.63,911.91c2.84,3.36,1.56,6.11-2.84,6.11H-34.81c-4.4,0-5.67-2.75-2.83-6.11l149-176.5a6.54,6.54,0,0,1,10.32,0Z"/><ellipse class="cls-45" cx="254.42" cy="922.95" rx="50.57" ry="44.86" transform="translate(-7.03 1.97) rotate(-0.44)"/><path class="cls-45" d="M113.21,918c0,21-23.16,38-51.73,38S9.75,939,9.75,918Z"/><path class="cls-45" d="M210.1,918c0,21-23.16,38-51.73,38s-51.73-17-51.73-38Z"/><path class="cls-45" d="M37,918.09c0,21-23.16,38-51.73,38s-51.73-17-51.73-38Z"/><ellipse class="cls-45" cx="126.43" cy="465.55" rx="18.16" ry="15.18"/><ellipse class="cls-45" cx="141.28" cy="489.54" rx="18.16" ry="15.18"/><path class="cls-45" d="M-44.93,772.92c-16.39,18.54-9.56,33.72,15.19,33.72h292c24.75,0,31.58-15.18,15.19-33.72L146.06,624.29c-16.39-18.54-43.21-18.54-59.6,0Z"/><path class="cls-28" d="M255.15,785.51c2.7,3.47,1.31,6.31-3.09,6.31H-18.07c-4.4,0-5.79-2.84-3.08-6.31L112.09,614.17a5.93,5.93,0,0,1,9.82,0Z"/><ellipse class="cls-45" cx="-10.22" cy="794.95" rx="42.59" ry="40.74"/><path class="cls-45" d="M114.05,791.82c0,20.45-20.8,37-46.46,37s-46.46-16.59-46.46-37Z"/><path class="cls-45" d="M201.06,791.82c0,20.45-20.8,37-46.45,37s-46.46-16.59-46.46-37Z"/><path class="cls-45" d="M278.05,791.88c0,20.46-20.8,37-46.46,37s-46.45-16.58-46.45-37Z"/><path class="cls-28" d="M226.37,661.3c2.6,3.55,1.12,6.46-3.28,6.46H11.77c-4.4,0-5.87-2.91-3.28-6.46L112.71,518.8c2.6-3.55,6.85-3.55,9.44,0Z"/><ellipse class="cls-45" cx="213.66" cy="667.76" rx="33.83" ry="34.42"/><path class="cls-45" d="M118.6,560.32c0,16.13-12.85,29.21-28.7,29.21a29,29,0,0,1-28.71-29.21Z"/><path class="cls-45" d="M172.5,560.32c0,16.13-12.85,29.21-28.7,29.21a29,29,0,0,1-28.71-29.21Z"/><path class="cls-45" d="M216.26,560.32c0,16.13-12.85,29.21-28.7,29.21a29,29,0,0,1-28.71-29.21Z"/><path class="cls-45" d="M115.09,667.76c0,17.28-16.53,31.29-36.91,31.29s-36.91-14-36.91-31.29Z"/><path class="cls-45" d="M184.22,667.76c0,17.28-16.53,31.29-36.91,31.29s-36.91-14-36.91-31.29Z"/><path class="cls-45" d="M70.35,667.76c0,17.28-16.53,31.29-36.91,31.29S-3.47,685-3.47,667.76Z"/><ellipse class="cls-45" cx="193.4" cy="908.71" rx="29.44" ry="23.99"/><ellipse class="cls-45" cx="41.07" cy="791.88" rx="29.44" ry="23.99"/><path class="cls-45" d="M99.85,522.77c0,5.19-4.71,9.39-10.54,9.39s-10.55-4.2-10.55-9.39Z"/><path class="cls-45" d="M158.44,542.07c0,4.9-4.45,8.87-10,8.87s-10-4-10-8.87Z"/><path class="cls-45" d="M85.79,616c0,6.36-4.45,11.5-10,11.5s-10-5.14-10-11.5Z"/><path class="cls-45" d="M162,606.74c0,4.9-4.46,8.87-10,8.87s-10-4-10-8.87Z"/><path class="cls-45" d="M132.66,642.73c0,5.19-4.71,9.38-10.54,9.38s-10.55-4.19-10.55-9.38Z"/><path class="cls-45" d="M169,725.5a8.8,8.8,0,1,1-17.58,0Z"/><path class="cls-45" d="M75.29,732.68c0,4.21-4.72,7.61-10.57,7.61s-10.56-3.4-10.56-7.61Z"/><path class="cls-45" d="M200.63,769.57c0,4-3.67,7.31-8.21,7.31s-8.2-3.27-8.2-7.31Z"/><path class="cls-45" d="M122.12,752.89c0,4-3.67,7.3-8.2,7.3s-8.21-3.27-8.21-7.3Z"/><path class="cls-45" d="M54.16,856.55c0,6.35-4.46,11.48-10,11.48s-10-5.13-10-11.48Z"/><path class="cls-45" d="M118.6,843c0,4.62-4.19,8.35-9.37,8.35s-9.38-3.73-9.38-8.35Z"/><path class="cls-45" d="M172.5,858.64c0,5.19-4.71,9.39-10.54,9.39s-10.55-4.2-10.55-9.39Z"/><path class="cls-45" d="M99.85,892c0,6.34-4.45,11.47-9.95,11.47s-10-5.13-10-11.47Z"/><path class="cls-45" d="M21.35,894.8c0,4.32-3.93,7.82-8.79,7.82s-8.79-3.5-8.79-7.82Z"/><rect class="cls-7" x="1693.74" y="875.13" width="56.33" height="75.53" rx="10" ry="10"/><ellipse class="cls-44" cx="1739.58" cy="926.18" rx="0.86" ry="20.28"/><ellipse class="cls-44" cx="1733.13" cy="925.73" rx="0.43" ry="14.42"/><ellipse class="cls-44" cx="1724.11" cy="924.82" rx="0.86" ry="18.93"/><ellipse class="cls-44" cx="1712.08" cy="933.39" rx="0.86" ry="15.78"/><ellipse class="cls-44" cx="1718.09" cy="923.02" rx="0.86" ry="11.72"/><ellipse class="cls-44" cx="1700.91" cy="926.18" rx="0.86" ry="20.28"/><path class="cls-45" d="M1789.62,539.25c13.59,20.69,4.47,37.61-20.28,37.61h-96.47c-24.75,0-33.88-16.92-20.29-37.61l43.81-66.64c13.59-20.69,35.83-20.69,49.43,0Z"/><path class="cls-45" d="M1806.44,626.63c14.27,20.22,5.69,36.77-19.06,36.77H1654.82c-24.75,0-33.32-16.55-19.06-36.77l59.4-84.21c14.27-20.23,37.61-20.23,51.88,0Z"/><path class="cls-28" d="M1658.19,554.05c-2.5,3.62-.94,6.58,3.46,6.58h114.61c4.4,0,6-3,3.46-6.58l-56.22-81.49c-2.5-3.62-6.59-3.62-9.09,0Z"/><ellipse class="cls-45" cx="1776.96" cy="560.63" rx="21.05" ry="25.24"/><path class="cls-45" d="M1849.51,847.11c15.63,19.19,8.16,34.89-16.59,34.89H1611c-24.75,0-32.21-15.7-16.59-34.89l99.14-121.77c15.63-19.19,41.2-19.19,56.82,0Z"/><path class="cls-28" d="M1609.2,862.37c-2.56,3.57-1.06,6.5,3.34,6.5h217.64c4.4,0,5.9-2.93,3.34-6.5L1726,712.27c-2.56-3.58-6.76-3.58-9.32,0Z"/><ellipse class="cls-45" cx="1620.21" cy="873.13" rx="37.09" ry="38.77" transform="translate(-17.62 33.52) rotate(-1.18)"/><path class="cls-45" d="M1723.77,868.87c0,18.13,17,32.84,37.93,32.84s37.94-14.71,37.94-32.84Z"/><path class="cls-45" d="M1652.71,868.87c0,18.13,17,32.84,37.94,32.84s37.94-14.71,37.94-32.84Z"/><path class="cls-45" d="M1778.07,868.93c0,18.13,17,32.84,37.93,32.84s37.94-14.71,37.94-32.84Z"/><ellipse class="cls-45" cx="1715.95" cy="479" rx="13.32" ry="13.12"/><ellipse class="cls-45" cx="1703.06" cy="499.74" rx="13.32" ry="13.12"/><path class="cls-45" d="M1834.59,736.61c14.86,19.8,6.76,36-18,36H1626.47c-24.75,0-32.85-16.2-18-36l86.06-114.74c14.85-19.8,39.15-19.8,54,0Z"/><path class="cls-28" d="M1620.48,753.12c-2.42,3.68-.8,6.68,3.6,6.68H1817.9c4.4,0,6-3,3.6-6.68l-96.1-145.63c-2.43-3.67-6.39-3.67-8.82,0Z"/><ellipse class="cls-45" cx="1814.29" cy="762.51" rx="31.23" ry="35.21"/><path class="cls-45" d="M1723.15,759.8c0,17.68,15.26,32,34.07,32s34.07-14.33,34.07-32Z"/><path class="cls-45" d="M1659.34,759.8c0,17.68,15.26,32,34.07,32s34.07-14.33,34.07-32Z"/><path class="cls-45" d="M1606.76,759.86c0,17.67,15.26,32,34.07,32s34.07-14.34,34.07-32Z"/><path class="cls-28" d="M1641.54,645.78c-2.32,3.74-.62,6.8,3.78,6.8H1796c4.4,0,6.11-3.06,3.79-6.8l-74.92-120.72c-2.32-3.74-6.12-3.74-8.44,0Z"/><ellipse class="cls-45" cx="1650.1" cy="652.58" rx="24.81" ry="29.75"/><path class="cls-45" d="M1719.81,559.73c0,13.94,9.43,25.24,21.06,25.24s21.05-11.3,21.05-25.24Z"/><path class="cls-45" d="M1680.29,559.73c0,13.94,9.42,25.24,21,25.24s21.05-11.3,21.05-25.24Z"/><path class="cls-45" d="M1651.08,559.73c0,13.94,9.42,25.24,21.05,25.24s21-11.3,21-25.24Z"/><path class="cls-45" d="M1722.39,652.58a27.07,27.07,0,0,0,54.14,0Z"/><path class="cls-45" d="M1671.69,652.58a27.07,27.07,0,0,0,54.14,0Z"/><path class="cls-45" d="M1753.32,652.58a27.07,27.07,0,0,0,54.13,0Z"/><ellipse class="cls-45" cx="1664.96" cy="860.82" rx="21.59" ry="20.73"/><ellipse class="cls-45" cx="1776.67" cy="759.86" rx="21.59" ry="20.73"/><path class="cls-45" d="M1733.56,527.28a7.74,7.74,0,1,0,15.47,0Z"/><path class="cls-45" d="M1690.6,544a7.31,7.31,0,1,0,14.61,0Z"/><path class="cls-45" d="M1743.87,607.85c0,5.49,3.27,9.94,7.31,9.94s7.3-4.45,7.3-9.94Z"/><path class="cls-45" d="M1688,599.85a7.31,7.31,0,1,0,14.61,0Z"/><path class="cls-45" d="M1709.5,631a7.74,7.74,0,1,0,15.47,0Z"/><path class="cls-45" d="M1682.86,702.48c0,4.42,2.89,8,6.45,8s6.44-3.57,6.44-8Z"/><path class="cls-45" d="M1751.58,708.69c0,3.63,3.46,6.58,7.74,6.58s7.75-2.95,7.75-6.58Z"/><path class="cls-45" d="M1659.66,740.58a6,6,0,1,0,12,0Z"/><path class="cls-45" d="M1717.24,726.15a6,6,0,1,0,12,0Z"/><path class="cls-45" d="M1767.07,815.75c0,5.48,3.27,9.91,7.31,9.91s7.3-4.43,7.3-9.91Z"/><path class="cls-45" d="M1719.81,804a6.88,6.88,0,1,0,13.75,0Z"/><path class="cls-45" d="M1680.29,817.55a7.74,7.74,0,1,0,15.46,0Z"/><path class="cls-45" d="M1733.56,846.4c0,5.48,3.27,9.91,7.31,9.91s7.3-4.43,7.3-9.91Z"/><path class="cls-45" d="M1791.13,848.8a6.45,6.45,0,1,0,12.89,0Z"/><circle class="cls-46" cx="318" cy="166" r="55"/><circle class="cls-47" cx="318.5" cy="166.5" r="66.5"/><circle class="cls-48" cx="318" cy="166" r="76"/><g class="cls-49"><path class="cls-13" d="M1666.89,227.57c1.59.33,1.59.83,0,1.09s-3.74,2.07-4.79,4l-.2.37c-1.05,1.94-1.9,3.6-1.9,3.69s-.85-1.42-1.9-3.36l-.2-.37c-1.05-1.93-3.25-3.74-4.9-4s-3-.51-3-.52,1.35-.3,3-.64,3.71-2.29,4.58-4.31l.84-1.95c.87-2,1.58-3.72,1.58-3.78s.71,1.55,1.58,3.57l.84,1.94C1663.29,225.3,1665.3,227.23,1666.89,227.57Z"/></g><g class="cls-49"><path class="cls-13" d="M127.08,88.49c1.51.32,1.51.79,0,1s-3.61,2-4.65,4v0c-1,1.94-1.9,3.59-1.9,3.68s-.85-1.43-1.9-3.36v0c-1-1.94-3.19-3.74-4.76-4L111,89.34s1.28-.29,2.85-.62,3.57-2.26,4.44-4.28l.65-1.5c.87-2,1.58-3.72,1.58-3.78s.71,1.55,1.58,3.57l.65,1.51C123.62,86.26,125.57,88.17,127.08,88.49Z"/></g><g class="cls-49"><path class="cls-13" d="M38.84,240.86c0-.2.48-.38,1.08-.41a8.89,8.89,0,0,0,2.19-.45,15.1,15.1,0,0,0,1.8-.8l1.44-.77a2.82,2.82,0,0,0,1-1.12l.68-1.45a3.76,3.76,0,0,0,.3-1.44l-.08-1.78-.09-2.14c0-.58.11-1.07.31-1.08s.39.3.4.7l.07,1.42.06,1.42L48.1,234l0,.71a3.19,3.19,0,0,0,.41,1l.8,1.39a2.91,2.91,0,0,0,1.15,1,16.88,16.88,0,0,0,1.87.63,8.84,8.84,0,0,0,2.21.26l1.84-.08c.4,0,.74.19.76.47s-.8.64-1.81.79a19.64,19.64,0,0,0-2.91.69,5.74,5.74,0,0,0-1.79,1.15l-1,1.12a4.59,4.59,0,0,0-.67,1.45,6.72,6.72,0,0,0-.29,1.8l.06,1.42a.73.73,0,0,1-.7.75c-.4,0-.76-.61-.8-1.39l-.09-2.14a3.82,3.82,0,0,0-.43-1.41,5.19,5.19,0,0,0-.78-1l-.77-.68a4.92,4.92,0,0,0-1.31-.66,5.89,5.89,0,0,0-1.85-.28l-2,.1C39.35,241.19,38.85,241.05,38.84,240.86Z"/></g><g class="cls-49"><path class="cls-13" d="M752.77,86.27c0-.19.44-.36,1-.39a7.24,7.24,0,0,0,2-.43,14.08,14.08,0,0,0,1.66-.75l1.32-.73a2.68,2.68,0,0,0,1-1.06l.62-1.38a3.56,3.56,0,0,0,.27-1.37l-.07-1.69-.09-2c0-.56.11-1,.29-1s.35.29.37.66l.06,1.35.06,1.36,0,1,0,.68a3.12,3.12,0,0,0,.38,1l.73,1.32a2.75,2.75,0,0,0,1.06,1,16,16,0,0,0,1.72.6,8,8,0,0,0,2,.25l1.69-.08a.62.62,0,0,1,.7.45c0,.27-.74.61-1.66.76a16.11,16.11,0,0,0-2.69.65,5,5,0,0,0-1.64,1.09l-1,1.06a4.53,4.53,0,0,0-.62,1.38,6.58,6.58,0,0,0-.26,1.7l.06,1.35a.67.67,0,0,1-.65.71c-.37,0-.7-.58-.73-1.32l-.09-2A3.81,3.81,0,0,0,760,89a5,5,0,0,0-.72-1l-.71-.65a4.64,4.64,0,0,0-1.2-.63,5.08,5.08,0,0,0-1.71-.26l-1.86.09C753.24,86.58,752.77,86.45,752.77,86.27Z"/></g><g class="cls-49"><path class="cls-13" d="M1007.48,256.71c1.73.37,1.73.9,0,1.2a8.44,8.44,0,0,0-5,4l-.58,1.08c-1.05,1.94-1.9,3.6-1.9,3.7a37.66,37.66,0,0,1-1.9-3.34l-.59-1.07a8.56,8.56,0,0,0-5.18-4.08l-3.29-.56,3.29-.72a8.05,8.05,0,0,0,4.87-4.37l1.21-2.82c.87-2,1.59-3.72,1.59-3.79s.71,1.54,1.58,3.56l1.22,2.83C1003.63,254.4,1005.75,256.35,1007.48,256.71Z"/></g><g class="cls-49"><path class="cls-13" d="M1276.14,129.81c.94.27.94.68,0,.91s-2.24,1.79-2.89,3.49-1.19,3.15-1.19,3.23-.54-1.26-1.19-2.95-2-3.28-3-3.51-1.78-.43-1.78-.44l1.78-.54c1-.29,2.31-2.25,3-4.35l0-.09c.65-2.1,1.18-3.86,1.18-3.91s.53,1.63,1.17,3.73l0,.1C1273.91,127.58,1275.2,129.53,1276.14,129.81Z"/></g><g class="cls-49"><path class="cls-13" d="M1803.57,105.8c0-.29.69-.57,1.57-.61a11.81,11.81,0,0,0,3.17-.67,24.92,24.92,0,0,0,2.62-1.18l2.08-1.16a4.15,4.15,0,0,0,1.52-1.67l1-2.18a5.51,5.51,0,0,0,.44-2.15l-.12-2.66-.14-3.19c0-.88.17-1.61.46-1.63s.56.46.58,1l.1,2.12.09,2.13.07,1.6,0,1.07a4.87,4.87,0,0,0,.6,1.57l1.16,2.08a4.24,4.24,0,0,0,1.67,1.53,26.14,26.14,0,0,0,2.71.94,11.88,11.88,0,0,0,3.22.39l2.66-.11c.58,0,1.08.29,1.1.71s-1.16,1-2.62,1.18a26.61,26.61,0,0,0-4.22,1,8.12,8.12,0,0,0-2.59,1.71l-1.53,1.67a7.32,7.32,0,0,0-1,2.18,10.6,10.6,0,0,0-.41,2.68l.09,2.13a1.06,1.06,0,0,1-1,1.11c-.59,0-1.11-.91-1.16-2.08l-.14-3.19a5.75,5.75,0,0,0-.63-2.11,7.5,7.5,0,0,0-1.14-1.55l-1.11-1a7.1,7.1,0,0,0-1.9-1,8,8,0,0,0-2.68-.41l-2.94.14C1804.31,106.3,1803.58,106.09,1803.57,105.8Z"/></g><g class="cls-49"><path class="cls-13" d="M1043.22,66.34c1.42.29,1.42.71,0,.94s-3.39,1.84-4.37,3.59-1.79,3.24-1.79,3.32-.8-1.28-1.79-3a7.63,7.63,0,0,0-4.47-3.61c-1.47-.24-2.68-.44-2.68-.45l2.68-.56c1.48-.29,3.42-2.18,4.32-4.19l.3-.66c.91-2,1.64-3.69,1.64-3.74s.74,1.56,1.64,3.56l.3.66C1039.9,64.18,1041.8,66.05,1043.22,66.34Z"/></g><rect class="cls-7" x="628.74" y="895.13" width="56.33" height="75.53" rx="10" ry="10"/><ellipse class="cls-44" cx="674.58" cy="946.18" rx="0.86" ry="20.28"/><ellipse class="cls-44" cx="668.13" cy="945.73" rx="0.43" ry="14.42"/><ellipse class="cls-44" cx="659.11" cy="944.82" rx="0.86" ry="18.93"/><ellipse class="cls-44" cx="647.08" cy="953.39" rx="0.86" ry="15.78"/><ellipse class="cls-44" cx="653.09" cy="943.02" rx="0.86" ry="11.72"/><ellipse class="cls-44" cx="635.91" cy="946.18" rx="0.86" ry="20.28"/><path class="cls-45" d="M724.62,559.25c13.59,20.69,4.47,37.61-20.28,37.61H607.87c-24.75,0-33.88-16.92-20.29-37.61l43.81-66.64c13.59-20.69,35.83-20.69,49.43,0Z"/><path class="cls-45" d="M741.44,646.63c14.27,20.22,5.69,36.77-19.06,36.77H589.82c-24.75,0-33.32-16.55-19.06-36.77l59.4-84.21c14.27-20.23,37.61-20.23,51.88,0Z"/><path class="cls-28" d="M593.19,574.05c-2.5,3.62-.94,6.58,3.46,6.58H711.26c4.4,0,6-3,3.46-6.58L658.5,492.56c-2.5-3.62-6.59-3.62-9.09,0Z"/><ellipse class="cls-45" cx="711.96" cy="580.63" rx="21.05" ry="25.24"/><path class="cls-45" d="M784.51,867.11C800.14,886.3,792.67,902,767.92,902H546c-24.75,0-32.21-15.7-16.59-34.89l99.14-121.77c15.63-19.19,41.2-19.19,56.82,0Z"/><path class="cls-28" d="M544.2,882.37c-2.56,3.57-1.06,6.5,3.34,6.5H765.18c4.4,0,5.9-2.93,3.34-6.5L661,732.27c-2.56-3.58-6.76-3.58-9.32,0Z"/><ellipse class="cls-45" cx="555.21" cy="893.13" rx="37.09" ry="38.77" transform="translate(-18.26 11.61) rotate(-1.18)"/><path class="cls-45" d="M658.77,888.87c0,18.13,17,32.84,37.93,32.84s37.94-14.71,37.94-32.84Z"/><path class="cls-45" d="M587.71,888.87c0,18.13,17,32.84,37.94,32.84s37.94-14.71,37.94-32.84Z"/><path class="cls-45" d="M713.07,888.93c0,18.13,17,32.84,37.93,32.84s37.94-14.71,37.94-32.84Z"/><ellipse class="cls-45" cx="650.95" cy="499" rx="13.32" ry="13.12"/><ellipse class="cls-45" cx="638.06" cy="519.74" rx="13.32" ry="13.12"/><path class="cls-45" d="M769.59,756.61c14.86,19.8,6.76,36-18,36H561.47c-24.75,0-32.85-16.2-18-36l86.06-114.74c14.85-19.8,39.15-19.8,54,0Z"/><path class="cls-28" d="M555.48,773.12c-2.42,3.68-.8,6.68,3.6,6.68H752.9c4.4,0,6-3,3.6-6.68L660.4,627.49c-2.43-3.67-6.39-3.67-8.82,0Z"/><ellipse class="cls-45" cx="749.29" cy="782.51" rx="31.23" ry="35.21"/><path class="cls-45" d="M658.15,779.8c0,17.68,15.26,32,34.07,32s34.07-14.33,34.07-32Z"/><path class="cls-45" d="M594.34,779.8c0,17.68,15.26,32,34.07,32s34.07-14.33,34.07-32Z"/><path class="cls-45" d="M541.76,779.86c0,17.67,15.26,32,34.07,32s34.07-14.34,34.07-32Z"/><path class="cls-28" d="M576.54,665.78c-2.32,3.74-.62,6.8,3.78,6.8H731c4.4,0,6.11-3.06,3.79-6.8L659.89,545.06c-2.32-3.74-6.12-3.74-8.44,0Z"/><ellipse class="cls-45" cx="585.1" cy="672.58" rx="24.81" ry="29.75"/><path class="cls-45" d="M654.81,579.73c0,13.94,9.43,25.24,21.06,25.24s21-11.3,21-25.24Z"/><path class="cls-45" d="M615.29,579.73c0,13.94,9.42,25.24,21.05,25.24s21-11.3,21-25.24Z"/><path class="cls-45" d="M586.08,579.73c0,13.94,9.42,25.24,21,25.24s21-11.3,21-25.24Z"/><path class="cls-45" d="M657.39,672.58a27.07,27.07,0,0,0,54.14,0Z"/><path class="cls-45" d="M606.69,672.58a27.07,27.07,0,0,0,54.14,0Z"/><path class="cls-45" d="M688.32,672.58a27.07,27.07,0,0,0,54.13,0Z"/><ellipse class="cls-45" cx="599.96" cy="880.82" rx="21.59" ry="20.73"/><ellipse class="cls-45" cx="711.67" cy="779.86" rx="21.59" ry="20.73"/><path class="cls-45" d="M668.56,547.28a7.74,7.74,0,1,0,15.47,0Z"/><path class="cls-45" d="M625.6,564a7.31,7.31,0,1,0,14.61,0Z"/><path class="cls-45" d="M678.87,627.85c0,5.49,3.27,9.94,7.31,9.94s7.3-4.45,7.3-9.94Z"/><path class="cls-45" d="M623,619.85a7.31,7.31,0,1,0,14.61,0Z"/><path class="cls-45" d="M644.5,651A7.74,7.74,0,1,0,660,651Z"/><path class="cls-45" d="M617.86,722.48c0,4.42,2.89,8,6.45,8s6.44-3.57,6.44-8Z"/><path class="cls-45" d="M686.58,728.69c0,3.63,3.46,6.58,7.74,6.58s7.75-2.95,7.75-6.58Z"/><path class="cls-45" d="M594.66,760.58a6,6,0,1,0,12,0Z"/><path class="cls-45" d="M652.24,746.15a6,6,0,1,0,12,0Z"/><path class="cls-45" d="M702.07,835.75c0,5.48,3.27,9.91,7.31,9.91s7.3-4.43,7.3-9.91Z"/><path class="cls-45" d="M654.81,824a6.88,6.88,0,1,0,13.75,0Z"/><path class="cls-45" d="M615.29,837.55a7.74,7.74,0,1,0,15.46,0Z"/><path class="cls-45" d="M668.56,866.4c0,5.48,3.27,9.91,7.31,9.91s7.3-4.43,7.3-9.91Z"/><path class="cls-45" d="M726.13,868.8a6.45,6.45,0,1,0,12.89,0Z"/></g><g id="Layer_4" data-name="Layer 4"><circle class="cls-30" cx="1365" cy="747" r="3"/><circle class="cls-30" cx="1341" cy="873" r="3"/></g></svg>