<svg xmlns="http://www.w3.org/2000/svg" width="333.92" height="256.99" viewBox="0 0 333.92 256.99"><defs><style>.cls-1{fill:#ea591f;}.cls-2{fill:#eb5e28;}.cls-3{fill:#ee7444;}.cls-4{fill:#ec6632;}.cls-5{fill:#ef8257;}.cls-6{opacity:0.9;}.cls-7{fill:#442518;}.cls-8{opacity:0.4;}.cls-9{fill:#fff;}</style></defs><title>try_again_button</title><g id="final"><path class="cls-1" d="M329.33,128c0,53.33-45.55,98.65-109,115.16a206.19,206.19,0,0,1-34.87,5.93q-6.28.52-12.71.68c-1.8.05-3.61.08-5.42.08-2.08,0-4.16,0-6.23-.11C74.56,247.33,5.39,193.76,5.39,128,5.39,63.86,71.34,11.27,155,6.55q6.11-.36,12.32-.36a215.65,215.65,0,0,1,24.17,1.35c1,.11,2,.23,3,.36a199.85,199.85,0,0,1,43,10.28C291.82,37.84,329.33,79.64,329.33,128Z"/><path class="cls-2" d="M276.57,122.09c0,48-21.66,91.09-56.21,121.11a206.19,206.19,0,0,1-34.87,5.93q-6.28.52-12.71.68c-1.8.05-3.61.08-5.42.08-2.08,0-4.16,0-6.23-.11C74.56,247.33,5.39,193.76,5.39,128,5.39,63.86,71.34,11.27,155,6.55q6.11-.36,12.32-.36a215.65,215.65,0,0,1,24.17,1.35c1,.11,2,.23,3,.36a199.85,199.85,0,0,1,43,10.28C261.92,46.49,276.57,82.66,276.57,122.09Z"/><path class="cls-3" d="M226.05,115.41c0,53.3-20.55,101.24-53.27,134.4-1.8.05-3.61.08-5.42.08-2.08,0-4.16,0-6.23-.11C74.56,247.33,5.39,193.76,5.39,128,5.39,63.86,71.34,11.27,155,6.55q6.11-.36,12.32-.36a215.65,215.65,0,0,1,24.17,1.35c1,.11,2,.23,3,.36q1.49,2.25,2.91,4.58h0C215.49,41.72,226.05,77.19,226.05,115.41Z"/><path class="cls-4" d="M232,126.55c0,60-19.9,110.11-46.51,122.58q-6.28.52-12.71.68c-1.8.05-3.61.08-5.42.08-2.08,0-4.16,0-6.23-.11-27.36-11.25-48-62.14-48-123.23,0-56.46,17.64-104.21,41.92-120l36.49,1a48.21,48.21,0,0,1,5.89,4.94h0C217.83,32.37,232,76,232,126.55Z"/><path class="cls-5" d="M78.91,230.12C34.63,208.38,5.39,170.77,5.39,128c0-38.15,23.3-72.19,59.76-94.52a204.65,204.65,0,0,0-18.42,70.31C42.83,151.86,55.44,196.63,78.91,230.12Z"/><g class="cls-6"><path class="cls-7" d="M142.22,50c2.56,0,4,.26,4.42.77s-.61,2.69-3,6.33c-2.68,4.29-4.09,6.62-4.22,7a2.5,2.5,0,0,0,.29,2.78l.57.67h.48v-.19c.52-.32.77-.67.77-1.06h-1.44a6.4,6.4,0,0,1-.19-.76c0-.07-.06-.16-.19-.29h.19a2.05,2.05,0,0,1,1.92-1q2.11,0,1.92,2c-.19,1.67-1.28,2.5-3.26,2.5a2.62,2.62,0,0,1-1.92-.67,3.65,3.65,0,0,1-1.35-2.69,7.89,7.89,0,0,1,1.44-3.84,36.94,36.94,0,0,0,2-3.45l-7.68.19h-.19c-.06.45-.13,1.25-.19,2.4a15.88,15.88,0,0,0-.19,2.21c.06.89.16,2.23.29,4-.13,1.8-.16,4.51-.1,8.16q.09,9.21.67,24.75.28,3.36-6.62,10.27h-.19a45,45,0,0,1-.86-10.94q0,.09-.2-11.9,0-2.77-.19-6.33.11-3,0-11.13c-.13-7-.4-10.73-.81-11.08s-1.65-.56-3.7-.62q-2.1,0-5.85.09l-4.31.1c0-.38.06-.58.19-.58,1.28-3.64,2-5.46,2.3-5.46a3,3,0,0,1,2.3-.68q6.52-.18,14.87-.57l3.94-.38c2.36-.2,3.8-.29,4.31-.29Z"/><path class="cls-7" d="M182.13,100.43v.19Q175.7,108,173.3,108a1.45,1.45,0,0,1-1.24-.67,16.32,16.32,0,0,1-1.25-3.93q-.76-3-1.34-5.76c-.39-2.75-.8-5.5-1.25-8.25q-1.25-6-3.55-5.94A2.71,2.71,0,0,0,162,84.79c-.32.57-.28,2.59.1,6q.39,6.53.48,9.79c.19.7.35,1.41.48,2.11a3.81,3.81,0,0,1-.1,2,4.21,4.21,0,0,1-1.24.58c-.71.19-1.25.32-1.63.38l-3.84-.19c-2.18-.26-3.26-.89-3.26-1.92a8.2,8.2,0,0,0,1.82-3.84c.38-4.09.58-7.19.58-9.3q.09-5.65-.39-15.83-.09-5.18,0-7.77-.57-8.16-1-14.3c-.19-2.43-.38-3.64-.57-3.64a4.88,4.88,0,0,0-2.88-.1c-1.22.19-1.92.67-2.11,1.44a2.86,2.86,0,0,0,.09,1.25,8.43,8.43,0,0,1,.2,1.25,2.62,2.62,0,0,0,1.05,0c.51-.1.8-.15.86-.15v-.48a2.09,2.09,0,0,1-.86-1.43H150v-.2c1.67.26,2.5,1,2.5,2.11,0,1.41-1,2.12-3.07,2.12a2.87,2.87,0,0,1-1.63-.39c-.9-.64-1.35-1.82-1.35-3.55q0-3.73,4.61-3.74a18.47,18.47,0,0,1,3.84-.86,34.84,34.84,0,0,1,5.94.67,30.21,30.21,0,0,0,6.62.38c4-.51,5.82-.77,5.57-.77q2.68.2,3.93,5.38.48,3,1,5.85c.38,3.84.58,5.82.58,6a12.81,12.81,0,0,1-1.44,6,22.12,22.12,0,0,1-3.27,5.18c-1.08,1-1.95,1.79-2.59,2.3a2.15,2.15,0,0,0,.48,1.63,13.44,13.44,0,0,0,.87,1.44c.76,3,1.34,5.25,1.72,6.72q1.55,4.13,2.4,6.14,1.07,3.08,1.54,4.51a19.88,19.88,0,0,0,3.07,2.3C182,100.23,182.26,100.43,182.13,100.43ZM170.91,60a12.86,12.86,0,0,0,.28-3.26,8.13,8.13,0,0,0-.85-3.6A6,6,0,0,0,167,50.83a40.83,40.83,0,0,0-4.18-1.06c-.13,2.18-.19,3.81-.19,4.9l-.67,4.7V63.2c-.25,2.37-.47,4.13-.67,5.28,0,.77,0,1.76.1,3,.13,1.48.19,2.4.19,2.79l-.29,8.53h.58v-.19a18.5,18.5,0,0,0,4.46-3.4,13.08,13.08,0,0,0,3.31-4.37,23.88,23.88,0,0,0,.38-3.55q.28-2.3.39-3.45c.06-2.94.09-4.48.09-4.61A22.79,22.79,0,0,1,170.91,60Z"/><path class="cls-7" d="M202.47,45.55c3.45.19,5.15,1.79,5.08,4.8l-.86,3.26c-.58,1.41-1.31,3.29-2.21,5.66q-1.33,3.16-3.83,9.69c-.32,1-.8,2.37-1.44,4.22l-.1,5.95c.13.57.23,6.27.29,17.07a18.45,18.45,0,0,1-1.25,6.82,31.26,31.26,0,0,1-3.69,5q-3.12,3.75-5.13,3.75h.19a56.39,56.39,0,0,0,2.11-6.07l.48-4.13a64.83,64.83,0,0,1-.39-8.28c0-.57-.06-2.24-.19-5-.13-3.08-.19-4.84-.19-5.29V78.26a13.92,13.92,0,0,0-.58-4.52l-1.15-2.6-1.63-5-2.39-5.78c-.39-1.41-1-3.49-1.73-6.25l-1.35-3.27a10.37,10.37,0,0,1-.95-3.47h.19a6.88,6.88,0,0,1,2.4-.28c3.13,0,5,.44,5.75,1.34a4.28,4.28,0,0,1,.19,2.78,18.56,18.56,0,0,0-.09,3.07q2.49,10,6.81,16a3.53,3.53,0,0,1,.77,1.44h.19v-.29q2.78-6.9,5-12.28A31.32,31.32,0,0,0,204.87,53a6.12,6.12,0,0,1,.33-1.44,5.6,5.6,0,0,0,.34-1.63c0-1.53-.88-2.3-2.63-2.3a3.83,3.83,0,0,0-2.39.87,2.56,2.56,0,0,0-1.12,2.11c0,1.15.4,1.72,1.2,1.72s1.29-.41,1.29-1.24c-.32.06-.73.12-1.24.19-.2-.83-.26-1.25-.2-1.25a1.81,1.81,0,0,1,1.21-.38c1.05,0,1.54.48,1.48,1.44-.13,2-1,3-2.78,3a2.55,2.55,0,0,1-1.82-.72,2.92,2.92,0,0,1-.77-2.25A5.26,5.26,0,0,1,199,47.37a4.33,4.33,0,0,1,3.43-1.63Z"/></g><path class="cls-7" d="M109.05,183.92a2.12,2.12,0,0,1,.77,1.34c-.13.45-.23.8-.29,1.06a8.79,8.79,0,0,0-1.39.14,7.65,7.65,0,0,1-1.1.15l-2.79-.1a16.42,16.42,0,0,1-1.91.34,18.58,18.58,0,0,1-2.5.24,2.58,2.58,0,0,1-1.82-.48,9,9,0,0,1,0-3.74q-.1-.76-1.15-4.85a23.77,23.77,0,0,0-1.25-4.17,3,3,0,0,0-1.15-.19A30.57,30.57,0,0,0,88.71,175c-2.62.77-4.24,1.46-4.84,2.06a5.29,5.29,0,0,0-1.3,2.64c-.13.9-.28,1.82-.48,2.78-.64,3.65-1,5.5-1,5.57,0,2.75,1,4.47,2.88,5.18a.93.93,0,0,1,.34.29.78.78,0,0,1,.14.48H84.2v.19c-2.36-.26-3.55-.9-3.55-1.92h-.47v5.56h-.39a35.45,35.45,0,0,1-1-3.83,5.73,5.73,0,0,1,0-1.44c.06-.71.1-1.15.1-1.35q-.48-.19-.48,0a10,10,0,0,1-2.5,1.15l-1.34-.28v-.2a5,5,0,0,0,2.78-1.72,26.62,26.62,0,0,0,2-5.28c1-4.35,1.66-7.35,1.92-9l.57-3.35h-.19L77,175a9.71,9.71,0,0,0-.86-1.92l6.42-2.78c.45-4.48.83-7.8,1.15-10q1.35-13.71,1.83-23.79c0-.25.12-1.47.38-3.65.19-2,.29-3.51.29-4.6a5.11,5.11,0,0,0-.48-2.69c-.32-.44-1.34-.67-3.07-.67-3.52,0-5.47.55-5.85,1.63a3.61,3.61,0,0,0-.19,1.16,2.67,2.67,0,0,0,.76,1.87,2.33,2.33,0,0,0,1.73.81c.83,0,1.25-.51,1.25-1.53l-1.3-.15c-.29,0-.4-.37-.33-1s.19-1,.38-1v.19c2-.26,3,.48,3,2.2a3.26,3.26,0,0,1-.91,2.26,3,3,0,0,1-2.35,1,3.55,3.55,0,0,1-3-1.49,5.68,5.68,0,0,1-1.1-3.5q0-3.94,3.16-3.94c1-.06,1.66-.12,2.11-.19a17,17,0,0,1,4.7-.19,38.29,38.29,0,0,1,4.42.82c2.43.43,3.77.76,4,1a6.92,6.92,0,0,1,1.05,3.17c.19,1.22.38,2.41.58,3.56,1,4.35,1.72,7.27,2.11,8.74q2.2,8.94,3.16,13.45,3,9.71,4.51,14.61,2.4,9.42,3.55,14.22C108.15,182.73,108.47,183.15,109.05,183.92ZM95.14,170.59c0-.83-.58-1.35-1.73-1.54a27.47,27.47,0,0,1-2.78.77c-2.17.77-3.84,1.34-5,1.73a4.37,4.37,0,0,0-1.44.67,3.82,3.82,0,0,0-.86,2.78h1.15q7.1-3,9.31-3a6.46,6.46,0,0,0,1-.77A.93.93,0,0,0,95.14,170.59Zm-10.65-.67h.58q7.38-2.59,9.21-2.59a10.52,10.52,0,0,0-.58-3.17q-1.15-5.08-1.53-6.81-1.74-9.49-2.5-14.3a64.73,64.73,0,0,0-2-8.92q-.87,14.2-1.35,21.3Q85.17,165.12,84.49,169.92Z"/><path class="cls-7" d="M142.05,191.41a5.51,5.51,0,0,1-.33,2.68c-.29.51-.53.77-.72.77-.39,0-1.28-1.44-2.69-4.32s-2.75-4.47-4-4.79a2.78,2.78,0,0,0-1.44.28c-.64.26-1.05.42-1.25.48a67.55,67.55,0,0,1-6.81.48,13.51,13.51,0,0,1-6.9-1.44,26.87,26.87,0,0,1-3.17-4,33.91,33.91,0,0,1-3.45-7.67c-.45-1.47-.8-2.56-1.06-3.26q-.2-7.49-.09-12.76a48,48,0,0,0,.67-7.2q2.2-10.17,3.55-15.15a12.76,12.76,0,0,1,8.82-7.68c.19-.06,1.76-.09,4.7-.09a27,27,0,0,1,5.47.28c1.22.19,2.43.42,3.65.67q2.49.68,2.4,1.92a11.14,11.14,0,0,1-2.31,3.65l-.76,2.11a2.67,2.67,0,0,1-1.44,1.63,2.18,2.18,0,0,1-1.87-.38l-2.07-1.25a7.84,7.84,0,0,0-4.79-1,1.63,1.63,0,0,0-1.44,1.25q-.39,3.74-.39,5.66-.18,3,.29,16.79.09,3.73.58,12.18.38,6.13.48,6.81a35.12,35.12,0,0,0,.09,3.55c0,.64,0,1,.1,1q2.21,2,3.84,1.82c.06,0,.6-.13,1.63-.38a2.06,2.06,0,0,0,1.24-.77,4.46,4.46,0,0,0,.39-2.78c-.19-1.73-.29-2.69-.29-2.88q.67-12.28.67-16.12c-2.3,0-3.61,0-3.93.1a2,2,0,0,0-1.92,2.4c.13,1,.58,1.53,1.34,1.53V164c.45-.13.67-.26.67-.39a2,2,0,0,1,1,1.83q0,1.53-1.92,1.53a2.76,2.76,0,0,1-2.63-1.25,4.3,4.3,0,0,1-.43-3c.19-1.85,1.3-2.94,3.35-3.26h5.57c2-.06,3.61-.1,4.7-.1v-.28c2-.07,3,.32,3,1.15a10.57,10.57,0,0,0-1.15,5c.13,1.8.22,3.59.29,5.38l-.19,3.83q.48,4.23.76,6.24c0-.13,0,1.06-.09,3.55a10.43,10.43,0,0,0,0,2.11,19.56,19.56,0,0,1,.19,2.21A17.42,17.42,0,0,1,142.05,191.41Zm-24.46-38a6,6,0,0,0,2.68.57c.83-.25,1.48-.45,1.92-.57a22,22,0,0,0,.29-5.19c0-.19.13-1.27.38-3.26a37.21,37.21,0,0,0,.29-4.12,5.58,5.58,0,0,0-.67-3.26c-.83,1-1.44,1.76-1.82,2.2a48.24,48.24,0,0,0-1.54,5,41.25,41.25,0,0,0-1.53,6.43C117.33,152.68,117.33,153.42,117.59,153.42Zm5,3.64c0-.83-.55-1.44-1.63-1.82a11.45,11.45,0,0,1-3.36.29,3.91,3.91,0,0,0,.43,2.15c.29.42,1,.63,2.06.63a9,9,0,0,1,2.11-.29A1.52,1.52,0,0,0,122.58,157.06Zm1.24,21.78c-.06-.9-.16-1.79-.28-2.69v-4.22c-.26-2.88-.48-5-.68-6.43,0-.19.07-1.05.2-2.59a6.49,6.49,0,0,0-.2-2.4,1.38,1.38,0,0,0-1-.72c-.51-.09-1-.17-1.54-.24a13.53,13.53,0,0,0-2.49.39h-.19a39.65,39.65,0,0,0,1.34,10.46c.51,1.53.9,2.68,1.15,3.45l.48,2.69,1.25,2.78,1,1.05c.45.45.68.8.68,1.06h.19A6.78,6.78,0,0,0,123.82,178.84Z"/><path class="cls-7" d="M146,126.94a7.6,7.6,0,0,1,2.21.48,7.76,7.76,0,0,0,2.3.48,5.78,5.78,0,0,1,2.69,0l3.07.28h2.49a1.23,1.23,0,0,1,.87.68,3.65,3.65,0,0,1,0,1.63c-.13.57-.26,1.12-.39,1.63q-.19,7.68-.38,17.07-.48,12.38-.38,15.74a55.27,55.27,0,0,1,.09,5.56q-.28,13.33-.19,14a3.71,3.71,0,0,1-.19,2l-2,3a46.11,46.11,0,0,1-3.69,6.81l-.67.57a1.69,1.69,0,0,1-.94-1,2.51,2.51,0,0,1,0-1.72c.2-1,.3-1.51.3-1.63a26.74,26.74,0,0,0,.08-6.72q0-2-.19-6.23c0-.64-.07-1.64-.19-3q.09-4.12,0-12.57a89,89,0,0,1-.67-12.32c0-5.15,0-7.57-.1-7.25.06-.64,0-3.07-.29-7.29v-7.38l-2.81-.39c-1,.26-1.51,1.22-1.51,2.88,0,.9.32,1.34,1,1.34.07-.32.2-.77.39-1.34H147a9,9,0,0,1,1.05,1.34c.13,1.28-.57,1.92-2.11,1.92a2.28,2.28,0,0,1-1.82-.68,3.19,3.19,0,0,1-.86-2.33A6.65,6.65,0,0,1,146,126.94Z"/><path class="cls-7" d="M196,183.92a2.09,2.09,0,0,1,.76,1.34c-.13.45-.22.8-.29,1.06a8.9,8.9,0,0,0-1.39.14,7.47,7.47,0,0,1-1.1.15l-2.78-.1a16.34,16.34,0,0,1-1.92.34,18.61,18.61,0,0,1-2.49.24,2.61,2.61,0,0,1-1.83-.48,9.3,9.3,0,0,1,0-3.74c-.06-.51-.45-2.13-1.15-4.85a22.74,22.74,0,0,0-1.25-4.17,3,3,0,0,0-1.15-.19,30.71,30.71,0,0,0-5.75,1.34c-2.63.77-4.24,1.46-4.85,2.06a5.21,5.21,0,0,0-1.29,2.64c-.13.9-.29,1.82-.48,2.78-.64,3.65-1,5.5-1,5.57,0,2.75,1,4.47,2.88,5.18a.9.9,0,0,1,.33.29.73.73,0,0,1,.15.48h-.29v.19c-2.37-.26-3.55-.9-3.55-1.92h-.48v5.56h-.38a32.84,32.84,0,0,1-1-3.83,4.92,4.92,0,0,1,0-1.44c.06-.71.09-1.15.09-1.35q-.48-.19-.48,0a10.17,10.17,0,0,1-2.49,1.15l-1.35-.28v-.2a5,5,0,0,0,2.79-1.72,27.09,27.09,0,0,0,2-5.28c1-4.35,1.66-7.35,1.92-9l.58-3.35h-.2l-4.7,2.49a8.93,8.93,0,0,0-.86-1.92l6.43-2.78c.44-4.48.83-7.8,1.15-10q1.34-13.71,1.82-23.79c0-.25.13-1.47.38-3.65.2-2,.29-3.51.29-4.6a5.11,5.11,0,0,0-.48-2.69c-.32-.44-1.34-.67-3.07-.67-3.52,0-5.47.55-5.85,1.63a3.61,3.61,0,0,0-.19,1.16,2.63,2.63,0,0,0,.77,1.87,2.31,2.31,0,0,0,1.72.81c.83,0,1.25-.51,1.25-1.53l-1.29-.15c-.29,0-.4-.37-.34-1s.19-1,.38-1v.19c2-.26,3,.48,3,2.2a3.31,3.31,0,0,1-.91,2.26,3,3,0,0,1-2.35,1,3.58,3.58,0,0,1-3-1.49,5.75,5.75,0,0,1-1.1-3.5q0-3.94,3.17-3.94c1-.06,1.66-.12,2.11-.19a17,17,0,0,1,4.7-.19,37.86,37.86,0,0,1,4.41.82c2.43.43,3.77.76,4,1a6.8,6.8,0,0,1,1.05,3.17c.2,1.22.39,2.41.58,3.56,1,4.35,1.73,7.27,2.11,8.74q2.21,8.94,3.17,13.45,3,9.71,4.51,14.61,2.39,9.42,3.55,14.22C195.07,182.73,195.39,183.15,196,183.92Zm-13.92-13.33c0-.83-.57-1.35-1.72-1.54-1.22.39-2.15.64-2.78.77-2.18.77-3.84,1.34-5,1.73a4.16,4.16,0,0,0-1.44.67,3.78,3.78,0,0,0-.87,2.78h1.16q7.09-3,9.3-3a7.18,7.18,0,0,0,1.06-.77A.92.92,0,0,0,182.05,170.59Zm-10.64-.67H172c4.93-1.73,8-2.59,9.21-2.59a10.73,10.73,0,0,0-.57-3.17q-1.16-5.08-1.54-6.81-1.72-9.49-2.49-14.3a64.11,64.11,0,0,0-2-8.92q-.85,14.2-1.34,21.3Q172.08,165.12,171.41,169.92Z"/><path class="cls-7" d="M197.69,121.66l1.45.29q1.44.76,9.81,19.65,3.18,8.25,6.83,18.22a44.37,44.37,0,0,1,2.7,6.71c.57,1.21,1.35,3.13,2.31,5.75l2.65,5.29.25,0v-.29q-.87-1.73-2.21-20.24-1.24-17.17-1.24-19.43t-.39-6.95c-.19-.45-.35-.67-.48-.67a3.35,3.35,0,0,0,.19-1.06c0-1-.7-1.8-2.11-2.35a11.93,11.93,0,0,1-2.11-.91h.29a2.1,2.1,0,0,1,1.15-.38,4.68,4.68,0,0,1,1.82.52,4.61,4.61,0,0,0,1.73.53h.19a6.74,6.74,0,0,1,.2-2c.06-.07.24-.27.52-.61a1.55,1.55,0,0,0,.44-.72h.67c0,1.79.32,2.69,1,2.69a8.86,8.86,0,0,0,.91-.19,6.39,6.39,0,0,1,1.48-.19,5.56,5.56,0,0,1,1,.38,2.63,2.63,0,0,0,1,.29v.38c-2.62,0-4.25.71-4.89,2.11a6.74,6.74,0,0,0-.68,2.59,18.15,18.15,0,0,0,0,2.59c.13,1.28.2,2.21.2,2.78q-.1,1.55.67,12.28.76,11.32,1.24,15c.07,2.94.29,6.52.68,10.74l1.05,6.05a16.41,16.41,0,0,1-.29,3.74c-.32,1.79-.76,2.85-1.34,3.17a1.68,1.68,0,0,1-2-.2,24.15,24.15,0,0,1-2.4-3.93l-9.69-19.38q-2.79-6.23-6.81-15.73l-3.07-5.85a1.11,1.11,0,0,0-.67-.67,13.87,13.87,0,0,1,.28,4.6v4.7q.39,5.76.87,17.08,0,4.41.76,13.14a5.46,5.46,0,0,0,1.25,2c.7.8,1.31,1.2,1.82,1.2v.19h-.28a4.46,4.46,0,0,1-2.21.29c-.45,0-.67,1-.67,3.07h-.19a2.4,2.4,0,0,1-1.15-1.35,2.66,2.66,0,0,0-.82-1.24,2.55,2.55,0,0,0-1.78,0c-1.15.25-1.78.38-1.91.38v-.29H196v-.19a4.62,4.62,0,0,0,3-2.78,7.54,7.54,0,0,0,.29-3.36l-.39-3.45v-6.53c-.13-2-.25-5.08-.38-9.11q.09-5.48-.29-16.31a174.39,174.39,0,0,1-.77-17.75A15.06,15.06,0,0,1,197.69,121.66Z"/><path class="cls-7" d="M249.78,177.45a3.62,3.62,0,0,1,1.25,2.64,3.3,3.3,0,0,1-.91,2.25,2.75,2.75,0,0,1-2.06,1c-1.92,0-2.85-.83-2.79-2.5.07-1,.93-1.53,2.59-1.53a4.68,4.68,0,0,0,.29.72.61.61,0,0,1,.1.33h-.19c-1.22.71-1.57,1.06-1.06,1.06a1.42,1.42,0,0,0,.86.29c1,0,1.44-.71,1.44-2.11,0-1.22-.57-1.83-1.72-1.83a4.25,4.25,0,0,0-2.4.77,3.67,3.67,0,0,0-1.54,3.26,5.61,5.61,0,0,0,1.06,3.26,3,3,0,0,0,2.49,1.54c.13-.32.29-.77.48-1.34h.19v.19h.2c.32.89.38,1.34.19,1.34-.13.38-.26.58-.39.58a5.24,5.24,0,0,1-3.88-1.61,6.6,6.6,0,0,1-1.87-4,4.82,4.82,0,0,1,.09-2.34,4.7,4.7,0,0,1,2.88-2.63l1.44-.64a.69.69,0,0,1,.29,0A4.55,4.55,0,0,1,249.78,177.45Zm-1.44-51.38c.9.13,1.44.45,1.63,1a19.61,19.61,0,0,1,.1,4.22q-.09,1.16.38,15.93.59,15.54.58,20.24a11.57,11.57,0,0,1-.19,2.93,11.51,11.51,0,0,1-2.8,2.11,13.16,13.16,0,0,1-3.27,1.77,1.13,1.13,0,0,1-1-.28c-.31-.26-.5-.37-.57-.34a18.69,18.69,0,0,1-.28-3q0-1.64.29-11.51,0-1.54-.29-14-.28-9.8.48-12.95c.13-.58,1-1.7,2.54-3.36A19.15,19.15,0,0,0,248.34,126.07Z"/><g class="cls-8"><path class="cls-9" d="M80.4,44.61C79.54,42.82,75,42.53,70.22,44L57.89,47.71A36.51,36.51,0,0,0,43.4,57.14l-4.32,5A38.28,38.28,0,0,0,31.7,77.86L29.32,91.78c-.83,4.88,1.25,9.1,4.62,9.37s6.66-3.52,7.31-8.43l.82-6.17a35.58,35.58,0,0,1,7-15.74l4.33-5A52.48,52.48,0,0,1,67.4,55l6.48-3.18C78.33,49.65,81.26,46.4,80.4,44.61Z"/></g></g></svg>
