<svg id="Layer_2" data-name="Layer 2" xmlns="http://www.w3.org/2000/svg" width="330" height="245" viewBox="0 0 330 245"><defs><style>.cls-1{fill:#ea591f;}.cls-2{fill:#eb5e28;}.cls-3{fill:#ee7444;}.cls-4{fill:#ec6632;}.cls-5{fill:#ef8257;}.cls-6{opacity:0.9;}.cls-7{fill:#442518;}.cls-8{opacity:0.4;}.cls-9{fill:#fff;}</style></defs><title>try_agian_button</title><path class="cls-1" d="M329,122.35c0,53.33-45.54,98.65-109,115.16a206.48,206.48,0,0,1-34.88,5.93q-6.28.52-12.7.68c-1.8,0-3.62.08-5.43.08-2.08,0-4.16,0-6.22-.11-86.58-2.45-155.75-56-155.75-121.74C5.05,58.17,71,5.58,154.7.86Q160.82.5,167,.5A215.69,215.69,0,0,1,191.2,1.85c1,.11,2,.23,3,.36a199.8,199.8,0,0,1,43,10.28C291.49,32.15,329,74,329,122.35Z"/><path class="cls-2" d="M276.24,116.4c0,48-21.67,91.09-56.21,121.11a206.48,206.48,0,0,1-34.88,5.93q-6.28.52-12.7.68c-1.8,0-3.62.08-5.43.08-2.08,0-4.16,0-6.22-.11-86.58-2.45-155.75-56-155.75-121.74C5.05,58.17,71,5.58,154.7.86Q160.82.5,167,.5A215.69,215.69,0,0,1,191.2,1.85c1,.11,2,.23,3,.36a199.8,199.8,0,0,1,43,10.28C261.59,40.8,276.24,77,276.24,116.4Z"/><path class="cls-3" d="M225.72,109.72c0,53.3-20.55,101.23-53.27,134.4-1.8,0-3.62.08-5.43.08-2.08,0-4.16,0-6.22-.11-86.58-2.45-155.75-56-155.75-121.74C5.05,58.17,71,5.58,154.7.86Q160.82.5,167,.5A215.69,215.69,0,0,1,191.2,1.85c1,.11,2,.23,3,.36,1,1.5,2,3,2.91,4.58h0C215.15,36,225.72,71.5,225.72,109.72Z"/><path class="cls-4" d="M231.66,120.86c0,60-19.9,110.11-46.51,122.58q-6.28.52-12.7.68c-1.8,0-3.62.08-5.43.08-2.08,0-4.16,0-6.22-.11-27.36-11.25-48-62.14-48-123.23,0-56.46,17.64-104.21,41.92-120l36.5,1a47.4,47.4,0,0,1,5.88,4.94h0C217.5,26.68,231.66,70.28,231.66,120.86Z"/><path class="cls-5" d="M78.58,224.43C34.3,202.69,5.05,165.08,5.05,122.35c0-38.15,23.3-72.19,59.77-94.52A204.66,204.66,0,0,0,46.39,98.14C42.5,146.17,55.1,190.94,78.58,224.43Z"/><g class="cls-6"><path class="cls-7" d="M141.89,44.27c2.56,0,4,.26,4.41.77s-.61,2.69-3,6.33c-2.69,4.29-4.1,6.62-4.22,7a2.5,2.5,0,0,0,.28,2.78l.58.67h.48v-.19c.51-.32.77-.67.77-1.06h-1.44a4.9,4.9,0,0,1-.19-.76c0-.07-.07-.16-.2-.29h.2a2,2,0,0,1,1.91-1q2.12,0,1.92,2c-.19,1.67-1.28,2.5-3.26,2.5a2.64,2.64,0,0,1-1.92-.67,3.67,3.67,0,0,1-1.34-2.69,7.79,7.79,0,0,1,1.44-3.84,38.33,38.33,0,0,0,2-3.45l-7.67.19h-.19c-.07.45-.13,1.25-.2,2.4a17.61,17.61,0,0,0-.19,2.2c.07.9.16,2.24.29,4q-.19,2.69-.1,8.16.11,9.21.68,24.75.28,3.36-6.62,10.26h-.19a45.23,45.23,0,0,1-.87-10.93q0,.09-.19-11.9,0-2.78-.19-6.33.09-3,0-11.13c-.13-7-.4-10.73-.82-11.08s-1.64-.56-3.69-.62q-2.12,0-5.85.09l-4.32.1c0-.38.06-.58.19-.58q1.92-5.46,2.3-5.46A3,3,0,0,1,115,45.9c4.35-.12,9.3-.32,14.87-.57l3.93-.38c2.37-.2,3.8-.29,4.32-.29Z"/><path class="cls-7" d="M181.8,94.74v.19q-6.44,7.38-8.83,7.38a1.47,1.47,0,0,1-1.25-.67,16.21,16.21,0,0,1-1.24-3.93c-.52-2-1-3.9-1.35-5.76q-.57-4.12-1.25-8.25-1.24-6-3.54-6a2.71,2.71,0,0,0-2.69,1.35c-.32.57-.29,2.59.1,6q.38,6.52.48,9.79c.19.7.35,1.4.48,2.11a4,4,0,0,1-.1,2,4.24,4.24,0,0,1-1.25.58c-.7.19-1.25.32-1.63.38l-3.84-.19c-2.17-.26-3.26-.9-3.26-1.92a8.2,8.2,0,0,0,1.82-3.84q.59-6.14.58-9.3.09-5.66-.38-15.83c-.07-3.45-.07-6.05,0-7.77q-.59-8.16-1-14.3c-.19-2.43-.39-3.64-.58-3.64a4.87,4.87,0,0,0-2.88-.1c-1.21.19-1.92.67-2.11,1.44a2.87,2.87,0,0,0,.1,1.25,7.93,7.93,0,0,1,.19,1.25,2.67,2.67,0,0,0,1.06-.05c.51-.1.79-.15.86-.15v-.48a2.05,2.05,0,0,1-.86-1.43h.19v-.2c1.66.26,2.49,1,2.49,2.11,0,1.41-1,2.11-3.07,2.11a2.89,2.89,0,0,1-1.63-.38c-.9-.64-1.34-1.82-1.34-3.55q0-3.74,4.6-3.74a18.61,18.61,0,0,1,3.84-.86,35,35,0,0,1,5.95.67,30.17,30.17,0,0,0,6.62.38c4-.51,5.82-.77,5.56-.77q2.69.2,3.94,5.38.47,3,.95,5.85.59,5.76.58,5.95a12.57,12.57,0,0,1-1.44,6,22.65,22.65,0,0,1-3.26,5.18c-1.09,1-1.95,1.79-2.59,2.3a2.06,2.06,0,0,0,.48,1.63c.51.9.8,1.38.86,1.44.77,3,1.34,5.25,1.73,6.72,1,2.75,1.82,4.79,2.4,6.14q1,3.08,1.53,4.51a20.9,20.9,0,0,0,3.07,2.3C181.64,94.54,181.92,94.74,181.8,94.74ZM170.57,54.35a13,13,0,0,0,.29-3.27,8.11,8.11,0,0,0-.86-3.59,5.94,5.94,0,0,0-3.32-2.35,40.14,40.14,0,0,0-4.18-1.06c-.12,2.18-.19,3.81-.19,4.89l-.66,4.7v3.84c-.26,2.37-.48,4.13-.67,5.28q0,1.16.09,3c.13,1.48.2,2.4.2,2.78L161,77.08h.57v-.19a18.31,18.31,0,0,0,4.46-3.4,13,13,0,0,0,3.31-4.37,22.86,22.86,0,0,0,.39-3.55c.19-1.53.32-2.69.38-3.45.06-2.94.1-4.48.1-4.61A24,24,0,0,1,170.57,54.35Z"/><path class="cls-7" d="M202.13,39.86c3.46.19,5.15,1.79,5.09,4.8l-.86,3.26c-.58,1.41-1.32,3.29-2.21,5.66q-1.35,3.16-3.84,9.69c-.32,1-.8,2.37-1.44,4.22l-.09,6c.12.57.22,6.27.28,17.07a18.49,18.49,0,0,1-1.24,6.82,32.28,32.28,0,0,1-3.7,5q-3.12,3.75-5.13,3.75h.19a54.24,54.24,0,0,0,2.11-6.07l.48-4.13a67.19,67.19,0,0,1-.38-8.28c0-.58-.06-2.24-.19-5-.13-3.08-.19-4.84-.19-5.29V72.57a14.21,14.21,0,0,0-.58-4.52l-1.15-2.6-1.63-5-2.4-5.78q-.57-2.12-1.73-6.25l-1.34-3.27a10.2,10.2,0,0,1-1-3.47h.19a7,7,0,0,1,2.4-.28c3.13,0,5.05.44,5.76,1.34a4.35,4.35,0,0,1,.19,2.78,19,19,0,0,0-.1,3.07q2.51,10,6.81,16a3.4,3.4,0,0,1,.77,1.44h.19v-.29q2.79-6.9,5-12.28a30.64,30.64,0,0,0,2.11-6.14,5.8,5.8,0,0,1,.34-1.44,5.87,5.87,0,0,0,.33-1.63c0-1.53-.87-2.3-2.63-2.3a3.9,3.9,0,0,0-2.39.86A2.61,2.61,0,0,0,199.06,45c0,1.15.4,1.72,1.2,1.72s1.3-.41,1.3-1.25c-.32.07-.74.13-1.25.2-.19-.83-.26-1.25-.19-1.25a1.8,1.8,0,0,1,1.2-.38c1.06,0,1.55.48,1.49,1.43-.13,2-1.06,3-2.79,3a2.57,2.57,0,0,1-1.82-.72,3,3,0,0,1-.77-2.26,5.26,5.26,0,0,1,1.28-3.74,4.3,4.3,0,0,1,3.42-1.63Z"/></g><path class="cls-7" d="M108.72,178.23a2.09,2.09,0,0,1,.76,1.34c-.13.45-.22.8-.28,1.06a8.9,8.9,0,0,0-1.4.14,7.47,7.47,0,0,1-1.1.15l-2.78-.1a16.34,16.34,0,0,1-1.92.34,18.61,18.61,0,0,1-2.49.24,2.61,2.61,0,0,1-1.83-.48,9.3,9.3,0,0,1,0-3.74q-.09-.77-1.15-4.85a24.42,24.42,0,0,0-1.24-4.17,3.13,3.13,0,0,0-1.16-.19,30.71,30.71,0,0,0-5.75,1.34c-2.63.77-4.24,1.46-4.85,2.06A5.21,5.21,0,0,0,82.24,174c-.13.9-.29,1.82-.48,2.78-.64,3.65-1,5.5-1,5.57,0,2.75,1,4.47,2.88,5.18a.9.9,0,0,1,.33.29.72.72,0,0,1,.15.47h-.29v.2c-2.37-.26-3.55-.9-3.55-1.92h-.48v5.56h-.38a34.67,34.67,0,0,1-1-3.84,4.85,4.85,0,0,1,0-1.43q.09-1.06.09-1.35-.48-.2-.48,0a10,10,0,0,1-2.49,1.15l-1.34-.28v-.2a5,5,0,0,0,2.78-1.72,26.44,26.44,0,0,0,2-5.28c1-4.35,1.66-7.35,1.92-9l.58-3.35h-.2l-4.7,2.49a8.93,8.93,0,0,0-.86-1.92l6.43-2.78c.44-4.48.83-7.8,1.15-10q1.33-13.71,1.82-23.79c0-.26.13-1.47.39-3.65.19-2,.28-3.51.28-4.6a5.11,5.11,0,0,0-.48-2.69c-.32-.44-1.34-.67-3.07-.67-3.51,0-5.46.55-5.85,1.63a3.6,3.6,0,0,0-.19,1.15,2.6,2.6,0,0,0,.77,1.87,2.29,2.29,0,0,0,1.72.82c.83,0,1.25-.51,1.25-1.53L78.74,123c-.29,0-.4-.37-.34-1s.19-1,.38-1v.2c2-.26,3,.48,3,2.2a3.31,3.31,0,0,1-.91,2.26,3,3,0,0,1-2.35,1,3.58,3.58,0,0,1-3-1.48,5.75,5.75,0,0,1-1.1-3.5q0-3.95,3.17-3.94c1-.06,1.66-.12,2.11-.19a17,17,0,0,1,4.7-.19,37.86,37.86,0,0,1,4.41.82c2.43.43,3.77.76,4,1a6.9,6.9,0,0,1,1.06,3.17c.19,1.22.38,2.41.57,3.56,1,4.35,1.73,7.27,2.11,8.74q2.2,8.94,3.17,13.45,3,9.71,4.51,14.61,2.39,9.42,3.55,14.22C107.82,177,108.14,177.46,108.72,178.23ZM94.8,164.9c0-.83-.57-1.35-1.72-1.54-1.22.39-2.15.64-2.78.77-2.18.77-3.84,1.34-5,1.73a4.16,4.16,0,0,0-1.44.67,3.78,3.78,0,0,0-.87,2.78h1.16q7.09-3,9.3-3a6.67,6.67,0,0,0,1.06-.77A.92.92,0,0,0,94.8,164.9Zm-10.64-.67h.57q7.39-2.59,9.21-2.6a10.73,10.73,0,0,0-.57-3.16q-1.16-5.08-1.54-6.81-1.72-9.49-2.49-14.3a64.11,64.11,0,0,0-2-8.92q-.85,14.2-1.34,21.3Q84.82,159.43,84.16,164.23Z"/><path class="cls-7" d="M141.72,185.71a5.39,5.39,0,0,1-.34,2.69c-.29.51-.53.77-.72.77-.38,0-1.28-1.44-2.68-4.32s-2.76-4.47-4-4.8a2.91,2.91,0,0,0-1.44.29c-.64.26-1.06.42-1.25.48a67.55,67.55,0,0,1-6.81.48,13.55,13.55,0,0,1-6.91-1.44,26.71,26.71,0,0,1-3.16-4,33.43,33.43,0,0,1-3.46-7.67c-.45-1.47-.8-2.56-1-3.26q-.2-7.49-.1-12.76a46.73,46.73,0,0,0,.67-7.2q2.2-10.17,3.55-15.15a12.74,12.74,0,0,1,8.83-7.68c.19-.06,1.76-.1,4.7-.1a26.73,26.73,0,0,1,5.47.29c1.21.19,2.43.42,3.64.67q2.49.68,2.4,1.92a11.26,11.26,0,0,1-2.3,3.65c-.26.7-.51,1.41-.77,2.11a2.64,2.64,0,0,1-1.44,1.63,2.19,2.19,0,0,1-1.87-.38l-2.06-1.25a7.81,7.81,0,0,0-4.8-1,1.63,1.63,0,0,0-1.44,1.25q-.37,3.74-.38,5.66-.19,3,.29,16.78.09,3.75.57,12.19.39,6.13.48,6.81a30.74,30.74,0,0,0,.1,3.55q0,1,.09,1,2.2,2,3.84,1.82c.06,0,.61-.13,1.63-.38a2.09,2.09,0,0,0,1.25-.77,4.54,4.54,0,0,0,.38-2.78c-.19-1.73-.28-2.69-.28-2.88q.66-12.28.67-16.12c-2.31,0-3.62,0-3.94.1a2,2,0,0,0-1.92,2.4q.2,1.53,1.35,1.53v-1.53c.44-.13.67-.26.67-.39a2,2,0,0,1,1,1.83q0,1.53-1.92,1.53a2.77,2.77,0,0,1-2.64-1.25,4.36,4.36,0,0,1-.43-3q.28-2.78,3.36-3.26H134c2.05-.06,3.61-.1,4.7-.1v-.29c2-.06,3,.33,3,1.16a10.57,10.57,0,0,0-1.15,5c.12,1.8.22,3.59.28,5.38l-.19,3.83q.48,4.23.77,6.24c0-.13,0,1.06-.1,3.55a12.16,12.16,0,0,0,0,2.11,19.56,19.56,0,0,1,.19,2.21A15,15,0,0,1,141.72,185.71Zm-24.47-38a5.89,5.89,0,0,0,2.69.58l1.92-.58a22.4,22.4,0,0,0,.29-5.18c0-.19.12-1.27.38-3.26a39.86,39.86,0,0,0,.29-4.12,5.67,5.67,0,0,0-.67-3.26c-.84,1-1.44,1.76-1.83,2.2a47.65,47.65,0,0,0-1.53,5,40.2,40.2,0,0,0-1.54,6.43C117,147,117,147.72,117.25,147.72Zm5,3.65c0-.83-.54-1.44-1.63-1.82a11.59,11.59,0,0,1-3.36.28,4,4,0,0,0,.43,2.16q.43.63,2.07.63a9,9,0,0,1,2.11-.29A1.57,1.57,0,0,0,122.24,151.37Zm1.25,21.78c-.07-.9-.16-1.79-.29-2.69v-4.22c-.25-2.88-.48-5-.67-6.43,0-.19.06-1.05.19-2.59a6.74,6.74,0,0,0-.19-2.4,1.39,1.39,0,0,0-1.06-.72q-.77-.14-1.53-.24a13.53,13.53,0,0,0-2.49.39h-.2a39.23,39.23,0,0,0,1.35,10.46l1.15,3.45.48,2.68,1.24,2.79,1.06,1.05c.45.45.67.8.67,1.06h.19A6.76,6.76,0,0,0,123.49,173.15Z"/><path class="cls-7" d="M145.65,121.25a7.67,7.67,0,0,1,2.21.48,7.64,7.64,0,0,0,2.3.48,5.46,5.46,0,0,1,2.68,0l3.07.28h2.5a1.23,1.23,0,0,1,.86.68,3.38,3.38,0,0,1,0,1.63c-.13.57-.25,1.12-.38,1.63-.13,5.11-.26,10.81-.39,17.07q-.48,12.38-.38,15.74a52.22,52.22,0,0,1,.1,5.56q-.3,13.33-.2,14a3.7,3.7,0,0,1-.18,2l-2,3a47.34,47.34,0,0,1-3.7,6.81l-.66.57a1.71,1.71,0,0,1-1-1,2.63,2.63,0,0,1,0-1.72,15.77,15.77,0,0,0,.31-1.63,27.72,27.72,0,0,0,.08-6.72q0-2-.2-6.23c0-.64-.06-1.64-.19-3q.09-4.12,0-12.57a89,89,0,0,1-.67-12.32q0-7.73-.1-7.25c.07-.64,0-3.07-.28-7.29v-7.39c-2-.25-2.88-.38-2.81-.38-1,.26-1.51,1.22-1.51,2.88,0,.9.32,1.34,1,1.34a11.13,11.13,0,0,1,.38-1.34h.19a8.93,8.93,0,0,1,1.06,1.34c.13,1.28-.58,1.92-2.11,1.92a2.26,2.26,0,0,1-1.82-.68,3.15,3.15,0,0,1-.87-2.33A6.66,6.66,0,0,1,145.65,121.25Z"/><path class="cls-7" d="M195.63,178.23a2.12,2.12,0,0,1,.77,1.34c-.13.45-.23.8-.29,1.06a8.79,8.79,0,0,0-1.39.14,7.65,7.65,0,0,1-1.1.15l-2.79-.1a16.34,16.34,0,0,1-1.92.34,18.32,18.32,0,0,1-2.49.24,2.58,2.58,0,0,1-1.82-.48,9,9,0,0,1,0-3.74q-.1-.77-1.15-4.85a23.77,23.77,0,0,0-1.25-4.17,3.08,3.08,0,0,0-1.15-.19,30.57,30.57,0,0,0-5.76,1.34c-2.62.77-4.24,1.46-4.84,2.06a5.29,5.29,0,0,0-1.3,2.64c-.13.9-.29,1.82-.48,2.78-.64,3.65-1,5.5-1,5.57,0,2.75,1,4.47,2.88,5.18a.93.93,0,0,1,.34.29.77.77,0,0,1,.14.47h-.29v.2c-2.36-.26-3.55-.9-3.55-1.92h-.48v5.56h-.38a34.67,34.67,0,0,1-1-3.84,5.65,5.65,0,0,1,0-1.43c.06-.71.1-1.16.1-1.35q-.48-.2-.48,0a10,10,0,0,1-2.5,1.15l-1.34-.28v-.2a5,5,0,0,0,2.78-1.72,26.62,26.62,0,0,0,2-5.28c1-4.35,1.66-7.35,1.91-9l.58-3.35h-.19l-4.7,2.49a9.13,9.13,0,0,0-.87-1.92l6.43-2.78c.45-4.48.83-7.8,1.15-10q1.35-13.71,1.83-23.79c0-.26.12-1.47.38-3.65.19-2,.29-3.51.29-4.6a5.11,5.11,0,0,0-.48-2.69c-.32-.44-1.35-.67-3.07-.67-3.52,0-5.47.55-5.85,1.63a3.62,3.62,0,0,0-.2,1.15,2.64,2.64,0,0,0,.77,1.87,2.31,2.31,0,0,0,1.73.82c.83,0,1.25-.51,1.25-1.53l-1.3-.15c-.29,0-.4-.37-.34-1s.2-1,.39-1v.2c2-.26,3,.48,3,2.2a3.26,3.26,0,0,1-.91,2.26,3,3,0,0,1-2.35,1,3.55,3.55,0,0,1-3-1.48,5.68,5.68,0,0,1-1.1-3.5q0-3.95,3.16-3.94c1-.06,1.66-.12,2.11-.19a17,17,0,0,1,4.7-.19,38.29,38.29,0,0,1,4.42.82c2.43.43,3.77.76,4,1a6.9,6.9,0,0,1,1.06,3.17c.19,1.22.38,2.41.58,3.56,1,4.35,1.72,7.27,2.11,8.74q2.2,8.94,3.16,13.45,3,9.71,4.51,14.61,2.4,9.42,3.55,14.22C194.73,177,195.05,177.46,195.63,178.23ZM181.72,164.9c0-.83-.58-1.35-1.73-1.54a27.47,27.47,0,0,1-2.78.77c-2.17.77-3.84,1.34-5,1.73a4.16,4.16,0,0,0-1.44.67,3.82,3.82,0,0,0-.86,2.78h1.15q7.1-3,9.31-3a6.46,6.46,0,0,0,1.05-.77A.93.93,0,0,0,181.72,164.9Zm-10.65-.67h.58q7.38-2.59,9.21-2.6a10.52,10.52,0,0,0-.58-3.16q-1.16-5.08-1.53-6.81-1.74-9.49-2.5-14.3a66.38,66.38,0,0,0-2-8.92q-.87,14.2-1.35,21.3Q171.75,159.43,171.07,164.23Z"/><path class="cls-7" d="M197.36,116l1.44.29q1.44.76,9.82,19.65,3.16,8.25,6.83,18.21a44.16,44.16,0,0,1,2.69,6.72q.87,1.82,2.31,5.75l2.65,5.29.25,0v-.29q-.85-1.73-2.2-20.24-1.25-17.18-1.25-19.43t-.38-7c-.19-.45-.35-.67-.48-.67a3.35,3.35,0,0,0,.19-1.06c0-1-.71-1.8-2.11-2.35A11.48,11.48,0,0,1,215,120h.29a2.07,2.07,0,0,1,1.15-.38,4.78,4.78,0,0,1,1.82.52,4.56,4.56,0,0,0,1.73.53h.19a6.84,6.84,0,0,1,.19-2l.53-.61a1.5,1.5,0,0,0,.43-.72H222c0,1.79.32,2.69,1,2.69a8.3,8.3,0,0,0,.91-.19,6.4,6.4,0,0,1,1.49-.19,6.16,6.16,0,0,1,1,.38,2.59,2.59,0,0,0,1,.29v.38c-2.62,0-4.25.71-4.89,2.11a6.74,6.74,0,0,0-.67,2.59,15.56,15.56,0,0,0,0,2.59c.13,1.28.19,2.21.19,2.78q-.09,1.55.67,12.28.76,11.32,1.25,15c.06,2.94.29,6.52.67,10.74l1.06,6.05a17,17,0,0,1-.29,3.74c-.32,1.79-.77,2.85-1.34,3.17a1.71,1.71,0,0,1-2-.2,25,25,0,0,1-2.4-3.93l-9.69-19.38q-2.78-6.23-6.81-15.73L200,136.6a1.14,1.14,0,0,0-.67-.68,13.91,13.91,0,0,1,.29,4.61v4.7q.38,5.76.86,17.08,0,4.41.77,13.14a5.32,5.32,0,0,0,1.25,2c.7.8,1.31,1.2,1.82,1.2v.19h-.29a4.44,4.44,0,0,1-2.2.29c-.45,0-.68,1-.68,3.07H201a2.48,2.48,0,0,1-1.15-1.35,2.74,2.74,0,0,0-.81-1.24,2.55,2.55,0,0,0-1.78,0c-1.15.25-1.79.38-1.92.38v-.29h.29v-.19a4.61,4.61,0,0,0,3-2.78,7.39,7.39,0,0,0,.29-3.36c-.13-1.15-.26-2.3-.38-3.45v-6.53q-.19-3.06-.39-9.11.1-5.48-.28-16.31a174.39,174.39,0,0,1-.77-17.75A15.06,15.06,0,0,1,197.36,116Z"/><path class="cls-7" d="M249.45,171.76a3.6,3.6,0,0,1,1.24,2.63,3.26,3.26,0,0,1-.91,2.26,2.73,2.73,0,0,1-2.06,1c-1.92,0-2.85-.83-2.78-2.5.06-1,.92-1.53,2.59-1.53a3.81,3.81,0,0,0,.29.72.58.58,0,0,1,.09.33h-.19c-1.22.71-1.57,1.06-1.05,1.06a1.39,1.39,0,0,0,.86.29c1,0,1.44-.71,1.44-2.11,0-1.22-.58-1.83-1.73-1.83a4.29,4.29,0,0,0-2.4.77,3.68,3.68,0,0,0-1.53,3.26,5.67,5.67,0,0,0,1.05,3.26,3,3,0,0,0,2.5,1.54c.12-.32.28-.77.48-1.34h.19v.19h.19c.32.89.38,1.34.19,1.34-.13.38-.25.58-.38.58a5.26,5.26,0,0,1-3.89-1.61,6.69,6.69,0,0,1-1.87-4,4.77,4.77,0,0,1,.1-2.34,4.72,4.72,0,0,1,2.88-2.64l1.44-.63a.63.63,0,0,1,.28,0A4.57,4.57,0,0,1,249.45,171.76ZM248,120.38c.89.13,1.44.45,1.63,1a19.61,19.61,0,0,1,.1,4.22q-.11,1.16.38,15.93.57,15.54.57,20.24a11.57,11.57,0,0,1-.19,2.93,11.11,11.11,0,0,1-2.79,2.11,13.16,13.16,0,0,1-3.27,1.77,1.09,1.09,0,0,1-.95-.29q-.48-.37-.57-.33a17.29,17.29,0,0,1-.28-3q0-1.64.28-11.52,0-1.53-.28-14-.3-9.8.48-12.95c.12-.58,1-1.7,2.54-3.36A20,20,0,0,0,248,120.38Z"/><g class="cls-8"><path class="cls-9" d="M80.07,38.92c-.86-1.79-5.45-2.08-10.18-.65L57.55,42a36.48,36.48,0,0,0-14.48,9.43l-4.32,5a38.29,38.29,0,0,0-7.39,15.69L29,86.09c-.83,4.88,1.24,9.1,4.61,9.37s6.66-3.52,7.32-8.43l.81-6.17a35.71,35.71,0,0,1,7.06-15.74l4.32-5a52.64,52.64,0,0,1,14-10.78l6.49-3.18C78,44,80.93,40.71,80.07,38.92Z"/></g></svg>
