<svg xmlns="http://www.w3.org/2000/svg" width="97.65" height="97.65" viewBox="0 0 97.65 97.65"><defs><style>.cls-1{fill:#49241a;}.cls-2,.cls-3,.cls-4,.cls-5{fill:#ffa700;}.cls-3{opacity:0.04;}.cls-4{opacity:0.06;}.cls-5{opacity:0.05;}</style></defs><title>window_start screen</title><g id="final"><path class="cls-1" d="M26.75,32.66a8,8,0,0,1,7.93-8.09L59,24.29a8.07,8.07,0,0,1,8.13,7.91l.53,34A7.66,7.66,0,0,1,59.75,74l-24.66-.54A8.33,8.33,0,0,1,27,65.25Z"/><path class="cls-2" d="M30.26,37.08A8,8,0,0,1,38.19,29L55.3,28.8a8.06,8.06,0,0,1,8.12,7.91l.4,25A7.67,7.67,0,0,1,56,69.59L38.53,69.2A8.32,8.32,0,0,1,30.46,61Z"/><path class="cls-1" d="M46.48,26.09c-.86.06-1.51,3.26-1.43,7.11l.6,32c.07,3.85.87,7,1.79,6.88S49,68.85,48.93,65l-.72-32C48.12,29.13,47.35,26,46.48,26.09Z"/><circle class="cls-3" cx="48.83" cy="48.83" r="48.83"/><circle class="cls-4" cx="47.83" cy="48.83" r="35.83"/><circle class="cls-5" cx="47.33" cy="48.33" r="43.33"/></g></svg>