<svg xmlns="http://www.w3.org/2000/svg" width="579.76" height="636.76" viewBox="0 0 579.76 636.76"><defs><style>.cls-1{fill:#d83f32;}.cls-2{fill:#ea591f;}.cls-3{fill:#eb5e28;}.cls-4{fill:#ee7444;}.cls-5{fill:#ec6632;}.cls-6{fill:#ef8257;}.cls-7{opacity:0.85;}.cls-8{fill:#191919;}.cls-9{opacity:0.4;}.cls-10{fill:#fff;}.cls-11{fill:#442518;}.cls-12{fill:none;stroke:#442518;stroke-miterlimit:10;stroke-width:2px;}.cls-13{fill:#ede8e8;}.cls-14{fill:#513826;}.cls-15{fill:#e5e5e5;}.cls-16{fill:#9d6b53;}.cls-17{fill:#377e62;}.cls-18{fill:#e2d681;}.cls-19{fill:#bab4af;}</style></defs><title>you_won_title</title><g id="final"><path class="cls-1" d="M395.55,313.45a2,2,0,0,1,1.16,2.58L311.76,539.7a2,2,0,0,1-2.58,1.16l-8.69-3.3a2.08,2.08,0,0,1-1.21-2.6l70-203.33c.36-1,.21-1.11-.32-.15l-40.85,73.07a18.83,18.83,0,0,0-1.49,3.67L293.57,532.8a1.78,1.78,0,0,1-2.39,1.22l-8.68-3.3a2.34,2.34,0,0,1-1.41-2.65l29.73-125.85a19.86,19.86,0,0,1,1.37-3.73l49.13-95.92a2.29,2.29,0,0,1,2.78-1.07Z"/><path class="cls-2" d="M502.61,168.33c-6.29,16.56-23.05,26.88-43.32,29a78.67,78.67,0,0,1-16.44-.09,86.74,86.74,0,0,1-14.53-2.86c-1.69-.48-3.38-1-5.07-1.62q-1.06-.37-2.13-.78c-.78-.29-1.54-.6-2.3-.91l-.12-.06-1.11-.46-.88-.38c-.38-.17-.75-.33-1.11-.51-.51-.22-1-.46-1.52-.7s-1-.48-1.49-.74-1-.5-1.47-.76c-2-1-3.84-2.11-5.67-3.25l-1.35-.87-1.33-.88-1.31-.91c-.43-.31-.86-.61-1.28-.93s-.83-.61-1.24-.93h0l-1.19-.94c-.17-.13-.34-.26-.5-.4-.65-.52-1.29-1.06-1.91-1.6-.37-.31-.73-.64-1.09-.95l-.08-.08-1-.89-.17-.17c-.36-.32-.71-.66-1.05-1s-.71-.69-1.05-1c-.5-.5-1-1-1.45-1.51h0l-.14-.15c-.83-.9-1.64-1.81-2.41-2.73-.32-.38-.63-.75-.93-1.13s-.76-1-1.12-1.44l-.56-.75c-.28-.37-.55-.75-.82-1.13s-.71-1-1-1.52c-.52-.77-1-1.54-1.47-2.32l-.61-1c-.24-.4-.46-.81-.68-1.21a1.26,1.26,0,0,1-.13-.23l0-.1a1.28,1.28,0,0,1-.11-.2l-.36-.69-.35-.67c-.2-.41-.4-.81-.59-1.23-.08-.18-.17-.36-.25-.55-.19-.4-.37-.81-.54-1.21a0,0,0,0,1,0,0c-.18-.42-.35-.83-.51-1.24s-.31-.78-.46-1.17-.32-.88-.47-1.33l-.36-1.11a1.21,1.21,0,0,1-.05-.14,48.51,48.51,0,0,1-1.28-5.05c-.08-.42-.16-.84-.23-1.27s-.11-.62-.15-.94c-.09-.55-.16-1.1-.22-1.65v-.1a.2.2,0,0,1,0-.07,2.64,2.64,0,0,1,0-.29,5.42,5.42,0,0,1-.06-.58c-.05-.48-.08-1-.1-1.44s0-.78,0-1.16a.33.33,0,0,1,0-.14c0-.21,0-.42,0-.63q0-.93,0-1.86l0-.78c0-.06,0-.12,0-.19s0-.19,0-.29l.06-.68c.09-1,.22-2.05.39-3.07.07-.41.15-.83.23-1.24l.27-1.24c.07-.31.15-.62.24-.92.25-1,.55-2,.89-2.92.11-.35.24-.7.37-1s.21-.55.33-.83.29-.71.45-1.06l.18-.43.36-.75.18-.37a.93.93,0,0,1,0-.1l.11-.21.5-1c.16-.3.33-.61.51-.9s.39-.67.59-1c.35-.57.71-1.13,1.09-1.67l.15-.22c0-.07.1-.15.16-.22.17-.25.35-.5.54-.74l.48-.65a1.46,1.46,0,0,0,.16-.19l.3-.38c.18-.23.37-.45.55-.67.39-.47.8-.93,1.21-1.37l.31-.34c.38-.41.78-.81,1.19-1.21l.06-.07.11-.1a1.59,1.59,0,0,1,.13-.13l.66-.63c.32-.29.64-.58,1-.86s.5-.43.75-.64l.05,0,.93-.75.35-.27.14-.11.1-.08.21-.16c.53-.39,1.06-.78,1.62-1.16l.91-.61.82-.52.64-.4.48-.29.79-.46c1.14-.64,2.33-1.26,3.55-1.83l.44-.21.33-.15,1.27-.56.49-.2,1.39-.55.51-.2.61-.22a63,63,0,0,1,8.09-2.29l.63-.14,1-.19h0c.76-.15,1.51-.28,2.27-.39l1-.15.3,0,1-.12c1.15-.14,2.33-.26,3.51-.34l.84-.06.77,0,.77,0,1.21,0c.8,0,1.61,0,2.41,0l1.14,0c1.89,0,3.79.14,5.71.32l.95.09.34,0,1.35.16.88.11c.59.08,1.18.16,1.78.26l.74.12,1.16.2,1.07.2.91.17c1,.22,2.07.45,3.11.7l1.25.31,1.36.37.4.1.88.26.79.23c.42.13.85.25,1.27.39s1,.31,1.47.48c1.14.38,2.27.78,3.41,1.21a91.2,91.2,0,0,1,9.26,4.12l1.11.59a85,85,0,0,1,10.72,6.76c1.59,1.18,3.11,2.39,4.57,3.65C501.34,127.46,509.8,149.4,502.61,168.33Z"/><path class="cls-3" d="M482.85,158.17a66.07,66.07,0,0,1-26.91,32.62,70,70,0,0,1-13.09,6.41,86.74,86.74,0,0,1-14.53-2.86c-1.69-.48-3.38-1-5.07-1.62q-1.06-.37-2.13-.78c-.78-.29-1.54-.6-2.3-.91l-.12-.06-1.11-.46-.88-.38c-.38-.17-.75-.33-1.11-.51-.51-.22-1-.46-1.52-.7s-1-.48-1.49-.74-1-.5-1.47-.76c-2-1-3.84-2.11-5.67-3.25l-1.35-.87-1.33-.88-1.31-.91c-.43-.31-.86-.61-1.28-.93s-.83-.61-1.24-.93h0l-1.19-.94c-.17-.13-.34-.26-.5-.4-.65-.52-1.29-1.06-1.91-1.6-.37-.31-.73-.64-1.09-.95l-.08-.08-1-.89-.17-.17c-.36-.32-.71-.66-1.05-1s-.71-.69-1.05-1c-.5-.5-1-1-1.45-1.51h0l-.14-.15c-.83-.9-1.64-1.81-2.41-2.73-.32-.38-.63-.75-.93-1.13s-.76-1-1.12-1.44l-.56-.75c-.28-.37-.55-.75-.82-1.13s-.71-1-1-1.52c-.52-.77-1-1.54-1.47-2.32l-.61-1c-.24-.4-.46-.81-.68-1.21a1.26,1.26,0,0,1-.13-.23l0-.1a1.28,1.28,0,0,1-.11-.2l-.36-.69-.35-.67c-.2-.41-.4-.81-.59-1.23-.08-.18-.17-.36-.25-.55-.19-.4-.37-.81-.54-1.21a0,0,0,0,1,0,0c-.18-.42-.35-.83-.51-1.24s-.31-.78-.46-1.17-.32-.88-.47-1.33l-.36-1.11a1.21,1.21,0,0,1-.05-.14,48.51,48.51,0,0,1-1.28-5.05c-.08-.42-.16-.84-.23-1.27s-.11-.62-.15-.94c-.09-.55-.16-1.1-.22-1.65v-.1a.2.2,0,0,1,0-.07,2.64,2.64,0,0,1,0-.29,5.42,5.42,0,0,1-.06-.58c-.05-.48-.08-1-.1-1.44s0-.78,0-1.16a.33.33,0,0,1,0-.14c0-.21,0-.42,0-.63q0-.93,0-1.86l0-.78c0-.06,0-.12,0-.19s0-.19,0-.29l.06-.68c.09-1,.22-2.05.39-3.07.07-.41.15-.83.23-1.24l.27-1.24c.07-.31.15-.62.24-.92.25-1,.55-2,.89-2.92.11-.35.24-.7.37-1s.21-.55.33-.83.29-.71.45-1.06l.18-.43.36-.75.18-.37a.93.93,0,0,1,0-.1l.11-.21.5-1c.16-.3.33-.61.51-.9s.39-.67.59-1c.35-.57.71-1.13,1.09-1.67l.15-.22c0-.07.1-.15.16-.22.17-.25.35-.5.54-.74l.48-.65a1.46,1.46,0,0,0,.16-.19l.3-.38c.18-.23.37-.45.55-.67.39-.47.8-.93,1.21-1.37l.31-.34c.38-.41.78-.81,1.19-1.21l.06-.07.11-.1a1.59,1.59,0,0,1,.13-.13l.66-.63c.32-.29.64-.58,1-.86s.5-.43.75-.64l.05,0,.93-.75.35-.27.14-.11.1-.08.21-.16c.53-.39,1.06-.78,1.62-1.16l.91-.61.82-.52.64-.4.48-.29.79-.46c1.14-.64,2.33-1.26,3.55-1.83l.44-.21.33-.15,1.27-.56.49-.2,1.39-.55.51-.2.61-.22a63,63,0,0,1,8.09-2.29l.63-.14,1-.19h0c.76-.15,1.51-.28,2.27-.39l1-.15.3,0,1-.12c1.15-.14,2.33-.26,3.51-.34l.84-.06.77,0,.77,0,1.21,0c.8,0,1.61,0,2.41,0l1.14,0c1.89,0,3.79.14,5.71.32l.95.09.34,0,1.35.16.88.11c.59.08,1.18.16,1.78.26l.74.12,1.16.2,1.07.2.91.17c1,.22,2.07.45,3.11.7l1.25.31,1.36.37.4.1.88.26.79.23c.42.13.85.25,1.27.39s1,.31,1.47.48c1.14.38,2.27.78,3.41,1.21a91.2,91.2,0,0,1,9.26,4.12l1.11.59a85,85,0,0,1,10.72,6.76c1.59,1.18,3.11,2.39,4.57,3.65A66.32,66.32,0,0,1,482.85,158.17Z"/><path class="cls-4" d="M464.07,148c-.08.22-.16.43-.25.65h0c-.38,1-.77,1.94-1.19,2.89A82.87,82.87,0,0,1,449.26,173c-.67.77-1.34,1.53-2,2.27-.46.49-.93,1-1.4,1.46-1.17,1.19-2.36,2.34-3.6,3.45a75.46,75.46,0,0,1-19,12.53q-1.06-.37-2.13-.78c-.78-.29-1.54-.6-2.3-.91l-.12-.06-1.11-.46-.88-.38c-.38-.17-.75-.33-1.11-.51-.51-.22-1-.46-1.52-.7s-1-.48-1.49-.74-1-.5-1.47-.76c-2-1-3.84-2.11-5.67-3.25l-1.35-.87-1.33-.88-1.31-.91c-.43-.31-.86-.61-1.28-.93s-.83-.61-1.24-.93h0l-1.19-.94c-.17-.13-.34-.26-.5-.4-.65-.52-1.29-1.06-1.91-1.6-.37-.31-.73-.64-1.09-.95l-.08-.08-1-.89-.17-.17c-.36-.32-.71-.66-1.05-1s-.71-.69-1.05-1c-.5-.5-1-1-1.45-1.51h0l-.14-.15c-.83-.9-1.64-1.81-2.41-2.73-.32-.38-.63-.75-.93-1.13s-.76-1-1.12-1.44l-.56-.75c-.28-.37-.55-.75-.82-1.13s-.71-1-1-1.52c-.52-.77-1-1.54-1.47-2.32l-.61-1c-.24-.4-.46-.81-.68-1.21l-.13-.23,0-.1a1.28,1.28,0,0,1-.11-.2l-.36-.69-.35-.67c-.2-.41-.4-.81-.59-1.23-.08-.18-.17-.36-.25-.55-.19-.4-.37-.81-.54-1.21a0,0,0,0,1,0,0c-.18-.42-.35-.83-.51-1.24s-.31-.78-.46-1.17-.32-.88-.47-1.33l-.36-1.11a1.21,1.21,0,0,1-.05-.14,48.51,48.51,0,0,1-1.28-5.05c-.08-.42-.16-.84-.23-1.27s-.11-.62-.15-.94c-.09-.55-.16-1.1-.22-1.65v-.1a.2.2,0,0,1,0-.07,2.64,2.64,0,0,1,0-.29.59.59,0,0,1,0-.14c0-.14,0-.29,0-.44-.05-.48-.08-1-.1-1.44s0-.78,0-1.16a.33.33,0,0,1,0-.14c0-.21,0-.42,0-.63q0-.93,0-1.86l0-.78c0-.06,0-.12,0-.19s0-.19,0-.29l.06-.68c.09-1,.22-2.05.39-3.07.07-.41.15-.83.23-1.24l.27-1.24c.07-.31.15-.62.24-.92.25-1,.55-2,.89-2.92.11-.35.24-.7.37-1s.21-.55.33-.83.29-.71.45-1.06l.18-.43.36-.75.18-.37a.93.93,0,0,1,0-.1l.11-.21.5-1c.16-.3.33-.61.51-.9s.39-.67.59-1c.35-.57.71-1.13,1.09-1.67l.15-.22c0-.07.1-.15.16-.22.17-.25.35-.5.54-.74l.48-.65a1.46,1.46,0,0,0,.16-.19l.3-.38c.18-.23.37-.45.55-.67.39-.47.8-.93,1.21-1.37l.31-.34c.38-.41.78-.81,1.19-1.21l.06-.07.11-.1a1.59,1.59,0,0,1,.13-.13l.66-.63c.32-.29.64-.58,1-.86s.5-.43.75-.64l.05,0,.93-.75.35-.27.14-.11.31-.24c.53-.39,1.06-.78,1.62-1.16l.91-.61.82-.52.64-.4.48-.29.79-.46c1.14-.64,2.33-1.26,3.55-1.83l.44-.21.33-.15,1.27-.56.49-.2,1.39-.55.51-.2.61-.22a63,63,0,0,1,8.09-2.29l.63-.14,1-.19h0c.76-.15,1.51-.28,2.27-.39l1-.15.3,0,1-.12c1.15-.14,2.33-.26,3.51-.34l.84-.06.77,0,.77,0,1.21,0c.8,0,1.61,0,2.41,0l1.14,0c1.89,0,3.79.14,5.71.32l.95.09.34,0,1.35.16.88.11c.59.08,1.18.16,1.78.26l.74.12,1.16.2,1.07.2.91.17c1,.22,2.07.45,3.11.7l1.25.31,1.36.37.4.1.88.26.79.23c.42.13.85.25,1.27.39s1,.31,1.47.48c1.14.38,2.27.78,3.41,1.21a91.2,91.2,0,0,1,9.26,4.12l1.11.59c.16.73.31,1.47.46,2.22h0a80.38,80.38,0,0,1,0,30.1A84.86,84.86,0,0,1,464.07,148Z"/><path class="cls-5" d="M464.74,153.29A107.82,107.82,0,0,1,459.51,165c-1.15,2.21-2.36,4.33-3.61,6.34l-.23.36c-.54.86-1.08,1.7-1.64,2.52-.38.57-.77,1.13-1.16,1.68s-.92,1.28-1.39,1.89l-.16.21c-.49.65-1,1.28-1.48,1.89-.14.16-.28.33-.41.5h0c-.88,1.06-1.77,2.06-2.66,3-6.16,6.54-12.63,10.5-18.44,10.94-1.69-.48-3.38-1-5.07-1.62q-1.06-.37-2.13-.78c-.78-.29-1.54-.6-2.3-.91l-.12-.06c-4.68-4.38-7.07-12.66-7-22.95,0-1.7.07-3.44.21-5.23,0-.54.09-1.1.15-1.65q.32-3.19.9-6.54h0a106.1,106.1,0,0,1,4.93-18l0-.06c.11-.3.23-.6.35-.91.75-2,1.55-3.92,2.38-5.79h0c1.52-3.39,3.16-6.6,4.89-9.61,8-13.92,18.09-23.39,27-25.32l1.43.59,12.71,5.22a22.07,22.07,0,0,1,1.57,2.81h0c3.35,7.21,4.06,18.15,1.91,30.51a103.29,103.29,0,0,1-4.7,17.52C465.18,152.13,465,152.71,464.74,153.29Z"/><path class="cls-6" d="M389.45,171.06c-14.1-15.09-19.95-34.15-13.6-50.87,5.67-14.93,19.84-24.78,37.43-28.1a85.6,85.6,0,0,0-17.66,24.77C387,135.08,385.24,154.47,389.45,171.06Z"/><g class="cls-7"><rect class="cls-8" x="398.1" y="144.49" width="10.24" height="7.7" transform="translate(22.05 -49.9) rotate(7.28)"/><rect class="cls-8" x="397.32" y="151.71" width="10.24" height="5.48" transform="translate(22.82 -49.75) rotate(7.28)"/><rect class="cls-8" x="403.73" y="155.56" width="3.45" height="4.65" transform="translate(23.28 -50.11) rotate(7.28)"/><rect class="cls-8" x="403.26" y="159.92" width="3.45" height="3.31" transform="translate(23.74 -50.02) rotate(7.28)"/><polygon class="cls-8" points="406.57 160.77 419.73 165.77 418.49 149.2 406.57 160.77"/><rect class="cls-8" x="402.83" y="162.54" width="3.45" height="4.65" transform="translate(24.15 -49.94) rotate(7.28)"/><rect class="cls-8" x="405.83" y="161.21" width="13.07" height="6.87" transform="matrix(0.99, 0.13, -0.13, 0.99, 24.19, -50.93)"/><polygon class="cls-8" points="429.81 169.4 416.07 163.61 418.05 178.1 429.81 169.4"/><polygon class="cls-8" points="419.31 165.34 435.54 172.18 433.27 154.89 419.31 165.34"/><polygon class="cls-8" points="428.52 169.12 445.39 174.17 432.64 186.07 428.52 169.12"/><polygon class="cls-8" points="434.79 173.43 449.98 177.98 447.27 159.39 434.79 173.43"/><rect class="cls-8" x="465.65" y="167.33" width="7.44" height="8.89" transform="translate(760.21 578.26) rotate(-145.69)"/><rect class="cls-8" x="455.81" y="166.76" width="10.24" height="7.7" transform="translate(745.45 571.37) rotate(-145.69)"/><rect class="cls-8" x="452.34" y="172.96" width="10.24" height="5.48" transform="translate(736.25 578.71) rotate(-145.69)"/><rect class="cls-8" x="451.2" y="173.93" width="3.45" height="4.65" transform="translate(727.65 577.17) rotate(-145.69)"/><rect class="cls-8" x="449.1" y="177.68" width="3.45" height="3.31" transform="matrix(-0.83, -0.56, 0.56, -0.83, 722.1, 581.6)"/><rect class="cls-8" x="447.24" y="179.76" width="3.45" height="4.65" transform="translate(717.14 585.58) rotate(-145.69)"/><rect class="cls-8" x="436.73" y="173.3" width="13.07" height="6.87" transform="translate(709.76 572.6) rotate(-145.69)"/><path class="cls-8" d="M427.7,138.63c-2.52,1.5-5.89.88-9-1.29A17.26,17.26,0,0,1,416,135a20.14,20.14,0,0,1-2.68-3.58,2.39,2.39,0,0,1-.13-.21c-3.68-6.36-3.38-13.42.7-15.84s10.56.77,14.37,7.19a20.45,20.45,0,0,1,2,4.48,15.86,15.86,0,0,1,.71,5,12.91,12.91,0,0,1-.17,1.68A6.9,6.9,0,0,1,427.7,138.63Z"/><path class="cls-8" d="M430,141.75c-.28,2.74-2.2,3.5-4.27,1.69l-3.25-2.82-5.1-4.44a38.45,38.45,0,0,1-3.23-3.4l-.79-1.34,0-.07a38.25,38.25,0,0,1,4.78-1.33l7.33-1.79c2.67-.66,5-.42,5.24.51a25.16,25.16,0,0,1,.24,4.1c-.05.46-.31,3.07-.59,5.81Z"/><path class="cls-8" d="M450.16,144.54c.53,3,3.33,5.3,7.19,6.31a18.42,18.42,0,0,0,3.68.54,21.59,21.59,0,0,0,4.69-.31L466,151c7.6-1.41,13-6.48,12.16-11.39s-7.84-7.9-15.56-6.54a21.16,21.16,0,0,0-4.93,1.48,16.25,16.25,0,0,0-4.44,2.83,11.21,11.21,0,0,0-1.22,1.28A7.22,7.22,0,0,0,450.16,144.54Z"/><path class="cls-8" d="M445.93,145c-1.9,2-1.22,4,1.5,4.35l5,.73,6.79,1a39.37,39.37,0,0,0,4.92.24l1.61-.28h.08a34.42,34.42,0,0,0-2.09-4.5L459.9,139c-1.24-2.45-3-4.07-3.88-3.59a25.94,25.94,0,0,0-3.43,2.6l-4.06,4.26Z"/></g><g class="cls-9"><path class="cls-10" d="M410.67,100.77c-.14-.64-2.88-.28-6.09.82a31.2,31.2,0,0,0-9.66,5.63,33.74,33.74,0,0,0-6.33,9.59c-1.38,3.27-1.52,6-.31,6s3-2,3.92-4.44a26.92,26.92,0,0,1,5.56-8.15,41.8,41.8,0,0,1,8.5-5.95C408.83,103,410.82,101.42,410.67,100.77Z"/></g><path class="cls-11" d="M455.67,81.4l-2-.35L451,80.56a1,1,0,0,0-1.16.81l-.49,2.74-.35,2-.25,1.4a4.87,4.87,0,0,1-.77,1.78l-.63.85a10.56,10.56,0,0,0-1,1.72l-.34.74a3,3,0,0,1-1.32,1.32l-.43.18a6,6,0,0,0-1.6,1.13l-.32.33c-.38.4-.27.58.25.4l4.76-1.64a4.5,4.5,0,0,1,1.93-.15h.05a1,1,0,0,1,.81,1.16l-.37,2.07a4.87,4.87,0,0,1-.77,1.78l-.63.85c-.32.44-.27.49.11.1l4.49-4.48c.39-.39.82-.27.95.26l2.33,9.66c.13.53.2.52.16,0l-.64-9.24c0-.55.31-.76.77-.46l5.8,3.71c.46.3.54.21.18-.21L458,94.25a18.76,18.76,0,0,0-1.41-1.41l-1.5-1.3a1.54,1.54,0,0,1-.39-1.59l.54-1.38c.2-.51.49-1.37.65-1.89l1.18-4a.87.87,0,0,0-.7-1.13Z"/><path class="cls-12" d="M455.67,81.4l-2-.35L451,80.56a1,1,0,0,0-1.16.81l-.49,2.74-.35,2-.25,1.4a4.87,4.87,0,0,1-.77,1.78l-.63.85a10.56,10.56,0,0,0-1,1.72l-.34.74a3,3,0,0,1-1.32,1.32l-.43.18a6,6,0,0,0-1.6,1.13l-.32.33c-.38.4-.27.58.25.4l4.76-1.64a4.5,4.5,0,0,1,1.93-.15h.05a1,1,0,0,1,.81,1.16l-.37,2.07a4.87,4.87,0,0,1-.77,1.78l-.63.85c-.32.44-.27.49.11.1l4.49-4.48c.39-.39.82-.27.95.26l2.33,9.66c.13.53.2.52.16,0l-.64-9.24c0-.55.31-.76.77-.46l5.8,3.71c.46.3.54.21.18-.21L458,94.25a18.76,18.76,0,0,0-1.41-1.41l-1.5-1.3a1.54,1.54,0,0,1-.39-1.59l.54-1.38c.2-.51.49-1.37.65-1.89l1.18-4a.87.87,0,0,0-.7-1.13Z"/><path class="cls-1" d="M440.4,246.45a1.51,1.51,0,0,0,.06,1.63l17.63,22.74c.33.44.9,1.13,1.27,1.54l7.63,8.72c.36.42,1,1.09,1.32,1.5l7.18,8.09a3.82,3.82,0,0,0,1.63,1l2.63.67a2,2,0,0,0,1.71-.43l4.87-4.45a16.91,16.91,0,0,0,1.36-1.45l7.62-9.44,1.25-1.56,19.36-24.46c.34-.43.87-1.16,1.17-1.61L531.7,227c.31-.45.8-1.2,1.1-1.66l7.84-12a.92.92,0,0,0-.32-1.33l-6.76-3.83a1.17,1.17,0,0,0-1.47.31l-11.73,15.77L519.17,226l-10,13.57c-.33.44-.89,1.14-1.26,1.55l-9.77,11.05c-.36.41-.95,1.1-1.29,1.52l-8.44,10.29c-.34.43-.92,1.12-1.27,1.55l-7.47,8.95a.75.75,0,0,1-1.24,0L468.3,260.92a18.78,18.78,0,0,0-1.3-1.51L455.83,248.1c-.38-.39-1-1-1.37-1.45l-4.82-5.38a13.43,13.43,0,0,0-1.46-1.36l-1.46-1.14a.94.94,0,0,0-1.35.22Z"/><path class="cls-1" d="M414.8,190.31c-10.37-3.67-23.61-1-29.42,5.92s-13.56,21.07-17.22,31.44l-2.54,7.19c-3.66,10.38-9,27-11.85,37s-6,22.62-7,28.06,1.65,11.1,5.84,12.58l20.24,7.15,22.41,7.91c5.39,1.9,12.85-2.09,16.59-8.87s10.28-20.64,14.52-30.78l.29-.69A340.23,340.23,0,0,0,439.32,250c2.71-10.33,5.12-25.58,5.36-33.89s-8.05-18.09-18.42-21.76Z"/><path class="cls-13" d="M377.54,307.19c-1,3.13-.49,6.19,1.22,6.8s4-1.44,5.14-4.55L406,247.57c1.11-3.11.2-6.06-2-6.55s-4.9,1.66-5.94,4.79Z"/><path class="cls-8" d="M354.09,278.05a1.83,1.83,0,0,0-2.41,1.26l-1.33,4.91a2.61,2.61,0,0,0,1.25,2.86l8.42,4.41a34.79,34.79,0,0,0,3.65,1.6l6.9,2.43,3.77,1.33L386.09,301l3.77,1.33,5.44,1.92a26,26,0,0,0,3.86,1l6.9,1.09c1.09.17,2.86.5,3.93.73l5.49,1.17a2.63,2.63,0,0,0,2.8-1.4l1.58-3.44a1.79,1.79,0,0,0-1.05-2.48Z"/><path class="cls-13" d="M357.24,303.39c-5.73-1.94-11.16-2.6-12.07-1.46a16.52,16.52,0,0,0-2.31,4,2.76,2.76,0,0,0,1.1,3,30.71,30.71,0,0,0,5.05,2.31l7,2.48c2.07.73,5.58,2,7.81,2.85s5.59,2.06,7.48,2.73l7.23,2.55,7.3,2.58c1.93.68,7.55,2.62,12.49,4.32s9.34,2,9.8.72,1.15-3.64,1.54-5.21-4-4.43-9.72-6.38Z"/><path class="cls-1" d="M409.56,89.43c-2.31,6.85,4.33,15.32,14.76,18.84l5.66,1.91L467.89,123,483,128c10.43,3.51,21.3-.58,24.17-9.08s5.48-23.88,5.8-34.17a284.66,284.66,0,0,0-.5-29.57,86.8,86.8,0,0,1,1.06-21.49c1.18-5.84,6-11.21,10.68-11.94s12.44,1.69,17.22,5.38,11.5,6,15,5,4.53-6,2.41-11.37-11.56-12.3-21-15.46S513.86-.43,505.5-.47,487,3,482.85,7.44a167.8,167.8,0,0,1-18.27,16.1,197.56,197.56,0,0,0-21.25,19.31c-5.73,6.15-14.74,16.35-20,22.66S411.86,82.58,409.56,89.43Z"/><path class="cls-13" d="M542,28.25a19,19,0,0,1,4.51-12.52c2.78-3,7.3-5.6,10.06-5.81a18.51,18.51,0,0,1,9,1.83,32.77,32.77,0,0,1,6.23,4.57c1.26,1.29,2.57,6.1,2.92,10.7s-1,9.42-3,10.73-7.55,2.67-12.37,3-10.58-.7-12.79-2.38S542.33,32.16,542,28.25Z"/><path class="cls-14" d="M531.58,192.8c.12-9,1.51-16.69,3.09-17.17a2.79,2.79,0,0,1,3.6,1.5,29.56,29.56,0,0,1,.63,7.14c-.06,2.6.68,1.2,1.65-3.13l2.64-11.8c.49-2.16,3-3.88,5.62-3.82a16.32,16.32,0,0,1,8.17,2.71,18.36,18.36,0,0,1,5,7.87c.89,2.89.82,8.79-.15,13.12a111,111,0,0,1-4.44,14.45c-1.48,3.62-3.92,7.9-5.44,9.52s-5.37,2.1-8.56,1.07a72.22,72.22,0,0,1-8.94-3.52C532.77,209.83,531.46,201.75,531.58,192.8Z"/><path class="cls-13" d="M536.83,199.71a8.22,8.22,0,0,0-9.27.53,5.64,5.64,0,0,0-.09,8.1l6.53,6.94c2.26,2.4,5.54,4.68,7.29,5.06a16.47,16.47,0,0,1,3.71,1.12c.29.24,2.44-1.48,4.77-3.81l1.74-1.75a4.6,4.6,0,0,0-.83-7.45Z"/><path class="cls-8" d="M296.44,521.6a3.39,3.39,0,0,1,2.06,4.83l-3.29,6.79c-1,2-2.37,5.29-3.14,7.35l-1.64,4.37a4.22,4.22,0,0,1-5.2,2.51l-26.93-8.72a4,4,0,0,1-2.57-5l.25-.78c.68-2.09,2.24-3.89,3.47-4a7.18,7.18,0,0,1,4.31,1.39c1.15.89,2.73,2,3.52,2.53a5,5,0,0,0,3.94-.11c1.38-.57,2.67-2.6,2.87-4.52s.69-4.88,1.07-6.6l1.08-4.77c.2-.91,2.08-1.1,4.18-.42Z"/><path class="cls-8" d="M297.48,532.75a74.17,74.17,0,0,1-3.1,7.35L292,544.77a3.94,3.94,0,0,0,1.8,5.32l29.57,14.35a4,4,0,0,0,5.35-1.85l.18-.38a6.92,6.92,0,0,0-.46-6.54,11.87,11.87,0,0,0-5.88-3.79,15.39,15.39,0,0,1-5-1.94c-.71-.6-.34-2.62.83-4.49l.35-.57c1.17-1.86,2.66-4.28,3.32-5.37s-.42-2.76-2.4-3.72l-16.35-7.94a3.48,3.48,0,0,0-4.91,2Z"/><path class="cls-2" d="M184,198.41c4.14,11.28.14,24-9.32,34.1a53.59,53.59,0,0,1-8.46,7.27,58.67,58.67,0,0,1-8.72,5c-1.08.51-2.19,1-3.32,1.43l-1.44.55c-.53.19-1.05.38-1.58.55l-.09,0-.78.25-.62.2-.79.24-1.09.31-1.09.29-1.09.26c-1.46.35-2.91.63-4.35.85l-1.08.16-1.08.14-1.07.11-1.07.1-1,.08h0l-1,.05-.43,0-1.69,0h-1.06l-.89,0h-.16l-1,0-1-.07c-.48,0-1-.08-1.42-.12H127c-.83-.09-1.65-.2-2.45-.33l-1-.17-1.21-.23-.63-.14-.92-.21-1.21-.32c-.61-.16-1.2-.34-1.79-.54l-.77-.26-.89-.31-.16-.06-.07,0-.15-.06-.49-.19-.48-.19-.84-.37-.38-.16-.82-.39h0l-.82-.4-.75-.4-.83-.47-.68-.41-.08-.05a32,32,0,0,1-2.91-2c-.23-.17-.46-.36-.68-.54l-.5-.42c-.29-.24-.56-.49-.84-.75l0-.05,0,0-.14-.14a2.44,2.44,0,0,1-.29-.27c-.24-.22-.47-.46-.69-.69s-.37-.38-.54-.58l-.07-.07-.28-.32c-.28-.32-.55-.64-.81-1l-.33-.42-.07-.09-.12-.16-.28-.38c-.41-.57-.8-1.15-1.16-1.75-.15-.24-.29-.49-.43-.73s-.28-.5-.41-.76-.2-.38-.3-.58c-.3-.61-.59-1.25-.84-1.89l-.27-.7-.2-.57c-.09-.24-.17-.49-.24-.74s-.07-.2-.09-.3-.11-.36-.16-.54l-.07-.27s0-.05,0-.08a.83.83,0,0,1,0-.15c-.06-.24-.12-.48-.17-.72s-.1-.47-.14-.69-.1-.52-.14-.78c-.08-.44-.14-.89-.19-1.34,0-.06,0-.12,0-.18a1.09,1.09,0,0,1,0-.18c0-.21,0-.41-.06-.62s0-.36,0-.55v-.17l0-.33c0-.19,0-.39,0-.58,0-.42,0-.83,0-1.25,0-.1,0-.2,0-.31q0-.57.06-1.14s0-.05,0-.07a.38.38,0,0,1,0-.1.49.49,0,0,1,0-.12l.06-.62c0-.29.07-.58.11-.87s.06-.44.1-.66c0,0,0,0,0,0,0-.27.09-.53.14-.8l.06-.3a.52.52,0,0,1,0-.11s0-.06,0-.09a1,1,0,0,1,0-.17c.09-.44.19-.88.31-1.32.06-.24.12-.48.19-.72s.12-.42.19-.63l.15-.49q.06-.16.12-.36c.07-.19.13-.39.2-.58.3-.85.63-1.69,1-2.53l.14-.3a2.14,2.14,0,0,1,.1-.22c.13-.28.26-.57.4-.85a3.24,3.24,0,0,1,.17-.32c.15-.31.3-.61.46-.9l.18-.33c.07-.14.13-.26.21-.39a42.84,42.84,0,0,1,3.12-4.77l.27-.35c.13-.17.26-.35.4-.52l0,0,1-1.21c.16-.17.31-.35.46-.52a1,1,0,0,1,.13-.16l.45-.5q.79-.88,1.65-1.74l.41-.41.37-.36.38-.36.6-.56,1.23-1.08.59-.5c1-.82,2-1.61,3.07-2.37l.53-.38.19-.13.76-.52c.16-.11.33-.23.5-.33.34-.23.68-.45,1-.66L118,187l.69-.41.63-.38.55-.31c.62-.35,1.26-.69,1.9-1,.26-.14.52-.28.78-.4s.57-.28.86-.42l.25-.13.57-.26.5-.23.83-.37,1-.4c.75-.31,1.52-.61,2.29-.9a61.07,61.07,0,0,1,6.58-2l.82-.2a57,57,0,0,1,8.51-1.3c1.34-.1,2.66-.16,4-.16C165.12,178,179.21,185.51,184,198.41Z"/><path class="cls-3" d="M169.3,202a44.73,44.73,0,0,1,.72,28.68,47.87,47.87,0,0,1-3.85,9.11,58.67,58.67,0,0,1-8.72,5c-1.08.51-2.19,1-3.32,1.43l-1.44.55c-.53.19-1.05.38-1.58.55l-.09,0-.78.25-.62.2-.79.24-1.09.31-1.09.29-1.09.26c-1.46.35-2.91.63-4.35.85l-1.08.16-1.08.14-1.07.11-1.07.1-1,.08h0l-1,.05-.43,0-1.69,0h-1.06l-.89,0h-.16l-1,0-1-.07c-.48,0-1-.08-1.42-.12H127c-.83-.09-1.65-.2-2.45-.33l-1-.17-1.21-.23-.63-.14-.92-.21-1.21-.32c-.61-.16-1.2-.34-1.79-.54l-.77-.26-.89-.31-.16-.06-.07,0-.15-.06-.49-.19-.48-.19-.84-.37-.38-.16-.82-.39h0l-.82-.4-.75-.4-.83-.47-.68-.41-.08-.05a32,32,0,0,1-2.91-2c-.23-.17-.46-.36-.68-.54l-.5-.42c-.29-.24-.56-.49-.84-.75l0-.05,0,0-.14-.14a2.44,2.44,0,0,1-.29-.27c-.24-.22-.47-.46-.69-.69s-.37-.38-.54-.58l-.07-.07-.28-.32c-.28-.32-.55-.64-.81-1l-.33-.42-.07-.09-.12-.16-.28-.38c-.41-.57-.8-1.15-1.16-1.75-.15-.24-.29-.49-.43-.73s-.28-.5-.41-.76-.2-.38-.3-.58c-.3-.61-.59-1.25-.84-1.89l-.27-.7-.2-.57c-.09-.24-.17-.49-.24-.74s-.07-.2-.09-.3-.11-.36-.16-.54l-.07-.27s0-.05,0-.08a.83.83,0,0,1,0-.15c-.06-.24-.12-.48-.17-.72s-.1-.47-.14-.69-.1-.52-.14-.78c-.08-.44-.14-.89-.19-1.34,0-.06,0-.12,0-.18a1.09,1.09,0,0,1,0-.18c0-.21,0-.41-.06-.62s0-.36,0-.55v-.17l0-.33c0-.19,0-.39,0-.58,0-.42,0-.83,0-1.25,0-.1,0-.2,0-.31q0-.57.06-1.14s0-.05,0-.07a.38.38,0,0,1,0-.1.49.49,0,0,1,0-.12l.06-.62c0-.29.07-.58.11-.87s.06-.44.1-.66c0,0,0,0,0,0,0-.27.09-.53.14-.8l.06-.3a.52.52,0,0,1,0-.11s0-.06,0-.09a1,1,0,0,1,0-.17c.09-.44.19-.88.31-1.32.06-.24.12-.48.19-.72s.12-.42.19-.63l.15-.49q.06-.16.12-.36c.07-.19.13-.39.2-.58.3-.85.63-1.69,1-2.53l.14-.3a2.14,2.14,0,0,1,.1-.22c.13-.28.26-.57.4-.85a3.24,3.24,0,0,1,.17-.32c.15-.31.3-.61.46-.9l.18-.33c.07-.14.13-.26.21-.39a42.84,42.84,0,0,1,3.12-4.77l.27-.35c.13-.17.26-.35.4-.52l0,0,1-1.21c.16-.17.31-.35.46-.52a1,1,0,0,1,.13-.16l.45-.5q.79-.88,1.65-1.74l.41-.41.37-.36.38-.36.6-.56,1.23-1.08.59-.5c1-.82,2-1.61,3.07-2.37l.53-.38.19-.13.76-.52c.16-.11.33-.23.5-.33.34-.23.68-.45,1-.66L118,187l.69-.41.63-.38.55-.31c.62-.35,1.26-.69,1.9-1,.26-.14.52-.28.78-.4s.57-.28.86-.42l.25-.13.57-.26.5-.23.83-.37,1-.4c.75-.31,1.52-.61,2.29-.9a61.07,61.07,0,0,1,6.58-2l.82-.2a57,57,0,0,1,8.51-1.3c1.34-.1,2.66-.16,4-.16A44.92,44.92,0,0,1,169.3,202Z"/><path class="cls-4" d="M155.18,205.15c0,.15.11.29.16.44h0c.24.67.47,1.34.68,2a56.51,56.51,0,0,1,2.67,16.94c0,.68,0,1.37,0,2.06,0,.46,0,.91-.07,1.37-.07,1.13-.17,2.25-.31,3.37a51,51,0,0,1-4.15,14.86l-1.44.55c-.53.19-1.05.38-1.58.55l-.09,0-.78.25-.62.2-.79.24-1.09.31-1.09.29-1.09.26c-1.46.35-2.91.63-4.35.85l-1.08.16-1.08.14-1.07.11-1.07.1-1,.08h0l-1,.05-.43,0-1.69,0h-1.06l-.89,0h-.16l-1,0-1-.07c-.48,0-1-.08-1.42-.12H127c-.83-.09-1.65-.2-2.45-.33l-1-.17-1.21-.23-.63-.14-.92-.21-1.21-.32c-.61-.16-1.2-.34-1.79-.54l-.77-.26-.89-.31-.16-.06-.07,0-.15-.06-.49-.19-.48-.19-.84-.37-.38-.16-.82-.39h0l-.82-.4-.75-.4-.83-.47-.68-.41-.08-.05a32,32,0,0,1-2.91-2c-.23-.17-.46-.36-.68-.54l-.5-.42c-.29-.24-.56-.49-.84-.75l0-.05,0,0-.14-.14-.08-.06-.21-.21c-.24-.22-.47-.46-.69-.69s-.37-.38-.54-.58l-.07-.07-.28-.32c-.28-.32-.55-.64-.81-1l-.33-.42-.07-.09-.12-.16-.28-.38c-.41-.57-.8-1.15-1.16-1.75-.15-.24-.29-.49-.43-.73s-.28-.5-.41-.76-.2-.38-.3-.58c-.3-.61-.59-1.25-.84-1.89l-.27-.7-.2-.57c-.09-.24-.17-.49-.24-.74s-.07-.2-.09-.3-.11-.36-.16-.54l-.07-.27s0-.05,0-.08a.83.83,0,0,1,0-.15c-.06-.24-.12-.48-.17-.72s-.1-.47-.14-.69-.1-.52-.14-.78c-.08-.44-.14-.89-.19-1.34,0-.06,0-.12,0-.18a1.09,1.09,0,0,1,0-.18c0-.21,0-.41-.06-.62s0-.36,0-.55v-.17l0-.33c0-.19,0-.39,0-.58,0-.42,0-.83,0-1.25,0-.1,0-.2,0-.31q0-.57.06-1.14s0-.05,0-.07a.38.38,0,0,1,0-.1.49.49,0,0,1,0-.12l.06-.62c0-.29.07-.58.11-.87s.06-.44.1-.66c0,0,0,0,0,0,0-.27.09-.53.14-.8l.06-.3a.52.52,0,0,1,0-.11l.06-.26c.09-.44.19-.88.31-1.32.06-.24.12-.48.19-.72s.12-.42.19-.63l.15-.49q.06-.16.12-.36c.07-.19.13-.39.2-.58.3-.85.63-1.69,1-2.53l.14-.3a2.14,2.14,0,0,1,.1-.22c.13-.28.26-.57.4-.85a3.24,3.24,0,0,1,.17-.32c.15-.31.3-.61.46-.9l.18-.33c.07-.14.13-.26.21-.39a42.84,42.84,0,0,1,3.12-4.77l.27-.35c.13-.17.26-.35.4-.52l0,0,1-1.21c.16-.17.31-.35.46-.52a1,1,0,0,1,.13-.16l.45-.5q.79-.88,1.65-1.74l.41-.41.37-.36.38-.36.6-.56,1.23-1.08.59-.5c1-.82,2-1.61,3.07-2.37l.53-.38.19-.13.76-.52c.16-.11.33-.23.5-.33.34-.23.68-.45,1-.66L118,187l.69-.41.63-.38.55-.31c.62-.35,1.26-.69,1.9-1,.26-.14.52-.28.78-.4s.57-.28.86-.42l.25-.13.57-.26.5-.23.83-.37,1-.4c.75-.31,1.52-.61,2.29-.9a61.07,61.07,0,0,1,6.58-2l.82-.2c.42.31.82.62,1.23.94h0a54.41,54.41,0,0,1,13.38,15.43A58,58,0,0,1,155.18,205.15Z"/><path class="cls-5" d="M157.85,207.54a74.66,74.66,0,0,1,2.52,8.32c.39,1.64.72,3.27,1,4.85,0,.1,0,.2,0,.29.1.68.2,1.35.28,2,.05.47.11.92.15,1.38s.09,1.06.13,1.58c0,.06,0,.13,0,.18,0,.55.06,1.1.08,1.63v.44h0c0,.94,0,1.85,0,2.74-.25,6.09-1.8,11-4.58,13.8-1.08.51-2.19,1-3.32,1.43l-1.44.55c-.53.19-1.05.38-1.58.55l-.09,0c-4.35-.16-9.26-3.34-13.81-8.64-.75-.87-1.49-1.79-2.22-2.77-.22-.3-.44-.6-.65-.91q-1.26-1.78-2.45-3.76h0a70.33,70.33,0,0,1-5.49-11.42v0c-.08-.2-.15-.41-.23-.62-.5-1.35-1-2.69-1.36-4h0A71.44,71.44,0,0,1,123,208c-2.07-10.7-1.13-20,2.56-25l1-.33,8.84-3a13.73,13.73,0,0,1,2.05.74h0c4.93,2.21,10.16,7.5,14.55,14.79a69.31,69.31,0,0,1,5.39,11.06C157.56,206.75,157.71,207.14,157.85,207.54Z"/><path class="cls-6" d="M127.17,250.14c-13.93-1.47-25.41-8.63-29.59-20-3.73-10.17-.85-21.52,6.68-31.05a58.36,58.36,0,0,0,2,20.55C109.9,232.8,117.64,243.5,127.17,250.14Z"/><path class="cls-8" d="M132.38,216.27c-.56,1.9-2.53,3.15-5.08,3.5a11.82,11.82,0,0,1-2.4.08,14.22,14.22,0,0,1-3-.55l-.16-.05c-4.76-1.47-7.86-5.13-6.94-8.21s5.61-4.48,10.47-3a13.57,13.57,0,0,1,3.05,1.32,10.72,10.72,0,0,1,2.63,2.14,8.17,8.17,0,0,1,.69.92A4.68,4.68,0,0,1,132.38,216.27Z"/><path class="cls-8" d="M134.32,215.93c1.47,1.95.5,3.61-2.17,3.7l-6.05.18a25.27,25.27,0,0,1-3.17-.21l-1-.3,0,0c-.06,0,1.14-1.91,2.65-4.2l1.06-1.59c1.51-2.29,3.19-3.87,3.73-3.49a17.28,17.28,0,0,1,2,1.92Z"/><path class="cls-8" d="M146.54,209.59c1.63,1.3,4.08,1.2,6.49,0a12.1,12.1,0,0,0,2.12-1.37,14.6,14.6,0,0,0,2.24-2.27.76.76,0,0,0,.11-.14c3.22-4.13,3.71-9.14,1.06-11.25S151,194,147.71,198.2a14.44,14.44,0,0,0-1.84,3,10.87,10.87,0,0,0-1,3.44,7,7,0,0,0,0,1.2A4.92,4.92,0,0,0,146.54,209.59Z"/><path class="cls-8" d="M144.67,210.47c-.1,2.56,1.71,3.43,4,1.93l.16-.11,5.25-3.41a27.21,27.21,0,0,0,2.61-2.09l.69-.87,0,0a48.94,48.94,0,0,0-4.58-1.94l-2.33-.93c-2.56-1-4.84-1.32-5.08-.68a17.31,17.31,0,0,0-.58,2.87C144.85,205.53,144.76,207.9,144.67,210.47Z"/><g class="cls-9"><path class="cls-10" d="M106.79,204.68c-.36-.27-1.6,1.14-2.76,3.12a21.32,21.32,0,0,0-2.45,7.19,23.44,23.44,0,0,0,1,7.73c.75,2.29,1.88,3.73,2.51,3.21s.65-2.34,0-4a18.19,18.19,0,0,1-.78-6.64,28.46,28.46,0,0,1,1.71-6.84C106.83,206.63,107.15,204.94,106.79,204.68Z"/></g><path class="cls-15" d="M161.24,207.56c10.41-3.55,23.63-1.95,29.37,3.55s11,11.47,11.62,13.24-1.35,3.26-4.45,3.3-5.73,1-5.86,2.15,5.71,3.19,13,4.55,15,4.19,17.28,6.3,5.37,7.39,7,11.74-.81,7.19-5.34,6.29-4,.56,1.18,3.22,1,8-9.34,11.75L184,285.26l-37.55,13.79-2.32.85L116.57,310c-4.83,1.77-8.19-.44-7.45-4.91s.25-8.65-1.07-9.26-3.46.92-4.74,3.4-3.66,3.36-5.28,1.94-1.93-5.94-.7-10.06a79.19,79.19,0,0,1,5.91-13.81c2-3.48,2.81-8.26,1.76-10.62s-4.22-1.2-7,2.58-3.29,2.91-1-1.94,3.92-12.51,3.73-17-.13-11.36.12-15.23,9-9.95,19.39-13.5Z"/><path class="cls-1" d="M172.38,182.65c2.4,1.24-4.09,5.35-14.41,9.14l-38.91,14.28c-10.33,3.8-21.15,3.58-24.06-.48A42.89,42.89,0,0,1,88.59,189c-.63-5.07.14-12.44,1.7-16.37s1.95-9.57.86-12.53a34.47,34.47,0,0,0-3.76-7.61c-1-1.23-3.26-4.3-5.07-6.82A51,51,0,0,1,77,135.41,54.32,54.32,0,0,0,70.5,124c-2.4-3.18-7-5.53-10.27-5.22a52.65,52.65,0,0,0-11,2.43c-2.8,1-5.42,3.72-5.83,6a13.8,13.8,0,0,1-4.18,7c-1.89,1.58-4.66,2.31-6.15,1.62A4.42,4.42,0,0,1,31,131.07c.36-1.9,3.47-5.65,6.9-8.32a64.45,64.45,0,0,1,14.46-7.88l14.73-5.41c3.58-1.31,8-1.36,9.92-.1s6.3,2.66,9.83,3.14a48,48,0,0,1,11.45,3.18c2.77,1.28,8,3.83,11.72,5.66s9.61,5,13.19,7a35.89,35.89,0,0,1,9.9,8.58c1.86,2.67,2.79,6.38,2.06,8.24a7.33,7.33,0,0,0,.66,6.18c1.1,1.54,4,3.22,6.51,3.72s7,2.9,10,5.33a43.32,43.32,0,0,1,7.78,8.07c1.27,2,3.56,5.5,5.1,7.77A23.2,23.2,0,0,0,172.38,182.65Z"/><circle class="cls-16" cx="142.85" cy="219.51" r="11.16"/><path class="cls-17" d="M151.66,278.57a9.31,9.31,0,0,0,12.54,5.51l19.23-8.19a10.68,10.68,0,0,0,5.76-13.31l-6.34-17.26a9.6,9.6,0,0,0-12.7-5.61l-18.94,7.73a10.61,10.61,0,0,0-5.92,13.2Z"/><path class="cls-17" d="M130.89,263.71a9.08,9.08,0,0,1,6.36-12l1.52-.39a11.21,11.21,0,0,1,13.08,6.87l6.47,17.89a8.84,8.84,0,0,1-6.3,11.81l-1.89.46a11.27,11.27,0,0,1-13-7Z"/><path class="cls-17" d="M138.69,251.63a159,159,0,0,0,18.92-6.31L170.26,240c5.07-2.13,4.83-2.87-.53-1.64l-1.94.45a128,128,0,0,0-18.9,6.26l-12.11,5.33c-5,2.21-4.79,2.92.54,1.58Z"/><polygon class="cls-18" points="178.97 277.79 165.7 241.64 162.92 242.67 176.24 278.95 178.97 277.79"/><polygon class="cls-18" points="185.03 251.99 154.04 265.33 155.14 267.82 186.13 254.47 185.03 251.99"/><polygon class="cls-18" points="162.91 242.67 165.7 241.65 147.23 246.04 144.45 247.06 162.91 242.67"/><polygon class="cls-18" points="137.08 251.81 135.39 252.26 164.87 239.39 166.9 238.82 137.08 251.81"/><polyline class="cls-18" points="137.08 251.81 150.47 288.3 148.72 288.6 135.39 252.26"/><polygon class="cls-18" points="154.34 265.41 133.75 271.09 134.57 273.35 155.22 267.81 154.34 265.41"/><path class="cls-18" d="M141.34,249.19c-.72.32-1.19.93-1,1.35s.73.5,1.28.19a24.51,24.51,0,0,1,2.34-1.12c.74-.3,1.95-.86,2.7-1.24a15.14,15.14,0,0,0,2.23-1.43,3.93,3.93,0,0,0,.67-2.84,13.9,13.9,0,0,0-1.2-4.13,7.09,7.09,0,0,0-2.86-2.86,2.62,2.62,0,0,0-2.89.35,4.12,4.12,0,0,0-.65,3.13,6.43,6.43,0,0,0,2.49,3.35,11.31,11.31,0,0,0,4.65,1.6,12.55,12.55,0,0,0,3.3-.09,8.53,8.53,0,0,0,2.08-1.58,7.44,7.44,0,0,0,1.67-3.66,15.72,15.72,0,0,0-.05-4.45,3.45,3.45,0,0,0-1.74-2.52,5.92,5.92,0,0,0-3.19.26,3.75,3.75,0,0,0-2,3.22,18.38,18.38,0,0,0,.2,3.84,3,3,0,0,0,.93,1.69,11.52,11.52,0,0,0,2,.76l2.26.64a6.11,6.11,0,0,0,2.15.07,33.43,33.43,0,0,0,3.35-.82c1.18-.35,2.94-.93,3.9-1.28s1.57-1,1.35-1.36a1.28,1.28,0,0,0-1.51-.31c-.61.23-1.78.59-2.59.8s-2.07.61-2.79.87a7,7,0,0,1-2.62.36c-.72-.08-1.78-.24-2.34-.36a5.92,5.92,0,0,1-1.7-.7c-.37-.26-.7-1.71-.74-3.24s.48-2.92,1.16-3.11a3.42,3.42,0,0,1,1.92,0c.38.17.73,1.07.78,2a20.53,20.53,0,0,1-.16,3.26,6.68,6.68,0,0,1-1.31,2.82,6.35,6.35,0,0,1-2,1.6,5.16,5.16,0,0,1-2.37.06,15,15,0,0,1-2.49-.76,12.45,12.45,0,0,1-2-1.19,3.81,3.81,0,0,1-1.15-2.17,2.76,2.76,0,0,1,.28-1.93c.27-.27,1-.16,1.71.23a6.23,6.23,0,0,1,2,2.24,10.39,10.39,0,0,1,.81,3.46,3,3,0,0,1-1.12,2.59c-.66.36-1.89.92-2.74,1.26S142.07,248.87,141.34,249.19Z"/><path class="cls-1" d="M123.33,259.13c5.4-.21,10.1.38,10.45,1.31a1.69,1.69,0,0,1-.8,2.22,17.52,17.52,0,0,1-4.27.6c-1.58.05-.7.46,1.93.9l7.2,1.22a3.39,3.39,0,0,1,2.48,3.26,9.82,9.82,0,0,1-1.38,5,11,11,0,0,1-4.57,3.28,18.94,18.94,0,0,1-7.91.34,67.69,67.69,0,0,1-8.85-2.22,23.17,23.17,0,0,1-5.91-3c-1-.86-1.44-3.17-.92-5.13a43.44,43.44,0,0,1,1.84-5.49C113.11,260.39,117.93,259.35,123.33,259.13Z"/><path class="cls-1" d="M183.62,237.51c-4.41,3.44-7.73,7.06-7.37,8a1.73,1.73,0,0,0,2.11,1.22,18,18,0,0,0,3.78-2.38c1.28-1,.86-.12-.93,2l-4.86,5.78a3.52,3.52,0,0,0,.23,4.24,10.2,10.2,0,0,0,4.43,3,11.42,11.42,0,0,0,5.82-.47,19.62,19.62,0,0,0,6.47-5,69.54,69.54,0,0,0,5.5-7.67,24,24,0,0,0,2.67-6.31c.23-1.36-1-3.46-2.71-4.66a43.88,43.88,0,0,0-5.13-3.1C192.53,231.66,188,234.06,183.62,237.51Z"/><path class="cls-2" d="M512.79,425.76c0,91.73-72.09,169.68-172.49,198.08A303.77,303.77,0,0,1,285.09,634q-9.94.91-20.11,1.17c-2.84.08-5.71.13-8.58.13-3.3,0-6.59-.05-9.86-.18C109.5,630.94,0,538.81,0,425.76c0-110.38,104.39-200.83,236.9-209q9.66-.62,19.5-.61a314.64,314.64,0,0,1,38.27,2.32c1.57.18,3.13.38,4.7.61a295.3,295.3,0,0,1,68.05,17.69C453.42,270.62,512.79,342.52,512.79,425.76Z"/><path class="cls-3" d="M429.29,415.54c0,82.47-34.3,156.67-89,208.3A303.77,303.77,0,0,1,285.09,634q-9.94.91-20.11,1.17c-2.84.08-5.71.13-8.58.13-3.3,0-6.59-.05-9.86-.18C109.5,630.94,0,538.81,0,425.76c0-110.38,104.39-200.83,236.9-209q9.66-.62,19.5-.61a314.64,314.64,0,0,1,38.27,2.32c1.57.18,3.13.38,4.7.61a295.3,295.3,0,0,1,68.05,17.69A286.42,286.42,0,0,1,429.29,415.54Z"/><path class="cls-4" d="M349.31,404c0,91.67-32.53,174.13-84.33,231.17-2.84.08-5.71.13-8.58.13-3.3,0-6.59-.05-9.86-.18C109.5,630.94,0,538.81,0,425.76c0-110.38,104.39-200.83,236.9-209q9.66-.62,19.5-.61a314.64,314.64,0,0,1,38.27,2.32c1.57.18,3.13.38,4.7.61Q301.74,223,304,227l0,0C332.59,277.29,349.31,338.3,349.31,404Z"/><path class="cls-5" d="M358.72,423.21c0,103.15-31.5,189.38-73.63,210.83q-9.94.91-20.11,1.17c-2.84.08-5.71.13-8.58.13-3.3,0-6.59-.05-9.86-.18-43.3-19.35-76-106.88-76-211.95,0-97.12,27.92-179.24,66.36-206.41l57.77,1.71A77.51,77.51,0,0,1,304,227l0,0C336.3,261.22,358.72,336.21,358.72,423.21Z"/><path class="cls-6" d="M116.39,601.35C46.29,564,0,499.27,0,425.76,0,360.15,36.88,301.6,94.61,263.19c-15.67,36.29-25.9,77.21-29.17,120.94C59.28,466.73,79.22,543.74,116.39,601.35Z"/><path class="cls-11" d="M79.77,369.86q9.89.6,9.71,9.95l-1.65,6.76q-1.65,4.38-4.21,11.74-2.57,6.57-7.33,20.1-.92,3-2.75,8.75l-.18,12.34q.38,1.78.55,35.41A41.1,41.1,0,0,1,71.53,489q-1.09,2.58-7,10.34t-9.8,7.76h.37a120.54,120.54,0,0,0,4-12.57L60,486a147.52,147.52,0,0,1-.74-17.16q0-1.8-.36-10.38-.37-9.57-.37-11V437.7a31.73,31.73,0,0,0-1.1-9.38l-2.2-5.39-3.11-10.38-4.58-12q-1.09-4.38-3.29-13l-2.57-6.78a22.64,22.64,0,0,1-1.83-7.19h.37a12,12,0,0,1,4.58-.6q9,0,11,2.79c.61.93.74,2.85.37,5.77A40,40,0,0,0,56,388q4.76,20.68,13,33.22a7.42,7.42,0,0,1,1.46,3h.37v-.6q5.31-14.32,9.52-25.47,3.48-9,4-12.73a13,13,0,0,1,.64-3,13,13,0,0,0,.64-3.39q0-4.77-5-4.77A7,7,0,0,0,76.05,376a5.49,5.49,0,0,0-2.14,4.38c0,2.38.76,3.58,2.29,3.58s2.47-.86,2.47-2.59c-.61.13-1.4.27-2.38.4-.36-1.72-.49-2.59-.36-2.59a3.29,3.29,0,0,1,2.29-.79q3,0,2.83,3-.36,6.17-5.31,6.17a4.74,4.74,0,0,1-3.48-1.49,6.51,6.51,0,0,1-1.46-4.68,11.54,11.54,0,0,1,2.43-7.76,8,8,0,0,1,6.54-3.38Z"/><path class="cls-11" d="M143.13,464.76q-3.67,15.93-11.9,25.07a18.35,18.35,0,0,1-5.32,4.38,16.75,16.75,0,0,1-4,1.39q-3.12-.19-9.34-2.78t-8.06-5q-2.74-3.18-5.31-10.34A182,182,0,0,1,92.77,453q-1.47-12.93-1.65-19.7-.74-5.56-1.28-10.94a49.19,49.19,0,0,1-.18-11.15c.73-6.49,1.34-11.34,1.83-14.52,1.46-4.77,2.32-7.43,2.56-8q2.57-8.75,5.13-12.14,6-8,13-10.14l5.86-.8a36.23,36.23,0,0,0,4.4.4,7.82,7.82,0,0,1,4,.8,14.77,14.77,0,0,1,4.4,5.17c.37.53,1.34,2.42,2.93,5.67s2.81,5.6,3.66,7.06q6,15.72,7.51,46.36.56,5.17.73,8A98.31,98.31,0,0,1,143.13,464.76Zm-33.51-36.41h7V428q0-9.15.18-13.73.36-14.93-.73-32.63v-4.38a8,8,0,0,0-.74-4q-1.83,2.79-2.56,4a85.63,85.63,0,0,0-1.65,8.76Q109.61,395.73,109.62,428.35Zm8,9.36a24.09,24.09,0,0,1-1.09-6.57h-2.93c-1.83.13-3.18.27-4,.4q0,4.38.82,6c.55,1.06,2,1.59,4.49,1.59,1-.4,1.77-.73,2.38-1Q117.31,437.71,117.67,437.71Zm2.93,49.94q-2.75-33.43-2.93-34.43l-.73-10.94a3.31,3.31,0,0,0-.91-1.39,9.22,9.22,0,0,1-3.12.6c-1.71.26-2.56.2-2.56-.2a1.06,1.06,0,0,1-.73.4,178.72,178.72,0,0,0,2.74,18.9q1.11,5.37,4.22,18.1l1.64,5.18,1.84,3.78Zm6.78-99.88q-1.47-7.77-2.2-11.74L123,370.26h-3.67q-.18,5.37-.36,7.76.67,15.72.91,23.48v30l.73,6.56-.73,8q.84,10,2.93,29.25,1.1,11.94,1.47,14.52h.36v-.39a51,51,0,0,0,3.12-9.75q3.1-9.94,3.29-29.25A399.57,399.57,0,0,0,127.38,387.77Z"/><path class="cls-11" d="M192.93,369.26c2.34.93,3.56,2.33,3.68,4.18H197V373a9.27,9.27,0,0,1,3.85-1.19,1.61,1.61,0,0,1,1.83,1.79c0,.8-.58,1.66-1.74,2.59a5.92,5.92,0,0,0-2.11,2.58q-.37,10.15-2,24.28a137.73,137.73,0,0,1-.92,14.12,170.3,170.3,0,0,0,.73,26.07q.38,3,.74,18.1.36,16.71-.19,19.7c-.12.53-.55,1.79-1.28,3.78a9.55,9.55,0,0,0-.55,4c-.61.53-1.59,1.39-2.93,2.59a19.54,19.54,0,0,1-9.52,4.57c.85-.13-2-.37-8.51-.7s-10.78-2-12.73-5.07q-3.48-5.37-4-15.92v-17.5q-.37-10.35-1.1-30.84.18-4.79-.73-20.5-.91-17.89-2.56-24.47a6.39,6.39,0,0,0-1.93-3,5.08,5.08,0,0,1-1.74-3.38h.37V374q4.22,0,13-.2,1.28-.6,5.31-.4c2.81.14,4.33.53,4.58,1.2a2.53,2.53,0,0,1-.55,3l-3.3,3q-1.83,2.59-1.28,15.52.38,13.33,1.47,34.42.36,10,.18,18.71.56,4.77,1.19,16.81t5.95,19.6q3.84,5.37,6.41,5.57,5.31.19,8.61-4.78,1.28-2.19,2.56-9.35.36-2.58.18-16.71t-.55-16.52q-.18-11.34-.73-26.06.56-7.76,1.28-18.5c.74-8.09,1.16-12,1.29-11.74-.13-2-1.5-4.18-4.13-6.57s-3.93-4-3.93-4.77a1.51,1.51,0,0,1,.73-.2v-.4q4.38,1,4.76.6A66.84,66.84,0,0,1,192.93,369.26Z"/><path class="cls-11" d="M307.19,368.87q9.88,1.38,12.64,7.56.36.79,1.28,9.35a27.53,27.53,0,0,0,.55,4q-1.11,6.76-2.57,16.51c-.61,2.26-1.28,5.7-2,10.35a49.42,49.42,0,0,1-1.65,11.93c-.25,1.2-.61,2.86-1.1,5q-1.27,7-3.11,16.51-1.65,8.35-2.56,10.35l-2,7.16q-1.27,7.76-2.56,15.52-2.2,11.74-4.58,13.33a3.28,3.28,0,0,1-1.1.2q-2,0-2.84-4.38t-10.89-44.37l-5.13-14.32v.4c-.12,1.72-.31,3.38-.55,5a59.42,59.42,0,0,0-3.48,16.91l-1.46,5.57a103.44,103.44,0,0,1-2,13.13q-.18,2-.73,6a82.06,82.06,0,0,1-.37,10.15,8,8,0,0,1-1.46,2.78c-.86,1.2-1.35,1.86-1.47,2a3.54,3.54,0,0,1-2.74-1.59c-.62-.92-1.83-4.77-3.67-11.54q-4-16.11-12.45-47.15-2.74-11.34-9.52-33.43-.74-1.79-2.1-5.27t-3.76-10.24a18.47,18.47,0,0,1-2.56-5.38,20.39,20.39,0,0,1,2.74-1.39c.49-.26,2.57-.4,6.23-.4a47,47,0,0,1,6.41,0,2.92,2.92,0,0,1,1.65.8q1.28,6.17,3.48,14.52,2,5.78,5.49,17.51,1.83,8,5.86,23.88,2.19,8.16,5.49,18.7,1.11,3,2.38,5.77,1.83-9.15,4.22-20.69l2.38-19.1c.36-1.6.76-4.21,1.19-7.86s.7-5.47.82-5.47A33.46,33.46,0,0,1,281,400.3a3.22,3.22,0,0,1,3.12-1.79c.48,0,.73.27.73.8q.36,6.36,5.68,30.64a128.57,128.57,0,0,0,3.66,16.71,152.55,152.55,0,0,0,7.87,25.86h.37q0-3.58,3.85-19.13,2.37-9.18,4.76-18.35a171.78,171.78,0,0,0,3.66-22.72c.48-3.06,1.16-7.84,2-14.36q.74-3,1.65-9.17-.37-3.59-.73-7.17-.56-4.59-2.2-6.58-2.19-2.39-6.59-2.39a5.21,5.21,0,0,0-4.4,1.91c-1,1.28-1.46,3.53-1.46,6.75q0,7.26,3.84,7.05a6,6,0,0,0-.36-2.78,8.12,8.12,0,0,1-.55-2.19c0-.8.61-1.66,1.83-2.59,0-.26.12-.39.37-.39a8,8,0,0,1,2.74,2.18,3.94,3.94,0,0,1,.73,2.39,6.93,6.93,0,0,1-1.83,4.68,5.48,5.48,0,0,1-4.21,2.09,5.33,5.33,0,0,1-3.48-1.4q-2.93-3-2.93-9t2.75-9.15C303.1,371.45,304.87,370.33,307.19,368.87Z"/><path class="cls-11" d="M374.94,464.76q-3.66,15.93-11.9,25.07a18.47,18.47,0,0,1-5.31,4.38,16.76,16.76,0,0,1-4,1.39q-3.12-.19-9.34-2.78t-8.06-5q-2.74-3.18-5.31-10.34A183.48,183.48,0,0,1,324.58,453q-1.45-12.93-1.64-19.7-.74-5.56-1.28-10.94a49.86,49.86,0,0,1-.19-11.15c.73-6.49,1.34-11.34,1.83-14.52,1.47-4.77,2.32-7.43,2.57-8q2.55-8.75,5.12-12.14,6-8,13-10.14l5.85-.8a36.23,36.23,0,0,0,4.4.4,7.89,7.89,0,0,1,4,.8,14.76,14.76,0,0,1,4.39,5.17c.37.53,1.34,2.42,2.93,5.67s2.81,5.6,3.66,7.06q6,15.72,7.51,46.36.56,5.17.73,8A97.88,97.88,0,0,1,374.94,464.76Zm-33.51-36.41h7V428q0-9.15.18-13.73.38-14.93-.73-32.63v-4.38a8.13,8.13,0,0,0-.73-4q-1.83,2.79-2.57,4A85.08,85.08,0,0,0,342.9,386Q341.43,395.73,341.43,428.35Zm8.06,9.36a24.14,24.14,0,0,1-1.1-6.57h-2.93c-1.83.13-3.18.27-4,.4,0,2.92.28,4.91.82,6s2.05,1.59,4.49,1.59c1-.4,1.77-.73,2.38-1C349.12,437.84,349.24,437.71,349.49,437.71Zm2.93,49.94q-2.75-33.43-2.93-34.43l-.73-10.94a3.39,3.39,0,0,0-.92-1.39,9.2,9.2,0,0,1-3.11.6c-1.71.26-2.57.2-2.57-.2a1,1,0,0,1-.73.4,178.92,178.92,0,0,0,2.75,18.9q1.1,5.37,4.21,18.1l1.65,5.18,1.83,3.78Zm6.77-99.88Q357.72,380,357,376l-2.2-5.77h-3.66q-.19,5.37-.37,7.76.69,15.72.92,23.48v30l.73,6.56-.73,8q.82,10,2.93,29.25,1.1,11.94,1.46,14.52h.37v-.39a51.56,51.56,0,0,0,3.11-9.75q3.1-9.94,3.3-29.25A400.75,400.75,0,0,0,359.19,387.77Z"/><path class="cls-11" d="M381.9,359.32l2.76.59q2.74,1.6,18.73,40.76,6.06,17.1,13,37.78a96.76,96.76,0,0,1,5.14,13.91c1.1,2.52,2.58,6.5,4.41,11.93l5.06,11,.48,0v-.6q-1.65-3.57-4.21-42-2.38-35.61-2.38-40.29T424.2,378c-.37-.93-.68-1.4-.92-1.4a7.6,7.6,0,0,0,.37-2.18c0-2.12-1.35-3.75-4-4.88s-4-1.75-4-1.89h.55a3.71,3.71,0,0,1,2.2-.79,8.53,8.53,0,0,1,3.48,1.09,8.39,8.39,0,0,0,3.29,1.09h.37a15.83,15.83,0,0,1,.36-4.22c.12-.13.46-.56,1-1.26a3.28,3.28,0,0,0,.83-1.48H429c0,3.72.61,5.57,1.83,5.57a15.64,15.64,0,0,0,1.74-.4,11.69,11.69,0,0,1,2.84-.39,11,11,0,0,1,1.92.79,4.57,4.57,0,0,0,1.92.6v.79c-5,0-8.12,1.47-9.34,4.38a14.92,14.92,0,0,0-1.28,5.37,39.14,39.14,0,0,0,0,5.38c.24,2.65.37,4.57.37,5.77q-.19,3.18,1.28,25.46,1.45,23.49,2.38,31,.18,9.15,1.28,22.28l2,12.54a37.64,37.64,0,0,1-.55,7.76c-.62,3.71-1.47,5.9-2.57,6.56a3,3,0,0,1-3.84-.39q-.73-.6-4.58-8.16l-18.5-40.19q-5.31-12.93-13-32.63L387,402.09a2.25,2.25,0,0,0-1.28-1.39,31.17,31.17,0,0,1,.55,9.55V420q.73,11.94,1.65,35.41,0,9.16,1.47,27.26a11.13,11.13,0,0,0,2.38,4.08c1.34,1.66,2.5,2.49,3.47,2.49v.39h-.55c-.36.4-1.77.6-4.21.6q-1.28,0-1.28,6.37h-.36a4.89,4.89,0,0,1-2.2-2.79,5.59,5.59,0,0,0-1.56-2.58q-.83-.6-3.39,0a36,36,0,0,1-3.66.79v-.59h.55V491a9.17,9.17,0,0,0,5.68-5.77,16.73,16.73,0,0,0,.55-7c-.25-2.38-.49-4.77-.74-7.16V457.6q-.36-6.36-.73-18.9.18-11.34-.55-33.82-1.83-25.08-1.46-36.81A33.75,33.75,0,0,1,381.9,359.32Z"/><path class="cls-11" d="M481.33,475a7.78,7.78,0,0,1,2.37,5.47,7.16,7.16,0,0,1-1.73,4.68,5.1,5.1,0,0,1-3.94,2.09c-3.66,0-5.43-1.72-5.31-5.18q.18-3.18,4.94-3.18a9,9,0,0,0,.55,1.49,1.36,1.36,0,0,1,.19.7H478q-3.48,2.19-2,2.19a2.54,2.54,0,0,0,1.65.6q2.74,0,2.75-4.38,0-3.78-3.3-3.78a7.69,7.69,0,0,0-4.57,1.59c-2,1.46-2.93,3.71-2.93,6.76a12.46,12.46,0,0,0,2,6.77q2,3.18,4.76,3.18c.24-.66.55-1.59.92-2.78h.36v.39H478c.61,1.86.73,2.79.37,2.79-.25.8-.49,1.19-.74,1.19a9.59,9.59,0,0,1-7.41-3.34,14.15,14.15,0,0,1-3.57-8.19q-.37-3.85.18-4.86a9.33,9.33,0,0,1,5.49-5.47c1.71-.81,2.63-1.24,2.75-1.31a1.12,1.12,0,0,1,.55-.1A8.3,8.3,0,0,1,481.33,475Zm-2.75-106.54c1.71.27,2.75.93,3.11,2,.24.4.3,3.31.18,8.75q-.18,2.39.74,33,1.09,32.24,1.09,42,0,5.17-.36,6.07c-.24.59-2,2.06-5.34,4.37s-5.4,3.56-6.24,3.69a2,2,0,0,1-1.81-.6c-.6-.53-1-.76-1.09-.7s-.3-2-.54-6.26q0-3.39.55-23.88,0-3.18-.55-29.05-.54-20.3.92-26.86.36-1.78,4.85-7C477.08,370.59,478.58,368.74,478.58,368.47Z"/><path class="cls-1" d="M379.93,204.78a.7.7,0,0,1,.6,1l-5.42,12.82a7.47,7.47,0,0,1-1,1.68l-19.83,23.31a17,17,0,0,0-1.2,1.59l-13.65,20.52c-.31.46-.8,1.21-1.09,1.68l-10.23,16.08a18.5,18.5,0,0,0-1,1.74L317.33,305a19.83,19.83,0,0,0-.77,1.84l-5.64,16.09a.83.83,0,0,1-1.21.47L299,317.56a1.19,1.19,0,0,1-.53-1.41L308.73,289c.2-.52.54-1.35.75-1.85l6.79-15.68a13.38,13.38,0,0,1,1-1.75L329,252.06c.3-.46.8-1.21,1.11-1.66l8.73-12.86a14.34,14.34,0,0,1,1.26-1.54l16.52-16.89,1.4-1.43,7.16-7.33a10.8,10.8,0,0,1,1.55-1.24l7.09-4.38a3.44,3.44,0,0,1,1.84-.41Z"/><path class="cls-14" d="M312.14,342.26c-.23,9-1.71,16.67-3.29,17.13a2.78,2.78,0,0,1-3.58-1.55,28.78,28.78,0,0,1-.54-7.14c.09-2.6-.67-1.21-1.7,3.11l-2.78,11.77c-.52,2.15-3.07,3.84-5.67,3.75a16.31,16.31,0,0,1-8.13-2.82,18.19,18.19,0,0,1-4.94-7.92c-.86-2.91-.72-8.81.3-13.12a111.09,111.09,0,0,1,4.62-14.4c1.52-3.6,4-7.85,5.56-9.45s5.39-2,8.58-1a69.83,69.83,0,0,1,8.89,3.63C311.16,325.22,312.37,333.31,312.14,342.26Z"/><path class="cls-13" d="M289.49,317a7.54,7.54,0,0,1,8.7-3.09l17,6.18c3.11,1.12,3.95,4.11,1.88,6.64a9.3,9.3,0,0,1-9.45,2.66L292.1,324A4.65,4.65,0,0,1,289.49,317Z"/><path class="cls-15" d="M394.67,144.16c-10.58-3-22-1.6-25.38,3.11s-6.05,11.9-6,16,2.42,6.63,5.16,5.67,2.71,1.48-.08,5.43a55.22,55.22,0,0,0-7.17,15.95c-1.14,4.82.74,7.87,4.18,6.78a64.05,64.05,0,0,0,9.6-3.87c1.84-1-.45,2.68-5.1,8.27s-6.62,13.94-4.4,18.55,7.13,5.84,10.92,2.74,3.68,2.39-.25,12.22-1.49,13.75,5.41,8.72,10.91-2.3,8.93,6.06,1.91,10.69,8.65,5.18,12.59-4.05,13,3.25,4.58,8.36,9.33,2.34,9.15-4.91,9.79,2.45,2.75,6.67,4.71-1.55,5.65-12.82,8.21-10.22,4.72,1.29,4.79-2.9,1.61-6.13,3.44-4.32,5.4,1.36,7.95-1,2.66-7.37.24-11.13-1.54-4.77,2-2.23,8.54,1,11.19-3.48.9-12.61-3.88-18.17-3.79-7,2.22-3.26,12.29,1,14-6.05-1.52-16-7.12-19.8-5.29-5.08.68-2.83,11.28,2.23,11.82,0-7.68-6.58-18.26-9.58Z"/><path class="cls-19" d="M433,164c6.44,1.4,8.12-1.48,3.73-6.4l-2.09-2.34A109.7,109.7,0,0,0,417.25,140a93.38,93.38,0,0,0-20.69-9.73c-6.19-1.89-9.48.32-7.31,4.92s8.44,11.37,13.93,15l6.14,4.11a76.21,76.21,0,0,0,21.7,9.22Z"/><path class="cls-19" d="M432.33,163.23c-3.52-3.14-2.86-6.53,1.46-7.53s13.23-1.31,19.8-.69l6.71.63c6.57.61,14.49,3.08,17.59,5.48s2.83,5.82-.62,7.61-11.63,2.73-18.2,2.12l-8.41-.79C444.09,169.44,435.84,166.37,432.33,163.23Z"/></g></svg>